<?xml version="1.0" encoding="utf-8" standalone="no"?>
<!DOCTYPE svg PUBLIC "-//W3C//DTD SVG 1.1//EN"
  "http://www.w3.org/Graphics/SVG/1.1/DTD/svg11.dtd">
<!-- Created with matplotlib (https://matplotlib.org/) -->
<svg height="288pt" version="1.1" viewBox="0 0 360 288" width="360pt" xmlns="http://www.w3.org/2000/svg" xmlns:xlink="http://www.w3.org/1999/xlink">
 <metadata>
  <rdf:RDF xmlns:cc="http://creativecommons.org/ns#" xmlns:dc="http://purl.org/dc/elements/1.1/" xmlns:rdf="http://www.w3.org/1999/02/22-rdf-syntax-ns#">
   <cc:Work>
    <dc:type rdf:resource="http://purl.org/dc/dcmitype/StillImage"/>
    <dc:date>2022-09-25T00:48:12.159845</dc:date>
    <dc:format>image/svg+xml</dc:format>
    <dc:creator>
     <cc:Agent>
      <dc:title>Matplotlib v3.3.4, https://matplotlib.org/</dc:title>
     </cc:Agent>
    </dc:creator>
   </cc:Work>
  </rdf:RDF>
 </metadata>
 <defs>
  <style type="text/css">*{stroke-linecap:butt;stroke-linejoin:round;}</style>
 </defs>
 <g id="figure_1">
  <g id="patch_1">
   <path d="M 0 288 
L 360 288 
L 360 0 
L 0 0 
z
" style="fill:none;"/>
  </g>
  <g id="axes_1">
   <g id="patch_2">
    <path d="M 59.025 244.1 
L 333.082955 244.1 
L 333.082955 18.9 
L 59.025 18.9 
z
" style="fill:#ffffff;"/>
   </g>
   <g id="PolyCollection_1">
    <path clip-path="url(#pec3a99e5dd)" d="M 100.044349 233.863636 
L 92.748729 233.863636 
L 92.306289 233.142846 
L 91.833545 232.422055 
L 91.32664 231.701265 
L 90.780745 230.980474 
L 90.190439 230.259683 
L 89.550242 229.538893 
L 88.855263 228.818102 
L 88.101884 228.097311 
L 87.288407 227.376521 
L 86.415577 226.65573 
L 85.48691 225.93494 
L 84.508792 225.214149 
L 83.490326 224.493358 
L 82.442953 223.772568 
L 81.379889 223.051777 
L 80.315458 222.330987 
L 79.264388 221.610196 
L 78.241142 220.889405 
L 77.259356 220.168615 
L 76.331391 219.447824 
L 75.468033 218.727033 
L 74.678319 218.006243 
L 73.969449 217.285452 
L 73.346781 216.564662 
L 72.813845 215.843871 
L 72.372388 215.12308 
L 72.022423 214.40229 
L 71.762299 213.681499 
L 71.588813 212.960709 
L 71.497362 212.239918 
L 71.48218 211.519127 
L 71.536634 210.798337 
L 71.653596 210.077546 
L 71.825851 209.356755 
L 72.046522 208.635965 
L 72.309469 207.915174 
L 72.609617 207.194384 
L 72.943185 206.473593 
L 73.307785 205.752802 
L 73.702372 205.032012 
L 74.127054 204.311221 
L 74.582777 203.590431 
L 75.070904 202.86964 
L 75.592758 202.148849 
L 76.149151 201.428059 
L 76.739976 200.707268 
L 77.363904 199.986477 
L 78.018222 199.265687 
L 78.698833 198.544896 
L 79.400423 197.824106 
L 80.116767 197.103315 
L 80.841124 196.382524 
L 81.56667 195.661734 
L 82.28691 194.940943 
L 82.995994 194.220153 
L 83.688916 193.499362 
L 84.36156 192.778571 
L 85.010618 192.057781 
L 85.633398 191.33699 
L 86.22759 190.616199 
L 86.791043 189.895409 
L 87.321618 189.174618 
L 87.817163 188.453828 
L 88.27563 187.733037 
L 88.695329 187.012246 
L 89.07527 186.291456 
L 89.415556 185.570665 
L 89.717735 184.849875 
L 89.985042 184.129084 
L 90.222474 183.408293 
L 90.436652 182.687503 
L 90.635476 181.966712 
L 90.827575 181.245921 
L 91.021636 180.525131 
L 91.225659 179.80434 
L 91.446247 179.08355 
L 91.688011 178.362759 
L 91.953152 177.641968 
L 92.241285 176.921178 
L 92.549501 176.200387 
L 92.872683 175.479597 
L 93.204001 174.758806 
L 93.53556 174.038015 
L 93.859094 173.317225 
L 94.166661 172.596434 
L 94.451256 171.875643 
L 94.707298 171.154853 
L 94.93095 170.434062 
L 95.120276 169.713272 
L 95.275223 168.992481 
L 95.397463 168.27169 
L 95.490122 167.5509 
L 95.557423 166.830109 
L 95.604296 166.109319 
L 95.635979 165.388528 
L 95.65764 164.667737 
L 95.674055 163.946947 
L 95.689344 163.226156 
L 95.706791 162.505365 
L 97.086287 162.505365 
L 97.086287 162.505365 
L 97.103735 163.226156 
L 97.119024 163.946947 
L 97.135439 164.667737 
L 97.1571 165.388528 
L 97.188782 166.109319 
L 97.235655 166.830109 
L 97.302956 167.5509 
L 97.395615 168.27169 
L 97.517856 168.992481 
L 97.672803 169.713272 
L 97.862128 170.434062 
L 98.08578 171.154853 
L 98.341822 171.875643 
L 98.626418 172.596434 
L 98.933985 173.317225 
L 99.257518 174.038015 
L 99.589077 174.758806 
L 99.920396 175.479597 
L 100.243577 176.200387 
L 100.551794 176.921178 
L 100.839926 177.641968 
L 101.105068 178.362759 
L 101.346832 179.08355 
L 101.56742 179.80434 
L 101.771443 180.525131 
L 101.965503 181.245921 
L 102.157603 181.966712 
L 102.356426 182.687503 
L 102.570605 183.408293 
L 102.808036 184.129084 
L 103.075343 184.849875 
L 103.377523 185.570665 
L 103.717809 186.291456 
L 104.09775 187.012246 
L 104.517448 187.733037 
L 104.975916 188.453828 
L 105.471461 189.174618 
L 106.002035 189.895409 
L 106.565488 190.616199 
L 107.15968 191.33699 
L 107.782461 192.057781 
L 108.431519 192.778571 
L 109.104163 193.499362 
L 109.797084 194.220153 
L 110.506169 194.940943 
L 111.226409 195.661734 
L 111.951955 196.382524 
L 112.676311 197.103315 
L 113.392655 197.824106 
L 114.094246 198.544896 
L 114.774856 199.265687 
L 115.429174 199.986477 
L 116.053103 200.707268 
L 116.643928 201.428059 
L 117.200321 202.148849 
L 117.722174 202.86964 
L 118.210302 203.590431 
L 118.666024 204.311221 
L 119.090707 205.032012 
L 119.485294 205.752802 
L 119.849894 206.473593 
L 120.183462 207.194384 
L 120.48361 207.915174 
L 120.746556 208.635965 
L 120.967228 209.356755 
L 121.139482 210.077546 
L 121.256444 210.798337 
L 121.310899 211.519127 
L 121.295717 212.239918 
L 121.204266 212.960709 
L 121.030779 213.681499 
L 120.770656 214.40229 
L 120.420691 215.12308 
L 119.979233 215.843871 
L 119.446298 216.564662 
L 118.823629 217.285452 
L 118.11476 218.006243 
L 117.325045 218.727033 
L 116.461688 219.447824 
L 115.533722 220.168615 
L 114.551936 220.889405 
L 113.528691 221.610196 
L 112.47762 222.330987 
L 111.41319 223.051777 
L 110.350126 223.772568 
L 109.302753 224.493358 
L 108.284287 225.214149 
L 107.306169 225.93494 
L 106.377502 226.65573 
L 105.504671 227.376521 
L 104.691195 228.097311 
L 103.937816 228.818102 
L 103.242836 229.538893 
L 102.60264 230.259683 
L 102.012333 230.980474 
L 101.466438 231.701265 
L 100.959533 232.422055 
L 100.48679 233.142846 
L 100.044349 233.863636 
z
" style="fill:#1f77b4;fill-opacity:0.3;"/>
   </g>
   <g id="PolyCollection_2">
    <path clip-path="url(#pec3a99e5dd)" d="M 200.90692 185.794497 
L 191.201035 185.794497 
L 190.824225 184.212092 
L 190.455118 182.629687 
L 190.095349 181.047281 
L 189.745326 179.464876 
L 189.40412 177.88247 
L 189.069441 176.300065 
L 188.737711 174.71766 
L 188.404219 173.135254 
L 188.06337 171.552849 
L 187.709004 169.970443 
L 187.334768 168.388038 
L 186.934514 166.805633 
L 186.502706 165.223227 
L 186.034802 163.640822 
L 185.527582 162.058416 
L 184.979404 160.476011 
L 184.390378 158.893606 
L 183.762422 157.3112 
L 183.099226 155.728795 
L 182.4061 154.146389 
L 181.689729 152.563984 
L 180.957856 150.981579 
L 180.21889 149.399173 
L 179.481502 147.816768 
L 178.754201 146.234363 
L 178.044936 144.651957 
L 177.360755 143.069552 
L 176.70752 141.487146 
L 176.089728 139.904741 
L 175.510421 138.322336 
L 174.971201 136.73993 
L 174.472354 135.157525 
L 174.013052 133.575119 
L 173.591642 131.992714 
L 173.205983 130.410309 
L 172.853806 128.827903 
L 172.533083 127.245498 
L 172.242369 125.663092 
L 171.98108 124.080687 
L 171.74971 122.498282 
L 171.549946 120.915876 
L 171.38467 119.333471 
L 171.25786 117.751065 
L 171.174371 116.16866 
L 171.139618 114.586255 
L 171.159172 113.003849 
L 171.238312 111.421444 
L 171.381536 109.839039 
L 171.592101 108.256633 
L 171.871605 106.674228 
L 172.219655 105.091822 
L 172.633663 103.509417 
L 173.108775 101.927012 
L 173.637959 100.344606 
L 174.212257 98.762201 
L 174.821166 97.179795 
L 175.453153 95.59739 
L 176.09624 94.014985 
L 176.738642 92.432579 
L 177.369382 90.850174 
L 177.978863 89.267768 
L 178.559337 87.685363 
L 179.10524 86.102958 
L 179.613381 84.520552 
L 180.082956 82.938147 
L 180.515414 81.355742 
L 180.914178 79.773336 
L 181.28425 78.190931 
L 181.631747 76.608525 
L 181.963392 75.02612 
L 182.286016 73.443715 
L 182.606101 71.861309 
L 182.929391 70.278904 
L 183.260607 68.696498 
L 183.603261 67.114093 
L 183.959585 65.531688 
L 184.330558 63.949282 
L 184.716028 62.366877 
L 185.114888 60.784471 
L 185.525309 59.202066 
L 185.94497 57.619661 
L 186.371306 56.037255 
L 186.801707 54.45485 
L 187.233698 52.872444 
L 187.665054 51.290039 
L 188.09388 49.707634 
L 188.518629 48.125228 
L 188.938092 46.542823 
L 189.351347 44.960418 
L 189.757691 43.378012 
L 190.156563 41.795607 
L 190.547466 40.213201 
L 190.929901 38.630796 
L 191.30331 37.048391 
L 191.667043 35.465985 
L 192.020341 33.88358 
L 192.362335 32.301174 
L 192.692071 30.718769 
L 193.008533 29.136364 
L 199.099421 29.136364 
L 199.099421 29.136364 
L 199.415884 30.718769 
L 199.745619 32.301174 
L 200.087614 33.88358 
L 200.440912 35.465985 
L 200.804645 37.048391 
L 201.178054 38.630796 
L 201.560489 40.213201 
L 201.951392 41.795607 
L 202.350263 43.378012 
L 202.756607 44.960418 
L 203.169862 46.542823 
L 203.589325 48.125228 
L 204.014075 49.707634 
L 204.4429 51.290039 
L 204.874257 52.872444 
L 205.306247 54.45485 
L 205.736649 56.037255 
L 206.162984 57.619661 
L 206.582646 59.202066 
L 206.993066 60.784471 
L 207.391927 62.366877 
L 207.777397 63.949282 
L 208.14837 65.531688 
L 208.504693 67.114093 
L 208.847347 68.696498 
L 209.178563 70.278904 
L 209.501854 71.861309 
L 209.821938 73.443715 
L 210.144562 75.02612 
L 210.476207 76.608525 
L 210.823704 78.190931 
L 211.193777 79.773336 
L 211.592541 81.355742 
L 212.024999 82.938147 
L 212.494574 84.520552 
L 213.002714 86.102958 
L 213.548618 87.685363 
L 214.129092 89.267768 
L 214.738573 90.850174 
L 215.369313 92.432579 
L 216.011714 94.014985 
L 216.654802 95.59739 
L 217.286788 97.179795 
L 217.895697 98.762201 
L 218.469995 100.344606 
L 218.99918 101.927012 
L 219.474291 103.509417 
L 219.8883 105.091822 
L 220.23635 106.674228 
L 220.515854 108.256633 
L 220.726419 109.839039 
L 220.869643 111.421444 
L 220.948782 113.003849 
L 220.968337 114.586255 
L 220.933583 116.16866 
L 220.850095 117.751065 
L 220.723285 119.333471 
L 220.558009 120.915876 
L 220.358244 122.498282 
L 220.126875 124.080687 
L 219.865586 125.663092 
L 219.574871 127.245498 
L 219.254149 128.827903 
L 218.901972 130.410309 
L 218.516312 131.992714 
L 218.094903 133.575119 
L 217.635601 135.157525 
L 217.136753 136.73993 
L 216.597534 138.322336 
L 216.018226 139.904741 
L 215.400435 141.487146 
L 214.7472 143.069552 
L 214.063018 144.651957 
L 213.353754 146.234363 
L 212.626452 147.816768 
L 211.889065 149.399173 
L 211.150099 150.981579 
L 210.418225 152.563984 
L 209.701855 154.146389 
L 209.008729 155.728795 
L 208.345533 157.3112 
L 207.717577 158.893606 
L 207.12855 160.476011 
L 206.580373 162.058416 
L 206.073152 163.640822 
L 205.605248 165.223227 
L 205.173441 166.805633 
L 204.773187 168.388038 
L 204.39895 169.970443 
L 204.044585 171.552849 
L 203.703736 173.135254 
L 203.370243 174.71766 
L 203.038513 176.300065 
L 202.703835 177.88247 
L 202.362628 179.464876 
L 202.012605 181.047281 
L 201.652836 182.629687 
L 201.283729 184.212092 
L 200.90692 185.794497 
z
" style="fill:#1f77b4;fill-opacity:0.3;"/>
   </g>
   <g id="PolyCollection_3">
    <path clip-path="url(#pec3a99e5dd)" d="M 297.539418 222.264207 
L 293.883413 222.264207 
L 293.730426 221.647799 
L 293.581928 221.031391 
L 293.437282 220.414982 
L 293.294645 219.798574 
L 293.151003 219.182166 
L 293.002316 218.565758 
L 292.84378 217.94935 
L 292.670169 217.332941 
L 292.476235 216.716533 
L 292.257114 216.100125 
L 292.008705 215.483717 
L 291.727967 214.867309 
L 291.413121 214.2509 
L 291.063712 213.634492 
L 290.680552 213.018084 
L 290.265537 212.401676 
L 289.821361 211.785267 
L 289.351173 211.168859 
L 288.858206 210.552451 
L 288.345427 209.936043 
L 287.815238 209.319635 
L 287.26927 208.703226 
L 286.708283 208.086818 
L 286.132186 207.47041 
L 285.540162 206.854002 
L 284.930895 206.237594 
L 284.302861 205.621185 
L 283.654658 205.004777 
L 282.985339 204.388369 
L 282.294712 203.771961 
L 281.583593 203.155553 
L 280.853981 202.539144 
L 280.109144 201.922736 
L 279.353621 201.306328 
L 278.593132 200.68992 
L 277.834396 200.073512 
L 277.084876 199.457103 
L 276.35246 198.840695 
L 275.645085 198.224287 
L 274.970345 197.607879 
L 274.335107 196.99147 
L 273.745173 196.375062 
L 273.205035 195.758654 
L 272.717762 195.142246 
L 272.285045 194.525838 
L 271.907419 193.909429 
L 271.584647 193.293021 
L 271.316223 192.676613 
L 271.101943 192.060205 
L 270.94245 191.443797 
L 270.83967 190.827388 
L 270.797056 190.21098 
L 270.81958 189.594572 
L 270.91344 188.978164 
L 271.085502 188.361756 
L 271.342524 187.745347 
L 271.690254 187.128939 
L 272.132521 186.512531 
L 272.670431 185.896123 
L 273.301779 185.279714 
L 274.020775 184.663306 
L 274.818098 184.046898 
L 275.681314 183.43049 
L 276.595578 182.814082 
L 277.544574 182.197673 
L 278.511552 181.581265 
L 279.48039 180.964857 
L 280.436535 180.348449 
L 281.367769 179.732041 
L 282.264713 179.115632 
L 283.121057 178.499224 
L 283.933517 177.882816 
L 284.701534 177.266408 
L 285.426784 176.65 
L 286.112554 176.033591 
L 286.763049 175.417183 
L 287.382717 174.800775 
L 287.97563 174.184367 
L 288.544993 173.567958 
L 289.092805 172.95155 
L 289.619694 172.335142 
L 290.124932 171.718734 
L 290.606609 171.102326 
L 291.061947 170.485917 
L 291.487704 169.869509 
L 291.880635 169.253101 
L 292.237943 168.636693 
L 292.557688 168.020285 
L 292.839106 167.403876 
L 293.082804 166.787468 
L 293.290821 166.17106 
L 293.46654 165.554652 
L 293.614475 164.938244 
L 293.739941 164.321835 
L 293.848661 163.705427 
L 293.946339 163.089019 
L 294.038248 162.472611 
L 294.128876 161.856203 
L 294.221655 161.239794 
L 297.201176 161.239794 
L 297.201176 161.239794 
L 297.293955 161.856203 
L 297.384582 162.472611 
L 297.476492 163.089019 
L 297.57417 163.705427 
L 297.68289 164.321835 
L 297.808356 164.938244 
L 297.95629 165.554652 
L 298.13201 166.17106 
L 298.340027 166.787468 
L 298.583725 167.403876 
L 298.865142 168.020285 
L 299.184887 168.636693 
L 299.542195 169.253101 
L 299.935126 169.869509 
L 300.360884 170.485917 
L 300.816222 171.102326 
L 301.297898 171.718734 
L 301.803136 172.335142 
L 302.330025 172.95155 
L 302.877838 173.567958 
L 303.447201 174.184367 
L 304.040114 174.800775 
L 304.659782 175.417183 
L 305.310277 176.033591 
L 305.996046 176.65 
L 306.721296 177.266408 
L 307.489313 177.882816 
L 308.301773 178.499224 
L 309.158118 179.115632 
L 310.055061 179.732041 
L 310.986295 180.348449 
L 311.942441 180.964857 
L 312.911279 181.581265 
L 313.878257 182.197673 
L 314.827252 182.814082 
L 315.741517 183.43049 
L 316.604732 184.046898 
L 317.402056 184.663306 
L 318.121051 185.279714 
L 318.7524 185.896123 
L 319.29031 186.512531 
L 319.732577 187.128939 
L 320.080307 187.745347 
L 320.337329 188.361756 
L 320.509391 188.978164 
L 320.603251 189.594572 
L 320.625775 190.21098 
L 320.583161 190.827388 
L 320.480381 191.443797 
L 320.320888 192.060205 
L 320.106608 192.676613 
L 319.838184 193.293021 
L 319.515411 193.909429 
L 319.137785 194.525838 
L 318.705068 195.142246 
L 318.217795 195.758654 
L 317.677658 196.375062 
L 317.087724 196.99147 
L 316.452486 197.607879 
L 315.777746 198.224287 
L 315.070371 198.840695 
L 314.337954 199.457103 
L 313.588435 200.073512 
L 312.829699 200.68992 
L 312.06921 201.306328 
L 311.313687 201.922736 
L 310.56885 202.539144 
L 309.839237 203.155553 
L 309.128119 203.771961 
L 308.437492 204.388369 
L 307.768172 205.004777 
L 307.119969 205.621185 
L 306.491935 206.237594 
L 305.882668 206.854002 
L 305.290644 207.47041 
L 304.714547 208.086818 
L 304.153561 208.703226 
L 303.607593 209.319635 
L 303.077404 209.936043 
L 302.564624 210.552451 
L 302.071658 211.168859 
L 301.60147 211.785267 
L 301.157293 212.401676 
L 300.742278 213.018084 
L 300.359119 213.634492 
L 300.00971 214.2509 
L 299.694863 214.867309 
L 299.414126 215.483717 
L 299.165717 216.100125 
L 298.946596 216.716533 
L 298.752662 217.332941 
L 298.579051 217.94935 
L 298.420515 218.565758 
L 298.271828 219.182166 
L 298.128186 219.798574 
L 297.985549 220.414982 
L 297.840903 221.031391 
L 297.692405 221.647799 
L 297.539418 222.264207 
z
" style="fill:#1f77b4;fill-opacity:0.3;"/>
   </g>
   <g id="matplotlib.axis_1">
    <g id="xtick_1">
     <g id="line2d_1">
      <defs>
       <path d="M 0 0 
L 0 3.5 
" id="m9f4c29f6bc" style="stroke:#000000;stroke-width:0.8;"/>
      </defs>
      <g>
       <use style="stroke:#000000;stroke-width:0.8;" x="96.396539" xlink:href="#m9f4c29f6bc" y="244.1"/>
      </g>
     </g>
     <g id="text_1">
      <!-- Our Method -->
      <g transform="translate(44.767438 264.397266)scale(0.175 -0.175)">
       <defs>
        <path d="M 39.40625 66.21875 
Q 28.65625 66.21875 22.328125 58.203125 
Q 16.015625 50.203125 16.015625 36.375 
Q 16.015625 22.609375 22.328125 14.59375 
Q 28.65625 6.59375 39.40625 6.59375 
Q 50.140625 6.59375 56.421875 14.59375 
Q 62.703125 22.609375 62.703125 36.375 
Q 62.703125 50.203125 56.421875 58.203125 
Q 50.140625 66.21875 39.40625 66.21875 
z
M 39.40625 74.21875 
Q 54.734375 74.21875 63.90625 63.9375 
Q 73.09375 53.65625 73.09375 36.375 
Q 73.09375 19.140625 63.90625 8.859375 
Q 54.734375 -1.421875 39.40625 -1.421875 
Q 24.03125 -1.421875 14.8125 8.828125 
Q 5.609375 19.09375 5.609375 36.375 
Q 5.609375 53.65625 14.8125 63.9375 
Q 24.03125 74.21875 39.40625 74.21875 
z
" id="DejaVuSans-79"/>
        <path d="M 8.5 21.578125 
L 8.5 54.6875 
L 17.484375 54.6875 
L 17.484375 21.921875 
Q 17.484375 14.15625 20.5 10.265625 
Q 23.53125 6.390625 29.59375 6.390625 
Q 36.859375 6.390625 41.078125 11.03125 
Q 45.3125 15.671875 45.3125 23.6875 
L 45.3125 54.6875 
L 54.296875 54.6875 
L 54.296875 0 
L 45.3125 0 
L 45.3125 8.40625 
Q 42.046875 3.421875 37.71875 1 
Q 33.40625 -1.421875 27.6875 -1.421875 
Q 18.265625 -1.421875 13.375 4.4375 
Q 8.5 10.296875 8.5 21.578125 
z
M 31.109375 56 
z
" id="DejaVuSans-117"/>
        <path d="M 41.109375 46.296875 
Q 39.59375 47.171875 37.8125 47.578125 
Q 36.03125 48 33.890625 48 
Q 26.265625 48 22.1875 43.046875 
Q 18.109375 38.09375 18.109375 28.8125 
L 18.109375 0 
L 9.078125 0 
L 9.078125 54.6875 
L 18.109375 54.6875 
L 18.109375 46.1875 
Q 20.953125 51.171875 25.484375 53.578125 
Q 30.03125 56 36.53125 56 
Q 37.453125 56 38.578125 55.875 
Q 39.703125 55.765625 41.0625 55.515625 
z
" id="DejaVuSans-114"/>
        <path id="DejaVuSans-32"/>
        <path d="M 9.8125 72.90625 
L 24.515625 72.90625 
L 43.109375 23.296875 
L 61.8125 72.90625 
L 76.515625 72.90625 
L 76.515625 0 
L 66.890625 0 
L 66.890625 64.015625 
L 48.09375 14.015625 
L 38.1875 14.015625 
L 19.390625 64.015625 
L 19.390625 0 
L 9.8125 0 
z
" id="DejaVuSans-77"/>
        <path d="M 56.203125 29.59375 
L 56.203125 25.203125 
L 14.890625 25.203125 
Q 15.484375 15.921875 20.484375 11.0625 
Q 25.484375 6.203125 34.421875 6.203125 
Q 39.59375 6.203125 44.453125 7.46875 
Q 49.3125 8.734375 54.109375 11.28125 
L 54.109375 2.78125 
Q 49.265625 0.734375 44.1875 -0.34375 
Q 39.109375 -1.421875 33.890625 -1.421875 
Q 20.796875 -1.421875 13.15625 6.1875 
Q 5.515625 13.8125 5.515625 26.8125 
Q 5.515625 40.234375 12.765625 48.109375 
Q 20.015625 56 32.328125 56 
Q 43.359375 56 49.78125 48.890625 
Q 56.203125 41.796875 56.203125 29.59375 
z
M 47.21875 32.234375 
Q 47.125 39.59375 43.09375 43.984375 
Q 39.0625 48.390625 32.421875 48.390625 
Q 24.90625 48.390625 20.390625 44.140625 
Q 15.875 39.890625 15.1875 32.171875 
z
" id="DejaVuSans-101"/>
        <path d="M 18.3125 70.21875 
L 18.3125 54.6875 
L 36.8125 54.6875 
L 36.8125 47.703125 
L 18.3125 47.703125 
L 18.3125 18.015625 
Q 18.3125 11.328125 20.140625 9.421875 
Q 21.96875 7.515625 27.59375 7.515625 
L 36.8125 7.515625 
L 36.8125 0 
L 27.59375 0 
Q 17.1875 0 13.234375 3.875 
Q 9.28125 7.765625 9.28125 18.015625 
L 9.28125 47.703125 
L 2.6875 47.703125 
L 2.6875 54.6875 
L 9.28125 54.6875 
L 9.28125 70.21875 
z
" id="DejaVuSans-116"/>
        <path d="M 54.890625 33.015625 
L 54.890625 0 
L 45.90625 0 
L 45.90625 32.71875 
Q 45.90625 40.484375 42.875 44.328125 
Q 39.84375 48.1875 33.796875 48.1875 
Q 26.515625 48.1875 22.3125 43.546875 
Q 18.109375 38.921875 18.109375 30.90625 
L 18.109375 0 
L 9.078125 0 
L 9.078125 75.984375 
L 18.109375 75.984375 
L 18.109375 46.1875 
Q 21.34375 51.125 25.703125 53.5625 
Q 30.078125 56 35.796875 56 
Q 45.21875 56 50.046875 50.171875 
Q 54.890625 44.34375 54.890625 33.015625 
z
" id="DejaVuSans-104"/>
        <path d="M 30.609375 48.390625 
Q 23.390625 48.390625 19.1875 42.75 
Q 14.984375 37.109375 14.984375 27.296875 
Q 14.984375 17.484375 19.15625 11.84375 
Q 23.34375 6.203125 30.609375 6.203125 
Q 37.796875 6.203125 41.984375 11.859375 
Q 46.1875 17.53125 46.1875 27.296875 
Q 46.1875 37.015625 41.984375 42.703125 
Q 37.796875 48.390625 30.609375 48.390625 
z
M 30.609375 56 
Q 42.328125 56 49.015625 48.375 
Q 55.71875 40.765625 55.71875 27.296875 
Q 55.71875 13.875 49.015625 6.21875 
Q 42.328125 -1.421875 30.609375 -1.421875 
Q 18.84375 -1.421875 12.171875 6.21875 
Q 5.515625 13.875 5.515625 27.296875 
Q 5.515625 40.765625 12.171875 48.375 
Q 18.84375 56 30.609375 56 
z
" id="DejaVuSans-111"/>
        <path d="M 45.40625 46.390625 
L 45.40625 75.984375 
L 54.390625 75.984375 
L 54.390625 0 
L 45.40625 0 
L 45.40625 8.203125 
Q 42.578125 3.328125 38.25 0.953125 
Q 33.9375 -1.421875 27.875 -1.421875 
Q 17.96875 -1.421875 11.734375 6.484375 
Q 5.515625 14.40625 5.515625 27.296875 
Q 5.515625 40.1875 11.734375 48.09375 
Q 17.96875 56 27.875 56 
Q 33.9375 56 38.25 53.625 
Q 42.578125 51.265625 45.40625 46.390625 
z
M 14.796875 27.296875 
Q 14.796875 17.390625 18.875 11.75 
Q 22.953125 6.109375 30.078125 6.109375 
Q 37.203125 6.109375 41.296875 11.75 
Q 45.40625 17.390625 45.40625 27.296875 
Q 45.40625 37.203125 41.296875 42.84375 
Q 37.203125 48.484375 30.078125 48.484375 
Q 22.953125 48.484375 18.875 42.84375 
Q 14.796875 37.203125 14.796875 27.296875 
z
" id="DejaVuSans-100"/>
       </defs>
       <use xlink:href="#DejaVuSans-79"/>
       <use x="78.710938" xlink:href="#DejaVuSans-117"/>
       <use x="142.089844" xlink:href="#DejaVuSans-114"/>
       <use x="183.203125" xlink:href="#DejaVuSans-32"/>
       <use x="214.990234" xlink:href="#DejaVuSans-77"/>
       <use x="301.269531" xlink:href="#DejaVuSans-101"/>
       <use x="362.792969" xlink:href="#DejaVuSans-116"/>
       <use x="402.001953" xlink:href="#DejaVuSans-104"/>
       <use x="465.380859" xlink:href="#DejaVuSans-111"/>
       <use x="526.5625" xlink:href="#DejaVuSans-100"/>
      </g>
     </g>
    </g>
    <g id="xtick_2">
     <g id="line2d_2">
      <g>
       <use style="stroke:#000000;stroke-width:0.8;" x="196.053977" xlink:href="#m9f4c29f6bc" y="244.1"/>
      </g>
     </g>
     <g id="text_2">
      <!-- Stein's -->
      <g transform="translate(166.745579 264.397266)scale(0.175 -0.175)">
       <defs>
        <path d="M 53.515625 70.515625 
L 53.515625 60.890625 
Q 47.90625 63.578125 42.921875 64.890625 
Q 37.9375 66.21875 33.296875 66.21875 
Q 25.25 66.21875 20.875 63.09375 
Q 16.5 59.96875 16.5 54.203125 
Q 16.5 49.359375 19.40625 46.890625 
Q 22.3125 44.4375 30.421875 42.921875 
L 36.375 41.703125 
Q 47.40625 39.59375 52.65625 34.296875 
Q 57.90625 29 57.90625 20.125 
Q 57.90625 9.515625 50.796875 4.046875 
Q 43.703125 -1.421875 29.984375 -1.421875 
Q 24.8125 -1.421875 18.96875 -0.25 
Q 13.140625 0.921875 6.890625 3.21875 
L 6.890625 13.375 
Q 12.890625 10.015625 18.65625 8.296875 
Q 24.421875 6.59375 29.984375 6.59375 
Q 38.421875 6.59375 43.015625 9.90625 
Q 47.609375 13.234375 47.609375 19.390625 
Q 47.609375 24.75 44.3125 27.78125 
Q 41.015625 30.8125 33.5 32.328125 
L 27.484375 33.5 
Q 16.453125 35.6875 11.515625 40.375 
Q 6.59375 45.0625 6.59375 53.421875 
Q 6.59375 63.09375 13.40625 68.65625 
Q 20.21875 74.21875 32.171875 74.21875 
Q 37.3125 74.21875 42.625 73.28125 
Q 47.953125 72.359375 53.515625 70.515625 
z
" id="DejaVuSans-83"/>
        <path d="M 9.421875 54.6875 
L 18.40625 54.6875 
L 18.40625 0 
L 9.421875 0 
z
M 9.421875 75.984375 
L 18.40625 75.984375 
L 18.40625 64.59375 
L 9.421875 64.59375 
z
" id="DejaVuSans-105"/>
        <path d="M 54.890625 33.015625 
L 54.890625 0 
L 45.90625 0 
L 45.90625 32.71875 
Q 45.90625 40.484375 42.875 44.328125 
Q 39.84375 48.1875 33.796875 48.1875 
Q 26.515625 48.1875 22.3125 43.546875 
Q 18.109375 38.921875 18.109375 30.90625 
L 18.109375 0 
L 9.078125 0 
L 9.078125 54.6875 
L 18.109375 54.6875 
L 18.109375 46.1875 
Q 21.34375 51.125 25.703125 53.5625 
Q 30.078125 56 35.796875 56 
Q 45.21875 56 50.046875 50.171875 
Q 54.890625 44.34375 54.890625 33.015625 
z
" id="DejaVuSans-110"/>
        <path d="M 17.921875 72.90625 
L 17.921875 45.796875 
L 9.625 45.796875 
L 9.625 72.90625 
z
" id="DejaVuSans-39"/>
        <path d="M 44.28125 53.078125 
L 44.28125 44.578125 
Q 40.484375 46.53125 36.375 47.5 
Q 32.28125 48.484375 27.875 48.484375 
Q 21.1875 48.484375 17.84375 46.4375 
Q 14.5 44.390625 14.5 40.28125 
Q 14.5 37.15625 16.890625 35.375 
Q 19.28125 33.59375 26.515625 31.984375 
L 29.59375 31.296875 
Q 39.15625 29.25 43.1875 25.515625 
Q 47.21875 21.78125 47.21875 15.09375 
Q 47.21875 7.46875 41.1875 3.015625 
Q 35.15625 -1.421875 24.609375 -1.421875 
Q 20.21875 -1.421875 15.453125 -0.5625 
Q 10.6875 0.296875 5.421875 2 
L 5.421875 11.28125 
Q 10.40625 8.6875 15.234375 7.390625 
Q 20.0625 6.109375 24.8125 6.109375 
Q 31.15625 6.109375 34.5625 8.28125 
Q 37.984375 10.453125 37.984375 14.40625 
Q 37.984375 18.0625 35.515625 20.015625 
Q 33.0625 21.96875 24.703125 23.78125 
L 21.578125 24.515625 
Q 13.234375 26.265625 9.515625 29.90625 
Q 5.8125 33.546875 5.8125 39.890625 
Q 5.8125 47.609375 11.28125 51.796875 
Q 16.75 56 26.8125 56 
Q 31.78125 56 36.171875 55.265625 
Q 40.578125 54.546875 44.28125 53.078125 
z
" id="DejaVuSans-115"/>
       </defs>
       <use xlink:href="#DejaVuSans-83"/>
       <use x="63.476562" xlink:href="#DejaVuSans-116"/>
       <use x="102.685547" xlink:href="#DejaVuSans-101"/>
       <use x="164.208984" xlink:href="#DejaVuSans-105"/>
       <use x="191.992188" xlink:href="#DejaVuSans-110"/>
       <use x="255.371094" xlink:href="#DejaVuSans-39"/>
       <use x="282.861328" xlink:href="#DejaVuSans-115"/>
      </g>
     </g>
    </g>
    <g id="xtick_3">
     <g id="line2d_3">
      <g>
       <use style="stroke:#000000;stroke-width:0.8;" x="295.711415" xlink:href="#m9f4c29f6bc" y="244.1"/>
      </g>
     </g>
     <g id="text_3">
      <!-- Entry-wise -->
      <g transform="translate(249.898329 264.397266)scale(0.175 -0.175)">
       <defs>
        <path d="M 9.8125 72.90625 
L 55.90625 72.90625 
L 55.90625 64.59375 
L 19.671875 64.59375 
L 19.671875 43.015625 
L 54.390625 43.015625 
L 54.390625 34.71875 
L 19.671875 34.71875 
L 19.671875 8.296875 
L 56.78125 8.296875 
L 56.78125 0 
L 9.8125 0 
z
" id="DejaVuSans-69"/>
        <path d="M 32.171875 -5.078125 
Q 28.375 -14.84375 24.75 -17.8125 
Q 21.140625 -20.796875 15.09375 -20.796875 
L 7.90625 -20.796875 
L 7.90625 -13.28125 
L 13.1875 -13.28125 
Q 16.890625 -13.28125 18.9375 -11.515625 
Q 21 -9.765625 23.484375 -3.21875 
L 25.09375 0.875 
L 2.984375 54.6875 
L 12.5 54.6875 
L 29.59375 11.921875 
L 46.6875 54.6875 
L 56.203125 54.6875 
z
" id="DejaVuSans-121"/>
        <path d="M 4.890625 31.390625 
L 31.203125 31.390625 
L 31.203125 23.390625 
L 4.890625 23.390625 
z
" id="DejaVuSans-45"/>
        <path d="M 4.203125 54.6875 
L 13.1875 54.6875 
L 24.421875 12.015625 
L 35.59375 54.6875 
L 46.1875 54.6875 
L 57.421875 12.015625 
L 68.609375 54.6875 
L 77.59375 54.6875 
L 63.28125 0 
L 52.6875 0 
L 40.921875 44.828125 
L 29.109375 0 
L 18.5 0 
z
" id="DejaVuSans-119"/>
       </defs>
       <use xlink:href="#DejaVuSans-69"/>
       <use x="63.183594" xlink:href="#DejaVuSans-110"/>
       <use x="126.5625" xlink:href="#DejaVuSans-116"/>
       <use x="165.771484" xlink:href="#DejaVuSans-114"/>
       <use x="206.884766" xlink:href="#DejaVuSans-121"/>
       <use x="264.314453" xlink:href="#DejaVuSans-45"/>
       <use x="300.398438" xlink:href="#DejaVuSans-119"/>
       <use x="382.185547" xlink:href="#DejaVuSans-105"/>
       <use x="409.96875" xlink:href="#DejaVuSans-115"/>
       <use x="462.068359" xlink:href="#DejaVuSans-101"/>
      </g>
     </g>
    </g>
   </g>
   <g id="matplotlib.axis_2">
    <g id="ytick_1">
     <g id="line2d_4">
      <defs>
       <path d="M 0 0 
L -3.5 0 
" id="mbf20bf5770" style="stroke:#000000;stroke-width:0.8;"/>
      </defs>
      <g>
       <use style="stroke:#000000;stroke-width:0.8;" x="59.025" xlink:href="#mbf20bf5770" y="194.642792"/>
      </g>
     </g>
     <g id="text_4">
      <!-- 1 -->
      <g transform="translate(40.890625 201.291425)scale(0.175 -0.175)">
       <defs>
        <path d="M 12.40625 8.296875 
L 28.515625 8.296875 
L 28.515625 63.921875 
L 10.984375 60.40625 
L 10.984375 69.390625 
L 28.421875 72.90625 
L 38.28125 72.90625 
L 38.28125 8.296875 
L 54.390625 8.296875 
L 54.390625 0 
L 12.40625 0 
z
" id="DejaVuSans-49"/>
       </defs>
       <use xlink:href="#DejaVuSans-49"/>
      </g>
     </g>
    </g>
    <g id="ytick_2">
     <g id="line2d_5">
      <g>
       <use style="stroke:#000000;stroke-width:0.8;" x="59.025" xlink:href="#mbf20bf5770" y="133.595981"/>
      </g>
     </g>
     <g id="text_5">
      <!-- 2 -->
      <g transform="translate(40.890625 140.244614)scale(0.175 -0.175)">
       <defs>
        <path d="M 19.1875 8.296875 
L 53.609375 8.296875 
L 53.609375 0 
L 7.328125 0 
L 7.328125 8.296875 
Q 12.9375 14.109375 22.625 23.890625 
Q 32.328125 33.6875 34.8125 36.53125 
Q 39.546875 41.84375 41.421875 45.53125 
Q 43.3125 49.21875 43.3125 52.78125 
Q 43.3125 58.59375 39.234375 62.25 
Q 35.15625 65.921875 28.609375 65.921875 
Q 23.96875 65.921875 18.8125 64.3125 
Q 13.671875 62.703125 7.8125 59.421875 
L 7.8125 69.390625 
Q 13.765625 71.78125 18.9375 73 
Q 24.125 74.21875 28.421875 74.21875 
Q 39.75 74.21875 46.484375 68.546875 
Q 53.21875 62.890625 53.21875 53.421875 
Q 53.21875 48.921875 51.53125 44.890625 
Q 49.859375 40.875 45.40625 35.40625 
Q 44.1875 33.984375 37.640625 27.21875 
Q 31.109375 20.453125 19.1875 8.296875 
z
" id="DejaVuSans-50"/>
       </defs>
       <use xlink:href="#DejaVuSans-50"/>
      </g>
     </g>
    </g>
    <g id="ytick_3">
     <g id="line2d_6">
      <g>
       <use style="stroke:#000000;stroke-width:0.8;" x="59.025" xlink:href="#mbf20bf5770" y="72.549171"/>
      </g>
     </g>
     <g id="text_6">
      <!-- 3 -->
      <g transform="translate(40.890625 79.197804)scale(0.175 -0.175)">
       <defs>
        <path d="M 40.578125 39.3125 
Q 47.65625 37.796875 51.625 33 
Q 55.609375 28.21875 55.609375 21.1875 
Q 55.609375 10.40625 48.1875 4.484375 
Q 40.765625 -1.421875 27.09375 -1.421875 
Q 22.515625 -1.421875 17.65625 -0.515625 
Q 12.796875 0.390625 7.625 2.203125 
L 7.625 11.71875 
Q 11.71875 9.328125 16.59375 8.109375 
Q 21.484375 6.890625 26.8125 6.890625 
Q 36.078125 6.890625 40.9375 10.546875 
Q 45.796875 14.203125 45.796875 21.1875 
Q 45.796875 27.640625 41.28125 31.265625 
Q 36.765625 34.90625 28.71875 34.90625 
L 20.21875 34.90625 
L 20.21875 43.015625 
L 29.109375 43.015625 
Q 36.375 43.015625 40.234375 45.921875 
Q 44.09375 48.828125 44.09375 54.296875 
Q 44.09375 59.90625 40.109375 62.90625 
Q 36.140625 65.921875 28.71875 65.921875 
Q 24.65625 65.921875 20.015625 65.03125 
Q 15.375 64.15625 9.8125 62.3125 
L 9.8125 71.09375 
Q 15.4375 72.65625 20.34375 73.4375 
Q 25.25 74.21875 29.59375 74.21875 
Q 40.828125 74.21875 47.359375 69.109375 
Q 53.90625 64.015625 53.90625 55.328125 
Q 53.90625 49.265625 50.4375 45.09375 
Q 46.96875 40.921875 40.578125 39.3125 
z
" id="DejaVuSans-51"/>
       </defs>
       <use xlink:href="#DejaVuSans-51"/>
      </g>
     </g>
    </g>
    <g id="text_7">
     <!-- Estimation Error -->
     <g transform="translate(33.251172 202.198633)rotate(-90)scale(0.175 -0.175)">
      <defs>
       <path d="M 52 44.1875 
Q 55.375 50.25 60.0625 53.125 
Q 64.75 56 71.09375 56 
Q 79.640625 56 84.28125 50.015625 
Q 88.921875 44.046875 88.921875 33.015625 
L 88.921875 0 
L 79.890625 0 
L 79.890625 32.71875 
Q 79.890625 40.578125 77.09375 44.375 
Q 74.3125 48.1875 68.609375 48.1875 
Q 61.625 48.1875 57.5625 43.546875 
Q 53.515625 38.921875 53.515625 30.90625 
L 53.515625 0 
L 44.484375 0 
L 44.484375 32.71875 
Q 44.484375 40.625 41.703125 44.40625 
Q 38.921875 48.1875 33.109375 48.1875 
Q 26.21875 48.1875 22.15625 43.53125 
Q 18.109375 38.875 18.109375 30.90625 
L 18.109375 0 
L 9.078125 0 
L 9.078125 54.6875 
L 18.109375 54.6875 
L 18.109375 46.1875 
Q 21.1875 51.21875 25.484375 53.609375 
Q 29.78125 56 35.6875 56 
Q 41.65625 56 45.828125 52.96875 
Q 50 49.953125 52 44.1875 
z
" id="DejaVuSans-109"/>
       <path d="M 34.28125 27.484375 
Q 23.390625 27.484375 19.1875 25 
Q 14.984375 22.515625 14.984375 16.5 
Q 14.984375 11.71875 18.140625 8.90625 
Q 21.296875 6.109375 26.703125 6.109375 
Q 34.1875 6.109375 38.703125 11.40625 
Q 43.21875 16.703125 43.21875 25.484375 
L 43.21875 27.484375 
z
M 52.203125 31.203125 
L 52.203125 0 
L 43.21875 0 
L 43.21875 8.296875 
Q 40.140625 3.328125 35.546875 0.953125 
Q 30.953125 -1.421875 24.3125 -1.421875 
Q 15.921875 -1.421875 10.953125 3.296875 
Q 6 8.015625 6 15.921875 
Q 6 25.140625 12.171875 29.828125 
Q 18.359375 34.515625 30.609375 34.515625 
L 43.21875 34.515625 
L 43.21875 35.40625 
Q 43.21875 41.609375 39.140625 45 
Q 35.0625 48.390625 27.6875 48.390625 
Q 23 48.390625 18.546875 47.265625 
Q 14.109375 46.140625 10.015625 43.890625 
L 10.015625 52.203125 
Q 14.9375 54.109375 19.578125 55.046875 
Q 24.21875 56 28.609375 56 
Q 40.484375 56 46.34375 49.84375 
Q 52.203125 43.703125 52.203125 31.203125 
z
" id="DejaVuSans-97"/>
      </defs>
      <use xlink:href="#DejaVuSans-69"/>
      <use x="63.183594" xlink:href="#DejaVuSans-115"/>
      <use x="115.283203" xlink:href="#DejaVuSans-116"/>
      <use x="154.492188" xlink:href="#DejaVuSans-105"/>
      <use x="182.275391" xlink:href="#DejaVuSans-109"/>
      <use x="279.6875" xlink:href="#DejaVuSans-97"/>
      <use x="340.966797" xlink:href="#DejaVuSans-116"/>
      <use x="380.175781" xlink:href="#DejaVuSans-105"/>
      <use x="407.958984" xlink:href="#DejaVuSans-111"/>
      <use x="469.140625" xlink:href="#DejaVuSans-110"/>
      <use x="532.519531" xlink:href="#DejaVuSans-32"/>
      <use x="564.306641" xlink:href="#DejaVuSans-69"/>
      <use x="627.490234" xlink:href="#DejaVuSans-114"/>
      <use x="666.853516" xlink:href="#DejaVuSans-114"/>
      <use x="705.716797" xlink:href="#DejaVuSans-111"/>
      <use x="766.898438" xlink:href="#DejaVuSans-114"/>
     </g>
    </g>
   </g>
   <g id="LineCollection_1">
    <path clip-path="url(#pec3a99e5dd)" d="M 83.93936 162.505365 
L 108.853719 162.505365 
" style="fill:none;stroke:#1f77b4;stroke-width:1.5;"/>
    <path clip-path="url(#pec3a99e5dd)" d="M 183.596798 29.136364 
L 208.511157 29.136364 
" style="fill:none;stroke:#1f77b4;stroke-width:1.5;"/>
    <path clip-path="url(#pec3a99e5dd)" d="M 283.254236 161.239794 
L 308.168595 161.239794 
" style="fill:none;stroke:#1f77b4;stroke-width:1.5;"/>
   </g>
   <g id="LineCollection_2">
    <path clip-path="url(#pec3a99e5dd)" d="M 83.93936 233.863636 
L 108.853719 233.863636 
" style="fill:none;stroke:#1f77b4;stroke-width:1.5;"/>
    <path clip-path="url(#pec3a99e5dd)" d="M 183.596798 185.794497 
L 208.511157 185.794497 
" style="fill:none;stroke:#1f77b4;stroke-width:1.5;"/>
    <path clip-path="url(#pec3a99e5dd)" d="M 283.254236 222.264207 
L 308.168595 222.264207 
" style="fill:none;stroke:#1f77b4;stroke-width:1.5;"/>
   </g>
   <g id="LineCollection_3">
    <path clip-path="url(#pec3a99e5dd)" d="M 96.396539 233.863636 
L 96.396539 162.505365 
" style="fill:none;stroke:#1f77b4;stroke-width:1.5;"/>
    <path clip-path="url(#pec3a99e5dd)" d="M 196.053977 185.794497 
L 196.053977 29.136364 
" style="fill:none;stroke:#1f77b4;stroke-width:1.5;"/>
    <path clip-path="url(#pec3a99e5dd)" d="M 295.711415 222.264207 
L 295.711415 161.239794 
" style="fill:none;stroke:#1f77b4;stroke-width:1.5;"/>
   </g>
   <g id="patch_3">
    <path d="M 59.025 244.1 
L 59.025 18.9 
" style="fill:none;stroke:#000000;stroke-linecap:square;stroke-linejoin:miter;stroke-width:0.8;"/>
   </g>
   <g id="patch_4">
    <path d="M 333.082955 244.1 
L 333.082955 18.9 
" style="fill:none;stroke:#000000;stroke-linecap:square;stroke-linejoin:miter;stroke-width:0.8;"/>
   </g>
   <g id="patch_5">
    <path d="M 59.025 244.1 
L 333.082955 244.1 
" style="fill:none;stroke:#000000;stroke-linecap:square;stroke-linejoin:miter;stroke-width:0.8;"/>
   </g>
   <g id="patch_6">
    <path d="M 59.025 18.9 
L 333.082955 18.9 
" style="fill:none;stroke:#000000;stroke-linecap:square;stroke-linejoin:miter;stroke-width:0.8;"/>
   </g>
  </g>
 </g>
 <defs>
  <clipPath id="pec3a99e5dd">
   <rect height="225.2" width="274.057955" x="59.025" y="18.9"/>
  </clipPath>
 </defs>
</svg>
