<?xml version="1.0" encoding="utf-8" standalone="no"?>
<!DOCTYPE svg PUBLIC "-//W3C//DTD SVG 1.1//EN"
  "http://www.w3.org/Graphics/SVG/1.1/DTD/svg11.dtd">
<!-- Created with matplotlib (https://matplotlib.org/) -->
<svg height="288pt" version="1.1" viewBox="0 0 360 288" width="360pt" xmlns="http://www.w3.org/2000/svg" xmlns:xlink="http://www.w3.org/1999/xlink">
 <metadata>
  <rdf:RDF xmlns:cc="http://creativecommons.org/ns#" xmlns:dc="http://purl.org/dc/elements/1.1/" xmlns:rdf="http://www.w3.org/1999/02/22-rdf-syntax-ns#">
   <cc:Work>
    <dc:type rdf:resource="http://purl.org/dc/dcmitype/StillImage"/>
    <dc:date>2022-09-25T00:48:12.538189</dc:date>
    <dc:format>image/svg+xml</dc:format>
    <dc:creator>
     <cc:Agent>
      <dc:title>Matplotlib v3.3.4, https://matplotlib.org/</dc:title>
     </cc:Agent>
    </dc:creator>
   </cc:Work>
  </rdf:RDF>
 </metadata>
 <defs>
  <style type="text/css">*{stroke-linecap:butt;stroke-linejoin:round;}</style>
 </defs>
 <g id="figure_1">
  <g id="patch_1">
   <path d="M 0 288 
L 360 288 
L 360 0 
L 0 0 
z
" style="fill:none;"/>
  </g>
  <g id="axes_1">
   <g id="patch_2">
    <path d="M 75.65 244.1 
L 333.082955 244.1 
L 333.082955 18.9 
L 75.65 18.9 
z
" style="fill:#ffffff;"/>
   </g>
   <g id="PolyCollection_1">
    <path clip-path="url(#p09c927f24c)" d="M 112.866971 233.863636 
L 108.642017 233.863636 
L 108.436888 233.339443 
L 108.214865 232.815249 
L 107.969102 232.291056 
L 107.69167 231.766862 
L 107.374145 231.242668 
L 107.008335 230.718475 
L 106.587092 230.194281 
L 106.1051 229.670087 
L 105.559563 229.145894 
L 104.950706 228.6217 
L 104.282011 228.097507 
L 103.560151 227.573313 
L 102.794618 227.049119 
L 101.997066 226.524926 
L 101.180436 226.000732 
L 100.357939 225.476539 
L 99.542018 224.952345 
L 98.743368 224.428151 
L 97.970145 223.903958 
L 97.227418 223.379764 
L 96.516944 222.855571 
L 95.837274 222.331377 
L 95.184197 221.807183 
L 94.551484 221.28299 
L 93.931869 220.758796 
L 93.318173 220.234603 
L 92.704472 219.710409 
L 92.087186 219.186215 
L 91.465983 218.662022 
L 90.844386 218.137828 
L 90.230008 217.613634 
L 89.634358 217.089441 
L 89.072242 216.565247 
L 88.560762 216.041054 
L 88.118035 215.51686 
L 87.761737 214.992666 
L 87.507625 214.468473 
L 87.368174 213.944279 
L 87.351498 213.420086 
L 87.460629 212.895892 
L 87.693248 212.371698 
L 88.04188 211.847505 
L 88.494509 211.323311 
L 89.035555 210.799118 
L 89.647096 210.274924 
L 90.310195 209.75073 
L 91.00622 209.226537 
L 91.718012 208.702343 
L 92.430817 208.178149 
L 93.132912 207.653956 
L 93.815897 207.129762 
L 94.474662 206.605569 
L 95.107076 206.081375 
L 95.713464 205.557181 
L 96.295958 205.032988 
L 96.857804 204.508794 
L 97.402709 203.984601 
L 97.934287 203.460407 
L 98.455655 202.936213 
L 98.969176 202.41202 
L 99.476373 201.887826 
L 99.977959 201.363633 
L 100.473984 200.839439 
L 100.964021 200.315245 
L 101.447386 199.791052 
L 101.923327 199.266858 
L 102.391187 198.742664 
L 102.850497 198.218471 
L 103.301014 197.694277 
L 103.742699 197.170084 
L 104.175649 196.64589 
L 104.599996 196.121696 
L 105.015792 195.597503 
L 105.4229 195.073309 
L 105.820903 194.549116 
L 106.209048 194.024922 
L 106.586227 193.500728 
L 106.950999 192.976535 
L 107.301648 192.452341 
L 107.63627 191.928148 
L 107.952881 191.403954 
L 108.249526 190.87976 
L 108.524396 190.355567 
L 108.775927 189.831373 
L 109.002896 189.30718 
L 109.204502 188.782986 
L 109.380432 188.258792 
L 109.530914 187.734599 
L 109.65676 187.210405 
L 109.759381 186.686211 
L 109.840776 186.162018 
L 109.903488 185.637824 
L 109.950521 185.113631 
L 109.985209 184.589437 
L 110.01106 184.065243 
L 110.031559 183.54105 
L 110.049973 183.016856 
L 110.069159 182.492663 
L 110.091401 181.968469 
L 111.417586 181.968469 
L 111.417586 181.968469 
L 111.439829 182.492663 
L 111.459015 183.016856 
L 111.477429 183.54105 
L 111.497928 184.065243 
L 111.523778 184.589437 
L 111.558467 185.113631 
L 111.6055 185.637824 
L 111.668212 186.162018 
L 111.749607 186.686211 
L 111.852228 187.210405 
L 111.978074 187.734599 
L 112.128556 188.258792 
L 112.304485 188.782986 
L 112.506091 189.30718 
L 112.733061 189.831373 
L 112.984592 190.355567 
L 113.259462 190.87976 
L 113.556107 191.403954 
L 113.872718 191.928148 
L 114.20734 192.452341 
L 114.557988 192.976535 
L 114.92276 193.500728 
L 115.29994 194.024922 
L 115.688085 194.549116 
L 116.086088 195.073309 
L 116.493196 195.597503 
L 116.908991 196.121696 
L 117.333338 196.64589 
L 117.766288 197.170084 
L 118.207973 197.694277 
L 118.65849 198.218471 
L 119.1178 198.742664 
L 119.58566 199.266858 
L 120.061602 199.791052 
L 120.544966 200.315245 
L 121.035004 200.839439 
L 121.531028 201.363633 
L 122.032615 201.887826 
L 122.539811 202.41202 
L 123.053333 202.936213 
L 123.5747 203.460407 
L 124.106279 203.984601 
L 124.651184 204.508794 
L 125.213029 205.032988 
L 125.795524 205.557181 
L 126.401912 206.081375 
L 127.034326 206.605569 
L 127.693091 207.129762 
L 128.376076 207.653956 
L 129.078171 208.178149 
L 129.790975 208.702343 
L 130.502767 209.226537 
L 131.198792 209.75073 
L 131.861892 210.274924 
L 132.473432 210.799118 
L 133.014479 211.323311 
L 133.467107 211.847505 
L 133.815739 212.371698 
L 134.048359 212.895892 
L 134.15749 213.420086 
L 134.140813 213.944279 
L 134.001363 214.468473 
L 133.74725 214.992666 
L 133.390953 215.51686 
L 132.948226 216.041054 
L 132.436745 216.565247 
L 131.874629 217.089441 
L 131.27898 217.613634 
L 130.664601 218.137828 
L 130.043005 218.662022 
L 129.421802 219.186215 
L 128.804516 219.710409 
L 128.190815 220.234603 
L 127.577119 220.758796 
L 126.957504 221.28299 
L 126.324791 221.807183 
L 125.671713 222.331377 
L 124.992043 222.855571 
L 124.28157 223.379764 
L 123.538843 223.903958 
L 122.76562 224.428151 
L 121.96697 224.952345 
L 121.151048 225.476539 
L 120.328552 226.000732 
L 119.511922 226.524926 
L 118.71437 227.049119 
L 117.948836 227.573313 
L 117.226976 228.097507 
L 116.558281 228.6217 
L 115.949425 229.145894 
L 115.403888 229.670087 
L 114.921895 230.194281 
L 114.500653 230.718475 
L 114.134843 231.242668 
L 113.817317 231.766862 
L 113.539886 232.291056 
L 113.294123 232.815249 
L 113.0721 233.339443 
L 112.866971 233.863636 
z
" style="fill:#1f77b4;fill-opacity:0.3;"/>
   </g>
   <g id="PolyCollection_2">
    <path clip-path="url(#p09c927f24c)" d="M 208.309816 149.07374 
L 200.423138 149.07374 
L 199.99072 147.862252 
L 199.54401 146.650763 
L 199.084082 145.439274 
L 198.611087 144.227786 
L 198.124142 143.016297 
L 197.621315 141.804808 
L 197.099732 140.59332 
L 196.555819 139.381831 
L 195.985665 138.170342 
L 195.385482 136.958854 
L 194.752133 135.747365 
L 194.083686 134.535876 
L 193.379909 133.324388 
L 192.642686 132.112899 
L 191.876268 130.90141 
L 191.087327 129.689922 
L 190.284793 128.478433 
L 189.479463 127.266944 
L 188.683396 126.055456 
L 187.909157 124.843967 
L 187.168964 123.632478 
L 186.473809 122.42099 
L 185.832664 121.209501 
L 185.251824 119.998013 
L 184.734477 118.786524 
L 184.280544 117.575035 
L 183.886804 116.363547 
L 183.547297 115.152058 
L 183.253975 113.940569 
L 182.99753 112.729081 
L 182.768314 111.517592 
L 182.557275 110.306103 
L 182.356807 109.094615 
L 182.161438 107.883126 
L 181.968296 106.671637 
L 181.777321 105.460149 
L 181.591204 104.24866 
L 181.41509 103.037171 
L 181.256072 101.825683 
L 181.122544 100.614194 
L 181.023488 99.402705 
L 180.967767 98.191217 
L 180.963481 96.979728 
L 181.017456 95.768239 
L 181.13487 94.556751 
L 181.319065 93.345262 
L 181.571493 92.133774 
L 181.891814 90.922285 
L 182.278068 89.710796 
L 182.726921 88.499308 
L 183.233919 87.287819 
L 183.793736 86.07633 
L 184.400399 84.864842 
L 185.047476 83.653353 
L 185.728243 82.441864 
L 186.43583 81.230376 
L 187.163367 80.018887 
L 187.904134 78.807398 
L 188.651718 77.59591 
L 189.400176 76.384421 
L 190.144184 75.172932 
L 190.879158 73.961444 
L 191.601332 72.749955 
L 192.307776 71.538466 
L 192.996336 70.326978 
L 193.665521 69.115489 
L 194.314326 67.904 
L 194.942036 66.692512 
L 195.548009 65.481023 
L 196.131502 64.269535 
L 196.691528 63.058046 
L 197.226791 61.846557 
L 197.735688 60.635069 
L 198.216375 59.42358 
L 198.666903 58.212091 
L 199.085373 57.000603 
L 199.470124 55.789114 
L 199.819895 54.577625 
L 200.133975 53.366137 
L 200.412306 52.154648 
L 200.655541 50.943159 
L 200.86506 49.731671 
L 201.042941 48.520182 
L 201.191902 47.308693 
L 201.315212 46.097205 
L 201.416593 44.885716 
L 201.500098 43.674227 
L 201.569992 42.462739 
L 201.630616 41.25125 
L 201.686253 40.039762 
L 201.740985 38.828273 
L 201.798548 37.616784 
L 201.862202 36.405296 
L 201.934602 35.193807 
L 202.017696 33.982318 
L 202.112657 32.77083 
L 202.219846 31.559341 
L 202.338828 30.347852 
L 202.468427 29.136364 
L 206.264527 29.136364 
L 206.264527 29.136364 
L 206.394126 30.347852 
L 206.513108 31.559341 
L 206.620298 32.77083 
L 206.715258 33.982318 
L 206.798353 35.193807 
L 206.870752 36.405296 
L 206.934407 37.616784 
L 206.99197 38.828273 
L 207.046701 40.039762 
L 207.102338 41.25125 
L 207.162963 42.462739 
L 207.232856 43.674227 
L 207.316362 44.885716 
L 207.417742 46.097205 
L 207.541053 47.308693 
L 207.690014 48.520182 
L 207.867895 49.731671 
L 208.077413 50.943159 
L 208.320648 52.154648 
L 208.598979 53.366137 
L 208.91306 54.577625 
L 209.262831 55.789114 
L 209.647581 57.000603 
L 210.066052 58.212091 
L 210.516579 59.42358 
L 210.997267 60.635069 
L 211.506163 61.846557 
L 212.041427 63.058046 
L 212.601453 64.269535 
L 213.184945 65.481023 
L 213.790919 66.692512 
L 214.418628 67.904 
L 215.067434 69.115489 
L 215.736618 70.326978 
L 216.425179 71.538466 
L 217.131622 72.749955 
L 217.853797 73.961444 
L 218.588771 75.172932 
L 219.332778 76.384421 
L 220.081236 77.59591 
L 220.828821 78.807398 
L 221.569587 80.018887 
L 222.297124 81.230376 
L 223.004711 82.441864 
L 223.685478 83.653353 
L 224.332556 84.864842 
L 224.939219 86.07633 
L 225.499036 87.287819 
L 226.006033 88.499308 
L 226.454887 89.710796 
L 226.841141 90.922285 
L 227.161461 92.133774 
L 227.41389 93.345262 
L 227.598084 94.556751 
L 227.715499 95.768239 
L 227.769473 96.979728 
L 227.765188 98.191217 
L 227.709467 99.402705 
L 227.610411 100.614194 
L 227.476883 101.825683 
L 227.317865 103.037171 
L 227.141751 104.24866 
L 226.955634 105.460149 
L 226.764658 106.671637 
L 226.571516 107.883126 
L 226.376147 109.094615 
L 226.17568 110.306103 
L 225.964641 111.517592 
L 225.735425 112.729081 
L 225.478979 113.940569 
L 225.185658 115.152058 
L 224.846151 116.363547 
L 224.45241 117.575035 
L 223.998478 118.786524 
L 223.481131 119.998013 
L 222.90029 121.209501 
L 222.259145 122.42099 
L 221.563991 123.632478 
L 220.823797 124.843967 
L 220.049559 126.055456 
L 219.253492 127.266944 
L 218.448161 128.478433 
L 217.645628 129.689922 
L 216.856687 130.90141 
L 216.090268 132.112899 
L 215.353045 133.324388 
L 214.649269 134.535876 
L 213.980821 135.747365 
L 213.347473 136.958854 
L 212.747289 138.170342 
L 212.177135 139.381831 
L 211.633223 140.59332 
L 211.11164 141.804808 
L 210.608812 143.016297 
L 210.121868 144.227786 
L 209.648873 145.439274 
L 209.188944 146.650763 
L 208.742235 147.862252 
L 208.309816 149.07374 
z
" style="fill:#1f77b4;fill-opacity:0.3;"/>
   </g>
   <g id="PolyCollection_3">
    <path clip-path="url(#p09c927f24c)" d="M 300.668614 220.551041 
L 295.288307 220.551041 
L 294.963364 220.177247 
L 294.62564 219.803453 
L 294.277844 219.429659 
L 293.922703 219.055865 
L 293.562771 218.682071 
L 293.200217 218.308277 
L 292.836604 217.934483 
L 292.472692 217.560689 
L 292.108272 217.186895 
L 291.742063 216.813101 
L 291.371684 216.439307 
L 290.993705 216.065513 
L 290.603785 215.691719 
L 290.196874 215.317925 
L 289.767472 214.944131 
L 289.309925 214.570337 
L 288.818728 214.196543 
L 288.288834 213.822749 
L 287.715954 213.448955 
L 287.096839 213.075161 
L 286.429556 212.701367 
L 285.713742 212.327573 
L 284.950847 211.953779 
L 284.144342 211.579985 
L 283.299888 211.206191 
L 282.425428 210.832397 
L 281.53119 210.458603 
L 280.629568 210.084809 
L 279.734859 209.711015 
L 278.862867 209.337221 
L 278.030357 208.963426 
L 277.254412 208.589632 
L 276.551701 208.215838 
L 275.937728 207.842044 
L 275.426094 207.46825 
L 275.027849 207.094456 
L 274.750949 206.720662 
L 274.599882 206.346868 
L 274.575465 205.973074 
L 274.674838 205.59928 
L 274.891636 205.225486 
L 275.21633 204.851692 
L 275.636716 204.477898 
L 276.138514 204.104104 
L 276.706047 203.73031 
L 277.322962 203.356516 
L 277.972964 202.982722 
L 278.64053 202.608928 
L 279.311563 202.235134 
L 279.97397 201.86134 
L 280.618129 201.487546 
L 281.237223 201.113752 
L 281.827424 200.739958 
L 282.387897 200.366164 
L 282.920635 199.99237 
L 283.430115 199.618576 
L 283.922779 199.244782 
L 284.40639 198.870988 
L 284.889274 198.497194 
L 285.379523 198.1234 
L 285.884201 197.749606 
L 286.408642 197.375812 
L 286.955875 197.002018 
L 287.526263 196.628224 
L 288.117372 196.25443 
L 288.724116 195.880636 
L 289.339137 195.506842 
L 289.953422 195.133048 
L 290.557071 194.759254 
L 291.140151 194.38546 
L 291.693543 194.011666 
L 292.209684 193.637872 
L 292.683144 193.264078 
L 293.110953 192.890284 
L 293.492677 192.51649 
L 293.830228 192.142696 
L 294.127445 191.768902 
L 294.389518 191.395108 
L 294.622321 191.021314 
L 294.831741 190.64752 
L 295.02309 190.273726 
L 295.200657 189.899932 
L 295.367444 189.526137 
L 295.525106 189.152343 
L 295.674068 188.778549 
L 295.81381 188.404755 
L 295.94324 188.030961 
L 296.061113 187.657167 
L 296.166428 187.283373 
L 296.258751 186.909579 
L 296.338431 186.535785 
L 296.406673 186.161991 
L 296.465493 185.788197 
L 296.517545 185.414403 
L 296.565868 185.040609 
L 296.613585 184.666815 
L 296.663592 184.293021 
L 296.718292 183.919227 
L 296.779381 183.545433 
L 299.17754 183.545433 
L 299.17754 183.545433 
L 299.238629 183.919227 
L 299.293329 184.293021 
L 299.343337 184.666815 
L 299.391053 185.040609 
L 299.439376 185.414403 
L 299.491429 185.788197 
L 299.550249 186.161991 
L 299.618491 186.535785 
L 299.69817 186.909579 
L 299.790494 187.283373 
L 299.895809 187.657167 
L 300.013682 188.030961 
L 300.143112 188.404755 
L 300.282854 188.778549 
L 300.431816 189.152343 
L 300.589477 189.526137 
L 300.756265 189.899932 
L 300.933832 190.273726 
L 301.125181 190.64752 
L 301.334601 191.021314 
L 301.567403 191.395108 
L 301.829477 191.768902 
L 302.126694 192.142696 
L 302.464244 192.51649 
L 302.845969 192.890284 
L 303.273778 193.264078 
L 303.747237 193.637872 
L 304.263379 194.011666 
L 304.81677 194.38546 
L 305.399851 194.759254 
L 306.003499 195.133048 
L 306.617784 195.506842 
L 307.232805 195.880636 
L 307.839549 196.25443 
L 308.430659 196.628224 
L 309.001046 197.002018 
L 309.548279 197.375812 
L 310.07272 197.749606 
L 310.577399 198.1234 
L 311.067647 198.497194 
L 311.550532 198.870988 
L 312.034142 199.244782 
L 312.526807 199.618576 
L 313.036286 199.99237 
L 313.569025 200.366164 
L 314.129498 200.739958 
L 314.719698 201.113752 
L 315.338793 201.487546 
L 315.982952 201.86134 
L 316.645358 202.235134 
L 317.316391 202.608928 
L 317.983957 202.982722 
L 318.63396 203.356516 
L 319.250874 203.73031 
L 319.818407 204.104104 
L 320.320205 204.477898 
L 320.740592 204.851692 
L 321.065286 205.225486 
L 321.282083 205.59928 
L 321.381457 205.973074 
L 321.35704 206.346868 
L 321.205972 206.720662 
L 320.929072 207.094456 
L 320.530827 207.46825 
L 320.019194 207.842044 
L 319.40522 208.215838 
L 318.70251 208.589632 
L 317.926565 208.963426 
L 317.094055 209.337221 
L 316.222062 209.711015 
L 315.327353 210.084809 
L 314.425731 210.458603 
L 313.531494 210.832397 
L 312.657034 211.206191 
L 311.81258 211.579985 
L 311.006075 211.953779 
L 310.24318 212.327573 
L 309.527366 212.701367 
L 308.860083 213.075161 
L 308.240968 213.448955 
L 307.668088 213.822749 
L 307.138194 214.196543 
L 306.646996 214.570337 
L 306.189449 214.944131 
L 305.760048 215.317925 
L 305.353136 215.691719 
L 304.963216 216.065513 
L 304.585237 216.439307 
L 304.214858 216.813101 
L 303.84865 217.186895 
L 303.48423 217.560689 
L 303.120318 217.934483 
L 302.756705 218.308277 
L 302.39415 218.682071 
L 302.034218 219.055865 
L 301.679078 219.429659 
L 301.331282 219.803453 
L 300.993558 220.177247 
L 300.668614 220.551041 
z
" style="fill:#1f77b4;fill-opacity:0.3;"/>
   </g>
   <g id="matplotlib.axis_1">
    <g id="xtick_1">
     <g id="line2d_1">
      <defs>
       <path d="M 0 0 
L 0 3.5 
" id="m743cd385e4" style="stroke:#000000;stroke-width:0.8;"/>
      </defs>
      <g>
       <use style="stroke:#000000;stroke-width:0.8;" x="110.754494" xlink:href="#m743cd385e4" y="244.1"/>
      </g>
     </g>
     <g id="text_1">
      <!-- Our Method -->
      <g transform="translate(59.125392 264.397266)scale(0.175 -0.175)">
       <defs>
        <path d="M 39.40625 66.21875 
Q 28.65625 66.21875 22.328125 58.203125 
Q 16.015625 50.203125 16.015625 36.375 
Q 16.015625 22.609375 22.328125 14.59375 
Q 28.65625 6.59375 39.40625 6.59375 
Q 50.140625 6.59375 56.421875 14.59375 
Q 62.703125 22.609375 62.703125 36.375 
Q 62.703125 50.203125 56.421875 58.203125 
Q 50.140625 66.21875 39.40625 66.21875 
z
M 39.40625 74.21875 
Q 54.734375 74.21875 63.90625 63.9375 
Q 73.09375 53.65625 73.09375 36.375 
Q 73.09375 19.140625 63.90625 8.859375 
Q 54.734375 -1.421875 39.40625 -1.421875 
Q 24.03125 -1.421875 14.8125 8.828125 
Q 5.609375 19.09375 5.609375 36.375 
Q 5.609375 53.65625 14.8125 63.9375 
Q 24.03125 74.21875 39.40625 74.21875 
z
" id="DejaVuSans-79"/>
        <path d="M 8.5 21.578125 
L 8.5 54.6875 
L 17.484375 54.6875 
L 17.484375 21.921875 
Q 17.484375 14.15625 20.5 10.265625 
Q 23.53125 6.390625 29.59375 6.390625 
Q 36.859375 6.390625 41.078125 11.03125 
Q 45.3125 15.671875 45.3125 23.6875 
L 45.3125 54.6875 
L 54.296875 54.6875 
L 54.296875 0 
L 45.3125 0 
L 45.3125 8.40625 
Q 42.046875 3.421875 37.71875 1 
Q 33.40625 -1.421875 27.6875 -1.421875 
Q 18.265625 -1.421875 13.375 4.4375 
Q 8.5 10.296875 8.5 21.578125 
z
M 31.109375 56 
z
" id="DejaVuSans-117"/>
        <path d="M 41.109375 46.296875 
Q 39.59375 47.171875 37.8125 47.578125 
Q 36.03125 48 33.890625 48 
Q 26.265625 48 22.1875 43.046875 
Q 18.109375 38.09375 18.109375 28.8125 
L 18.109375 0 
L 9.078125 0 
L 9.078125 54.6875 
L 18.109375 54.6875 
L 18.109375 46.1875 
Q 20.953125 51.171875 25.484375 53.578125 
Q 30.03125 56 36.53125 56 
Q 37.453125 56 38.578125 55.875 
Q 39.703125 55.765625 41.0625 55.515625 
z
" id="DejaVuSans-114"/>
        <path id="DejaVuSans-32"/>
        <path d="M 9.8125 72.90625 
L 24.515625 72.90625 
L 43.109375 23.296875 
L 61.8125 72.90625 
L 76.515625 72.90625 
L 76.515625 0 
L 66.890625 0 
L 66.890625 64.015625 
L 48.09375 14.015625 
L 38.1875 14.015625 
L 19.390625 64.015625 
L 19.390625 0 
L 9.8125 0 
z
" id="DejaVuSans-77"/>
        <path d="M 56.203125 29.59375 
L 56.203125 25.203125 
L 14.890625 25.203125 
Q 15.484375 15.921875 20.484375 11.0625 
Q 25.484375 6.203125 34.421875 6.203125 
Q 39.59375 6.203125 44.453125 7.46875 
Q 49.3125 8.734375 54.109375 11.28125 
L 54.109375 2.78125 
Q 49.265625 0.734375 44.1875 -0.34375 
Q 39.109375 -1.421875 33.890625 -1.421875 
Q 20.796875 -1.421875 13.15625 6.1875 
Q 5.515625 13.8125 5.515625 26.8125 
Q 5.515625 40.234375 12.765625 48.109375 
Q 20.015625 56 32.328125 56 
Q 43.359375 56 49.78125 48.890625 
Q 56.203125 41.796875 56.203125 29.59375 
z
M 47.21875 32.234375 
Q 47.125 39.59375 43.09375 43.984375 
Q 39.0625 48.390625 32.421875 48.390625 
Q 24.90625 48.390625 20.390625 44.140625 
Q 15.875 39.890625 15.1875 32.171875 
z
" id="DejaVuSans-101"/>
        <path d="M 18.3125 70.21875 
L 18.3125 54.6875 
L 36.8125 54.6875 
L 36.8125 47.703125 
L 18.3125 47.703125 
L 18.3125 18.015625 
Q 18.3125 11.328125 20.140625 9.421875 
Q 21.96875 7.515625 27.59375 7.515625 
L 36.8125 7.515625 
L 36.8125 0 
L 27.59375 0 
Q 17.1875 0 13.234375 3.875 
Q 9.28125 7.765625 9.28125 18.015625 
L 9.28125 47.703125 
L 2.6875 47.703125 
L 2.6875 54.6875 
L 9.28125 54.6875 
L 9.28125 70.21875 
z
" id="DejaVuSans-116"/>
        <path d="M 54.890625 33.015625 
L 54.890625 0 
L 45.90625 0 
L 45.90625 32.71875 
Q 45.90625 40.484375 42.875 44.328125 
Q 39.84375 48.1875 33.796875 48.1875 
Q 26.515625 48.1875 22.3125 43.546875 
Q 18.109375 38.921875 18.109375 30.90625 
L 18.109375 0 
L 9.078125 0 
L 9.078125 75.984375 
L 18.109375 75.984375 
L 18.109375 46.1875 
Q 21.34375 51.125 25.703125 53.5625 
Q 30.078125 56 35.796875 56 
Q 45.21875 56 50.046875 50.171875 
Q 54.890625 44.34375 54.890625 33.015625 
z
" id="DejaVuSans-104"/>
        <path d="M 30.609375 48.390625 
Q 23.390625 48.390625 19.1875 42.75 
Q 14.984375 37.109375 14.984375 27.296875 
Q 14.984375 17.484375 19.15625 11.84375 
Q 23.34375 6.203125 30.609375 6.203125 
Q 37.796875 6.203125 41.984375 11.859375 
Q 46.1875 17.53125 46.1875 27.296875 
Q 46.1875 37.015625 41.984375 42.703125 
Q 37.796875 48.390625 30.609375 48.390625 
z
M 30.609375 56 
Q 42.328125 56 49.015625 48.375 
Q 55.71875 40.765625 55.71875 27.296875 
Q 55.71875 13.875 49.015625 6.21875 
Q 42.328125 -1.421875 30.609375 -1.421875 
Q 18.84375 -1.421875 12.171875 6.21875 
Q 5.515625 13.875 5.515625 27.296875 
Q 5.515625 40.765625 12.171875 48.375 
Q 18.84375 56 30.609375 56 
z
" id="DejaVuSans-111"/>
        <path d="M 45.40625 46.390625 
L 45.40625 75.984375 
L 54.390625 75.984375 
L 54.390625 0 
L 45.40625 0 
L 45.40625 8.203125 
Q 42.578125 3.328125 38.25 0.953125 
Q 33.9375 -1.421875 27.875 -1.421875 
Q 17.96875 -1.421875 11.734375 6.484375 
Q 5.515625 14.40625 5.515625 27.296875 
Q 5.515625 40.1875 11.734375 48.09375 
Q 17.96875 56 27.875 56 
Q 33.9375 56 38.25 53.625 
Q 42.578125 51.265625 45.40625 46.390625 
z
M 14.796875 27.296875 
Q 14.796875 17.390625 18.875 11.75 
Q 22.953125 6.109375 30.078125 6.109375 
Q 37.203125 6.109375 41.296875 11.75 
Q 45.40625 17.390625 45.40625 27.296875 
Q 45.40625 37.203125 41.296875 42.84375 
Q 37.203125 48.484375 30.078125 48.484375 
Q 22.953125 48.484375 18.875 42.84375 
Q 14.796875 37.203125 14.796875 27.296875 
z
" id="DejaVuSans-100"/>
       </defs>
       <use xlink:href="#DejaVuSans-79"/>
       <use x="78.710938" xlink:href="#DejaVuSans-117"/>
       <use x="142.089844" xlink:href="#DejaVuSans-114"/>
       <use x="183.203125" xlink:href="#DejaVuSans-32"/>
       <use x="214.990234" xlink:href="#DejaVuSans-77"/>
       <use x="301.269531" xlink:href="#DejaVuSans-101"/>
       <use x="362.792969" xlink:href="#DejaVuSans-116"/>
       <use x="402.001953" xlink:href="#DejaVuSans-104"/>
       <use x="465.380859" xlink:href="#DejaVuSans-111"/>
       <use x="526.5625" xlink:href="#DejaVuSans-100"/>
      </g>
     </g>
    </g>
    <g id="xtick_2">
     <g id="line2d_2">
      <g>
       <use style="stroke:#000000;stroke-width:0.8;" x="204.366477" xlink:href="#m743cd385e4" y="244.1"/>
      </g>
     </g>
     <g id="text_2">
      <!-- Stein's -->
      <g transform="translate(175.058079 264.397266)scale(0.175 -0.175)">
       <defs>
        <path d="M 53.515625 70.515625 
L 53.515625 60.890625 
Q 47.90625 63.578125 42.921875 64.890625 
Q 37.9375 66.21875 33.296875 66.21875 
Q 25.25 66.21875 20.875 63.09375 
Q 16.5 59.96875 16.5 54.203125 
Q 16.5 49.359375 19.40625 46.890625 
Q 22.3125 44.4375 30.421875 42.921875 
L 36.375 41.703125 
Q 47.40625 39.59375 52.65625 34.296875 
Q 57.90625 29 57.90625 20.125 
Q 57.90625 9.515625 50.796875 4.046875 
Q 43.703125 -1.421875 29.984375 -1.421875 
Q 24.8125 -1.421875 18.96875 -0.25 
Q 13.140625 0.921875 6.890625 3.21875 
L 6.890625 13.375 
Q 12.890625 10.015625 18.65625 8.296875 
Q 24.421875 6.59375 29.984375 6.59375 
Q 38.421875 6.59375 43.015625 9.90625 
Q 47.609375 13.234375 47.609375 19.390625 
Q 47.609375 24.75 44.3125 27.78125 
Q 41.015625 30.8125 33.5 32.328125 
L 27.484375 33.5 
Q 16.453125 35.6875 11.515625 40.375 
Q 6.59375 45.0625 6.59375 53.421875 
Q 6.59375 63.09375 13.40625 68.65625 
Q 20.21875 74.21875 32.171875 74.21875 
Q 37.3125 74.21875 42.625 73.28125 
Q 47.953125 72.359375 53.515625 70.515625 
z
" id="DejaVuSans-83"/>
        <path d="M 9.421875 54.6875 
L 18.40625 54.6875 
L 18.40625 0 
L 9.421875 0 
z
M 9.421875 75.984375 
L 18.40625 75.984375 
L 18.40625 64.59375 
L 9.421875 64.59375 
z
" id="DejaVuSans-105"/>
        <path d="M 54.890625 33.015625 
L 54.890625 0 
L 45.90625 0 
L 45.90625 32.71875 
Q 45.90625 40.484375 42.875 44.328125 
Q 39.84375 48.1875 33.796875 48.1875 
Q 26.515625 48.1875 22.3125 43.546875 
Q 18.109375 38.921875 18.109375 30.90625 
L 18.109375 0 
L 9.078125 0 
L 9.078125 54.6875 
L 18.109375 54.6875 
L 18.109375 46.1875 
Q 21.34375 51.125 25.703125 53.5625 
Q 30.078125 56 35.796875 56 
Q 45.21875 56 50.046875 50.171875 
Q 54.890625 44.34375 54.890625 33.015625 
z
" id="DejaVuSans-110"/>
        <path d="M 17.921875 72.90625 
L 17.921875 45.796875 
L 9.625 45.796875 
L 9.625 72.90625 
z
" id="DejaVuSans-39"/>
        <path d="M 44.28125 53.078125 
L 44.28125 44.578125 
Q 40.484375 46.53125 36.375 47.5 
Q 32.28125 48.484375 27.875 48.484375 
Q 21.1875 48.484375 17.84375 46.4375 
Q 14.5 44.390625 14.5 40.28125 
Q 14.5 37.15625 16.890625 35.375 
Q 19.28125 33.59375 26.515625 31.984375 
L 29.59375 31.296875 
Q 39.15625 29.25 43.1875 25.515625 
Q 47.21875 21.78125 47.21875 15.09375 
Q 47.21875 7.46875 41.1875 3.015625 
Q 35.15625 -1.421875 24.609375 -1.421875 
Q 20.21875 -1.421875 15.453125 -0.5625 
Q 10.6875 0.296875 5.421875 2 
L 5.421875 11.28125 
Q 10.40625 8.6875 15.234375 7.390625 
Q 20.0625 6.109375 24.8125 6.109375 
Q 31.15625 6.109375 34.5625 8.28125 
Q 37.984375 10.453125 37.984375 14.40625 
Q 37.984375 18.0625 35.515625 20.015625 
Q 33.0625 21.96875 24.703125 23.78125 
L 21.578125 24.515625 
Q 13.234375 26.265625 9.515625 29.90625 
Q 5.8125 33.546875 5.8125 39.890625 
Q 5.8125 47.609375 11.28125 51.796875 
Q 16.75 56 26.8125 56 
Q 31.78125 56 36.171875 55.265625 
Q 40.578125 54.546875 44.28125 53.078125 
z
" id="DejaVuSans-115"/>
       </defs>
       <use xlink:href="#DejaVuSans-83"/>
       <use x="63.476562" xlink:href="#DejaVuSans-116"/>
       <use x="102.685547" xlink:href="#DejaVuSans-101"/>
       <use x="164.208984" xlink:href="#DejaVuSans-105"/>
       <use x="191.992188" xlink:href="#DejaVuSans-110"/>
       <use x="255.371094" xlink:href="#DejaVuSans-39"/>
       <use x="282.861328" xlink:href="#DejaVuSans-115"/>
      </g>
     </g>
    </g>
    <g id="xtick_3">
     <g id="line2d_3">
      <g>
       <use style="stroke:#000000;stroke-width:0.8;" x="297.978461" xlink:href="#m743cd385e4" y="244.1"/>
      </g>
     </g>
     <g id="text_3">
      <!-- Entry-wise -->
      <g transform="translate(252.165375 264.397266)scale(0.175 -0.175)">
       <defs>
        <path d="M 9.8125 72.90625 
L 55.90625 72.90625 
L 55.90625 64.59375 
L 19.671875 64.59375 
L 19.671875 43.015625 
L 54.390625 43.015625 
L 54.390625 34.71875 
L 19.671875 34.71875 
L 19.671875 8.296875 
L 56.78125 8.296875 
L 56.78125 0 
L 9.8125 0 
z
" id="DejaVuSans-69"/>
        <path d="M 32.171875 -5.078125 
Q 28.375 -14.84375 24.75 -17.8125 
Q 21.140625 -20.796875 15.09375 -20.796875 
L 7.90625 -20.796875 
L 7.90625 -13.28125 
L 13.1875 -13.28125 
Q 16.890625 -13.28125 18.9375 -11.515625 
Q 21 -9.765625 23.484375 -3.21875 
L 25.09375 0.875 
L 2.984375 54.6875 
L 12.5 54.6875 
L 29.59375 11.921875 
L 46.6875 54.6875 
L 56.203125 54.6875 
z
" id="DejaVuSans-121"/>
        <path d="M 4.890625 31.390625 
L 31.203125 31.390625 
L 31.203125 23.390625 
L 4.890625 23.390625 
z
" id="DejaVuSans-45"/>
        <path d="M 4.203125 54.6875 
L 13.1875 54.6875 
L 24.421875 12.015625 
L 35.59375 54.6875 
L 46.1875 54.6875 
L 57.421875 12.015625 
L 68.609375 54.6875 
L 77.59375 54.6875 
L 63.28125 0 
L 52.6875 0 
L 40.921875 44.828125 
L 29.109375 0 
L 18.5 0 
z
" id="DejaVuSans-119"/>
       </defs>
       <use xlink:href="#DejaVuSans-69"/>
       <use x="63.183594" xlink:href="#DejaVuSans-110"/>
       <use x="126.5625" xlink:href="#DejaVuSans-116"/>
       <use x="165.771484" xlink:href="#DejaVuSans-114"/>
       <use x="206.884766" xlink:href="#DejaVuSans-121"/>
       <use x="264.314453" xlink:href="#DejaVuSans-45"/>
       <use x="300.398438" xlink:href="#DejaVuSans-119"/>
       <use x="382.185547" xlink:href="#DejaVuSans-105"/>
       <use x="409.96875" xlink:href="#DejaVuSans-115"/>
       <use x="462.068359" xlink:href="#DejaVuSans-101"/>
      </g>
     </g>
    </g>
   </g>
   <g id="matplotlib.axis_2">
    <g id="ytick_1">
     <g id="line2d_4">
      <defs>
       <path d="M 0 0 
L -3.5 0 
" id="mb7bba2cdfa" style="stroke:#000000;stroke-width:0.8;"/>
      </defs>
      <g>
       <use style="stroke:#000000;stroke-width:0.8;" x="75.65" xlink:href="#mb7bba2cdfa" y="230.995105"/>
      </g>
     </g>
     <g id="text_4">
      <!-- 0.5 -->
      <g transform="translate(40.819531 237.643738)scale(0.175 -0.175)">
       <defs>
        <path d="M 31.78125 66.40625 
Q 24.171875 66.40625 20.328125 58.90625 
Q 16.5 51.421875 16.5 36.375 
Q 16.5 21.390625 20.328125 13.890625 
Q 24.171875 6.390625 31.78125 6.390625 
Q 39.453125 6.390625 43.28125 13.890625 
Q 47.125 21.390625 47.125 36.375 
Q 47.125 51.421875 43.28125 58.90625 
Q 39.453125 66.40625 31.78125 66.40625 
z
M 31.78125 74.21875 
Q 44.046875 74.21875 50.515625 64.515625 
Q 56.984375 54.828125 56.984375 36.375 
Q 56.984375 17.96875 50.515625 8.265625 
Q 44.046875 -1.421875 31.78125 -1.421875 
Q 19.53125 -1.421875 13.0625 8.265625 
Q 6.59375 17.96875 6.59375 36.375 
Q 6.59375 54.828125 13.0625 64.515625 
Q 19.53125 74.21875 31.78125 74.21875 
z
" id="DejaVuSans-48"/>
        <path d="M 10.6875 12.40625 
L 21 12.40625 
L 21 0 
L 10.6875 0 
z
" id="DejaVuSans-46"/>
        <path d="M 10.796875 72.90625 
L 49.515625 72.90625 
L 49.515625 64.59375 
L 19.828125 64.59375 
L 19.828125 46.734375 
Q 21.96875 47.46875 24.109375 47.828125 
Q 26.265625 48.1875 28.421875 48.1875 
Q 40.625 48.1875 47.75 41.5 
Q 54.890625 34.8125 54.890625 23.390625 
Q 54.890625 11.625 47.5625 5.09375 
Q 40.234375 -1.421875 26.90625 -1.421875 
Q 22.3125 -1.421875 17.546875 -0.640625 
Q 12.796875 0.140625 7.71875 1.703125 
L 7.71875 11.625 
Q 12.109375 9.234375 16.796875 8.0625 
Q 21.484375 6.890625 26.703125 6.890625 
Q 35.15625 6.890625 40.078125 11.328125 
Q 45.015625 15.765625 45.015625 23.390625 
Q 45.015625 31 40.078125 35.4375 
Q 35.15625 39.890625 26.703125 39.890625 
Q 22.75 39.890625 18.8125 39.015625 
Q 14.890625 38.140625 10.796875 36.28125 
z
" id="DejaVuSans-53"/>
       </defs>
       <use xlink:href="#DejaVuSans-48"/>
       <use x="63.623047" xlink:href="#DejaVuSans-46"/>
       <use x="95.410156" xlink:href="#DejaVuSans-53"/>
      </g>
     </g>
    </g>
    <g id="ytick_2">
     <g id="line2d_5">
      <g>
       <use style="stroke:#000000;stroke-width:0.8;" x="75.65" xlink:href="#mb7bba2cdfa" y="187.354732"/>
      </g>
     </g>
     <g id="text_5">
      <!-- 1.0 -->
      <g transform="translate(40.819531 194.003365)scale(0.175 -0.175)">
       <defs>
        <path d="M 12.40625 8.296875 
L 28.515625 8.296875 
L 28.515625 63.921875 
L 10.984375 60.40625 
L 10.984375 69.390625 
L 28.421875 72.90625 
L 38.28125 72.90625 
L 38.28125 8.296875 
L 54.390625 8.296875 
L 54.390625 0 
L 12.40625 0 
z
" id="DejaVuSans-49"/>
       </defs>
       <use xlink:href="#DejaVuSans-49"/>
       <use x="63.623047" xlink:href="#DejaVuSans-46"/>
       <use x="95.410156" xlink:href="#DejaVuSans-48"/>
      </g>
     </g>
    </g>
    <g id="ytick_3">
     <g id="line2d_6">
      <g>
       <use style="stroke:#000000;stroke-width:0.8;" x="75.65" xlink:href="#mb7bba2cdfa" y="143.714359"/>
      </g>
     </g>
     <g id="text_6">
      <!-- 1.5 -->
      <g transform="translate(40.819531 150.362992)scale(0.175 -0.175)">
       <use xlink:href="#DejaVuSans-49"/>
       <use x="63.623047" xlink:href="#DejaVuSans-46"/>
       <use x="95.410156" xlink:href="#DejaVuSans-53"/>
      </g>
     </g>
    </g>
    <g id="ytick_4">
     <g id="line2d_7">
      <g>
       <use style="stroke:#000000;stroke-width:0.8;" x="75.65" xlink:href="#mb7bba2cdfa" y="100.073986"/>
      </g>
     </g>
     <g id="text_7">
      <!-- 2.0 -->
      <g transform="translate(40.819531 106.722618)scale(0.175 -0.175)">
       <defs>
        <path d="M 19.1875 8.296875 
L 53.609375 8.296875 
L 53.609375 0 
L 7.328125 0 
L 7.328125 8.296875 
Q 12.9375 14.109375 22.625 23.890625 
Q 32.328125 33.6875 34.8125 36.53125 
Q 39.546875 41.84375 41.421875 45.53125 
Q 43.3125 49.21875 43.3125 52.78125 
Q 43.3125 58.59375 39.234375 62.25 
Q 35.15625 65.921875 28.609375 65.921875 
Q 23.96875 65.921875 18.8125 64.3125 
Q 13.671875 62.703125 7.8125 59.421875 
L 7.8125 69.390625 
Q 13.765625 71.78125 18.9375 73 
Q 24.125 74.21875 28.421875 74.21875 
Q 39.75 74.21875 46.484375 68.546875 
Q 53.21875 62.890625 53.21875 53.421875 
Q 53.21875 48.921875 51.53125 44.890625 
Q 49.859375 40.875 45.40625 35.40625 
Q 44.1875 33.984375 37.640625 27.21875 
Q 31.109375 20.453125 19.1875 8.296875 
z
" id="DejaVuSans-50"/>
       </defs>
       <use xlink:href="#DejaVuSans-50"/>
       <use x="63.623047" xlink:href="#DejaVuSans-46"/>
       <use x="95.410156" xlink:href="#DejaVuSans-48"/>
      </g>
     </g>
    </g>
    <g id="ytick_5">
     <g id="line2d_8">
      <g>
       <use style="stroke:#000000;stroke-width:0.8;" x="75.65" xlink:href="#mb7bba2cdfa" y="56.433612"/>
      </g>
     </g>
     <g id="text_8">
      <!-- 2.5 -->
      <g transform="translate(40.819531 63.082245)scale(0.175 -0.175)">
       <use xlink:href="#DejaVuSans-50"/>
       <use x="63.623047" xlink:href="#DejaVuSans-46"/>
       <use x="95.410156" xlink:href="#DejaVuSans-53"/>
      </g>
     </g>
    </g>
    <g id="text_9">
     <!-- Estimation Error -->
     <g transform="translate(33.180078 202.198633)rotate(-90)scale(0.175 -0.175)">
      <defs>
       <path d="M 52 44.1875 
Q 55.375 50.25 60.0625 53.125 
Q 64.75 56 71.09375 56 
Q 79.640625 56 84.28125 50.015625 
Q 88.921875 44.046875 88.921875 33.015625 
L 88.921875 0 
L 79.890625 0 
L 79.890625 32.71875 
Q 79.890625 40.578125 77.09375 44.375 
Q 74.3125 48.1875 68.609375 48.1875 
Q 61.625 48.1875 57.5625 43.546875 
Q 53.515625 38.921875 53.515625 30.90625 
L 53.515625 0 
L 44.484375 0 
L 44.484375 32.71875 
Q 44.484375 40.625 41.703125 44.40625 
Q 38.921875 48.1875 33.109375 48.1875 
Q 26.21875 48.1875 22.15625 43.53125 
Q 18.109375 38.875 18.109375 30.90625 
L 18.109375 0 
L 9.078125 0 
L 9.078125 54.6875 
L 18.109375 54.6875 
L 18.109375 46.1875 
Q 21.1875 51.21875 25.484375 53.609375 
Q 29.78125 56 35.6875 56 
Q 41.65625 56 45.828125 52.96875 
Q 50 49.953125 52 44.1875 
z
" id="DejaVuSans-109"/>
       <path d="M 34.28125 27.484375 
Q 23.390625 27.484375 19.1875 25 
Q 14.984375 22.515625 14.984375 16.5 
Q 14.984375 11.71875 18.140625 8.90625 
Q 21.296875 6.109375 26.703125 6.109375 
Q 34.1875 6.109375 38.703125 11.40625 
Q 43.21875 16.703125 43.21875 25.484375 
L 43.21875 27.484375 
z
M 52.203125 31.203125 
L 52.203125 0 
L 43.21875 0 
L 43.21875 8.296875 
Q 40.140625 3.328125 35.546875 0.953125 
Q 30.953125 -1.421875 24.3125 -1.421875 
Q 15.921875 -1.421875 10.953125 3.296875 
Q 6 8.015625 6 15.921875 
Q 6 25.140625 12.171875 29.828125 
Q 18.359375 34.515625 30.609375 34.515625 
L 43.21875 34.515625 
L 43.21875 35.40625 
Q 43.21875 41.609375 39.140625 45 
Q 35.0625 48.390625 27.6875 48.390625 
Q 23 48.390625 18.546875 47.265625 
Q 14.109375 46.140625 10.015625 43.890625 
L 10.015625 52.203125 
Q 14.9375 54.109375 19.578125 55.046875 
Q 24.21875 56 28.609375 56 
Q 40.484375 56 46.34375 49.84375 
Q 52.203125 43.703125 52.203125 31.203125 
z
" id="DejaVuSans-97"/>
      </defs>
      <use xlink:href="#DejaVuSans-69"/>
      <use x="63.183594" xlink:href="#DejaVuSans-115"/>
      <use x="115.283203" xlink:href="#DejaVuSans-116"/>
      <use x="154.492188" xlink:href="#DejaVuSans-105"/>
      <use x="182.275391" xlink:href="#DejaVuSans-109"/>
      <use x="279.6875" xlink:href="#DejaVuSans-97"/>
      <use x="340.966797" xlink:href="#DejaVuSans-116"/>
      <use x="380.175781" xlink:href="#DejaVuSans-105"/>
      <use x="407.958984" xlink:href="#DejaVuSans-111"/>
      <use x="469.140625" xlink:href="#DejaVuSans-110"/>
      <use x="532.519531" xlink:href="#DejaVuSans-32"/>
      <use x="564.306641" xlink:href="#DejaVuSans-69"/>
      <use x="627.490234" xlink:href="#DejaVuSans-114"/>
      <use x="666.853516" xlink:href="#DejaVuSans-114"/>
      <use x="705.716797" xlink:href="#DejaVuSans-111"/>
      <use x="766.898438" xlink:href="#DejaVuSans-114"/>
     </g>
    </g>
   </g>
   <g id="LineCollection_1">
    <path clip-path="url(#p09c927f24c)" d="M 99.052996 181.968469 
L 122.455992 181.968469 
" style="fill:none;stroke:#1f77b4;stroke-width:1.5;"/>
    <path clip-path="url(#p09c927f24c)" d="M 192.664979 29.136364 
L 216.067975 29.136364 
" style="fill:none;stroke:#1f77b4;stroke-width:1.5;"/>
    <path clip-path="url(#p09c927f24c)" d="M 286.276963 183.545433 
L 309.679959 183.545433 
" style="fill:none;stroke:#1f77b4;stroke-width:1.5;"/>
   </g>
   <g id="LineCollection_2">
    <path clip-path="url(#p09c927f24c)" d="M 99.052996 233.863636 
L 122.455992 233.863636 
" style="fill:none;stroke:#1f77b4;stroke-width:1.5;"/>
    <path clip-path="url(#p09c927f24c)" d="M 192.664979 149.07374 
L 216.067975 149.07374 
" style="fill:none;stroke:#1f77b4;stroke-width:1.5;"/>
    <path clip-path="url(#p09c927f24c)" d="M 286.276963 220.551041 
L 309.679959 220.551041 
" style="fill:none;stroke:#1f77b4;stroke-width:1.5;"/>
   </g>
   <g id="LineCollection_3">
    <path clip-path="url(#p09c927f24c)" d="M 110.754494 233.863636 
L 110.754494 181.968469 
" style="fill:none;stroke:#1f77b4;stroke-width:1.5;"/>
    <path clip-path="url(#p09c927f24c)" d="M 204.366477 149.07374 
L 204.366477 29.136364 
" style="fill:none;stroke:#1f77b4;stroke-width:1.5;"/>
    <path clip-path="url(#p09c927f24c)" d="M 297.978461 220.551041 
L 297.978461 183.545433 
" style="fill:none;stroke:#1f77b4;stroke-width:1.5;"/>
   </g>
   <g id="patch_3">
    <path d="M 75.65 244.1 
L 75.65 18.9 
" style="fill:none;stroke:#000000;stroke-linecap:square;stroke-linejoin:miter;stroke-width:0.8;"/>
   </g>
   <g id="patch_4">
    <path d="M 333.082955 244.1 
L 333.082955 18.9 
" style="fill:none;stroke:#000000;stroke-linecap:square;stroke-linejoin:miter;stroke-width:0.8;"/>
   </g>
   <g id="patch_5">
    <path d="M 75.65 244.1 
L 333.082955 244.1 
" style="fill:none;stroke:#000000;stroke-linecap:square;stroke-linejoin:miter;stroke-width:0.8;"/>
   </g>
   <g id="patch_6">
    <path d="M 75.65 18.9 
L 333.082955 18.9 
" style="fill:none;stroke:#000000;stroke-linecap:square;stroke-linejoin:miter;stroke-width:0.8;"/>
   </g>
  </g>
 </g>
 <defs>
  <clipPath id="p09c927f24c">
   <rect height="225.2" width="257.432955" x="75.65" y="18.9"/>
  </clipPath>
 </defs>
</svg>
