<?xml version="1.0" encoding="utf-8" standalone="no"?>
<!DOCTYPE svg PUBLIC "-//W3C//DTD SVG 1.1//EN"
  "http://www.w3.org/Graphics/SVG/1.1/DTD/svg11.dtd">
<!-- Created with matplotlib (https://matplotlib.org/) -->
<svg height="288pt" version="1.1" viewBox="0 0 360 288" width="360pt" xmlns="http://www.w3.org/2000/svg" xmlns:xlink="http://www.w3.org/1999/xlink">
 <metadata>
  <rdf:RDF xmlns:cc="http://creativecommons.org/ns#" xmlns:dc="http://purl.org/dc/elements/1.1/" xmlns:rdf="http://www.w3.org/1999/02/22-rdf-syntax-ns#">
   <cc:Work>
    <dc:type rdf:resource="http://purl.org/dc/dcmitype/StillImage"/>
    <dc:date>2022-09-25T00:48:12.445361</dc:date>
    <dc:format>image/svg+xml</dc:format>
    <dc:creator>
     <cc:Agent>
      <dc:title>Matplotlib v3.3.4, https://matplotlib.org/</dc:title>
     </cc:Agent>
    </dc:creator>
   </cc:Work>
  </rdf:RDF>
 </metadata>
 <defs>
  <style type="text/css">*{stroke-linecap:butt;stroke-linejoin:round;}</style>
 </defs>
 <g id="figure_1">
  <g id="patch_1">
   <path d="M 0 288 
L 360 288 
L 360 0 
L 0 0 
z
" style="fill:none;"/>
  </g>
  <g id="axes_1">
   <g id="patch_2">
    <path d="M 59.025 244.1 
L 333.082955 244.1 
L 333.082955 18.9 
L 59.025 18.9 
z
" style="fill:#ffffff;"/>
   </g>
   <g id="PolyCollection_1">
    <path clip-path="url(#p9529728447)" d="M 99.165577 233.863636 
L 93.627502 233.863636 
L 93.386574 233.384554 
L 93.130367 232.905471 
L 92.853273 232.426388 
L 92.548941 231.947305 
L 92.210691 231.468223 
L 91.831982 230.98914 
L 91.406866 230.510057 
L 90.930401 230.030974 
L 90.398967 229.551891 
L 89.810475 229.072809 
L 89.164446 228.593726 
L 88.46199 228.114643 
L 87.705684 227.63556 
L 86.899406 227.156478 
L 86.048145 226.677395 
L 85.157816 226.198312 
L 84.235107 225.719229 
L 83.287364 225.240147 
L 82.322504 224.761064 
L 81.348954 224.281981 
L 80.375588 223.802898 
L 79.411644 223.323815 
L 78.466612 222.844733 
L 77.550083 222.36565 
L 76.671558 221.886567 
L 75.840222 221.407484 
L 75.064712 220.928402 
L 74.352867 220.449319 
L 73.71151 219.970236 
L 73.14624 219.491153 
L 72.661279 219.012071 
L 72.259349 218.532988 
L 71.941617 218.053905 
L 71.707682 217.574822 
L 71.555636 217.095739 
L 71.48218 216.616657 
L 71.482811 216.137574 
L 71.552063 215.658491 
L 71.683796 215.179408 
L 71.871506 214.700326 
L 72.108651 214.221243 
L 72.388931 213.74216 
L 72.706531 213.263077 
L 73.056275 212.783995 
L 73.433698 212.304912 
L 73.835028 211.825829 
L 74.257098 211.346746 
L 74.697209 210.867663 
L 75.152974 210.388581 
L 75.622185 209.909498 
L 76.102722 209.430415 
L 76.592521 208.951332 
L 77.089606 208.47225 
L 77.592172 207.993167 
L 78.0987 207.514084 
L 78.608074 207.035001 
L 79.119666 206.555919 
L 79.633376 206.076836 
L 80.149606 205.597753 
L 80.669165 205.11867 
L 81.193126 204.639587 
L 81.722639 204.160505 
L 82.258739 203.681422 
L 82.802169 203.202339 
L 83.35323 202.723256 
L 83.91169 202.244174 
L 84.476744 201.765091 
L 85.047022 201.286008 
L 85.620643 200.806925 
L 86.195296 200.327843 
L 86.768333 199.84876 
L 87.336865 199.369677 
L 87.897855 198.890594 
L 88.448193 198.411511 
L 88.984777 197.932429 
L 89.504573 197.453346 
L 90.00469 196.974263 
L 90.48245 196.49518 
L 90.935469 196.016098 
L 91.361734 195.537015 
L 91.759688 195.057932 
L 92.128296 194.578849 
L 92.467103 194.099767 
L 92.776257 193.620684 
L 93.056506 193.141601 
L 93.309171 192.662518 
L 93.536072 192.183436 
L 93.739445 191.704353 
L 93.921832 191.22527 
L 94.085966 190.746187 
L 94.23465 190.267104 
L 94.370649 189.788022 
L 94.496585 189.308939 
L 94.614856 188.829856 
L 94.727562 188.350773 
L 94.836455 187.871691 
L 94.942901 187.392608 
L 95.047863 186.913525 
L 95.151897 186.434442 
L 97.641182 186.434442 
L 97.641182 186.434442 
L 97.745216 186.913525 
L 97.850177 187.392608 
L 97.956623 187.871691 
L 98.065516 188.350773 
L 98.178223 188.829856 
L 98.296494 189.308939 
L 98.42243 189.788022 
L 98.558428 190.267104 
L 98.707112 190.746187 
L 98.871246 191.22527 
L 99.053634 191.704353 
L 99.257007 192.183436 
L 99.483908 192.662518 
L 99.736572 193.141601 
L 100.016822 193.620684 
L 100.325975 194.099767 
L 100.664782 194.578849 
L 101.033391 195.057932 
L 101.431345 195.537015 
L 101.85761 196.016098 
L 102.310628 196.49518 
L 102.788389 196.974263 
L 103.288506 197.453346 
L 103.808302 197.932429 
L 104.344885 198.411511 
L 104.895224 198.890594 
L 105.456213 199.369677 
L 106.024746 199.84876 
L 106.597783 200.327843 
L 107.172436 200.806925 
L 107.746057 201.286008 
L 108.316334 201.765091 
L 108.881388 202.244174 
L 109.439848 202.723256 
L 109.990909 203.202339 
L 110.534339 203.681422 
L 111.07044 204.160505 
L 111.599953 204.639587 
L 112.123913 205.11867 
L 112.643473 205.597753 
L 113.159702 206.076836 
L 113.673413 206.555919 
L 114.185005 207.035001 
L 114.694379 207.514084 
L 115.200907 207.993167 
L 115.703472 208.47225 
L 116.200557 208.951332 
L 116.690356 209.430415 
L 117.170894 209.909498 
L 117.640105 210.388581 
L 118.095869 210.867663 
L 118.53598 211.346746 
L 118.95805 211.825829 
L 119.359381 212.304912 
L 119.736803 212.783995 
L 120.086547 213.263077 
L 120.404147 213.74216 
L 120.684428 214.221243 
L 120.921572 214.700326 
L 121.109283 215.179408 
L 121.241015 215.658491 
L 121.310267 216.137574 
L 121.310899 216.616657 
L 121.237443 217.095739 
L 121.085396 217.574822 
L 120.851461 218.053905 
L 120.533729 218.532988 
L 120.1318 219.012071 
L 119.646838 219.491153 
L 119.081569 219.970236 
L 118.440211 220.449319 
L 117.728367 220.928402 
L 116.952856 221.407484 
L 116.121521 221.886567 
L 115.242995 222.36565 
L 114.326467 222.844733 
L 113.381434 223.323815 
L 112.41749 223.802898 
L 111.444124 224.281981 
L 110.470575 224.761064 
L 109.505715 225.240147 
L 108.557971 225.719229 
L 107.635262 226.198312 
L 106.744933 226.677395 
L 105.893672 227.156478 
L 105.087395 227.63556 
L 104.331088 228.114643 
L 103.628632 228.593726 
L 102.982604 229.072809 
L 102.394112 229.551891 
L 101.862678 230.030974 
L 101.386212 230.510057 
L 100.961096 230.98914 
L 100.582387 231.468223 
L 100.244138 231.947305 
L 99.939806 232.426388 
L 99.662712 232.905471 
L 99.406504 233.384554 
L 99.165577 233.863636 
z
" style="fill:#1f77b4;fill-opacity:0.3;"/>
   </g>
   <g id="PolyCollection_2">
    <path clip-path="url(#p9529728447)" d="M 197.376429 156.39698 
L 194.731525 156.39698 
L 194.580484 155.111519 
L 194.414275 153.826058 
L 194.230769 152.540598 
L 194.027843 151.255137 
L 193.803514 149.969676 
L 193.556069 148.684215 
L 193.284173 147.398755 
L 192.986936 146.113294 
L 192.66393 144.827833 
L 192.315158 143.542372 
L 191.940953 142.256911 
L 191.541838 140.971451 
L 191.118344 139.68599 
L 190.670822 138.400529 
L 190.199253 137.115068 
L 189.703108 135.829608 
L 189.181265 134.544147 
L 188.632017 133.258686 
L 188.053175 131.973225 
L 187.442266 130.687765 
L 186.796833 129.402304 
L 186.114783 128.116843 
L 185.394782 126.831382 
L 184.636621 125.545921 
L 183.841542 124.260461 
L 183.012459 122.975 
L 182.15405 121.689539 
L 181.272716 120.404078 
L 180.376385 119.118618 
L 179.474204 117.833157 
L 178.576128 116.547696 
L 177.692475 115.262235 
L 176.833479 113.976775 
L 176.0089 112.691314 
L 175.227718 111.405853 
L 174.497956 110.120392 
L 173.82661 108.834931 
L 173.2197 107.549471 
L 172.682399 106.26401 
L 172.219201 104.978549 
L 171.834082 103.693088 
L 171.530616 102.407628 
L 171.312001 101.122167 
L 171.180974 99.836706 
L 171.139618 98.551245 
L 171.189067 97.265784 
L 171.329155 95.980324 
L 171.55803 94.694863 
L 171.871823 93.409402 
L 172.264391 92.123941 
L 172.727199 90.838481 
L 173.249379 89.55302 
L 173.817974 88.267559 
L 174.41837 86.982098 
L 175.034896 85.696638 
L 175.651553 84.411177 
L 176.252825 83.125716 
L 176.8245 81.840255 
L 177.354456 80.554794 
L 177.833345 79.269334 
L 178.255121 77.983873 
L 178.617379 76.698412 
L 178.921487 75.412951 
L 179.172484 74.127491 
L 179.378768 72.84203 
L 179.55159 71.556569 
L 179.704379 70.271108 
L 179.85195 68.985648 
L 180.009642 67.700187 
L 180.192432 66.414726 
L 180.414084 65.129265 
L 180.686383 63.843804 
L 181.018491 62.558344 
L 181.416465 61.272883 
L 181.882967 59.987422 
L 182.41716 58.701961 
L 183.014818 57.416501 
L 183.66861 56.13104 
L 184.368551 54.845579 
L 185.102584 53.560118 
L 185.857257 52.274658 
L 186.618437 50.989197 
L 187.372048 49.703736 
L 188.104761 48.418275 
L 188.804622 47.132814 
L 189.461572 45.847354 
L 190.067847 44.561893 
L 190.618228 43.276432 
L 191.110149 41.990971 
L 191.543634 40.705511 
L 191.921105 39.42005 
L 192.24705 38.134589 
L 192.527584 36.849128 
L 192.769938 35.563667 
L 192.981909 34.278207 
L 193.171312 32.992746 
L 193.345472 31.707285 
L 193.510797 30.421824 
L 193.672457 29.136364 
L 198.435498 29.136364 
L 198.435498 29.136364 
L 198.597157 30.421824 
L 198.762483 31.707285 
L 198.936643 32.992746 
L 199.126046 34.278207 
L 199.338017 35.563667 
L 199.580371 36.849128 
L 199.860905 38.134589 
L 200.18685 39.42005 
L 200.564321 40.705511 
L 200.997806 41.990971 
L 201.489726 43.276432 
L 202.040108 44.561893 
L 202.646382 45.847354 
L 203.303332 47.132814 
L 204.003193 48.418275 
L 204.735907 49.703736 
L 205.489518 50.989197 
L 206.250698 52.274658 
L 207.00537 53.560118 
L 207.739404 54.845579 
L 208.439344 56.13104 
L 209.093136 57.416501 
L 209.690794 58.701961 
L 210.224988 59.987422 
L 210.691489 61.272883 
L 211.089464 62.558344 
L 211.421572 63.843804 
L 211.693871 65.129265 
L 211.915523 66.414726 
L 212.098312 67.700187 
L 212.256004 68.985648 
L 212.403575 70.271108 
L 212.556364 71.556569 
L 212.729186 72.84203 
L 212.935471 74.127491 
L 213.186468 75.412951 
L 213.490576 76.698412 
L 213.852834 77.983873 
L 214.274609 79.269334 
L 214.753498 80.554794 
L 215.283455 81.840255 
L 215.85513 83.125716 
L 216.456401 84.411177 
L 217.073059 85.696638 
L 217.689584 86.982098 
L 218.28998 88.267559 
L 218.858575 89.55302 
L 219.380756 90.838481 
L 219.843563 92.123941 
L 220.236131 93.409402 
L 220.549925 94.694863 
L 220.7788 95.980324 
L 220.918887 97.265784 
L 220.968337 98.551245 
L 220.92698 99.836706 
L 220.795953 101.122167 
L 220.577338 102.407628 
L 220.273873 103.693088 
L 219.888754 104.978549 
L 219.425555 106.26401 
L 218.888254 107.549471 
L 218.281345 108.834931 
L 217.609999 110.120392 
L 216.880236 111.405853 
L 216.099055 112.691314 
L 215.274475 113.976775 
L 214.41548 115.262235 
L 213.531827 116.547696 
L 212.633751 117.833157 
L 211.73157 119.118618 
L 210.835239 120.404078 
L 209.953905 121.689539 
L 209.095496 122.975 
L 208.266412 124.260461 
L 207.471334 125.545921 
L 206.713173 126.831382 
L 205.993171 128.116843 
L 205.311122 129.402304 
L 204.665688 130.687765 
L 204.05478 131.973225 
L 203.475937 133.258686 
L 202.92669 134.544147 
L 202.404847 135.829608 
L 201.908701 137.115068 
L 201.437132 138.400529 
L 200.98961 139.68599 
L 200.566117 140.971451 
L 200.167001 142.256911 
L 199.792796 143.542372 
L 199.444024 144.827833 
L 199.121019 146.113294 
L 198.823781 147.398755 
L 198.551885 148.684215 
L 198.304441 149.969676 
L 198.080112 151.255137 
L 197.877185 152.540598 
L 197.69368 153.826058 
L 197.527471 155.111519 
L 197.376429 156.39698 
z
" style="fill:#1f77b4;fill-opacity:0.3;"/>
   </g>
   <g id="PolyCollection_3">
    <path clip-path="url(#p9529728447)" d="M 299.680411 212.632857 
L 291.742419 212.632857 
L 291.226114 212.160906 
L 290.690006 211.688954 
L 290.140311 211.217002 
L 289.583327 210.74505 
L 289.02502 210.273098 
L 288.470615 209.801147 
L 287.924238 209.329195 
L 287.388654 208.857243 
L 286.865134 208.385291 
L 286.353462 207.91334 
L 285.852093 207.441388 
L 285.358451 206.969436 
L 284.869318 206.497484 
L 284.381285 206.025533 
L 283.891201 205.553581 
L 283.396572 205.081629 
L 282.895856 204.609677 
L 282.388628 204.137726 
L 281.875579 203.665774 
L 281.358371 203.193822 
L 280.839358 202.72187 
L 280.321204 202.249919 
L 279.806461 201.777967 
L 279.297164 201.306015 
L 278.794486 200.834063 
L 278.298518 200.362112 
L 277.808212 199.89016 
L 277.321497 199.418208 
L 276.83558 198.946256 
L 276.347395 198.474305 
L 275.854176 198.002353 
L 275.354079 197.530401 
L 274.846788 197.058449 
L 274.334034 196.586498 
L 273.819959 196.114546 
L 273.311265 195.642594 
L 272.817119 195.170642 
L 272.348801 194.698691 
L 271.91911 194.226739 
L 271.541579 193.754787 
L 271.229551 193.282835 
L 270.995209 192.810884 
L 270.848646 192.338932 
L 270.797056 191.86698 
L 270.844135 191.395028 
L 270.989739 190.923077 
L 271.229849 190.451125 
L 271.556828 189.979173 
L 271.959986 189.507221 
L 272.426359 189.03527 
L 272.941681 188.563318 
L 273.491427 188.091366 
L 274.061851 187.619414 
L 274.640929 187.147463 
L 275.219111 186.675511 
L 275.789837 186.203559 
L 276.349755 185.731607 
L 276.898643 185.259656 
L 277.439055 184.787704 
L 277.975728 184.315752 
L 278.514825 183.8438 
L 279.063095 183.371849 
L 279.627047 182.899897 
L 280.212203 182.427945 
L 280.822516 181.955993 
L 281.459986 181.484042 
L 282.124499 181.01209 
L 282.813874 180.540138 
L 283.524099 180.068186 
L 284.24969 179.596235 
L 284.98414 179.124283 
L 285.720381 178.652331 
L 286.451225 178.180379 
L 287.169738 177.708428 
L 287.869533 177.236476 
L 288.544963 176.764524 
L 289.191232 176.292572 
L 289.804433 175.820621 
L 290.381526 175.348669 
L 290.920287 174.876717 
L 291.419228 174.404765 
L 291.87753 173.932814 
L 292.294962 173.460862 
L 292.671827 172.98891 
L 293.008908 172.516958 
L 293.307438 172.045007 
L 293.569068 171.573055 
L 293.795847 171.101103 
L 293.990199 170.629151 
L 294.154898 170.157199 
L 294.293026 169.685248 
L 294.407921 169.213296 
L 294.503104 168.741344 
L 294.582184 168.269392 
L 294.648749 167.797441 
L 294.70624 167.325489 
L 294.75783 166.853537 
L 294.806301 166.381585 
L 294.853945 165.909634 
L 296.568886 165.909634 
L 296.568886 165.909634 
L 296.616529 166.381585 
L 296.665 166.853537 
L 296.71659 167.325489 
L 296.774082 167.797441 
L 296.840646 168.269392 
L 296.919726 168.741344 
L 297.01491 169.213296 
L 297.129805 169.685248 
L 297.267933 170.157199 
L 297.432632 170.629151 
L 297.626984 171.101103 
L 297.853763 171.573055 
L 298.115392 172.045007 
L 298.413922 172.516958 
L 298.751004 172.98891 
L 299.127868 173.460862 
L 299.5453 173.932814 
L 300.003602 174.404765 
L 300.502544 174.876717 
L 301.041304 175.348669 
L 301.618398 175.820621 
L 302.231599 176.292572 
L 302.877868 176.764524 
L 303.553297 177.236476 
L 304.253092 177.708428 
L 304.971606 178.180379 
L 305.70245 178.652331 
L 306.438691 179.124283 
L 307.17314 179.596235 
L 307.898731 180.068186 
L 308.608956 180.540138 
L 309.298332 181.01209 
L 309.962845 181.484042 
L 310.600315 181.955993 
L 311.210627 182.427945 
L 311.795783 182.899897 
L 312.359735 183.371849 
L 312.908006 183.8438 
L 313.447102 184.315752 
L 313.983776 184.787704 
L 314.524188 185.259656 
L 315.073076 185.731607 
L 315.632993 186.203559 
L 316.20372 186.675511 
L 316.781902 187.147463 
L 317.360979 187.619414 
L 317.931403 188.091366 
L 318.481149 188.563318 
L 318.996472 189.03527 
L 319.462845 189.507221 
L 319.866002 189.979173 
L 320.192982 190.451125 
L 320.433091 190.923077 
L 320.578696 191.395028 
L 320.625775 191.86698 
L 320.574185 192.338932 
L 320.427622 192.810884 
L 320.19328 193.282835 
L 319.881251 193.754787 
L 319.50372 194.226739 
L 319.07403 194.698691 
L 318.605711 195.170642 
L 318.111565 195.642594 
L 317.602871 196.114546 
L 317.088796 196.586498 
L 316.576043 197.058449 
L 316.068752 197.530401 
L 315.568655 198.002353 
L 315.075436 198.474305 
L 314.587251 198.946256 
L 314.101333 199.418208 
L 313.614619 199.89016 
L 313.124313 200.362112 
L 312.628345 200.834063 
L 312.125666 201.306015 
L 311.61637 201.777967 
L 311.101627 202.249919 
L 310.583472 202.72187 
L 310.064459 203.193822 
L 309.547252 203.665774 
L 309.034202 204.137726 
L 308.526974 204.609677 
L 308.026259 205.081629 
L 307.53163 205.553581 
L 307.041545 206.025533 
L 306.553512 206.497484 
L 306.064379 206.969436 
L 305.570737 207.441388 
L 305.069369 207.91334 
L 304.557696 208.385291 
L 304.034176 208.857243 
L 303.498593 209.329195 
L 302.952216 209.801147 
L 302.397811 210.273098 
L 301.839504 210.74505 
L 301.28252 211.217002 
L 300.732825 211.688954 
L 300.196717 212.160906 
L 299.680411 212.632857 
z
" style="fill:#1f77b4;fill-opacity:0.3;"/>
   </g>
   <g id="matplotlib.axis_1">
    <g id="xtick_1">
     <g id="line2d_1">
      <defs>
       <path d="M 0 0 
L 0 3.5 
" id="maab9ad8eb1" style="stroke:#000000;stroke-width:0.8;"/>
      </defs>
      <g>
       <use style="stroke:#000000;stroke-width:0.8;" x="96.396539" xlink:href="#maab9ad8eb1" y="244.1"/>
      </g>
     </g>
     <g id="text_1">
      <!-- Our Method -->
      <g transform="translate(44.767438 264.397266)scale(0.175 -0.175)">
       <defs>
        <path d="M 39.40625 66.21875 
Q 28.65625 66.21875 22.328125 58.203125 
Q 16.015625 50.203125 16.015625 36.375 
Q 16.015625 22.609375 22.328125 14.59375 
Q 28.65625 6.59375 39.40625 6.59375 
Q 50.140625 6.59375 56.421875 14.59375 
Q 62.703125 22.609375 62.703125 36.375 
Q 62.703125 50.203125 56.421875 58.203125 
Q 50.140625 66.21875 39.40625 66.21875 
z
M 39.40625 74.21875 
Q 54.734375 74.21875 63.90625 63.9375 
Q 73.09375 53.65625 73.09375 36.375 
Q 73.09375 19.140625 63.90625 8.859375 
Q 54.734375 -1.421875 39.40625 -1.421875 
Q 24.03125 -1.421875 14.8125 8.828125 
Q 5.609375 19.09375 5.609375 36.375 
Q 5.609375 53.65625 14.8125 63.9375 
Q 24.03125 74.21875 39.40625 74.21875 
z
" id="DejaVuSans-79"/>
        <path d="M 8.5 21.578125 
L 8.5 54.6875 
L 17.484375 54.6875 
L 17.484375 21.921875 
Q 17.484375 14.15625 20.5 10.265625 
Q 23.53125 6.390625 29.59375 6.390625 
Q 36.859375 6.390625 41.078125 11.03125 
Q 45.3125 15.671875 45.3125 23.6875 
L 45.3125 54.6875 
L 54.296875 54.6875 
L 54.296875 0 
L 45.3125 0 
L 45.3125 8.40625 
Q 42.046875 3.421875 37.71875 1 
Q 33.40625 -1.421875 27.6875 -1.421875 
Q 18.265625 -1.421875 13.375 4.4375 
Q 8.5 10.296875 8.5 21.578125 
z
M 31.109375 56 
z
" id="DejaVuSans-117"/>
        <path d="M 41.109375 46.296875 
Q 39.59375 47.171875 37.8125 47.578125 
Q 36.03125 48 33.890625 48 
Q 26.265625 48 22.1875 43.046875 
Q 18.109375 38.09375 18.109375 28.8125 
L 18.109375 0 
L 9.078125 0 
L 9.078125 54.6875 
L 18.109375 54.6875 
L 18.109375 46.1875 
Q 20.953125 51.171875 25.484375 53.578125 
Q 30.03125 56 36.53125 56 
Q 37.453125 56 38.578125 55.875 
Q 39.703125 55.765625 41.0625 55.515625 
z
" id="DejaVuSans-114"/>
        <path id="DejaVuSans-32"/>
        <path d="M 9.8125 72.90625 
L 24.515625 72.90625 
L 43.109375 23.296875 
L 61.8125 72.90625 
L 76.515625 72.90625 
L 76.515625 0 
L 66.890625 0 
L 66.890625 64.015625 
L 48.09375 14.015625 
L 38.1875 14.015625 
L 19.390625 64.015625 
L 19.390625 0 
L 9.8125 0 
z
" id="DejaVuSans-77"/>
        <path d="M 56.203125 29.59375 
L 56.203125 25.203125 
L 14.890625 25.203125 
Q 15.484375 15.921875 20.484375 11.0625 
Q 25.484375 6.203125 34.421875 6.203125 
Q 39.59375 6.203125 44.453125 7.46875 
Q 49.3125 8.734375 54.109375 11.28125 
L 54.109375 2.78125 
Q 49.265625 0.734375 44.1875 -0.34375 
Q 39.109375 -1.421875 33.890625 -1.421875 
Q 20.796875 -1.421875 13.15625 6.1875 
Q 5.515625 13.8125 5.515625 26.8125 
Q 5.515625 40.234375 12.765625 48.109375 
Q 20.015625 56 32.328125 56 
Q 43.359375 56 49.78125 48.890625 
Q 56.203125 41.796875 56.203125 29.59375 
z
M 47.21875 32.234375 
Q 47.125 39.59375 43.09375 43.984375 
Q 39.0625 48.390625 32.421875 48.390625 
Q 24.90625 48.390625 20.390625 44.140625 
Q 15.875 39.890625 15.1875 32.171875 
z
" id="DejaVuSans-101"/>
        <path d="M 18.3125 70.21875 
L 18.3125 54.6875 
L 36.8125 54.6875 
L 36.8125 47.703125 
L 18.3125 47.703125 
L 18.3125 18.015625 
Q 18.3125 11.328125 20.140625 9.421875 
Q 21.96875 7.515625 27.59375 7.515625 
L 36.8125 7.515625 
L 36.8125 0 
L 27.59375 0 
Q 17.1875 0 13.234375 3.875 
Q 9.28125 7.765625 9.28125 18.015625 
L 9.28125 47.703125 
L 2.6875 47.703125 
L 2.6875 54.6875 
L 9.28125 54.6875 
L 9.28125 70.21875 
z
" id="DejaVuSans-116"/>
        <path d="M 54.890625 33.015625 
L 54.890625 0 
L 45.90625 0 
L 45.90625 32.71875 
Q 45.90625 40.484375 42.875 44.328125 
Q 39.84375 48.1875 33.796875 48.1875 
Q 26.515625 48.1875 22.3125 43.546875 
Q 18.109375 38.921875 18.109375 30.90625 
L 18.109375 0 
L 9.078125 0 
L 9.078125 75.984375 
L 18.109375 75.984375 
L 18.109375 46.1875 
Q 21.34375 51.125 25.703125 53.5625 
Q 30.078125 56 35.796875 56 
Q 45.21875 56 50.046875 50.171875 
Q 54.890625 44.34375 54.890625 33.015625 
z
" id="DejaVuSans-104"/>
        <path d="M 30.609375 48.390625 
Q 23.390625 48.390625 19.1875 42.75 
Q 14.984375 37.109375 14.984375 27.296875 
Q 14.984375 17.484375 19.15625 11.84375 
Q 23.34375 6.203125 30.609375 6.203125 
Q 37.796875 6.203125 41.984375 11.859375 
Q 46.1875 17.53125 46.1875 27.296875 
Q 46.1875 37.015625 41.984375 42.703125 
Q 37.796875 48.390625 30.609375 48.390625 
z
M 30.609375 56 
Q 42.328125 56 49.015625 48.375 
Q 55.71875 40.765625 55.71875 27.296875 
Q 55.71875 13.875 49.015625 6.21875 
Q 42.328125 -1.421875 30.609375 -1.421875 
Q 18.84375 -1.421875 12.171875 6.21875 
Q 5.515625 13.875 5.515625 27.296875 
Q 5.515625 40.765625 12.171875 48.375 
Q 18.84375 56 30.609375 56 
z
" id="DejaVuSans-111"/>
        <path d="M 45.40625 46.390625 
L 45.40625 75.984375 
L 54.390625 75.984375 
L 54.390625 0 
L 45.40625 0 
L 45.40625 8.203125 
Q 42.578125 3.328125 38.25 0.953125 
Q 33.9375 -1.421875 27.875 -1.421875 
Q 17.96875 -1.421875 11.734375 6.484375 
Q 5.515625 14.40625 5.515625 27.296875 
Q 5.515625 40.1875 11.734375 48.09375 
Q 17.96875 56 27.875 56 
Q 33.9375 56 38.25 53.625 
Q 42.578125 51.265625 45.40625 46.390625 
z
M 14.796875 27.296875 
Q 14.796875 17.390625 18.875 11.75 
Q 22.953125 6.109375 30.078125 6.109375 
Q 37.203125 6.109375 41.296875 11.75 
Q 45.40625 17.390625 45.40625 27.296875 
Q 45.40625 37.203125 41.296875 42.84375 
Q 37.203125 48.484375 30.078125 48.484375 
Q 22.953125 48.484375 18.875 42.84375 
Q 14.796875 37.203125 14.796875 27.296875 
z
" id="DejaVuSans-100"/>
       </defs>
       <use xlink:href="#DejaVuSans-79"/>
       <use x="78.710938" xlink:href="#DejaVuSans-117"/>
       <use x="142.089844" xlink:href="#DejaVuSans-114"/>
       <use x="183.203125" xlink:href="#DejaVuSans-32"/>
       <use x="214.990234" xlink:href="#DejaVuSans-77"/>
       <use x="301.269531" xlink:href="#DejaVuSans-101"/>
       <use x="362.792969" xlink:href="#DejaVuSans-116"/>
       <use x="402.001953" xlink:href="#DejaVuSans-104"/>
       <use x="465.380859" xlink:href="#DejaVuSans-111"/>
       <use x="526.5625" xlink:href="#DejaVuSans-100"/>
      </g>
     </g>
    </g>
    <g id="xtick_2">
     <g id="line2d_2">
      <g>
       <use style="stroke:#000000;stroke-width:0.8;" x="196.053977" xlink:href="#maab9ad8eb1" y="244.1"/>
      </g>
     </g>
     <g id="text_2">
      <!-- Stein's -->
      <g transform="translate(166.745579 264.397266)scale(0.175 -0.175)">
       <defs>
        <path d="M 53.515625 70.515625 
L 53.515625 60.890625 
Q 47.90625 63.578125 42.921875 64.890625 
Q 37.9375 66.21875 33.296875 66.21875 
Q 25.25 66.21875 20.875 63.09375 
Q 16.5 59.96875 16.5 54.203125 
Q 16.5 49.359375 19.40625 46.890625 
Q 22.3125 44.4375 30.421875 42.921875 
L 36.375 41.703125 
Q 47.40625 39.59375 52.65625 34.296875 
Q 57.90625 29 57.90625 20.125 
Q 57.90625 9.515625 50.796875 4.046875 
Q 43.703125 -1.421875 29.984375 -1.421875 
Q 24.8125 -1.421875 18.96875 -0.25 
Q 13.140625 0.921875 6.890625 3.21875 
L 6.890625 13.375 
Q 12.890625 10.015625 18.65625 8.296875 
Q 24.421875 6.59375 29.984375 6.59375 
Q 38.421875 6.59375 43.015625 9.90625 
Q 47.609375 13.234375 47.609375 19.390625 
Q 47.609375 24.75 44.3125 27.78125 
Q 41.015625 30.8125 33.5 32.328125 
L 27.484375 33.5 
Q 16.453125 35.6875 11.515625 40.375 
Q 6.59375 45.0625 6.59375 53.421875 
Q 6.59375 63.09375 13.40625 68.65625 
Q 20.21875 74.21875 32.171875 74.21875 
Q 37.3125 74.21875 42.625 73.28125 
Q 47.953125 72.359375 53.515625 70.515625 
z
" id="DejaVuSans-83"/>
        <path d="M 9.421875 54.6875 
L 18.40625 54.6875 
L 18.40625 0 
L 9.421875 0 
z
M 9.421875 75.984375 
L 18.40625 75.984375 
L 18.40625 64.59375 
L 9.421875 64.59375 
z
" id="DejaVuSans-105"/>
        <path d="M 54.890625 33.015625 
L 54.890625 0 
L 45.90625 0 
L 45.90625 32.71875 
Q 45.90625 40.484375 42.875 44.328125 
Q 39.84375 48.1875 33.796875 48.1875 
Q 26.515625 48.1875 22.3125 43.546875 
Q 18.109375 38.921875 18.109375 30.90625 
L 18.109375 0 
L 9.078125 0 
L 9.078125 54.6875 
L 18.109375 54.6875 
L 18.109375 46.1875 
Q 21.34375 51.125 25.703125 53.5625 
Q 30.078125 56 35.796875 56 
Q 45.21875 56 50.046875 50.171875 
Q 54.890625 44.34375 54.890625 33.015625 
z
" id="DejaVuSans-110"/>
        <path d="M 17.921875 72.90625 
L 17.921875 45.796875 
L 9.625 45.796875 
L 9.625 72.90625 
z
" id="DejaVuSans-39"/>
        <path d="M 44.28125 53.078125 
L 44.28125 44.578125 
Q 40.484375 46.53125 36.375 47.5 
Q 32.28125 48.484375 27.875 48.484375 
Q 21.1875 48.484375 17.84375 46.4375 
Q 14.5 44.390625 14.5 40.28125 
Q 14.5 37.15625 16.890625 35.375 
Q 19.28125 33.59375 26.515625 31.984375 
L 29.59375 31.296875 
Q 39.15625 29.25 43.1875 25.515625 
Q 47.21875 21.78125 47.21875 15.09375 
Q 47.21875 7.46875 41.1875 3.015625 
Q 35.15625 -1.421875 24.609375 -1.421875 
Q 20.21875 -1.421875 15.453125 -0.5625 
Q 10.6875 0.296875 5.421875 2 
L 5.421875 11.28125 
Q 10.40625 8.6875 15.234375 7.390625 
Q 20.0625 6.109375 24.8125 6.109375 
Q 31.15625 6.109375 34.5625 8.28125 
Q 37.984375 10.453125 37.984375 14.40625 
Q 37.984375 18.0625 35.515625 20.015625 
Q 33.0625 21.96875 24.703125 23.78125 
L 21.578125 24.515625 
Q 13.234375 26.265625 9.515625 29.90625 
Q 5.8125 33.546875 5.8125 39.890625 
Q 5.8125 47.609375 11.28125 51.796875 
Q 16.75 56 26.8125 56 
Q 31.78125 56 36.171875 55.265625 
Q 40.578125 54.546875 44.28125 53.078125 
z
" id="DejaVuSans-115"/>
       </defs>
       <use xlink:href="#DejaVuSans-83"/>
       <use x="63.476562" xlink:href="#DejaVuSans-116"/>
       <use x="102.685547" xlink:href="#DejaVuSans-101"/>
       <use x="164.208984" xlink:href="#DejaVuSans-105"/>
       <use x="191.992188" xlink:href="#DejaVuSans-110"/>
       <use x="255.371094" xlink:href="#DejaVuSans-39"/>
       <use x="282.861328" xlink:href="#DejaVuSans-115"/>
      </g>
     </g>
    </g>
    <g id="xtick_3">
     <g id="line2d_3">
      <g>
       <use style="stroke:#000000;stroke-width:0.8;" x="295.711415" xlink:href="#maab9ad8eb1" y="244.1"/>
      </g>
     </g>
     <g id="text_3">
      <!-- Entry-wise -->
      <g transform="translate(249.898329 264.397266)scale(0.175 -0.175)">
       <defs>
        <path d="M 9.8125 72.90625 
L 55.90625 72.90625 
L 55.90625 64.59375 
L 19.671875 64.59375 
L 19.671875 43.015625 
L 54.390625 43.015625 
L 54.390625 34.71875 
L 19.671875 34.71875 
L 19.671875 8.296875 
L 56.78125 8.296875 
L 56.78125 0 
L 9.8125 0 
z
" id="DejaVuSans-69"/>
        <path d="M 32.171875 -5.078125 
Q 28.375 -14.84375 24.75 -17.8125 
Q 21.140625 -20.796875 15.09375 -20.796875 
L 7.90625 -20.796875 
L 7.90625 -13.28125 
L 13.1875 -13.28125 
Q 16.890625 -13.28125 18.9375 -11.515625 
Q 21 -9.765625 23.484375 -3.21875 
L 25.09375 0.875 
L 2.984375 54.6875 
L 12.5 54.6875 
L 29.59375 11.921875 
L 46.6875 54.6875 
L 56.203125 54.6875 
z
" id="DejaVuSans-121"/>
        <path d="M 4.890625 31.390625 
L 31.203125 31.390625 
L 31.203125 23.390625 
L 4.890625 23.390625 
z
" id="DejaVuSans-45"/>
        <path d="M 4.203125 54.6875 
L 13.1875 54.6875 
L 24.421875 12.015625 
L 35.59375 54.6875 
L 46.1875 54.6875 
L 57.421875 12.015625 
L 68.609375 54.6875 
L 77.59375 54.6875 
L 63.28125 0 
L 52.6875 0 
L 40.921875 44.828125 
L 29.109375 0 
L 18.5 0 
z
" id="DejaVuSans-119"/>
       </defs>
       <use xlink:href="#DejaVuSans-69"/>
       <use x="63.183594" xlink:href="#DejaVuSans-110"/>
       <use x="126.5625" xlink:href="#DejaVuSans-116"/>
       <use x="165.771484" xlink:href="#DejaVuSans-114"/>
       <use x="206.884766" xlink:href="#DejaVuSans-121"/>
       <use x="264.314453" xlink:href="#DejaVuSans-45"/>
       <use x="300.398438" xlink:href="#DejaVuSans-119"/>
       <use x="382.185547" xlink:href="#DejaVuSans-105"/>
       <use x="409.96875" xlink:href="#DejaVuSans-115"/>
       <use x="462.068359" xlink:href="#DejaVuSans-101"/>
      </g>
     </g>
    </g>
   </g>
   <g id="matplotlib.axis_2">
    <g id="ytick_1">
     <g id="line2d_4">
      <defs>
       <path d="M 0 0 
L -3.5 0 
" id="m51c0d5f554" style="stroke:#000000;stroke-width:0.8;"/>
      </defs>
      <g>
       <use style="stroke:#000000;stroke-width:0.8;" x="59.025" xlink:href="#m51c0d5f554" y="224.161167"/>
      </g>
     </g>
     <g id="text_4">
      <!-- 2 -->
      <g transform="translate(40.890625 230.809799)scale(0.175 -0.175)">
       <defs>
        <path d="M 19.1875 8.296875 
L 53.609375 8.296875 
L 53.609375 0 
L 7.328125 0 
L 7.328125 8.296875 
Q 12.9375 14.109375 22.625 23.890625 
Q 32.328125 33.6875 34.8125 36.53125 
Q 39.546875 41.84375 41.421875 45.53125 
Q 43.3125 49.21875 43.3125 52.78125 
Q 43.3125 58.59375 39.234375 62.25 
Q 35.15625 65.921875 28.609375 65.921875 
Q 23.96875 65.921875 18.8125 64.3125 
Q 13.671875 62.703125 7.8125 59.421875 
L 7.8125 69.390625 
Q 13.765625 71.78125 18.9375 73 
Q 24.125 74.21875 28.421875 74.21875 
Q 39.75 74.21875 46.484375 68.546875 
Q 53.21875 62.890625 53.21875 53.421875 
Q 53.21875 48.921875 51.53125 44.890625 
Q 49.859375 40.875 45.40625 35.40625 
Q 44.1875 33.984375 37.640625 27.21875 
Q 31.109375 20.453125 19.1875 8.296875 
z
" id="DejaVuSans-50"/>
       </defs>
       <use xlink:href="#DejaVuSans-50"/>
      </g>
     </g>
    </g>
    <g id="ytick_2">
     <g id="line2d_5">
      <g>
       <use style="stroke:#000000;stroke-width:0.8;" x="59.025" xlink:href="#m51c0d5f554" y="171.001746"/>
      </g>
     </g>
     <g id="text_5">
      <!-- 4 -->
      <g transform="translate(40.890625 177.650379)scale(0.175 -0.175)">
       <defs>
        <path d="M 37.796875 64.3125 
L 12.890625 25.390625 
L 37.796875 25.390625 
z
M 35.203125 72.90625 
L 47.609375 72.90625 
L 47.609375 25.390625 
L 58.015625 25.390625 
L 58.015625 17.1875 
L 47.609375 17.1875 
L 47.609375 0 
L 37.796875 0 
L 37.796875 17.1875 
L 4.890625 17.1875 
L 4.890625 26.703125 
z
" id="DejaVuSans-52"/>
       </defs>
       <use xlink:href="#DejaVuSans-52"/>
      </g>
     </g>
    </g>
    <g id="ytick_3">
     <g id="line2d_6">
      <g>
       <use style="stroke:#000000;stroke-width:0.8;" x="59.025" xlink:href="#m51c0d5f554" y="117.842326"/>
      </g>
     </g>
     <g id="text_6">
      <!-- 6 -->
      <g transform="translate(40.890625 124.490958)scale(0.175 -0.175)">
       <defs>
        <path d="M 33.015625 40.375 
Q 26.375 40.375 22.484375 35.828125 
Q 18.609375 31.296875 18.609375 23.390625 
Q 18.609375 15.53125 22.484375 10.953125 
Q 26.375 6.390625 33.015625 6.390625 
Q 39.65625 6.390625 43.53125 10.953125 
Q 47.40625 15.53125 47.40625 23.390625 
Q 47.40625 31.296875 43.53125 35.828125 
Q 39.65625 40.375 33.015625 40.375 
z
M 52.59375 71.296875 
L 52.59375 62.3125 
Q 48.875 64.0625 45.09375 64.984375 
Q 41.3125 65.921875 37.59375 65.921875 
Q 27.828125 65.921875 22.671875 59.328125 
Q 17.53125 52.734375 16.796875 39.40625 
Q 19.671875 43.65625 24.015625 45.921875 
Q 28.375 48.1875 33.59375 48.1875 
Q 44.578125 48.1875 50.953125 41.515625 
Q 57.328125 34.859375 57.328125 23.390625 
Q 57.328125 12.15625 50.6875 5.359375 
Q 44.046875 -1.421875 33.015625 -1.421875 
Q 20.359375 -1.421875 13.671875 8.265625 
Q 6.984375 17.96875 6.984375 36.375 
Q 6.984375 53.65625 15.1875 63.9375 
Q 23.390625 74.21875 37.203125 74.21875 
Q 40.921875 74.21875 44.703125 73.484375 
Q 48.484375 72.75 52.59375 71.296875 
z
" id="DejaVuSans-54"/>
       </defs>
       <use xlink:href="#DejaVuSans-54"/>
      </g>
     </g>
    </g>
    <g id="ytick_4">
     <g id="line2d_7">
      <g>
       <use style="stroke:#000000;stroke-width:0.8;" x="59.025" xlink:href="#m51c0d5f554" y="64.682905"/>
      </g>
     </g>
     <g id="text_7">
      <!-- 8 -->
      <g transform="translate(40.890625 71.331538)scale(0.175 -0.175)">
       <defs>
        <path d="M 31.78125 34.625 
Q 24.75 34.625 20.71875 30.859375 
Q 16.703125 27.09375 16.703125 20.515625 
Q 16.703125 13.921875 20.71875 10.15625 
Q 24.75 6.390625 31.78125 6.390625 
Q 38.8125 6.390625 42.859375 10.171875 
Q 46.921875 13.96875 46.921875 20.515625 
Q 46.921875 27.09375 42.890625 30.859375 
Q 38.875 34.625 31.78125 34.625 
z
M 21.921875 38.8125 
Q 15.578125 40.375 12.03125 44.71875 
Q 8.5 49.078125 8.5 55.328125 
Q 8.5 64.0625 14.71875 69.140625 
Q 20.953125 74.21875 31.78125 74.21875 
Q 42.671875 74.21875 48.875 69.140625 
Q 55.078125 64.0625 55.078125 55.328125 
Q 55.078125 49.078125 51.53125 44.71875 
Q 48 40.375 41.703125 38.8125 
Q 48.828125 37.15625 52.796875 32.3125 
Q 56.78125 27.484375 56.78125 20.515625 
Q 56.78125 9.90625 50.3125 4.234375 
Q 43.84375 -1.421875 31.78125 -1.421875 
Q 19.734375 -1.421875 13.25 4.234375 
Q 6.78125 9.90625 6.78125 20.515625 
Q 6.78125 27.484375 10.78125 32.3125 
Q 14.796875 37.15625 21.921875 38.8125 
z
M 18.3125 54.390625 
Q 18.3125 48.734375 21.84375 45.5625 
Q 25.390625 42.390625 31.78125 42.390625 
Q 38.140625 42.390625 41.71875 45.5625 
Q 45.3125 48.734375 45.3125 54.390625 
Q 45.3125 60.0625 41.71875 63.234375 
Q 38.140625 66.40625 31.78125 66.40625 
Q 25.390625 66.40625 21.84375 63.234375 
Q 18.3125 60.0625 18.3125 54.390625 
z
" id="DejaVuSans-56"/>
       </defs>
       <use xlink:href="#DejaVuSans-56"/>
      </g>
     </g>
    </g>
    <g id="text_8">
     <!-- Estimation Error -->
     <g transform="translate(33.251172 202.198633)rotate(-90)scale(0.175 -0.175)">
      <defs>
       <path d="M 52 44.1875 
Q 55.375 50.25 60.0625 53.125 
Q 64.75 56 71.09375 56 
Q 79.640625 56 84.28125 50.015625 
Q 88.921875 44.046875 88.921875 33.015625 
L 88.921875 0 
L 79.890625 0 
L 79.890625 32.71875 
Q 79.890625 40.578125 77.09375 44.375 
Q 74.3125 48.1875 68.609375 48.1875 
Q 61.625 48.1875 57.5625 43.546875 
Q 53.515625 38.921875 53.515625 30.90625 
L 53.515625 0 
L 44.484375 0 
L 44.484375 32.71875 
Q 44.484375 40.625 41.703125 44.40625 
Q 38.921875 48.1875 33.109375 48.1875 
Q 26.21875 48.1875 22.15625 43.53125 
Q 18.109375 38.875 18.109375 30.90625 
L 18.109375 0 
L 9.078125 0 
L 9.078125 54.6875 
L 18.109375 54.6875 
L 18.109375 46.1875 
Q 21.1875 51.21875 25.484375 53.609375 
Q 29.78125 56 35.6875 56 
Q 41.65625 56 45.828125 52.96875 
Q 50 49.953125 52 44.1875 
z
" id="DejaVuSans-109"/>
       <path d="M 34.28125 27.484375 
Q 23.390625 27.484375 19.1875 25 
Q 14.984375 22.515625 14.984375 16.5 
Q 14.984375 11.71875 18.140625 8.90625 
Q 21.296875 6.109375 26.703125 6.109375 
Q 34.1875 6.109375 38.703125 11.40625 
Q 43.21875 16.703125 43.21875 25.484375 
L 43.21875 27.484375 
z
M 52.203125 31.203125 
L 52.203125 0 
L 43.21875 0 
L 43.21875 8.296875 
Q 40.140625 3.328125 35.546875 0.953125 
Q 30.953125 -1.421875 24.3125 -1.421875 
Q 15.921875 -1.421875 10.953125 3.296875 
Q 6 8.015625 6 15.921875 
Q 6 25.140625 12.171875 29.828125 
Q 18.359375 34.515625 30.609375 34.515625 
L 43.21875 34.515625 
L 43.21875 35.40625 
Q 43.21875 41.609375 39.140625 45 
Q 35.0625 48.390625 27.6875 48.390625 
Q 23 48.390625 18.546875 47.265625 
Q 14.109375 46.140625 10.015625 43.890625 
L 10.015625 52.203125 
Q 14.9375 54.109375 19.578125 55.046875 
Q 24.21875 56 28.609375 56 
Q 40.484375 56 46.34375 49.84375 
Q 52.203125 43.703125 52.203125 31.203125 
z
" id="DejaVuSans-97"/>
      </defs>
      <use xlink:href="#DejaVuSans-69"/>
      <use x="63.183594" xlink:href="#DejaVuSans-115"/>
      <use x="115.283203" xlink:href="#DejaVuSans-116"/>
      <use x="154.492188" xlink:href="#DejaVuSans-105"/>
      <use x="182.275391" xlink:href="#DejaVuSans-109"/>
      <use x="279.6875" xlink:href="#DejaVuSans-97"/>
      <use x="340.966797" xlink:href="#DejaVuSans-116"/>
      <use x="380.175781" xlink:href="#DejaVuSans-105"/>
      <use x="407.958984" xlink:href="#DejaVuSans-111"/>
      <use x="469.140625" xlink:href="#DejaVuSans-110"/>
      <use x="532.519531" xlink:href="#DejaVuSans-32"/>
      <use x="564.306641" xlink:href="#DejaVuSans-69"/>
      <use x="627.490234" xlink:href="#DejaVuSans-114"/>
      <use x="666.853516" xlink:href="#DejaVuSans-114"/>
      <use x="705.716797" xlink:href="#DejaVuSans-111"/>
      <use x="766.898438" xlink:href="#DejaVuSans-114"/>
     </g>
    </g>
   </g>
   <g id="LineCollection_1">
    <path clip-path="url(#p9529728447)" d="M 83.93936 186.434442 
L 108.853719 186.434442 
" style="fill:none;stroke:#1f77b4;stroke-width:1.5;"/>
    <path clip-path="url(#p9529728447)" d="M 183.596798 29.136364 
L 208.511157 29.136364 
" style="fill:none;stroke:#1f77b4;stroke-width:1.5;"/>
    <path clip-path="url(#p9529728447)" d="M 283.254236 165.909634 
L 308.168595 165.909634 
" style="fill:none;stroke:#1f77b4;stroke-width:1.5;"/>
   </g>
   <g id="LineCollection_2">
    <path clip-path="url(#p9529728447)" d="M 83.93936 233.863636 
L 108.853719 233.863636 
" style="fill:none;stroke:#1f77b4;stroke-width:1.5;"/>
    <path clip-path="url(#p9529728447)" d="M 183.596798 156.39698 
L 208.511157 156.39698 
" style="fill:none;stroke:#1f77b4;stroke-width:1.5;"/>
    <path clip-path="url(#p9529728447)" d="M 283.254236 212.632857 
L 308.168595 212.632857 
" style="fill:none;stroke:#1f77b4;stroke-width:1.5;"/>
   </g>
   <g id="LineCollection_3">
    <path clip-path="url(#p9529728447)" d="M 96.396539 233.863636 
L 96.396539 186.434442 
" style="fill:none;stroke:#1f77b4;stroke-width:1.5;"/>
    <path clip-path="url(#p9529728447)" d="M 196.053977 156.39698 
L 196.053977 29.136364 
" style="fill:none;stroke:#1f77b4;stroke-width:1.5;"/>
    <path clip-path="url(#p9529728447)" d="M 295.711415 212.632857 
L 295.711415 165.909634 
" style="fill:none;stroke:#1f77b4;stroke-width:1.5;"/>
   </g>
   <g id="patch_3">
    <path d="M 59.025 244.1 
L 59.025 18.9 
" style="fill:none;stroke:#000000;stroke-linecap:square;stroke-linejoin:miter;stroke-width:0.8;"/>
   </g>
   <g id="patch_4">
    <path d="M 333.082955 244.1 
L 333.082955 18.9 
" style="fill:none;stroke:#000000;stroke-linecap:square;stroke-linejoin:miter;stroke-width:0.8;"/>
   </g>
   <g id="patch_5">
    <path d="M 59.025 244.1 
L 333.082955 244.1 
" style="fill:none;stroke:#000000;stroke-linecap:square;stroke-linejoin:miter;stroke-width:0.8;"/>
   </g>
   <g id="patch_6">
    <path d="M 59.025 18.9 
L 333.082955 18.9 
" style="fill:none;stroke:#000000;stroke-linecap:square;stroke-linejoin:miter;stroke-width:0.8;"/>
   </g>
  </g>
 </g>
 <defs>
  <clipPath id="p9529728447">
   <rect height="225.2" width="274.057955" x="59.025" y="18.9"/>
  </clipPath>
 </defs>
</svg>
