<?xml version="1.0" encoding="utf-8" standalone="no"?>
<!DOCTYPE svg PUBLIC "-//W3C//DTD SVG 1.1//EN"
  "http://www.w3.org/Graphics/SVG/1.1/DTD/svg11.dtd">
<!-- Created with matplotlib (https://matplotlib.org/) -->
<svg height="288pt" version="1.1" viewBox="0 0 360 288" width="360pt" xmlns="http://www.w3.org/2000/svg" xmlns:xlink="http://www.w3.org/1999/xlink">
 <metadata>
  <rdf:RDF xmlns:cc="http://creativecommons.org/ns#" xmlns:dc="http://purl.org/dc/elements/1.1/" xmlns:rdf="http://www.w3.org/1999/02/22-rdf-syntax-ns#">
   <cc:Work>
    <dc:type rdf:resource="http://purl.org/dc/dcmitype/StillImage"/>
    <dc:date>2022-09-25T00:48:11.844659</dc:date>
    <dc:format>image/svg+xml</dc:format>
    <dc:creator>
     <cc:Agent>
      <dc:title>Matplotlib v3.3.4, https://matplotlib.org/</dc:title>
     </cc:Agent>
    </dc:creator>
   </cc:Work>
  </rdf:RDF>
 </metadata>
 <defs>
  <style type="text/css">*{stroke-linecap:butt;stroke-linejoin:round;}</style>
 </defs>
 <g id="figure_1">
  <g id="patch_1">
   <path d="M 0 288 
L 360 288 
L 360 0 
L 0 0 
z
" style="fill:none;"/>
  </g>
  <g id="axes_1">
   <g id="patch_2">
    <path d="M 75.65 244.1 
L 333.082955 244.1 
L 333.082955 18.9 
L 75.65 18.9 
z
" style="fill:#ffffff;"/>
   </g>
   <g id="PolyCollection_1">
    <path clip-path="url(#p97af2ca1b3)" d="M 113.171925 233.863636 
L 108.337063 233.863636 
L 108.02723 233.354868 
L 107.693253 232.846099 
L 107.333764 232.33733 
L 106.947185 231.828561 
L 106.531752 231.319793 
L 106.085562 230.811024 
L 105.606627 230.302255 
L 105.092959 229.793486 
L 104.542662 229.284718 
L 103.954072 228.775949 
L 103.325908 228.26718 
L 102.657467 227.758411 
L 101.948823 227.249642 
L 101.201046 226.740874 
L 100.416391 226.232105 
L 99.598452 225.723336 
L 98.752245 225.214567 
L 97.884205 224.705799 
L 97.002074 224.19703 
L 96.114691 223.688261 
L 95.231679 223.179492 
L 94.363059 222.670724 
L 93.518822 222.161955 
L 92.708494 221.653186 
L 91.940733 221.144417 
L 91.222988 220.635649 
L 90.561257 220.12688 
L 89.959955 219.618111 
L 89.421902 219.109342 
L 88.94842 218.600574 
L 88.539536 218.091805 
L 88.19425 217.583036 
L 87.910859 217.074267 
L 87.68728 216.565498 
L 87.521357 216.05673 
L 87.41111 215.547961 
L 87.354901 215.039192 
L 87.351498 214.530423 
L 87.400038 214.021655 
L 87.499886 213.512886 
L 87.650419 213.004117 
L 87.850773 212.495348 
L 88.099579 211.98658 
L 88.39475 211.477811 
L 88.733341 210.969042 
L 89.111524 210.460273 
L 89.524673 209.951505 
L 89.967558 209.442736 
L 90.434619 208.933967 
L 90.920283 208.425198 
L 91.419268 207.91643 
L 91.92685 207.407661 
L 92.439049 206.898892 
L 92.952717 206.390123 
L 93.465548 205.881354 
L 93.976005 205.372586 
L 94.483213 204.863817 
L 94.986839 204.355048 
L 95.486985 203.846279 
L 95.984114 203.337511 
L 96.479012 202.828742 
L 96.972772 202.319973 
L 97.466777 201.811204 
L 97.962671 201.302436 
L 98.462279 200.793667 
L 98.967476 200.284898 
L 99.480003 199.776129 
L 100.001237 199.267361 
L 100.531953 198.758592 
L 101.072098 198.249823 
L 101.62062 197.741054 
L 102.175378 197.232286 
L 102.733158 196.723517 
L 103.289786 196.214748 
L 103.840352 195.705979 
L 104.3795 195.19721 
L 104.901766 194.688442 
L 105.401929 194.179673 
L 105.875326 193.670904 
L 106.318117 193.162135 
L 106.727469 192.653367 
L 107.10165 192.144598 
L 107.440034 191.635829 
L 107.743034 191.12706 
L 108.011966 190.618292 
L 108.248888 190.109523 
L 108.456405 189.600754 
L 108.637494 189.091985 
L 108.795337 188.583217 
L 108.93318 188.074448 
L 109.054221 187.565679 
L 109.161531 187.05691 
L 109.25799 186.548142 
L 109.346238 186.039373 
L 109.428635 185.530604 
L 109.507229 185.021835 
L 109.583717 184.513067 
L 109.65942 184.004298 
L 109.73526 183.495529 
L 111.773728 183.495529 
L 111.773728 183.495529 
L 111.849567 184.004298 
L 111.92527 184.513067 
L 112.001759 185.021835 
L 112.080352 185.530604 
L 112.16275 186.039373 
L 112.250997 186.548142 
L 112.347457 187.05691 
L 112.454767 187.565679 
L 112.575808 188.074448 
L 112.71365 188.583217 
L 112.871493 189.091985 
L 113.052583 189.600754 
L 113.2601 190.109523 
L 113.497021 190.618292 
L 113.765954 191.12706 
L 114.068953 191.635829 
L 114.407338 192.144598 
L 114.781518 192.653367 
L 115.190871 193.162135 
L 115.633662 193.670904 
L 116.107059 194.179673 
L 116.607221 194.688442 
L 117.129488 195.19721 
L 117.668635 195.705979 
L 118.219201 196.214748 
L 118.77583 196.723517 
L 119.333609 197.232286 
L 119.888368 197.741054 
L 120.436889 198.249823 
L 120.977034 198.758592 
L 121.50775 199.267361 
L 122.028985 199.776129 
L 122.541511 200.284898 
L 123.046709 200.793667 
L 123.546316 201.302436 
L 124.04221 201.811204 
L 124.536216 202.319973 
L 125.029975 202.828742 
L 125.524874 203.337511 
L 126.022003 203.846279 
L 126.522149 204.355048 
L 127.025775 204.863817 
L 127.532983 205.372586 
L 128.04344 205.881354 
L 128.55627 206.390123 
L 129.069938 206.898892 
L 129.582137 207.407661 
L 130.08972 207.91643 
L 130.588705 208.425198 
L 131.074368 208.933967 
L 131.54143 209.442736 
L 131.984315 209.951505 
L 132.397464 210.460273 
L 132.775647 210.969042 
L 133.114238 211.477811 
L 133.409408 211.98658 
L 133.658214 212.495348 
L 133.858568 213.004117 
L 134.009102 213.512886 
L 134.10895 214.021655 
L 134.15749 214.530423 
L 134.154087 215.039192 
L 134.097878 215.547961 
L 133.987631 216.05673 
L 133.821708 216.565498 
L 133.598128 217.074267 
L 133.314737 217.583036 
L 132.969452 218.091805 
L 132.560568 218.600574 
L 132.087086 219.109342 
L 131.549032 219.618111 
L 130.947731 220.12688 
L 130.285999 220.635649 
L 129.568254 221.144417 
L 128.800493 221.653186 
L 127.990166 222.161955 
L 127.145929 222.670724 
L 126.277308 223.179492 
L 125.394296 223.688261 
L 124.506913 224.19703 
L 123.624783 224.705799 
L 122.756743 225.214567 
L 121.910536 225.723336 
L 121.092596 226.232105 
L 120.307941 226.740874 
L 119.560164 227.249642 
L 118.851521 227.758411 
L 118.183079 228.26718 
L 117.554916 228.775949 
L 116.966326 229.284718 
L 116.416029 229.793486 
L 115.90236 230.302255 
L 115.423426 230.811024 
L 114.977236 231.319793 
L 114.561803 231.828561 
L 114.175224 232.33733 
L 113.815735 232.846099 
L 113.481757 233.354868 
L 113.171925 233.863636 
z
" style="fill:#1f77b4;fill-opacity:0.3;"/>
   </g>
   <g id="PolyCollection_2">
    <path clip-path="url(#p97af2ca1b3)" d="M 209.956454 224.181057 
L 198.7765 224.181057 
L 197.952609 222.210909 
L 197.087067 220.240761 
L 196.188839 218.270612 
L 195.266945 216.300464 
L 194.329951 214.330315 
L 193.385567 212.360167 
L 192.440416 210.390018 
L 191.500013 208.41987 
L 190.568929 206.449722 
L 189.651144 204.479573 
L 188.750486 202.509425 
L 187.871115 200.539276 
L 187.017929 198.569128 
L 186.196825 196.59898 
L 185.414741 194.628831 
L 184.679445 192.658683 
L 183.999076 190.688534 
L 183.381472 188.718386 
L 182.833387 186.748237 
L 182.359688 184.778089 
L 181.962684 182.807941 
L 181.641701 180.837792 
L 181.393013 178.867644 
L 181.210179 176.897495 
L 181.084785 174.927347 
L 181.007529 172.957198 
L 180.969498 170.98705 
L 180.963481 169.016902 
L 180.985101 167.046753 
L 181.033593 165.076605 
L 181.112091 163.106456 
L 181.22734 161.136308 
L 181.388871 159.16616 
L 181.607723 157.196011 
L 181.89489 155.225863 
L 182.259707 153.255714 
L 182.708398 151.285566 
L 183.242982 149.315417 
L 183.860681 147.345269 
L 184.553892 145.375121 
L 185.310709 143.404972 
L 186.115911 141.434824 
L 186.952268 139.464675 
L 187.801995 137.494527 
L 188.648185 135.524378 
L 189.476066 133.55423 
L 190.273958 131.584082 
L 191.033876 129.613933 
L 191.751746 127.643785 
L 192.427251 125.673636 
L 193.063357 123.703488 
L 193.665595 121.733339 
L 194.241174 119.763191 
L 194.798026 117.793043 
L 195.343863 115.822894 
L 195.885331 113.852746 
L 196.427335 111.882597 
L 196.972584 109.912449 
L 197.521385 107.942301 
L 198.071688 105.972152 
L 198.619374 104.002004 
L 199.158718 102.031855 
L 199.682989 100.061707 
L 200.1851 98.091558 
L 200.658256 96.12141 
L 201.096517 94.151262 
L 201.495252 92.181113 
L 201.851448 90.210965 
L 202.163856 88.240816 
L 202.432997 86.270668 
L 202.661025 84.300519 
L 202.85148 82.330371 
L 203.008965 80.360223 
L 203.138752 78.390074 
L 203.246383 76.419926 
L 203.337256 74.449777 
L 203.416271 72.479629 
L 203.48752 70.509481 
L 203.554074 68.539332 
L 203.617877 66.569184 
L 203.679738 64.599035 
L 203.739437 62.628887 
L 203.795908 60.658738 
L 203.847504 58.68859 
L 203.892278 56.718442 
L 203.928294 54.748293 
L 203.953899 52.778145 
L 203.967968 50.807996 
L 203.970077 48.837848 
L 203.960613 46.867699 
L 203.940798 44.897551 
L 203.912641 42.927403 
L 203.87881 40.957254 
L 203.842441 38.987106 
L 203.806898 37.016957 
L 203.7755 35.046809 
L 203.751255 33.07666 
L 203.736609 31.106512 
L 203.733253 29.136364 
L 204.999701 29.136364 
L 204.999701 29.136364 
L 204.996345 31.106512 
L 204.9817 33.07666 
L 204.957455 35.046809 
L 204.926057 37.016957 
L 204.890513 38.987106 
L 204.854144 40.957254 
L 204.820314 42.927403 
L 204.792157 44.897551 
L 204.772342 46.867699 
L 204.762877 48.837848 
L 204.764987 50.807996 
L 204.779056 52.778145 
L 204.804661 54.748293 
L 204.840676 56.718442 
L 204.885451 58.68859 
L 204.937046 60.658738 
L 204.993518 62.628887 
L 205.053216 64.599035 
L 205.115078 66.569184 
L 205.178881 68.539332 
L 205.245435 70.509481 
L 205.316683 72.479629 
L 205.395698 74.449777 
L 205.486572 76.419926 
L 205.594202 78.390074 
L 205.72399 80.360223 
L 205.881474 82.330371 
L 206.07193 84.300519 
L 206.299957 86.270668 
L 206.569098 88.240816 
L 206.881507 90.210965 
L 207.237702 92.181113 
L 207.636438 94.151262 
L 208.074699 96.12141 
L 208.547854 98.091558 
L 209.049966 100.061707 
L 209.574236 102.031855 
L 210.11358 104.002004 
L 210.661266 105.972152 
L 211.21157 107.942301 
L 211.76037 109.912449 
L 212.305619 111.882597 
L 212.847624 113.852746 
L 213.389091 115.822894 
L 213.934928 117.793043 
L 214.49178 119.763191 
L 215.06736 121.733339 
L 215.669597 123.703488 
L 216.305703 125.673636 
L 216.981208 127.643785 
L 217.699079 129.613933 
L 218.458997 131.584082 
L 219.256889 133.55423 
L 220.084769 135.524378 
L 220.93096 137.494527 
L 221.780687 139.464675 
L 222.617043 141.434824 
L 223.422245 143.404972 
L 224.179063 145.375121 
L 224.872273 147.345269 
L 225.489973 149.315417 
L 226.024556 151.285566 
L 226.473247 153.255714 
L 226.838064 155.225863 
L 227.125231 157.196011 
L 227.344084 159.16616 
L 227.505615 161.136308 
L 227.620864 163.106456 
L 227.699361 165.076605 
L 227.747853 167.046753 
L 227.769473 169.016902 
L 227.763456 170.98705 
L 227.725426 172.957198 
L 227.648169 174.927347 
L 227.522775 176.897495 
L 227.339941 178.867644 
L 227.091254 180.837792 
L 226.770271 182.807941 
L 226.373267 184.778089 
L 225.899567 186.748237 
L 225.351482 188.718386 
L 224.733879 190.688534 
L 224.05351 192.658683 
L 223.318214 194.628831 
L 222.536129 196.59898 
L 221.715025 198.569128 
L 220.861839 200.539276 
L 219.982469 202.509425 
L 219.081811 204.479573 
L 218.164025 206.449722 
L 217.232942 208.41987 
L 216.292538 210.390018 
L 215.347388 212.360167 
L 214.403003 214.330315 
L 213.466009 216.300464 
L 212.544116 218.270612 
L 211.645887 220.240761 
L 210.780346 222.210909 
L 209.956454 224.181057 
z
" style="fill:#1f77b4;fill-opacity:0.3;"/>
   </g>
   <g id="PolyCollection_3">
    <path clip-path="url(#p97af2ca1b3)" d="M 301.875581 231.328469 
L 294.081341 231.328469 
L 293.557726 230.698939 
L 293.000244 230.069408 
L 292.409925 229.439878 
L 291.787836 228.810347 
L 291.135116 228.180817 
L 290.45303 227.551286 
L 289.743027 226.921756 
L 289.006811 226.292225 
L 288.246395 225.662695 
L 287.464141 225.033164 
L 286.662789 224.403634 
L 285.845483 223.774103 
L 285.015791 223.144573 
L 284.177727 222.515042 
L 283.335786 221.885512 
L 282.494977 221.255981 
L 281.660854 220.626451 
L 280.839528 219.99692 
L 280.037659 219.36739 
L 279.262398 218.737859 
L 278.521298 218.108329 
L 277.822166 217.478798 
L 277.172887 216.849268 
L 276.581218 216.219737 
L 276.054556 215.590207 
L 275.599721 214.960676 
L 275.222733 214.331146 
L 274.92862 213.701615 
L 274.721242 213.072085 
L 274.60315 212.442554 
L 274.575465 211.813024 
L 274.637788 211.183493 
L 274.78814 210.553963 
L 275.022933 209.924432 
L 275.336971 209.294902 
L 275.723503 208.665371 
L 276.174321 208.035841 
L 276.679916 207.40631 
L 277.229703 206.77678 
L 277.81231 206.147249 
L 278.415945 205.517719 
L 279.02882 204.888188 
L 279.639634 204.258658 
L 280.238091 203.629127 
L 280.815416 202.999597 
L 281.36485 202.370066 
L 281.882061 201.740536 
L 282.36544 201.111005 
L 282.816232 200.481475 
L 283.238463 199.851944 
L 283.638654 199.222414 
L 284.025316 198.592883 
L 284.408246 197.963353 
L 284.797692 197.333822 
L 285.203437 196.704292 
L 285.633913 196.074761 
L 286.09541 195.445231 
L 286.591491 194.8157 
L 287.122658 194.18617 
L 287.686318 193.556639 
L 288.27704 192.927109 
L 288.887084 192.297578 
L 289.507127 191.668048 
L 290.127097 191.038517 
L 290.737023 190.408987 
L 291.327805 189.779456 
L 291.891819 189.149926 
L 292.423307 188.520395 
L 292.91854 187.890865 
L 293.375751 187.261334 
L 293.794887 186.631804 
L 294.177244 186.002273 
L 294.52504 185.372743 
L 294.840998 184.743212 
L 295.127995 184.113682 
L 295.38879 183.484151 
L 295.625865 182.854621 
L 295.841353 182.22509 
L 296.037034 181.59556 
L 296.214384 180.966029 
L 296.374629 180.336499 
L 296.518798 179.706968 
L 296.647769 179.077438 
L 296.762286 178.447907 
L 296.862986 177.818377 
L 296.95042 177.188846 
L 297.025092 176.559316 
L 297.087518 175.929785 
L 297.138306 175.300255 
L 297.17824 174.670724 
L 297.208358 174.041194 
L 297.230009 173.411663 
L 297.244868 172.782133 
L 297.254905 172.152602 
L 297.262294 171.523072 
L 297.269289 170.893541 
L 297.278065 170.264011 
L 297.290544 169.63448 
L 297.308249 169.00495 
L 298.648673 169.00495 
L 298.648673 169.00495 
L 298.666378 169.63448 
L 298.678857 170.264011 
L 298.687632 170.893541 
L 298.694628 171.523072 
L 298.702017 172.152602 
L 298.712053 172.782133 
L 298.726913 173.411663 
L 298.748564 174.041194 
L 298.778681 174.670724 
L 298.818615 175.300255 
L 298.869404 175.929785 
L 298.93183 176.559316 
L 299.006502 177.188846 
L 299.093935 177.818377 
L 299.194636 178.447907 
L 299.309153 179.077438 
L 299.438123 179.706968 
L 299.582293 180.336499 
L 299.742537 180.966029 
L 299.919888 181.59556 
L 300.115569 182.22509 
L 300.331056 182.854621 
L 300.568131 183.484151 
L 300.828926 184.113682 
L 301.115923 184.743212 
L 301.431882 185.372743 
L 301.779678 186.002273 
L 302.162035 186.631804 
L 302.581171 187.261334 
L 303.038381 187.890865 
L 303.533614 188.520395 
L 304.065103 189.149926 
L 304.629116 189.779456 
L 305.219898 190.408987 
L 305.829824 191.038517 
L 306.449794 191.668048 
L 307.069837 192.297578 
L 307.679882 192.927109 
L 308.270603 193.556639 
L 308.834263 194.18617 
L 309.365431 194.8157 
L 309.861512 195.445231 
L 310.323009 196.074761 
L 310.753484 196.704292 
L 311.15923 197.333822 
L 311.548675 197.963353 
L 311.931605 198.592883 
L 312.318267 199.222414 
L 312.718459 199.851944 
L 313.140689 200.481475 
L 313.591481 201.111005 
L 314.074861 201.740536 
L 314.592072 202.370066 
L 315.141506 202.999597 
L 315.718831 203.629127 
L 316.317287 204.258658 
L 316.928102 204.888188 
L 317.540976 205.517719 
L 318.144611 206.147249 
L 318.727219 206.77678 
L 319.277006 207.40631 
L 319.782601 208.035841 
L 320.233419 208.665371 
L 320.619951 209.294902 
L 320.933989 209.924432 
L 321.168781 210.553963 
L 321.319134 211.183493 
L 321.381457 211.813024 
L 321.353771 212.442554 
L 321.235679 213.072085 
L 321.028302 213.701615 
L 320.734188 214.331146 
L 320.357201 214.960676 
L 319.902365 215.590207 
L 319.375704 216.219737 
L 318.784034 216.849268 
L 318.134756 217.478798 
L 317.435624 218.108329 
L 316.694523 218.737859 
L 315.919263 219.36739 
L 315.117394 219.99692 
L 314.296068 220.626451 
L 313.461944 221.255981 
L 312.621135 221.885512 
L 311.779194 222.515042 
L 310.94113 223.144573 
L 310.111438 223.774103 
L 309.294133 224.403634 
L 308.492781 225.033164 
L 307.710526 225.662695 
L 306.95011 226.292225 
L 306.213895 226.921756 
L 305.503892 227.551286 
L 304.821805 228.180817 
L 304.169086 228.810347 
L 303.546997 229.439878 
L 302.956677 230.069408 
L 302.399196 230.698939 
L 301.875581 231.328469 
z
" style="fill:#1f77b4;fill-opacity:0.3;"/>
   </g>
   <g id="matplotlib.axis_1">
    <g id="xtick_1">
     <g id="line2d_1">
      <defs>
       <path d="M 0 0 
L 0 3.5 
" id="m8840b7edb5" style="stroke:#000000;stroke-width:0.8;"/>
      </defs>
      <g>
       <use style="stroke:#000000;stroke-width:0.8;" x="110.754494" xlink:href="#m8840b7edb5" y="244.1"/>
      </g>
     </g>
     <g id="text_1">
      <!-- Our Method -->
      <g transform="translate(59.125392 264.397266)scale(0.175 -0.175)">
       <defs>
        <path d="M 39.40625 66.21875 
Q 28.65625 66.21875 22.328125 58.203125 
Q 16.015625 50.203125 16.015625 36.375 
Q 16.015625 22.609375 22.328125 14.59375 
Q 28.65625 6.59375 39.40625 6.59375 
Q 50.140625 6.59375 56.421875 14.59375 
Q 62.703125 22.609375 62.703125 36.375 
Q 62.703125 50.203125 56.421875 58.203125 
Q 50.140625 66.21875 39.40625 66.21875 
z
M 39.40625 74.21875 
Q 54.734375 74.21875 63.90625 63.9375 
Q 73.09375 53.65625 73.09375 36.375 
Q 73.09375 19.140625 63.90625 8.859375 
Q 54.734375 -1.421875 39.40625 -1.421875 
Q 24.03125 -1.421875 14.8125 8.828125 
Q 5.609375 19.09375 5.609375 36.375 
Q 5.609375 53.65625 14.8125 63.9375 
Q 24.03125 74.21875 39.40625 74.21875 
z
" id="DejaVuSans-79"/>
        <path d="M 8.5 21.578125 
L 8.5 54.6875 
L 17.484375 54.6875 
L 17.484375 21.921875 
Q 17.484375 14.15625 20.5 10.265625 
Q 23.53125 6.390625 29.59375 6.390625 
Q 36.859375 6.390625 41.078125 11.03125 
Q 45.3125 15.671875 45.3125 23.6875 
L 45.3125 54.6875 
L 54.296875 54.6875 
L 54.296875 0 
L 45.3125 0 
L 45.3125 8.40625 
Q 42.046875 3.421875 37.71875 1 
Q 33.40625 -1.421875 27.6875 -1.421875 
Q 18.265625 -1.421875 13.375 4.4375 
Q 8.5 10.296875 8.5 21.578125 
z
M 31.109375 56 
z
" id="DejaVuSans-117"/>
        <path d="M 41.109375 46.296875 
Q 39.59375 47.171875 37.8125 47.578125 
Q 36.03125 48 33.890625 48 
Q 26.265625 48 22.1875 43.046875 
Q 18.109375 38.09375 18.109375 28.8125 
L 18.109375 0 
L 9.078125 0 
L 9.078125 54.6875 
L 18.109375 54.6875 
L 18.109375 46.1875 
Q 20.953125 51.171875 25.484375 53.578125 
Q 30.03125 56 36.53125 56 
Q 37.453125 56 38.578125 55.875 
Q 39.703125 55.765625 41.0625 55.515625 
z
" id="DejaVuSans-114"/>
        <path id="DejaVuSans-32"/>
        <path d="M 9.8125 72.90625 
L 24.515625 72.90625 
L 43.109375 23.296875 
L 61.8125 72.90625 
L 76.515625 72.90625 
L 76.515625 0 
L 66.890625 0 
L 66.890625 64.015625 
L 48.09375 14.015625 
L 38.1875 14.015625 
L 19.390625 64.015625 
L 19.390625 0 
L 9.8125 0 
z
" id="DejaVuSans-77"/>
        <path d="M 56.203125 29.59375 
L 56.203125 25.203125 
L 14.890625 25.203125 
Q 15.484375 15.921875 20.484375 11.0625 
Q 25.484375 6.203125 34.421875 6.203125 
Q 39.59375 6.203125 44.453125 7.46875 
Q 49.3125 8.734375 54.109375 11.28125 
L 54.109375 2.78125 
Q 49.265625 0.734375 44.1875 -0.34375 
Q 39.109375 -1.421875 33.890625 -1.421875 
Q 20.796875 -1.421875 13.15625 6.1875 
Q 5.515625 13.8125 5.515625 26.8125 
Q 5.515625 40.234375 12.765625 48.109375 
Q 20.015625 56 32.328125 56 
Q 43.359375 56 49.78125 48.890625 
Q 56.203125 41.796875 56.203125 29.59375 
z
M 47.21875 32.234375 
Q 47.125 39.59375 43.09375 43.984375 
Q 39.0625 48.390625 32.421875 48.390625 
Q 24.90625 48.390625 20.390625 44.140625 
Q 15.875 39.890625 15.1875 32.171875 
z
" id="DejaVuSans-101"/>
        <path d="M 18.3125 70.21875 
L 18.3125 54.6875 
L 36.8125 54.6875 
L 36.8125 47.703125 
L 18.3125 47.703125 
L 18.3125 18.015625 
Q 18.3125 11.328125 20.140625 9.421875 
Q 21.96875 7.515625 27.59375 7.515625 
L 36.8125 7.515625 
L 36.8125 0 
L 27.59375 0 
Q 17.1875 0 13.234375 3.875 
Q 9.28125 7.765625 9.28125 18.015625 
L 9.28125 47.703125 
L 2.6875 47.703125 
L 2.6875 54.6875 
L 9.28125 54.6875 
L 9.28125 70.21875 
z
" id="DejaVuSans-116"/>
        <path d="M 54.890625 33.015625 
L 54.890625 0 
L 45.90625 0 
L 45.90625 32.71875 
Q 45.90625 40.484375 42.875 44.328125 
Q 39.84375 48.1875 33.796875 48.1875 
Q 26.515625 48.1875 22.3125 43.546875 
Q 18.109375 38.921875 18.109375 30.90625 
L 18.109375 0 
L 9.078125 0 
L 9.078125 75.984375 
L 18.109375 75.984375 
L 18.109375 46.1875 
Q 21.34375 51.125 25.703125 53.5625 
Q 30.078125 56 35.796875 56 
Q 45.21875 56 50.046875 50.171875 
Q 54.890625 44.34375 54.890625 33.015625 
z
" id="DejaVuSans-104"/>
        <path d="M 30.609375 48.390625 
Q 23.390625 48.390625 19.1875 42.75 
Q 14.984375 37.109375 14.984375 27.296875 
Q 14.984375 17.484375 19.15625 11.84375 
Q 23.34375 6.203125 30.609375 6.203125 
Q 37.796875 6.203125 41.984375 11.859375 
Q 46.1875 17.53125 46.1875 27.296875 
Q 46.1875 37.015625 41.984375 42.703125 
Q 37.796875 48.390625 30.609375 48.390625 
z
M 30.609375 56 
Q 42.328125 56 49.015625 48.375 
Q 55.71875 40.765625 55.71875 27.296875 
Q 55.71875 13.875 49.015625 6.21875 
Q 42.328125 -1.421875 30.609375 -1.421875 
Q 18.84375 -1.421875 12.171875 6.21875 
Q 5.515625 13.875 5.515625 27.296875 
Q 5.515625 40.765625 12.171875 48.375 
Q 18.84375 56 30.609375 56 
z
" id="DejaVuSans-111"/>
        <path d="M 45.40625 46.390625 
L 45.40625 75.984375 
L 54.390625 75.984375 
L 54.390625 0 
L 45.40625 0 
L 45.40625 8.203125 
Q 42.578125 3.328125 38.25 0.953125 
Q 33.9375 -1.421875 27.875 -1.421875 
Q 17.96875 -1.421875 11.734375 6.484375 
Q 5.515625 14.40625 5.515625 27.296875 
Q 5.515625 40.1875 11.734375 48.09375 
Q 17.96875 56 27.875 56 
Q 33.9375 56 38.25 53.625 
Q 42.578125 51.265625 45.40625 46.390625 
z
M 14.796875 27.296875 
Q 14.796875 17.390625 18.875 11.75 
Q 22.953125 6.109375 30.078125 6.109375 
Q 37.203125 6.109375 41.296875 11.75 
Q 45.40625 17.390625 45.40625 27.296875 
Q 45.40625 37.203125 41.296875 42.84375 
Q 37.203125 48.484375 30.078125 48.484375 
Q 22.953125 48.484375 18.875 42.84375 
Q 14.796875 37.203125 14.796875 27.296875 
z
" id="DejaVuSans-100"/>
       </defs>
       <use xlink:href="#DejaVuSans-79"/>
       <use x="78.710938" xlink:href="#DejaVuSans-117"/>
       <use x="142.089844" xlink:href="#DejaVuSans-114"/>
       <use x="183.203125" xlink:href="#DejaVuSans-32"/>
       <use x="214.990234" xlink:href="#DejaVuSans-77"/>
       <use x="301.269531" xlink:href="#DejaVuSans-101"/>
       <use x="362.792969" xlink:href="#DejaVuSans-116"/>
       <use x="402.001953" xlink:href="#DejaVuSans-104"/>
       <use x="465.380859" xlink:href="#DejaVuSans-111"/>
       <use x="526.5625" xlink:href="#DejaVuSans-100"/>
      </g>
     </g>
    </g>
    <g id="xtick_2">
     <g id="line2d_2">
      <g>
       <use style="stroke:#000000;stroke-width:0.8;" x="204.366477" xlink:href="#m8840b7edb5" y="244.1"/>
      </g>
     </g>
     <g id="text_2">
      <!-- Stein's -->
      <g transform="translate(175.058079 264.397266)scale(0.175 -0.175)">
       <defs>
        <path d="M 53.515625 70.515625 
L 53.515625 60.890625 
Q 47.90625 63.578125 42.921875 64.890625 
Q 37.9375 66.21875 33.296875 66.21875 
Q 25.25 66.21875 20.875 63.09375 
Q 16.5 59.96875 16.5 54.203125 
Q 16.5 49.359375 19.40625 46.890625 
Q 22.3125 44.4375 30.421875 42.921875 
L 36.375 41.703125 
Q 47.40625 39.59375 52.65625 34.296875 
Q 57.90625 29 57.90625 20.125 
Q 57.90625 9.515625 50.796875 4.046875 
Q 43.703125 -1.421875 29.984375 -1.421875 
Q 24.8125 -1.421875 18.96875 -0.25 
Q 13.140625 0.921875 6.890625 3.21875 
L 6.890625 13.375 
Q 12.890625 10.015625 18.65625 8.296875 
Q 24.421875 6.59375 29.984375 6.59375 
Q 38.421875 6.59375 43.015625 9.90625 
Q 47.609375 13.234375 47.609375 19.390625 
Q 47.609375 24.75 44.3125 27.78125 
Q 41.015625 30.8125 33.5 32.328125 
L 27.484375 33.5 
Q 16.453125 35.6875 11.515625 40.375 
Q 6.59375 45.0625 6.59375 53.421875 
Q 6.59375 63.09375 13.40625 68.65625 
Q 20.21875 74.21875 32.171875 74.21875 
Q 37.3125 74.21875 42.625 73.28125 
Q 47.953125 72.359375 53.515625 70.515625 
z
" id="DejaVuSans-83"/>
        <path d="M 9.421875 54.6875 
L 18.40625 54.6875 
L 18.40625 0 
L 9.421875 0 
z
M 9.421875 75.984375 
L 18.40625 75.984375 
L 18.40625 64.59375 
L 9.421875 64.59375 
z
" id="DejaVuSans-105"/>
        <path d="M 54.890625 33.015625 
L 54.890625 0 
L 45.90625 0 
L 45.90625 32.71875 
Q 45.90625 40.484375 42.875 44.328125 
Q 39.84375 48.1875 33.796875 48.1875 
Q 26.515625 48.1875 22.3125 43.546875 
Q 18.109375 38.921875 18.109375 30.90625 
L 18.109375 0 
L 9.078125 0 
L 9.078125 54.6875 
L 18.109375 54.6875 
L 18.109375 46.1875 
Q 21.34375 51.125 25.703125 53.5625 
Q 30.078125 56 35.796875 56 
Q 45.21875 56 50.046875 50.171875 
Q 54.890625 44.34375 54.890625 33.015625 
z
" id="DejaVuSans-110"/>
        <path d="M 17.921875 72.90625 
L 17.921875 45.796875 
L 9.625 45.796875 
L 9.625 72.90625 
z
" id="DejaVuSans-39"/>
        <path d="M 44.28125 53.078125 
L 44.28125 44.578125 
Q 40.484375 46.53125 36.375 47.5 
Q 32.28125 48.484375 27.875 48.484375 
Q 21.1875 48.484375 17.84375 46.4375 
Q 14.5 44.390625 14.5 40.28125 
Q 14.5 37.15625 16.890625 35.375 
Q 19.28125 33.59375 26.515625 31.984375 
L 29.59375 31.296875 
Q 39.15625 29.25 43.1875 25.515625 
Q 47.21875 21.78125 47.21875 15.09375 
Q 47.21875 7.46875 41.1875 3.015625 
Q 35.15625 -1.421875 24.609375 -1.421875 
Q 20.21875 -1.421875 15.453125 -0.5625 
Q 10.6875 0.296875 5.421875 2 
L 5.421875 11.28125 
Q 10.40625 8.6875 15.234375 7.390625 
Q 20.0625 6.109375 24.8125 6.109375 
Q 31.15625 6.109375 34.5625 8.28125 
Q 37.984375 10.453125 37.984375 14.40625 
Q 37.984375 18.0625 35.515625 20.015625 
Q 33.0625 21.96875 24.703125 23.78125 
L 21.578125 24.515625 
Q 13.234375 26.265625 9.515625 29.90625 
Q 5.8125 33.546875 5.8125 39.890625 
Q 5.8125 47.609375 11.28125 51.796875 
Q 16.75 56 26.8125 56 
Q 31.78125 56 36.171875 55.265625 
Q 40.578125 54.546875 44.28125 53.078125 
z
" id="DejaVuSans-115"/>
       </defs>
       <use xlink:href="#DejaVuSans-83"/>
       <use x="63.476562" xlink:href="#DejaVuSans-116"/>
       <use x="102.685547" xlink:href="#DejaVuSans-101"/>
       <use x="164.208984" xlink:href="#DejaVuSans-105"/>
       <use x="191.992188" xlink:href="#DejaVuSans-110"/>
       <use x="255.371094" xlink:href="#DejaVuSans-39"/>
       <use x="282.861328" xlink:href="#DejaVuSans-115"/>
      </g>
     </g>
    </g>
    <g id="xtick_3">
     <g id="line2d_3">
      <g>
       <use style="stroke:#000000;stroke-width:0.8;" x="297.978461" xlink:href="#m8840b7edb5" y="244.1"/>
      </g>
     </g>
     <g id="text_3">
      <!-- Entry-wise -->
      <g transform="translate(252.165375 264.397266)scale(0.175 -0.175)">
       <defs>
        <path d="M 9.8125 72.90625 
L 55.90625 72.90625 
L 55.90625 64.59375 
L 19.671875 64.59375 
L 19.671875 43.015625 
L 54.390625 43.015625 
L 54.390625 34.71875 
L 19.671875 34.71875 
L 19.671875 8.296875 
L 56.78125 8.296875 
L 56.78125 0 
L 9.8125 0 
z
" id="DejaVuSans-69"/>
        <path d="M 32.171875 -5.078125 
Q 28.375 -14.84375 24.75 -17.8125 
Q 21.140625 -20.796875 15.09375 -20.796875 
L 7.90625 -20.796875 
L 7.90625 -13.28125 
L 13.1875 -13.28125 
Q 16.890625 -13.28125 18.9375 -11.515625 
Q 21 -9.765625 23.484375 -3.21875 
L 25.09375 0.875 
L 2.984375 54.6875 
L 12.5 54.6875 
L 29.59375 11.921875 
L 46.6875 54.6875 
L 56.203125 54.6875 
z
" id="DejaVuSans-121"/>
        <path d="M 4.890625 31.390625 
L 31.203125 31.390625 
L 31.203125 23.390625 
L 4.890625 23.390625 
z
" id="DejaVuSans-45"/>
        <path d="M 4.203125 54.6875 
L 13.1875 54.6875 
L 24.421875 12.015625 
L 35.59375 54.6875 
L 46.1875 54.6875 
L 57.421875 12.015625 
L 68.609375 54.6875 
L 77.59375 54.6875 
L 63.28125 0 
L 52.6875 0 
L 40.921875 44.828125 
L 29.109375 0 
L 18.5 0 
z
" id="DejaVuSans-119"/>
       </defs>
       <use xlink:href="#DejaVuSans-69"/>
       <use x="63.183594" xlink:href="#DejaVuSans-110"/>
       <use x="126.5625" xlink:href="#DejaVuSans-116"/>
       <use x="165.771484" xlink:href="#DejaVuSans-114"/>
       <use x="206.884766" xlink:href="#DejaVuSans-121"/>
       <use x="264.314453" xlink:href="#DejaVuSans-45"/>
       <use x="300.398438" xlink:href="#DejaVuSans-119"/>
       <use x="382.185547" xlink:href="#DejaVuSans-105"/>
       <use x="409.96875" xlink:href="#DejaVuSans-115"/>
       <use x="462.068359" xlink:href="#DejaVuSans-101"/>
      </g>
     </g>
    </g>
   </g>
   <g id="matplotlib.axis_2">
    <g id="ytick_1">
     <g id="line2d_4">
      <defs>
       <path d="M 0 0 
L -3.5 0 
" id="md2e687e387" style="stroke:#000000;stroke-width:0.8;"/>
      </defs>
      <g>
       <use style="stroke:#000000;stroke-width:0.8;" x="75.65" xlink:href="#md2e687e387" y="237.465337"/>
      </g>
     </g>
     <g id="text_4">
      <!-- 0.0 -->
      <g transform="translate(40.819531 244.113969)scale(0.175 -0.175)">
       <defs>
        <path d="M 31.78125 66.40625 
Q 24.171875 66.40625 20.328125 58.90625 
Q 16.5 51.421875 16.5 36.375 
Q 16.5 21.390625 20.328125 13.890625 
Q 24.171875 6.390625 31.78125 6.390625 
Q 39.453125 6.390625 43.28125 13.890625 
Q 47.125 21.390625 47.125 36.375 
Q 47.125 51.421875 43.28125 58.90625 
Q 39.453125 66.40625 31.78125 66.40625 
z
M 31.78125 74.21875 
Q 44.046875 74.21875 50.515625 64.515625 
Q 56.984375 54.828125 56.984375 36.375 
Q 56.984375 17.96875 50.515625 8.265625 
Q 44.046875 -1.421875 31.78125 -1.421875 
Q 19.53125 -1.421875 13.0625 8.265625 
Q 6.59375 17.96875 6.59375 36.375 
Q 6.59375 54.828125 13.0625 64.515625 
Q 19.53125 74.21875 31.78125 74.21875 
z
" id="DejaVuSans-48"/>
        <path d="M 10.6875 12.40625 
L 21 12.40625 
L 21 0 
L 10.6875 0 
z
" id="DejaVuSans-46"/>
       </defs>
       <use xlink:href="#DejaVuSans-48"/>
       <use x="63.623047" xlink:href="#DejaVuSans-46"/>
       <use x="95.410156" xlink:href="#DejaVuSans-48"/>
      </g>
     </g>
    </g>
    <g id="ytick_2">
     <g id="line2d_5">
      <g>
       <use style="stroke:#000000;stroke-width:0.8;" x="75.65" xlink:href="#md2e687e387" y="188.346504"/>
      </g>
     </g>
     <g id="text_5">
      <!-- 0.5 -->
      <g transform="translate(40.819531 194.995137)scale(0.175 -0.175)">
       <defs>
        <path d="M 10.796875 72.90625 
L 49.515625 72.90625 
L 49.515625 64.59375 
L 19.828125 64.59375 
L 19.828125 46.734375 
Q 21.96875 47.46875 24.109375 47.828125 
Q 26.265625 48.1875 28.421875 48.1875 
Q 40.625 48.1875 47.75 41.5 
Q 54.890625 34.8125 54.890625 23.390625 
Q 54.890625 11.625 47.5625 5.09375 
Q 40.234375 -1.421875 26.90625 -1.421875 
Q 22.3125 -1.421875 17.546875 -0.640625 
Q 12.796875 0.140625 7.71875 1.703125 
L 7.71875 11.625 
Q 12.109375 9.234375 16.796875 8.0625 
Q 21.484375 6.890625 26.703125 6.890625 
Q 35.15625 6.890625 40.078125 11.328125 
Q 45.015625 15.765625 45.015625 23.390625 
Q 45.015625 31 40.078125 35.4375 
Q 35.15625 39.890625 26.703125 39.890625 
Q 22.75 39.890625 18.8125 39.015625 
Q 14.890625 38.140625 10.796875 36.28125 
z
" id="DejaVuSans-53"/>
       </defs>
       <use xlink:href="#DejaVuSans-48"/>
       <use x="63.623047" xlink:href="#DejaVuSans-46"/>
       <use x="95.410156" xlink:href="#DejaVuSans-53"/>
      </g>
     </g>
    </g>
    <g id="ytick_3">
     <g id="line2d_6">
      <g>
       <use style="stroke:#000000;stroke-width:0.8;" x="75.65" xlink:href="#md2e687e387" y="139.227671"/>
      </g>
     </g>
     <g id="text_6">
      <!-- 1.0 -->
      <g transform="translate(40.819531 145.876304)scale(0.175 -0.175)">
       <defs>
        <path d="M 12.40625 8.296875 
L 28.515625 8.296875 
L 28.515625 63.921875 
L 10.984375 60.40625 
L 10.984375 69.390625 
L 28.421875 72.90625 
L 38.28125 72.90625 
L 38.28125 8.296875 
L 54.390625 8.296875 
L 54.390625 0 
L 12.40625 0 
z
" id="DejaVuSans-49"/>
       </defs>
       <use xlink:href="#DejaVuSans-49"/>
       <use x="63.623047" xlink:href="#DejaVuSans-46"/>
       <use x="95.410156" xlink:href="#DejaVuSans-48"/>
      </g>
     </g>
    </g>
    <g id="ytick_4">
     <g id="line2d_7">
      <g>
       <use style="stroke:#000000;stroke-width:0.8;" x="75.65" xlink:href="#md2e687e387" y="90.108838"/>
      </g>
     </g>
     <g id="text_7">
      <!-- 1.5 -->
      <g transform="translate(40.819531 96.757471)scale(0.175 -0.175)">
       <use xlink:href="#DejaVuSans-49"/>
       <use x="63.623047" xlink:href="#DejaVuSans-46"/>
       <use x="95.410156" xlink:href="#DejaVuSans-53"/>
      </g>
     </g>
    </g>
    <g id="ytick_5">
     <g id="line2d_8">
      <g>
       <use style="stroke:#000000;stroke-width:0.8;" x="75.65" xlink:href="#md2e687e387" y="40.990006"/>
      </g>
     </g>
     <g id="text_8">
      <!-- 2.0 -->
      <g transform="translate(40.819531 47.638638)scale(0.175 -0.175)">
       <defs>
        <path d="M 19.1875 8.296875 
L 53.609375 8.296875 
L 53.609375 0 
L 7.328125 0 
L 7.328125 8.296875 
Q 12.9375 14.109375 22.625 23.890625 
Q 32.328125 33.6875 34.8125 36.53125 
Q 39.546875 41.84375 41.421875 45.53125 
Q 43.3125 49.21875 43.3125 52.78125 
Q 43.3125 58.59375 39.234375 62.25 
Q 35.15625 65.921875 28.609375 65.921875 
Q 23.96875 65.921875 18.8125 64.3125 
Q 13.671875 62.703125 7.8125 59.421875 
L 7.8125 69.390625 
Q 13.765625 71.78125 18.9375 73 
Q 24.125 74.21875 28.421875 74.21875 
Q 39.75 74.21875 46.484375 68.546875 
Q 53.21875 62.890625 53.21875 53.421875 
Q 53.21875 48.921875 51.53125 44.890625 
Q 49.859375 40.875 45.40625 35.40625 
Q 44.1875 33.984375 37.640625 27.21875 
Q 31.109375 20.453125 19.1875 8.296875 
z
" id="DejaVuSans-50"/>
       </defs>
       <use xlink:href="#DejaVuSans-50"/>
       <use x="63.623047" xlink:href="#DejaVuSans-46"/>
       <use x="95.410156" xlink:href="#DejaVuSans-48"/>
      </g>
     </g>
    </g>
    <g id="text_9">
     <!-- Estimation Error -->
     <g transform="translate(33.180078 202.198633)rotate(-90)scale(0.175 -0.175)">
      <defs>
       <path d="M 52 44.1875 
Q 55.375 50.25 60.0625 53.125 
Q 64.75 56 71.09375 56 
Q 79.640625 56 84.28125 50.015625 
Q 88.921875 44.046875 88.921875 33.015625 
L 88.921875 0 
L 79.890625 0 
L 79.890625 32.71875 
Q 79.890625 40.578125 77.09375 44.375 
Q 74.3125 48.1875 68.609375 48.1875 
Q 61.625 48.1875 57.5625 43.546875 
Q 53.515625 38.921875 53.515625 30.90625 
L 53.515625 0 
L 44.484375 0 
L 44.484375 32.71875 
Q 44.484375 40.625 41.703125 44.40625 
Q 38.921875 48.1875 33.109375 48.1875 
Q 26.21875 48.1875 22.15625 43.53125 
Q 18.109375 38.875 18.109375 30.90625 
L 18.109375 0 
L 9.078125 0 
L 9.078125 54.6875 
L 18.109375 54.6875 
L 18.109375 46.1875 
Q 21.1875 51.21875 25.484375 53.609375 
Q 29.78125 56 35.6875 56 
Q 41.65625 56 45.828125 52.96875 
Q 50 49.953125 52 44.1875 
z
" id="DejaVuSans-109"/>
       <path d="M 34.28125 27.484375 
Q 23.390625 27.484375 19.1875 25 
Q 14.984375 22.515625 14.984375 16.5 
Q 14.984375 11.71875 18.140625 8.90625 
Q 21.296875 6.109375 26.703125 6.109375 
Q 34.1875 6.109375 38.703125 11.40625 
Q 43.21875 16.703125 43.21875 25.484375 
L 43.21875 27.484375 
z
M 52.203125 31.203125 
L 52.203125 0 
L 43.21875 0 
L 43.21875 8.296875 
Q 40.140625 3.328125 35.546875 0.953125 
Q 30.953125 -1.421875 24.3125 -1.421875 
Q 15.921875 -1.421875 10.953125 3.296875 
Q 6 8.015625 6 15.921875 
Q 6 25.140625 12.171875 29.828125 
Q 18.359375 34.515625 30.609375 34.515625 
L 43.21875 34.515625 
L 43.21875 35.40625 
Q 43.21875 41.609375 39.140625 45 
Q 35.0625 48.390625 27.6875 48.390625 
Q 23 48.390625 18.546875 47.265625 
Q 14.109375 46.140625 10.015625 43.890625 
L 10.015625 52.203125 
Q 14.9375 54.109375 19.578125 55.046875 
Q 24.21875 56 28.609375 56 
Q 40.484375 56 46.34375 49.84375 
Q 52.203125 43.703125 52.203125 31.203125 
z
" id="DejaVuSans-97"/>
      </defs>
      <use xlink:href="#DejaVuSans-69"/>
      <use x="63.183594" xlink:href="#DejaVuSans-115"/>
      <use x="115.283203" xlink:href="#DejaVuSans-116"/>
      <use x="154.492188" xlink:href="#DejaVuSans-105"/>
      <use x="182.275391" xlink:href="#DejaVuSans-109"/>
      <use x="279.6875" xlink:href="#DejaVuSans-97"/>
      <use x="340.966797" xlink:href="#DejaVuSans-116"/>
      <use x="380.175781" xlink:href="#DejaVuSans-105"/>
      <use x="407.958984" xlink:href="#DejaVuSans-111"/>
      <use x="469.140625" xlink:href="#DejaVuSans-110"/>
      <use x="532.519531" xlink:href="#DejaVuSans-32"/>
      <use x="564.306641" xlink:href="#DejaVuSans-69"/>
      <use x="627.490234" xlink:href="#DejaVuSans-114"/>
      <use x="666.853516" xlink:href="#DejaVuSans-114"/>
      <use x="705.716797" xlink:href="#DejaVuSans-111"/>
      <use x="766.898438" xlink:href="#DejaVuSans-114"/>
     </g>
    </g>
   </g>
   <g id="LineCollection_1">
    <path clip-path="url(#p97af2ca1b3)" d="M 99.052996 183.495529 
L 122.455992 183.495529 
" style="fill:none;stroke:#1f77b4;stroke-width:1.5;"/>
    <path clip-path="url(#p97af2ca1b3)" d="M 192.664979 29.136364 
L 216.067975 29.136364 
" style="fill:none;stroke:#1f77b4;stroke-width:1.5;"/>
    <path clip-path="url(#p97af2ca1b3)" d="M 286.276963 169.00495 
L 309.679959 169.00495 
" style="fill:none;stroke:#1f77b4;stroke-width:1.5;"/>
   </g>
   <g id="LineCollection_2">
    <path clip-path="url(#p97af2ca1b3)" d="M 99.052996 233.863636 
L 122.455992 233.863636 
" style="fill:none;stroke:#1f77b4;stroke-width:1.5;"/>
    <path clip-path="url(#p97af2ca1b3)" d="M 192.664979 224.181057 
L 216.067975 224.181057 
" style="fill:none;stroke:#1f77b4;stroke-width:1.5;"/>
    <path clip-path="url(#p97af2ca1b3)" d="M 286.276963 231.328469 
L 309.679959 231.328469 
" style="fill:none;stroke:#1f77b4;stroke-width:1.5;"/>
   </g>
   <g id="LineCollection_3">
    <path clip-path="url(#p97af2ca1b3)" d="M 110.754494 233.863636 
L 110.754494 183.495529 
" style="fill:none;stroke:#1f77b4;stroke-width:1.5;"/>
    <path clip-path="url(#p97af2ca1b3)" d="M 204.366477 224.181057 
L 204.366477 29.136364 
" style="fill:none;stroke:#1f77b4;stroke-width:1.5;"/>
    <path clip-path="url(#p97af2ca1b3)" d="M 297.978461 231.328469 
L 297.978461 169.00495 
" style="fill:none;stroke:#1f77b4;stroke-width:1.5;"/>
   </g>
   <g id="patch_3">
    <path d="M 75.65 244.1 
L 75.65 18.9 
" style="fill:none;stroke:#000000;stroke-linecap:square;stroke-linejoin:miter;stroke-width:0.8;"/>
   </g>
   <g id="patch_4">
    <path d="M 333.082955 244.1 
L 333.082955 18.9 
" style="fill:none;stroke:#000000;stroke-linecap:square;stroke-linejoin:miter;stroke-width:0.8;"/>
   </g>
   <g id="patch_5">
    <path d="M 75.65 244.1 
L 333.082955 244.1 
" style="fill:none;stroke:#000000;stroke-linecap:square;stroke-linejoin:miter;stroke-width:0.8;"/>
   </g>
   <g id="patch_6">
    <path d="M 75.65 18.9 
L 333.082955 18.9 
" style="fill:none;stroke:#000000;stroke-linecap:square;stroke-linejoin:miter;stroke-width:0.8;"/>
   </g>
  </g>
 </g>
 <defs>
  <clipPath id="p97af2ca1b3">
   <rect height="225.2" width="257.432955" x="75.65" y="18.9"/>
  </clipPath>
 </defs>
</svg>
