<?xml version="1.0" encoding="utf-8" standalone="no"?>
<!DOCTYPE svg PUBLIC "-//W3C//DTD SVG 1.1//EN"
  "http://www.w3.org/Graphics/SVG/1.1/DTD/svg11.dtd">
<!-- Created with matplotlib (https://matplotlib.org/) -->
<svg height="288pt" version="1.1" viewBox="0 0 360 288" width="360pt" xmlns="http://www.w3.org/2000/svg" xmlns:xlink="http://www.w3.org/1999/xlink">
 <metadata>
  <rdf:RDF xmlns:cc="http://creativecommons.org/ns#" xmlns:dc="http://purl.org/dc/elements/1.1/" xmlns:rdf="http://www.w3.org/1999/02/22-rdf-syntax-ns#">
   <cc:Work>
    <dc:type rdf:resource="http://purl.org/dc/dcmitype/StillImage"/>
    <dc:date>2022-09-25T00:48:12.073054</dc:date>
    <dc:format>image/svg+xml</dc:format>
    <dc:creator>
     <cc:Agent>
      <dc:title>Matplotlib v3.3.4, https://matplotlib.org/</dc:title>
     </cc:Agent>
    </dc:creator>
   </cc:Work>
  </rdf:RDF>
 </metadata>
 <defs>
  <style type="text/css">*{stroke-linecap:butt;stroke-linejoin:round;}</style>
 </defs>
 <g id="figure_1">
  <g id="patch_1">
   <path d="M 0 288 
L 360 288 
L 360 0 
L 0 0 
z
" style="fill:none;"/>
  </g>
  <g id="axes_1">
   <g id="patch_2">
    <path d="M 70.15 244.1 
L 333.082955 244.1 
L 333.082955 18.9 
L 70.15 18.9 
z
" style="fill:#ffffff;"/>
   </g>
   <g id="PolyCollection_1">
    <path clip-path="url(#pd2fc51c8f1)" d="M 109.684979 233.863636 
L 102.324009 233.863636 
L 101.835664 233.303507 
L 101.315031 232.743377 
L 100.758984 232.183247 
L 100.163364 231.623117 
L 99.52348 231.062987 
L 98.834826 230.502857 
L 98.093911 229.942727 
L 97.299104 229.382598 
L 96.451343 228.822468 
L 95.554631 228.262338 
L 94.616198 227.702208 
L 93.646315 227.142078 
L 92.657758 226.581948 
L 91.664982 226.021818 
L 90.683109 225.461689 
L 89.726849 224.901559 
L 88.809483 224.341429 
L 87.942032 223.781299 
L 87.132696 223.221169 
L 86.386624 222.661039 
L 85.706022 222.10091 
L 85.09058 221.54078 
L 84.538132 220.98065 
L 84.045479 220.42052 
L 83.609247 219.86039 
L 83.226696 219.30026 
L 82.89637 218.74013 
L 82.618538 218.180001 
L 82.395378 217.619871 
L 82.230914 217.059741 
L 82.130729 216.499611 
L 82.101498 215.939481 
L 82.150399 215.379351 
L 82.284468 214.819221 
L 82.509937 214.259092 
L 82.831603 213.698962 
L 83.252249 213.138832 
L 83.772144 212.578702 
L 84.388632 212.018572 
L 85.095847 211.458442 
L 85.884568 210.898312 
L 86.742251 210.338183 
L 87.65328 209.778053 
L 88.599456 209.217923 
L 89.560723 208.657793 
L 90.516118 208.097663 
L 91.444902 207.537533 
L 92.32777 206.977404 
L 93.148063 206.417274 
L 93.892861 205.857144 
L 94.553853 205.297014 
L 95.127885 204.736884 
L 95.617141 204.176754 
L 96.028912 203.616624 
L 96.374971 203.056495 
L 96.670602 202.496365 
L 96.933367 201.936235 
L 97.18171 201.376105 
L 97.433525 200.815975 
L 97.704807 200.255845 
L 98.008512 199.695715 
L 98.353706 199.135586 
L 98.745079 198.575456 
L 99.182848 198.015326 
L 99.663027 197.455196 
L 100.178041 196.895066 
L 100.71757 196.334936 
L 101.269553 195.774807 
L 101.82124 195.214677 
L 102.360181 194.654547 
L 102.875078 194.094417 
L 103.356439 193.534287 
L 103.797 192.974157 
L 104.191909 192.414027 
L 104.538688 191.853898 
L 104.837023 191.293768 
L 105.088419 190.733638 
L 105.295771 190.173508 
L 105.462919 189.613378 
L 105.59421 189.053248 
L 105.69412 188.493118 
L 105.766947 187.932989 
L 105.816597 187.372859 
L 105.846456 186.812729 
L 105.859366 186.252599 
L 105.85766 185.692469 
L 105.843277 185.132339 
L 105.817904 184.57221 
L 105.783148 184.01208 
L 105.740692 183.45195 
L 105.692427 182.89182 
L 105.640525 182.33169 
L 105.587456 181.77156 
L 105.535923 181.21143 
L 105.488732 180.651301 
L 105.448611 180.091171 
L 105.417992 179.531041 
L 105.398802 178.970911 
L 105.392284 178.410781 
L 106.616704 178.410781 
L 106.616704 178.410781 
L 106.610185 178.970911 
L 106.590996 179.531041 
L 106.560377 180.091171 
L 106.520256 180.651301 
L 106.473065 181.21143 
L 106.421532 181.77156 
L 106.368463 182.33169 
L 106.316561 182.89182 
L 106.268295 183.45195 
L 106.225839 184.01208 
L 106.191084 184.57221 
L 106.165711 185.132339 
L 106.151327 185.692469 
L 106.149622 186.252599 
L 106.162531 186.812729 
L 106.192391 187.372859 
L 106.24204 187.932989 
L 106.314868 188.493118 
L 106.414778 189.053248 
L 106.546069 189.613378 
L 106.713216 190.173508 
L 106.920568 190.733638 
L 107.171964 191.293768 
L 107.4703 191.853898 
L 107.817079 192.414027 
L 108.211987 192.974157 
L 108.652549 193.534287 
L 109.13391 194.094417 
L 109.648806 194.654547 
L 110.187747 195.214677 
L 110.739435 195.774807 
L 111.291418 196.334936 
L 111.830946 196.895066 
L 112.34596 197.455196 
L 112.82614 198.015326 
L 113.263908 198.575456 
L 113.655282 199.135586 
L 114.000476 199.695715 
L 114.304181 200.255845 
L 114.575463 200.815975 
L 114.827277 201.376105 
L 115.075621 201.936235 
L 115.338386 202.496365 
L 115.634017 203.056495 
L 115.980075 203.616624 
L 116.391846 204.176754 
L 116.881103 204.736884 
L 117.455135 205.297014 
L 118.116126 205.857144 
L 118.860925 206.417274 
L 119.681218 206.977404 
L 120.564085 207.537533 
L 121.492869 208.097663 
L 122.448265 208.657793 
L 123.409531 209.217923 
L 124.355707 209.778053 
L 125.266737 210.338183 
L 126.124419 210.898312 
L 126.91314 211.458442 
L 127.620356 212.018572 
L 128.236844 212.578702 
L 128.756738 213.138832 
L 129.177384 213.698962 
L 129.49905 214.259092 
L 129.72452 214.819221 
L 129.858589 215.379351 
L 129.90749 215.939481 
L 129.878258 216.499611 
L 129.778074 217.059741 
L 129.61361 217.619871 
L 129.390449 218.180001 
L 129.112617 218.74013 
L 128.782292 219.30026 
L 128.399741 219.86039 
L 127.963509 220.42052 
L 127.470855 220.98065 
L 126.918408 221.54078 
L 126.302965 222.10091 
L 125.622364 222.661039 
L 124.876291 223.221169 
L 124.066956 223.781299 
L 123.199505 224.341429 
L 122.282139 224.901559 
L 121.325879 225.461689 
L 120.344006 226.021818 
L 119.35123 226.581948 
L 118.362673 227.142078 
L 117.39279 227.702208 
L 116.454357 228.262338 
L 115.557645 228.822468 
L 114.709884 229.382598 
L 113.915076 229.942727 
L 113.174162 230.502857 
L 112.485508 231.062987 
L 111.845624 231.623117 
L 111.250003 232.183247 
L 110.693957 232.743377 
L 110.173323 233.303507 
L 109.684979 233.863636 
z
" style="fill:#1f77b4;fill-opacity:0.3;"/>
   </g>
   <g id="PolyCollection_2">
    <path clip-path="url(#pd2fc51c8f1)" d="M 207.462911 186.578405 
L 195.770043 186.578405 
L 195.113054 184.988081 
L 194.445885 183.397757 
L 193.776325 181.807434 
L 193.111745 180.21711 
L 192.45868 178.626786 
L 191.82246 177.036463 
L 191.206892 175.446139 
L 190.614042 173.855816 
L 190.04413 172.265492 
L 189.495541 170.675168 
L 188.964969 169.084845 
L 188.447687 167.494521 
L 187.93792 165.904197 
L 187.429305 164.313874 
L 186.915404 162.72355 
L 186.390235 161.133226 
L 185.848786 159.542903 
L 185.287473 157.952579 
L 184.70452 156.362255 
L 184.100225 154.771932 
L 183.477115 153.181608 
L 182.839964 151.591284 
L 182.195691 150.000961 
L 181.553139 148.410637 
L 180.922757 146.820314 
L 180.316188 145.22999 
L 179.745797 143.639666 
L 179.224158 142.049343 
L 178.763504 140.459019 
L 178.375188 138.868695 
L 178.069151 137.278372 
L 177.853451 135.688048 
L 177.733844 134.097724 
L 177.713481 132.507401 
L 177.792721 130.917077 
L 177.969079 129.326753 
L 178.237349 127.73643 
L 178.589867 126.146106 
L 179.016935 124.555782 
L 179.507352 122.965459 
L 180.049044 121.375135 
L 180.629711 119.784812 
L 181.237471 118.194488 
L 181.861419 116.604164 
L 182.492081 115.013841 
L 183.121716 113.423517 
L 183.744455 111.833193 
L 184.356285 110.24287 
L 184.954892 108.652546 
L 185.539408 107.062222 
L 186.110085 105.471899 
L 186.667964 103.881575 
L 187.214556 102.291251 
L 187.751577 100.700928 
L 188.280744 99.110604 
L 188.803643 97.52028 
L 189.321654 95.929957 
L 189.835918 94.339633 
L 190.34733 92.74931 
L 190.856528 91.158986 
L 191.363888 89.568662 
L 191.869492 87.978339 
L 192.373098 86.388015 
L 192.874097 84.797691 
L 193.37149 83.207368 
L 193.863889 81.617044 
L 194.349543 80.02672 
L 194.826413 78.436397 
L 195.292265 76.846073 
L 195.744798 75.255749 
L 196.181773 73.665426 
L 196.60113 72.075102 
L 197.001079 70.484778 
L 197.380157 68.894455 
L 197.737239 67.304131 
L 198.071511 65.713808 
L 198.382413 64.123484 
L 198.669567 62.53316 
L 198.932715 60.942837 
L 199.171666 59.352513 
L 199.38628 57.762189 
L 199.576496 56.171866 
L 199.742386 54.581542 
L 199.884243 52.991218 
L 200.002687 51.400895 
L 200.098757 49.810571 
L 200.173993 48.220247 
L 200.230473 46.629924 
L 200.270805 45.0396 
L 200.298063 43.449276 
L 200.315674 41.858953 
L 200.32726 40.268629 
L 200.336454 38.678306 
L 200.346701 37.087982 
L 200.361068 35.497658 
L 200.382081 33.907335 
L 200.411601 32.317011 
L 200.450744 30.726687 
L 200.499869 29.136364 
L 202.733085 29.136364 
L 202.733085 29.136364 
L 202.78221 30.726687 
L 202.821354 32.317011 
L 202.850873 33.907335 
L 202.871887 35.497658 
L 202.886254 37.087982 
L 202.896501 38.678306 
L 202.905695 40.268629 
L 202.917281 41.858953 
L 202.934892 43.449276 
L 202.96215 45.0396 
L 203.002482 46.629924 
L 203.058962 48.220247 
L 203.134198 49.810571 
L 203.230268 51.400895 
L 203.348711 52.991218 
L 203.490569 54.581542 
L 203.656458 56.171866 
L 203.846674 57.762189 
L 204.061289 59.352513 
L 204.300239 60.942837 
L 204.563387 62.53316 
L 204.850542 64.123484 
L 205.161443 65.713808 
L 205.495715 67.304131 
L 205.852798 68.894455 
L 206.231876 70.484778 
L 206.631824 72.075102 
L 207.051181 73.665426 
L 207.488156 75.255749 
L 207.94069 76.846073 
L 208.406542 78.436397 
L 208.883411 80.02672 
L 209.369066 81.617044 
L 209.861465 83.207368 
L 210.358858 84.797691 
L 210.859857 86.388015 
L 211.363462 87.978339 
L 211.869067 89.568662 
L 212.376427 91.158986 
L 212.885625 92.74931 
L 213.397036 94.339633 
L 213.911301 95.929957 
L 214.429312 97.52028 
L 214.952211 99.110604 
L 215.481378 100.700928 
L 216.018398 102.291251 
L 216.564991 103.881575 
L 217.12287 105.471899 
L 217.693547 107.062222 
L 218.278062 108.652546 
L 218.87667 110.24287 
L 219.4885 111.833193 
L 220.111239 113.423517 
L 220.740874 115.013841 
L 221.371536 116.604164 
L 221.995484 118.194488 
L 222.603243 119.784812 
L 223.183911 121.375135 
L 223.725602 122.965459 
L 224.21602 124.555782 
L 224.643087 126.146106 
L 224.995606 127.73643 
L 225.263876 129.326753 
L 225.440234 130.917077 
L 225.519473 132.507401 
L 225.499111 134.097724 
L 225.379504 135.688048 
L 225.163803 137.278372 
L 224.857767 138.868695 
L 224.46945 140.459019 
L 224.008796 142.049343 
L 223.487157 143.639666 
L 222.916767 145.22999 
L 222.310197 146.820314 
L 221.679815 148.410637 
L 221.037264 150.000961 
L 220.392991 151.591284 
L 219.75584 153.181608 
L 219.13273 154.771932 
L 218.528435 156.362255 
L 217.945481 157.952579 
L 217.384168 159.542903 
L 216.842719 161.133226 
L 216.31755 162.72355 
L 215.803649 164.313874 
L 215.295034 165.904197 
L 214.785267 167.494521 
L 214.267985 169.084845 
L 213.737413 170.675168 
L 213.188824 172.265492 
L 212.618912 173.855816 
L 212.026063 175.446139 
L 211.410494 177.036463 
L 210.774274 178.626786 
L 210.12121 180.21711 
L 209.456629 181.807434 
L 208.78707 183.397757 
L 208.1199 184.988081 
L 207.462911 186.578405 
z
" style="fill:#1f77b4;fill-opacity:0.3;"/>
   </g>
   <g id="PolyCollection_3">
    <path clip-path="url(#pd2fc51c8f1)" d="M 300.752423 224.7933 
L 293.704499 224.7933 
L 293.251949 224.202585 
L 292.775184 223.61187 
L 292.276913 223.021155 
L 291.76013 222.430439 
L 291.228063 221.839724 
L 290.684116 221.249009 
L 290.131788 220.658294 
L 289.574577 220.067579 
L 289.015848 219.476863 
L 288.458674 218.886148 
L 287.905651 218.295433 
L 287.358704 217.704718 
L 286.818905 217.114003 
L 286.286327 216.523287 
L 285.759959 215.932572 
L 285.237715 215.341857 
L 284.716538 214.751142 
L 284.192619 214.160427 
L 283.661713 213.569711 
L 283.119529 212.978996 
L 282.562171 212.388281 
L 281.986573 211.797566 
L 281.390908 211.206851 
L 280.774922 210.616135 
L 280.140166 210.02542 
L 279.490106 209.434705 
L 278.83012 208.84399 
L 278.167352 208.253275 
L 277.510468 207.662559 
L 276.869302 207.071844 
L 276.254412 206.481129 
L 275.676581 205.890414 
L 275.146259 205.299699 
L 274.672993 204.708983 
L 274.264861 204.118268 
L 273.92796 203.527553 
L 273.665983 202.936838 
L 273.479919 202.346123 
L 273.367939 201.755407 
L 273.325465 201.164692 
L 273.345458 200.573977 
L 273.418904 199.983262 
L 273.535472 199.392547 
L 273.6843 198.801831 
L 273.854834 198.211116 
L 274.037662 197.620401 
L 274.225251 197.029686 
L 274.412538 196.438971 
L 274.597303 195.848255 
L 274.780313 195.25754 
L 274.965198 194.666825 
L 275.158102 194.07611 
L 275.367117 193.485395 
L 275.601572 192.894679 
L 275.871239 192.303964 
L 276.185517 191.713249 
L 276.552682 191.122534 
L 276.979257 190.531819 
L 277.469542 189.941103 
L 278.025347 189.350388 
L 278.64592 188.759673 
L 279.328067 188.168958 
L 280.06642 187.578243 
L 280.853822 186.987527 
L 281.68177 186.396812 
L 282.540874 185.806097 
L 283.421287 185.215382 
L 284.313087 184.624667 
L 285.206585 184.033951 
L 286.092566 183.443236 
L 286.962468 182.852521 
L 287.80851 182.261806 
L 288.623784 181.671091 
L 289.402332 181.080375 
L 290.139204 180.48966 
L 290.830501 179.898945 
L 291.473409 179.30823 
L 292.066201 178.717515 
L 292.608208 178.126799 
L 293.099758 177.536084 
L 293.542066 176.945369 
L 293.937099 176.354654 
L 294.287413 175.763939 
L 294.595979 175.173223 
L 294.866018 174.582508 
L 295.100857 173.991793 
L 295.303819 173.401078 
L 295.478156 172.810363 
L 295.62701 172.219647 
L 295.753425 171.628932 
L 295.860358 171.038217 
L 295.950714 170.447502 
L 296.027358 169.856787 
L 296.093115 169.266072 
L 296.150741 168.675356 
L 296.202859 168.084641 
L 296.251882 167.493926 
L 296.299922 166.903211 
L 296.348696 166.312496 
L 298.108226 166.312496 
L 298.108226 166.312496 
L 298.157 166.903211 
L 298.205039 167.493926 
L 298.254063 168.084641 
L 298.30618 168.675356 
L 298.363806 169.266072 
L 298.429564 169.856787 
L 298.506208 170.447502 
L 298.596564 171.038217 
L 298.703497 171.628932 
L 298.829911 172.219647 
L 298.978766 172.810363 
L 299.153102 173.401078 
L 299.356065 173.991793 
L 299.590904 174.582508 
L 299.860942 175.173223 
L 300.169508 175.763939 
L 300.519822 176.354654 
L 300.914856 176.945369 
L 301.357164 177.536084 
L 301.848713 178.126799 
L 302.39072 178.717515 
L 302.983512 179.30823 
L 303.626421 179.898945 
L 304.317718 180.48966 
L 305.054589 181.080375 
L 305.833138 181.671091 
L 306.648412 182.261806 
L 307.494453 182.852521 
L 308.364356 183.443236 
L 309.250337 184.033951 
L 310.143835 184.624667 
L 311.035634 185.215382 
L 311.916048 185.806097 
L 312.775152 186.396812 
L 313.6031 186.987527 
L 314.390502 187.578243 
L 315.128855 188.168958 
L 315.811001 188.759673 
L 316.431574 189.350388 
L 316.987379 189.941103 
L 317.477664 190.531819 
L 317.904239 191.122534 
L 318.271405 191.713249 
L 318.585683 192.303964 
L 318.855349 192.894679 
L 319.089805 193.485395 
L 319.298819 194.07611 
L 319.491723 194.666825 
L 319.676609 195.25754 
L 319.859618 195.848255 
L 320.044384 196.438971 
L 320.23167 197.029686 
L 320.419259 197.620401 
L 320.602087 198.211116 
L 320.772622 198.801831 
L 320.921449 199.392547 
L 321.038017 199.983262 
L 321.111463 200.573977 
L 321.131457 201.164692 
L 321.088983 201.755407 
L 320.977003 202.346123 
L 320.790939 202.936838 
L 320.528961 203.527553 
L 320.192061 204.118268 
L 319.783929 204.708983 
L 319.310663 205.299699 
L 318.780341 205.890414 
L 318.20251 206.481129 
L 317.58762 207.071844 
L 316.946453 207.662559 
L 316.289569 208.253275 
L 315.626802 208.84399 
L 314.966815 209.434705 
L 314.316756 210.02542 
L 313.681999 210.616135 
L 313.066014 211.206851 
L 312.470349 211.797566 
L 311.894751 212.388281 
L 311.337392 212.978996 
L 310.795209 213.569711 
L 310.264303 214.160427 
L 309.740384 214.751142 
L 309.219206 215.341857 
L 308.696962 215.932572 
L 308.170595 216.523287 
L 307.638017 217.114003 
L 307.098218 217.704718 
L 306.551271 218.295433 
L 305.998247 218.886148 
L 305.441073 219.476863 
L 304.882344 220.067579 
L 304.325133 220.658294 
L 303.772806 221.249009 
L 303.228858 221.839724 
L 302.696792 222.430439 
L 302.180009 223.021155 
L 301.681737 223.61187 
L 301.204973 224.202585 
L 300.752423 224.7933 
z
" style="fill:#1f77b4;fill-opacity:0.3;"/>
   </g>
   <g id="matplotlib.axis_1">
    <g id="xtick_1">
     <g id="line2d_1">
      <defs>
       <path d="M 0 0 
L 0 3.5 
" id="mb6df38ac31" style="stroke:#000000;stroke-width:0.8;"/>
      </defs>
      <g>
       <use style="stroke:#000000;stroke-width:0.8;" x="106.004494" xlink:href="#mb6df38ac31" y="244.1"/>
      </g>
     </g>
     <g id="text_1">
      <!-- Our Method -->
      <g transform="translate(54.375392 264.397266)scale(0.175 -0.175)">
       <defs>
        <path d="M 39.40625 66.21875 
Q 28.65625 66.21875 22.328125 58.203125 
Q 16.015625 50.203125 16.015625 36.375 
Q 16.015625 22.609375 22.328125 14.59375 
Q 28.65625 6.59375 39.40625 6.59375 
Q 50.140625 6.59375 56.421875 14.59375 
Q 62.703125 22.609375 62.703125 36.375 
Q 62.703125 50.203125 56.421875 58.203125 
Q 50.140625 66.21875 39.40625 66.21875 
z
M 39.40625 74.21875 
Q 54.734375 74.21875 63.90625 63.9375 
Q 73.09375 53.65625 73.09375 36.375 
Q 73.09375 19.140625 63.90625 8.859375 
Q 54.734375 -1.421875 39.40625 -1.421875 
Q 24.03125 -1.421875 14.8125 8.828125 
Q 5.609375 19.09375 5.609375 36.375 
Q 5.609375 53.65625 14.8125 63.9375 
Q 24.03125 74.21875 39.40625 74.21875 
z
" id="DejaVuSans-79"/>
        <path d="M 8.5 21.578125 
L 8.5 54.6875 
L 17.484375 54.6875 
L 17.484375 21.921875 
Q 17.484375 14.15625 20.5 10.265625 
Q 23.53125 6.390625 29.59375 6.390625 
Q 36.859375 6.390625 41.078125 11.03125 
Q 45.3125 15.671875 45.3125 23.6875 
L 45.3125 54.6875 
L 54.296875 54.6875 
L 54.296875 0 
L 45.3125 0 
L 45.3125 8.40625 
Q 42.046875 3.421875 37.71875 1 
Q 33.40625 -1.421875 27.6875 -1.421875 
Q 18.265625 -1.421875 13.375 4.4375 
Q 8.5 10.296875 8.5 21.578125 
z
M 31.109375 56 
z
" id="DejaVuSans-117"/>
        <path d="M 41.109375 46.296875 
Q 39.59375 47.171875 37.8125 47.578125 
Q 36.03125 48 33.890625 48 
Q 26.265625 48 22.1875 43.046875 
Q 18.109375 38.09375 18.109375 28.8125 
L 18.109375 0 
L 9.078125 0 
L 9.078125 54.6875 
L 18.109375 54.6875 
L 18.109375 46.1875 
Q 20.953125 51.171875 25.484375 53.578125 
Q 30.03125 56 36.53125 56 
Q 37.453125 56 38.578125 55.875 
Q 39.703125 55.765625 41.0625 55.515625 
z
" id="DejaVuSans-114"/>
        <path id="DejaVuSans-32"/>
        <path d="M 9.8125 72.90625 
L 24.515625 72.90625 
L 43.109375 23.296875 
L 61.8125 72.90625 
L 76.515625 72.90625 
L 76.515625 0 
L 66.890625 0 
L 66.890625 64.015625 
L 48.09375 14.015625 
L 38.1875 14.015625 
L 19.390625 64.015625 
L 19.390625 0 
L 9.8125 0 
z
" id="DejaVuSans-77"/>
        <path d="M 56.203125 29.59375 
L 56.203125 25.203125 
L 14.890625 25.203125 
Q 15.484375 15.921875 20.484375 11.0625 
Q 25.484375 6.203125 34.421875 6.203125 
Q 39.59375 6.203125 44.453125 7.46875 
Q 49.3125 8.734375 54.109375 11.28125 
L 54.109375 2.78125 
Q 49.265625 0.734375 44.1875 -0.34375 
Q 39.109375 -1.421875 33.890625 -1.421875 
Q 20.796875 -1.421875 13.15625 6.1875 
Q 5.515625 13.8125 5.515625 26.8125 
Q 5.515625 40.234375 12.765625 48.109375 
Q 20.015625 56 32.328125 56 
Q 43.359375 56 49.78125 48.890625 
Q 56.203125 41.796875 56.203125 29.59375 
z
M 47.21875 32.234375 
Q 47.125 39.59375 43.09375 43.984375 
Q 39.0625 48.390625 32.421875 48.390625 
Q 24.90625 48.390625 20.390625 44.140625 
Q 15.875 39.890625 15.1875 32.171875 
z
" id="DejaVuSans-101"/>
        <path d="M 18.3125 70.21875 
L 18.3125 54.6875 
L 36.8125 54.6875 
L 36.8125 47.703125 
L 18.3125 47.703125 
L 18.3125 18.015625 
Q 18.3125 11.328125 20.140625 9.421875 
Q 21.96875 7.515625 27.59375 7.515625 
L 36.8125 7.515625 
L 36.8125 0 
L 27.59375 0 
Q 17.1875 0 13.234375 3.875 
Q 9.28125 7.765625 9.28125 18.015625 
L 9.28125 47.703125 
L 2.6875 47.703125 
L 2.6875 54.6875 
L 9.28125 54.6875 
L 9.28125 70.21875 
z
" id="DejaVuSans-116"/>
        <path d="M 54.890625 33.015625 
L 54.890625 0 
L 45.90625 0 
L 45.90625 32.71875 
Q 45.90625 40.484375 42.875 44.328125 
Q 39.84375 48.1875 33.796875 48.1875 
Q 26.515625 48.1875 22.3125 43.546875 
Q 18.109375 38.921875 18.109375 30.90625 
L 18.109375 0 
L 9.078125 0 
L 9.078125 75.984375 
L 18.109375 75.984375 
L 18.109375 46.1875 
Q 21.34375 51.125 25.703125 53.5625 
Q 30.078125 56 35.796875 56 
Q 45.21875 56 50.046875 50.171875 
Q 54.890625 44.34375 54.890625 33.015625 
z
" id="DejaVuSans-104"/>
        <path d="M 30.609375 48.390625 
Q 23.390625 48.390625 19.1875 42.75 
Q 14.984375 37.109375 14.984375 27.296875 
Q 14.984375 17.484375 19.15625 11.84375 
Q 23.34375 6.203125 30.609375 6.203125 
Q 37.796875 6.203125 41.984375 11.859375 
Q 46.1875 17.53125 46.1875 27.296875 
Q 46.1875 37.015625 41.984375 42.703125 
Q 37.796875 48.390625 30.609375 48.390625 
z
M 30.609375 56 
Q 42.328125 56 49.015625 48.375 
Q 55.71875 40.765625 55.71875 27.296875 
Q 55.71875 13.875 49.015625 6.21875 
Q 42.328125 -1.421875 30.609375 -1.421875 
Q 18.84375 -1.421875 12.171875 6.21875 
Q 5.515625 13.875 5.515625 27.296875 
Q 5.515625 40.765625 12.171875 48.375 
Q 18.84375 56 30.609375 56 
z
" id="DejaVuSans-111"/>
        <path d="M 45.40625 46.390625 
L 45.40625 75.984375 
L 54.390625 75.984375 
L 54.390625 0 
L 45.40625 0 
L 45.40625 8.203125 
Q 42.578125 3.328125 38.25 0.953125 
Q 33.9375 -1.421875 27.875 -1.421875 
Q 17.96875 -1.421875 11.734375 6.484375 
Q 5.515625 14.40625 5.515625 27.296875 
Q 5.515625 40.1875 11.734375 48.09375 
Q 17.96875 56 27.875 56 
Q 33.9375 56 38.25 53.625 
Q 42.578125 51.265625 45.40625 46.390625 
z
M 14.796875 27.296875 
Q 14.796875 17.390625 18.875 11.75 
Q 22.953125 6.109375 30.078125 6.109375 
Q 37.203125 6.109375 41.296875 11.75 
Q 45.40625 17.390625 45.40625 27.296875 
Q 45.40625 37.203125 41.296875 42.84375 
Q 37.203125 48.484375 30.078125 48.484375 
Q 22.953125 48.484375 18.875 42.84375 
Q 14.796875 37.203125 14.796875 27.296875 
z
" id="DejaVuSans-100"/>
       </defs>
       <use xlink:href="#DejaVuSans-79"/>
       <use x="78.710938" xlink:href="#DejaVuSans-117"/>
       <use x="142.089844" xlink:href="#DejaVuSans-114"/>
       <use x="183.203125" xlink:href="#DejaVuSans-32"/>
       <use x="214.990234" xlink:href="#DejaVuSans-77"/>
       <use x="301.269531" xlink:href="#DejaVuSans-101"/>
       <use x="362.792969" xlink:href="#DejaVuSans-116"/>
       <use x="402.001953" xlink:href="#DejaVuSans-104"/>
       <use x="465.380859" xlink:href="#DejaVuSans-111"/>
       <use x="526.5625" xlink:href="#DejaVuSans-100"/>
      </g>
     </g>
    </g>
    <g id="xtick_2">
     <g id="line2d_2">
      <g>
       <use style="stroke:#000000;stroke-width:0.8;" x="201.616477" xlink:href="#mb6df38ac31" y="244.1"/>
      </g>
     </g>
     <g id="text_2">
      <!-- Stein's -->
      <g transform="translate(172.308079 264.397266)scale(0.175 -0.175)">
       <defs>
        <path d="M 53.515625 70.515625 
L 53.515625 60.890625 
Q 47.90625 63.578125 42.921875 64.890625 
Q 37.9375 66.21875 33.296875 66.21875 
Q 25.25 66.21875 20.875 63.09375 
Q 16.5 59.96875 16.5 54.203125 
Q 16.5 49.359375 19.40625 46.890625 
Q 22.3125 44.4375 30.421875 42.921875 
L 36.375 41.703125 
Q 47.40625 39.59375 52.65625 34.296875 
Q 57.90625 29 57.90625 20.125 
Q 57.90625 9.515625 50.796875 4.046875 
Q 43.703125 -1.421875 29.984375 -1.421875 
Q 24.8125 -1.421875 18.96875 -0.25 
Q 13.140625 0.921875 6.890625 3.21875 
L 6.890625 13.375 
Q 12.890625 10.015625 18.65625 8.296875 
Q 24.421875 6.59375 29.984375 6.59375 
Q 38.421875 6.59375 43.015625 9.90625 
Q 47.609375 13.234375 47.609375 19.390625 
Q 47.609375 24.75 44.3125 27.78125 
Q 41.015625 30.8125 33.5 32.328125 
L 27.484375 33.5 
Q 16.453125 35.6875 11.515625 40.375 
Q 6.59375 45.0625 6.59375 53.421875 
Q 6.59375 63.09375 13.40625 68.65625 
Q 20.21875 74.21875 32.171875 74.21875 
Q 37.3125 74.21875 42.625 73.28125 
Q 47.953125 72.359375 53.515625 70.515625 
z
" id="DejaVuSans-83"/>
        <path d="M 9.421875 54.6875 
L 18.40625 54.6875 
L 18.40625 0 
L 9.421875 0 
z
M 9.421875 75.984375 
L 18.40625 75.984375 
L 18.40625 64.59375 
L 9.421875 64.59375 
z
" id="DejaVuSans-105"/>
        <path d="M 54.890625 33.015625 
L 54.890625 0 
L 45.90625 0 
L 45.90625 32.71875 
Q 45.90625 40.484375 42.875 44.328125 
Q 39.84375 48.1875 33.796875 48.1875 
Q 26.515625 48.1875 22.3125 43.546875 
Q 18.109375 38.921875 18.109375 30.90625 
L 18.109375 0 
L 9.078125 0 
L 9.078125 54.6875 
L 18.109375 54.6875 
L 18.109375 46.1875 
Q 21.34375 51.125 25.703125 53.5625 
Q 30.078125 56 35.796875 56 
Q 45.21875 56 50.046875 50.171875 
Q 54.890625 44.34375 54.890625 33.015625 
z
" id="DejaVuSans-110"/>
        <path d="M 17.921875 72.90625 
L 17.921875 45.796875 
L 9.625 45.796875 
L 9.625 72.90625 
z
" id="DejaVuSans-39"/>
        <path d="M 44.28125 53.078125 
L 44.28125 44.578125 
Q 40.484375 46.53125 36.375 47.5 
Q 32.28125 48.484375 27.875 48.484375 
Q 21.1875 48.484375 17.84375 46.4375 
Q 14.5 44.390625 14.5 40.28125 
Q 14.5 37.15625 16.890625 35.375 
Q 19.28125 33.59375 26.515625 31.984375 
L 29.59375 31.296875 
Q 39.15625 29.25 43.1875 25.515625 
Q 47.21875 21.78125 47.21875 15.09375 
Q 47.21875 7.46875 41.1875 3.015625 
Q 35.15625 -1.421875 24.609375 -1.421875 
Q 20.21875 -1.421875 15.453125 -0.5625 
Q 10.6875 0.296875 5.421875 2 
L 5.421875 11.28125 
Q 10.40625 8.6875 15.234375 7.390625 
Q 20.0625 6.109375 24.8125 6.109375 
Q 31.15625 6.109375 34.5625 8.28125 
Q 37.984375 10.453125 37.984375 14.40625 
Q 37.984375 18.0625 35.515625 20.015625 
Q 33.0625 21.96875 24.703125 23.78125 
L 21.578125 24.515625 
Q 13.234375 26.265625 9.515625 29.90625 
Q 5.8125 33.546875 5.8125 39.890625 
Q 5.8125 47.609375 11.28125 51.796875 
Q 16.75 56 26.8125 56 
Q 31.78125 56 36.171875 55.265625 
Q 40.578125 54.546875 44.28125 53.078125 
z
" id="DejaVuSans-115"/>
       </defs>
       <use xlink:href="#DejaVuSans-83"/>
       <use x="63.476562" xlink:href="#DejaVuSans-116"/>
       <use x="102.685547" xlink:href="#DejaVuSans-101"/>
       <use x="164.208984" xlink:href="#DejaVuSans-105"/>
       <use x="191.992188" xlink:href="#DejaVuSans-110"/>
       <use x="255.371094" xlink:href="#DejaVuSans-39"/>
       <use x="282.861328" xlink:href="#DejaVuSans-115"/>
      </g>
     </g>
    </g>
    <g id="xtick_3">
     <g id="line2d_3">
      <g>
       <use style="stroke:#000000;stroke-width:0.8;" x="297.228461" xlink:href="#mb6df38ac31" y="244.1"/>
      </g>
     </g>
     <g id="text_3">
      <!-- Entry-wise -->
      <g transform="translate(251.415375 264.397266)scale(0.175 -0.175)">
       <defs>
        <path d="M 9.8125 72.90625 
L 55.90625 72.90625 
L 55.90625 64.59375 
L 19.671875 64.59375 
L 19.671875 43.015625 
L 54.390625 43.015625 
L 54.390625 34.71875 
L 19.671875 34.71875 
L 19.671875 8.296875 
L 56.78125 8.296875 
L 56.78125 0 
L 9.8125 0 
z
" id="DejaVuSans-69"/>
        <path d="M 32.171875 -5.078125 
Q 28.375 -14.84375 24.75 -17.8125 
Q 21.140625 -20.796875 15.09375 -20.796875 
L 7.90625 -20.796875 
L 7.90625 -13.28125 
L 13.1875 -13.28125 
Q 16.890625 -13.28125 18.9375 -11.515625 
Q 21 -9.765625 23.484375 -3.21875 
L 25.09375 0.875 
L 2.984375 54.6875 
L 12.5 54.6875 
L 29.59375 11.921875 
L 46.6875 54.6875 
L 56.203125 54.6875 
z
" id="DejaVuSans-121"/>
        <path d="M 4.890625 31.390625 
L 31.203125 31.390625 
L 31.203125 23.390625 
L 4.890625 23.390625 
z
" id="DejaVuSans-45"/>
        <path d="M 4.203125 54.6875 
L 13.1875 54.6875 
L 24.421875 12.015625 
L 35.59375 54.6875 
L 46.1875 54.6875 
L 57.421875 12.015625 
L 68.609375 54.6875 
L 77.59375 54.6875 
L 63.28125 0 
L 52.6875 0 
L 40.921875 44.828125 
L 29.109375 0 
L 18.5 0 
z
" id="DejaVuSans-119"/>
       </defs>
       <use xlink:href="#DejaVuSans-69"/>
       <use x="63.183594" xlink:href="#DejaVuSans-110"/>
       <use x="126.5625" xlink:href="#DejaVuSans-116"/>
       <use x="165.771484" xlink:href="#DejaVuSans-114"/>
       <use x="206.884766" xlink:href="#DejaVuSans-121"/>
       <use x="264.314453" xlink:href="#DejaVuSans-45"/>
       <use x="300.398438" xlink:href="#DejaVuSans-119"/>
       <use x="382.185547" xlink:href="#DejaVuSans-105"/>
       <use x="409.96875" xlink:href="#DejaVuSans-115"/>
       <use x="462.068359" xlink:href="#DejaVuSans-101"/>
      </g>
     </g>
    </g>
   </g>
   <g id="matplotlib.axis_2">
    <g id="ytick_1">
     <g id="line2d_4">
      <defs>
       <path d="M 0 0 
L -3.5 0 
" id="m04d42ac67b" style="stroke:#000000;stroke-width:0.8;"/>
      </defs>
      <g>
       <use style="stroke:#000000;stroke-width:0.8;" x="70.15" xlink:href="#m04d42ac67b" y="187.038891"/>
      </g>
     </g>
     <g id="text_4">
      <!-- 5 -->
      <g transform="translate(52.015625 193.687524)scale(0.175 -0.175)">
       <defs>
        <path d="M 10.796875 72.90625 
L 49.515625 72.90625 
L 49.515625 64.59375 
L 19.828125 64.59375 
L 19.828125 46.734375 
Q 21.96875 47.46875 24.109375 47.828125 
Q 26.265625 48.1875 28.421875 48.1875 
Q 40.625 48.1875 47.75 41.5 
Q 54.890625 34.8125 54.890625 23.390625 
Q 54.890625 11.625 47.5625 5.09375 
Q 40.234375 -1.421875 26.90625 -1.421875 
Q 22.3125 -1.421875 17.546875 -0.640625 
Q 12.796875 0.140625 7.71875 1.703125 
L 7.71875 11.625 
Q 12.109375 9.234375 16.796875 8.0625 
Q 21.484375 6.890625 26.703125 6.890625 
Q 35.15625 6.890625 40.078125 11.328125 
Q 45.015625 15.765625 45.015625 23.390625 
Q 45.015625 31 40.078125 35.4375 
Q 35.15625 39.890625 26.703125 39.890625 
Q 22.75 39.890625 18.8125 39.015625 
Q 14.890625 38.140625 10.796875 36.28125 
z
" id="DejaVuSans-53"/>
       </defs>
       <use xlink:href="#DejaVuSans-53"/>
      </g>
     </g>
    </g>
    <g id="ytick_2">
     <g id="line2d_5">
      <g>
       <use style="stroke:#000000;stroke-width:0.8;" x="70.15" xlink:href="#m04d42ac67b" y="118.636985"/>
      </g>
     </g>
     <g id="text_5">
      <!-- 10 -->
      <g transform="translate(40.88125 125.285618)scale(0.175 -0.175)">
       <defs>
        <path d="M 12.40625 8.296875 
L 28.515625 8.296875 
L 28.515625 63.921875 
L 10.984375 60.40625 
L 10.984375 69.390625 
L 28.421875 72.90625 
L 38.28125 72.90625 
L 38.28125 8.296875 
L 54.390625 8.296875 
L 54.390625 0 
L 12.40625 0 
z
" id="DejaVuSans-49"/>
        <path d="M 31.78125 66.40625 
Q 24.171875 66.40625 20.328125 58.90625 
Q 16.5 51.421875 16.5 36.375 
Q 16.5 21.390625 20.328125 13.890625 
Q 24.171875 6.390625 31.78125 6.390625 
Q 39.453125 6.390625 43.28125 13.890625 
Q 47.125 21.390625 47.125 36.375 
Q 47.125 51.421875 43.28125 58.90625 
Q 39.453125 66.40625 31.78125 66.40625 
z
M 31.78125 74.21875 
Q 44.046875 74.21875 50.515625 64.515625 
Q 56.984375 54.828125 56.984375 36.375 
Q 56.984375 17.96875 50.515625 8.265625 
Q 44.046875 -1.421875 31.78125 -1.421875 
Q 19.53125 -1.421875 13.0625 8.265625 
Q 6.59375 17.96875 6.59375 36.375 
Q 6.59375 54.828125 13.0625 64.515625 
Q 19.53125 74.21875 31.78125 74.21875 
z
" id="DejaVuSans-48"/>
       </defs>
       <use xlink:href="#DejaVuSans-49"/>
       <use x="63.623047" xlink:href="#DejaVuSans-48"/>
      </g>
     </g>
    </g>
    <g id="ytick_3">
     <g id="line2d_6">
      <g>
       <use style="stroke:#000000;stroke-width:0.8;" x="70.15" xlink:href="#m04d42ac67b" y="50.235079"/>
      </g>
     </g>
     <g id="text_6">
      <!-- 15 -->
      <g transform="translate(40.88125 56.883712)scale(0.175 -0.175)">
       <use xlink:href="#DejaVuSans-49"/>
       <use x="63.623047" xlink:href="#DejaVuSans-53"/>
      </g>
     </g>
    </g>
    <g id="text_7">
     <!-- Estimation Error -->
     <g transform="translate(33.241797 202.198633)rotate(-90)scale(0.175 -0.175)">
      <defs>
       <path d="M 52 44.1875 
Q 55.375 50.25 60.0625 53.125 
Q 64.75 56 71.09375 56 
Q 79.640625 56 84.28125 50.015625 
Q 88.921875 44.046875 88.921875 33.015625 
L 88.921875 0 
L 79.890625 0 
L 79.890625 32.71875 
Q 79.890625 40.578125 77.09375 44.375 
Q 74.3125 48.1875 68.609375 48.1875 
Q 61.625 48.1875 57.5625 43.546875 
Q 53.515625 38.921875 53.515625 30.90625 
L 53.515625 0 
L 44.484375 0 
L 44.484375 32.71875 
Q 44.484375 40.625 41.703125 44.40625 
Q 38.921875 48.1875 33.109375 48.1875 
Q 26.21875 48.1875 22.15625 43.53125 
Q 18.109375 38.875 18.109375 30.90625 
L 18.109375 0 
L 9.078125 0 
L 9.078125 54.6875 
L 18.109375 54.6875 
L 18.109375 46.1875 
Q 21.1875 51.21875 25.484375 53.609375 
Q 29.78125 56 35.6875 56 
Q 41.65625 56 45.828125 52.96875 
Q 50 49.953125 52 44.1875 
z
" id="DejaVuSans-109"/>
       <path d="M 34.28125 27.484375 
Q 23.390625 27.484375 19.1875 25 
Q 14.984375 22.515625 14.984375 16.5 
Q 14.984375 11.71875 18.140625 8.90625 
Q 21.296875 6.109375 26.703125 6.109375 
Q 34.1875 6.109375 38.703125 11.40625 
Q 43.21875 16.703125 43.21875 25.484375 
L 43.21875 27.484375 
z
M 52.203125 31.203125 
L 52.203125 0 
L 43.21875 0 
L 43.21875 8.296875 
Q 40.140625 3.328125 35.546875 0.953125 
Q 30.953125 -1.421875 24.3125 -1.421875 
Q 15.921875 -1.421875 10.953125 3.296875 
Q 6 8.015625 6 15.921875 
Q 6 25.140625 12.171875 29.828125 
Q 18.359375 34.515625 30.609375 34.515625 
L 43.21875 34.515625 
L 43.21875 35.40625 
Q 43.21875 41.609375 39.140625 45 
Q 35.0625 48.390625 27.6875 48.390625 
Q 23 48.390625 18.546875 47.265625 
Q 14.109375 46.140625 10.015625 43.890625 
L 10.015625 52.203125 
Q 14.9375 54.109375 19.578125 55.046875 
Q 24.21875 56 28.609375 56 
Q 40.484375 56 46.34375 49.84375 
Q 52.203125 43.703125 52.203125 31.203125 
z
" id="DejaVuSans-97"/>
      </defs>
      <use xlink:href="#DejaVuSans-69"/>
      <use x="63.183594" xlink:href="#DejaVuSans-115"/>
      <use x="115.283203" xlink:href="#DejaVuSans-116"/>
      <use x="154.492188" xlink:href="#DejaVuSans-105"/>
      <use x="182.275391" xlink:href="#DejaVuSans-109"/>
      <use x="279.6875" xlink:href="#DejaVuSans-97"/>
      <use x="340.966797" xlink:href="#DejaVuSans-116"/>
      <use x="380.175781" xlink:href="#DejaVuSans-105"/>
      <use x="407.958984" xlink:href="#DejaVuSans-111"/>
      <use x="469.140625" xlink:href="#DejaVuSans-110"/>
      <use x="532.519531" xlink:href="#DejaVuSans-32"/>
      <use x="564.306641" xlink:href="#DejaVuSans-69"/>
      <use x="627.490234" xlink:href="#DejaVuSans-114"/>
      <use x="666.853516" xlink:href="#DejaVuSans-114"/>
      <use x="705.716797" xlink:href="#DejaVuSans-111"/>
      <use x="766.898438" xlink:href="#DejaVuSans-114"/>
     </g>
    </g>
   </g>
   <g id="LineCollection_1">
    <path clip-path="url(#pd2fc51c8f1)" d="M 94.052996 178.410781 
L 117.955992 178.410781 
" style="fill:none;stroke:#1f77b4;stroke-width:1.5;"/>
    <path clip-path="url(#pd2fc51c8f1)" d="M 189.664979 29.136364 
L 213.567975 29.136364 
" style="fill:none;stroke:#1f77b4;stroke-width:1.5;"/>
    <path clip-path="url(#pd2fc51c8f1)" d="M 285.276963 166.312496 
L 309.179959 166.312496 
" style="fill:none;stroke:#1f77b4;stroke-width:1.5;"/>
   </g>
   <g id="LineCollection_2">
    <path clip-path="url(#pd2fc51c8f1)" d="M 94.052996 233.863636 
L 117.955992 233.863636 
" style="fill:none;stroke:#1f77b4;stroke-width:1.5;"/>
    <path clip-path="url(#pd2fc51c8f1)" d="M 189.664979 186.578405 
L 213.567975 186.578405 
" style="fill:none;stroke:#1f77b4;stroke-width:1.5;"/>
    <path clip-path="url(#pd2fc51c8f1)" d="M 285.276963 224.7933 
L 309.179959 224.7933 
" style="fill:none;stroke:#1f77b4;stroke-width:1.5;"/>
   </g>
   <g id="LineCollection_3">
    <path clip-path="url(#pd2fc51c8f1)" d="M 106.004494 233.863636 
L 106.004494 178.410781 
" style="fill:none;stroke:#1f77b4;stroke-width:1.5;"/>
    <path clip-path="url(#pd2fc51c8f1)" d="M 201.616477 186.578405 
L 201.616477 29.136364 
" style="fill:none;stroke:#1f77b4;stroke-width:1.5;"/>
    <path clip-path="url(#pd2fc51c8f1)" d="M 297.228461 224.7933 
L 297.228461 166.312496 
" style="fill:none;stroke:#1f77b4;stroke-width:1.5;"/>
   </g>
   <g id="patch_3">
    <path d="M 70.15 244.1 
L 70.15 18.9 
" style="fill:none;stroke:#000000;stroke-linecap:square;stroke-linejoin:miter;stroke-width:0.8;"/>
   </g>
   <g id="patch_4">
    <path d="M 333.082955 244.1 
L 333.082955 18.9 
" style="fill:none;stroke:#000000;stroke-linecap:square;stroke-linejoin:miter;stroke-width:0.8;"/>
   </g>
   <g id="patch_5">
    <path d="M 70.15 244.1 
L 333.082955 244.1 
" style="fill:none;stroke:#000000;stroke-linecap:square;stroke-linejoin:miter;stroke-width:0.8;"/>
   </g>
   <g id="patch_6">
    <path d="M 70.15 18.9 
L 333.082955 18.9 
" style="fill:none;stroke:#000000;stroke-linecap:square;stroke-linejoin:miter;stroke-width:0.8;"/>
   </g>
  </g>
 </g>
 <defs>
  <clipPath id="pd2fc51c8f1">
   <rect height="225.2" width="262.932955" x="70.15" y="18.9"/>
  </clipPath>
 </defs>
</svg>
