<?xml version="1.0" encoding="utf-8" standalone="no"?>
<!DOCTYPE svg PUBLIC "-//W3C//DTD SVG 1.1//EN"
  "http://www.w3.org/Graphics/SVG/1.1/DTD/svg11.dtd">
<!-- Created with matplotlib (https://matplotlib.org/) -->
<svg height="288pt" version="1.1" viewBox="0 0 360 288" width="360pt" xmlns="http://www.w3.org/2000/svg" xmlns:xlink="http://www.w3.org/1999/xlink">
 <metadata>
  <rdf:RDF xmlns:cc="http://creativecommons.org/ns#" xmlns:dc="http://purl.org/dc/elements/1.1/" xmlns:rdf="http://www.w3.org/1999/02/22-rdf-syntax-ns#">
   <cc:Work>
    <dc:type rdf:resource="http://purl.org/dc/dcmitype/StillImage"/>
    <dc:date>2022-09-25T00:48:11.759886</dc:date>
    <dc:format>image/svg+xml</dc:format>
    <dc:creator>
     <cc:Agent>
      <dc:title>Matplotlib v3.3.4, https://matplotlib.org/</dc:title>
     </cc:Agent>
    </dc:creator>
   </cc:Work>
  </rdf:RDF>
 </metadata>
 <defs>
  <style type="text/css">*{stroke-linecap:butt;stroke-linejoin:round;}</style>
 </defs>
 <g id="figure_1">
  <g id="patch_1">
   <path d="M 0 288 
L 360 288 
L 360 0 
L 0 0 
z
" style="fill:none;"/>
  </g>
  <g id="axes_1">
   <g id="patch_2">
    <path d="M 59.025 244.1 
L 333.082955 244.1 
L 333.082955 18.9 
L 59.025 18.9 
z
" style="fill:#ffffff;"/>
   </g>
   <g id="PolyCollection_1">
    <path clip-path="url(#p5a1a46245b)" d="M 100.32597 232.786732 
L 92.467108 232.786732 
L 91.940131 232.232697 
L 91.360505 231.678663 
L 90.725017 231.124628 
L 90.03131 230.570593 
L 89.27831 230.016558 
L 88.466631 229.462523 
L 87.598919 228.908489 
L 86.680074 228.354454 
L 85.717318 227.800419 
L 84.72009 227.246384 
L 83.699746 226.692349 
L 82.669091 226.138315 
L 81.641769 225.58428 
L 80.631569 225.030245 
L 79.651699 224.47621 
L 78.714101 223.922175 
L 77.828866 223.368141 
L 77.0038 222.814106 
L 76.244179 222.260071 
L 75.552701 221.706036 
L 74.929643 221.152001 
L 74.373183 220.597967 
L 73.879862 220.043932 
L 73.445127 219.489897 
L 73.063907 218.935862 
L 72.731163 218.381827 
L 72.442364 217.827793 
L 72.193858 217.273758 
L 71.983099 216.719723 
L 71.80873 216.165688 
L 71.670509 215.611653 
L 71.569114 215.057619 
L 71.50583 214.503584 
L 71.48218 213.949549 
L 71.499514 213.395514 
L 71.558631 212.84148 
L 71.659452 212.287445 
L 71.800792 211.73341 
L 71.980252 211.179375 
L 72.194246 210.62534 
L 72.438155 210.071306 
L 72.706598 209.517271 
L 72.993773 208.963236 
L 73.293848 208.409201 
L 73.601341 207.855166 
L 73.911453 207.301132 
L 74.220314 206.747097 
L 74.525127 206.193062 
L 74.824199 205.639027 
L 75.11686 205.084992 
L 75.403319 204.530958 
L 75.684463 203.976923 
L 75.961656 203.422888 
L 76.236578 202.868853 
L 76.511119 202.314818 
L 76.787347 201.760784 
L 77.067554 201.206749 
L 77.354348 200.652714 
L 77.650776 200.098679 
L 77.960415 199.544644 
L 78.287415 198.99061 
L 78.636449 198.436575 
L 79.012556 197.88254 
L 79.420871 197.328505 
L 79.866267 196.77447 
L 80.352941 196.220436 
L 80.88398 195.666401 
L 81.460973 195.112366 
L 82.083701 194.558331 
L 82.749957 194.004296 
L 83.455504 193.450262 
L 84.19419 192.896227 
L 84.958197 192.342192 
L 85.738413 191.788157 
L 86.524878 191.234123 
L 87.30726 190.680088 
L 88.075343 190.126053 
L 88.819469 189.572018 
L 89.530916 189.017983 
L 90.202201 188.463949 
L 90.827295 187.909914 
L 91.401752 187.355879 
L 91.922753 186.801844 
L 92.389088 186.247809 
L 92.801073 185.693775 
L 93.160415 185.13974 
L 93.470048 184.585705 
L 93.733921 184.03167 
L 93.956783 183.477635 
L 94.143933 182.923601 
L 94.300985 182.369566 
L 94.433617 181.815531 
L 94.547349 181.261496 
L 94.647333 180.707461 
L 94.738183 180.153427 
L 94.823834 179.599392 
L 94.907456 179.045357 
L 94.99141 178.491322 
L 95.077243 177.937287 
L 97.715835 177.937287 
L 97.715835 177.937287 
L 97.801669 178.491322 
L 97.885622 179.045357 
L 97.969245 179.599392 
L 98.054896 180.153427 
L 98.145745 180.707461 
L 98.24573 181.261496 
L 98.359462 181.815531 
L 98.492094 182.369566 
L 98.649145 182.923601 
L 98.836296 183.477635 
L 99.059157 184.03167 
L 99.323031 184.585705 
L 99.632663 185.13974 
L 99.992006 185.693775 
L 100.40399 186.247809 
L 100.870325 186.801844 
L 101.391326 187.355879 
L 101.965783 187.909914 
L 102.590878 188.463949 
L 103.262163 189.017983 
L 103.97361 189.572018 
L 104.717735 190.126053 
L 105.485819 190.680088 
L 106.268201 191.234123 
L 107.054665 191.788157 
L 107.834882 192.342192 
L 108.598889 192.896227 
L 109.337574 193.450262 
L 110.043121 194.004296 
L 110.709378 194.558331 
L 111.332106 195.112366 
L 111.909098 195.666401 
L 112.440137 196.220436 
L 112.926811 196.77447 
L 113.372208 197.328505 
L 113.780523 197.88254 
L 114.15663 198.436575 
L 114.505664 198.99061 
L 114.832664 199.544644 
L 115.142302 200.098679 
L 115.43873 200.652714 
L 115.725525 201.206749 
L 116.005731 201.760784 
L 116.281959 202.314818 
L 116.5565 202.868853 
L 116.831423 203.422888 
L 117.108616 203.976923 
L 117.389759 204.530958 
L 117.676218 205.084992 
L 117.96888 205.639027 
L 118.267951 206.193062 
L 118.572765 206.747097 
L 118.881625 207.301132 
L 119.191737 207.855166 
L 119.499231 208.409201 
L 119.799306 208.963236 
L 120.086481 209.517271 
L 120.354923 210.071306 
L 120.598833 210.62534 
L 120.812826 211.179375 
L 120.992286 211.73341 
L 121.133626 212.287445 
L 121.234447 212.84148 
L 121.293565 213.395514 
L 121.310899 213.949549 
L 121.287248 214.503584 
L 121.223965 215.057619 
L 121.12257 215.611653 
L 120.984349 216.165688 
L 120.809979 216.719723 
L 120.599221 217.273758 
L 120.350715 217.827793 
L 120.061916 218.381827 
L 119.729171 218.935862 
L 119.347952 219.489897 
L 118.913217 220.043932 
L 118.419896 220.597967 
L 117.863436 221.152001 
L 117.240378 221.706036 
L 116.5489 222.260071 
L 115.789278 222.814106 
L 114.964212 223.368141 
L 114.078977 223.922175 
L 113.141379 224.47621 
L 112.16151 225.030245 
L 111.15131 225.58428 
L 110.123988 226.138315 
L 109.093332 226.692349 
L 108.072988 227.246384 
L 107.07576 227.800419 
L 106.113005 228.354454 
L 105.194159 228.908489 
L 104.326447 229.462523 
L 103.514769 230.016558 
L 102.761768 230.570593 
L 102.068062 231.124628 
L 101.432574 231.678663 
L 100.852948 232.232697 
L 100.32597 232.786732 
z
" style="fill:#1f77b4;fill-opacity:0.3;"/>
   </g>
   <g id="PolyCollection_2">
    <path clip-path="url(#p5a1a46245b)" d="M 200.670916 233.863636 
L 191.437039 233.863636 
L 190.849025 231.795684 
L 190.230855 229.727732 
L 189.586652 227.65978 
L 188.920795 225.591827 
L 188.2377 223.523875 
L 187.541594 221.455923 
L 186.836294 219.387971 
L 186.125024 217.320018 
L 185.410283 215.252066 
L 184.69378 213.184114 
L 183.976458 211.116162 
L 183.258607 209.048209 
L 182.540058 206.980257 
L 181.820445 204.912305 
L 181.099505 202.844353 
L 180.377392 200.7764 
L 179.654952 198.708448 
L 178.933936 196.640496 
L 178.217116 194.572544 
L 177.508295 192.504591 
L 176.812191 190.436639 
L 176.134227 188.368687 
L 175.480237 186.300735 
L 174.85614 184.232782 
L 174.267612 182.16483 
L 173.71981 180.096878 
L 173.217174 178.028926 
L 172.763341 175.960973 
L 172.361171 173.893021 
L 172.012875 171.825069 
L 171.720226 169.757117 
L 171.484806 167.689164 
L 171.30825 165.621212 
L 171.192443 163.55326 
L 171.139618 161.485308 
L 171.152354 159.417355 
L 171.233443 157.349403 
L 171.385642 155.281451 
L 171.611342 153.213499 
L 171.91219 151.145546 
L 172.288699 149.077594 
L 172.739918 147.009642 
L 173.263181 144.94169 
L 173.853986 142.873737 
L 174.506011 140.805785 
L 175.211274 138.737833 
L 175.960432 136.669881 
L 176.743176 134.601928 
L 177.54871 132.533976 
L 178.366258 130.466024 
L 179.185563 128.398072 
L 179.99734 126.330119 
L 180.793649 124.262167 
L 181.568161 122.194215 
L 182.316298 120.126263 
L 183.035245 118.05831 
L 183.723835 115.990358 
L 184.382315 113.922406 
L 185.01203 111.854454 
L 185.615041 109.786501 
L 186.193725 107.718549 
L 186.750389 105.650597 
L 187.286933 103.582645 
L 187.804605 101.514692 
L 188.30385 99.44674 
L 188.784281 97.378788 
L 189.244763 95.310836 
L 189.68359 93.242883 
L 190.098737 91.174931 
L 190.488154 89.106979 
L 190.850063 87.039027 
L 191.183218 84.971074 
L 191.48711 82.903122 
L 191.762087 80.83517 
L 192.009374 78.767218 
L 192.231007 76.699265 
L 192.429673 74.631313 
L 192.608492 72.563361 
L 192.770759 70.495409 
L 192.919674 68.427456 
L 193.058101 66.359504 
L 193.18837 64.291552 
L 193.312149 62.2236 
L 193.430403 60.155647 
L 193.543428 58.087695 
L 193.650974 56.019743 
L 193.75242 53.951791 
L 193.846994 51.883838 
L 193.934002 49.815886 
L 194.013039 47.747934 
L 194.084159 45.679982 
L 194.147976 43.612029 
L 194.205696 41.544077 
L 194.259062 39.476125 
L 194.310225 37.408173 
L 194.361563 35.34022 
L 194.415466 33.272268 
L 194.474102 31.204316 
L 194.53922 29.136364 
L 197.568735 29.136364 
L 197.568735 29.136364 
L 197.633852 31.204316 
L 197.692489 33.272268 
L 197.746391 35.34022 
L 197.79773 37.408173 
L 197.848893 39.476125 
L 197.902258 41.544077 
L 197.959979 43.612029 
L 198.023796 45.679982 
L 198.094915 47.747934 
L 198.173952 49.815886 
L 198.26096 51.883838 
L 198.355534 53.951791 
L 198.456981 56.019743 
L 198.564526 58.087695 
L 198.677552 60.155647 
L 198.795805 62.2236 
L 198.919585 64.291552 
L 199.049853 66.359504 
L 199.18828 68.427456 
L 199.337196 70.495409 
L 199.499463 72.563361 
L 199.678282 74.631313 
L 199.876948 76.699265 
L 200.098581 78.767218 
L 200.345868 80.83517 
L 200.620844 82.903122 
L 200.924736 84.971074 
L 201.257891 87.039027 
L 201.6198 89.106979 
L 202.009218 91.174931 
L 202.424365 93.242883 
L 202.863191 95.310836 
L 203.323673 97.378788 
L 203.804105 99.44674 
L 204.30335 101.514692 
L 204.821022 103.582645 
L 205.357566 105.650597 
L 205.914229 107.718549 
L 206.492913 109.786501 
L 207.095924 111.854454 
L 207.725639 113.922406 
L 208.38412 115.990358 
L 209.072709 118.05831 
L 209.791657 120.126263 
L 210.539794 122.194215 
L 211.314305 124.262167 
L 212.110615 126.330119 
L 212.922392 128.398072 
L 213.741696 130.466024 
L 214.559245 132.533976 
L 215.364779 134.601928 
L 216.147523 136.669881 
L 216.89668 138.737833 
L 217.601944 140.805785 
L 218.253969 142.873737 
L 218.844774 144.94169 
L 219.368037 147.009642 
L 219.819255 149.077594 
L 220.195765 151.145546 
L 220.496612 153.213499 
L 220.722313 155.281451 
L 220.874512 157.349403 
L 220.9556 159.417355 
L 220.968337 161.485308 
L 220.915512 163.55326 
L 220.799704 165.621212 
L 220.623149 167.689164 
L 220.387729 169.757117 
L 220.095079 171.825069 
L 219.746783 173.893021 
L 219.344613 175.960973 
L 218.890781 178.028926 
L 218.388145 180.096878 
L 217.840343 182.16483 
L 217.251815 184.232782 
L 216.627718 186.300735 
L 215.973728 188.368687 
L 215.295763 190.436639 
L 214.59966 192.504591 
L 213.890838 194.572544 
L 213.174019 196.640496 
L 212.453002 198.708448 
L 211.730562 200.7764 
L 211.008449 202.844353 
L 210.28751 204.912305 
L 209.567896 206.980257 
L 208.849347 209.048209 
L 208.131496 211.116162 
L 207.414175 213.184114 
L 206.697671 215.252066 
L 205.98293 217.320018 
L 205.271661 219.387971 
L 204.566361 221.455923 
L 203.870254 223.523875 
L 203.18716 225.591827 
L 202.521303 227.65978 
L 201.877099 229.727732 
L 201.258929 231.795684 
L 200.670916 233.863636 
z
" style="fill:#1f77b4;fill-opacity:0.3;"/>
   </g>
   <g id="PolyCollection_3">
    <path clip-path="url(#p5a1a46245b)" d="M 299.178271 228.795823 
L 292.244559 228.795823 
L 291.651965 228.019691 
L 290.992271 227.243559 
L 290.263532 226.467427 
L 289.465319 225.691294 
L 288.599163 224.915162 
L 287.668945 224.13903 
L 286.681177 223.362898 
L 285.645118 222.586766 
L 284.57269 221.810634 
L 283.478162 221.034501 
L 282.377617 220.258369 
L 281.288189 219.482237 
L 280.227134 218.706105 
L 279.210782 217.929973 
L 278.253472 217.15384 
L 277.36655 216.377708 
L 276.55757 215.601576 
L 275.82978 214.825444 
L 275.181997 214.049312 
L 274.608909 213.273179 
L 274.101816 212.497047 
L 273.649746 211.720915 
L 273.240847 210.944783 
L 272.863917 210.168651 
L 272.509901 209.392519 
L 272.173216 208.616386 
L 271.852737 207.840254 
L 271.552374 207.064122 
L 271.281151 206.28799 
L 271.052787 205.511858 
L 270.88478 204.735725 
L 270.797056 203.959593 
L 270.810256 203.183461 
L 270.943782 202.407329 
L 271.213748 201.631197 
L 271.631007 200.855064 
L 272.199477 200.078932 
L 272.91495 199.3028 
L 273.764587 198.526668 
L 274.72722 197.750536 
L 275.774503 196.974403 
L 276.872851 196.198271 
L 277.985991 195.422139 
L 279.077866 194.646007 
L 280.115552 193.869875 
L 281.071872 193.093743 
L 281.927403 192.31761 
L 282.671679 191.541478 
L 283.303479 190.765346 
L 283.830229 189.989214 
L 284.266648 189.213082 
L 284.632826 188.436949 
L 284.951989 187.660817 
L 285.248193 186.884685 
L 285.544172 186.108553 
L 285.85952 185.332421 
L 286.209338 184.556288 
L 286.603408 183.780156 
L 287.045909 183.004024 
L 287.535658 182.227892 
L 288.066779 181.45176 
L 288.629722 180.675628 
L 289.212485 179.899495 
L 289.801918 179.123363 
L 290.384969 178.347231 
L 290.949755 177.571099 
L 291.48638 176.794967 
L 291.987431 176.018834 
L 292.448165 175.242702 
L 292.866393 174.46657 
L 293.242134 173.690438 
L 293.577117 172.914306 
L 293.874213 172.138173 
L 294.13688 171.362041 
L 294.368688 170.585909 
L 294.572962 169.809777 
L 294.752554 169.033645 
L 294.909749 168.257513 
L 295.046276 167.48138 
L 295.163385 166.705248 
L 295.261964 165.929116 
L 295.342671 165.152984 
L 295.406044 164.376852 
L 295.452599 163.600719 
L 295.482908 162.824587 
L 295.497658 162.048455 
L 295.497715 161.272323 
L 295.484183 160.496191 
L 295.45847 159.720058 
L 295.422341 158.943926 
L 295.377961 158.167794 
L 295.327902 157.391662 
L 295.275097 156.61553 
L 295.222734 155.839397 
L 295.174098 155.063265 
L 295.132356 154.287133 
L 295.100321 153.511001 
L 295.080219 152.734869 
L 295.073494 151.958737 
L 296.349336 151.958737 
L 296.349336 151.958737 
L 296.342612 152.734869 
L 296.32251 153.511001 
L 296.290475 154.287133 
L 296.248733 155.063265 
L 296.200097 155.839397 
L 296.147734 156.61553 
L 296.094928 157.391662 
L 296.04487 158.167794 
L 296.00049 158.943926 
L 295.964361 159.720058 
L 295.938647 160.496191 
L 295.925116 161.272323 
L 295.925173 162.048455 
L 295.939923 162.824587 
L 295.970231 163.600719 
L 296.016787 164.376852 
L 296.08016 165.152984 
L 296.160867 165.929116 
L 296.259446 166.705248 
L 296.376554 167.48138 
L 296.513081 168.257513 
L 296.670277 169.033645 
L 296.849868 169.809777 
L 297.054142 170.585909 
L 297.285951 171.362041 
L 297.548618 172.138173 
L 297.845713 172.914306 
L 298.180696 173.690438 
L 298.556438 174.46657 
L 298.974665 175.242702 
L 299.4354 176.018834 
L 299.936451 176.794967 
L 300.473075 177.571099 
L 301.037862 178.347231 
L 301.620913 179.123363 
L 302.210346 179.899495 
L 302.793109 180.675628 
L 303.356052 181.45176 
L 303.887173 182.227892 
L 304.376921 183.004024 
L 304.819423 183.780156 
L 305.213492 184.556288 
L 305.563311 185.332421 
L 305.878659 186.108553 
L 306.174637 186.884685 
L 306.470841 187.660817 
L 306.790004 188.436949 
L 307.156182 189.213082 
L 307.592601 189.989214 
L 308.119351 190.765346 
L 308.751151 191.541478 
L 309.495428 192.31761 
L 310.350959 193.093743 
L 311.307278 193.869875 
L 312.344964 194.646007 
L 313.436839 195.422139 
L 314.54998 196.198271 
L 315.648328 196.974403 
L 316.695611 197.750536 
L 317.658244 198.526668 
L 318.507881 199.3028 
L 319.223353 200.078932 
L 319.791823 200.855064 
L 320.209083 201.631197 
L 320.479048 202.407329 
L 320.612575 203.183461 
L 320.625775 203.959593 
L 320.538051 204.735725 
L 320.370044 205.511858 
L 320.14168 206.28799 
L 319.870457 207.064122 
L 319.570094 207.840254 
L 319.249615 208.616386 
L 318.912929 209.392519 
L 318.558914 210.168651 
L 318.181983 210.944783 
L 317.773084 211.720915 
L 317.321014 212.497047 
L 316.813922 213.273179 
L 316.240834 214.049312 
L 315.593051 214.825444 
L 314.865261 215.601576 
L 314.056281 216.377708 
L 313.169359 217.15384 
L 312.212049 217.929973 
L 311.195697 218.706105 
L 310.134641 219.482237 
L 309.045213 220.258369 
L 307.944668 221.034501 
L 306.850141 221.810634 
L 305.777712 222.586766 
L 304.741654 223.362898 
L 303.753886 224.13903 
L 302.823668 224.915162 
L 301.957511 225.691294 
L 301.159298 226.467427 
L 300.43056 227.243559 
L 299.770865 228.019691 
L 299.178271 228.795823 
z
" style="fill:#1f77b4;fill-opacity:0.3;"/>
   </g>
   <g id="matplotlib.axis_1">
    <g id="xtick_1">
     <g id="line2d_1">
      <defs>
       <path d="M 0 0 
L 0 3.5 
" id="mf93f712c42" style="stroke:#000000;stroke-width:0.8;"/>
      </defs>
      <g>
       <use style="stroke:#000000;stroke-width:0.8;" x="96.396539" xlink:href="#mf93f712c42" y="244.1"/>
      </g>
     </g>
     <g id="text_1">
      <!-- Our Method -->
      <g transform="translate(44.767438 264.397266)scale(0.175 -0.175)">
       <defs>
        <path d="M 39.40625 66.21875 
Q 28.65625 66.21875 22.328125 58.203125 
Q 16.015625 50.203125 16.015625 36.375 
Q 16.015625 22.609375 22.328125 14.59375 
Q 28.65625 6.59375 39.40625 6.59375 
Q 50.140625 6.59375 56.421875 14.59375 
Q 62.703125 22.609375 62.703125 36.375 
Q 62.703125 50.203125 56.421875 58.203125 
Q 50.140625 66.21875 39.40625 66.21875 
z
M 39.40625 74.21875 
Q 54.734375 74.21875 63.90625 63.9375 
Q 73.09375 53.65625 73.09375 36.375 
Q 73.09375 19.140625 63.90625 8.859375 
Q 54.734375 -1.421875 39.40625 -1.421875 
Q 24.03125 -1.421875 14.8125 8.828125 
Q 5.609375 19.09375 5.609375 36.375 
Q 5.609375 53.65625 14.8125 63.9375 
Q 24.03125 74.21875 39.40625 74.21875 
z
" id="DejaVuSans-79"/>
        <path d="M 8.5 21.578125 
L 8.5 54.6875 
L 17.484375 54.6875 
L 17.484375 21.921875 
Q 17.484375 14.15625 20.5 10.265625 
Q 23.53125 6.390625 29.59375 6.390625 
Q 36.859375 6.390625 41.078125 11.03125 
Q 45.3125 15.671875 45.3125 23.6875 
L 45.3125 54.6875 
L 54.296875 54.6875 
L 54.296875 0 
L 45.3125 0 
L 45.3125 8.40625 
Q 42.046875 3.421875 37.71875 1 
Q 33.40625 -1.421875 27.6875 -1.421875 
Q 18.265625 -1.421875 13.375 4.4375 
Q 8.5 10.296875 8.5 21.578125 
z
M 31.109375 56 
z
" id="DejaVuSans-117"/>
        <path d="M 41.109375 46.296875 
Q 39.59375 47.171875 37.8125 47.578125 
Q 36.03125 48 33.890625 48 
Q 26.265625 48 22.1875 43.046875 
Q 18.109375 38.09375 18.109375 28.8125 
L 18.109375 0 
L 9.078125 0 
L 9.078125 54.6875 
L 18.109375 54.6875 
L 18.109375 46.1875 
Q 20.953125 51.171875 25.484375 53.578125 
Q 30.03125 56 36.53125 56 
Q 37.453125 56 38.578125 55.875 
Q 39.703125 55.765625 41.0625 55.515625 
z
" id="DejaVuSans-114"/>
        <path id="DejaVuSans-32"/>
        <path d="M 9.8125 72.90625 
L 24.515625 72.90625 
L 43.109375 23.296875 
L 61.8125 72.90625 
L 76.515625 72.90625 
L 76.515625 0 
L 66.890625 0 
L 66.890625 64.015625 
L 48.09375 14.015625 
L 38.1875 14.015625 
L 19.390625 64.015625 
L 19.390625 0 
L 9.8125 0 
z
" id="DejaVuSans-77"/>
        <path d="M 56.203125 29.59375 
L 56.203125 25.203125 
L 14.890625 25.203125 
Q 15.484375 15.921875 20.484375 11.0625 
Q 25.484375 6.203125 34.421875 6.203125 
Q 39.59375 6.203125 44.453125 7.46875 
Q 49.3125 8.734375 54.109375 11.28125 
L 54.109375 2.78125 
Q 49.265625 0.734375 44.1875 -0.34375 
Q 39.109375 -1.421875 33.890625 -1.421875 
Q 20.796875 -1.421875 13.15625 6.1875 
Q 5.515625 13.8125 5.515625 26.8125 
Q 5.515625 40.234375 12.765625 48.109375 
Q 20.015625 56 32.328125 56 
Q 43.359375 56 49.78125 48.890625 
Q 56.203125 41.796875 56.203125 29.59375 
z
M 47.21875 32.234375 
Q 47.125 39.59375 43.09375 43.984375 
Q 39.0625 48.390625 32.421875 48.390625 
Q 24.90625 48.390625 20.390625 44.140625 
Q 15.875 39.890625 15.1875 32.171875 
z
" id="DejaVuSans-101"/>
        <path d="M 18.3125 70.21875 
L 18.3125 54.6875 
L 36.8125 54.6875 
L 36.8125 47.703125 
L 18.3125 47.703125 
L 18.3125 18.015625 
Q 18.3125 11.328125 20.140625 9.421875 
Q 21.96875 7.515625 27.59375 7.515625 
L 36.8125 7.515625 
L 36.8125 0 
L 27.59375 0 
Q 17.1875 0 13.234375 3.875 
Q 9.28125 7.765625 9.28125 18.015625 
L 9.28125 47.703125 
L 2.6875 47.703125 
L 2.6875 54.6875 
L 9.28125 54.6875 
L 9.28125 70.21875 
z
" id="DejaVuSans-116"/>
        <path d="M 54.890625 33.015625 
L 54.890625 0 
L 45.90625 0 
L 45.90625 32.71875 
Q 45.90625 40.484375 42.875 44.328125 
Q 39.84375 48.1875 33.796875 48.1875 
Q 26.515625 48.1875 22.3125 43.546875 
Q 18.109375 38.921875 18.109375 30.90625 
L 18.109375 0 
L 9.078125 0 
L 9.078125 75.984375 
L 18.109375 75.984375 
L 18.109375 46.1875 
Q 21.34375 51.125 25.703125 53.5625 
Q 30.078125 56 35.796875 56 
Q 45.21875 56 50.046875 50.171875 
Q 54.890625 44.34375 54.890625 33.015625 
z
" id="DejaVuSans-104"/>
        <path d="M 30.609375 48.390625 
Q 23.390625 48.390625 19.1875 42.75 
Q 14.984375 37.109375 14.984375 27.296875 
Q 14.984375 17.484375 19.15625 11.84375 
Q 23.34375 6.203125 30.609375 6.203125 
Q 37.796875 6.203125 41.984375 11.859375 
Q 46.1875 17.53125 46.1875 27.296875 
Q 46.1875 37.015625 41.984375 42.703125 
Q 37.796875 48.390625 30.609375 48.390625 
z
M 30.609375 56 
Q 42.328125 56 49.015625 48.375 
Q 55.71875 40.765625 55.71875 27.296875 
Q 55.71875 13.875 49.015625 6.21875 
Q 42.328125 -1.421875 30.609375 -1.421875 
Q 18.84375 -1.421875 12.171875 6.21875 
Q 5.515625 13.875 5.515625 27.296875 
Q 5.515625 40.765625 12.171875 48.375 
Q 18.84375 56 30.609375 56 
z
" id="DejaVuSans-111"/>
        <path d="M 45.40625 46.390625 
L 45.40625 75.984375 
L 54.390625 75.984375 
L 54.390625 0 
L 45.40625 0 
L 45.40625 8.203125 
Q 42.578125 3.328125 38.25 0.953125 
Q 33.9375 -1.421875 27.875 -1.421875 
Q 17.96875 -1.421875 11.734375 6.484375 
Q 5.515625 14.40625 5.515625 27.296875 
Q 5.515625 40.1875 11.734375 48.09375 
Q 17.96875 56 27.875 56 
Q 33.9375 56 38.25 53.625 
Q 42.578125 51.265625 45.40625 46.390625 
z
M 14.796875 27.296875 
Q 14.796875 17.390625 18.875 11.75 
Q 22.953125 6.109375 30.078125 6.109375 
Q 37.203125 6.109375 41.296875 11.75 
Q 45.40625 17.390625 45.40625 27.296875 
Q 45.40625 37.203125 41.296875 42.84375 
Q 37.203125 48.484375 30.078125 48.484375 
Q 22.953125 48.484375 18.875 42.84375 
Q 14.796875 37.203125 14.796875 27.296875 
z
" id="DejaVuSans-100"/>
       </defs>
       <use xlink:href="#DejaVuSans-79"/>
       <use x="78.710938" xlink:href="#DejaVuSans-117"/>
       <use x="142.089844" xlink:href="#DejaVuSans-114"/>
       <use x="183.203125" xlink:href="#DejaVuSans-32"/>
       <use x="214.990234" xlink:href="#DejaVuSans-77"/>
       <use x="301.269531" xlink:href="#DejaVuSans-101"/>
       <use x="362.792969" xlink:href="#DejaVuSans-116"/>
       <use x="402.001953" xlink:href="#DejaVuSans-104"/>
       <use x="465.380859" xlink:href="#DejaVuSans-111"/>
       <use x="526.5625" xlink:href="#DejaVuSans-100"/>
      </g>
     </g>
    </g>
    <g id="xtick_2">
     <g id="line2d_2">
      <g>
       <use style="stroke:#000000;stroke-width:0.8;" x="196.053977" xlink:href="#mf93f712c42" y="244.1"/>
      </g>
     </g>
     <g id="text_2">
      <!-- Stein's -->
      <g transform="translate(166.745579 264.397266)scale(0.175 -0.175)">
       <defs>
        <path d="M 53.515625 70.515625 
L 53.515625 60.890625 
Q 47.90625 63.578125 42.921875 64.890625 
Q 37.9375 66.21875 33.296875 66.21875 
Q 25.25 66.21875 20.875 63.09375 
Q 16.5 59.96875 16.5 54.203125 
Q 16.5 49.359375 19.40625 46.890625 
Q 22.3125 44.4375 30.421875 42.921875 
L 36.375 41.703125 
Q 47.40625 39.59375 52.65625 34.296875 
Q 57.90625 29 57.90625 20.125 
Q 57.90625 9.515625 50.796875 4.046875 
Q 43.703125 -1.421875 29.984375 -1.421875 
Q 24.8125 -1.421875 18.96875 -0.25 
Q 13.140625 0.921875 6.890625 3.21875 
L 6.890625 13.375 
Q 12.890625 10.015625 18.65625 8.296875 
Q 24.421875 6.59375 29.984375 6.59375 
Q 38.421875 6.59375 43.015625 9.90625 
Q 47.609375 13.234375 47.609375 19.390625 
Q 47.609375 24.75 44.3125 27.78125 
Q 41.015625 30.8125 33.5 32.328125 
L 27.484375 33.5 
Q 16.453125 35.6875 11.515625 40.375 
Q 6.59375 45.0625 6.59375 53.421875 
Q 6.59375 63.09375 13.40625 68.65625 
Q 20.21875 74.21875 32.171875 74.21875 
Q 37.3125 74.21875 42.625 73.28125 
Q 47.953125 72.359375 53.515625 70.515625 
z
" id="DejaVuSans-83"/>
        <path d="M 9.421875 54.6875 
L 18.40625 54.6875 
L 18.40625 0 
L 9.421875 0 
z
M 9.421875 75.984375 
L 18.40625 75.984375 
L 18.40625 64.59375 
L 9.421875 64.59375 
z
" id="DejaVuSans-105"/>
        <path d="M 54.890625 33.015625 
L 54.890625 0 
L 45.90625 0 
L 45.90625 32.71875 
Q 45.90625 40.484375 42.875 44.328125 
Q 39.84375 48.1875 33.796875 48.1875 
Q 26.515625 48.1875 22.3125 43.546875 
Q 18.109375 38.921875 18.109375 30.90625 
L 18.109375 0 
L 9.078125 0 
L 9.078125 54.6875 
L 18.109375 54.6875 
L 18.109375 46.1875 
Q 21.34375 51.125 25.703125 53.5625 
Q 30.078125 56 35.796875 56 
Q 45.21875 56 50.046875 50.171875 
Q 54.890625 44.34375 54.890625 33.015625 
z
" id="DejaVuSans-110"/>
        <path d="M 17.921875 72.90625 
L 17.921875 45.796875 
L 9.625 45.796875 
L 9.625 72.90625 
z
" id="DejaVuSans-39"/>
        <path d="M 44.28125 53.078125 
L 44.28125 44.578125 
Q 40.484375 46.53125 36.375 47.5 
Q 32.28125 48.484375 27.875 48.484375 
Q 21.1875 48.484375 17.84375 46.4375 
Q 14.5 44.390625 14.5 40.28125 
Q 14.5 37.15625 16.890625 35.375 
Q 19.28125 33.59375 26.515625 31.984375 
L 29.59375 31.296875 
Q 39.15625 29.25 43.1875 25.515625 
Q 47.21875 21.78125 47.21875 15.09375 
Q 47.21875 7.46875 41.1875 3.015625 
Q 35.15625 -1.421875 24.609375 -1.421875 
Q 20.21875 -1.421875 15.453125 -0.5625 
Q 10.6875 0.296875 5.421875 2 
L 5.421875 11.28125 
Q 10.40625 8.6875 15.234375 7.390625 
Q 20.0625 6.109375 24.8125 6.109375 
Q 31.15625 6.109375 34.5625 8.28125 
Q 37.984375 10.453125 37.984375 14.40625 
Q 37.984375 18.0625 35.515625 20.015625 
Q 33.0625 21.96875 24.703125 23.78125 
L 21.578125 24.515625 
Q 13.234375 26.265625 9.515625 29.90625 
Q 5.8125 33.546875 5.8125 39.890625 
Q 5.8125 47.609375 11.28125 51.796875 
Q 16.75 56 26.8125 56 
Q 31.78125 56 36.171875 55.265625 
Q 40.578125 54.546875 44.28125 53.078125 
z
" id="DejaVuSans-115"/>
       </defs>
       <use xlink:href="#DejaVuSans-83"/>
       <use x="63.476562" xlink:href="#DejaVuSans-116"/>
       <use x="102.685547" xlink:href="#DejaVuSans-101"/>
       <use x="164.208984" xlink:href="#DejaVuSans-105"/>
       <use x="191.992188" xlink:href="#DejaVuSans-110"/>
       <use x="255.371094" xlink:href="#DejaVuSans-39"/>
       <use x="282.861328" xlink:href="#DejaVuSans-115"/>
      </g>
     </g>
    </g>
    <g id="xtick_3">
     <g id="line2d_3">
      <g>
       <use style="stroke:#000000;stroke-width:0.8;" x="295.711415" xlink:href="#mf93f712c42" y="244.1"/>
      </g>
     </g>
     <g id="text_3">
      <!-- Entry-wise -->
      <g transform="translate(249.898329 264.397266)scale(0.175 -0.175)">
       <defs>
        <path d="M 9.8125 72.90625 
L 55.90625 72.90625 
L 55.90625 64.59375 
L 19.671875 64.59375 
L 19.671875 43.015625 
L 54.390625 43.015625 
L 54.390625 34.71875 
L 19.671875 34.71875 
L 19.671875 8.296875 
L 56.78125 8.296875 
L 56.78125 0 
L 9.8125 0 
z
" id="DejaVuSans-69"/>
        <path d="M 32.171875 -5.078125 
Q 28.375 -14.84375 24.75 -17.8125 
Q 21.140625 -20.796875 15.09375 -20.796875 
L 7.90625 -20.796875 
L 7.90625 -13.28125 
L 13.1875 -13.28125 
Q 16.890625 -13.28125 18.9375 -11.515625 
Q 21 -9.765625 23.484375 -3.21875 
L 25.09375 0.875 
L 2.984375 54.6875 
L 12.5 54.6875 
L 29.59375 11.921875 
L 46.6875 54.6875 
L 56.203125 54.6875 
z
" id="DejaVuSans-121"/>
        <path d="M 4.890625 31.390625 
L 31.203125 31.390625 
L 31.203125 23.390625 
L 4.890625 23.390625 
z
" id="DejaVuSans-45"/>
        <path d="M 4.203125 54.6875 
L 13.1875 54.6875 
L 24.421875 12.015625 
L 35.59375 54.6875 
L 46.1875 54.6875 
L 57.421875 12.015625 
L 68.609375 54.6875 
L 77.59375 54.6875 
L 63.28125 0 
L 52.6875 0 
L 40.921875 44.828125 
L 29.109375 0 
L 18.5 0 
z
" id="DejaVuSans-119"/>
       </defs>
       <use xlink:href="#DejaVuSans-69"/>
       <use x="63.183594" xlink:href="#DejaVuSans-110"/>
       <use x="126.5625" xlink:href="#DejaVuSans-116"/>
       <use x="165.771484" xlink:href="#DejaVuSans-114"/>
       <use x="206.884766" xlink:href="#DejaVuSans-121"/>
       <use x="264.314453" xlink:href="#DejaVuSans-45"/>
       <use x="300.398438" xlink:href="#DejaVuSans-119"/>
       <use x="382.185547" xlink:href="#DejaVuSans-105"/>
       <use x="409.96875" xlink:href="#DejaVuSans-115"/>
       <use x="462.068359" xlink:href="#DejaVuSans-101"/>
      </g>
     </g>
    </g>
   </g>
   <g id="matplotlib.axis_2">
    <g id="ytick_1">
     <g id="line2d_4">
      <defs>
       <path d="M 0 0 
L -3.5 0 
" id="maad09a22fd" style="stroke:#000000;stroke-width:0.8;"/>
      </defs>
      <g>
       <use style="stroke:#000000;stroke-width:0.8;" x="59.025" xlink:href="#maad09a22fd" y="241.80879"/>
      </g>
     </g>
     <g id="text_4">
      <!-- 0 -->
      <g transform="translate(40.890625 248.457423)scale(0.175 -0.175)">
       <defs>
        <path d="M 31.78125 66.40625 
Q 24.171875 66.40625 20.328125 58.90625 
Q 16.5 51.421875 16.5 36.375 
Q 16.5 21.390625 20.328125 13.890625 
Q 24.171875 6.390625 31.78125 6.390625 
Q 39.453125 6.390625 43.28125 13.890625 
Q 47.125 21.390625 47.125 36.375 
Q 47.125 51.421875 43.28125 58.90625 
Q 39.453125 66.40625 31.78125 66.40625 
z
M 31.78125 74.21875 
Q 44.046875 74.21875 50.515625 64.515625 
Q 56.984375 54.828125 56.984375 36.375 
Q 56.984375 17.96875 50.515625 8.265625 
Q 44.046875 -1.421875 31.78125 -1.421875 
Q 19.53125 -1.421875 13.0625 8.265625 
Q 6.59375 17.96875 6.59375 36.375 
Q 6.59375 54.828125 13.0625 64.515625 
Q 19.53125 74.21875 31.78125 74.21875 
z
" id="DejaVuSans-48"/>
       </defs>
       <use xlink:href="#DejaVuSans-48"/>
      </g>
     </g>
    </g>
    <g id="ytick_2">
     <g id="line2d_5">
      <g>
       <use style="stroke:#000000;stroke-width:0.8;" x="59.025" xlink:href="#maad09a22fd" y="175.992334"/>
      </g>
     </g>
     <g id="text_5">
      <!-- 2 -->
      <g transform="translate(40.890625 182.640967)scale(0.175 -0.175)">
       <defs>
        <path d="M 19.1875 8.296875 
L 53.609375 8.296875 
L 53.609375 0 
L 7.328125 0 
L 7.328125 8.296875 
Q 12.9375 14.109375 22.625 23.890625 
Q 32.328125 33.6875 34.8125 36.53125 
Q 39.546875 41.84375 41.421875 45.53125 
Q 43.3125 49.21875 43.3125 52.78125 
Q 43.3125 58.59375 39.234375 62.25 
Q 35.15625 65.921875 28.609375 65.921875 
Q 23.96875 65.921875 18.8125 64.3125 
Q 13.671875 62.703125 7.8125 59.421875 
L 7.8125 69.390625 
Q 13.765625 71.78125 18.9375 73 
Q 24.125 74.21875 28.421875 74.21875 
Q 39.75 74.21875 46.484375 68.546875 
Q 53.21875 62.890625 53.21875 53.421875 
Q 53.21875 48.921875 51.53125 44.890625 
Q 49.859375 40.875 45.40625 35.40625 
Q 44.1875 33.984375 37.640625 27.21875 
Q 31.109375 20.453125 19.1875 8.296875 
z
" id="DejaVuSans-50"/>
       </defs>
       <use xlink:href="#DejaVuSans-50"/>
      </g>
     </g>
    </g>
    <g id="ytick_3">
     <g id="line2d_6">
      <g>
       <use style="stroke:#000000;stroke-width:0.8;" x="59.025" xlink:href="#maad09a22fd" y="110.175879"/>
      </g>
     </g>
     <g id="text_6">
      <!-- 4 -->
      <g transform="translate(40.890625 116.824511)scale(0.175 -0.175)">
       <defs>
        <path d="M 37.796875 64.3125 
L 12.890625 25.390625 
L 37.796875 25.390625 
z
M 35.203125 72.90625 
L 47.609375 72.90625 
L 47.609375 25.390625 
L 58.015625 25.390625 
L 58.015625 17.1875 
L 47.609375 17.1875 
L 47.609375 0 
L 37.796875 0 
L 37.796875 17.1875 
L 4.890625 17.1875 
L 4.890625 26.703125 
z
" id="DejaVuSans-52"/>
       </defs>
       <use xlink:href="#DejaVuSans-52"/>
      </g>
     </g>
    </g>
    <g id="ytick_4">
     <g id="line2d_7">
      <g>
       <use style="stroke:#000000;stroke-width:0.8;" x="59.025" xlink:href="#maad09a22fd" y="44.359423"/>
      </g>
     </g>
     <g id="text_7">
      <!-- 6 -->
      <g transform="translate(40.890625 51.008056)scale(0.175 -0.175)">
       <defs>
        <path d="M 33.015625 40.375 
Q 26.375 40.375 22.484375 35.828125 
Q 18.609375 31.296875 18.609375 23.390625 
Q 18.609375 15.53125 22.484375 10.953125 
Q 26.375 6.390625 33.015625 6.390625 
Q 39.65625 6.390625 43.53125 10.953125 
Q 47.40625 15.53125 47.40625 23.390625 
Q 47.40625 31.296875 43.53125 35.828125 
Q 39.65625 40.375 33.015625 40.375 
z
M 52.59375 71.296875 
L 52.59375 62.3125 
Q 48.875 64.0625 45.09375 64.984375 
Q 41.3125 65.921875 37.59375 65.921875 
Q 27.828125 65.921875 22.671875 59.328125 
Q 17.53125 52.734375 16.796875 39.40625 
Q 19.671875 43.65625 24.015625 45.921875 
Q 28.375 48.1875 33.59375 48.1875 
Q 44.578125 48.1875 50.953125 41.515625 
Q 57.328125 34.859375 57.328125 23.390625 
Q 57.328125 12.15625 50.6875 5.359375 
Q 44.046875 -1.421875 33.015625 -1.421875 
Q 20.359375 -1.421875 13.671875 8.265625 
Q 6.984375 17.96875 6.984375 36.375 
Q 6.984375 53.65625 15.1875 63.9375 
Q 23.390625 74.21875 37.203125 74.21875 
Q 40.921875 74.21875 44.703125 73.484375 
Q 48.484375 72.75 52.59375 71.296875 
z
" id="DejaVuSans-54"/>
       </defs>
       <use xlink:href="#DejaVuSans-54"/>
      </g>
     </g>
    </g>
    <g id="text_8">
     <!-- Estimation Error -->
     <g transform="translate(33.251172 202.198633)rotate(-90)scale(0.175 -0.175)">
      <defs>
       <path d="M 52 44.1875 
Q 55.375 50.25 60.0625 53.125 
Q 64.75 56 71.09375 56 
Q 79.640625 56 84.28125 50.015625 
Q 88.921875 44.046875 88.921875 33.015625 
L 88.921875 0 
L 79.890625 0 
L 79.890625 32.71875 
Q 79.890625 40.578125 77.09375 44.375 
Q 74.3125 48.1875 68.609375 48.1875 
Q 61.625 48.1875 57.5625 43.546875 
Q 53.515625 38.921875 53.515625 30.90625 
L 53.515625 0 
L 44.484375 0 
L 44.484375 32.71875 
Q 44.484375 40.625 41.703125 44.40625 
Q 38.921875 48.1875 33.109375 48.1875 
Q 26.21875 48.1875 22.15625 43.53125 
Q 18.109375 38.875 18.109375 30.90625 
L 18.109375 0 
L 9.078125 0 
L 9.078125 54.6875 
L 18.109375 54.6875 
L 18.109375 46.1875 
Q 21.1875 51.21875 25.484375 53.609375 
Q 29.78125 56 35.6875 56 
Q 41.65625 56 45.828125 52.96875 
Q 50 49.953125 52 44.1875 
z
" id="DejaVuSans-109"/>
       <path d="M 34.28125 27.484375 
Q 23.390625 27.484375 19.1875 25 
Q 14.984375 22.515625 14.984375 16.5 
Q 14.984375 11.71875 18.140625 8.90625 
Q 21.296875 6.109375 26.703125 6.109375 
Q 34.1875 6.109375 38.703125 11.40625 
Q 43.21875 16.703125 43.21875 25.484375 
L 43.21875 27.484375 
z
M 52.203125 31.203125 
L 52.203125 0 
L 43.21875 0 
L 43.21875 8.296875 
Q 40.140625 3.328125 35.546875 0.953125 
Q 30.953125 -1.421875 24.3125 -1.421875 
Q 15.921875 -1.421875 10.953125 3.296875 
Q 6 8.015625 6 15.921875 
Q 6 25.140625 12.171875 29.828125 
Q 18.359375 34.515625 30.609375 34.515625 
L 43.21875 34.515625 
L 43.21875 35.40625 
Q 43.21875 41.609375 39.140625 45 
Q 35.0625 48.390625 27.6875 48.390625 
Q 23 48.390625 18.546875 47.265625 
Q 14.109375 46.140625 10.015625 43.890625 
L 10.015625 52.203125 
Q 14.9375 54.109375 19.578125 55.046875 
Q 24.21875 56 28.609375 56 
Q 40.484375 56 46.34375 49.84375 
Q 52.203125 43.703125 52.203125 31.203125 
z
" id="DejaVuSans-97"/>
      </defs>
      <use xlink:href="#DejaVuSans-69"/>
      <use x="63.183594" xlink:href="#DejaVuSans-115"/>
      <use x="115.283203" xlink:href="#DejaVuSans-116"/>
      <use x="154.492188" xlink:href="#DejaVuSans-105"/>
      <use x="182.275391" xlink:href="#DejaVuSans-109"/>
      <use x="279.6875" xlink:href="#DejaVuSans-97"/>
      <use x="340.966797" xlink:href="#DejaVuSans-116"/>
      <use x="380.175781" xlink:href="#DejaVuSans-105"/>
      <use x="407.958984" xlink:href="#DejaVuSans-111"/>
      <use x="469.140625" xlink:href="#DejaVuSans-110"/>
      <use x="532.519531" xlink:href="#DejaVuSans-32"/>
      <use x="564.306641" xlink:href="#DejaVuSans-69"/>
      <use x="627.490234" xlink:href="#DejaVuSans-114"/>
      <use x="666.853516" xlink:href="#DejaVuSans-114"/>
      <use x="705.716797" xlink:href="#DejaVuSans-111"/>
      <use x="766.898438" xlink:href="#DejaVuSans-114"/>
     </g>
    </g>
   </g>
   <g id="LineCollection_1">
    <path clip-path="url(#p5a1a46245b)" d="M 83.93936 177.937287 
L 108.853719 177.937287 
" style="fill:none;stroke:#1f77b4;stroke-width:1.5;"/>
    <path clip-path="url(#p5a1a46245b)" d="M 183.596798 29.136364 
L 208.511157 29.136364 
" style="fill:none;stroke:#1f77b4;stroke-width:1.5;"/>
    <path clip-path="url(#p5a1a46245b)" d="M 283.254236 151.958737 
L 308.168595 151.958737 
" style="fill:none;stroke:#1f77b4;stroke-width:1.5;"/>
   </g>
   <g id="LineCollection_2">
    <path clip-path="url(#p5a1a46245b)" d="M 83.93936 232.786732 
L 108.853719 232.786732 
" style="fill:none;stroke:#1f77b4;stroke-width:1.5;"/>
    <path clip-path="url(#p5a1a46245b)" d="M 183.596798 233.863636 
L 208.511157 233.863636 
" style="fill:none;stroke:#1f77b4;stroke-width:1.5;"/>
    <path clip-path="url(#p5a1a46245b)" d="M 283.254236 228.795823 
L 308.168595 228.795823 
" style="fill:none;stroke:#1f77b4;stroke-width:1.5;"/>
   </g>
   <g id="LineCollection_3">
    <path clip-path="url(#p5a1a46245b)" d="M 96.396539 232.786732 
L 96.396539 177.937287 
" style="fill:none;stroke:#1f77b4;stroke-width:1.5;"/>
    <path clip-path="url(#p5a1a46245b)" d="M 196.053977 233.863636 
L 196.053977 29.136364 
" style="fill:none;stroke:#1f77b4;stroke-width:1.5;"/>
    <path clip-path="url(#p5a1a46245b)" d="M 295.711415 228.795823 
L 295.711415 151.958737 
" style="fill:none;stroke:#1f77b4;stroke-width:1.5;"/>
   </g>
   <g id="patch_3">
    <path d="M 59.025 244.1 
L 59.025 18.9 
" style="fill:none;stroke:#000000;stroke-linecap:square;stroke-linejoin:miter;stroke-width:0.8;"/>
   </g>
   <g id="patch_4">
    <path d="M 333.082955 244.1 
L 333.082955 18.9 
" style="fill:none;stroke:#000000;stroke-linecap:square;stroke-linejoin:miter;stroke-width:0.8;"/>
   </g>
   <g id="patch_5">
    <path d="M 59.025 244.1 
L 333.082955 244.1 
" style="fill:none;stroke:#000000;stroke-linecap:square;stroke-linejoin:miter;stroke-width:0.8;"/>
   </g>
   <g id="patch_6">
    <path d="M 59.025 18.9 
L 333.082955 18.9 
" style="fill:none;stroke:#000000;stroke-linecap:square;stroke-linejoin:miter;stroke-width:0.8;"/>
   </g>
  </g>
 </g>
 <defs>
  <clipPath id="p5a1a46245b">
   <rect height="225.2" width="274.057955" x="59.025" y="18.9"/>
  </clipPath>
 </defs>
</svg>
