<?xml version="1.0" encoding="utf-8" standalone="no"?>
<!DOCTYPE svg PUBLIC "-//W3C//DTD SVG 1.1//EN"
  "http://www.w3.org/Graphics/SVG/1.1/DTD/svg11.dtd">
<!-- Created with matplotlib (https://matplotlib.org/) -->
<svg height="288pt" version="1.1" viewBox="0 0 360 288" width="360pt" xmlns="http://www.w3.org/2000/svg" xmlns:xlink="http://www.w3.org/1999/xlink">
 <metadata>
  <rdf:RDF xmlns:cc="http://creativecommons.org/ns#" xmlns:dc="http://purl.org/dc/elements/1.1/" xmlns:rdf="http://www.w3.org/1999/02/22-rdf-syntax-ns#">
   <cc:Work>
    <dc:type rdf:resource="http://purl.org/dc/dcmitype/StillImage"/>
    <dc:date>2022-09-25T00:48:12.353548</dc:date>
    <dc:format>image/svg+xml</dc:format>
    <dc:creator>
     <cc:Agent>
      <dc:title>Matplotlib v3.3.4, https://matplotlib.org/</dc:title>
     </cc:Agent>
    </dc:creator>
   </cc:Work>
  </rdf:RDF>
 </metadata>
 <defs>
  <style type="text/css">*{stroke-linecap:butt;stroke-linejoin:round;}</style>
 </defs>
 <g id="figure_1">
  <g id="patch_1">
   <path d="M 0 288 
L 360 288 
L 360 0 
L 0 0 
z
" style="fill:none;"/>
  </g>
  <g id="axes_1">
   <g id="patch_2">
    <path d="M 70.15 244.1 
L 333.082955 244.1 
L 333.082955 18.9 
L 70.15 18.9 
z
" style="fill:#ffffff;"/>
   </g>
   <g id="PolyCollection_1">
    <path clip-path="url(#p4446f39c48)" d="M 107.42051 233.863636 
L 104.588478 233.863636 
L 104.398477 233.386308 
L 104.18693 232.908979 
L 103.951157 232.43165 
L 103.688324 231.954322 
L 103.395503 231.476993 
L 103.069724 230.999665 
L 102.708012 230.522336 
L 102.30743 230.045007 
L 101.86511 229.567679 
L 101.378314 229.09035 
L 100.844504 228.613021 
L 100.261471 228.135693 
L 99.627488 227.658364 
L 98.941515 227.181035 
L 98.203422 226.703707 
L 97.41421 226.226378 
L 96.576211 225.74905 
L 95.693218 225.271721 
L 94.770538 224.794392 
L 93.814942 224.317064 
L 92.834515 223.839735 
L 91.838423 223.362406 
L 90.836631 222.885078 
L 89.83961 222.407749 
L 88.858072 221.93042 
L 87.902778 221.453092 
L 86.984424 220.975763 
L 86.113615 220.498434 
L 85.300898 220.021106 
L 84.556813 219.543777 
L 83.891903 219.066449 
L 83.316629 218.58912 
L 82.841151 218.111791 
L 82.474947 217.634463 
L 82.226269 217.157134 
L 82.101498 216.679805 
L 82.104441 216.202477 
L 82.235668 215.725148 
L 82.491983 215.247819 
L 82.866107 214.770491 
L 83.346646 214.293162 
L 83.918369 213.815834 
L 84.5628 213.338505 
L 85.259085 212.861176 
L 85.985067 212.383848 
L 86.718483 211.906519 
L 87.43819 211.42919 
L 88.125324 210.951862 
L 88.764318 210.474533 
L 89.343699 209.997204 
L 89.856629 209.519876 
L 90.30116 209.042547 
L 90.680181 208.565219 
L 91.001073 208.08789 
L 91.275078 207.610561 
L 91.51643 207.133233 
L 91.74128 206.655904 
L 91.966493 206.178575 
L 92.20839 205.701247 
L 92.481529 205.223918 
L 92.797616 204.746589 
L 93.164656 204.269261 
L 93.586395 203.791932 
L 94.06213 203.314603 
L 94.586901 202.837275 
L 95.152037 202.359946 
L 95.74601 201.882618 
L 96.355506 201.405289 
L 96.966594 200.92796 
L 97.565879 200.450632 
L 98.141516 199.973303 
L 98.684004 199.495974 
L 99.186678 199.018646 
L 99.645882 198.541317 
L 100.060839 198.063988 
L 100.43325 197.58666 
L 100.766719 197.109331 
L 101.066059 196.632003 
L 101.336604 196.154674 
L 101.583587 195.677345 
L 101.811655 195.200017 
L 102.024552 194.722688 
L 102.224997 194.245359 
L 102.414724 193.768031 
L 102.594661 193.290702 
L 102.765196 192.813373 
L 102.926473 192.336045 
L 103.07867 191.858716 
L 103.222221 191.381388 
L 103.357944 190.904059 
L 103.48708 190.42673 
L 103.611228 189.949402 
L 103.732215 189.472073 
L 103.851914 188.994744 
L 103.972048 188.517416 
L 104.094003 188.040087 
L 104.218689 187.562758 
L 104.346441 187.08543 
L 104.477002 186.608101 
L 107.531986 186.608101 
L 107.531986 186.608101 
L 107.662546 187.08543 
L 107.790299 187.562758 
L 107.914984 188.040087 
L 108.03694 188.517416 
L 108.157074 188.994744 
L 108.276773 189.472073 
L 108.397759 189.949402 
L 108.521907 190.42673 
L 108.651043 190.904059 
L 108.786767 191.381388 
L 108.930318 191.858716 
L 109.082515 192.336045 
L 109.243791 192.813373 
L 109.414326 193.290702 
L 109.594264 193.768031 
L 109.783991 194.245359 
L 109.984436 194.722688 
L 110.197333 195.200017 
L 110.4254 195.677345 
L 110.672384 196.154674 
L 110.942929 196.632003 
L 111.242269 197.109331 
L 111.575737 197.58666 
L 111.948149 198.063988 
L 112.363105 198.541317 
L 112.82231 199.018646 
L 113.324983 199.495974 
L 113.867472 199.973303 
L 114.443109 200.450632 
L 115.042393 200.92796 
L 115.653482 201.405289 
L 116.262978 201.882618 
L 116.856951 202.359946 
L 117.422087 202.837275 
L 117.946857 203.314603 
L 118.422593 203.791932 
L 118.844331 204.269261 
L 119.211371 204.746589 
L 119.527459 205.223918 
L 119.800597 205.701247 
L 120.042494 206.178575 
L 120.267707 206.655904 
L 120.492558 207.133233 
L 120.73391 207.610561 
L 121.007915 208.08789 
L 121.328807 208.565219 
L 121.707828 209.042547 
L 122.152359 209.519876 
L 122.665289 209.997204 
L 123.244669 210.474533 
L 123.883663 210.951862 
L 124.570798 211.42919 
L 125.290505 211.906519 
L 126.023921 212.383848 
L 126.749903 212.861176 
L 127.446188 213.338505 
L 128.090619 213.815834 
L 128.662341 214.293162 
L 129.14288 214.770491 
L 129.517005 215.247819 
L 129.77332 215.725148 
L 129.904547 216.202477 
L 129.90749 216.679805 
L 129.782719 217.157134 
L 129.534041 217.634463 
L 129.167836 218.111791 
L 128.692359 218.58912 
L 128.117085 219.066449 
L 127.452174 219.543777 
L 126.708089 220.021106 
L 125.895373 220.498434 
L 125.024563 220.975763 
L 124.106209 221.453092 
L 123.150916 221.93042 
L 122.169378 222.407749 
L 121.172357 222.885078 
L 120.170565 223.362406 
L 119.174472 223.839735 
L 118.194045 224.317064 
L 117.23845 224.794392 
L 116.31577 225.271721 
L 115.432777 225.74905 
L 114.594777 226.226378 
L 113.805566 226.703707 
L 113.067473 227.181035 
L 112.3815 227.658364 
L 111.747517 228.135693 
L 111.164484 228.613021 
L 110.630674 229.09035 
L 110.143877 229.567679 
L 109.701558 230.045007 
L 109.300975 230.522336 
L 108.939264 230.999665 
L 108.613484 231.476993 
L 108.320664 231.954322 
L 108.057831 232.43165 
L 107.822058 232.908979 
L 107.610511 233.386308 
L 107.42051 233.863636 
z
" style="fill:#1f77b4;fill-opacity:0.3;"/>
   </g>
   <g id="PolyCollection_2">
    <path clip-path="url(#p4446f39c48)" d="M 205.297766 158.849474 
L 197.935189 158.849474 
L 197.483779 157.53924 
L 197.007044 156.229007 
L 196.507837 154.918774 
L 195.990042 153.60854 
L 195.458601 152.298307 
L 194.919388 150.988073 
L 194.378934 149.67784 
L 193.843998 148.367606 
L 193.321 147.057373 
L 192.815412 145.747139 
L 192.331142 144.436906 
L 191.870034 143.126673 
L 191.431555 141.816439 
L 191.012736 140.506206 
L 190.608399 139.195972 
L 190.211666 137.885739 
L 189.814706 136.575505 
L 189.409617 135.265272 
L 188.989357 133.955039 
L 188.548575 132.644805 
L 188.084253 131.334572 
L 187.596052 130.024338 
L 187.086327 128.714105 
L 186.559794 127.403871 
L 186.022907 126.093638 
L 185.483013 124.783405 
L 184.947415 123.473171 
L 184.422462 122.162938 
L 183.912797 120.852704 
L 183.420869 119.542471 
L 182.946772 118.232237 
L 182.488466 116.922004 
L 182.042323 115.61177 
L 181.603964 114.301537 
L 181.169267 112.991304 
L 180.735415 111.68107 
L 180.301836 110.370837 
L 179.870916 109.060603 
L 179.448361 107.75037 
L 179.043161 106.440136 
L 178.667129 105.129903 
L 178.334075 103.81967 
L 178.058705 102.509436 
L 177.855383 101.199203 
L 177.736911 99.888969 
L 177.713481 98.578736 
L 177.791918 97.268502 
L 177.975299 95.958269 
L 178.262977 94.648035 
L 178.650962 93.337802 
L 179.132598 92.027569 
L 179.699388 90.717335 
L 180.341862 89.407102 
L 181.050341 88.096868 
L 181.815513 86.786635 
L 182.628761 85.476401 
L 183.482234 84.166168 
L 184.3687 82.855935 
L 185.281263 81.545701 
L 186.213014 80.235468 
L 187.156737 78.925234 
L 188.104716 77.615001 
L 189.048722 76.304767 
L 189.980168 74.994534 
L 190.890425 73.6843 
L 191.771238 72.374067 
L 192.615181 71.063834 
L 193.416069 69.7536 
L 194.169266 68.443367 
L 194.871843 67.133133 
L 195.522556 65.8229 
L 196.121678 64.512666 
L 196.670686 63.202433 
L 197.171881 61.8922 
L 197.627984 60.581966 
L 198.041777 59.271733 
L 198.415822 57.961499 
L 198.752301 56.651266 
L 199.052971 55.341032 
L 199.319232 54.030799 
L 199.552271 52.720565 
L 199.753253 51.410332 
L 199.923518 50.100099 
L 200.064741 48.789865 
L 200.179044 47.479632 
L 200.26903 46.169398 
L 200.337756 44.859165 
L 200.388636 43.548931 
L 200.42531 42.238698 
L 200.451487 40.928465 
L 200.470785 39.618231 
L 200.486587 38.307998 
L 200.501921 36.997764 
L 200.519369 35.687531 
L 200.54101 34.377297 
L 200.568386 33.067064 
L 200.602497 31.756831 
L 200.643811 30.446597 
L 200.692293 29.136364 
L 202.540661 29.136364 
L 202.540661 29.136364 
L 202.589144 30.446597 
L 202.630458 31.756831 
L 202.664568 33.067064 
L 202.691944 34.377297 
L 202.713585 35.687531 
L 202.731033 36.997764 
L 202.746367 38.307998 
L 202.762169 39.618231 
L 202.781468 40.928465 
L 202.807645 42.238698 
L 202.844319 43.548931 
L 202.895199 44.859165 
L 202.963924 46.169398 
L 203.05391 47.479632 
L 203.168213 48.789865 
L 203.309437 50.100099 
L 203.479701 51.410332 
L 203.680684 52.720565 
L 203.913723 54.030799 
L 204.179984 55.341032 
L 204.480654 56.651266 
L 204.817133 57.961499 
L 205.191178 59.271733 
L 205.60497 60.581966 
L 206.061073 61.8922 
L 206.562268 63.202433 
L 207.111277 64.512666 
L 207.710399 65.8229 
L 208.361112 67.133133 
L 209.063688 68.443367 
L 209.816886 69.7536 
L 210.617774 71.063834 
L 211.461717 72.374067 
L 212.34253 73.6843 
L 213.252786 74.994534 
L 214.184232 76.304767 
L 215.128238 77.615001 
L 216.076218 78.925234 
L 217.01994 80.235468 
L 217.951692 81.545701 
L 218.864255 82.855935 
L 219.750721 84.166168 
L 220.604193 85.476401 
L 221.417441 86.786635 
L 222.182614 88.096868 
L 222.891093 89.407102 
L 223.533567 90.717335 
L 224.100357 92.027569 
L 224.581992 93.337802 
L 224.969978 94.648035 
L 225.257655 95.958269 
L 225.441036 97.268502 
L 225.519473 98.578736 
L 225.496043 99.888969 
L 225.377572 101.199203 
L 225.17425 102.509436 
L 224.89888 103.81967 
L 224.565826 105.129903 
L 224.189794 106.440136 
L 223.784594 107.75037 
L 223.362039 109.060603 
L 222.931118 110.370837 
L 222.497539 111.68107 
L 222.063687 112.991304 
L 221.628991 114.301537 
L 221.190632 115.61177 
L 220.744488 116.922004 
L 220.286182 118.232237 
L 219.812086 119.542471 
L 219.320157 120.852704 
L 218.810493 122.162938 
L 218.28554 123.473171 
L 217.749942 124.783405 
L 217.210048 126.093638 
L 216.673161 127.403871 
L 216.146628 128.714105 
L 215.636903 130.024338 
L 215.148701 131.334572 
L 214.684379 132.644805 
L 214.243597 133.955039 
L 213.823337 135.265272 
L 213.418249 136.575505 
L 213.021288 137.885739 
L 212.624556 139.195972 
L 212.220218 140.506206 
L 211.8014 141.816439 
L 211.362921 143.126673 
L 210.901813 144.436906 
L 210.417542 145.747139 
L 209.911954 147.057373 
L 209.388957 148.367606 
L 208.85402 149.67784 
L 208.313567 150.988073 
L 207.774354 152.298307 
L 207.242913 153.60854 
L 206.725118 154.918774 
L 206.22591 156.229007 
L 205.749176 157.53924 
L 205.297766 158.849474 
z
" style="fill:#1f77b4;fill-opacity:0.3;"/>
   </g>
   <g id="PolyCollection_3">
    <path clip-path="url(#p4446f39c48)" d="M 298.798269 212.765009 
L 295.658652 212.765009 
L 295.478848 212.3839 
L 295.286078 212.002792 
L 295.079155 211.621683 
L 294.856553 211.240575 
L 294.616345 210.859466 
L 294.356123 210.478358 
L 294.072937 210.097249 
L 293.763259 209.716141 
L 293.423001 209.335032 
L 293.047599 208.953924 
L 292.632199 208.572815 
L 292.171923 208.191706 
L 291.662239 207.810598 
L 291.099387 207.429489 
L 290.480842 207.048381 
L 289.805749 206.667272 
L 289.075297 206.286164 
L 288.292945 205.905055 
L 287.464491 205.523947 
L 286.597934 205.142838 
L 285.703134 204.76173 
L 284.791291 204.380621 
L 283.874293 203.999512 
L 282.963995 203.618404 
L 282.07151 203.237295 
L 281.206594 202.856187 
L 280.377185 202.475078 
L 279.589152 202.09397 
L 278.846276 201.712861 
L 278.150448 201.331753 
L 277.502051 200.950644 
L 276.900465 200.569536 
L 276.344613 200.188427 
L 275.833474 199.807318 
L 275.366493 199.42621 
L 274.943834 199.045101 
L 274.566437 198.663993 
L 274.235909 198.282884 
L 273.954239 197.901776 
L 273.723419 197.520667 
L 273.54501 197.139559 
L 273.419737 196.75845 
L 273.347158 196.377342 
L 273.325465 195.996233 
L 273.351431 195.615125 
L 273.420524 195.234016 
L 273.52716 194.852907 
L 273.665072 194.471799 
L 273.827749 194.09069 
L 274.008905 193.709582 
L 274.202929 193.328473 
L 274.40528 192.947365 
L 274.612803 192.566256 
L 274.823937 192.185148 
L 275.038814 191.804039 
L 275.259251 191.422931 
L 275.488624 191.041822 
L 275.731653 190.660713 
L 275.994097 190.279605 
L 276.282375 189.898496 
L 276.603126 189.517388 
L 276.962739 189.136279 
L 277.366858 188.755171 
L 277.819905 188.374062 
L 278.324634 187.992954 
L 278.881779 187.611845 
L 279.489799 187.230737 
L 280.144774 186.849628 
L 280.840473 186.46852 
L 281.568593 186.087411 
L 282.319184 185.706302 
L 283.08122 185.325194 
L 283.843282 184.944085 
L 284.594296 184.562977 
L 285.324255 184.181868 
L 286.024853 183.80076 
L 286.689974 183.419651 
L 287.315977 183.038543 
L 287.901757 182.657434 
L 288.448572 182.276326 
L 288.959667 181.895217 
L 289.439731 181.514108 
L 289.89427 181.133 
L 290.328946 180.751891 
L 290.748978 180.370783 
L 291.15864 179.989674 
L 291.560933 179.608566 
L 291.95742 179.227457 
L 292.348252 178.846349 
L 292.73234 178.46524 
L 293.107651 178.084132 
L 293.471573 177.703023 
L 293.821287 177.321915 
L 294.154122 176.940806 
L 294.467831 176.559697 
L 294.760784 176.178589 
L 295.032053 175.79748 
L 295.281413 175.416372 
L 295.509259 175.035263 
L 298.947663 175.035263 
L 298.947663 175.035263 
L 299.175508 175.416372 
L 299.424868 175.79748 
L 299.696138 176.178589 
L 299.98909 176.559697 
L 300.3028 176.940806 
L 300.635635 177.321915 
L 300.985349 177.703023 
L 301.34927 178.084132 
L 301.724582 178.46524 
L 302.10867 178.846349 
L 302.499502 179.227457 
L 302.895989 179.608566 
L 303.298282 179.989674 
L 303.707944 180.370783 
L 304.127975 180.751891 
L 304.562652 181.133 
L 305.01719 181.514108 
L 305.497255 181.895217 
L 306.008349 182.276326 
L 306.555165 182.657434 
L 307.140945 183.038543 
L 307.766948 183.419651 
L 308.432068 183.80076 
L 309.132666 184.181868 
L 309.862625 184.562977 
L 310.61364 184.944085 
L 311.375702 185.325194 
L 312.137738 185.706302 
L 312.888329 186.087411 
L 313.616449 186.46852 
L 314.312147 186.849628 
L 314.967123 187.230737 
L 315.575142 187.611845 
L 316.132287 187.992954 
L 316.637017 188.374062 
L 317.090063 188.755171 
L 317.494183 189.136279 
L 317.853796 189.517388 
L 318.174547 189.898496 
L 318.462824 190.279605 
L 318.725268 190.660713 
L 318.968298 191.041822 
L 319.19767 191.422931 
L 319.418107 191.804039 
L 319.632985 192.185148 
L 319.844118 192.566256 
L 320.051641 192.947365 
L 320.253992 193.328473 
L 320.448016 193.709582 
L 320.629172 194.09069 
L 320.791849 194.471799 
L 320.929761 194.852907 
L 321.036398 195.234016 
L 321.105491 195.615125 
L 321.131457 195.996233 
L 321.109763 196.377342 
L 321.037185 196.75845 
L 320.911912 197.139559 
L 320.733503 197.520667 
L 320.502682 197.901776 
L 320.221012 198.282884 
L 319.890484 198.663993 
L 319.513088 199.045101 
L 319.090428 199.42621 
L 318.623448 199.807318 
L 318.112309 200.188427 
L 317.556456 200.569536 
L 316.95487 200.950644 
L 316.306474 201.331753 
L 315.610646 201.712861 
L 314.86777 202.09397 
L 314.079737 202.475078 
L 313.250327 202.856187 
L 312.385412 203.237295 
L 311.492927 203.618404 
L 310.582628 203.999512 
L 309.66563 204.380621 
L 308.753787 204.76173 
L 307.858987 205.142838 
L 306.99243 205.523947 
L 306.163976 205.905055 
L 305.381624 206.286164 
L 304.651172 206.667272 
L 303.97608 207.048381 
L 303.357534 207.429489 
L 302.794682 207.810598 
L 302.284998 208.191706 
L 301.824723 208.572815 
L 301.409322 208.953924 
L 301.033921 209.335032 
L 300.693662 209.716141 
L 300.383985 210.097249 
L 300.100799 210.478358 
L 299.840577 210.859466 
L 299.600368 211.240575 
L 299.377767 211.621683 
L 299.170843 212.002792 
L 298.978074 212.3839 
L 298.798269 212.765009 
z
" style="fill:#1f77b4;fill-opacity:0.3;"/>
   </g>
   <g id="matplotlib.axis_1">
    <g id="xtick_1">
     <g id="line2d_1">
      <defs>
       <path d="M 0 0 
L 0 3.5 
" id="m73d07db7ee" style="stroke:#000000;stroke-width:0.8;"/>
      </defs>
      <g>
       <use style="stroke:#000000;stroke-width:0.8;" x="106.004494" xlink:href="#m73d07db7ee" y="244.1"/>
      </g>
     </g>
     <g id="text_1">
      <!-- Our Method -->
      <g transform="translate(54.375392 264.397266)scale(0.175 -0.175)">
       <defs>
        <path d="M 39.40625 66.21875 
Q 28.65625 66.21875 22.328125 58.203125 
Q 16.015625 50.203125 16.015625 36.375 
Q 16.015625 22.609375 22.328125 14.59375 
Q 28.65625 6.59375 39.40625 6.59375 
Q 50.140625 6.59375 56.421875 14.59375 
Q 62.703125 22.609375 62.703125 36.375 
Q 62.703125 50.203125 56.421875 58.203125 
Q 50.140625 66.21875 39.40625 66.21875 
z
M 39.40625 74.21875 
Q 54.734375 74.21875 63.90625 63.9375 
Q 73.09375 53.65625 73.09375 36.375 
Q 73.09375 19.140625 63.90625 8.859375 
Q 54.734375 -1.421875 39.40625 -1.421875 
Q 24.03125 -1.421875 14.8125 8.828125 
Q 5.609375 19.09375 5.609375 36.375 
Q 5.609375 53.65625 14.8125 63.9375 
Q 24.03125 74.21875 39.40625 74.21875 
z
" id="DejaVuSans-79"/>
        <path d="M 8.5 21.578125 
L 8.5 54.6875 
L 17.484375 54.6875 
L 17.484375 21.921875 
Q 17.484375 14.15625 20.5 10.265625 
Q 23.53125 6.390625 29.59375 6.390625 
Q 36.859375 6.390625 41.078125 11.03125 
Q 45.3125 15.671875 45.3125 23.6875 
L 45.3125 54.6875 
L 54.296875 54.6875 
L 54.296875 0 
L 45.3125 0 
L 45.3125 8.40625 
Q 42.046875 3.421875 37.71875 1 
Q 33.40625 -1.421875 27.6875 -1.421875 
Q 18.265625 -1.421875 13.375 4.4375 
Q 8.5 10.296875 8.5 21.578125 
z
M 31.109375 56 
z
" id="DejaVuSans-117"/>
        <path d="M 41.109375 46.296875 
Q 39.59375 47.171875 37.8125 47.578125 
Q 36.03125 48 33.890625 48 
Q 26.265625 48 22.1875 43.046875 
Q 18.109375 38.09375 18.109375 28.8125 
L 18.109375 0 
L 9.078125 0 
L 9.078125 54.6875 
L 18.109375 54.6875 
L 18.109375 46.1875 
Q 20.953125 51.171875 25.484375 53.578125 
Q 30.03125 56 36.53125 56 
Q 37.453125 56 38.578125 55.875 
Q 39.703125 55.765625 41.0625 55.515625 
z
" id="DejaVuSans-114"/>
        <path id="DejaVuSans-32"/>
        <path d="M 9.8125 72.90625 
L 24.515625 72.90625 
L 43.109375 23.296875 
L 61.8125 72.90625 
L 76.515625 72.90625 
L 76.515625 0 
L 66.890625 0 
L 66.890625 64.015625 
L 48.09375 14.015625 
L 38.1875 14.015625 
L 19.390625 64.015625 
L 19.390625 0 
L 9.8125 0 
z
" id="DejaVuSans-77"/>
        <path d="M 56.203125 29.59375 
L 56.203125 25.203125 
L 14.890625 25.203125 
Q 15.484375 15.921875 20.484375 11.0625 
Q 25.484375 6.203125 34.421875 6.203125 
Q 39.59375 6.203125 44.453125 7.46875 
Q 49.3125 8.734375 54.109375 11.28125 
L 54.109375 2.78125 
Q 49.265625 0.734375 44.1875 -0.34375 
Q 39.109375 -1.421875 33.890625 -1.421875 
Q 20.796875 -1.421875 13.15625 6.1875 
Q 5.515625 13.8125 5.515625 26.8125 
Q 5.515625 40.234375 12.765625 48.109375 
Q 20.015625 56 32.328125 56 
Q 43.359375 56 49.78125 48.890625 
Q 56.203125 41.796875 56.203125 29.59375 
z
M 47.21875 32.234375 
Q 47.125 39.59375 43.09375 43.984375 
Q 39.0625 48.390625 32.421875 48.390625 
Q 24.90625 48.390625 20.390625 44.140625 
Q 15.875 39.890625 15.1875 32.171875 
z
" id="DejaVuSans-101"/>
        <path d="M 18.3125 70.21875 
L 18.3125 54.6875 
L 36.8125 54.6875 
L 36.8125 47.703125 
L 18.3125 47.703125 
L 18.3125 18.015625 
Q 18.3125 11.328125 20.140625 9.421875 
Q 21.96875 7.515625 27.59375 7.515625 
L 36.8125 7.515625 
L 36.8125 0 
L 27.59375 0 
Q 17.1875 0 13.234375 3.875 
Q 9.28125 7.765625 9.28125 18.015625 
L 9.28125 47.703125 
L 2.6875 47.703125 
L 2.6875 54.6875 
L 9.28125 54.6875 
L 9.28125 70.21875 
z
" id="DejaVuSans-116"/>
        <path d="M 54.890625 33.015625 
L 54.890625 0 
L 45.90625 0 
L 45.90625 32.71875 
Q 45.90625 40.484375 42.875 44.328125 
Q 39.84375 48.1875 33.796875 48.1875 
Q 26.515625 48.1875 22.3125 43.546875 
Q 18.109375 38.921875 18.109375 30.90625 
L 18.109375 0 
L 9.078125 0 
L 9.078125 75.984375 
L 18.109375 75.984375 
L 18.109375 46.1875 
Q 21.34375 51.125 25.703125 53.5625 
Q 30.078125 56 35.796875 56 
Q 45.21875 56 50.046875 50.171875 
Q 54.890625 44.34375 54.890625 33.015625 
z
" id="DejaVuSans-104"/>
        <path d="M 30.609375 48.390625 
Q 23.390625 48.390625 19.1875 42.75 
Q 14.984375 37.109375 14.984375 27.296875 
Q 14.984375 17.484375 19.15625 11.84375 
Q 23.34375 6.203125 30.609375 6.203125 
Q 37.796875 6.203125 41.984375 11.859375 
Q 46.1875 17.53125 46.1875 27.296875 
Q 46.1875 37.015625 41.984375 42.703125 
Q 37.796875 48.390625 30.609375 48.390625 
z
M 30.609375 56 
Q 42.328125 56 49.015625 48.375 
Q 55.71875 40.765625 55.71875 27.296875 
Q 55.71875 13.875 49.015625 6.21875 
Q 42.328125 -1.421875 30.609375 -1.421875 
Q 18.84375 -1.421875 12.171875 6.21875 
Q 5.515625 13.875 5.515625 27.296875 
Q 5.515625 40.765625 12.171875 48.375 
Q 18.84375 56 30.609375 56 
z
" id="DejaVuSans-111"/>
        <path d="M 45.40625 46.390625 
L 45.40625 75.984375 
L 54.390625 75.984375 
L 54.390625 0 
L 45.40625 0 
L 45.40625 8.203125 
Q 42.578125 3.328125 38.25 0.953125 
Q 33.9375 -1.421875 27.875 -1.421875 
Q 17.96875 -1.421875 11.734375 6.484375 
Q 5.515625 14.40625 5.515625 27.296875 
Q 5.515625 40.1875 11.734375 48.09375 
Q 17.96875 56 27.875 56 
Q 33.9375 56 38.25 53.625 
Q 42.578125 51.265625 45.40625 46.390625 
z
M 14.796875 27.296875 
Q 14.796875 17.390625 18.875 11.75 
Q 22.953125 6.109375 30.078125 6.109375 
Q 37.203125 6.109375 41.296875 11.75 
Q 45.40625 17.390625 45.40625 27.296875 
Q 45.40625 37.203125 41.296875 42.84375 
Q 37.203125 48.484375 30.078125 48.484375 
Q 22.953125 48.484375 18.875 42.84375 
Q 14.796875 37.203125 14.796875 27.296875 
z
" id="DejaVuSans-100"/>
       </defs>
       <use xlink:href="#DejaVuSans-79"/>
       <use x="78.710938" xlink:href="#DejaVuSans-117"/>
       <use x="142.089844" xlink:href="#DejaVuSans-114"/>
       <use x="183.203125" xlink:href="#DejaVuSans-32"/>
       <use x="214.990234" xlink:href="#DejaVuSans-77"/>
       <use x="301.269531" xlink:href="#DejaVuSans-101"/>
       <use x="362.792969" xlink:href="#DejaVuSans-116"/>
       <use x="402.001953" xlink:href="#DejaVuSans-104"/>
       <use x="465.380859" xlink:href="#DejaVuSans-111"/>
       <use x="526.5625" xlink:href="#DejaVuSans-100"/>
      </g>
     </g>
    </g>
    <g id="xtick_2">
     <g id="line2d_2">
      <g>
       <use style="stroke:#000000;stroke-width:0.8;" x="201.616477" xlink:href="#m73d07db7ee" y="244.1"/>
      </g>
     </g>
     <g id="text_2">
      <!-- Stein's -->
      <g transform="translate(172.308079 264.397266)scale(0.175 -0.175)">
       <defs>
        <path d="M 53.515625 70.515625 
L 53.515625 60.890625 
Q 47.90625 63.578125 42.921875 64.890625 
Q 37.9375 66.21875 33.296875 66.21875 
Q 25.25 66.21875 20.875 63.09375 
Q 16.5 59.96875 16.5 54.203125 
Q 16.5 49.359375 19.40625 46.890625 
Q 22.3125 44.4375 30.421875 42.921875 
L 36.375 41.703125 
Q 47.40625 39.59375 52.65625 34.296875 
Q 57.90625 29 57.90625 20.125 
Q 57.90625 9.515625 50.796875 4.046875 
Q 43.703125 -1.421875 29.984375 -1.421875 
Q 24.8125 -1.421875 18.96875 -0.25 
Q 13.140625 0.921875 6.890625 3.21875 
L 6.890625 13.375 
Q 12.890625 10.015625 18.65625 8.296875 
Q 24.421875 6.59375 29.984375 6.59375 
Q 38.421875 6.59375 43.015625 9.90625 
Q 47.609375 13.234375 47.609375 19.390625 
Q 47.609375 24.75 44.3125 27.78125 
Q 41.015625 30.8125 33.5 32.328125 
L 27.484375 33.5 
Q 16.453125 35.6875 11.515625 40.375 
Q 6.59375 45.0625 6.59375 53.421875 
Q 6.59375 63.09375 13.40625 68.65625 
Q 20.21875 74.21875 32.171875 74.21875 
Q 37.3125 74.21875 42.625 73.28125 
Q 47.953125 72.359375 53.515625 70.515625 
z
" id="DejaVuSans-83"/>
        <path d="M 9.421875 54.6875 
L 18.40625 54.6875 
L 18.40625 0 
L 9.421875 0 
z
M 9.421875 75.984375 
L 18.40625 75.984375 
L 18.40625 64.59375 
L 9.421875 64.59375 
z
" id="DejaVuSans-105"/>
        <path d="M 54.890625 33.015625 
L 54.890625 0 
L 45.90625 0 
L 45.90625 32.71875 
Q 45.90625 40.484375 42.875 44.328125 
Q 39.84375 48.1875 33.796875 48.1875 
Q 26.515625 48.1875 22.3125 43.546875 
Q 18.109375 38.921875 18.109375 30.90625 
L 18.109375 0 
L 9.078125 0 
L 9.078125 54.6875 
L 18.109375 54.6875 
L 18.109375 46.1875 
Q 21.34375 51.125 25.703125 53.5625 
Q 30.078125 56 35.796875 56 
Q 45.21875 56 50.046875 50.171875 
Q 54.890625 44.34375 54.890625 33.015625 
z
" id="DejaVuSans-110"/>
        <path d="M 17.921875 72.90625 
L 17.921875 45.796875 
L 9.625 45.796875 
L 9.625 72.90625 
z
" id="DejaVuSans-39"/>
        <path d="M 44.28125 53.078125 
L 44.28125 44.578125 
Q 40.484375 46.53125 36.375 47.5 
Q 32.28125 48.484375 27.875 48.484375 
Q 21.1875 48.484375 17.84375 46.4375 
Q 14.5 44.390625 14.5 40.28125 
Q 14.5 37.15625 16.890625 35.375 
Q 19.28125 33.59375 26.515625 31.984375 
L 29.59375 31.296875 
Q 39.15625 29.25 43.1875 25.515625 
Q 47.21875 21.78125 47.21875 15.09375 
Q 47.21875 7.46875 41.1875 3.015625 
Q 35.15625 -1.421875 24.609375 -1.421875 
Q 20.21875 -1.421875 15.453125 -0.5625 
Q 10.6875 0.296875 5.421875 2 
L 5.421875 11.28125 
Q 10.40625 8.6875 15.234375 7.390625 
Q 20.0625 6.109375 24.8125 6.109375 
Q 31.15625 6.109375 34.5625 8.28125 
Q 37.984375 10.453125 37.984375 14.40625 
Q 37.984375 18.0625 35.515625 20.015625 
Q 33.0625 21.96875 24.703125 23.78125 
L 21.578125 24.515625 
Q 13.234375 26.265625 9.515625 29.90625 
Q 5.8125 33.546875 5.8125 39.890625 
Q 5.8125 47.609375 11.28125 51.796875 
Q 16.75 56 26.8125 56 
Q 31.78125 56 36.171875 55.265625 
Q 40.578125 54.546875 44.28125 53.078125 
z
" id="DejaVuSans-115"/>
       </defs>
       <use xlink:href="#DejaVuSans-83"/>
       <use x="63.476562" xlink:href="#DejaVuSans-116"/>
       <use x="102.685547" xlink:href="#DejaVuSans-101"/>
       <use x="164.208984" xlink:href="#DejaVuSans-105"/>
       <use x="191.992188" xlink:href="#DejaVuSans-110"/>
       <use x="255.371094" xlink:href="#DejaVuSans-39"/>
       <use x="282.861328" xlink:href="#DejaVuSans-115"/>
      </g>
     </g>
    </g>
    <g id="xtick_3">
     <g id="line2d_3">
      <g>
       <use style="stroke:#000000;stroke-width:0.8;" x="297.228461" xlink:href="#m73d07db7ee" y="244.1"/>
      </g>
     </g>
     <g id="text_3">
      <!-- Entry-wise -->
      <g transform="translate(251.415375 264.397266)scale(0.175 -0.175)">
       <defs>
        <path d="M 9.8125 72.90625 
L 55.90625 72.90625 
L 55.90625 64.59375 
L 19.671875 64.59375 
L 19.671875 43.015625 
L 54.390625 43.015625 
L 54.390625 34.71875 
L 19.671875 34.71875 
L 19.671875 8.296875 
L 56.78125 8.296875 
L 56.78125 0 
L 9.8125 0 
z
" id="DejaVuSans-69"/>
        <path d="M 32.171875 -5.078125 
Q 28.375 -14.84375 24.75 -17.8125 
Q 21.140625 -20.796875 15.09375 -20.796875 
L 7.90625 -20.796875 
L 7.90625 -13.28125 
L 13.1875 -13.28125 
Q 16.890625 -13.28125 18.9375 -11.515625 
Q 21 -9.765625 23.484375 -3.21875 
L 25.09375 0.875 
L 2.984375 54.6875 
L 12.5 54.6875 
L 29.59375 11.921875 
L 46.6875 54.6875 
L 56.203125 54.6875 
z
" id="DejaVuSans-121"/>
        <path d="M 4.890625 31.390625 
L 31.203125 31.390625 
L 31.203125 23.390625 
L 4.890625 23.390625 
z
" id="DejaVuSans-45"/>
        <path d="M 4.203125 54.6875 
L 13.1875 54.6875 
L 24.421875 12.015625 
L 35.59375 54.6875 
L 46.1875 54.6875 
L 57.421875 12.015625 
L 68.609375 54.6875 
L 77.59375 54.6875 
L 63.28125 0 
L 52.6875 0 
L 40.921875 44.828125 
L 29.109375 0 
L 18.5 0 
z
" id="DejaVuSans-119"/>
       </defs>
       <use xlink:href="#DejaVuSans-69"/>
       <use x="63.183594" xlink:href="#DejaVuSans-110"/>
       <use x="126.5625" xlink:href="#DejaVuSans-116"/>
       <use x="165.771484" xlink:href="#DejaVuSans-114"/>
       <use x="206.884766" xlink:href="#DejaVuSans-121"/>
       <use x="264.314453" xlink:href="#DejaVuSans-45"/>
       <use x="300.398438" xlink:href="#DejaVuSans-119"/>
       <use x="382.185547" xlink:href="#DejaVuSans-105"/>
       <use x="409.96875" xlink:href="#DejaVuSans-115"/>
       <use x="462.068359" xlink:href="#DejaVuSans-101"/>
      </g>
     </g>
    </g>
   </g>
   <g id="matplotlib.axis_2">
    <g id="ytick_1">
     <g id="line2d_4">
      <defs>
       <path d="M 0 0 
L -3.5 0 
" id="m9657822040" style="stroke:#000000;stroke-width:0.8;"/>
      </defs>
      <g>
       <use style="stroke:#000000;stroke-width:0.8;" x="70.15" xlink:href="#m9657822040" y="209.49816"/>
      </g>
     </g>
     <g id="text_4">
      <!-- 10 -->
      <g transform="translate(40.88125 216.146792)scale(0.175 -0.175)">
       <defs>
        <path d="M 12.40625 8.296875 
L 28.515625 8.296875 
L 28.515625 63.921875 
L 10.984375 60.40625 
L 10.984375 69.390625 
L 28.421875 72.90625 
L 38.28125 72.90625 
L 38.28125 8.296875 
L 54.390625 8.296875 
L 54.390625 0 
L 12.40625 0 
z
" id="DejaVuSans-49"/>
        <path d="M 31.78125 66.40625 
Q 24.171875 66.40625 20.328125 58.90625 
Q 16.5 51.421875 16.5 36.375 
Q 16.5 21.390625 20.328125 13.890625 
Q 24.171875 6.390625 31.78125 6.390625 
Q 39.453125 6.390625 43.28125 13.890625 
Q 47.125 21.390625 47.125 36.375 
Q 47.125 51.421875 43.28125 58.90625 
Q 39.453125 66.40625 31.78125 66.40625 
z
M 31.78125 74.21875 
Q 44.046875 74.21875 50.515625 64.515625 
Q 56.984375 54.828125 56.984375 36.375 
Q 56.984375 17.96875 50.515625 8.265625 
Q 44.046875 -1.421875 31.78125 -1.421875 
Q 19.53125 -1.421875 13.0625 8.265625 
Q 6.59375 17.96875 6.59375 36.375 
Q 6.59375 54.828125 13.0625 64.515625 
Q 19.53125 74.21875 31.78125 74.21875 
z
" id="DejaVuSans-48"/>
       </defs>
       <use xlink:href="#DejaVuSans-49"/>
       <use x="63.623047" xlink:href="#DejaVuSans-48"/>
      </g>
     </g>
    </g>
    <g id="ytick_2">
     <g id="line2d_5">
      <g>
       <use style="stroke:#000000;stroke-width:0.8;" x="70.15" xlink:href="#m9657822040" y="151.901727"/>
      </g>
     </g>
     <g id="text_5">
      <!-- 20 -->
      <g transform="translate(40.88125 158.55036)scale(0.175 -0.175)">
       <defs>
        <path d="M 19.1875 8.296875 
L 53.609375 8.296875 
L 53.609375 0 
L 7.328125 0 
L 7.328125 8.296875 
Q 12.9375 14.109375 22.625 23.890625 
Q 32.328125 33.6875 34.8125 36.53125 
Q 39.546875 41.84375 41.421875 45.53125 
Q 43.3125 49.21875 43.3125 52.78125 
Q 43.3125 58.59375 39.234375 62.25 
Q 35.15625 65.921875 28.609375 65.921875 
Q 23.96875 65.921875 18.8125 64.3125 
Q 13.671875 62.703125 7.8125 59.421875 
L 7.8125 69.390625 
Q 13.765625 71.78125 18.9375 73 
Q 24.125 74.21875 28.421875 74.21875 
Q 39.75 74.21875 46.484375 68.546875 
Q 53.21875 62.890625 53.21875 53.421875 
Q 53.21875 48.921875 51.53125 44.890625 
Q 49.859375 40.875 45.40625 35.40625 
Q 44.1875 33.984375 37.640625 27.21875 
Q 31.109375 20.453125 19.1875 8.296875 
z
" id="DejaVuSans-50"/>
       </defs>
       <use xlink:href="#DejaVuSans-50"/>
       <use x="63.623047" xlink:href="#DejaVuSans-48"/>
      </g>
     </g>
    </g>
    <g id="ytick_3">
     <g id="line2d_6">
      <g>
       <use style="stroke:#000000;stroke-width:0.8;" x="70.15" xlink:href="#m9657822040" y="94.305294"/>
      </g>
     </g>
     <g id="text_6">
      <!-- 30 -->
      <g transform="translate(40.88125 100.953927)scale(0.175 -0.175)">
       <defs>
        <path d="M 40.578125 39.3125 
Q 47.65625 37.796875 51.625 33 
Q 55.609375 28.21875 55.609375 21.1875 
Q 55.609375 10.40625 48.1875 4.484375 
Q 40.765625 -1.421875 27.09375 -1.421875 
Q 22.515625 -1.421875 17.65625 -0.515625 
Q 12.796875 0.390625 7.625 2.203125 
L 7.625 11.71875 
Q 11.71875 9.328125 16.59375 8.109375 
Q 21.484375 6.890625 26.8125 6.890625 
Q 36.078125 6.890625 40.9375 10.546875 
Q 45.796875 14.203125 45.796875 21.1875 
Q 45.796875 27.640625 41.28125 31.265625 
Q 36.765625 34.90625 28.71875 34.90625 
L 20.21875 34.90625 
L 20.21875 43.015625 
L 29.109375 43.015625 
Q 36.375 43.015625 40.234375 45.921875 
Q 44.09375 48.828125 44.09375 54.296875 
Q 44.09375 59.90625 40.109375 62.90625 
Q 36.140625 65.921875 28.71875 65.921875 
Q 24.65625 65.921875 20.015625 65.03125 
Q 15.375 64.15625 9.8125 62.3125 
L 9.8125 71.09375 
Q 15.4375 72.65625 20.34375 73.4375 
Q 25.25 74.21875 29.59375 74.21875 
Q 40.828125 74.21875 47.359375 69.109375 
Q 53.90625 64.015625 53.90625 55.328125 
Q 53.90625 49.265625 50.4375 45.09375 
Q 46.96875 40.921875 40.578125 39.3125 
z
" id="DejaVuSans-51"/>
       </defs>
       <use xlink:href="#DejaVuSans-51"/>
       <use x="63.623047" xlink:href="#DejaVuSans-48"/>
      </g>
     </g>
    </g>
    <g id="ytick_4">
     <g id="line2d_7">
      <g>
       <use style="stroke:#000000;stroke-width:0.8;" x="70.15" xlink:href="#m9657822040" y="36.708861"/>
      </g>
     </g>
     <g id="text_7">
      <!-- 40 -->
      <g transform="translate(40.88125 43.357494)scale(0.175 -0.175)">
       <defs>
        <path d="M 37.796875 64.3125 
L 12.890625 25.390625 
L 37.796875 25.390625 
z
M 35.203125 72.90625 
L 47.609375 72.90625 
L 47.609375 25.390625 
L 58.015625 25.390625 
L 58.015625 17.1875 
L 47.609375 17.1875 
L 47.609375 0 
L 37.796875 0 
L 37.796875 17.1875 
L 4.890625 17.1875 
L 4.890625 26.703125 
z
" id="DejaVuSans-52"/>
       </defs>
       <use xlink:href="#DejaVuSans-52"/>
       <use x="63.623047" xlink:href="#DejaVuSans-48"/>
      </g>
     </g>
    </g>
    <g id="text_8">
     <!-- Estimation Error -->
     <g transform="translate(33.241797 202.198633)rotate(-90)scale(0.175 -0.175)">
      <defs>
       <path d="M 52 44.1875 
Q 55.375 50.25 60.0625 53.125 
Q 64.75 56 71.09375 56 
Q 79.640625 56 84.28125 50.015625 
Q 88.921875 44.046875 88.921875 33.015625 
L 88.921875 0 
L 79.890625 0 
L 79.890625 32.71875 
Q 79.890625 40.578125 77.09375 44.375 
Q 74.3125 48.1875 68.609375 48.1875 
Q 61.625 48.1875 57.5625 43.546875 
Q 53.515625 38.921875 53.515625 30.90625 
L 53.515625 0 
L 44.484375 0 
L 44.484375 32.71875 
Q 44.484375 40.625 41.703125 44.40625 
Q 38.921875 48.1875 33.109375 48.1875 
Q 26.21875 48.1875 22.15625 43.53125 
Q 18.109375 38.875 18.109375 30.90625 
L 18.109375 0 
L 9.078125 0 
L 9.078125 54.6875 
L 18.109375 54.6875 
L 18.109375 46.1875 
Q 21.1875 51.21875 25.484375 53.609375 
Q 29.78125 56 35.6875 56 
Q 41.65625 56 45.828125 52.96875 
Q 50 49.953125 52 44.1875 
z
" id="DejaVuSans-109"/>
       <path d="M 34.28125 27.484375 
Q 23.390625 27.484375 19.1875 25 
Q 14.984375 22.515625 14.984375 16.5 
Q 14.984375 11.71875 18.140625 8.90625 
Q 21.296875 6.109375 26.703125 6.109375 
Q 34.1875 6.109375 38.703125 11.40625 
Q 43.21875 16.703125 43.21875 25.484375 
L 43.21875 27.484375 
z
M 52.203125 31.203125 
L 52.203125 0 
L 43.21875 0 
L 43.21875 8.296875 
Q 40.140625 3.328125 35.546875 0.953125 
Q 30.953125 -1.421875 24.3125 -1.421875 
Q 15.921875 -1.421875 10.953125 3.296875 
Q 6 8.015625 6 15.921875 
Q 6 25.140625 12.171875 29.828125 
Q 18.359375 34.515625 30.609375 34.515625 
L 43.21875 34.515625 
L 43.21875 35.40625 
Q 43.21875 41.609375 39.140625 45 
Q 35.0625 48.390625 27.6875 48.390625 
Q 23 48.390625 18.546875 47.265625 
Q 14.109375 46.140625 10.015625 43.890625 
L 10.015625 52.203125 
Q 14.9375 54.109375 19.578125 55.046875 
Q 24.21875 56 28.609375 56 
Q 40.484375 56 46.34375 49.84375 
Q 52.203125 43.703125 52.203125 31.203125 
z
" id="DejaVuSans-97"/>
      </defs>
      <use xlink:href="#DejaVuSans-69"/>
      <use x="63.183594" xlink:href="#DejaVuSans-115"/>
      <use x="115.283203" xlink:href="#DejaVuSans-116"/>
      <use x="154.492188" xlink:href="#DejaVuSans-105"/>
      <use x="182.275391" xlink:href="#DejaVuSans-109"/>
      <use x="279.6875" xlink:href="#DejaVuSans-97"/>
      <use x="340.966797" xlink:href="#DejaVuSans-116"/>
      <use x="380.175781" xlink:href="#DejaVuSans-105"/>
      <use x="407.958984" xlink:href="#DejaVuSans-111"/>
      <use x="469.140625" xlink:href="#DejaVuSans-110"/>
      <use x="532.519531" xlink:href="#DejaVuSans-32"/>
      <use x="564.306641" xlink:href="#DejaVuSans-69"/>
      <use x="627.490234" xlink:href="#DejaVuSans-114"/>
      <use x="666.853516" xlink:href="#DejaVuSans-114"/>
      <use x="705.716797" xlink:href="#DejaVuSans-111"/>
      <use x="766.898438" xlink:href="#DejaVuSans-114"/>
     </g>
    </g>
   </g>
   <g id="LineCollection_1">
    <path clip-path="url(#p4446f39c48)" d="M 94.052996 186.608101 
L 117.955992 186.608101 
" style="fill:none;stroke:#1f77b4;stroke-width:1.5;"/>
    <path clip-path="url(#p4446f39c48)" d="M 189.664979 29.136364 
L 213.567975 29.136364 
" style="fill:none;stroke:#1f77b4;stroke-width:1.5;"/>
    <path clip-path="url(#p4446f39c48)" d="M 285.276963 175.035263 
L 309.179959 175.035263 
" style="fill:none;stroke:#1f77b4;stroke-width:1.5;"/>
   </g>
   <g id="LineCollection_2">
    <path clip-path="url(#p4446f39c48)" d="M 94.052996 233.863636 
L 117.955992 233.863636 
" style="fill:none;stroke:#1f77b4;stroke-width:1.5;"/>
    <path clip-path="url(#p4446f39c48)" d="M 189.664979 158.849474 
L 213.567975 158.849474 
" style="fill:none;stroke:#1f77b4;stroke-width:1.5;"/>
    <path clip-path="url(#p4446f39c48)" d="M 285.276963 212.765009 
L 309.179959 212.765009 
" style="fill:none;stroke:#1f77b4;stroke-width:1.5;"/>
   </g>
   <g id="LineCollection_3">
    <path clip-path="url(#p4446f39c48)" d="M 106.004494 233.863636 
L 106.004494 186.608101 
" style="fill:none;stroke:#1f77b4;stroke-width:1.5;"/>
    <path clip-path="url(#p4446f39c48)" d="M 201.616477 158.849474 
L 201.616477 29.136364 
" style="fill:none;stroke:#1f77b4;stroke-width:1.5;"/>
    <path clip-path="url(#p4446f39c48)" d="M 297.228461 212.765009 
L 297.228461 175.035263 
" style="fill:none;stroke:#1f77b4;stroke-width:1.5;"/>
   </g>
   <g id="patch_3">
    <path d="M 70.15 244.1 
L 70.15 18.9 
" style="fill:none;stroke:#000000;stroke-linecap:square;stroke-linejoin:miter;stroke-width:0.8;"/>
   </g>
   <g id="patch_4">
    <path d="M 333.082955 244.1 
L 333.082955 18.9 
" style="fill:none;stroke:#000000;stroke-linecap:square;stroke-linejoin:miter;stroke-width:0.8;"/>
   </g>
   <g id="patch_5">
    <path d="M 70.15 244.1 
L 333.082955 244.1 
" style="fill:none;stroke:#000000;stroke-linecap:square;stroke-linejoin:miter;stroke-width:0.8;"/>
   </g>
   <g id="patch_6">
    <path d="M 70.15 18.9 
L 333.082955 18.9 
" style="fill:none;stroke:#000000;stroke-linecap:square;stroke-linejoin:miter;stroke-width:0.8;"/>
   </g>
  </g>
 </g>
 <defs>
  <clipPath id="p4446f39c48">
   <rect height="225.2" width="262.932955" x="70.15" y="18.9"/>
  </clipPath>
 </defs>
</svg>
