<?xml version="1.0" encoding="utf-8" standalone="no"?>
<!DOCTYPE svg PUBLIC "-//W3C//DTD SVG 1.1//EN"
  "http://www.w3.org/Graphics/SVG/1.1/DTD/svg11.dtd">
<!-- Created with matplotlib (https://matplotlib.org/) -->
<svg height="288pt" version="1.1" viewBox="0 0 360 288" width="360pt" xmlns="http://www.w3.org/2000/svg" xmlns:xlink="http://www.w3.org/1999/xlink">
 <metadata>
  <rdf:RDF xmlns:cc="http://creativecommons.org/ns#" xmlns:dc="http://purl.org/dc/elements/1.1/" xmlns:rdf="http://www.w3.org/1999/02/22-rdf-syntax-ns#">
   <cc:Work>
    <dc:type rdf:resource="http://purl.org/dc/dcmitype/StillImage"/>
    <dc:date>2022-09-25T00:48:12.254813</dc:date>
    <dc:format>image/svg+xml</dc:format>
    <dc:creator>
     <cc:Agent>
      <dc:title>Matplotlib v3.3.4, https://matplotlib.org/</dc:title>
     </cc:Agent>
    </dc:creator>
   </cc:Work>
  </rdf:RDF>
 </metadata>
 <defs>
  <style type="text/css">*{stroke-linecap:butt;stroke-linejoin:round;}</style>
 </defs>
 <g id="figure_1">
  <g id="patch_1">
   <path d="M 0 288 
L 360 288 
L 360 0 
L 0 0 
z
" style="fill:none;"/>
  </g>
  <g id="axes_1">
   <g id="patch_2">
    <path d="M 75.65 244.1 
L 333.082955 244.1 
L 333.082955 25.454141 
L 75.65 25.454141 
z
" style="fill:#ffffff;"/>
   </g>
   <g id="PolyCollection_1">
    <path clip-path="url(#p7df56a4a63)" d="M 114.815813 233.278515 
L 106.693174 233.278515 
L 106.19385 232.56417 
L 105.668923 231.849825 
L 105.119928 231.13548 
L 104.548355 230.421135 
L 103.955723 229.70679 
L 103.343705 228.992445 
L 102.714282 228.2781 
L 102.069884 227.563754 
L 101.413509 226.849409 
L 100.748757 226.135064 
L 100.079786 225.420719 
L 99.411154 224.706374 
L 98.747577 223.992029 
L 98.093607 223.277684 
L 97.453282 222.563339 
L 96.829796 221.848994 
L 96.225241 221.134649 
L 95.640461 220.420304 
L 95.075056 219.705958 
L 94.527546 218.991613 
L 93.995667 218.277268 
L 93.476788 217.562923 
L 92.968367 216.848578 
L 92.468415 216.134233 
L 91.975873 215.419888 
L 91.490886 214.705543 
L 91.014914 213.991198 
L 90.550678 213.276853 
L 90.101961 212.562508 
L 89.673279 211.848162 
L 89.269496 211.133817 
L 88.895412 210.419472 
L 88.555412 209.705127 
L 88.253195 208.990782 
L 87.991654 208.276437 
L 87.772884 207.562092 
L 87.598348 206.847747 
L 87.469153 206.133402 
L 87.38639 205.419057 
L 87.351498 204.704712 
L 87.366566 203.990367 
L 87.434531 203.276021 
L 87.559211 202.561676 
L 87.745164 201.847331 
L 87.997354 201.132986 
L 88.320658 200.418641 
L 88.719268 199.704296 
L 89.196053 198.989951 
L 89.751967 198.275606 
L 90.385572 197.561261 
L 91.092758 196.846916 
L 91.866693 196.132571 
L 92.698018 195.418225 
L 93.575285 194.70388 
L 94.485576 193.989535 
L 95.415248 193.27519 
L 96.350721 192.560845 
L 97.279225 191.8465 
L 98.189427 191.132155 
L 99.071893 190.41781 
L 99.919342 189.703465 
L 100.726685 188.98912 
L 101.490882 188.274775 
L 102.210632 187.560429 
L 102.885971 186.846084 
L 103.517824 186.131739 
L 104.107569 185.417394 
L 104.656665 184.703049 
L 105.166383 183.988704 
L 105.63764 183.274359 
L 106.070964 182.560014 
L 106.466563 181.845669 
L 106.824472 181.131324 
L 107.14476 180.416979 
L 107.427747 179.702633 
L 107.674214 178.988288 
L 107.885565 178.273943 
L 108.063919 177.559598 
L 108.212136 176.845253 
L 108.333754 176.130908 
L 108.432853 175.416563 
L 108.513863 174.702218 
L 108.581332 173.987873 
L 108.639683 173.273528 
L 108.692976 172.559183 
L 108.744717 171.844837 
L 108.797713 171.130492 
L 108.854001 170.416147 
L 108.914843 169.701802 
L 108.980789 168.987457 
L 109.0518 168.273112 
L 109.127393 167.558767 
L 109.206812 166.844422 
L 109.28918 166.130077 
L 109.373629 165.415732 
L 109.459385 164.701387 
L 109.545812 163.987041 
L 109.63241 163.272696 
L 109.718781 162.558351 
L 111.790207 162.558351 
L 111.790207 162.558351 
L 111.876577 163.272696 
L 111.963175 163.987041 
L 112.049602 164.701387 
L 112.135358 165.415732 
L 112.219807 166.130077 
L 112.302176 166.844422 
L 112.381595 167.558767 
L 112.457188 168.273112 
L 112.528198 168.987457 
L 112.594145 169.701802 
L 112.654986 170.416147 
L 112.711274 171.130492 
L 112.764271 171.844837 
L 112.816012 172.559183 
L 112.869305 173.273528 
L 112.927655 173.987873 
L 112.995124 174.702218 
L 113.076134 175.416563 
L 113.175233 176.130908 
L 113.296851 176.845253 
L 113.445069 177.559598 
L 113.623423 178.273943 
L 113.834773 178.988288 
L 114.081241 179.702633 
L 114.364228 180.416979 
L 114.684515 181.131324 
L 115.042425 181.845669 
L 115.438024 182.560014 
L 115.871348 183.274359 
L 116.342605 183.988704 
L 116.852322 184.703049 
L 117.401419 185.417394 
L 117.991163 186.131739 
L 118.623016 186.846084 
L 119.298356 187.560429 
L 120.018106 188.274775 
L 120.782303 188.98912 
L 121.589646 189.703465 
L 122.437094 190.41781 
L 123.31956 191.132155 
L 124.229763 191.8465 
L 125.158267 192.560845 
L 126.09374 193.27519 
L 127.023412 193.989535 
L 127.933702 194.70388 
L 128.810969 195.418225 
L 129.642295 196.132571 
L 130.41623 196.846916 
L 131.123416 197.561261 
L 131.757021 198.275606 
L 132.312935 198.989951 
L 132.78972 199.704296 
L 133.18833 200.418641 
L 133.511633 201.132986 
L 133.763823 201.847331 
L 133.949777 202.561676 
L 134.074457 203.276021 
L 134.142421 203.990367 
L 134.15749 204.704712 
L 134.122598 205.419057 
L 134.039835 206.133402 
L 133.910639 206.847747 
L 133.736104 207.562092 
L 133.517334 208.276437 
L 133.255792 208.990782 
L 132.953576 209.705127 
L 132.613575 210.419472 
L 132.239492 211.133817 
L 131.835708 211.848162 
L 131.407027 212.562508 
L 130.958309 213.276853 
L 130.494074 213.991198 
L 130.018101 214.705543 
L 129.533115 215.419888 
L 129.040573 216.134233 
L 128.54062 216.848578 
L 128.0322 217.562923 
L 127.51332 218.277268 
L 126.981442 218.991613 
L 126.433931 219.705958 
L 125.868527 220.420304 
L 125.283746 221.134649 
L 124.679191 221.848994 
L 124.055706 222.563339 
L 123.415381 223.277684 
L 122.761411 223.992029 
L 122.097834 224.706374 
L 121.429202 225.420719 
L 120.76023 226.135064 
L 120.095478 226.849409 
L 119.439103 227.563754 
L 118.794706 228.2781 
L 118.165283 228.992445 
L 117.553265 229.70679 
L 116.960633 230.421135 
L 116.38906 231.13548 
L 115.840065 231.849825 
L 115.315137 232.56417 
L 114.815813 233.278515 
z
" style="fill:#1f77b4;fill-opacity:0.3;"/>
   </g>
   <g id="PolyCollection_2">
    <path clip-path="url(#p7df56a4a63)" d="M 205.45207 198.18077 
L 203.280885 198.18077 
L 203.162503 196.536445 
L 203.028031 194.89212 
L 202.873989 193.247795 
L 202.696673 191.60347 
L 202.492298 189.959145 
L 202.257155 188.31482 
L 201.987749 186.670495 
L 201.680934 185.02617 
L 201.33401 183.381845 
L 200.944788 181.737519 
L 200.511618 180.093194 
L 200.033389 178.448869 
L 199.509499 176.804544 
L 198.93982 175.160219 
L 198.324663 173.515894 
L 197.664759 171.871569 
L 196.961265 170.227244 
L 196.215811 168.582919 
L 195.430571 166.938594 
L 194.608369 165.294269 
L 193.752794 163.649944 
L 192.868317 162.005619 
L 191.960388 160.361294 
L 191.035481 158.716969 
L 190.101097 157.072644 
L 189.165683 155.428319 
L 188.238487 153.783993 
L 187.329348 152.139668 
L 186.44842 150.495343 
L 185.60587 148.851018 
L 184.811555 147.206693 
L 184.074712 145.562368 
L 183.403671 143.918043 
L 182.805615 142.273718 
L 182.286395 140.629393 
L 181.850397 138.985068 
L 181.500465 137.340743 
L 181.237868 135.696418 
L 181.062308 134.052093 
L 180.971949 132.407768 
L 180.963481 130.763443 
L 181.032201 129.119118 
L 181.172118 127.474793 
L 181.376091 125.830467 
L 181.636011 124.186142 
L 181.94301 122.541817 
L 182.287729 120.897492 
L 182.660616 119.253167 
L 183.052254 117.608842 
L 183.453706 115.964517 
L 183.856836 114.320192 
L 184.254608 112.675867 
L 184.641316 111.031542 
L 185.012732 109.387217 
L 185.366163 107.742892 
L 185.700404 106.098567 
L 186.0156 104.454242 
L 186.313019 102.809917 
L 186.594785 101.165592 
L 186.863566 99.521267 
L 187.122285 97.876941 
L 187.373856 96.232616 
L 187.620987 94.588291 
L 187.866063 92.943966 
L 188.111109 91.299641 
L 188.357844 89.655316 
L 188.607784 88.010991 
L 188.862406 86.366666 
L 189.123304 84.722341 
L 189.392335 83.078016 
L 189.671716 81.433691 
L 189.964042 79.789366 
L 190.272228 78.145041 
L 190.599355 76.500716 
L 190.948444 74.856391 
L 191.322178 73.212066 
L 191.722587 71.567741 
L 192.150757 69.923415 
L 192.606574 68.27909 
L 193.088553 66.634765 
L 193.593771 64.99044 
L 194.11792 63.346115 
L 194.655486 61.70179 
L 195.200036 60.057465 
L 195.744608 58.41314 
L 196.28214 56.768815 
L 196.805935 55.12449 
L 197.310086 53.480165 
L 197.789846 51.83584 
L 198.241886 50.191515 
L 198.664439 48.54719 
L 199.057304 46.902865 
L 199.421714 45.25854 
L 199.760096 43.614215 
L 200.07574 41.969889 
L 200.37241 40.325564 
L 200.653958 38.681239 
L 200.923954 37.036914 
L 201.185383 35.392589 
L 207.547572 35.392589 
L 207.547572 35.392589 
L 207.809 37.036914 
L 208.078997 38.681239 
L 208.360545 40.325564 
L 208.657215 41.969889 
L 208.972858 43.614215 
L 209.311241 45.25854 
L 209.675651 46.902865 
L 210.068515 48.54719 
L 210.491069 50.191515 
L 210.943109 51.83584 
L 211.422868 53.480165 
L 211.92702 55.12449 
L 212.450815 56.768815 
L 212.988347 58.41314 
L 213.532918 60.057465 
L 214.077469 61.70179 
L 214.615034 63.346115 
L 215.139184 64.99044 
L 215.644402 66.634765 
L 216.126381 68.27909 
L 216.582198 69.923415 
L 217.010368 71.567741 
L 217.410777 73.212066 
L 217.78451 74.856391 
L 218.1336 76.500716 
L 218.460727 78.145041 
L 218.768913 79.789366 
L 219.061239 81.433691 
L 219.34062 83.078016 
L 219.609651 84.722341 
L 219.870548 86.366666 
L 220.12517 88.010991 
L 220.375111 89.655316 
L 220.621845 91.299641 
L 220.866892 92.943966 
L 221.111967 94.588291 
L 221.359098 96.232616 
L 221.610669 97.876941 
L 221.869389 99.521267 
L 222.13817 101.165592 
L 222.419935 102.809917 
L 222.717355 104.454242 
L 223.03255 106.098567 
L 223.366792 107.742892 
L 223.720223 109.387217 
L 224.091638 111.031542 
L 224.478346 112.675867 
L 224.876119 114.320192 
L 225.279249 115.964517 
L 225.6807 117.608842 
L 226.072339 119.253167 
L 226.445225 120.897492 
L 226.789944 122.541817 
L 227.096943 124.186142 
L 227.356863 125.830467 
L 227.560837 127.474793 
L 227.700753 129.119118 
L 227.769473 130.763443 
L 227.761006 132.407768 
L 227.670647 134.052093 
L 227.495086 135.696418 
L 227.23249 137.340743 
L 226.882558 138.985068 
L 226.44656 140.629393 
L 225.92734 142.273718 
L 225.329284 143.918043 
L 224.658242 145.562368 
L 223.921399 147.206693 
L 223.127085 148.851018 
L 222.284534 150.495343 
L 221.403606 152.139668 
L 220.494467 153.783993 
L 219.567272 155.428319 
L 218.631857 157.072644 
L 217.697473 158.716969 
L 216.772567 160.361294 
L 215.864637 162.005619 
L 214.980161 163.649944 
L 214.124586 165.294269 
L 213.302383 166.938594 
L 212.517144 168.582919 
L 211.77169 170.227244 
L 211.068196 171.871569 
L 210.408291 173.515894 
L 209.793134 175.160219 
L 209.223456 176.804544 
L 208.699566 178.448869 
L 208.221336 180.093194 
L 207.788167 181.737519 
L 207.398944 183.381845 
L 207.052021 185.02617 
L 206.745206 186.670495 
L 206.4758 188.31482 
L 206.240656 189.959145 
L 206.036282 191.60347 
L 205.858966 193.247795 
L 205.704924 194.89212 
L 205.570452 196.536445 
L 205.45207 198.18077 
z
" style="fill:#1f77b4;fill-opacity:0.3;"/>
   </g>
   <g id="PolyCollection_3">
    <path clip-path="url(#p7df56a4a63)" d="M 300.277407 234.161552 
L 295.679515 234.161552 
L 295.385561 233.608248 
L 295.079665 233.054944 
L 294.76483 232.50164 
L 294.443875 231.948336 
L 294.119061 231.395032 
L 293.791699 230.841728 
L 293.461769 230.288424 
L 293.127624 229.73512 
L 292.78581 229.181816 
L 292.431074 228.628512 
L 292.056563 228.075208 
L 291.654242 227.521904 
L 291.215509 226.968601 
L 290.731951 226.415297 
L 290.196166 225.861993 
L 289.602586 225.308689 
L 288.948178 224.755385 
L 288.232969 224.202081 
L 287.460308 223.648777 
L 286.63684 223.095473 
L 285.7722 222.542169 
L 284.878444 221.988865 
L 283.969286 221.435561 
L 283.059232 220.882257 
L 282.162679 220.328953 
L 281.293088 219.775649 
L 280.462279 219.222345 
L 279.679921 218.669041 
L 278.953227 218.115737 
L 278.28686 217.562433 
L 277.683049 217.009129 
L 277.141859 216.455826 
L 276.6616 215.902522 
L 276.239322 215.349218 
L 275.871354 214.795914 
L 275.553849 214.24261 
L 275.283294 213.689306 
L 275.056945 213.136002 
L 274.873155 212.582698 
L 274.731568 212.029394 
L 274.633154 211.47609 
L 274.580087 210.922786 
L 274.575465 210.369482 
L 274.622921 209.816178 
L 274.726153 209.262874 
L 274.888443 208.70957 
L 275.112225 208.156266 
L 275.398762 207.602962 
L 275.74796 207.049658 
L 276.158358 206.496354 
L 276.627261 205.94305 
L 277.150994 205.389747 
L 277.725213 204.836443 
L 278.345215 204.283139 
L 279.006178 203.729835 
L 279.703305 203.176531 
L 280.431825 202.623227 
L 281.186896 202.069923 
L 281.963422 201.516619 
L 282.755853 200.963315 
L 283.558034 200.410011 
L 284.363159 199.856707 
L 285.163869 199.303403 
L 285.952504 198.750099 
L 286.721495 198.196795 
L 287.463841 197.643491 
L 288.1736 197.090187 
L 288.84632 196.536883 
L 289.479338 195.983579 
L 290.071888 195.430275 
L 290.624997 194.876971 
L 291.141182 194.323668 
L 291.623977 193.770364 
L 292.077364 193.21706 
L 292.505182 192.663756 
L 292.910599 192.110452 
L 293.295712 191.557148 
L 293.661325 191.003844 
L 294.006937 190.45054 
L 294.330913 189.897236 
L 294.63083 189.343932 
L 294.903922 188.790628 
L 295.147576 188.237324 
L 295.359806 187.68402 
L 295.539648 187.130716 
L 295.687433 186.577412 
L 295.804901 186.024108 
L 295.895175 185.470804 
L 295.962571 184.9175 
L 296.012311 184.364196 
L 296.050143 183.810893 
L 296.081928 183.257589 
L 296.113244 182.704285 
L 296.149015 182.150981 
L 296.193234 181.597677 
L 296.248761 181.044373 
L 296.317233 180.491069 
L 296.39907 179.937765 
L 296.493567 179.384461 
L 299.463355 179.384461 
L 299.463355 179.384461 
L 299.557852 179.937765 
L 299.639688 180.491069 
L 299.70816 181.044373 
L 299.763687 181.597677 
L 299.807906 182.150981 
L 299.843678 182.704285 
L 299.874993 183.257589 
L 299.906779 183.810893 
L 299.94461 184.364196 
L 299.99435 184.9175 
L 300.061747 185.470804 
L 300.15202 186.024108 
L 300.269489 186.577412 
L 300.417273 187.130716 
L 300.597116 187.68402 
L 300.809346 188.237324 
L 301.053 188.790628 
L 301.326091 189.343932 
L 301.626008 189.897236 
L 301.949985 190.45054 
L 302.295596 191.003844 
L 302.661209 191.557148 
L 303.046322 192.110452 
L 303.451739 192.663756 
L 303.879558 193.21706 
L 304.332944 193.770364 
L 304.815739 194.323668 
L 305.331924 194.876971 
L 305.885033 195.430275 
L 306.477583 195.983579 
L 307.110601 196.536883 
L 307.783322 197.090187 
L 308.493081 197.643491 
L 309.235426 198.196795 
L 310.004418 198.750099 
L 310.793052 199.303403 
L 311.593762 199.856707 
L 312.398888 200.410011 
L 313.201069 200.963315 
L 313.9935 201.516619 
L 314.770026 202.069923 
L 315.525097 202.623227 
L 316.253617 203.176531 
L 316.950743 203.729835 
L 317.611707 204.283139 
L 318.231708 204.836443 
L 318.805927 205.389747 
L 319.32966 205.94305 
L 319.798564 206.496354 
L 320.208962 207.049658 
L 320.55816 207.602962 
L 320.844696 208.156266 
L 321.068479 208.70957 
L 321.230769 209.262874 
L 321.334001 209.816178 
L 321.381457 210.369482 
L 321.376835 210.922786 
L 321.323767 211.47609 
L 321.225354 212.029394 
L 321.083767 212.582698 
L 320.899977 213.136002 
L 320.673627 213.689306 
L 320.403072 214.24261 
L 320.085568 214.795914 
L 319.7176 215.349218 
L 319.295321 215.902522 
L 318.815063 216.455826 
L 318.273872 217.009129 
L 317.670061 217.562433 
L 317.003695 218.115737 
L 316.277 218.669041 
L 315.494642 219.222345 
L 314.663833 219.775649 
L 313.794242 220.328953 
L 312.89769 220.882257 
L 311.987636 221.435561 
L 311.078478 221.988865 
L 310.184721 222.542169 
L 309.320082 223.095473 
L 308.496614 223.648777 
L 307.723952 224.202081 
L 307.008744 224.755385 
L 306.354336 225.308689 
L 305.760755 225.861993 
L 305.224971 226.415297 
L 304.741412 226.968601 
L 304.30268 227.521904 
L 303.900359 228.075208 
L 303.525847 228.628512 
L 303.171111 229.181816 
L 302.829298 229.73512 
L 302.495152 230.288424 
L 302.165223 230.841728 
L 301.83786 231.395032 
L 301.513047 231.948336 
L 301.192092 232.50164 
L 300.877257 233.054944 
L 300.571361 233.608248 
L 300.277407 234.161552 
z
" style="fill:#1f77b4;fill-opacity:0.3;"/>
   </g>
   <g id="matplotlib.axis_1">
    <g id="xtick_1">
     <g id="line2d_1">
      <defs>
       <path d="M 0 0 
L 0 3.5 
" id="m3e93c32031" style="stroke:#000000;stroke-width:0.8;"/>
      </defs>
      <g>
       <use style="stroke:#000000;stroke-width:0.8;" x="110.754494" xlink:href="#m3e93c32031" y="244.1"/>
      </g>
     </g>
     <g id="text_1">
      <!-- Our Method -->
      <g transform="translate(59.125392 264.397266)scale(0.175 -0.175)">
       <defs>
        <path d="M 39.40625 66.21875 
Q 28.65625 66.21875 22.328125 58.203125 
Q 16.015625 50.203125 16.015625 36.375 
Q 16.015625 22.609375 22.328125 14.59375 
Q 28.65625 6.59375 39.40625 6.59375 
Q 50.140625 6.59375 56.421875 14.59375 
Q 62.703125 22.609375 62.703125 36.375 
Q 62.703125 50.203125 56.421875 58.203125 
Q 50.140625 66.21875 39.40625 66.21875 
z
M 39.40625 74.21875 
Q 54.734375 74.21875 63.90625 63.9375 
Q 73.09375 53.65625 73.09375 36.375 
Q 73.09375 19.140625 63.90625 8.859375 
Q 54.734375 -1.421875 39.40625 -1.421875 
Q 24.03125 -1.421875 14.8125 8.828125 
Q 5.609375 19.09375 5.609375 36.375 
Q 5.609375 53.65625 14.8125 63.9375 
Q 24.03125 74.21875 39.40625 74.21875 
z
" id="DejaVuSans-79"/>
        <path d="M 8.5 21.578125 
L 8.5 54.6875 
L 17.484375 54.6875 
L 17.484375 21.921875 
Q 17.484375 14.15625 20.5 10.265625 
Q 23.53125 6.390625 29.59375 6.390625 
Q 36.859375 6.390625 41.078125 11.03125 
Q 45.3125 15.671875 45.3125 23.6875 
L 45.3125 54.6875 
L 54.296875 54.6875 
L 54.296875 0 
L 45.3125 0 
L 45.3125 8.40625 
Q 42.046875 3.421875 37.71875 1 
Q 33.40625 -1.421875 27.6875 -1.421875 
Q 18.265625 -1.421875 13.375 4.4375 
Q 8.5 10.296875 8.5 21.578125 
z
M 31.109375 56 
z
" id="DejaVuSans-117"/>
        <path d="M 41.109375 46.296875 
Q 39.59375 47.171875 37.8125 47.578125 
Q 36.03125 48 33.890625 48 
Q 26.265625 48 22.1875 43.046875 
Q 18.109375 38.09375 18.109375 28.8125 
L 18.109375 0 
L 9.078125 0 
L 9.078125 54.6875 
L 18.109375 54.6875 
L 18.109375 46.1875 
Q 20.953125 51.171875 25.484375 53.578125 
Q 30.03125 56 36.53125 56 
Q 37.453125 56 38.578125 55.875 
Q 39.703125 55.765625 41.0625 55.515625 
z
" id="DejaVuSans-114"/>
        <path id="DejaVuSans-32"/>
        <path d="M 9.8125 72.90625 
L 24.515625 72.90625 
L 43.109375 23.296875 
L 61.8125 72.90625 
L 76.515625 72.90625 
L 76.515625 0 
L 66.890625 0 
L 66.890625 64.015625 
L 48.09375 14.015625 
L 38.1875 14.015625 
L 19.390625 64.015625 
L 19.390625 0 
L 9.8125 0 
z
" id="DejaVuSans-77"/>
        <path d="M 56.203125 29.59375 
L 56.203125 25.203125 
L 14.890625 25.203125 
Q 15.484375 15.921875 20.484375 11.0625 
Q 25.484375 6.203125 34.421875 6.203125 
Q 39.59375 6.203125 44.453125 7.46875 
Q 49.3125 8.734375 54.109375 11.28125 
L 54.109375 2.78125 
Q 49.265625 0.734375 44.1875 -0.34375 
Q 39.109375 -1.421875 33.890625 -1.421875 
Q 20.796875 -1.421875 13.15625 6.1875 
Q 5.515625 13.8125 5.515625 26.8125 
Q 5.515625 40.234375 12.765625 48.109375 
Q 20.015625 56 32.328125 56 
Q 43.359375 56 49.78125 48.890625 
Q 56.203125 41.796875 56.203125 29.59375 
z
M 47.21875 32.234375 
Q 47.125 39.59375 43.09375 43.984375 
Q 39.0625 48.390625 32.421875 48.390625 
Q 24.90625 48.390625 20.390625 44.140625 
Q 15.875 39.890625 15.1875 32.171875 
z
" id="DejaVuSans-101"/>
        <path d="M 18.3125 70.21875 
L 18.3125 54.6875 
L 36.8125 54.6875 
L 36.8125 47.703125 
L 18.3125 47.703125 
L 18.3125 18.015625 
Q 18.3125 11.328125 20.140625 9.421875 
Q 21.96875 7.515625 27.59375 7.515625 
L 36.8125 7.515625 
L 36.8125 0 
L 27.59375 0 
Q 17.1875 0 13.234375 3.875 
Q 9.28125 7.765625 9.28125 18.015625 
L 9.28125 47.703125 
L 2.6875 47.703125 
L 2.6875 54.6875 
L 9.28125 54.6875 
L 9.28125 70.21875 
z
" id="DejaVuSans-116"/>
        <path d="M 54.890625 33.015625 
L 54.890625 0 
L 45.90625 0 
L 45.90625 32.71875 
Q 45.90625 40.484375 42.875 44.328125 
Q 39.84375 48.1875 33.796875 48.1875 
Q 26.515625 48.1875 22.3125 43.546875 
Q 18.109375 38.921875 18.109375 30.90625 
L 18.109375 0 
L 9.078125 0 
L 9.078125 75.984375 
L 18.109375 75.984375 
L 18.109375 46.1875 
Q 21.34375 51.125 25.703125 53.5625 
Q 30.078125 56 35.796875 56 
Q 45.21875 56 50.046875 50.171875 
Q 54.890625 44.34375 54.890625 33.015625 
z
" id="DejaVuSans-104"/>
        <path d="M 30.609375 48.390625 
Q 23.390625 48.390625 19.1875 42.75 
Q 14.984375 37.109375 14.984375 27.296875 
Q 14.984375 17.484375 19.15625 11.84375 
Q 23.34375 6.203125 30.609375 6.203125 
Q 37.796875 6.203125 41.984375 11.859375 
Q 46.1875 17.53125 46.1875 27.296875 
Q 46.1875 37.015625 41.984375 42.703125 
Q 37.796875 48.390625 30.609375 48.390625 
z
M 30.609375 56 
Q 42.328125 56 49.015625 48.375 
Q 55.71875 40.765625 55.71875 27.296875 
Q 55.71875 13.875 49.015625 6.21875 
Q 42.328125 -1.421875 30.609375 -1.421875 
Q 18.84375 -1.421875 12.171875 6.21875 
Q 5.515625 13.875 5.515625 27.296875 
Q 5.515625 40.765625 12.171875 48.375 
Q 18.84375 56 30.609375 56 
z
" id="DejaVuSans-111"/>
        <path d="M 45.40625 46.390625 
L 45.40625 75.984375 
L 54.390625 75.984375 
L 54.390625 0 
L 45.40625 0 
L 45.40625 8.203125 
Q 42.578125 3.328125 38.25 0.953125 
Q 33.9375 -1.421875 27.875 -1.421875 
Q 17.96875 -1.421875 11.734375 6.484375 
Q 5.515625 14.40625 5.515625 27.296875 
Q 5.515625 40.1875 11.734375 48.09375 
Q 17.96875 56 27.875 56 
Q 33.9375 56 38.25 53.625 
Q 42.578125 51.265625 45.40625 46.390625 
z
M 14.796875 27.296875 
Q 14.796875 17.390625 18.875 11.75 
Q 22.953125 6.109375 30.078125 6.109375 
Q 37.203125 6.109375 41.296875 11.75 
Q 45.40625 17.390625 45.40625 27.296875 
Q 45.40625 37.203125 41.296875 42.84375 
Q 37.203125 48.484375 30.078125 48.484375 
Q 22.953125 48.484375 18.875 42.84375 
Q 14.796875 37.203125 14.796875 27.296875 
z
" id="DejaVuSans-100"/>
       </defs>
       <use xlink:href="#DejaVuSans-79"/>
       <use x="78.710938" xlink:href="#DejaVuSans-117"/>
       <use x="142.089844" xlink:href="#DejaVuSans-114"/>
       <use x="183.203125" xlink:href="#DejaVuSans-32"/>
       <use x="214.990234" xlink:href="#DejaVuSans-77"/>
       <use x="301.269531" xlink:href="#DejaVuSans-101"/>
       <use x="362.792969" xlink:href="#DejaVuSans-116"/>
       <use x="402.001953" xlink:href="#DejaVuSans-104"/>
       <use x="465.380859" xlink:href="#DejaVuSans-111"/>
       <use x="526.5625" xlink:href="#DejaVuSans-100"/>
      </g>
     </g>
    </g>
    <g id="xtick_2">
     <g id="line2d_2">
      <g>
       <use style="stroke:#000000;stroke-width:0.8;" x="204.366477" xlink:href="#m3e93c32031" y="244.1"/>
      </g>
     </g>
     <g id="text_2">
      <!-- Stein's -->
      <g transform="translate(175.058079 264.397266)scale(0.175 -0.175)">
       <defs>
        <path d="M 53.515625 70.515625 
L 53.515625 60.890625 
Q 47.90625 63.578125 42.921875 64.890625 
Q 37.9375 66.21875 33.296875 66.21875 
Q 25.25 66.21875 20.875 63.09375 
Q 16.5 59.96875 16.5 54.203125 
Q 16.5 49.359375 19.40625 46.890625 
Q 22.3125 44.4375 30.421875 42.921875 
L 36.375 41.703125 
Q 47.40625 39.59375 52.65625 34.296875 
Q 57.90625 29 57.90625 20.125 
Q 57.90625 9.515625 50.796875 4.046875 
Q 43.703125 -1.421875 29.984375 -1.421875 
Q 24.8125 -1.421875 18.96875 -0.25 
Q 13.140625 0.921875 6.890625 3.21875 
L 6.890625 13.375 
Q 12.890625 10.015625 18.65625 8.296875 
Q 24.421875 6.59375 29.984375 6.59375 
Q 38.421875 6.59375 43.015625 9.90625 
Q 47.609375 13.234375 47.609375 19.390625 
Q 47.609375 24.75 44.3125 27.78125 
Q 41.015625 30.8125 33.5 32.328125 
L 27.484375 33.5 
Q 16.453125 35.6875 11.515625 40.375 
Q 6.59375 45.0625 6.59375 53.421875 
Q 6.59375 63.09375 13.40625 68.65625 
Q 20.21875 74.21875 32.171875 74.21875 
Q 37.3125 74.21875 42.625 73.28125 
Q 47.953125 72.359375 53.515625 70.515625 
z
" id="DejaVuSans-83"/>
        <path d="M 9.421875 54.6875 
L 18.40625 54.6875 
L 18.40625 0 
L 9.421875 0 
z
M 9.421875 75.984375 
L 18.40625 75.984375 
L 18.40625 64.59375 
L 9.421875 64.59375 
z
" id="DejaVuSans-105"/>
        <path d="M 54.890625 33.015625 
L 54.890625 0 
L 45.90625 0 
L 45.90625 32.71875 
Q 45.90625 40.484375 42.875 44.328125 
Q 39.84375 48.1875 33.796875 48.1875 
Q 26.515625 48.1875 22.3125 43.546875 
Q 18.109375 38.921875 18.109375 30.90625 
L 18.109375 0 
L 9.078125 0 
L 9.078125 54.6875 
L 18.109375 54.6875 
L 18.109375 46.1875 
Q 21.34375 51.125 25.703125 53.5625 
Q 30.078125 56 35.796875 56 
Q 45.21875 56 50.046875 50.171875 
Q 54.890625 44.34375 54.890625 33.015625 
z
" id="DejaVuSans-110"/>
        <path d="M 17.921875 72.90625 
L 17.921875 45.796875 
L 9.625 45.796875 
L 9.625 72.90625 
z
" id="DejaVuSans-39"/>
        <path d="M 44.28125 53.078125 
L 44.28125 44.578125 
Q 40.484375 46.53125 36.375 47.5 
Q 32.28125 48.484375 27.875 48.484375 
Q 21.1875 48.484375 17.84375 46.4375 
Q 14.5 44.390625 14.5 40.28125 
Q 14.5 37.15625 16.890625 35.375 
Q 19.28125 33.59375 26.515625 31.984375 
L 29.59375 31.296875 
Q 39.15625 29.25 43.1875 25.515625 
Q 47.21875 21.78125 47.21875 15.09375 
Q 47.21875 7.46875 41.1875 3.015625 
Q 35.15625 -1.421875 24.609375 -1.421875 
Q 20.21875 -1.421875 15.453125 -0.5625 
Q 10.6875 0.296875 5.421875 2 
L 5.421875 11.28125 
Q 10.40625 8.6875 15.234375 7.390625 
Q 20.0625 6.109375 24.8125 6.109375 
Q 31.15625 6.109375 34.5625 8.28125 
Q 37.984375 10.453125 37.984375 14.40625 
Q 37.984375 18.0625 35.515625 20.015625 
Q 33.0625 21.96875 24.703125 23.78125 
L 21.578125 24.515625 
Q 13.234375 26.265625 9.515625 29.90625 
Q 5.8125 33.546875 5.8125 39.890625 
Q 5.8125 47.609375 11.28125 51.796875 
Q 16.75 56 26.8125 56 
Q 31.78125 56 36.171875 55.265625 
Q 40.578125 54.546875 44.28125 53.078125 
z
" id="DejaVuSans-115"/>
       </defs>
       <use xlink:href="#DejaVuSans-83"/>
       <use x="63.476562" xlink:href="#DejaVuSans-116"/>
       <use x="102.685547" xlink:href="#DejaVuSans-101"/>
       <use x="164.208984" xlink:href="#DejaVuSans-105"/>
       <use x="191.992188" xlink:href="#DejaVuSans-110"/>
       <use x="255.371094" xlink:href="#DejaVuSans-39"/>
       <use x="282.861328" xlink:href="#DejaVuSans-115"/>
      </g>
     </g>
    </g>
    <g id="xtick_3">
     <g id="line2d_3">
      <g>
       <use style="stroke:#000000;stroke-width:0.8;" x="297.978461" xlink:href="#m3e93c32031" y="244.1"/>
      </g>
     </g>
     <g id="text_3">
      <!-- Entry-wise -->
      <g transform="translate(252.165375 264.397266)scale(0.175 -0.175)">
       <defs>
        <path d="M 9.8125 72.90625 
L 55.90625 72.90625 
L 55.90625 64.59375 
L 19.671875 64.59375 
L 19.671875 43.015625 
L 54.390625 43.015625 
L 54.390625 34.71875 
L 19.671875 34.71875 
L 19.671875 8.296875 
L 56.78125 8.296875 
L 56.78125 0 
L 9.8125 0 
z
" id="DejaVuSans-69"/>
        <path d="M 32.171875 -5.078125 
Q 28.375 -14.84375 24.75 -17.8125 
Q 21.140625 -20.796875 15.09375 -20.796875 
L 7.90625 -20.796875 
L 7.90625 -13.28125 
L 13.1875 -13.28125 
Q 16.890625 -13.28125 18.9375 -11.515625 
Q 21 -9.765625 23.484375 -3.21875 
L 25.09375 0.875 
L 2.984375 54.6875 
L 12.5 54.6875 
L 29.59375 11.921875 
L 46.6875 54.6875 
L 56.203125 54.6875 
z
" id="DejaVuSans-121"/>
        <path d="M 4.890625 31.390625 
L 31.203125 31.390625 
L 31.203125 23.390625 
L 4.890625 23.390625 
z
" id="DejaVuSans-45"/>
        <path d="M 4.203125 54.6875 
L 13.1875 54.6875 
L 24.421875 12.015625 
L 35.59375 54.6875 
L 46.1875 54.6875 
L 57.421875 12.015625 
L 68.609375 54.6875 
L 77.59375 54.6875 
L 63.28125 0 
L 52.6875 0 
L 40.921875 44.828125 
L 29.109375 0 
L 18.5 0 
z
" id="DejaVuSans-119"/>
       </defs>
       <use xlink:href="#DejaVuSans-69"/>
       <use x="63.183594" xlink:href="#DejaVuSans-110"/>
       <use x="126.5625" xlink:href="#DejaVuSans-116"/>
       <use x="165.771484" xlink:href="#DejaVuSans-114"/>
       <use x="206.884766" xlink:href="#DejaVuSans-121"/>
       <use x="264.314453" xlink:href="#DejaVuSans-45"/>
       <use x="300.398438" xlink:href="#DejaVuSans-119"/>
       <use x="382.185547" xlink:href="#DejaVuSans-105"/>
       <use x="409.96875" xlink:href="#DejaVuSans-115"/>
       <use x="462.068359" xlink:href="#DejaVuSans-101"/>
      </g>
     </g>
    </g>
   </g>
   <g id="matplotlib.axis_2">
    <g id="ytick_1">
     <g id="line2d_4">
      <defs>
       <path d="M 0 0 
L -3.5 0 
" id="m0fcf2fcee3" style="stroke:#000000;stroke-width:0.8;"/>
      </defs>
      <g>
       <use style="stroke:#000000;stroke-width:0.8;" x="75.65" xlink:href="#m0fcf2fcee3" y="219.490867"/>
      </g>
     </g>
     <g id="text_4">
      <!-- 0.2 -->
      <g transform="translate(40.819531 226.1395)scale(0.175 -0.175)">
       <defs>
        <path d="M 31.78125 66.40625 
Q 24.171875 66.40625 20.328125 58.90625 
Q 16.5 51.421875 16.5 36.375 
Q 16.5 21.390625 20.328125 13.890625 
Q 24.171875 6.390625 31.78125 6.390625 
Q 39.453125 6.390625 43.28125 13.890625 
Q 47.125 21.390625 47.125 36.375 
Q 47.125 51.421875 43.28125 58.90625 
Q 39.453125 66.40625 31.78125 66.40625 
z
M 31.78125 74.21875 
Q 44.046875 74.21875 50.515625 64.515625 
Q 56.984375 54.828125 56.984375 36.375 
Q 56.984375 17.96875 50.515625 8.265625 
Q 44.046875 -1.421875 31.78125 -1.421875 
Q 19.53125 -1.421875 13.0625 8.265625 
Q 6.59375 17.96875 6.59375 36.375 
Q 6.59375 54.828125 13.0625 64.515625 
Q 19.53125 74.21875 31.78125 74.21875 
z
" id="DejaVuSans-48"/>
        <path d="M 10.6875 12.40625 
L 21 12.40625 
L 21 0 
L 10.6875 0 
z
" id="DejaVuSans-46"/>
        <path d="M 19.1875 8.296875 
L 53.609375 8.296875 
L 53.609375 0 
L 7.328125 0 
L 7.328125 8.296875 
Q 12.9375 14.109375 22.625 23.890625 
Q 32.328125 33.6875 34.8125 36.53125 
Q 39.546875 41.84375 41.421875 45.53125 
Q 43.3125 49.21875 43.3125 52.78125 
Q 43.3125 58.59375 39.234375 62.25 
Q 35.15625 65.921875 28.609375 65.921875 
Q 23.96875 65.921875 18.8125 64.3125 
Q 13.671875 62.703125 7.8125 59.421875 
L 7.8125 69.390625 
Q 13.765625 71.78125 18.9375 73 
Q 24.125 74.21875 28.421875 74.21875 
Q 39.75 74.21875 46.484375 68.546875 
Q 53.21875 62.890625 53.21875 53.421875 
Q 53.21875 48.921875 51.53125 44.890625 
Q 49.859375 40.875 45.40625 35.40625 
Q 44.1875 33.984375 37.640625 27.21875 
Q 31.109375 20.453125 19.1875 8.296875 
z
" id="DejaVuSans-50"/>
       </defs>
       <use xlink:href="#DejaVuSans-48"/>
       <use x="63.623047" xlink:href="#DejaVuSans-46"/>
       <use x="95.410156" xlink:href="#DejaVuSans-50"/>
      </g>
     </g>
    </g>
    <g id="ytick_2">
     <g id="line2d_5">
      <g>
       <use style="stroke:#000000;stroke-width:0.8;" x="75.65" xlink:href="#m0fcf2fcee3" y="180.773188"/>
      </g>
     </g>
     <g id="text_5">
      <!-- 0.4 -->
      <g transform="translate(40.819531 187.421821)scale(0.175 -0.175)">
       <defs>
        <path d="M 37.796875 64.3125 
L 12.890625 25.390625 
L 37.796875 25.390625 
z
M 35.203125 72.90625 
L 47.609375 72.90625 
L 47.609375 25.390625 
L 58.015625 25.390625 
L 58.015625 17.1875 
L 47.609375 17.1875 
L 47.609375 0 
L 37.796875 0 
L 37.796875 17.1875 
L 4.890625 17.1875 
L 4.890625 26.703125 
z
" id="DejaVuSans-52"/>
       </defs>
       <use xlink:href="#DejaVuSans-48"/>
       <use x="63.623047" xlink:href="#DejaVuSans-46"/>
       <use x="95.410156" xlink:href="#DejaVuSans-52"/>
      </g>
     </g>
    </g>
    <g id="ytick_3">
     <g id="line2d_6">
      <g>
       <use style="stroke:#000000;stroke-width:0.8;" x="75.65" xlink:href="#m0fcf2fcee3" y="142.055509"/>
      </g>
     </g>
     <g id="text_6">
      <!-- 0.6 -->
      <g transform="translate(40.819531 148.704142)scale(0.175 -0.175)">
       <defs>
        <path d="M 33.015625 40.375 
Q 26.375 40.375 22.484375 35.828125 
Q 18.609375 31.296875 18.609375 23.390625 
Q 18.609375 15.53125 22.484375 10.953125 
Q 26.375 6.390625 33.015625 6.390625 
Q 39.65625 6.390625 43.53125 10.953125 
Q 47.40625 15.53125 47.40625 23.390625 
Q 47.40625 31.296875 43.53125 35.828125 
Q 39.65625 40.375 33.015625 40.375 
z
M 52.59375 71.296875 
L 52.59375 62.3125 
Q 48.875 64.0625 45.09375 64.984375 
Q 41.3125 65.921875 37.59375 65.921875 
Q 27.828125 65.921875 22.671875 59.328125 
Q 17.53125 52.734375 16.796875 39.40625 
Q 19.671875 43.65625 24.015625 45.921875 
Q 28.375 48.1875 33.59375 48.1875 
Q 44.578125 48.1875 50.953125 41.515625 
Q 57.328125 34.859375 57.328125 23.390625 
Q 57.328125 12.15625 50.6875 5.359375 
Q 44.046875 -1.421875 33.015625 -1.421875 
Q 20.359375 -1.421875 13.671875 8.265625 
Q 6.984375 17.96875 6.984375 36.375 
Q 6.984375 53.65625 15.1875 63.9375 
Q 23.390625 74.21875 37.203125 74.21875 
Q 40.921875 74.21875 44.703125 73.484375 
Q 48.484375 72.75 52.59375 71.296875 
z
" id="DejaVuSans-54"/>
       </defs>
       <use xlink:href="#DejaVuSans-48"/>
       <use x="63.623047" xlink:href="#DejaVuSans-46"/>
       <use x="95.410156" xlink:href="#DejaVuSans-54"/>
      </g>
     </g>
    </g>
    <g id="ytick_4">
     <g id="line2d_7">
      <g>
       <use style="stroke:#000000;stroke-width:0.8;" x="75.65" xlink:href="#m0fcf2fcee3" y="103.337831"/>
      </g>
     </g>
     <g id="text_7">
      <!-- 0.8 -->
      <g transform="translate(40.819531 109.986463)scale(0.175 -0.175)">
       <defs>
        <path d="M 31.78125 34.625 
Q 24.75 34.625 20.71875 30.859375 
Q 16.703125 27.09375 16.703125 20.515625 
Q 16.703125 13.921875 20.71875 10.15625 
Q 24.75 6.390625 31.78125 6.390625 
Q 38.8125 6.390625 42.859375 10.171875 
Q 46.921875 13.96875 46.921875 20.515625 
Q 46.921875 27.09375 42.890625 30.859375 
Q 38.875 34.625 31.78125 34.625 
z
M 21.921875 38.8125 
Q 15.578125 40.375 12.03125 44.71875 
Q 8.5 49.078125 8.5 55.328125 
Q 8.5 64.0625 14.71875 69.140625 
Q 20.953125 74.21875 31.78125 74.21875 
Q 42.671875 74.21875 48.875 69.140625 
Q 55.078125 64.0625 55.078125 55.328125 
Q 55.078125 49.078125 51.53125 44.71875 
Q 48 40.375 41.703125 38.8125 
Q 48.828125 37.15625 52.796875 32.3125 
Q 56.78125 27.484375 56.78125 20.515625 
Q 56.78125 9.90625 50.3125 4.234375 
Q 43.84375 -1.421875 31.78125 -1.421875 
Q 19.734375 -1.421875 13.25 4.234375 
Q 6.78125 9.90625 6.78125 20.515625 
Q 6.78125 27.484375 10.78125 32.3125 
Q 14.796875 37.15625 21.921875 38.8125 
z
M 18.3125 54.390625 
Q 18.3125 48.734375 21.84375 45.5625 
Q 25.390625 42.390625 31.78125 42.390625 
Q 38.140625 42.390625 41.71875 45.5625 
Q 45.3125 48.734375 45.3125 54.390625 
Q 45.3125 60.0625 41.71875 63.234375 
Q 38.140625 66.40625 31.78125 66.40625 
Q 25.390625 66.40625 21.84375 63.234375 
Q 18.3125 60.0625 18.3125 54.390625 
z
" id="DejaVuSans-56"/>
       </defs>
       <use xlink:href="#DejaVuSans-48"/>
       <use x="63.623047" xlink:href="#DejaVuSans-46"/>
       <use x="95.410156" xlink:href="#DejaVuSans-56"/>
      </g>
     </g>
    </g>
    <g id="ytick_5">
     <g id="line2d_8">
      <g>
       <use style="stroke:#000000;stroke-width:0.8;" x="75.65" xlink:href="#m0fcf2fcee3" y="64.620152"/>
      </g>
     </g>
     <g id="text_8">
      <!-- 1.0 -->
      <g transform="translate(40.819531 71.268784)scale(0.175 -0.175)">
       <defs>
        <path d="M 12.40625 8.296875 
L 28.515625 8.296875 
L 28.515625 63.921875 
L 10.984375 60.40625 
L 10.984375 69.390625 
L 28.421875 72.90625 
L 38.28125 72.90625 
L 38.28125 8.296875 
L 54.390625 8.296875 
L 54.390625 0 
L 12.40625 0 
z
" id="DejaVuSans-49"/>
       </defs>
       <use xlink:href="#DejaVuSans-49"/>
       <use x="63.623047" xlink:href="#DejaVuSans-46"/>
       <use x="95.410156" xlink:href="#DejaVuSans-48"/>
      </g>
     </g>
    </g>
    <g id="ytick_6">
     <g id="line2d_9">
      <g>
       <use style="stroke:#000000;stroke-width:0.8;" x="75.65" xlink:href="#m0fcf2fcee3" y="25.902473"/>
      </g>
     </g>
     <g id="text_9">
      <!-- 1.2 -->
      <g transform="translate(40.819531 32.551105)scale(0.175 -0.175)">
       <use xlink:href="#DejaVuSans-49"/>
       <use x="63.623047" xlink:href="#DejaVuSans-46"/>
       <use x="95.410156" xlink:href="#DejaVuSans-50"/>
      </g>
     </g>
    </g>
    <g id="text_10">
     <!-- Estimation Error -->
     <g transform="translate(33.180078 205.475703)rotate(-90)scale(0.175 -0.175)">
      <defs>
       <path d="M 52 44.1875 
Q 55.375 50.25 60.0625 53.125 
Q 64.75 56 71.09375 56 
Q 79.640625 56 84.28125 50.015625 
Q 88.921875 44.046875 88.921875 33.015625 
L 88.921875 0 
L 79.890625 0 
L 79.890625 32.71875 
Q 79.890625 40.578125 77.09375 44.375 
Q 74.3125 48.1875 68.609375 48.1875 
Q 61.625 48.1875 57.5625 43.546875 
Q 53.515625 38.921875 53.515625 30.90625 
L 53.515625 0 
L 44.484375 0 
L 44.484375 32.71875 
Q 44.484375 40.625 41.703125 44.40625 
Q 38.921875 48.1875 33.109375 48.1875 
Q 26.21875 48.1875 22.15625 43.53125 
Q 18.109375 38.875 18.109375 30.90625 
L 18.109375 0 
L 9.078125 0 
L 9.078125 54.6875 
L 18.109375 54.6875 
L 18.109375 46.1875 
Q 21.1875 51.21875 25.484375 53.609375 
Q 29.78125 56 35.6875 56 
Q 41.65625 56 45.828125 52.96875 
Q 50 49.953125 52 44.1875 
z
" id="DejaVuSans-109"/>
       <path d="M 34.28125 27.484375 
Q 23.390625 27.484375 19.1875 25 
Q 14.984375 22.515625 14.984375 16.5 
Q 14.984375 11.71875 18.140625 8.90625 
Q 21.296875 6.109375 26.703125 6.109375 
Q 34.1875 6.109375 38.703125 11.40625 
Q 43.21875 16.703125 43.21875 25.484375 
L 43.21875 27.484375 
z
M 52.203125 31.203125 
L 52.203125 0 
L 43.21875 0 
L 43.21875 8.296875 
Q 40.140625 3.328125 35.546875 0.953125 
Q 30.953125 -1.421875 24.3125 -1.421875 
Q 15.921875 -1.421875 10.953125 3.296875 
Q 6 8.015625 6 15.921875 
Q 6 25.140625 12.171875 29.828125 
Q 18.359375 34.515625 30.609375 34.515625 
L 43.21875 34.515625 
L 43.21875 35.40625 
Q 43.21875 41.609375 39.140625 45 
Q 35.0625 48.390625 27.6875 48.390625 
Q 23 48.390625 18.546875 47.265625 
Q 14.109375 46.140625 10.015625 43.890625 
L 10.015625 52.203125 
Q 14.9375 54.109375 19.578125 55.046875 
Q 24.21875 56 28.609375 56 
Q 40.484375 56 46.34375 49.84375 
Q 52.203125 43.703125 52.203125 31.203125 
z
" id="DejaVuSans-97"/>
      </defs>
      <use xlink:href="#DejaVuSans-69"/>
      <use x="63.183594" xlink:href="#DejaVuSans-115"/>
      <use x="115.283203" xlink:href="#DejaVuSans-116"/>
      <use x="154.492188" xlink:href="#DejaVuSans-105"/>
      <use x="182.275391" xlink:href="#DejaVuSans-109"/>
      <use x="279.6875" xlink:href="#DejaVuSans-97"/>
      <use x="340.966797" xlink:href="#DejaVuSans-116"/>
      <use x="380.175781" xlink:href="#DejaVuSans-105"/>
      <use x="407.958984" xlink:href="#DejaVuSans-111"/>
      <use x="469.140625" xlink:href="#DejaVuSans-110"/>
      <use x="532.519531" xlink:href="#DejaVuSans-32"/>
      <use x="564.306641" xlink:href="#DejaVuSans-69"/>
      <use x="627.490234" xlink:href="#DejaVuSans-114"/>
      <use x="666.853516" xlink:href="#DejaVuSans-114"/>
      <use x="705.716797" xlink:href="#DejaVuSans-111"/>
      <use x="766.898438" xlink:href="#DejaVuSans-114"/>
     </g>
    </g>
   </g>
   <g id="LineCollection_1">
    <path clip-path="url(#p7df56a4a63)" d="M 99.052996 162.558351 
L 122.455992 162.558351 
" style="fill:none;stroke:#1f77b4;stroke-width:1.5;"/>
    <path clip-path="url(#p7df56a4a63)" d="M 192.664979 35.392589 
L 216.067975 35.392589 
" style="fill:none;stroke:#1f77b4;stroke-width:1.5;"/>
    <path clip-path="url(#p7df56a4a63)" d="M 286.276963 179.384461 
L 309.679959 179.384461 
" style="fill:none;stroke:#1f77b4;stroke-width:1.5;"/>
   </g>
   <g id="LineCollection_2">
    <path clip-path="url(#p7df56a4a63)" d="M 99.052996 233.278515 
L 122.455992 233.278515 
" style="fill:none;stroke:#1f77b4;stroke-width:1.5;"/>
    <path clip-path="url(#p7df56a4a63)" d="M 192.664979 198.18077 
L 216.067975 198.18077 
" style="fill:none;stroke:#1f77b4;stroke-width:1.5;"/>
    <path clip-path="url(#p7df56a4a63)" d="M 286.276963 234.161552 
L 309.679959 234.161552 
" style="fill:none;stroke:#1f77b4;stroke-width:1.5;"/>
   </g>
   <g id="LineCollection_3">
    <path clip-path="url(#p7df56a4a63)" d="M 110.754494 233.278515 
L 110.754494 162.558351 
" style="fill:none;stroke:#1f77b4;stroke-width:1.5;"/>
    <path clip-path="url(#p7df56a4a63)" d="M 204.366477 198.18077 
L 204.366477 35.392589 
" style="fill:none;stroke:#1f77b4;stroke-width:1.5;"/>
    <path clip-path="url(#p7df56a4a63)" d="M 297.978461 234.161552 
L 297.978461 179.384461 
" style="fill:none;stroke:#1f77b4;stroke-width:1.5;"/>
   </g>
   <g id="patch_3">
    <path d="M 75.65 244.1 
L 75.65 25.454141 
" style="fill:none;stroke:#000000;stroke-linecap:square;stroke-linejoin:miter;stroke-width:0.8;"/>
   </g>
   <g id="patch_4">
    <path d="M 333.082955 244.1 
L 333.082955 25.454141 
" style="fill:none;stroke:#000000;stroke-linecap:square;stroke-linejoin:miter;stroke-width:0.8;"/>
   </g>
   <g id="patch_5">
    <path d="M 75.65 244.1 
L 333.082955 244.1 
" style="fill:none;stroke:#000000;stroke-linecap:square;stroke-linejoin:miter;stroke-width:0.8;"/>
   </g>
   <g id="patch_6">
    <path d="M 75.65 25.454141 
L 333.082955 25.454141 
" style="fill:none;stroke:#000000;stroke-linecap:square;stroke-linejoin:miter;stroke-width:0.8;"/>
   </g>
  </g>
 </g>
 <defs>
  <clipPath id="p7df56a4a63">
   <rect height="218.645859" width="257.432955" x="75.65" y="25.454141"/>
  </clipPath>
 </defs>
</svg>
