<?xml version="1.0" encoding="utf-8" standalone="no"?>
<!DOCTYPE svg PUBLIC "-//W3C//DTD SVG 1.1//EN"
  "http://www.w3.org/Graphics/SVG/1.1/DTD/svg11.dtd">
<!-- Created with matplotlib (https://matplotlib.org/) -->
<svg height="288pt" version="1.1" viewBox="0 0 360 288" width="360pt" xmlns="http://www.w3.org/2000/svg" xmlns:xlink="http://www.w3.org/1999/xlink">
 <metadata>
  <rdf:RDF xmlns:cc="http://creativecommons.org/ns#" xmlns:dc="http://purl.org/dc/elements/1.1/" xmlns:rdf="http://www.w3.org/1999/02/22-rdf-syntax-ns#">
   <cc:Work>
    <dc:type rdf:resource="http://purl.org/dc/dcmitype/StillImage"/>
    <dc:date>2022-09-25T00:48:11.953372</dc:date>
    <dc:format>image/svg+xml</dc:format>
    <dc:creator>
     <cc:Agent>
      <dc:title>Matplotlib v3.3.4, https://matplotlib.org/</dc:title>
     </cc:Agent>
    </dc:creator>
   </cc:Work>
  </rdf:RDF>
 </metadata>
 <defs>
  <style type="text/css">*{stroke-linecap:butt;stroke-linejoin:round;}</style>
 </defs>
 <g id="figure_1">
  <g id="patch_1">
   <path d="M 0 288 
L 360 288 
L 360 0 
L 0 0 
z
" style="fill:none;"/>
  </g>
  <g id="axes_1">
   <g id="patch_2">
    <path d="M 75.65 244.1 
L 333.082955 244.1 
L 333.082955 18.9 
L 75.65 18.9 
z
" style="fill:#ffffff;"/>
   </g>
   <g id="PolyCollection_1">
    <path clip-path="url(#p076a587e11)" d="M 114.704464 232.989839 
L 106.804523 232.989839 
L 105.990587 232.105515 
L 105.061055 231.221191 
L 104.012466 230.336867 
L 102.846406 229.452543 
L 101.570825 228.568219 
L 100.200848 227.683895 
L 98.75888 226.799571 
L 97.273895 225.915247 
L 95.779951 225.030923 
L 94.314114 224.146599 
L 92.914068 223.262275 
L 91.615757 222.377952 
L 90.45136 221.493628 
L 89.447811 220.609304 
L 88.62595 219.72498 
L 88.000231 218.840656 
L 87.578813 217.956332 
L 87.363808 217.072008 
L 87.351498 216.187684 
L 87.532434 215.30336 
L 87.891456 214.419036 
L 88.407807 213.534712 
L 89.055573 212.650388 
L 89.804655 211.766064 
L 90.622375 210.88174 
L 91.475647 209.997416 
L 92.333473 209.113092 
L 93.169405 208.228768 
L 93.963546 207.344444 
L 94.703778 206.46012 
L 95.385989 205.575796 
L 96.01332 204.691472 
L 96.594596 203.807148 
L 97.142268 202.922824 
L 97.670212 202.0385 
L 98.191739 201.154176 
L 98.718039 200.269852 
L 99.257189 199.385528 
L 99.813715 198.501204 
L 100.388636 197.61688 
L 100.979865 196.732556 
L 101.582829 195.848232 
L 102.191216 194.963908 
L 102.797773 194.079584 
L 103.395096 193.19526 
L 103.976377 192.310936 
L 104.53604 191.426612 
L 105.07022 190.542288 
L 105.576995 189.657964 
L 106.056344 188.77364 
L 106.509801 187.889316 
L 106.939865 187.004992 
L 107.349261 186.120668 
L 107.740199 185.236344 
L 108.113782 184.352021 
L 108.46968 183.467697 
L 108.806143 182.583373 
L 109.120329 181.699049 
L 109.408864 180.814725 
L 109.668507 179.930401 
L 109.896771 179.046077 
L 110.092379 178.161753 
L 110.255487 177.277429 
L 110.387668 176.393105 
L 110.491677 175.508781 
L 110.571093 174.624457 
L 110.629909 173.740133 
L 110.672148 172.855809 
L 110.701555 171.971485 
L 110.721402 171.087161 
L 110.734385 170.202837 
L 110.742613 169.318513 
L 110.747663 168.434189 
L 110.750656 167.549865 
L 110.752351 166.665541 
L 110.753235 165.781217 
L 110.753589 164.896893 
L 110.753544 164.012569 
L 110.753105 163.128245 
L 110.752164 162.243921 
L 110.750496 161.359597 
L 110.74774 160.475273 
L 110.743383 159.590949 
L 110.736742 158.706625 
L 110.726969 157.822301 
L 110.713085 156.937977 
L 110.694053 156.053653 
L 110.668902 155.169329 
L 110.636898 154.285005 
L 110.59774 153.400681 
L 110.551772 152.516357 
L 110.500135 151.632033 
L 110.444857 150.747709 
L 110.388799 149.863385 
L 110.335464 148.979061 
L 110.288658 148.094737 
L 110.252057 147.210414 
L 110.22873 146.32609 
L 110.220717 145.441766 
L 111.288271 145.441766 
L 111.288271 145.441766 
L 111.280257 146.32609 
L 111.25693 147.210414 
L 111.22033 148.094737 
L 111.173524 148.979061 
L 111.120188 149.863385 
L 111.06413 150.747709 
L 111.008852 151.632033 
L 110.957216 152.516357 
L 110.911247 153.400681 
L 110.87209 154.285005 
L 110.840085 155.169329 
L 110.814934 156.053653 
L 110.795902 156.937977 
L 110.782018 157.822301 
L 110.772245 158.706625 
L 110.765604 159.590949 
L 110.761247 160.475273 
L 110.758492 161.359597 
L 110.756824 162.243921 
L 110.755883 163.128245 
L 110.755444 164.012569 
L 110.755398 164.896893 
L 110.755753 165.781217 
L 110.756637 166.665541 
L 110.758332 167.549865 
L 110.761324 168.434189 
L 110.766374 169.318513 
L 110.774603 170.202837 
L 110.787585 171.087161 
L 110.807432 171.971485 
L 110.83684 172.855809 
L 110.879078 173.740133 
L 110.937895 174.624457 
L 111.017311 175.508781 
L 111.12132 176.393105 
L 111.2535 177.277429 
L 111.416609 178.161753 
L 111.612216 179.046077 
L 111.84048 179.930401 
L 112.100124 180.814725 
L 112.388659 181.699049 
L 112.702845 182.583373 
L 113.039308 183.467697 
L 113.395206 184.352021 
L 113.768788 185.236344 
L 114.159726 186.120668 
L 114.569122 187.004992 
L 114.999186 187.889316 
L 115.452643 188.77364 
L 115.931993 189.657964 
L 116.438768 190.542288 
L 116.972948 191.426612 
L 117.532611 192.310936 
L 118.113891 193.19526 
L 118.711215 194.079584 
L 119.317772 194.963908 
L 119.926159 195.848232 
L 120.529123 196.732556 
L 121.120352 197.61688 
L 121.695273 198.501204 
L 122.251798 199.385528 
L 122.790948 200.269852 
L 123.317249 201.154176 
L 123.838776 202.0385 
L 124.36672 202.922824 
L 124.914391 203.807148 
L 125.495668 204.691472 
L 126.122999 205.575796 
L 126.80521 206.46012 
L 127.545441 207.344444 
L 128.339583 208.228768 
L 129.175514 209.113092 
L 130.033341 209.997416 
L 130.886613 210.88174 
L 131.704333 211.766064 
L 132.453415 212.650388 
L 133.101181 213.534712 
L 133.617531 214.419036 
L 133.976553 215.30336 
L 134.15749 216.187684 
L 134.14518 217.072008 
L 133.930175 217.956332 
L 133.508757 218.840656 
L 132.883038 219.72498 
L 132.061177 220.609304 
L 131.057628 221.493628 
L 129.89323 222.377952 
L 128.59492 223.262275 
L 127.194874 224.146599 
L 125.729037 225.030923 
L 124.235093 225.915247 
L 122.750107 226.799571 
L 121.308139 227.683895 
L 119.938162 228.568219 
L 118.662582 229.452543 
L 117.496522 230.336867 
L 116.447932 231.221191 
L 115.5184 232.105515 
L 114.704464 232.989839 
z
" style="fill:#1f77b4;fill-opacity:0.3;"/>
   </g>
   <g id="PolyCollection_2">
    <path clip-path="url(#p076a587e11)" d="M 209.295826 226.509685 
L 199.437129 226.509685 
L 198.700749 224.516016 
L 197.9076 222.522346 
L 197.060805 220.528676 
L 196.164624 218.535006 
L 195.224542 216.541336 
L 194.24734 214.547666 
L 193.241137 212.553996 
L 192.215363 210.560326 
L 191.180642 208.566656 
L 190.148585 206.572986 
L 189.131456 204.579316 
L 188.141753 202.585646 
L 187.191703 200.591977 
L 186.292722 198.598307 
L 185.454883 196.604637 
L 184.686443 194.610967 
L 183.993474 192.617297 
L 183.379634 190.623627 
L 182.846108 188.629957 
L 182.391701 186.636287 
L 182.013101 184.642617 
L 181.705245 182.648947 
L 181.461787 180.655277 
L 181.275609 178.661607 
L 181.139352 176.667938 
L 181.045928 174.674268 
L 180.989013 172.680598 
L 180.963481 170.686928 
L 180.965787 168.693258 
L 180.994263 166.699588 
L 181.04932 164.705918 
L 181.13351 162.712248 
L 181.251435 160.718578 
L 181.409481 158.724908 
L 181.615354 156.731238 
L 181.877466 154.737568 
L 182.204172 152.743899 
L 182.602965 150.750229 
L 183.079663 148.756559 
L 183.637713 146.762889 
L 184.277646 144.769219 
L 184.996776 142.775549 
L 185.789129 140.781879 
L 186.645636 138.788209 
L 187.554533 136.794539 
L 188.50193 134.800869 
L 189.472492 132.807199 
L 190.450179 130.813529 
L 191.418989 128.819859 
L 192.363673 126.82619 
L 193.27039 124.83252 
L 194.12728 122.83885 
L 194.924938 120.84518 
L 195.656755 118.85151 
L 196.319123 116.85784 
L 196.911456 114.86417 
L 197.43604 112.8705 
L 197.89769 110.87683 
L 198.303246 108.88316 
L 198.660933 106.88949 
L 198.97965 104.89582 
L 199.268249 102.902151 
L 199.534874 100.908481 
L 199.786439 98.914811 
L 200.028261 96.921141 
L 200.263914 94.927471 
L 200.495265 92.933801 
L 200.722693 90.940131 
L 200.945425 88.946461 
L 201.161943 86.952791 
L 201.370396 84.959121 
L 201.568957 82.965451 
L 201.756098 80.971781 
L 201.93075 78.978112 
L 202.092356 76.984442 
L 202.240823 74.990772 
L 202.376419 72.997102 
L 202.499636 71.003432 
L 202.611049 69.009762 
L 202.711223 67.016092 
L 202.800649 65.022422 
L 202.879744 63.028752 
L 202.948883 61.035082 
L 203.008468 59.041412 
L 203.059005 57.047742 
L 203.101168 55.054073 
L 203.135849 53.060403 
L 203.164172 51.066733 
L 203.187483 49.073063 
L 203.207302 47.079393 
L 203.225262 45.085723 
L 203.243033 43.092053 
L 203.26224 41.098383 
L 203.284385 39.104713 
L 203.310766 37.111043 
L 203.342418 35.117373 
L 203.380054 33.123703 
L 203.424026 31.130034 
L 203.474305 29.136364 
L 205.25865 29.136364 
L 205.25865 29.136364 
L 205.308928 31.130034 
L 205.352901 33.123703 
L 205.390537 35.117373 
L 205.422189 37.111043 
L 205.44857 39.104713 
L 205.470714 41.098383 
L 205.489922 43.092053 
L 205.507693 45.085723 
L 205.525653 47.079393 
L 205.545471 49.073063 
L 205.568782 51.066733 
L 205.597106 53.060403 
L 205.631787 55.054073 
L 205.67395 57.047742 
L 205.724486 59.041412 
L 205.784072 61.035082 
L 205.853211 63.028752 
L 205.932305 65.022422 
L 206.021732 67.016092 
L 206.121906 69.009762 
L 206.233319 71.003432 
L 206.356535 72.997102 
L 206.492132 74.990772 
L 206.640599 76.984442 
L 206.802204 78.978112 
L 206.976857 80.971781 
L 207.163998 82.965451 
L 207.362559 84.959121 
L 207.571011 86.952791 
L 207.78753 88.946461 
L 208.010261 90.940131 
L 208.237689 92.933801 
L 208.469041 94.927471 
L 208.704694 96.921141 
L 208.946516 98.914811 
L 209.19808 100.908481 
L 209.464706 102.902151 
L 209.753304 104.89582 
L 210.072021 106.88949 
L 210.429708 108.88316 
L 210.835264 110.87683 
L 211.296915 112.8705 
L 211.821498 114.86417 
L 212.413831 116.85784 
L 213.076199 118.85151 
L 213.808017 120.84518 
L 214.605675 122.83885 
L 215.462565 124.83252 
L 216.369282 126.82619 
L 217.313966 128.819859 
L 218.282776 130.813529 
L 219.260463 132.807199 
L 220.231025 134.800869 
L 221.178421 136.794539 
L 222.087318 138.788209 
L 222.943826 140.781879 
L 223.736179 142.775549 
L 224.455308 144.769219 
L 225.095242 146.762889 
L 225.653291 148.756559 
L 226.12999 150.750229 
L 226.528782 152.743899 
L 226.855489 154.737568 
L 227.1176 156.731238 
L 227.323474 158.724908 
L 227.481519 160.718578 
L 227.599445 162.712248 
L 227.683634 164.705918 
L 227.738691 166.699588 
L 227.767168 168.693258 
L 227.769473 170.686928 
L 227.743941 172.680598 
L 227.687026 174.674268 
L 227.593603 176.667938 
L 227.457345 178.661607 
L 227.271168 180.655277 
L 227.02771 182.648947 
L 226.719854 184.642617 
L 226.341253 186.636287 
L 225.886847 188.629957 
L 225.35332 190.623627 
L 224.739481 192.617297 
L 224.046511 194.610967 
L 223.278072 196.604637 
L 222.440233 198.598307 
L 221.541252 200.591977 
L 220.591201 202.585646 
L 219.601498 204.579316 
L 218.584369 206.572986 
L 217.552312 208.566656 
L 216.517592 210.560326 
L 215.491817 212.553996 
L 214.485615 214.547666 
L 213.508413 216.541336 
L 212.568331 218.535006 
L 211.67215 220.528676 
L 210.825355 222.522346 
L 210.032206 224.516016 
L 209.295826 226.509685 
z
" style="fill:#1f77b4;fill-opacity:0.3;"/>
   </g>
   <g id="PolyCollection_3">
    <path clip-path="url(#p076a587e11)" d="M 302.894237 233.863636 
L 293.062684 233.863636 
L 292.303464 233.410271 
L 291.477304 232.956906 
L 290.584861 232.503541 
L 289.627704 232.050176 
L 288.608571 231.596811 
L 287.531729 231.143445 
L 286.403406 230.69008 
L 285.23226 230.236715 
L 284.029829 229.78335 
L 282.810863 229.329985 
L 281.593462 228.87662 
L 280.398929 228.423255 
L 279.251277 227.969889 
L 278.17635 227.516524 
L 277.20059 227.063159 
L 276.349508 226.609794 
L 275.645983 226.156429 
L 275.108552 225.703064 
L 274.749863 225.249699 
L 274.575465 224.796333 
L 274.583087 224.342968 
L 274.762505 223.889603 
L 275.096019 223.436238 
L 275.559538 222.982873 
L 276.124145 222.529508 
L 276.758039 222.076143 
L 277.428644 221.622777 
L 278.104735 221.169412 
L 278.758377 220.716047 
L 279.366545 220.262682 
L 279.912302 219.809317 
L 280.385457 219.355952 
L 280.782688 218.902586 
L 281.107132 218.449221 
L 281.36751 217.995856 
L 281.576873 217.542491 
L 281.751096 217.089126 
L 281.907257 216.635761 
L 282.06205 216.182396 
L 282.230377 215.72903 
L 282.424237 215.275665 
L 282.652009 214.8223 
L 282.918166 214.368935 
L 283.223423 213.91557 
L 283.565262 213.462205 
L 283.93874 213.00884 
L 284.337465 212.555474 
L 284.754581 212.102109 
L 285.18367 211.648744 
L 285.619429 211.195379 
L 286.05809 210.742014 
L 286.497539 210.288649 
L 286.93716 209.835284 
L 287.377479 209.381918 
L 287.819665 208.928553 
L 288.265002 208.475188 
L 288.714409 208.021823 
L 289.168084 207.568458 
L 289.625306 207.115093 
L 290.084419 206.661728 
L 290.54297 206.208362 
L 290.99797 205.754997 
L 291.446226 205.301632 
L 291.884674 204.848267 
L 292.310678 204.394902 
L 292.722239 203.941537 
L 293.118101 203.488171 
L 293.497738 203.034806 
L 293.861252 202.581441 
L 294.209176 202.128076 
L 294.542258 201.674711 
L 294.861223 201.221346 
L 295.166572 200.767981 
L 295.458434 200.314615 
L 295.736488 199.86125 
L 295.999961 199.407885 
L 296.247697 198.95452 
L 296.478275 198.501155 
L 296.690162 198.04779 
L 296.88188 197.594425 
L 297.052156 197.141059 
L 297.200054 196.687694 
L 297.325067 196.234329 
L 297.427169 195.780964 
L 297.506843 195.327599 
L 297.565064 194.874234 
L 297.603275 194.420869 
L 297.623343 193.967503 
L 297.627507 193.514138 
L 297.618325 193.060773 
L 297.598604 192.607408 
L 297.571327 192.154043 
L 297.539566 191.700678 
L 297.506372 191.247312 
L 297.474658 190.793947 
L 297.447074 190.340582 
L 297.425881 189.887217 
L 297.412837 189.433852 
L 297.409111 188.980487 
L 298.54781 188.980487 
L 298.54781 188.980487 
L 298.544085 189.433852 
L 298.53104 189.887217 
L 298.509847 190.340582 
L 298.482264 190.793947 
L 298.45055 191.247312 
L 298.417355 191.700678 
L 298.385594 192.154043 
L 298.358318 192.607408 
L 298.338597 193.060773 
L 298.329414 193.514138 
L 298.333579 193.967503 
L 298.353646 194.420869 
L 298.391857 194.874234 
L 298.450079 195.327599 
L 298.529752 195.780964 
L 298.631855 196.234329 
L 298.756867 196.687694 
L 298.904765 197.141059 
L 299.075041 197.594425 
L 299.266759 198.04779 
L 299.478646 198.501155 
L 299.709224 198.95452 
L 299.95696 199.407885 
L 300.220434 199.86125 
L 300.498488 200.314615 
L 300.790349 200.767981 
L 301.095699 201.221346 
L 301.414664 201.674711 
L 301.747746 202.128076 
L 302.09567 202.581441 
L 302.459183 203.034806 
L 302.838821 203.488171 
L 303.234682 203.941537 
L 303.646243 204.394902 
L 304.072247 204.848267 
L 304.510695 205.301632 
L 304.958951 205.754997 
L 305.413952 206.208362 
L 305.872503 206.661728 
L 306.331616 207.115093 
L 306.788838 207.568458 
L 307.242512 208.021823 
L 307.691919 208.475188 
L 308.137256 208.928553 
L 308.579442 209.381918 
L 309.019761 209.835284 
L 309.459383 210.288649 
L 309.898831 210.742014 
L 310.337492 211.195379 
L 310.773252 211.648744 
L 311.20234 212.102109 
L 311.619457 212.555474 
L 312.018181 213.00884 
L 312.39166 213.462205 
L 312.733498 213.91557 
L 313.038755 214.368935 
L 313.304912 214.8223 
L 313.532685 215.275665 
L 313.726545 215.72903 
L 313.894871 216.182396 
L 314.049664 216.635761 
L 314.205825 217.089126 
L 314.380048 217.542491 
L 314.589411 217.995856 
L 314.849789 218.449221 
L 315.174234 218.902586 
L 315.571465 219.355952 
L 316.04462 219.809317 
L 316.590377 220.262682 
L 317.198545 220.716047 
L 317.852187 221.169412 
L 318.528277 221.622777 
L 319.198883 222.076143 
L 319.832776 222.529508 
L 320.397384 222.982873 
L 320.860902 223.436238 
L 321.194417 223.889603 
L 321.373834 224.342968 
L 321.381457 224.796333 
L 321.207058 225.249699 
L 320.848369 225.703064 
L 320.310939 226.156429 
L 319.607414 226.609794 
L 318.756332 227.063159 
L 317.780572 227.516524 
L 316.705645 227.969889 
L 315.557992 228.423255 
L 314.36346 228.87662 
L 313.146058 229.329985 
L 311.927092 229.78335 
L 310.724661 230.236715 
L 309.553516 230.69008 
L 308.425192 231.143445 
L 307.34835 231.596811 
L 306.329217 232.050176 
L 305.37206 232.503541 
L 304.479618 232.956906 
L 303.653457 233.410271 
L 302.894237 233.863636 
z
" style="fill:#1f77b4;fill-opacity:0.3;"/>
   </g>
   <g id="matplotlib.axis_1">
    <g id="xtick_1">
     <g id="line2d_1">
      <defs>
       <path d="M 0 0 
L 0 3.5 
" id="m9df5f3551c" style="stroke:#000000;stroke-width:0.8;"/>
      </defs>
      <g>
       <use style="stroke:#000000;stroke-width:0.8;" x="110.754494" xlink:href="#m9df5f3551c" y="244.1"/>
      </g>
     </g>
     <g id="text_1">
      <!-- Our Method -->
      <g transform="translate(59.125392 264.397266)scale(0.175 -0.175)">
       <defs>
        <path d="M 39.40625 66.21875 
Q 28.65625 66.21875 22.328125 58.203125 
Q 16.015625 50.203125 16.015625 36.375 
Q 16.015625 22.609375 22.328125 14.59375 
Q 28.65625 6.59375 39.40625 6.59375 
Q 50.140625 6.59375 56.421875 14.59375 
Q 62.703125 22.609375 62.703125 36.375 
Q 62.703125 50.203125 56.421875 58.203125 
Q 50.140625 66.21875 39.40625 66.21875 
z
M 39.40625 74.21875 
Q 54.734375 74.21875 63.90625 63.9375 
Q 73.09375 53.65625 73.09375 36.375 
Q 73.09375 19.140625 63.90625 8.859375 
Q 54.734375 -1.421875 39.40625 -1.421875 
Q 24.03125 -1.421875 14.8125 8.828125 
Q 5.609375 19.09375 5.609375 36.375 
Q 5.609375 53.65625 14.8125 63.9375 
Q 24.03125 74.21875 39.40625 74.21875 
z
" id="DejaVuSans-79"/>
        <path d="M 8.5 21.578125 
L 8.5 54.6875 
L 17.484375 54.6875 
L 17.484375 21.921875 
Q 17.484375 14.15625 20.5 10.265625 
Q 23.53125 6.390625 29.59375 6.390625 
Q 36.859375 6.390625 41.078125 11.03125 
Q 45.3125 15.671875 45.3125 23.6875 
L 45.3125 54.6875 
L 54.296875 54.6875 
L 54.296875 0 
L 45.3125 0 
L 45.3125 8.40625 
Q 42.046875 3.421875 37.71875 1 
Q 33.40625 -1.421875 27.6875 -1.421875 
Q 18.265625 -1.421875 13.375 4.4375 
Q 8.5 10.296875 8.5 21.578125 
z
M 31.109375 56 
z
" id="DejaVuSans-117"/>
        <path d="M 41.109375 46.296875 
Q 39.59375 47.171875 37.8125 47.578125 
Q 36.03125 48 33.890625 48 
Q 26.265625 48 22.1875 43.046875 
Q 18.109375 38.09375 18.109375 28.8125 
L 18.109375 0 
L 9.078125 0 
L 9.078125 54.6875 
L 18.109375 54.6875 
L 18.109375 46.1875 
Q 20.953125 51.171875 25.484375 53.578125 
Q 30.03125 56 36.53125 56 
Q 37.453125 56 38.578125 55.875 
Q 39.703125 55.765625 41.0625 55.515625 
z
" id="DejaVuSans-114"/>
        <path id="DejaVuSans-32"/>
        <path d="M 9.8125 72.90625 
L 24.515625 72.90625 
L 43.109375 23.296875 
L 61.8125 72.90625 
L 76.515625 72.90625 
L 76.515625 0 
L 66.890625 0 
L 66.890625 64.015625 
L 48.09375 14.015625 
L 38.1875 14.015625 
L 19.390625 64.015625 
L 19.390625 0 
L 9.8125 0 
z
" id="DejaVuSans-77"/>
        <path d="M 56.203125 29.59375 
L 56.203125 25.203125 
L 14.890625 25.203125 
Q 15.484375 15.921875 20.484375 11.0625 
Q 25.484375 6.203125 34.421875 6.203125 
Q 39.59375 6.203125 44.453125 7.46875 
Q 49.3125 8.734375 54.109375 11.28125 
L 54.109375 2.78125 
Q 49.265625 0.734375 44.1875 -0.34375 
Q 39.109375 -1.421875 33.890625 -1.421875 
Q 20.796875 -1.421875 13.15625 6.1875 
Q 5.515625 13.8125 5.515625 26.8125 
Q 5.515625 40.234375 12.765625 48.109375 
Q 20.015625 56 32.328125 56 
Q 43.359375 56 49.78125 48.890625 
Q 56.203125 41.796875 56.203125 29.59375 
z
M 47.21875 32.234375 
Q 47.125 39.59375 43.09375 43.984375 
Q 39.0625 48.390625 32.421875 48.390625 
Q 24.90625 48.390625 20.390625 44.140625 
Q 15.875 39.890625 15.1875 32.171875 
z
" id="DejaVuSans-101"/>
        <path d="M 18.3125 70.21875 
L 18.3125 54.6875 
L 36.8125 54.6875 
L 36.8125 47.703125 
L 18.3125 47.703125 
L 18.3125 18.015625 
Q 18.3125 11.328125 20.140625 9.421875 
Q 21.96875 7.515625 27.59375 7.515625 
L 36.8125 7.515625 
L 36.8125 0 
L 27.59375 0 
Q 17.1875 0 13.234375 3.875 
Q 9.28125 7.765625 9.28125 18.015625 
L 9.28125 47.703125 
L 2.6875 47.703125 
L 2.6875 54.6875 
L 9.28125 54.6875 
L 9.28125 70.21875 
z
" id="DejaVuSans-116"/>
        <path d="M 54.890625 33.015625 
L 54.890625 0 
L 45.90625 0 
L 45.90625 32.71875 
Q 45.90625 40.484375 42.875 44.328125 
Q 39.84375 48.1875 33.796875 48.1875 
Q 26.515625 48.1875 22.3125 43.546875 
Q 18.109375 38.921875 18.109375 30.90625 
L 18.109375 0 
L 9.078125 0 
L 9.078125 75.984375 
L 18.109375 75.984375 
L 18.109375 46.1875 
Q 21.34375 51.125 25.703125 53.5625 
Q 30.078125 56 35.796875 56 
Q 45.21875 56 50.046875 50.171875 
Q 54.890625 44.34375 54.890625 33.015625 
z
" id="DejaVuSans-104"/>
        <path d="M 30.609375 48.390625 
Q 23.390625 48.390625 19.1875 42.75 
Q 14.984375 37.109375 14.984375 27.296875 
Q 14.984375 17.484375 19.15625 11.84375 
Q 23.34375 6.203125 30.609375 6.203125 
Q 37.796875 6.203125 41.984375 11.859375 
Q 46.1875 17.53125 46.1875 27.296875 
Q 46.1875 37.015625 41.984375 42.703125 
Q 37.796875 48.390625 30.609375 48.390625 
z
M 30.609375 56 
Q 42.328125 56 49.015625 48.375 
Q 55.71875 40.765625 55.71875 27.296875 
Q 55.71875 13.875 49.015625 6.21875 
Q 42.328125 -1.421875 30.609375 -1.421875 
Q 18.84375 -1.421875 12.171875 6.21875 
Q 5.515625 13.875 5.515625 27.296875 
Q 5.515625 40.765625 12.171875 48.375 
Q 18.84375 56 30.609375 56 
z
" id="DejaVuSans-111"/>
        <path d="M 45.40625 46.390625 
L 45.40625 75.984375 
L 54.390625 75.984375 
L 54.390625 0 
L 45.40625 0 
L 45.40625 8.203125 
Q 42.578125 3.328125 38.25 0.953125 
Q 33.9375 -1.421875 27.875 -1.421875 
Q 17.96875 -1.421875 11.734375 6.484375 
Q 5.515625 14.40625 5.515625 27.296875 
Q 5.515625 40.1875 11.734375 48.09375 
Q 17.96875 56 27.875 56 
Q 33.9375 56 38.25 53.625 
Q 42.578125 51.265625 45.40625 46.390625 
z
M 14.796875 27.296875 
Q 14.796875 17.390625 18.875 11.75 
Q 22.953125 6.109375 30.078125 6.109375 
Q 37.203125 6.109375 41.296875 11.75 
Q 45.40625 17.390625 45.40625 27.296875 
Q 45.40625 37.203125 41.296875 42.84375 
Q 37.203125 48.484375 30.078125 48.484375 
Q 22.953125 48.484375 18.875 42.84375 
Q 14.796875 37.203125 14.796875 27.296875 
z
" id="DejaVuSans-100"/>
       </defs>
       <use xlink:href="#DejaVuSans-79"/>
       <use x="78.710938" xlink:href="#DejaVuSans-117"/>
       <use x="142.089844" xlink:href="#DejaVuSans-114"/>
       <use x="183.203125" xlink:href="#DejaVuSans-32"/>
       <use x="214.990234" xlink:href="#DejaVuSans-77"/>
       <use x="301.269531" xlink:href="#DejaVuSans-101"/>
       <use x="362.792969" xlink:href="#DejaVuSans-116"/>
       <use x="402.001953" xlink:href="#DejaVuSans-104"/>
       <use x="465.380859" xlink:href="#DejaVuSans-111"/>
       <use x="526.5625" xlink:href="#DejaVuSans-100"/>
      </g>
     </g>
    </g>
    <g id="xtick_2">
     <g id="line2d_2">
      <g>
       <use style="stroke:#000000;stroke-width:0.8;" x="204.366477" xlink:href="#m9df5f3551c" y="244.1"/>
      </g>
     </g>
     <g id="text_2">
      <!-- Stein's -->
      <g transform="translate(175.058079 264.397266)scale(0.175 -0.175)">
       <defs>
        <path d="M 53.515625 70.515625 
L 53.515625 60.890625 
Q 47.90625 63.578125 42.921875 64.890625 
Q 37.9375 66.21875 33.296875 66.21875 
Q 25.25 66.21875 20.875 63.09375 
Q 16.5 59.96875 16.5 54.203125 
Q 16.5 49.359375 19.40625 46.890625 
Q 22.3125 44.4375 30.421875 42.921875 
L 36.375 41.703125 
Q 47.40625 39.59375 52.65625 34.296875 
Q 57.90625 29 57.90625 20.125 
Q 57.90625 9.515625 50.796875 4.046875 
Q 43.703125 -1.421875 29.984375 -1.421875 
Q 24.8125 -1.421875 18.96875 -0.25 
Q 13.140625 0.921875 6.890625 3.21875 
L 6.890625 13.375 
Q 12.890625 10.015625 18.65625 8.296875 
Q 24.421875 6.59375 29.984375 6.59375 
Q 38.421875 6.59375 43.015625 9.90625 
Q 47.609375 13.234375 47.609375 19.390625 
Q 47.609375 24.75 44.3125 27.78125 
Q 41.015625 30.8125 33.5 32.328125 
L 27.484375 33.5 
Q 16.453125 35.6875 11.515625 40.375 
Q 6.59375 45.0625 6.59375 53.421875 
Q 6.59375 63.09375 13.40625 68.65625 
Q 20.21875 74.21875 32.171875 74.21875 
Q 37.3125 74.21875 42.625 73.28125 
Q 47.953125 72.359375 53.515625 70.515625 
z
" id="DejaVuSans-83"/>
        <path d="M 9.421875 54.6875 
L 18.40625 54.6875 
L 18.40625 0 
L 9.421875 0 
z
M 9.421875 75.984375 
L 18.40625 75.984375 
L 18.40625 64.59375 
L 9.421875 64.59375 
z
" id="DejaVuSans-105"/>
        <path d="M 54.890625 33.015625 
L 54.890625 0 
L 45.90625 0 
L 45.90625 32.71875 
Q 45.90625 40.484375 42.875 44.328125 
Q 39.84375 48.1875 33.796875 48.1875 
Q 26.515625 48.1875 22.3125 43.546875 
Q 18.109375 38.921875 18.109375 30.90625 
L 18.109375 0 
L 9.078125 0 
L 9.078125 54.6875 
L 18.109375 54.6875 
L 18.109375 46.1875 
Q 21.34375 51.125 25.703125 53.5625 
Q 30.078125 56 35.796875 56 
Q 45.21875 56 50.046875 50.171875 
Q 54.890625 44.34375 54.890625 33.015625 
z
" id="DejaVuSans-110"/>
        <path d="M 17.921875 72.90625 
L 17.921875 45.796875 
L 9.625 45.796875 
L 9.625 72.90625 
z
" id="DejaVuSans-39"/>
        <path d="M 44.28125 53.078125 
L 44.28125 44.578125 
Q 40.484375 46.53125 36.375 47.5 
Q 32.28125 48.484375 27.875 48.484375 
Q 21.1875 48.484375 17.84375 46.4375 
Q 14.5 44.390625 14.5 40.28125 
Q 14.5 37.15625 16.890625 35.375 
Q 19.28125 33.59375 26.515625 31.984375 
L 29.59375 31.296875 
Q 39.15625 29.25 43.1875 25.515625 
Q 47.21875 21.78125 47.21875 15.09375 
Q 47.21875 7.46875 41.1875 3.015625 
Q 35.15625 -1.421875 24.609375 -1.421875 
Q 20.21875 -1.421875 15.453125 -0.5625 
Q 10.6875 0.296875 5.421875 2 
L 5.421875 11.28125 
Q 10.40625 8.6875 15.234375 7.390625 
Q 20.0625 6.109375 24.8125 6.109375 
Q 31.15625 6.109375 34.5625 8.28125 
Q 37.984375 10.453125 37.984375 14.40625 
Q 37.984375 18.0625 35.515625 20.015625 
Q 33.0625 21.96875 24.703125 23.78125 
L 21.578125 24.515625 
Q 13.234375 26.265625 9.515625 29.90625 
Q 5.8125 33.546875 5.8125 39.890625 
Q 5.8125 47.609375 11.28125 51.796875 
Q 16.75 56 26.8125 56 
Q 31.78125 56 36.171875 55.265625 
Q 40.578125 54.546875 44.28125 53.078125 
z
" id="DejaVuSans-115"/>
       </defs>
       <use xlink:href="#DejaVuSans-83"/>
       <use x="63.476562" xlink:href="#DejaVuSans-116"/>
       <use x="102.685547" xlink:href="#DejaVuSans-101"/>
       <use x="164.208984" xlink:href="#DejaVuSans-105"/>
       <use x="191.992188" xlink:href="#DejaVuSans-110"/>
       <use x="255.371094" xlink:href="#DejaVuSans-39"/>
       <use x="282.861328" xlink:href="#DejaVuSans-115"/>
      </g>
     </g>
    </g>
    <g id="xtick_3">
     <g id="line2d_3">
      <g>
       <use style="stroke:#000000;stroke-width:0.8;" x="297.978461" xlink:href="#m9df5f3551c" y="244.1"/>
      </g>
     </g>
     <g id="text_3">
      <!-- Entry-wise -->
      <g transform="translate(252.165375 264.397266)scale(0.175 -0.175)">
       <defs>
        <path d="M 9.8125 72.90625 
L 55.90625 72.90625 
L 55.90625 64.59375 
L 19.671875 64.59375 
L 19.671875 43.015625 
L 54.390625 43.015625 
L 54.390625 34.71875 
L 19.671875 34.71875 
L 19.671875 8.296875 
L 56.78125 8.296875 
L 56.78125 0 
L 9.8125 0 
z
" id="DejaVuSans-69"/>
        <path d="M 32.171875 -5.078125 
Q 28.375 -14.84375 24.75 -17.8125 
Q 21.140625 -20.796875 15.09375 -20.796875 
L 7.90625 -20.796875 
L 7.90625 -13.28125 
L 13.1875 -13.28125 
Q 16.890625 -13.28125 18.9375 -11.515625 
Q 21 -9.765625 23.484375 -3.21875 
L 25.09375 0.875 
L 2.984375 54.6875 
L 12.5 54.6875 
L 29.59375 11.921875 
L 46.6875 54.6875 
L 56.203125 54.6875 
z
" id="DejaVuSans-121"/>
        <path d="M 4.890625 31.390625 
L 31.203125 31.390625 
L 31.203125 23.390625 
L 4.890625 23.390625 
z
" id="DejaVuSans-45"/>
        <path d="M 4.203125 54.6875 
L 13.1875 54.6875 
L 24.421875 12.015625 
L 35.59375 54.6875 
L 46.1875 54.6875 
L 57.421875 12.015625 
L 68.609375 54.6875 
L 77.59375 54.6875 
L 63.28125 0 
L 52.6875 0 
L 40.921875 44.828125 
L 29.109375 0 
L 18.5 0 
z
" id="DejaVuSans-119"/>
       </defs>
       <use xlink:href="#DejaVuSans-69"/>
       <use x="63.183594" xlink:href="#DejaVuSans-110"/>
       <use x="126.5625" xlink:href="#DejaVuSans-116"/>
       <use x="165.771484" xlink:href="#DejaVuSans-114"/>
       <use x="206.884766" xlink:href="#DejaVuSans-121"/>
       <use x="264.314453" xlink:href="#DejaVuSans-45"/>
       <use x="300.398438" xlink:href="#DejaVuSans-119"/>
       <use x="382.185547" xlink:href="#DejaVuSans-105"/>
       <use x="409.96875" xlink:href="#DejaVuSans-115"/>
       <use x="462.068359" xlink:href="#DejaVuSans-101"/>
      </g>
     </g>
    </g>
   </g>
   <g id="matplotlib.axis_2">
    <g id="ytick_1">
     <g id="line2d_4">
      <defs>
       <path d="M 0 0 
L -3.5 0 
" id="mcc5d0d98c9" style="stroke:#000000;stroke-width:0.8;"/>
      </defs>
      <g>
       <use style="stroke:#000000;stroke-width:0.8;" x="75.65" xlink:href="#mcc5d0d98c9" y="238.052607"/>
      </g>
     </g>
     <g id="text_4">
      <!-- 0.0 -->
      <g transform="translate(40.819531 244.701239)scale(0.175 -0.175)">
       <defs>
        <path d="M 31.78125 66.40625 
Q 24.171875 66.40625 20.328125 58.90625 
Q 16.5 51.421875 16.5 36.375 
Q 16.5 21.390625 20.328125 13.890625 
Q 24.171875 6.390625 31.78125 6.390625 
Q 39.453125 6.390625 43.28125 13.890625 
Q 47.125 21.390625 47.125 36.375 
Q 47.125 51.421875 43.28125 58.90625 
Q 39.453125 66.40625 31.78125 66.40625 
z
M 31.78125 74.21875 
Q 44.046875 74.21875 50.515625 64.515625 
Q 56.984375 54.828125 56.984375 36.375 
Q 56.984375 17.96875 50.515625 8.265625 
Q 44.046875 -1.421875 31.78125 -1.421875 
Q 19.53125 -1.421875 13.0625 8.265625 
Q 6.59375 17.96875 6.59375 36.375 
Q 6.59375 54.828125 13.0625 64.515625 
Q 19.53125 74.21875 31.78125 74.21875 
z
" id="DejaVuSans-48"/>
        <path d="M 10.6875 12.40625 
L 21 12.40625 
L 21 0 
L 10.6875 0 
z
" id="DejaVuSans-46"/>
       </defs>
       <use xlink:href="#DejaVuSans-48"/>
       <use x="63.623047" xlink:href="#DejaVuSans-46"/>
       <use x="95.410156" xlink:href="#DejaVuSans-48"/>
      </g>
     </g>
    </g>
    <g id="ytick_2">
     <g id="line2d_5">
      <g>
       <use style="stroke:#000000;stroke-width:0.8;" x="75.65" xlink:href="#mcc5d0d98c9" y="190.045696"/>
      </g>
     </g>
     <g id="text_5">
      <!-- 0.2 -->
      <g transform="translate(40.819531 196.694329)scale(0.175 -0.175)">
       <defs>
        <path d="M 19.1875 8.296875 
L 53.609375 8.296875 
L 53.609375 0 
L 7.328125 0 
L 7.328125 8.296875 
Q 12.9375 14.109375 22.625 23.890625 
Q 32.328125 33.6875 34.8125 36.53125 
Q 39.546875 41.84375 41.421875 45.53125 
Q 43.3125 49.21875 43.3125 52.78125 
Q 43.3125 58.59375 39.234375 62.25 
Q 35.15625 65.921875 28.609375 65.921875 
Q 23.96875 65.921875 18.8125 64.3125 
Q 13.671875 62.703125 7.8125 59.421875 
L 7.8125 69.390625 
Q 13.765625 71.78125 18.9375 73 
Q 24.125 74.21875 28.421875 74.21875 
Q 39.75 74.21875 46.484375 68.546875 
Q 53.21875 62.890625 53.21875 53.421875 
Q 53.21875 48.921875 51.53125 44.890625 
Q 49.859375 40.875 45.40625 35.40625 
Q 44.1875 33.984375 37.640625 27.21875 
Q 31.109375 20.453125 19.1875 8.296875 
z
" id="DejaVuSans-50"/>
       </defs>
       <use xlink:href="#DejaVuSans-48"/>
       <use x="63.623047" xlink:href="#DejaVuSans-46"/>
       <use x="95.410156" xlink:href="#DejaVuSans-50"/>
      </g>
     </g>
    </g>
    <g id="ytick_3">
     <g id="line2d_6">
      <g>
       <use style="stroke:#000000;stroke-width:0.8;" x="75.65" xlink:href="#mcc5d0d98c9" y="142.038786"/>
      </g>
     </g>
     <g id="text_6">
      <!-- 0.4 -->
      <g transform="translate(40.819531 148.687419)scale(0.175 -0.175)">
       <defs>
        <path d="M 37.796875 64.3125 
L 12.890625 25.390625 
L 37.796875 25.390625 
z
M 35.203125 72.90625 
L 47.609375 72.90625 
L 47.609375 25.390625 
L 58.015625 25.390625 
L 58.015625 17.1875 
L 47.609375 17.1875 
L 47.609375 0 
L 37.796875 0 
L 37.796875 17.1875 
L 4.890625 17.1875 
L 4.890625 26.703125 
z
" id="DejaVuSans-52"/>
       </defs>
       <use xlink:href="#DejaVuSans-48"/>
       <use x="63.623047" xlink:href="#DejaVuSans-46"/>
       <use x="95.410156" xlink:href="#DejaVuSans-52"/>
      </g>
     </g>
    </g>
    <g id="ytick_4">
     <g id="line2d_7">
      <g>
       <use style="stroke:#000000;stroke-width:0.8;" x="75.65" xlink:href="#mcc5d0d98c9" y="94.031875"/>
      </g>
     </g>
     <g id="text_7">
      <!-- 0.6 -->
      <g transform="translate(40.819531 100.680508)scale(0.175 -0.175)">
       <defs>
        <path d="M 33.015625 40.375 
Q 26.375 40.375 22.484375 35.828125 
Q 18.609375 31.296875 18.609375 23.390625 
Q 18.609375 15.53125 22.484375 10.953125 
Q 26.375 6.390625 33.015625 6.390625 
Q 39.65625 6.390625 43.53125 10.953125 
Q 47.40625 15.53125 47.40625 23.390625 
Q 47.40625 31.296875 43.53125 35.828125 
Q 39.65625 40.375 33.015625 40.375 
z
M 52.59375 71.296875 
L 52.59375 62.3125 
Q 48.875 64.0625 45.09375 64.984375 
Q 41.3125 65.921875 37.59375 65.921875 
Q 27.828125 65.921875 22.671875 59.328125 
Q 17.53125 52.734375 16.796875 39.40625 
Q 19.671875 43.65625 24.015625 45.921875 
Q 28.375 48.1875 33.59375 48.1875 
Q 44.578125 48.1875 50.953125 41.515625 
Q 57.328125 34.859375 57.328125 23.390625 
Q 57.328125 12.15625 50.6875 5.359375 
Q 44.046875 -1.421875 33.015625 -1.421875 
Q 20.359375 -1.421875 13.671875 8.265625 
Q 6.984375 17.96875 6.984375 36.375 
Q 6.984375 53.65625 15.1875 63.9375 
Q 23.390625 74.21875 37.203125 74.21875 
Q 40.921875 74.21875 44.703125 73.484375 
Q 48.484375 72.75 52.59375 71.296875 
z
" id="DejaVuSans-54"/>
       </defs>
       <use xlink:href="#DejaVuSans-48"/>
       <use x="63.623047" xlink:href="#DejaVuSans-46"/>
       <use x="95.410156" xlink:href="#DejaVuSans-54"/>
      </g>
     </g>
    </g>
    <g id="ytick_5">
     <g id="line2d_8">
      <g>
       <use style="stroke:#000000;stroke-width:0.8;" x="75.65" xlink:href="#mcc5d0d98c9" y="46.024965"/>
      </g>
     </g>
     <g id="text_8">
      <!-- 0.8 -->
      <g transform="translate(40.819531 52.673598)scale(0.175 -0.175)">
       <defs>
        <path d="M 31.78125 34.625 
Q 24.75 34.625 20.71875 30.859375 
Q 16.703125 27.09375 16.703125 20.515625 
Q 16.703125 13.921875 20.71875 10.15625 
Q 24.75 6.390625 31.78125 6.390625 
Q 38.8125 6.390625 42.859375 10.171875 
Q 46.921875 13.96875 46.921875 20.515625 
Q 46.921875 27.09375 42.890625 30.859375 
Q 38.875 34.625 31.78125 34.625 
z
M 21.921875 38.8125 
Q 15.578125 40.375 12.03125 44.71875 
Q 8.5 49.078125 8.5 55.328125 
Q 8.5 64.0625 14.71875 69.140625 
Q 20.953125 74.21875 31.78125 74.21875 
Q 42.671875 74.21875 48.875 69.140625 
Q 55.078125 64.0625 55.078125 55.328125 
Q 55.078125 49.078125 51.53125 44.71875 
Q 48 40.375 41.703125 38.8125 
Q 48.828125 37.15625 52.796875 32.3125 
Q 56.78125 27.484375 56.78125 20.515625 
Q 56.78125 9.90625 50.3125 4.234375 
Q 43.84375 -1.421875 31.78125 -1.421875 
Q 19.734375 -1.421875 13.25 4.234375 
Q 6.78125 9.90625 6.78125 20.515625 
Q 6.78125 27.484375 10.78125 32.3125 
Q 14.796875 37.15625 21.921875 38.8125 
z
M 18.3125 54.390625 
Q 18.3125 48.734375 21.84375 45.5625 
Q 25.390625 42.390625 31.78125 42.390625 
Q 38.140625 42.390625 41.71875 45.5625 
Q 45.3125 48.734375 45.3125 54.390625 
Q 45.3125 60.0625 41.71875 63.234375 
Q 38.140625 66.40625 31.78125 66.40625 
Q 25.390625 66.40625 21.84375 63.234375 
Q 18.3125 60.0625 18.3125 54.390625 
z
" id="DejaVuSans-56"/>
       </defs>
       <use xlink:href="#DejaVuSans-48"/>
       <use x="63.623047" xlink:href="#DejaVuSans-46"/>
       <use x="95.410156" xlink:href="#DejaVuSans-56"/>
      </g>
     </g>
    </g>
    <g id="text_9">
     <!-- Estimation Error -->
     <g transform="translate(33.180078 202.198633)rotate(-90)scale(0.175 -0.175)">
      <defs>
       <path d="M 52 44.1875 
Q 55.375 50.25 60.0625 53.125 
Q 64.75 56 71.09375 56 
Q 79.640625 56 84.28125 50.015625 
Q 88.921875 44.046875 88.921875 33.015625 
L 88.921875 0 
L 79.890625 0 
L 79.890625 32.71875 
Q 79.890625 40.578125 77.09375 44.375 
Q 74.3125 48.1875 68.609375 48.1875 
Q 61.625 48.1875 57.5625 43.546875 
Q 53.515625 38.921875 53.515625 30.90625 
L 53.515625 0 
L 44.484375 0 
L 44.484375 32.71875 
Q 44.484375 40.625 41.703125 44.40625 
Q 38.921875 48.1875 33.109375 48.1875 
Q 26.21875 48.1875 22.15625 43.53125 
Q 18.109375 38.875 18.109375 30.90625 
L 18.109375 0 
L 9.078125 0 
L 9.078125 54.6875 
L 18.109375 54.6875 
L 18.109375 46.1875 
Q 21.1875 51.21875 25.484375 53.609375 
Q 29.78125 56 35.6875 56 
Q 41.65625 56 45.828125 52.96875 
Q 50 49.953125 52 44.1875 
z
" id="DejaVuSans-109"/>
       <path d="M 34.28125 27.484375 
Q 23.390625 27.484375 19.1875 25 
Q 14.984375 22.515625 14.984375 16.5 
Q 14.984375 11.71875 18.140625 8.90625 
Q 21.296875 6.109375 26.703125 6.109375 
Q 34.1875 6.109375 38.703125 11.40625 
Q 43.21875 16.703125 43.21875 25.484375 
L 43.21875 27.484375 
z
M 52.203125 31.203125 
L 52.203125 0 
L 43.21875 0 
L 43.21875 8.296875 
Q 40.140625 3.328125 35.546875 0.953125 
Q 30.953125 -1.421875 24.3125 -1.421875 
Q 15.921875 -1.421875 10.953125 3.296875 
Q 6 8.015625 6 15.921875 
Q 6 25.140625 12.171875 29.828125 
Q 18.359375 34.515625 30.609375 34.515625 
L 43.21875 34.515625 
L 43.21875 35.40625 
Q 43.21875 41.609375 39.140625 45 
Q 35.0625 48.390625 27.6875 48.390625 
Q 23 48.390625 18.546875 47.265625 
Q 14.109375 46.140625 10.015625 43.890625 
L 10.015625 52.203125 
Q 14.9375 54.109375 19.578125 55.046875 
Q 24.21875 56 28.609375 56 
Q 40.484375 56 46.34375 49.84375 
Q 52.203125 43.703125 52.203125 31.203125 
z
" id="DejaVuSans-97"/>
      </defs>
      <use xlink:href="#DejaVuSans-69"/>
      <use x="63.183594" xlink:href="#DejaVuSans-115"/>
      <use x="115.283203" xlink:href="#DejaVuSans-116"/>
      <use x="154.492188" xlink:href="#DejaVuSans-105"/>
      <use x="182.275391" xlink:href="#DejaVuSans-109"/>
      <use x="279.6875" xlink:href="#DejaVuSans-97"/>
      <use x="340.966797" xlink:href="#DejaVuSans-116"/>
      <use x="380.175781" xlink:href="#DejaVuSans-105"/>
      <use x="407.958984" xlink:href="#DejaVuSans-111"/>
      <use x="469.140625" xlink:href="#DejaVuSans-110"/>
      <use x="532.519531" xlink:href="#DejaVuSans-32"/>
      <use x="564.306641" xlink:href="#DejaVuSans-69"/>
      <use x="627.490234" xlink:href="#DejaVuSans-114"/>
      <use x="666.853516" xlink:href="#DejaVuSans-114"/>
      <use x="705.716797" xlink:href="#DejaVuSans-111"/>
      <use x="766.898438" xlink:href="#DejaVuSans-114"/>
     </g>
    </g>
   </g>
   <g id="LineCollection_1">
    <path clip-path="url(#p076a587e11)" d="M 99.052996 145.441766 
L 122.455992 145.441766 
" style="fill:none;stroke:#1f77b4;stroke-width:1.5;"/>
    <path clip-path="url(#p076a587e11)" d="M 192.664979 29.136364 
L 216.067975 29.136364 
" style="fill:none;stroke:#1f77b4;stroke-width:1.5;"/>
    <path clip-path="url(#p076a587e11)" d="M 286.276963 188.980487 
L 309.679959 188.980487 
" style="fill:none;stroke:#1f77b4;stroke-width:1.5;"/>
   </g>
   <g id="LineCollection_2">
    <path clip-path="url(#p076a587e11)" d="M 99.052996 232.989839 
L 122.455992 232.989839 
" style="fill:none;stroke:#1f77b4;stroke-width:1.5;"/>
    <path clip-path="url(#p076a587e11)" d="M 192.664979 226.509685 
L 216.067975 226.509685 
" style="fill:none;stroke:#1f77b4;stroke-width:1.5;"/>
    <path clip-path="url(#p076a587e11)" d="M 286.276963 233.863636 
L 309.679959 233.863636 
" style="fill:none;stroke:#1f77b4;stroke-width:1.5;"/>
   </g>
   <g id="LineCollection_3">
    <path clip-path="url(#p076a587e11)" d="M 110.754494 232.989839 
L 110.754494 145.441766 
" style="fill:none;stroke:#1f77b4;stroke-width:1.5;"/>
    <path clip-path="url(#p076a587e11)" d="M 204.366477 226.509685 
L 204.366477 29.136364 
" style="fill:none;stroke:#1f77b4;stroke-width:1.5;"/>
    <path clip-path="url(#p076a587e11)" d="M 297.978461 233.863636 
L 297.978461 188.980487 
" style="fill:none;stroke:#1f77b4;stroke-width:1.5;"/>
   </g>
   <g id="patch_3">
    <path d="M 75.65 244.1 
L 75.65 18.9 
" style="fill:none;stroke:#000000;stroke-linecap:square;stroke-linejoin:miter;stroke-width:0.8;"/>
   </g>
   <g id="patch_4">
    <path d="M 333.082955 244.1 
L 333.082955 18.9 
" style="fill:none;stroke:#000000;stroke-linecap:square;stroke-linejoin:miter;stroke-width:0.8;"/>
   </g>
   <g id="patch_5">
    <path d="M 75.65 244.1 
L 333.082955 244.1 
" style="fill:none;stroke:#000000;stroke-linecap:square;stroke-linejoin:miter;stroke-width:0.8;"/>
   </g>
   <g id="patch_6">
    <path d="M 75.65 18.9 
L 333.082955 18.9 
" style="fill:none;stroke:#000000;stroke-linecap:square;stroke-linejoin:miter;stroke-width:0.8;"/>
   </g>
  </g>
 </g>
 <defs>
  <clipPath id="p076a587e11">
   <rect height="225.2" width="257.432955" x="75.65" y="18.9"/>
  </clipPath>
 </defs>
</svg>
