<?xml version="1.0" encoding="utf-8" standalone="no"?>
<!DOCTYPE svg PUBLIC "-//W3C//DTD SVG 1.1//EN"
  "http://www.w3.org/Graphics/SVG/1.1/DTD/svg11.dtd">
<!-- Created with matplotlib (https://matplotlib.org/) -->
<svg height="288pt" version="1.1" viewBox="0 0 360 288" width="360pt" xmlns="http://www.w3.org/2000/svg" xmlns:xlink="http://www.w3.org/1999/xlink">
 <metadata>
  <rdf:RDF xmlns:cc="http://creativecommons.org/ns#" xmlns:dc="http://purl.org/dc/elements/1.1/" xmlns:rdf="http://www.w3.org/1999/02/22-rdf-syntax-ns#">
   <cc:Work>
    <dc:type rdf:resource="http://purl.org/dc/dcmitype/StillImage"/>
    <dc:date>2022-09-25T00:48:13.628616</dc:date>
    <dc:format>image/svg+xml</dc:format>
    <dc:creator>
     <cc:Agent>
      <dc:title>Matplotlib v3.3.4, https://matplotlib.org/</dc:title>
     </cc:Agent>
    </dc:creator>
   </cc:Work>
  </rdf:RDF>
 </metadata>
 <defs>
  <style type="text/css">*{stroke-linecap:butt;stroke-linejoin:round;}</style>
 </defs>
 <g id="figure_1">
  <g id="patch_1">
   <path d="M 0 288 
L 360 288 
L 360 0 
L 0 0 
z
" style="fill:none;"/>
  </g>
  <g id="axes_1">
   <g id="patch_2">
    <path d="M 86.775 244.1 
L 333.082955 244.1 
L 333.082955 18.9 
L 86.775 18.9 
z
" style="fill:#ffffff;"/>
   </g>
   <g id="PolyCollection_1">
    <path clip-path="url(#p5b4cfc5bc2)" d="M 126.244998 233.863636 
L 114.479898 233.863636 
L 114.101901 233.393168 
L 113.719738 232.9227 
L 113.335262 232.452232 
L 112.950386 231.981763 
L 112.567047 231.511295 
L 112.187171 231.040827 
L 111.812633 230.570359 
L 111.445217 230.099891 
L 111.086572 229.629422 
L 110.738173 229.158954 
L 110.401276 228.688486 
L 110.076883 228.218018 
L 109.765711 227.74755 
L 109.468159 227.277081 
L 109.184289 226.806613 
L 108.913813 226.336145 
L 108.656087 225.865677 
L 108.410117 225.395208 
L 108.174568 224.92474 
L 107.947796 224.454272 
L 107.727876 223.983804 
L 107.512648 223.513336 
L 107.299769 223.042867 
L 107.08677 222.572399 
L 106.871127 222.101931 
L 106.650326 221.631463 
L 106.421939 221.160994 
L 106.183695 220.690526 
L 105.933556 220.220058 
L 105.669783 219.74959 
L 105.390998 219.279122 
L 105.096241 218.808653 
L 104.785014 218.338185 
L 104.457316 217.867717 
L 104.113665 217.397249 
L 103.755104 216.926781 
L 103.383197 216.456312 
L 103.000011 215.985844 
L 102.608078 215.515376 
L 102.210352 215.044908 
L 101.810148 214.574439 
L 101.411078 214.103971 
L 101.016969 213.633503 
L 100.631785 213.163035 
L 100.259538 212.692567 
L 99.9042 212.222098 
L 99.569618 211.75163 
L 99.259433 211.281162 
L 98.976994 210.810694 
L 98.725298 210.340225 
L 98.506926 209.869757 
L 98.323989 209.399289 
L 98.178099 208.928821 
L 98.070336 208.458353 
L 98.001241 207.987884 
L 97.970816 207.517416 
L 97.978536 207.046948 
L 98.023377 206.57648 
L 98.10385 206.106012 
L 98.218054 205.635543 
L 98.363724 205.165075 
L 98.538299 204.694607 
L 98.738989 204.224139 
L 98.962844 203.75367 
L 99.206832 203.283202 
L 99.467909 202.812734 
L 99.743094 202.342266 
L 100.029533 201.871798 
L 100.324562 201.401329 
L 100.625768 200.930861 
L 100.931028 200.460393 
L 101.238555 199.989925 
L 101.546919 199.519456 
L 101.855069 199.048988 
L 102.162336 198.57852 
L 102.468428 198.108052 
L 102.773417 197.637584 
L 103.077708 197.167115 
L 103.38201 196.696647 
L 103.687287 196.226179 
L 103.994715 195.755711 
L 104.305623 195.285243 
L 104.621439 194.814774 
L 104.943631 194.344306 
L 105.273647 193.873838 
L 105.612861 193.40337 
L 105.962519 192.932901 
L 106.323691 192.462433 
L 106.697231 191.991965 
L 107.083741 191.521497 
L 107.483541 191.051029 
L 107.896657 190.58056 
L 108.322807 190.110092 
L 108.761396 189.639624 
L 109.211531 189.169156 
L 109.672026 188.698687 
L 110.141432 188.228219 
L 110.618058 187.757751 
L 111.10001 187.287283 
L 129.624886 187.287283 
L 129.624886 187.287283 
L 130.106838 187.757751 
L 130.583465 188.228219 
L 131.052871 188.698687 
L 131.513366 189.169156 
L 131.963501 189.639624 
L 132.40209 190.110092 
L 132.828239 190.58056 
L 133.241356 191.051029 
L 133.641156 191.521497 
L 134.027665 191.991965 
L 134.401205 192.462433 
L 134.762378 192.932901 
L 135.112036 193.40337 
L 135.45125 193.873838 
L 135.781266 194.344306 
L 136.103458 194.814774 
L 136.419274 195.285243 
L 136.730182 195.755711 
L 137.037609 196.226179 
L 137.342887 196.696647 
L 137.647188 197.167115 
L 137.95148 197.637584 
L 138.256469 198.108052 
L 138.562561 198.57852 
L 138.869828 199.048988 
L 139.177978 199.519456 
L 139.486342 199.989925 
L 139.793868 200.460393 
L 140.099129 200.930861 
L 140.400334 201.401329 
L 140.695364 201.871798 
L 140.981802 202.342266 
L 141.256987 202.812734 
L 141.518065 203.283202 
L 141.762053 203.75367 
L 141.985908 204.224139 
L 142.186597 204.694607 
L 142.361173 205.165075 
L 142.506843 205.635543 
L 142.621046 206.106012 
L 142.70152 206.57648 
L 142.746361 207.046948 
L 142.754081 207.517416 
L 142.723655 207.987884 
L 142.654561 208.458353 
L 142.546798 208.928821 
L 142.400908 209.399289 
L 142.217971 209.869757 
L 141.999598 210.340225 
L 141.747903 210.810694 
L 141.465464 211.281162 
L 141.155278 211.75163 
L 140.820697 212.222098 
L 140.465359 212.692567 
L 140.093112 213.163035 
L 139.707927 213.633503 
L 139.313819 214.103971 
L 138.914748 214.574439 
L 138.514545 215.044908 
L 138.116818 215.515376 
L 137.724885 215.985844 
L 137.341699 216.456312 
L 136.969793 216.926781 
L 136.611232 217.397249 
L 136.267581 217.867717 
L 135.939883 218.338185 
L 135.628656 218.808653 
L 135.333898 219.279122 
L 135.055113 219.74959 
L 134.79134 220.220058 
L 134.541202 220.690526 
L 134.302958 221.160994 
L 134.074571 221.631463 
L 133.85377 222.101931 
L 133.638127 222.572399 
L 133.425128 223.042867 
L 133.212249 223.513336 
L 132.997021 223.983804 
L 132.777101 224.454272 
L 132.550329 224.92474 
L 132.31478 225.395208 
L 132.068809 225.865677 
L 131.811084 226.336145 
L 131.540608 226.806613 
L 131.256738 227.277081 
L 130.959186 227.74755 
L 130.648013 228.218018 
L 130.323621 228.688486 
L 129.986724 229.158954 
L 129.638324 229.629422 
L 129.27968 230.099891 
L 128.912264 230.570359 
L 128.537726 231.040827 
L 128.15785 231.511295 
L 127.77451 231.981763 
L 127.389634 232.452232 
L 127.005159 232.9227 
L 126.622995 233.393168 
L 126.244998 233.863636 
z
" style="fill:#1f77b4;fill-opacity:0.3;"/>
   </g>
   <g id="PolyCollection_2">
    <path clip-path="url(#p5b4cfc5bc2)" d="M 223.266054 177.667703 
L 196.591901 177.667703 
L 196.199312 176.167387 
L 195.841955 174.66707 
L 195.520544 173.166754 
L 195.235 171.666437 
L 194.984438 170.16612 
L 194.767176 168.665804 
L 194.580772 167.165487 
L 194.422078 165.665171 
L 194.287321 164.164854 
L 194.172199 162.664538 
L 194.071996 161.164221 
L 193.981712 159.663905 
L 193.8962 158.163588 
L 193.810312 156.663271 
L 193.719046 155.162955 
L 193.617688 153.662638 
L 193.501949 152.162322 
L 193.368092 150.662005 
L 193.213041 149.161689 
L 193.034473 147.661372 
L 192.83089 146.161055 
L 192.601666 144.660739 
L 192.347069 143.160422 
L 192.068261 141.660106 
L 191.767272 140.159789 
L 191.446946 138.659473 
L 191.110871 137.159156 
L 190.763285 135.65884 
L 190.408967 134.158523 
L 190.053111 132.658206 
L 189.701199 131.15789 
L 189.358855 129.657573 
L 189.031707 128.157257 
L 188.725252 126.65694 
L 188.444717 125.156624 
L 188.194943 123.656307 
L 187.980273 122.15599 
L 187.804457 120.655674 
L 187.670581 119.155357 
L 187.581009 117.655041 
L 187.537345 116.154724 
L 187.540426 114.654408 
L 187.590323 113.154091 
L 187.686371 111.653775 
L 187.827208 110.153458 
L 188.010843 108.653141 
L 188.234722 107.152825 
L 188.49582 105.652508 
L 188.790726 104.152192 
L 189.115747 102.651875 
L 189.467002 101.151559 
L 189.840521 99.651242 
L 190.232336 98.150925 
L 190.638572 96.650609 
L 191.055518 95.150292 
L 191.479699 93.649976 
L 191.907928 92.149659 
L 192.337349 90.649343 
L 192.765467 89.149026 
L 193.190162 87.64871 
L 193.609696 86.148393 
L 194.022704 84.648076 
L 194.428176 83.14776 
L 194.825431 81.647443 
L 195.214085 80.147127 
L 195.594012 78.64681 
L 195.9653 77.146494 
L 196.328213 75.646177 
L 196.683144 74.14586 
L 197.030574 72.645544 
L 197.371037 71.145227 
L 197.705082 69.644911 
L 198.033251 68.144594 
L 198.356047 66.644278 
L 198.673926 65.143961 
L 198.98728 63.643645 
L 199.296431 62.143328 
L 199.601635 60.643011 
L 199.903084 59.142695 
L 200.20091 57.642378 
L 200.4952 56.142062 
L 200.786005 54.641745 
L 201.073351 53.141429 
L 201.357256 51.641112 
L 201.637736 50.140795 
L 201.914815 48.640479 
L 202.188535 47.140162 
L 202.458956 45.639846 
L 202.72616 44.139529 
L 202.990249 42.639213 
L 203.251338 41.138896 
L 203.509553 39.63858 
L 203.765016 38.138263 
L 204.017843 36.637946 
L 204.268126 35.13763 
L 204.515928 33.637313 
L 204.761268 32.136997 
L 205.004118 30.63668 
L 205.244391 29.136364 
L 214.613564 29.136364 
L 214.613564 29.136364 
L 214.853837 30.63668 
L 215.096687 32.136997 
L 215.342027 33.637313 
L 215.589828 35.13763 
L 215.840112 36.637946 
L 216.092938 38.138263 
L 216.348402 39.63858 
L 216.606616 41.138896 
L 216.867705 42.639213 
L 217.131794 44.139529 
L 217.398999 45.639846 
L 217.66942 47.140162 
L 217.94314 48.640479 
L 218.220219 50.140795 
L 218.500698 51.641112 
L 218.784603 53.141429 
L 219.07195 54.641745 
L 219.362754 56.142062 
L 219.657044 57.642378 
L 219.95487 59.142695 
L 220.256319 60.643011 
L 220.561524 62.143328 
L 220.870675 63.643645 
L 221.184028 65.143961 
L 221.501907 66.644278 
L 221.824704 68.144594 
L 222.152872 69.644911 
L 222.486918 71.145227 
L 222.827381 72.645544 
L 223.174811 74.14586 
L 223.529741 75.646177 
L 223.892654 77.146494 
L 224.263943 78.64681 
L 224.643869 80.147127 
L 225.032523 81.647443 
L 225.429779 83.14776 
L 225.83525 84.648076 
L 226.248258 86.148393 
L 226.667792 87.64871 
L 227.092488 89.149026 
L 227.520605 90.649343 
L 227.950026 92.149659 
L 228.378255 93.649976 
L 228.802436 95.150292 
L 229.219383 96.650609 
L 229.625618 98.150925 
L 230.017434 99.651242 
L 230.390952 101.151559 
L 230.742207 102.651875 
L 231.067229 104.152192 
L 231.362135 105.652508 
L 231.623232 107.152825 
L 231.847112 108.653141 
L 232.030746 110.153458 
L 232.171584 111.653775 
L 232.267631 113.154091 
L 232.317528 114.654408 
L 232.32061 116.154724 
L 232.276946 117.655041 
L 232.187373 119.155357 
L 232.053497 120.655674 
L 231.877682 122.15599 
L 231.663012 123.656307 
L 231.413238 125.156624 
L 231.132703 126.65694 
L 230.826247 128.157257 
L 230.4991 129.657573 
L 230.156755 131.15789 
L 229.804843 132.658206 
L 229.448988 134.158523 
L 229.094669 135.65884 
L 228.747083 137.159156 
L 228.411008 138.659473 
L 228.090682 140.159789 
L 227.789693 141.660106 
L 227.510886 143.160422 
L 227.256289 144.660739 
L 227.027064 146.161055 
L 226.823481 147.661372 
L 226.644914 149.161689 
L 226.489863 150.662005 
L 226.356006 152.162322 
L 226.240267 153.662638 
L 226.138908 155.162955 
L 226.047642 156.663271 
L 225.961755 158.163588 
L 225.876243 159.663905 
L 225.785958 161.164221 
L 225.685755 162.664538 
L 225.570633 164.164854 
L 225.435876 165.665171 
L 225.277182 167.165487 
L 225.090778 168.665804 
L 224.873517 170.16612 
L 224.622955 171.666437 
L 224.337411 173.166754 
L 224.016 174.66707 
L 223.658642 176.167387 
L 223.266054 177.667703 
z
" style="fill:#1f77b4;fill-opacity:0.3;"/>
   </g>
   <g id="PolyCollection_3">
    <path clip-path="url(#p5b4cfc5bc2)" d="M 311.932369 225.72913 
L 287.058644 225.72913 
L 286.361916 225.041307 
L 285.66853 224.353484 
L 284.982137 223.665662 
L 284.306388 222.977839 
L 283.644888 222.290016 
L 283.001157 221.602193 
L 282.378593 220.91437 
L 281.780432 220.226548 
L 281.209717 219.538725 
L 280.669258 218.850902 
L 280.161607 218.163079 
L 279.689027 217.475257 
L 279.253468 216.787434 
L 278.856543 216.099611 
L 278.499514 215.411788 
L 278.183274 214.723965 
L 277.908338 214.036143 
L 277.674838 213.34832 
L 277.482521 212.660497 
L 277.330754 211.972674 
L 277.218533 211.284852 
L 277.144497 210.597029 
L 277.106947 209.909206 
L 277.103874 209.221383 
L 277.132983 208.533561 
L 277.191733 207.845738 
L 277.27737 207.157915 
L 277.386971 206.470092 
L 277.517489 205.782269 
L 277.665796 205.094447 
L 277.828731 204.406624 
L 278.003149 203.718801 
L 278.185964 203.030978 
L 278.374196 202.343156 
L 278.565013 201.655333 
L 278.755769 200.96751 
L 278.944041 200.279687 
L 279.127657 199.591864 
L 279.304729 198.904042 
L 279.473668 198.216219 
L 279.633207 197.528396 
L 279.782408 196.840573 
L 279.920673 196.152751 
L 280.047742 195.464928 
L 280.163695 194.777105 
L 280.268941 194.089282 
L 280.364204 193.401459 
L 280.450514 192.713637 
L 280.529178 192.025814 
L 280.60176 191.337991 
L 280.670051 190.650168 
L 280.736037 189.962346 
L 280.801862 189.274523 
L 280.869792 188.5867 
L 280.94217 187.898877 
L 281.021375 187.211055 
L 281.109775 186.523232 
L 281.209681 185.835409 
L 281.323301 185.147586 
L 281.452694 184.459763 
L 281.599726 183.771941 
L 281.766026 183.084118 
L 281.952952 182.396295 
L 282.161557 181.708472 
L 282.39256 181.02065 
L 282.646325 180.332827 
L 282.922851 179.645004 
L 283.221765 178.957181 
L 283.542325 178.269358 
L 283.883432 177.581536 
L 284.24365 176.893713 
L 284.621239 176.20589 
L 285.014187 175.518067 
L 285.420252 174.830245 
L 285.837019 174.142422 
L 286.261946 173.454599 
L 286.692425 172.766776 
L 287.125835 172.078953 
L 287.559607 171.391131 
L 287.991273 170.703308 
L 288.418522 170.015485 
L 288.839243 169.327662 
L 289.25157 168.63984 
L 289.653908 167.952017 
L 290.044961 167.264194 
L 290.423746 166.576371 
L 290.789594 165.888549 
L 291.142149 165.200726 
L 291.481351 164.512903 
L 291.807414 163.82508 
L 292.120797 163.137257 
L 292.422167 162.449435 
L 292.712359 161.761612 
L 292.992329 161.073789 
L 293.263112 160.385966 
L 293.525776 159.698144 
L 293.781374 159.010321 
L 294.030912 158.322498 
L 294.275305 157.634675 
L 304.715707 157.634675 
L 304.715707 157.634675 
L 304.9601 158.322498 
L 305.209638 159.010321 
L 305.465237 159.698144 
L 305.7279 160.385966 
L 305.998683 161.073789 
L 306.278654 161.761612 
L 306.568845 162.449435 
L 306.870216 163.137257 
L 307.183599 163.82508 
L 307.509662 164.512903 
L 307.848863 165.200726 
L 308.201418 165.888549 
L 308.567266 166.576371 
L 308.946051 167.264194 
L 309.337105 167.952017 
L 309.739443 168.63984 
L 310.151769 169.327662 
L 310.572491 170.015485 
L 310.999739 170.703308 
L 311.431406 171.391131 
L 311.865178 172.078953 
L 312.298588 172.766776 
L 312.729066 173.454599 
L 313.153993 174.142422 
L 313.57076 174.830245 
L 313.976826 175.518067 
L 314.369773 176.20589 
L 314.747362 176.893713 
L 315.107581 177.581536 
L 315.448687 178.269358 
L 315.769247 178.957181 
L 316.068161 179.645004 
L 316.344687 180.332827 
L 316.598453 181.02065 
L 316.829455 181.708472 
L 317.03806 182.396295 
L 317.224987 183.084118 
L 317.391287 183.771941 
L 317.538318 184.459763 
L 317.667711 185.147586 
L 317.781332 185.835409 
L 317.881238 186.523232 
L 317.969638 187.211055 
L 318.048843 187.898877 
L 318.121221 188.5867 
L 318.18915 189.274523 
L 318.254976 189.962346 
L 318.320962 190.650168 
L 318.389253 191.337991 
L 318.461834 192.025814 
L 318.540498 192.713637 
L 318.626808 193.401459 
L 318.722072 194.089282 
L 318.827317 194.777105 
L 318.94327 195.464928 
L 319.07034 196.152751 
L 319.208604 196.840573 
L 319.357805 197.528396 
L 319.517344 198.216219 
L 319.686283 198.904042 
L 319.863355 199.591864 
L 320.046972 200.279687 
L 320.235243 200.96751 
L 320.425999 201.655333 
L 320.616816 202.343156 
L 320.805049 203.030978 
L 320.987864 203.718801 
L 321.162282 204.406624 
L 321.325217 205.094447 
L 321.473524 205.782269 
L 321.604041 206.470092 
L 321.713643 207.157915 
L 321.799279 207.845738 
L 321.858029 208.533561 
L 321.887138 209.221383 
L 321.884065 209.909206 
L 321.846516 210.597029 
L 321.772479 211.284852 
L 321.660258 211.972674 
L 321.508491 212.660497 
L 321.316174 213.34832 
L 321.082674 214.036143 
L 320.807738 214.723965 
L 320.491498 215.411788 
L 320.134469 216.099611 
L 319.737545 216.787434 
L 319.301985 217.475257 
L 318.829405 218.163079 
L 318.321755 218.850902 
L 317.781296 219.538725 
L 317.21058 220.226548 
L 316.61242 220.91437 
L 315.989856 221.602193 
L 315.346124 222.290016 
L 314.684624 222.977839 
L 314.008875 223.665662 
L 313.322483 224.353484 
L 312.629096 225.041307 
L 311.932369 225.72913 
z
" style="fill:#1f77b4;fill-opacity:0.3;"/>
   </g>
   <g id="matplotlib.axis_1">
    <g id="xtick_1">
     <g id="line2d_1">
      <defs>
       <path d="M 0 0 
L 0 3.5 
" id="maac2a58e5c" style="stroke:#000000;stroke-width:0.8;"/>
      </defs>
      <g>
       <use style="stroke:#000000;stroke-width:0.8;" x="120.362448" xlink:href="#maac2a58e5c" y="244.1"/>
      </g>
     </g>
     <g id="text_1">
      <!-- Our Method -->
      <g transform="translate(68.733347 264.397266)scale(0.175 -0.175)">
       <defs>
        <path d="M 39.40625 66.21875 
Q 28.65625 66.21875 22.328125 58.203125 
Q 16.015625 50.203125 16.015625 36.375 
Q 16.015625 22.609375 22.328125 14.59375 
Q 28.65625 6.59375 39.40625 6.59375 
Q 50.140625 6.59375 56.421875 14.59375 
Q 62.703125 22.609375 62.703125 36.375 
Q 62.703125 50.203125 56.421875 58.203125 
Q 50.140625 66.21875 39.40625 66.21875 
z
M 39.40625 74.21875 
Q 54.734375 74.21875 63.90625 63.9375 
Q 73.09375 53.65625 73.09375 36.375 
Q 73.09375 19.140625 63.90625 8.859375 
Q 54.734375 -1.421875 39.40625 -1.421875 
Q 24.03125 -1.421875 14.8125 8.828125 
Q 5.609375 19.09375 5.609375 36.375 
Q 5.609375 53.65625 14.8125 63.9375 
Q 24.03125 74.21875 39.40625 74.21875 
z
" id="DejaVuSans-79"/>
        <path d="M 8.5 21.578125 
L 8.5 54.6875 
L 17.484375 54.6875 
L 17.484375 21.921875 
Q 17.484375 14.15625 20.5 10.265625 
Q 23.53125 6.390625 29.59375 6.390625 
Q 36.859375 6.390625 41.078125 11.03125 
Q 45.3125 15.671875 45.3125 23.6875 
L 45.3125 54.6875 
L 54.296875 54.6875 
L 54.296875 0 
L 45.3125 0 
L 45.3125 8.40625 
Q 42.046875 3.421875 37.71875 1 
Q 33.40625 -1.421875 27.6875 -1.421875 
Q 18.265625 -1.421875 13.375 4.4375 
Q 8.5 10.296875 8.5 21.578125 
z
M 31.109375 56 
z
" id="DejaVuSans-117"/>
        <path d="M 41.109375 46.296875 
Q 39.59375 47.171875 37.8125 47.578125 
Q 36.03125 48 33.890625 48 
Q 26.265625 48 22.1875 43.046875 
Q 18.109375 38.09375 18.109375 28.8125 
L 18.109375 0 
L 9.078125 0 
L 9.078125 54.6875 
L 18.109375 54.6875 
L 18.109375 46.1875 
Q 20.953125 51.171875 25.484375 53.578125 
Q 30.03125 56 36.53125 56 
Q 37.453125 56 38.578125 55.875 
Q 39.703125 55.765625 41.0625 55.515625 
z
" id="DejaVuSans-114"/>
        <path id="DejaVuSans-32"/>
        <path d="M 9.8125 72.90625 
L 24.515625 72.90625 
L 43.109375 23.296875 
L 61.8125 72.90625 
L 76.515625 72.90625 
L 76.515625 0 
L 66.890625 0 
L 66.890625 64.015625 
L 48.09375 14.015625 
L 38.1875 14.015625 
L 19.390625 64.015625 
L 19.390625 0 
L 9.8125 0 
z
" id="DejaVuSans-77"/>
        <path d="M 56.203125 29.59375 
L 56.203125 25.203125 
L 14.890625 25.203125 
Q 15.484375 15.921875 20.484375 11.0625 
Q 25.484375 6.203125 34.421875 6.203125 
Q 39.59375 6.203125 44.453125 7.46875 
Q 49.3125 8.734375 54.109375 11.28125 
L 54.109375 2.78125 
Q 49.265625 0.734375 44.1875 -0.34375 
Q 39.109375 -1.421875 33.890625 -1.421875 
Q 20.796875 -1.421875 13.15625 6.1875 
Q 5.515625 13.8125 5.515625 26.8125 
Q 5.515625 40.234375 12.765625 48.109375 
Q 20.015625 56 32.328125 56 
Q 43.359375 56 49.78125 48.890625 
Q 56.203125 41.796875 56.203125 29.59375 
z
M 47.21875 32.234375 
Q 47.125 39.59375 43.09375 43.984375 
Q 39.0625 48.390625 32.421875 48.390625 
Q 24.90625 48.390625 20.390625 44.140625 
Q 15.875 39.890625 15.1875 32.171875 
z
" id="DejaVuSans-101"/>
        <path d="M 18.3125 70.21875 
L 18.3125 54.6875 
L 36.8125 54.6875 
L 36.8125 47.703125 
L 18.3125 47.703125 
L 18.3125 18.015625 
Q 18.3125 11.328125 20.140625 9.421875 
Q 21.96875 7.515625 27.59375 7.515625 
L 36.8125 7.515625 
L 36.8125 0 
L 27.59375 0 
Q 17.1875 0 13.234375 3.875 
Q 9.28125 7.765625 9.28125 18.015625 
L 9.28125 47.703125 
L 2.6875 47.703125 
L 2.6875 54.6875 
L 9.28125 54.6875 
L 9.28125 70.21875 
z
" id="DejaVuSans-116"/>
        <path d="M 54.890625 33.015625 
L 54.890625 0 
L 45.90625 0 
L 45.90625 32.71875 
Q 45.90625 40.484375 42.875 44.328125 
Q 39.84375 48.1875 33.796875 48.1875 
Q 26.515625 48.1875 22.3125 43.546875 
Q 18.109375 38.921875 18.109375 30.90625 
L 18.109375 0 
L 9.078125 0 
L 9.078125 75.984375 
L 18.109375 75.984375 
L 18.109375 46.1875 
Q 21.34375 51.125 25.703125 53.5625 
Q 30.078125 56 35.796875 56 
Q 45.21875 56 50.046875 50.171875 
Q 54.890625 44.34375 54.890625 33.015625 
z
" id="DejaVuSans-104"/>
        <path d="M 30.609375 48.390625 
Q 23.390625 48.390625 19.1875 42.75 
Q 14.984375 37.109375 14.984375 27.296875 
Q 14.984375 17.484375 19.15625 11.84375 
Q 23.34375 6.203125 30.609375 6.203125 
Q 37.796875 6.203125 41.984375 11.859375 
Q 46.1875 17.53125 46.1875 27.296875 
Q 46.1875 37.015625 41.984375 42.703125 
Q 37.796875 48.390625 30.609375 48.390625 
z
M 30.609375 56 
Q 42.328125 56 49.015625 48.375 
Q 55.71875 40.765625 55.71875 27.296875 
Q 55.71875 13.875 49.015625 6.21875 
Q 42.328125 -1.421875 30.609375 -1.421875 
Q 18.84375 -1.421875 12.171875 6.21875 
Q 5.515625 13.875 5.515625 27.296875 
Q 5.515625 40.765625 12.171875 48.375 
Q 18.84375 56 30.609375 56 
z
" id="DejaVuSans-111"/>
        <path d="M 45.40625 46.390625 
L 45.40625 75.984375 
L 54.390625 75.984375 
L 54.390625 0 
L 45.40625 0 
L 45.40625 8.203125 
Q 42.578125 3.328125 38.25 0.953125 
Q 33.9375 -1.421875 27.875 -1.421875 
Q 17.96875 -1.421875 11.734375 6.484375 
Q 5.515625 14.40625 5.515625 27.296875 
Q 5.515625 40.1875 11.734375 48.09375 
Q 17.96875 56 27.875 56 
Q 33.9375 56 38.25 53.625 
Q 42.578125 51.265625 45.40625 46.390625 
z
M 14.796875 27.296875 
Q 14.796875 17.390625 18.875 11.75 
Q 22.953125 6.109375 30.078125 6.109375 
Q 37.203125 6.109375 41.296875 11.75 
Q 45.40625 17.390625 45.40625 27.296875 
Q 45.40625 37.203125 41.296875 42.84375 
Q 37.203125 48.484375 30.078125 48.484375 
Q 22.953125 48.484375 18.875 42.84375 
Q 14.796875 37.203125 14.796875 27.296875 
z
" id="DejaVuSans-100"/>
       </defs>
       <use xlink:href="#DejaVuSans-79"/>
       <use x="78.710938" xlink:href="#DejaVuSans-117"/>
       <use x="142.089844" xlink:href="#DejaVuSans-114"/>
       <use x="183.203125" xlink:href="#DejaVuSans-32"/>
       <use x="214.990234" xlink:href="#DejaVuSans-77"/>
       <use x="301.269531" xlink:href="#DejaVuSans-101"/>
       <use x="362.792969" xlink:href="#DejaVuSans-116"/>
       <use x="402.001953" xlink:href="#DejaVuSans-104"/>
       <use x="465.380859" xlink:href="#DejaVuSans-111"/>
       <use x="526.5625" xlink:href="#DejaVuSans-100"/>
      </g>
     </g>
    </g>
    <g id="xtick_2">
     <g id="line2d_2">
      <g>
       <use style="stroke:#000000;stroke-width:0.8;" x="209.928977" xlink:href="#maac2a58e5c" y="244.1"/>
      </g>
     </g>
     <g id="text_2">
      <!-- Stein's -->
      <g transform="translate(180.620579 264.397266)scale(0.175 -0.175)">
       <defs>
        <path d="M 53.515625 70.515625 
L 53.515625 60.890625 
Q 47.90625 63.578125 42.921875 64.890625 
Q 37.9375 66.21875 33.296875 66.21875 
Q 25.25 66.21875 20.875 63.09375 
Q 16.5 59.96875 16.5 54.203125 
Q 16.5 49.359375 19.40625 46.890625 
Q 22.3125 44.4375 30.421875 42.921875 
L 36.375 41.703125 
Q 47.40625 39.59375 52.65625 34.296875 
Q 57.90625 29 57.90625 20.125 
Q 57.90625 9.515625 50.796875 4.046875 
Q 43.703125 -1.421875 29.984375 -1.421875 
Q 24.8125 -1.421875 18.96875 -0.25 
Q 13.140625 0.921875 6.890625 3.21875 
L 6.890625 13.375 
Q 12.890625 10.015625 18.65625 8.296875 
Q 24.421875 6.59375 29.984375 6.59375 
Q 38.421875 6.59375 43.015625 9.90625 
Q 47.609375 13.234375 47.609375 19.390625 
Q 47.609375 24.75 44.3125 27.78125 
Q 41.015625 30.8125 33.5 32.328125 
L 27.484375 33.5 
Q 16.453125 35.6875 11.515625 40.375 
Q 6.59375 45.0625 6.59375 53.421875 
Q 6.59375 63.09375 13.40625 68.65625 
Q 20.21875 74.21875 32.171875 74.21875 
Q 37.3125 74.21875 42.625 73.28125 
Q 47.953125 72.359375 53.515625 70.515625 
z
" id="DejaVuSans-83"/>
        <path d="M 9.421875 54.6875 
L 18.40625 54.6875 
L 18.40625 0 
L 9.421875 0 
z
M 9.421875 75.984375 
L 18.40625 75.984375 
L 18.40625 64.59375 
L 9.421875 64.59375 
z
" id="DejaVuSans-105"/>
        <path d="M 54.890625 33.015625 
L 54.890625 0 
L 45.90625 0 
L 45.90625 32.71875 
Q 45.90625 40.484375 42.875 44.328125 
Q 39.84375 48.1875 33.796875 48.1875 
Q 26.515625 48.1875 22.3125 43.546875 
Q 18.109375 38.921875 18.109375 30.90625 
L 18.109375 0 
L 9.078125 0 
L 9.078125 54.6875 
L 18.109375 54.6875 
L 18.109375 46.1875 
Q 21.34375 51.125 25.703125 53.5625 
Q 30.078125 56 35.796875 56 
Q 45.21875 56 50.046875 50.171875 
Q 54.890625 44.34375 54.890625 33.015625 
z
" id="DejaVuSans-110"/>
        <path d="M 17.921875 72.90625 
L 17.921875 45.796875 
L 9.625 45.796875 
L 9.625 72.90625 
z
" id="DejaVuSans-39"/>
        <path d="M 44.28125 53.078125 
L 44.28125 44.578125 
Q 40.484375 46.53125 36.375 47.5 
Q 32.28125 48.484375 27.875 48.484375 
Q 21.1875 48.484375 17.84375 46.4375 
Q 14.5 44.390625 14.5 40.28125 
Q 14.5 37.15625 16.890625 35.375 
Q 19.28125 33.59375 26.515625 31.984375 
L 29.59375 31.296875 
Q 39.15625 29.25 43.1875 25.515625 
Q 47.21875 21.78125 47.21875 15.09375 
Q 47.21875 7.46875 41.1875 3.015625 
Q 35.15625 -1.421875 24.609375 -1.421875 
Q 20.21875 -1.421875 15.453125 -0.5625 
Q 10.6875 0.296875 5.421875 2 
L 5.421875 11.28125 
Q 10.40625 8.6875 15.234375 7.390625 
Q 20.0625 6.109375 24.8125 6.109375 
Q 31.15625 6.109375 34.5625 8.28125 
Q 37.984375 10.453125 37.984375 14.40625 
Q 37.984375 18.0625 35.515625 20.015625 
Q 33.0625 21.96875 24.703125 23.78125 
L 21.578125 24.515625 
Q 13.234375 26.265625 9.515625 29.90625 
Q 5.8125 33.546875 5.8125 39.890625 
Q 5.8125 47.609375 11.28125 51.796875 
Q 16.75 56 26.8125 56 
Q 31.78125 56 36.171875 55.265625 
Q 40.578125 54.546875 44.28125 53.078125 
z
" id="DejaVuSans-115"/>
       </defs>
       <use xlink:href="#DejaVuSans-83"/>
       <use x="63.476562" xlink:href="#DejaVuSans-116"/>
       <use x="102.685547" xlink:href="#DejaVuSans-101"/>
       <use x="164.208984" xlink:href="#DejaVuSans-105"/>
       <use x="191.992188" xlink:href="#DejaVuSans-110"/>
       <use x="255.371094" xlink:href="#DejaVuSans-39"/>
       <use x="282.861328" xlink:href="#DejaVuSans-115"/>
      </g>
     </g>
    </g>
    <g id="xtick_3">
     <g id="line2d_3">
      <g>
       <use style="stroke:#000000;stroke-width:0.8;" x="299.495506" xlink:href="#maac2a58e5c" y="244.1"/>
      </g>
     </g>
     <g id="text_3">
      <!-- Entry-wise -->
      <g transform="translate(253.68242 264.397266)scale(0.175 -0.175)">
       <defs>
        <path d="M 9.8125 72.90625 
L 55.90625 72.90625 
L 55.90625 64.59375 
L 19.671875 64.59375 
L 19.671875 43.015625 
L 54.390625 43.015625 
L 54.390625 34.71875 
L 19.671875 34.71875 
L 19.671875 8.296875 
L 56.78125 8.296875 
L 56.78125 0 
L 9.8125 0 
z
" id="DejaVuSans-69"/>
        <path d="M 32.171875 -5.078125 
Q 28.375 -14.84375 24.75 -17.8125 
Q 21.140625 -20.796875 15.09375 -20.796875 
L 7.90625 -20.796875 
L 7.90625 -13.28125 
L 13.1875 -13.28125 
Q 16.890625 -13.28125 18.9375 -11.515625 
Q 21 -9.765625 23.484375 -3.21875 
L 25.09375 0.875 
L 2.984375 54.6875 
L 12.5 54.6875 
L 29.59375 11.921875 
L 46.6875 54.6875 
L 56.203125 54.6875 
z
" id="DejaVuSans-121"/>
        <path d="M 4.890625 31.390625 
L 31.203125 31.390625 
L 31.203125 23.390625 
L 4.890625 23.390625 
z
" id="DejaVuSans-45"/>
        <path d="M 4.203125 54.6875 
L 13.1875 54.6875 
L 24.421875 12.015625 
L 35.59375 54.6875 
L 46.1875 54.6875 
L 57.421875 12.015625 
L 68.609375 54.6875 
L 77.59375 54.6875 
L 63.28125 0 
L 52.6875 0 
L 40.921875 44.828125 
L 29.109375 0 
L 18.5 0 
z
" id="DejaVuSans-119"/>
       </defs>
       <use xlink:href="#DejaVuSans-69"/>
       <use x="63.183594" xlink:href="#DejaVuSans-110"/>
       <use x="126.5625" xlink:href="#DejaVuSans-116"/>
       <use x="165.771484" xlink:href="#DejaVuSans-114"/>
       <use x="206.884766" xlink:href="#DejaVuSans-121"/>
       <use x="264.314453" xlink:href="#DejaVuSans-45"/>
       <use x="300.398438" xlink:href="#DejaVuSans-119"/>
       <use x="382.185547" xlink:href="#DejaVuSans-105"/>
       <use x="409.96875" xlink:href="#DejaVuSans-115"/>
       <use x="462.068359" xlink:href="#DejaVuSans-101"/>
      </g>
     </g>
    </g>
   </g>
   <g id="matplotlib.axis_2">
    <g id="ytick_1">
     <g id="line2d_4">
      <defs>
       <path d="M 0 0 
L -3.5 0 
" id="md168c20f06" style="stroke:#000000;stroke-width:0.8;"/>
      </defs>
      <g>
       <use style="stroke:#000000;stroke-width:0.8;" x="86.775" xlink:href="#md168c20f06" y="204.707961"/>
      </g>
     </g>
     <g id="text_4">
      <!-- 0.25 -->
      <g transform="translate(40.810156 211.356594)scale(0.175 -0.175)">
       <defs>
        <path d="M 31.78125 66.40625 
Q 24.171875 66.40625 20.328125 58.90625 
Q 16.5 51.421875 16.5 36.375 
Q 16.5 21.390625 20.328125 13.890625 
Q 24.171875 6.390625 31.78125 6.390625 
Q 39.453125 6.390625 43.28125 13.890625 
Q 47.125 21.390625 47.125 36.375 
Q 47.125 51.421875 43.28125 58.90625 
Q 39.453125 66.40625 31.78125 66.40625 
z
M 31.78125 74.21875 
Q 44.046875 74.21875 50.515625 64.515625 
Q 56.984375 54.828125 56.984375 36.375 
Q 56.984375 17.96875 50.515625 8.265625 
Q 44.046875 -1.421875 31.78125 -1.421875 
Q 19.53125 -1.421875 13.0625 8.265625 
Q 6.59375 17.96875 6.59375 36.375 
Q 6.59375 54.828125 13.0625 64.515625 
Q 19.53125 74.21875 31.78125 74.21875 
z
" id="DejaVuSans-48"/>
        <path d="M 10.6875 12.40625 
L 21 12.40625 
L 21 0 
L 10.6875 0 
z
" id="DejaVuSans-46"/>
        <path d="M 19.1875 8.296875 
L 53.609375 8.296875 
L 53.609375 0 
L 7.328125 0 
L 7.328125 8.296875 
Q 12.9375 14.109375 22.625 23.890625 
Q 32.328125 33.6875 34.8125 36.53125 
Q 39.546875 41.84375 41.421875 45.53125 
Q 43.3125 49.21875 43.3125 52.78125 
Q 43.3125 58.59375 39.234375 62.25 
Q 35.15625 65.921875 28.609375 65.921875 
Q 23.96875 65.921875 18.8125 64.3125 
Q 13.671875 62.703125 7.8125 59.421875 
L 7.8125 69.390625 
Q 13.765625 71.78125 18.9375 73 
Q 24.125 74.21875 28.421875 74.21875 
Q 39.75 74.21875 46.484375 68.546875 
Q 53.21875 62.890625 53.21875 53.421875 
Q 53.21875 48.921875 51.53125 44.890625 
Q 49.859375 40.875 45.40625 35.40625 
Q 44.1875 33.984375 37.640625 27.21875 
Q 31.109375 20.453125 19.1875 8.296875 
z
" id="DejaVuSans-50"/>
        <path d="M 10.796875 72.90625 
L 49.515625 72.90625 
L 49.515625 64.59375 
L 19.828125 64.59375 
L 19.828125 46.734375 
Q 21.96875 47.46875 24.109375 47.828125 
Q 26.265625 48.1875 28.421875 48.1875 
Q 40.625 48.1875 47.75 41.5 
Q 54.890625 34.8125 54.890625 23.390625 
Q 54.890625 11.625 47.5625 5.09375 
Q 40.234375 -1.421875 26.90625 -1.421875 
Q 22.3125 -1.421875 17.546875 -0.640625 
Q 12.796875 0.140625 7.71875 1.703125 
L 7.71875 11.625 
Q 12.109375 9.234375 16.796875 8.0625 
Q 21.484375 6.890625 26.703125 6.890625 
Q 35.15625 6.890625 40.078125 11.328125 
Q 45.015625 15.765625 45.015625 23.390625 
Q 45.015625 31 40.078125 35.4375 
Q 35.15625 39.890625 26.703125 39.890625 
Q 22.75 39.890625 18.8125 39.015625 
Q 14.890625 38.140625 10.796875 36.28125 
z
" id="DejaVuSans-53"/>
       </defs>
       <use xlink:href="#DejaVuSans-48"/>
       <use x="63.623047" xlink:href="#DejaVuSans-46"/>
       <use x="95.410156" xlink:href="#DejaVuSans-50"/>
       <use x="159.033203" xlink:href="#DejaVuSans-53"/>
      </g>
     </g>
    </g>
    <g id="ytick_2">
     <g id="line2d_5">
      <g>
       <use style="stroke:#000000;stroke-width:0.8;" x="86.775" xlink:href="#md168c20f06" y="163.994512"/>
      </g>
     </g>
     <g id="text_5">
      <!-- 0.50 -->
      <g transform="translate(40.810156 170.643145)scale(0.175 -0.175)">
       <use xlink:href="#DejaVuSans-48"/>
       <use x="63.623047" xlink:href="#DejaVuSans-46"/>
       <use x="95.410156" xlink:href="#DejaVuSans-53"/>
       <use x="159.033203" xlink:href="#DejaVuSans-48"/>
      </g>
     </g>
    </g>
    <g id="ytick_3">
     <g id="line2d_6">
      <g>
       <use style="stroke:#000000;stroke-width:0.8;" x="86.775" xlink:href="#md168c20f06" y="123.281062"/>
      </g>
     </g>
     <g id="text_6">
      <!-- 0.75 -->
      <g transform="translate(40.810156 129.929695)scale(0.175 -0.175)">
       <defs>
        <path d="M 8.203125 72.90625 
L 55.078125 72.90625 
L 55.078125 68.703125 
L 28.609375 0 
L 18.3125 0 
L 43.21875 64.59375 
L 8.203125 64.59375 
z
" id="DejaVuSans-55"/>
       </defs>
       <use xlink:href="#DejaVuSans-48"/>
       <use x="63.623047" xlink:href="#DejaVuSans-46"/>
       <use x="95.410156" xlink:href="#DejaVuSans-55"/>
       <use x="159.033203" xlink:href="#DejaVuSans-53"/>
      </g>
     </g>
    </g>
    <g id="ytick_4">
     <g id="line2d_7">
      <g>
       <use style="stroke:#000000;stroke-width:0.8;" x="86.775" xlink:href="#md168c20f06" y="82.567612"/>
      </g>
     </g>
     <g id="text_7">
      <!-- 1.00 -->
      <g transform="translate(40.810156 89.216245)scale(0.175 -0.175)">
       <defs>
        <path d="M 12.40625 8.296875 
L 28.515625 8.296875 
L 28.515625 63.921875 
L 10.984375 60.40625 
L 10.984375 69.390625 
L 28.421875 72.90625 
L 38.28125 72.90625 
L 38.28125 8.296875 
L 54.390625 8.296875 
L 54.390625 0 
L 12.40625 0 
z
" id="DejaVuSans-49"/>
       </defs>
       <use xlink:href="#DejaVuSans-49"/>
       <use x="63.623047" xlink:href="#DejaVuSans-46"/>
       <use x="95.410156" xlink:href="#DejaVuSans-48"/>
       <use x="159.033203" xlink:href="#DejaVuSans-48"/>
      </g>
     </g>
    </g>
    <g id="ytick_5">
     <g id="line2d_8">
      <g>
       <use style="stroke:#000000;stroke-width:0.8;" x="86.775" xlink:href="#md168c20f06" y="41.854163"/>
      </g>
     </g>
     <g id="text_8">
      <!-- 1.25 -->
      <g transform="translate(40.810156 48.502796)scale(0.175 -0.175)">
       <use xlink:href="#DejaVuSans-49"/>
       <use x="63.623047" xlink:href="#DejaVuSans-46"/>
       <use x="95.410156" xlink:href="#DejaVuSans-50"/>
       <use x="159.033203" xlink:href="#DejaVuSans-53"/>
      </g>
     </g>
    </g>
    <g id="text_9">
     <!-- Estimation Error -->
     <g transform="translate(33.170703 202.198633)rotate(-90)scale(0.175 -0.175)">
      <defs>
       <path d="M 52 44.1875 
Q 55.375 50.25 60.0625 53.125 
Q 64.75 56 71.09375 56 
Q 79.640625 56 84.28125 50.015625 
Q 88.921875 44.046875 88.921875 33.015625 
L 88.921875 0 
L 79.890625 0 
L 79.890625 32.71875 
Q 79.890625 40.578125 77.09375 44.375 
Q 74.3125 48.1875 68.609375 48.1875 
Q 61.625 48.1875 57.5625 43.546875 
Q 53.515625 38.921875 53.515625 30.90625 
L 53.515625 0 
L 44.484375 0 
L 44.484375 32.71875 
Q 44.484375 40.625 41.703125 44.40625 
Q 38.921875 48.1875 33.109375 48.1875 
Q 26.21875 48.1875 22.15625 43.53125 
Q 18.109375 38.875 18.109375 30.90625 
L 18.109375 0 
L 9.078125 0 
L 9.078125 54.6875 
L 18.109375 54.6875 
L 18.109375 46.1875 
Q 21.1875 51.21875 25.484375 53.609375 
Q 29.78125 56 35.6875 56 
Q 41.65625 56 45.828125 52.96875 
Q 50 49.953125 52 44.1875 
z
" id="DejaVuSans-109"/>
       <path d="M 34.28125 27.484375 
Q 23.390625 27.484375 19.1875 25 
Q 14.984375 22.515625 14.984375 16.5 
Q 14.984375 11.71875 18.140625 8.90625 
Q 21.296875 6.109375 26.703125 6.109375 
Q 34.1875 6.109375 38.703125 11.40625 
Q 43.21875 16.703125 43.21875 25.484375 
L 43.21875 27.484375 
z
M 52.203125 31.203125 
L 52.203125 0 
L 43.21875 0 
L 43.21875 8.296875 
Q 40.140625 3.328125 35.546875 0.953125 
Q 30.953125 -1.421875 24.3125 -1.421875 
Q 15.921875 -1.421875 10.953125 3.296875 
Q 6 8.015625 6 15.921875 
Q 6 25.140625 12.171875 29.828125 
Q 18.359375 34.515625 30.609375 34.515625 
L 43.21875 34.515625 
L 43.21875 35.40625 
Q 43.21875 41.609375 39.140625 45 
Q 35.0625 48.390625 27.6875 48.390625 
Q 23 48.390625 18.546875 47.265625 
Q 14.109375 46.140625 10.015625 43.890625 
L 10.015625 52.203125 
Q 14.9375 54.109375 19.578125 55.046875 
Q 24.21875 56 28.609375 56 
Q 40.484375 56 46.34375 49.84375 
Q 52.203125 43.703125 52.203125 31.203125 
z
" id="DejaVuSans-97"/>
      </defs>
      <use xlink:href="#DejaVuSans-69"/>
      <use x="63.183594" xlink:href="#DejaVuSans-115"/>
      <use x="115.283203" xlink:href="#DejaVuSans-116"/>
      <use x="154.492188" xlink:href="#DejaVuSans-105"/>
      <use x="182.275391" xlink:href="#DejaVuSans-109"/>
      <use x="279.6875" xlink:href="#DejaVuSans-97"/>
      <use x="340.966797" xlink:href="#DejaVuSans-116"/>
      <use x="380.175781" xlink:href="#DejaVuSans-105"/>
      <use x="407.958984" xlink:href="#DejaVuSans-111"/>
      <use x="469.140625" xlink:href="#DejaVuSans-110"/>
      <use x="532.519531" xlink:href="#DejaVuSans-32"/>
      <use x="564.306641" xlink:href="#DejaVuSans-69"/>
      <use x="627.490234" xlink:href="#DejaVuSans-114"/>
      <use x="666.853516" xlink:href="#DejaVuSans-114"/>
      <use x="705.716797" xlink:href="#DejaVuSans-111"/>
      <use x="766.898438" xlink:href="#DejaVuSans-114"/>
     </g>
    </g>
   </g>
   <g id="LineCollection_1">
    <path clip-path="url(#p5b4cfc5bc2)" d="M 109.166632 187.287283 
L 131.558264 187.287283 
" style="fill:none;stroke:#1f77b4;stroke-width:1.5;"/>
    <path clip-path="url(#p5b4cfc5bc2)" d="M 198.733161 29.136364 
L 221.124793 29.136364 
" style="fill:none;stroke:#1f77b4;stroke-width:1.5;"/>
    <path clip-path="url(#p5b4cfc5bc2)" d="M 288.29969 157.634675 
L 310.691322 157.634675 
" style="fill:none;stroke:#1f77b4;stroke-width:1.5;"/>
   </g>
   <g id="LineCollection_2">
    <path clip-path="url(#p5b4cfc5bc2)" d="M 109.166632 233.863636 
L 131.558264 233.863636 
" style="fill:none;stroke:#1f77b4;stroke-width:1.5;"/>
    <path clip-path="url(#p5b4cfc5bc2)" d="M 198.733161 177.667703 
L 221.124793 177.667703 
" style="fill:none;stroke:#1f77b4;stroke-width:1.5;"/>
    <path clip-path="url(#p5b4cfc5bc2)" d="M 288.29969 225.72913 
L 310.691322 225.72913 
" style="fill:none;stroke:#1f77b4;stroke-width:1.5;"/>
   </g>
   <g id="LineCollection_3">
    <path clip-path="url(#p5b4cfc5bc2)" d="M 120.362448 233.863636 
L 120.362448 187.287283 
" style="fill:none;stroke:#1f77b4;stroke-width:1.5;"/>
    <path clip-path="url(#p5b4cfc5bc2)" d="M 209.928977 177.667703 
L 209.928977 29.136364 
" style="fill:none;stroke:#1f77b4;stroke-width:1.5;"/>
    <path clip-path="url(#p5b4cfc5bc2)" d="M 299.495506 225.72913 
L 299.495506 157.634675 
" style="fill:none;stroke:#1f77b4;stroke-width:1.5;"/>
   </g>
   <g id="patch_3">
    <path d="M 86.775 244.1 
L 86.775 18.9 
" style="fill:none;stroke:#000000;stroke-linecap:square;stroke-linejoin:miter;stroke-width:0.8;"/>
   </g>
   <g id="patch_4">
    <path d="M 333.082955 244.1 
L 333.082955 18.9 
" style="fill:none;stroke:#000000;stroke-linecap:square;stroke-linejoin:miter;stroke-width:0.8;"/>
   </g>
   <g id="patch_5">
    <path d="M 86.775 244.1 
L 333.082955 244.1 
" style="fill:none;stroke:#000000;stroke-linecap:square;stroke-linejoin:miter;stroke-width:0.8;"/>
   </g>
   <g id="patch_6">
    <path d="M 86.775 18.9 
L 333.082955 18.9 
" style="fill:none;stroke:#000000;stroke-linecap:square;stroke-linejoin:miter;stroke-width:0.8;"/>
   </g>
  </g>
 </g>
 <defs>
  <clipPath id="p5b4cfc5bc2">
   <rect height="225.2" width="246.307955" x="86.775" y="18.9"/>
  </clipPath>
 </defs>
</svg>
