<?xml version="1.0" encoding="utf-8" standalone="no"?>
<!DOCTYPE svg PUBLIC "-//W3C//DTD SVG 1.1//EN"
  "http://www.w3.org/Graphics/SVG/1.1/DTD/svg11.dtd">
<!-- Created with matplotlib (https://matplotlib.org/) -->
<svg height="288pt" version="1.1" viewBox="0 0 360 288" width="360pt" xmlns="http://www.w3.org/2000/svg" xmlns:xlink="http://www.w3.org/1999/xlink">
 <metadata>
  <rdf:RDF xmlns:cc="http://creativecommons.org/ns#" xmlns:dc="http://purl.org/dc/elements/1.1/" xmlns:rdf="http://www.w3.org/1999/02/22-rdf-syntax-ns#">
   <cc:Work>
    <dc:type rdf:resource="http://purl.org/dc/dcmitype/StillImage"/>
    <dc:date>2022-09-25T00:48:13.832094</dc:date>
    <dc:format>image/svg+xml</dc:format>
    <dc:creator>
     <cc:Agent>
      <dc:title>Matplotlib v3.3.4, https://matplotlib.org/</dc:title>
     </cc:Agent>
    </dc:creator>
   </cc:Work>
  </rdf:RDF>
 </metadata>
 <defs>
  <style type="text/css">*{stroke-linecap:butt;stroke-linejoin:round;}</style>
 </defs>
 <g id="figure_1">
  <g id="patch_1">
   <path d="M 0 288 
L 360 288 
L 360 0 
L 0 0 
z
" style="fill:none;"/>
  </g>
  <g id="axes_1">
   <g id="patch_2">
    <path d="M 86.775 244.1 
L 333.082955 244.1 
L 333.082955 18.9 
L 86.775 18.9 
z
" style="fill:#ffffff;"/>
   </g>
   <g id="PolyCollection_1">
    <path clip-path="url(#p98efe397af)" d="M 131.51566 233.863636 
L 109.209236 233.863636 
L 108.603704 233.433805 
L 108.001 233.003973 
L 107.403571 232.574141 
L 106.813732 232.144309 
L 106.233642 231.714477 
L 105.665276 231.284646 
L 105.110415 230.854814 
L 104.570629 230.424982 
L 104.04728 229.99515 
L 103.541524 229.565319 
L 103.054318 229.135487 
L 102.586441 228.705655 
L 102.138511 228.275823 
L 101.711015 227.845992 
L 101.304336 227.41616 
L 100.918783 226.986328 
L 100.554629 226.556496 
L 100.212138 226.126664 
L 99.891597 225.696833 
L 99.593346 225.267001 
L 99.317797 224.837169 
L 99.065456 224.407337 
L 98.836932 223.977506 
L 98.632946 223.547674 
L 98.454324 223.117842 
L 98.301988 222.68801 
L 98.17694 222.258178 
L 98.080236 221.828347 
L 98.012952 221.398515 
L 97.976146 220.968683 
L 97.970816 220.538851 
L 97.997851 220.10902 
L 98.05798 219.679188 
L 98.151726 219.249356 
L 98.27935 218.819524 
L 98.440811 218.389693 
L 98.63572 217.959861 
L 98.863307 217.530029 
L 99.122395 217.100197 
L 99.411379 216.670365 
L 99.728227 216.240534 
L 100.070481 215.810702 
L 100.435277 215.38087 
L 100.81938 214.951038 
L 101.219223 214.521207 
L 101.630968 214.091375 
L 102.050573 213.661543 
L 102.473864 213.231711 
L 102.896625 212.801879 
L 103.314681 212.372048 
L 103.723994 211.942216 
L 104.120754 211.512384 
L 104.501463 211.082552 
L 104.863023 210.652721 
L 105.202808 210.222889 
L 105.518724 209.793057 
L 105.809264 209.363225 
L 106.073539 208.933394 
L 106.311298 208.503562 
L 106.522931 208.07373 
L 106.709452 207.643898 
L 106.872465 207.214066 
L 107.014119 206.784235 
L 107.137043 206.354403 
L 107.244272 205.924571 
L 107.33916 205.494739 
L 107.425292 205.064908 
L 107.506382 204.635076 
L 107.586178 204.205244 
L 107.668366 203.775412 
L 107.756475 203.34558 
L 107.853798 202.915749 
L 107.963312 202.485917 
L 108.087621 202.056085 
L 108.2289 201.626253 
L 108.388864 201.196422 
L 108.568742 200.76659 
L 108.769277 200.336758 
L 108.990726 199.906926 
L 109.232885 199.477095 
L 109.495117 199.047263 
L 109.776396 198.617431 
L 110.075352 198.187599 
L 110.39033 197.757767 
L 110.719442 197.327936 
L 111.060633 196.898104 
L 111.411733 196.468272 
L 111.770518 196.03844 
L 112.134758 195.608609 
L 112.502266 195.178777 
L 112.870939 194.748945 
L 113.23879 194.319113 
L 113.603974 193.889281 
L 113.964809 193.45945 
L 114.319788 193.029618 
L 114.667582 192.599786 
L 115.007044 192.169954 
L 115.337201 191.740123 
L 115.657248 191.310291 
L 125.067649 191.310291 
L 125.067649 191.310291 
L 125.387696 191.740123 
L 125.717853 192.169954 
L 126.057314 192.599786 
L 126.405109 193.029618 
L 126.760087 193.45945 
L 127.120923 193.889281 
L 127.486107 194.319113 
L 127.853958 194.748945 
L 128.222631 195.178777 
L 128.590139 195.608609 
L 128.954379 196.03844 
L 129.313163 196.468272 
L 129.664263 196.898104 
L 130.005454 197.327936 
L 130.334567 197.757767 
L 130.649544 198.187599 
L 130.948501 198.617431 
L 131.229779 199.047263 
L 131.492012 199.477095 
L 131.73417 199.906926 
L 131.95562 200.336758 
L 132.156154 200.76659 
L 132.336033 201.196422 
L 132.495996 201.626253 
L 132.637275 202.056085 
L 132.761584 202.485917 
L 132.871099 202.915749 
L 132.968422 203.34558 
L 133.056531 203.775412 
L 133.138718 204.205244 
L 133.218514 204.635076 
L 133.299604 205.064908 
L 133.385736 205.494739 
L 133.480625 205.924571 
L 133.587854 206.354403 
L 133.710778 206.784235 
L 133.852432 207.214066 
L 134.015445 207.643898 
L 134.201965 208.07373 
L 134.413599 208.503562 
L 134.651358 208.933394 
L 134.915633 209.363225 
L 135.206173 209.793057 
L 135.522089 210.222889 
L 135.861873 210.652721 
L 136.223434 211.082552 
L 136.604143 211.512384 
L 137.000903 211.942216 
L 137.410216 212.372048 
L 137.828272 212.801879 
L 138.251032 213.231711 
L 138.674324 213.661543 
L 139.093928 214.091375 
L 139.505674 214.521207 
L 139.905517 214.951038 
L 140.28962 215.38087 
L 140.654416 215.810702 
L 140.99667 216.240534 
L 141.313518 216.670365 
L 141.602502 217.100197 
L 141.861589 217.530029 
L 142.089176 217.959861 
L 142.284085 218.389693 
L 142.445546 218.819524 
L 142.573171 219.249356 
L 142.666916 219.679188 
L 142.727046 220.10902 
L 142.754081 220.538851 
L 142.748751 220.968683 
L 142.711945 221.398515 
L 142.64466 221.828347 
L 142.547956 222.258178 
L 142.422909 222.68801 
L 142.270573 223.117842 
L 142.09195 223.547674 
L 141.887964 223.977506 
L 141.659441 224.407337 
L 141.4071 224.837169 
L 141.131551 225.267001 
L 140.8333 225.696833 
L 140.512759 226.126664 
L 140.170268 226.556496 
L 139.806114 226.986328 
L 139.420561 227.41616 
L 139.013881 227.845992 
L 138.586386 228.275823 
L 138.138456 228.705655 
L 137.670579 229.135487 
L 137.183373 229.565319 
L 136.677617 229.99515 
L 136.154268 230.424982 
L 135.614482 230.854814 
L 135.05962 231.284646 
L 134.491255 231.714477 
L 133.911164 232.144309 
L 133.321326 232.574141 
L 132.723897 233.003973 
L 132.121193 233.433805 
L 131.51566 233.863636 
z
" style="fill:#1f77b4;fill-opacity:0.3;"/>
   </g>
   <g id="PolyCollection_2">
    <path clip-path="url(#p98efe397af)" d="M 215.358007 200.506975 
L 204.499947 200.506975 
L 203.989131 198.775959 
L 203.452955 197.044943 
L 202.89265 195.313926 
L 202.309797 193.58291 
L 201.706327 191.851894 
L 201.084517 190.120877 
L 200.446967 188.389861 
L 199.796568 186.658845 
L 199.136463 184.927829 
L 198.469985 183.196812 
L 197.800603 181.465796 
L 197.131853 179.73478 
L 196.46727 178.003764 
L 195.810324 176.272747 
L 195.164361 174.541731 
L 194.532551 172.810715 
L 193.917846 171.079698 
L 193.322946 169.348682 
L 192.75028 167.617666 
L 192.201996 165.88665 
L 191.679954 164.155633 
L 191.185734 162.424617 
L 190.720648 160.693601 
L 190.28575 158.962584 
L 189.881854 157.231568 
L 189.509562 155.500552 
L 189.169276 153.769536 
L 188.861231 152.038519 
L 188.585522 150.307503 
L 188.342137 148.576487 
L 188.130991 146.845471 
L 187.951966 145.114454 
L 187.804952 143.383438 
L 187.689891 141.652422 
L 187.60681 139.921405 
L 187.555861 138.190389 
L 187.537345 136.459373 
L 187.551725 134.728357 
L 187.599633 132.99734 
L 187.681855 131.266324 
L 187.799301 129.535308 
L 187.95297 127.804291 
L 188.143888 126.073275 
L 188.373048 124.342259 
L 188.641336 122.611243 
L 188.949457 120.880226 
L 189.297859 119.14921 
L 189.686668 117.418194 
L 190.115624 115.687178 
L 190.584029 113.956161 
L 191.090709 112.225145 
L 191.633988 110.494129 
L 192.211674 108.763112 
L 192.821064 107.032096 
L 193.458956 105.30108 
L 194.12168 103.570064 
L 194.805137 101.839047 
L 195.50486 100.108031 
L 196.216073 98.377015 
L 196.933776 96.645998 
L 197.652831 94.914982 
L 198.36806 93.183966 
L 199.074347 91.45295 
L 199.76675 89.721933 
L 200.440599 87.990917 
L 201.091607 86.259901 
L 201.715953 84.528885 
L 202.310367 82.797868 
L 202.872183 81.066852 
L 203.399383 79.335836 
L 203.890611 77.604819 
L 204.34516 75.873803 
L 204.762946 74.142787 
L 205.144448 72.411771 
L 205.490642 70.680754 
L 205.802914 68.949738 
L 206.082972 67.218722 
L 206.332758 65.487705 
L 206.554353 63.756689 
L 206.749909 62.025673 
L 206.921582 60.294657 
L 207.071483 58.56364 
L 207.201654 56.832624 
L 207.314045 55.101608 
L 207.410527 53.370592 
L 207.49289 51.639575 
L 207.562877 49.908559 
L 207.622194 48.177543 
L 207.672538 46.446526 
L 207.71561 44.71551 
L 207.75312 42.984494 
L 207.786785 41.253478 
L 207.818313 39.522461 
L 207.849375 37.791445 
L 207.881572 36.060429 
L 207.91639 34.329412 
L 207.955157 32.598396 
L 207.998998 30.86738 
L 208.048797 29.136364 
L 211.809158 29.136364 
L 211.809158 29.136364 
L 211.858957 30.86738 
L 211.902798 32.598396 
L 211.941565 34.329412 
L 211.976383 36.060429 
L 212.00858 37.791445 
L 212.039642 39.522461 
L 212.07117 41.253478 
L 212.104835 42.984494 
L 212.142345 44.71551 
L 212.185416 46.446526 
L 212.23576 48.177543 
L 212.295077 49.908559 
L 212.365064 51.639575 
L 212.447428 53.370592 
L 212.543909 55.101608 
L 212.656301 56.832624 
L 212.786471 58.56364 
L 212.936373 60.294657 
L 213.108046 62.025673 
L 213.303602 63.756689 
L 213.525197 65.487705 
L 213.774982 67.218722 
L 214.055041 68.949738 
L 214.367313 70.680754 
L 214.713506 72.411771 
L 215.095008 74.142787 
L 215.512794 75.873803 
L 215.967344 77.604819 
L 216.458572 79.335836 
L 216.985772 81.066852 
L 217.547588 82.797868 
L 218.142001 84.528885 
L 218.766348 86.259901 
L 219.417355 87.990917 
L 220.091205 89.721933 
L 220.783607 91.45295 
L 221.489895 93.183966 
L 222.205123 94.914982 
L 222.924178 96.645998 
L 223.641882 98.377015 
L 224.353095 100.108031 
L 225.052817 101.839047 
L 225.736275 103.570064 
L 226.398998 105.30108 
L 227.03689 107.032096 
L 227.646281 108.763112 
L 228.223967 110.494129 
L 228.767246 112.225145 
L 229.273926 113.956161 
L 229.742331 115.687178 
L 230.171287 117.418194 
L 230.560096 119.14921 
L 230.908498 120.880226 
L 231.216618 122.611243 
L 231.484906 124.342259 
L 231.714066 126.073275 
L 231.904985 127.804291 
L 232.058654 129.535308 
L 232.1761 131.266324 
L 232.258321 132.99734 
L 232.306229 134.728357 
L 232.32061 136.459373 
L 232.302093 138.190389 
L 232.251144 139.921405 
L 232.168064 141.652422 
L 232.053002 143.383438 
L 231.905989 145.114454 
L 231.726964 146.845471 
L 231.515818 148.576487 
L 231.272432 150.307503 
L 230.996724 152.038519 
L 230.688679 153.769536 
L 230.348393 155.500552 
L 229.9761 157.231568 
L 229.572205 158.962584 
L 229.137306 160.693601 
L 228.67222 162.424617 
L 228.178001 164.155633 
L 227.655959 165.88665 
L 227.107674 167.617666 
L 226.535009 169.348682 
L 225.940109 171.079698 
L 225.325403 172.810715 
L 224.693594 174.541731 
L 224.047631 176.272747 
L 223.390685 178.003764 
L 222.726101 179.73478 
L 222.057351 181.465796 
L 221.38797 183.196812 
L 220.721492 184.927829 
L 220.061386 186.658845 
L 219.410988 188.389861 
L 218.773437 190.120877 
L 218.151627 191.851894 
L 217.548158 193.58291 
L 216.965305 195.313926 
L 216.405 197.044943 
L 215.868823 198.775959 
L 215.358007 200.506975 
z
" style="fill:#1f77b4;fill-opacity:0.3;"/>
   </g>
   <g id="PolyCollection_3">
    <path clip-path="url(#p98efe397af)" d="M 303.235668 223.962472 
L 295.755344 223.962472 
L 295.475606 223.537534 
L 295.181096 223.112597 
L 294.870749 222.687659 
L 294.543453 222.262722 
L 294.198079 221.837784 
L 293.83353 221.412847 
L 293.448778 220.987909 
L 293.042917 220.562972 
L 292.61521 220.138034 
L 292.165127 219.713097 
L 291.692396 219.288159 
L 291.197028 218.863222 
L 290.679354 218.438284 
L 290.140038 218.013347 
L 289.580094 217.588409 
L 289.000883 217.163471 
L 288.404117 216.738534 
L 287.791836 216.313596 
L 287.166398 215.888659 
L 286.530453 215.463721 
L 285.886916 215.038784 
L 285.23894 214.613846 
L 284.58989 214.188909 
L 283.943312 213.763971 
L 283.302913 213.339034 
L 282.672531 212.914096 
L 282.056115 212.489159 
L 281.457702 212.064221 
L 280.881392 211.639283 
L 280.331322 211.214346 
L 279.811633 210.789408 
L 279.326436 210.364471 
L 278.879765 209.939533 
L 278.475529 209.514596 
L 278.117443 209.089658 
L 277.808967 208.664721 
L 277.553226 208.239783 
L 277.35293 207.814846 
L 277.210291 207.389908 
L 277.126945 206.964971 
L 277.103874 206.540033 
L 277.141344 206.115095 
L 277.238853 205.690158 
L 277.395099 205.26522 
L 277.607968 204.840283 
L 277.874551 204.415345 
L 278.191178 203.990408 
L 278.553487 203.56547 
L 278.956507 203.140533 
L 279.394776 202.715595 
L 279.862464 202.290658 
L 280.35352 201.86572 
L 280.861824 201.440783 
L 281.381342 201.015845 
L 281.906275 200.590908 
L 282.431201 200.16597 
L 282.951204 199.741032 
L 283.461975 199.316095 
L 283.959898 198.891157 
L 284.4421 198.46622 
L 284.906481 198.041282 
L 285.351708 197.616345 
L 285.777183 197.191407 
L 286.182988 196.76647 
L 286.569805 196.341532 
L 286.938821 195.916595 
L 287.291614 195.491657 
L 287.630039 195.06672 
L 287.956109 194.641782 
L 288.271874 194.216844 
L 288.579319 193.791907 
L 288.880265 193.366969 
L 289.176293 192.942032 
L 289.468681 192.517094 
L 289.75837 192.092157 
L 290.045942 191.667219 
L 290.331628 191.242282 
L 290.615331 190.817344 
L 290.896664 190.392407 
L 291.175011 189.967469 
L 291.449588 189.542532 
L 291.719517 189.117594 
L 291.983903 188.692656 
L 292.241902 188.267719 
L 292.49279 187.842781 
L 292.736018 187.417844 
L 292.971256 186.992906 
L 293.198421 186.567969 
L 293.417693 186.143031 
L 293.629505 185.718094 
L 293.83453 185.293156 
L 294.033645 184.868219 
L 294.227885 184.443281 
L 294.418387 184.018344 
L 294.606334 183.593406 
L 294.792888 183.168468 
L 294.979132 182.743531 
L 295.166012 182.318593 
L 295.35429 181.893656 
L 303.636722 181.893656 
L 303.636722 181.893656 
L 303.825 182.318593 
L 304.01188 182.743531 
L 304.198125 183.168468 
L 304.384679 183.593406 
L 304.572625 184.018344 
L 304.763128 184.443281 
L 304.957367 184.868219 
L 305.156482 185.293156 
L 305.361508 185.718094 
L 305.57332 186.143031 
L 305.792591 186.567969 
L 306.019757 186.992906 
L 306.254994 187.417844 
L 306.498222 187.842781 
L 306.74911 188.267719 
L 307.007109 188.692656 
L 307.271495 189.117594 
L 307.541425 189.542532 
L 307.816001 189.967469 
L 308.094348 190.392407 
L 308.375681 190.817344 
L 308.659384 191.242282 
L 308.94507 191.667219 
L 309.232643 192.092157 
L 309.522331 192.517094 
L 309.81472 192.942032 
L 310.110748 193.366969 
L 310.411694 193.791907 
L 310.719139 194.216844 
L 311.034904 194.641782 
L 311.360973 195.06672 
L 311.699398 195.491657 
L 312.052191 195.916595 
L 312.421207 196.341532 
L 312.808025 196.76647 
L 313.21383 197.191407 
L 313.639304 197.616345 
L 314.084531 198.041282 
L 314.548912 198.46622 
L 315.031115 198.891157 
L 315.529037 199.316095 
L 316.039808 199.741032 
L 316.559811 200.16597 
L 317.084737 200.590908 
L 317.60967 201.015845 
L 318.129188 201.440783 
L 318.637493 201.86572 
L 319.128549 202.290658 
L 319.596237 202.715595 
L 320.034505 203.140533 
L 320.437526 203.56547 
L 320.799834 203.990408 
L 321.116462 204.415345 
L 321.383045 204.840283 
L 321.595914 205.26522 
L 321.752159 205.690158 
L 321.849668 206.115095 
L 321.887138 206.540033 
L 321.864068 206.964971 
L 321.780721 207.389908 
L 321.638083 207.814846 
L 321.437786 208.239783 
L 321.182045 208.664721 
L 320.873569 209.089658 
L 320.515484 209.514596 
L 320.111247 209.939533 
L 319.664577 210.364471 
L 319.17938 210.789408 
L 318.659691 211.214346 
L 318.10962 211.639283 
L 317.53331 212.064221 
L 316.934897 212.489159 
L 316.318482 212.914096 
L 315.6881 213.339034 
L 315.0477 213.763971 
L 314.401123 214.188909 
L 313.752072 214.613846 
L 313.104096 215.038784 
L 312.460559 215.463721 
L 311.824614 215.888659 
L 311.199176 216.313596 
L 310.586896 216.738534 
L 309.990129 217.163471 
L 309.410919 217.588409 
L 308.850974 218.013347 
L 308.311658 218.438284 
L 307.793984 218.863222 
L 307.298617 219.288159 
L 306.825885 219.713097 
L 306.375803 220.138034 
L 305.948095 220.562972 
L 305.542235 220.987909 
L 305.157483 221.412847 
L 304.792933 221.837784 
L 304.44756 222.262722 
L 304.120263 222.687659 
L 303.809916 223.112597 
L 303.515406 223.537534 
L 303.235668 223.962472 
z
" style="fill:#1f77b4;fill-opacity:0.3;"/>
   </g>
   <g id="matplotlib.axis_1">
    <g id="xtick_1">
     <g id="line2d_1">
      <defs>
       <path d="M 0 0 
L 0 3.5 
" id="mc30713f1c3" style="stroke:#000000;stroke-width:0.8;"/>
      </defs>
      <g>
       <use style="stroke:#000000;stroke-width:0.8;" x="120.362448" xlink:href="#mc30713f1c3" y="244.1"/>
      </g>
     </g>
     <g id="text_1">
      <!-- Our Method -->
      <g transform="translate(68.733347 264.397266)scale(0.175 -0.175)">
       <defs>
        <path d="M 39.40625 66.21875 
Q 28.65625 66.21875 22.328125 58.203125 
Q 16.015625 50.203125 16.015625 36.375 
Q 16.015625 22.609375 22.328125 14.59375 
Q 28.65625 6.59375 39.40625 6.59375 
Q 50.140625 6.59375 56.421875 14.59375 
Q 62.703125 22.609375 62.703125 36.375 
Q 62.703125 50.203125 56.421875 58.203125 
Q 50.140625 66.21875 39.40625 66.21875 
z
M 39.40625 74.21875 
Q 54.734375 74.21875 63.90625 63.9375 
Q 73.09375 53.65625 73.09375 36.375 
Q 73.09375 19.140625 63.90625 8.859375 
Q 54.734375 -1.421875 39.40625 -1.421875 
Q 24.03125 -1.421875 14.8125 8.828125 
Q 5.609375 19.09375 5.609375 36.375 
Q 5.609375 53.65625 14.8125 63.9375 
Q 24.03125 74.21875 39.40625 74.21875 
z
" id="DejaVuSans-79"/>
        <path d="M 8.5 21.578125 
L 8.5 54.6875 
L 17.484375 54.6875 
L 17.484375 21.921875 
Q 17.484375 14.15625 20.5 10.265625 
Q 23.53125 6.390625 29.59375 6.390625 
Q 36.859375 6.390625 41.078125 11.03125 
Q 45.3125 15.671875 45.3125 23.6875 
L 45.3125 54.6875 
L 54.296875 54.6875 
L 54.296875 0 
L 45.3125 0 
L 45.3125 8.40625 
Q 42.046875 3.421875 37.71875 1 
Q 33.40625 -1.421875 27.6875 -1.421875 
Q 18.265625 -1.421875 13.375 4.4375 
Q 8.5 10.296875 8.5 21.578125 
z
M 31.109375 56 
z
" id="DejaVuSans-117"/>
        <path d="M 41.109375 46.296875 
Q 39.59375 47.171875 37.8125 47.578125 
Q 36.03125 48 33.890625 48 
Q 26.265625 48 22.1875 43.046875 
Q 18.109375 38.09375 18.109375 28.8125 
L 18.109375 0 
L 9.078125 0 
L 9.078125 54.6875 
L 18.109375 54.6875 
L 18.109375 46.1875 
Q 20.953125 51.171875 25.484375 53.578125 
Q 30.03125 56 36.53125 56 
Q 37.453125 56 38.578125 55.875 
Q 39.703125 55.765625 41.0625 55.515625 
z
" id="DejaVuSans-114"/>
        <path id="DejaVuSans-32"/>
        <path d="M 9.8125 72.90625 
L 24.515625 72.90625 
L 43.109375 23.296875 
L 61.8125 72.90625 
L 76.515625 72.90625 
L 76.515625 0 
L 66.890625 0 
L 66.890625 64.015625 
L 48.09375 14.015625 
L 38.1875 14.015625 
L 19.390625 64.015625 
L 19.390625 0 
L 9.8125 0 
z
" id="DejaVuSans-77"/>
        <path d="M 56.203125 29.59375 
L 56.203125 25.203125 
L 14.890625 25.203125 
Q 15.484375 15.921875 20.484375 11.0625 
Q 25.484375 6.203125 34.421875 6.203125 
Q 39.59375 6.203125 44.453125 7.46875 
Q 49.3125 8.734375 54.109375 11.28125 
L 54.109375 2.78125 
Q 49.265625 0.734375 44.1875 -0.34375 
Q 39.109375 -1.421875 33.890625 -1.421875 
Q 20.796875 -1.421875 13.15625 6.1875 
Q 5.515625 13.8125 5.515625 26.8125 
Q 5.515625 40.234375 12.765625 48.109375 
Q 20.015625 56 32.328125 56 
Q 43.359375 56 49.78125 48.890625 
Q 56.203125 41.796875 56.203125 29.59375 
z
M 47.21875 32.234375 
Q 47.125 39.59375 43.09375 43.984375 
Q 39.0625 48.390625 32.421875 48.390625 
Q 24.90625 48.390625 20.390625 44.140625 
Q 15.875 39.890625 15.1875 32.171875 
z
" id="DejaVuSans-101"/>
        <path d="M 18.3125 70.21875 
L 18.3125 54.6875 
L 36.8125 54.6875 
L 36.8125 47.703125 
L 18.3125 47.703125 
L 18.3125 18.015625 
Q 18.3125 11.328125 20.140625 9.421875 
Q 21.96875 7.515625 27.59375 7.515625 
L 36.8125 7.515625 
L 36.8125 0 
L 27.59375 0 
Q 17.1875 0 13.234375 3.875 
Q 9.28125 7.765625 9.28125 18.015625 
L 9.28125 47.703125 
L 2.6875 47.703125 
L 2.6875 54.6875 
L 9.28125 54.6875 
L 9.28125 70.21875 
z
" id="DejaVuSans-116"/>
        <path d="M 54.890625 33.015625 
L 54.890625 0 
L 45.90625 0 
L 45.90625 32.71875 
Q 45.90625 40.484375 42.875 44.328125 
Q 39.84375 48.1875 33.796875 48.1875 
Q 26.515625 48.1875 22.3125 43.546875 
Q 18.109375 38.921875 18.109375 30.90625 
L 18.109375 0 
L 9.078125 0 
L 9.078125 75.984375 
L 18.109375 75.984375 
L 18.109375 46.1875 
Q 21.34375 51.125 25.703125 53.5625 
Q 30.078125 56 35.796875 56 
Q 45.21875 56 50.046875 50.171875 
Q 54.890625 44.34375 54.890625 33.015625 
z
" id="DejaVuSans-104"/>
        <path d="M 30.609375 48.390625 
Q 23.390625 48.390625 19.1875 42.75 
Q 14.984375 37.109375 14.984375 27.296875 
Q 14.984375 17.484375 19.15625 11.84375 
Q 23.34375 6.203125 30.609375 6.203125 
Q 37.796875 6.203125 41.984375 11.859375 
Q 46.1875 17.53125 46.1875 27.296875 
Q 46.1875 37.015625 41.984375 42.703125 
Q 37.796875 48.390625 30.609375 48.390625 
z
M 30.609375 56 
Q 42.328125 56 49.015625 48.375 
Q 55.71875 40.765625 55.71875 27.296875 
Q 55.71875 13.875 49.015625 6.21875 
Q 42.328125 -1.421875 30.609375 -1.421875 
Q 18.84375 -1.421875 12.171875 6.21875 
Q 5.515625 13.875 5.515625 27.296875 
Q 5.515625 40.765625 12.171875 48.375 
Q 18.84375 56 30.609375 56 
z
" id="DejaVuSans-111"/>
        <path d="M 45.40625 46.390625 
L 45.40625 75.984375 
L 54.390625 75.984375 
L 54.390625 0 
L 45.40625 0 
L 45.40625 8.203125 
Q 42.578125 3.328125 38.25 0.953125 
Q 33.9375 -1.421875 27.875 -1.421875 
Q 17.96875 -1.421875 11.734375 6.484375 
Q 5.515625 14.40625 5.515625 27.296875 
Q 5.515625 40.1875 11.734375 48.09375 
Q 17.96875 56 27.875 56 
Q 33.9375 56 38.25 53.625 
Q 42.578125 51.265625 45.40625 46.390625 
z
M 14.796875 27.296875 
Q 14.796875 17.390625 18.875 11.75 
Q 22.953125 6.109375 30.078125 6.109375 
Q 37.203125 6.109375 41.296875 11.75 
Q 45.40625 17.390625 45.40625 27.296875 
Q 45.40625 37.203125 41.296875 42.84375 
Q 37.203125 48.484375 30.078125 48.484375 
Q 22.953125 48.484375 18.875 42.84375 
Q 14.796875 37.203125 14.796875 27.296875 
z
" id="DejaVuSans-100"/>
       </defs>
       <use xlink:href="#DejaVuSans-79"/>
       <use x="78.710938" xlink:href="#DejaVuSans-117"/>
       <use x="142.089844" xlink:href="#DejaVuSans-114"/>
       <use x="183.203125" xlink:href="#DejaVuSans-32"/>
       <use x="214.990234" xlink:href="#DejaVuSans-77"/>
       <use x="301.269531" xlink:href="#DejaVuSans-101"/>
       <use x="362.792969" xlink:href="#DejaVuSans-116"/>
       <use x="402.001953" xlink:href="#DejaVuSans-104"/>
       <use x="465.380859" xlink:href="#DejaVuSans-111"/>
       <use x="526.5625" xlink:href="#DejaVuSans-100"/>
      </g>
     </g>
    </g>
    <g id="xtick_2">
     <g id="line2d_2">
      <g>
       <use style="stroke:#000000;stroke-width:0.8;" x="209.928977" xlink:href="#mc30713f1c3" y="244.1"/>
      </g>
     </g>
     <g id="text_2">
      <!-- Stein's -->
      <g transform="translate(180.620579 264.397266)scale(0.175 -0.175)">
       <defs>
        <path d="M 53.515625 70.515625 
L 53.515625 60.890625 
Q 47.90625 63.578125 42.921875 64.890625 
Q 37.9375 66.21875 33.296875 66.21875 
Q 25.25 66.21875 20.875 63.09375 
Q 16.5 59.96875 16.5 54.203125 
Q 16.5 49.359375 19.40625 46.890625 
Q 22.3125 44.4375 30.421875 42.921875 
L 36.375 41.703125 
Q 47.40625 39.59375 52.65625 34.296875 
Q 57.90625 29 57.90625 20.125 
Q 57.90625 9.515625 50.796875 4.046875 
Q 43.703125 -1.421875 29.984375 -1.421875 
Q 24.8125 -1.421875 18.96875 -0.25 
Q 13.140625 0.921875 6.890625 3.21875 
L 6.890625 13.375 
Q 12.890625 10.015625 18.65625 8.296875 
Q 24.421875 6.59375 29.984375 6.59375 
Q 38.421875 6.59375 43.015625 9.90625 
Q 47.609375 13.234375 47.609375 19.390625 
Q 47.609375 24.75 44.3125 27.78125 
Q 41.015625 30.8125 33.5 32.328125 
L 27.484375 33.5 
Q 16.453125 35.6875 11.515625 40.375 
Q 6.59375 45.0625 6.59375 53.421875 
Q 6.59375 63.09375 13.40625 68.65625 
Q 20.21875 74.21875 32.171875 74.21875 
Q 37.3125 74.21875 42.625 73.28125 
Q 47.953125 72.359375 53.515625 70.515625 
z
" id="DejaVuSans-83"/>
        <path d="M 9.421875 54.6875 
L 18.40625 54.6875 
L 18.40625 0 
L 9.421875 0 
z
M 9.421875 75.984375 
L 18.40625 75.984375 
L 18.40625 64.59375 
L 9.421875 64.59375 
z
" id="DejaVuSans-105"/>
        <path d="M 54.890625 33.015625 
L 54.890625 0 
L 45.90625 0 
L 45.90625 32.71875 
Q 45.90625 40.484375 42.875 44.328125 
Q 39.84375 48.1875 33.796875 48.1875 
Q 26.515625 48.1875 22.3125 43.546875 
Q 18.109375 38.921875 18.109375 30.90625 
L 18.109375 0 
L 9.078125 0 
L 9.078125 54.6875 
L 18.109375 54.6875 
L 18.109375 46.1875 
Q 21.34375 51.125 25.703125 53.5625 
Q 30.078125 56 35.796875 56 
Q 45.21875 56 50.046875 50.171875 
Q 54.890625 44.34375 54.890625 33.015625 
z
" id="DejaVuSans-110"/>
        <path d="M 17.921875 72.90625 
L 17.921875 45.796875 
L 9.625 45.796875 
L 9.625 72.90625 
z
" id="DejaVuSans-39"/>
        <path d="M 44.28125 53.078125 
L 44.28125 44.578125 
Q 40.484375 46.53125 36.375 47.5 
Q 32.28125 48.484375 27.875 48.484375 
Q 21.1875 48.484375 17.84375 46.4375 
Q 14.5 44.390625 14.5 40.28125 
Q 14.5 37.15625 16.890625 35.375 
Q 19.28125 33.59375 26.515625 31.984375 
L 29.59375 31.296875 
Q 39.15625 29.25 43.1875 25.515625 
Q 47.21875 21.78125 47.21875 15.09375 
Q 47.21875 7.46875 41.1875 3.015625 
Q 35.15625 -1.421875 24.609375 -1.421875 
Q 20.21875 -1.421875 15.453125 -0.5625 
Q 10.6875 0.296875 5.421875 2 
L 5.421875 11.28125 
Q 10.40625 8.6875 15.234375 7.390625 
Q 20.0625 6.109375 24.8125 6.109375 
Q 31.15625 6.109375 34.5625 8.28125 
Q 37.984375 10.453125 37.984375 14.40625 
Q 37.984375 18.0625 35.515625 20.015625 
Q 33.0625 21.96875 24.703125 23.78125 
L 21.578125 24.515625 
Q 13.234375 26.265625 9.515625 29.90625 
Q 5.8125 33.546875 5.8125 39.890625 
Q 5.8125 47.609375 11.28125 51.796875 
Q 16.75 56 26.8125 56 
Q 31.78125 56 36.171875 55.265625 
Q 40.578125 54.546875 44.28125 53.078125 
z
" id="DejaVuSans-115"/>
       </defs>
       <use xlink:href="#DejaVuSans-83"/>
       <use x="63.476562" xlink:href="#DejaVuSans-116"/>
       <use x="102.685547" xlink:href="#DejaVuSans-101"/>
       <use x="164.208984" xlink:href="#DejaVuSans-105"/>
       <use x="191.992188" xlink:href="#DejaVuSans-110"/>
       <use x="255.371094" xlink:href="#DejaVuSans-39"/>
       <use x="282.861328" xlink:href="#DejaVuSans-115"/>
      </g>
     </g>
    </g>
    <g id="xtick_3">
     <g id="line2d_3">
      <g>
       <use style="stroke:#000000;stroke-width:0.8;" x="299.495506" xlink:href="#mc30713f1c3" y="244.1"/>
      </g>
     </g>
     <g id="text_3">
      <!-- Entry-wise -->
      <g transform="translate(253.68242 264.397266)scale(0.175 -0.175)">
       <defs>
        <path d="M 9.8125 72.90625 
L 55.90625 72.90625 
L 55.90625 64.59375 
L 19.671875 64.59375 
L 19.671875 43.015625 
L 54.390625 43.015625 
L 54.390625 34.71875 
L 19.671875 34.71875 
L 19.671875 8.296875 
L 56.78125 8.296875 
L 56.78125 0 
L 9.8125 0 
z
" id="DejaVuSans-69"/>
        <path d="M 32.171875 -5.078125 
Q 28.375 -14.84375 24.75 -17.8125 
Q 21.140625 -20.796875 15.09375 -20.796875 
L 7.90625 -20.796875 
L 7.90625 -13.28125 
L 13.1875 -13.28125 
Q 16.890625 -13.28125 18.9375 -11.515625 
Q 21 -9.765625 23.484375 -3.21875 
L 25.09375 0.875 
L 2.984375 54.6875 
L 12.5 54.6875 
L 29.59375 11.921875 
L 46.6875 54.6875 
L 56.203125 54.6875 
z
" id="DejaVuSans-121"/>
        <path d="M 4.890625 31.390625 
L 31.203125 31.390625 
L 31.203125 23.390625 
L 4.890625 23.390625 
z
" id="DejaVuSans-45"/>
        <path d="M 4.203125 54.6875 
L 13.1875 54.6875 
L 24.421875 12.015625 
L 35.59375 54.6875 
L 46.1875 54.6875 
L 57.421875 12.015625 
L 68.609375 54.6875 
L 77.59375 54.6875 
L 63.28125 0 
L 52.6875 0 
L 40.921875 44.828125 
L 29.109375 0 
L 18.5 0 
z
" id="DejaVuSans-119"/>
       </defs>
       <use xlink:href="#DejaVuSans-69"/>
       <use x="63.183594" xlink:href="#DejaVuSans-110"/>
       <use x="126.5625" xlink:href="#DejaVuSans-116"/>
       <use x="165.771484" xlink:href="#DejaVuSans-114"/>
       <use x="206.884766" xlink:href="#DejaVuSans-121"/>
       <use x="264.314453" xlink:href="#DejaVuSans-45"/>
       <use x="300.398438" xlink:href="#DejaVuSans-119"/>
       <use x="382.185547" xlink:href="#DejaVuSans-105"/>
       <use x="409.96875" xlink:href="#DejaVuSans-115"/>
       <use x="462.068359" xlink:href="#DejaVuSans-101"/>
      </g>
     </g>
    </g>
   </g>
   <g id="matplotlib.axis_2">
    <g id="ytick_1">
     <g id="line2d_4">
      <defs>
       <path d="M 0 0 
L -3.5 0 
" id="m14c757a687" style="stroke:#000000;stroke-width:0.8;"/>
      </defs>
      <g>
       <use style="stroke:#000000;stroke-width:0.8;" x="86.775" xlink:href="#m14c757a687" y="227.859905"/>
      </g>
     </g>
     <g id="text_4">
      <!-- 2.5 -->
      <g transform="translate(51.944531 234.508538)scale(0.175 -0.175)">
       <defs>
        <path d="M 19.1875 8.296875 
L 53.609375 8.296875 
L 53.609375 0 
L 7.328125 0 
L 7.328125 8.296875 
Q 12.9375 14.109375 22.625 23.890625 
Q 32.328125 33.6875 34.8125 36.53125 
Q 39.546875 41.84375 41.421875 45.53125 
Q 43.3125 49.21875 43.3125 52.78125 
Q 43.3125 58.59375 39.234375 62.25 
Q 35.15625 65.921875 28.609375 65.921875 
Q 23.96875 65.921875 18.8125 64.3125 
Q 13.671875 62.703125 7.8125 59.421875 
L 7.8125 69.390625 
Q 13.765625 71.78125 18.9375 73 
Q 24.125 74.21875 28.421875 74.21875 
Q 39.75 74.21875 46.484375 68.546875 
Q 53.21875 62.890625 53.21875 53.421875 
Q 53.21875 48.921875 51.53125 44.890625 
Q 49.859375 40.875 45.40625 35.40625 
Q 44.1875 33.984375 37.640625 27.21875 
Q 31.109375 20.453125 19.1875 8.296875 
z
" id="DejaVuSans-50"/>
        <path d="M 10.6875 12.40625 
L 21 12.40625 
L 21 0 
L 10.6875 0 
z
" id="DejaVuSans-46"/>
        <path d="M 10.796875 72.90625 
L 49.515625 72.90625 
L 49.515625 64.59375 
L 19.828125 64.59375 
L 19.828125 46.734375 
Q 21.96875 47.46875 24.109375 47.828125 
Q 26.265625 48.1875 28.421875 48.1875 
Q 40.625 48.1875 47.75 41.5 
Q 54.890625 34.8125 54.890625 23.390625 
Q 54.890625 11.625 47.5625 5.09375 
Q 40.234375 -1.421875 26.90625 -1.421875 
Q 22.3125 -1.421875 17.546875 -0.640625 
Q 12.796875 0.140625 7.71875 1.703125 
L 7.71875 11.625 
Q 12.109375 9.234375 16.796875 8.0625 
Q 21.484375 6.890625 26.703125 6.890625 
Q 35.15625 6.890625 40.078125 11.328125 
Q 45.015625 15.765625 45.015625 23.390625 
Q 45.015625 31 40.078125 35.4375 
Q 35.15625 39.890625 26.703125 39.890625 
Q 22.75 39.890625 18.8125 39.015625 
Q 14.890625 38.140625 10.796875 36.28125 
z
" id="DejaVuSans-53"/>
       </defs>
       <use xlink:href="#DejaVuSans-50"/>
       <use x="63.623047" xlink:href="#DejaVuSans-46"/>
       <use x="95.410156" xlink:href="#DejaVuSans-53"/>
      </g>
     </g>
    </g>
    <g id="ytick_2">
     <g id="line2d_5">
      <g>
       <use style="stroke:#000000;stroke-width:0.8;" x="86.775" xlink:href="#m14c757a687" y="190.155088"/>
      </g>
     </g>
     <g id="text_5">
      <!-- 5.0 -->
      <g transform="translate(51.944531 196.803721)scale(0.175 -0.175)">
       <defs>
        <path d="M 31.78125 66.40625 
Q 24.171875 66.40625 20.328125 58.90625 
Q 16.5 51.421875 16.5 36.375 
Q 16.5 21.390625 20.328125 13.890625 
Q 24.171875 6.390625 31.78125 6.390625 
Q 39.453125 6.390625 43.28125 13.890625 
Q 47.125 21.390625 47.125 36.375 
Q 47.125 51.421875 43.28125 58.90625 
Q 39.453125 66.40625 31.78125 66.40625 
z
M 31.78125 74.21875 
Q 44.046875 74.21875 50.515625 64.515625 
Q 56.984375 54.828125 56.984375 36.375 
Q 56.984375 17.96875 50.515625 8.265625 
Q 44.046875 -1.421875 31.78125 -1.421875 
Q 19.53125 -1.421875 13.0625 8.265625 
Q 6.59375 17.96875 6.59375 36.375 
Q 6.59375 54.828125 13.0625 64.515625 
Q 19.53125 74.21875 31.78125 74.21875 
z
" id="DejaVuSans-48"/>
       </defs>
       <use xlink:href="#DejaVuSans-53"/>
       <use x="63.623047" xlink:href="#DejaVuSans-46"/>
       <use x="95.410156" xlink:href="#DejaVuSans-48"/>
      </g>
     </g>
    </g>
    <g id="ytick_3">
     <g id="line2d_6">
      <g>
       <use style="stroke:#000000;stroke-width:0.8;" x="86.775" xlink:href="#m14c757a687" y="152.450272"/>
      </g>
     </g>
     <g id="text_6">
      <!-- 7.5 -->
      <g transform="translate(51.944531 159.098905)scale(0.175 -0.175)">
       <defs>
        <path d="M 8.203125 72.90625 
L 55.078125 72.90625 
L 55.078125 68.703125 
L 28.609375 0 
L 18.3125 0 
L 43.21875 64.59375 
L 8.203125 64.59375 
z
" id="DejaVuSans-55"/>
       </defs>
       <use xlink:href="#DejaVuSans-55"/>
       <use x="63.623047" xlink:href="#DejaVuSans-46"/>
       <use x="95.410156" xlink:href="#DejaVuSans-53"/>
      </g>
     </g>
    </g>
    <g id="ytick_4">
     <g id="line2d_7">
      <g>
       <use style="stroke:#000000;stroke-width:0.8;" x="86.775" xlink:href="#m14c757a687" y="114.745455"/>
      </g>
     </g>
     <g id="text_7">
      <!-- 10.0 -->
      <g transform="translate(40.810156 121.394088)scale(0.175 -0.175)">
       <defs>
        <path d="M 12.40625 8.296875 
L 28.515625 8.296875 
L 28.515625 63.921875 
L 10.984375 60.40625 
L 10.984375 69.390625 
L 28.421875 72.90625 
L 38.28125 72.90625 
L 38.28125 8.296875 
L 54.390625 8.296875 
L 54.390625 0 
L 12.40625 0 
z
" id="DejaVuSans-49"/>
       </defs>
       <use xlink:href="#DejaVuSans-49"/>
       <use x="63.623047" xlink:href="#DejaVuSans-48"/>
       <use x="127.246094" xlink:href="#DejaVuSans-46"/>
       <use x="159.033203" xlink:href="#DejaVuSans-48"/>
      </g>
     </g>
    </g>
    <g id="ytick_5">
     <g id="line2d_8">
      <g>
       <use style="stroke:#000000;stroke-width:0.8;" x="86.775" xlink:href="#m14c757a687" y="77.040638"/>
      </g>
     </g>
     <g id="text_8">
      <!-- 12.5 -->
      <g transform="translate(40.810156 83.689271)scale(0.175 -0.175)">
       <use xlink:href="#DejaVuSans-49"/>
       <use x="63.623047" xlink:href="#DejaVuSans-50"/>
       <use x="127.246094" xlink:href="#DejaVuSans-46"/>
       <use x="159.033203" xlink:href="#DejaVuSans-53"/>
      </g>
     </g>
    </g>
    <g id="ytick_6">
     <g id="line2d_9">
      <g>
       <use style="stroke:#000000;stroke-width:0.8;" x="86.775" xlink:href="#m14c757a687" y="39.335822"/>
      </g>
     </g>
     <g id="text_9">
      <!-- 15.0 -->
      <g transform="translate(40.810156 45.984455)scale(0.175 -0.175)">
       <use xlink:href="#DejaVuSans-49"/>
       <use x="63.623047" xlink:href="#DejaVuSans-53"/>
       <use x="127.246094" xlink:href="#DejaVuSans-46"/>
       <use x="159.033203" xlink:href="#DejaVuSans-48"/>
      </g>
     </g>
    </g>
    <g id="text_10">
     <!-- Estimation Error -->
     <g transform="translate(33.170703 202.198633)rotate(-90)scale(0.175 -0.175)">
      <defs>
       <path d="M 52 44.1875 
Q 55.375 50.25 60.0625 53.125 
Q 64.75 56 71.09375 56 
Q 79.640625 56 84.28125 50.015625 
Q 88.921875 44.046875 88.921875 33.015625 
L 88.921875 0 
L 79.890625 0 
L 79.890625 32.71875 
Q 79.890625 40.578125 77.09375 44.375 
Q 74.3125 48.1875 68.609375 48.1875 
Q 61.625 48.1875 57.5625 43.546875 
Q 53.515625 38.921875 53.515625 30.90625 
L 53.515625 0 
L 44.484375 0 
L 44.484375 32.71875 
Q 44.484375 40.625 41.703125 44.40625 
Q 38.921875 48.1875 33.109375 48.1875 
Q 26.21875 48.1875 22.15625 43.53125 
Q 18.109375 38.875 18.109375 30.90625 
L 18.109375 0 
L 9.078125 0 
L 9.078125 54.6875 
L 18.109375 54.6875 
L 18.109375 46.1875 
Q 21.1875 51.21875 25.484375 53.609375 
Q 29.78125 56 35.6875 56 
Q 41.65625 56 45.828125 52.96875 
Q 50 49.953125 52 44.1875 
z
" id="DejaVuSans-109"/>
       <path d="M 34.28125 27.484375 
Q 23.390625 27.484375 19.1875 25 
Q 14.984375 22.515625 14.984375 16.5 
Q 14.984375 11.71875 18.140625 8.90625 
Q 21.296875 6.109375 26.703125 6.109375 
Q 34.1875 6.109375 38.703125 11.40625 
Q 43.21875 16.703125 43.21875 25.484375 
L 43.21875 27.484375 
z
M 52.203125 31.203125 
L 52.203125 0 
L 43.21875 0 
L 43.21875 8.296875 
Q 40.140625 3.328125 35.546875 0.953125 
Q 30.953125 -1.421875 24.3125 -1.421875 
Q 15.921875 -1.421875 10.953125 3.296875 
Q 6 8.015625 6 15.921875 
Q 6 25.140625 12.171875 29.828125 
Q 18.359375 34.515625 30.609375 34.515625 
L 43.21875 34.515625 
L 43.21875 35.40625 
Q 43.21875 41.609375 39.140625 45 
Q 35.0625 48.390625 27.6875 48.390625 
Q 23 48.390625 18.546875 47.265625 
Q 14.109375 46.140625 10.015625 43.890625 
L 10.015625 52.203125 
Q 14.9375 54.109375 19.578125 55.046875 
Q 24.21875 56 28.609375 56 
Q 40.484375 56 46.34375 49.84375 
Q 52.203125 43.703125 52.203125 31.203125 
z
" id="DejaVuSans-97"/>
      </defs>
      <use xlink:href="#DejaVuSans-69"/>
      <use x="63.183594" xlink:href="#DejaVuSans-115"/>
      <use x="115.283203" xlink:href="#DejaVuSans-116"/>
      <use x="154.492188" xlink:href="#DejaVuSans-105"/>
      <use x="182.275391" xlink:href="#DejaVuSans-109"/>
      <use x="279.6875" xlink:href="#DejaVuSans-97"/>
      <use x="340.966797" xlink:href="#DejaVuSans-116"/>
      <use x="380.175781" xlink:href="#DejaVuSans-105"/>
      <use x="407.958984" xlink:href="#DejaVuSans-111"/>
      <use x="469.140625" xlink:href="#DejaVuSans-110"/>
      <use x="532.519531" xlink:href="#DejaVuSans-32"/>
      <use x="564.306641" xlink:href="#DejaVuSans-69"/>
      <use x="627.490234" xlink:href="#DejaVuSans-114"/>
      <use x="666.853516" xlink:href="#DejaVuSans-114"/>
      <use x="705.716797" xlink:href="#DejaVuSans-111"/>
      <use x="766.898438" xlink:href="#DejaVuSans-114"/>
     </g>
    </g>
   </g>
   <g id="LineCollection_1">
    <path clip-path="url(#p98efe397af)" d="M 109.166632 191.310291 
L 131.558264 191.310291 
" style="fill:none;stroke:#1f77b4;stroke-width:1.5;"/>
    <path clip-path="url(#p98efe397af)" d="M 198.733161 29.136364 
L 221.124793 29.136364 
" style="fill:none;stroke:#1f77b4;stroke-width:1.5;"/>
    <path clip-path="url(#p98efe397af)" d="M 288.29969 181.893656 
L 310.691322 181.893656 
" style="fill:none;stroke:#1f77b4;stroke-width:1.5;"/>
   </g>
   <g id="LineCollection_2">
    <path clip-path="url(#p98efe397af)" d="M 109.166632 233.863636 
L 131.558264 233.863636 
" style="fill:none;stroke:#1f77b4;stroke-width:1.5;"/>
    <path clip-path="url(#p98efe397af)" d="M 198.733161 200.506975 
L 221.124793 200.506975 
" style="fill:none;stroke:#1f77b4;stroke-width:1.5;"/>
    <path clip-path="url(#p98efe397af)" d="M 288.29969 223.962472 
L 310.691322 223.962472 
" style="fill:none;stroke:#1f77b4;stroke-width:1.5;"/>
   </g>
   <g id="LineCollection_3">
    <path clip-path="url(#p98efe397af)" d="M 120.362448 233.863636 
L 120.362448 191.310291 
" style="fill:none;stroke:#1f77b4;stroke-width:1.5;"/>
    <path clip-path="url(#p98efe397af)" d="M 209.928977 200.506975 
L 209.928977 29.136364 
" style="fill:none;stroke:#1f77b4;stroke-width:1.5;"/>
    <path clip-path="url(#p98efe397af)" d="M 299.495506 223.962472 
L 299.495506 181.893656 
" style="fill:none;stroke:#1f77b4;stroke-width:1.5;"/>
   </g>
   <g id="patch_3">
    <path d="M 86.775 244.1 
L 86.775 18.9 
" style="fill:none;stroke:#000000;stroke-linecap:square;stroke-linejoin:miter;stroke-width:0.8;"/>
   </g>
   <g id="patch_4">
    <path d="M 333.082955 244.1 
L 333.082955 18.9 
" style="fill:none;stroke:#000000;stroke-linecap:square;stroke-linejoin:miter;stroke-width:0.8;"/>
   </g>
   <g id="patch_5">
    <path d="M 86.775 244.1 
L 333.082955 244.1 
" style="fill:none;stroke:#000000;stroke-linecap:square;stroke-linejoin:miter;stroke-width:0.8;"/>
   </g>
   <g id="patch_6">
    <path d="M 86.775 18.9 
L 333.082955 18.9 
" style="fill:none;stroke:#000000;stroke-linecap:square;stroke-linejoin:miter;stroke-width:0.8;"/>
   </g>
  </g>
 </g>
 <defs>
  <clipPath id="p98efe397af">
   <rect height="225.2" width="246.307955" x="86.775" y="18.9"/>
  </clipPath>
 </defs>
</svg>
