<?xml version="1.0" encoding="utf-8" standalone="no"?>
<!DOCTYPE svg PUBLIC "-//W3C//DTD SVG 1.1//EN"
  "http://www.w3.org/Graphics/SVG/1.1/DTD/svg11.dtd">
<!-- Created with matplotlib (https://matplotlib.org/) -->
<svg height="288pt" version="1.1" viewBox="0 0 360 288" width="360pt" xmlns="http://www.w3.org/2000/svg" xmlns:xlink="http://www.w3.org/1999/xlink">
 <metadata>
  <rdf:RDF xmlns:cc="http://creativecommons.org/ns#" xmlns:dc="http://purl.org/dc/elements/1.1/" xmlns:rdf="http://www.w3.org/1999/02/22-rdf-syntax-ns#">
   <cc:Work>
    <dc:type rdf:resource="http://purl.org/dc/dcmitype/StillImage"/>
    <dc:date>2022-09-25T00:48:14.187225</dc:date>
    <dc:format>image/svg+xml</dc:format>
    <dc:creator>
     <cc:Agent>
      <dc:title>Matplotlib v3.3.4, https://matplotlib.org/</dc:title>
     </cc:Agent>
    </dc:creator>
   </cc:Work>
  </rdf:RDF>
 </metadata>
 <defs>
  <style type="text/css">*{stroke-linecap:butt;stroke-linejoin:round;}</style>
 </defs>
 <g id="figure_1">
  <g id="patch_1">
   <path d="M 0 288 
L 360 288 
L 360 0 
L 0 0 
z
" style="fill:none;"/>
  </g>
  <g id="axes_1">
   <g id="patch_2">
    <path d="M 70.15 244.1 
L 333.082955 244.1 
L 333.082955 18.9 
L 70.15 18.9 
z
" style="fill:#ffffff;"/>
   </g>
   <g id="PolyCollection_1">
    <path clip-path="url(#pf489d0d679)" d="M 112.277917 233.863636 
L 99.731071 233.863636 
L 99.363656 233.457924 
L 99.005935 233.052211 
L 98.658516 232.646499 
L 98.321123 232.240786 
L 97.99256 231.835074 
L 97.670719 231.429361 
L 97.352641 231.023649 
L 97.034621 230.617936 
L 96.712364 230.212224 
L 96.381183 229.806511 
L 96.036226 229.400799 
L 95.672718 228.995086 
L 95.286223 228.589374 
L 94.872889 228.183661 
L 94.429677 227.777949 
L 93.954552 227.372236 
L 93.44664 226.966524 
L 92.90632 226.560811 
L 92.33526 226.155099 
L 91.736398 225.749386 
L 91.113857 225.343674 
L 90.472801 224.937961 
L 89.819255 224.532249 
L 89.159876 224.126536 
L 88.501701 223.720824 
L 87.851891 223.315111 
L 87.217468 222.909399 
L 86.605069 222.503686 
L 86.020729 222.097974 
L 85.469702 221.692261 
L 84.956327 221.286549 
L 84.483944 220.880836 
L 84.054867 220.475124 
L 83.670408 220.069411 
L 83.330957 219.663699 
L 83.036102 219.257986 
L 82.784791 218.852274 
L 82.575522 218.446561 
L 82.406546 218.040849 
L 82.276081 217.635136 
L 82.182512 217.229424 
L 82.124572 216.823711 
L 82.101498 216.417998 
L 82.113137 216.012286 
L 82.160009 215.606573 
L 82.243317 215.200861 
L 82.364899 214.795148 
L 82.527133 214.389436 
L 82.732785 213.983723 
L 82.984824 213.578011 
L 83.286206 213.172298 
L 83.639639 212.766586 
L 84.047344 212.360873 
L 84.510833 211.955161 
L 85.030707 211.549448 
L 85.606493 211.143736 
L 86.236533 210.738023 
L 86.917924 210.332311 
L 87.646522 209.926598 
L 88.417008 209.520886 
L 89.223002 209.115173 
L 90.05724 208.709461 
L 90.911784 208.303748 
L 91.778262 207.898036 
L 92.64813 207.492323 
L 93.512925 207.086611 
L 94.36452 206.680898 
L 95.195343 206.275186 
L 95.99857 205.869473 
L 96.768276 205.463761 
L 97.499537 205.058048 
L 98.188485 204.652336 
L 98.832322 204.246623 
L 99.429281 203.840911 
L 99.978566 203.435198 
L 100.480245 203.029486 
L 100.935143 202.623773 
L 101.344711 202.218061 
L 101.710898 201.812348 
L 102.036028 201.406636 
L 102.322692 201.000923 
L 102.573651 200.595211 
L 102.791758 200.189498 
L 102.979905 199.783786 
L 103.140978 199.378073 
L 103.277837 198.972361 
L 103.393301 198.566648 
L 103.49014 198.160936 
L 103.571077 197.755223 
L 103.638779 197.349511 
L 103.695854 196.943798 
L 103.744836 196.538086 
L 103.788164 196.132373 
L 103.828154 195.726661 
L 103.866968 195.320948 
L 103.906573 194.915236 
L 103.948704 194.509523 
L 103.994833 194.103811 
L 104.046127 193.698098 
L 107.96286 193.698098 
L 107.96286 193.698098 
L 108.014155 194.103811 
L 108.060283 194.509523 
L 108.102415 194.915236 
L 108.14202 195.320948 
L 108.180833 195.726661 
L 108.220824 196.132373 
L 108.264151 196.538086 
L 108.313133 196.943798 
L 108.370209 197.349511 
L 108.437911 197.755223 
L 108.518847 198.160936 
L 108.615687 198.566648 
L 108.73115 198.972361 
L 108.868009 199.378073 
L 109.029083 199.783786 
L 109.217229 200.189498 
L 109.435336 200.595211 
L 109.686295 201.000923 
L 109.97296 201.406636 
L 110.29809 201.812348 
L 110.664277 202.218061 
L 111.073844 202.623773 
L 111.528743 203.029486 
L 112.030422 203.435198 
L 112.579706 203.840911 
L 113.176666 204.246623 
L 113.820503 204.652336 
L 114.509451 205.058048 
L 115.240711 205.463761 
L 116.010417 205.869473 
L 116.813644 206.275186 
L 117.644467 206.680898 
L 118.496062 207.086611 
L 119.360858 207.492323 
L 120.230725 207.898036 
L 121.097204 208.303748 
L 121.951747 208.709461 
L 122.785985 209.115173 
L 123.591979 209.520886 
L 124.362465 209.926598 
L 125.091064 210.332311 
L 125.772455 210.738023 
L 126.402494 211.143736 
L 126.97828 211.549448 
L 127.498154 211.955161 
L 127.961644 212.360873 
L 128.369349 212.766586 
L 128.722782 213.172298 
L 129.024164 213.578011 
L 129.276203 213.983723 
L 129.481854 214.389436 
L 129.644088 214.795148 
L 129.765671 215.200861 
L 129.848979 215.606573 
L 129.895851 216.012286 
L 129.90749 216.417998 
L 129.884416 216.823711 
L 129.826476 217.229424 
L 129.732906 217.635136 
L 129.602441 218.040849 
L 129.433466 218.446561 
L 129.224197 218.852274 
L 128.972886 219.257986 
L 128.678031 219.663699 
L 128.33858 220.069411 
L 127.954121 220.475124 
L 127.525044 220.880836 
L 127.052661 221.286549 
L 126.539286 221.692261 
L 125.988259 222.097974 
L 125.403919 222.503686 
L 124.791519 222.909399 
L 124.157096 223.315111 
L 123.507287 223.720824 
L 122.849112 224.126536 
L 122.189732 224.532249 
L 121.536186 224.937961 
L 120.895131 225.343674 
L 120.272589 225.749386 
L 119.673728 226.155099 
L 119.102668 226.560811 
L 118.562347 226.966524 
L 118.054435 227.372236 
L 117.579311 227.777949 
L 117.136098 228.183661 
L 116.722765 228.589374 
L 116.33627 228.995086 
L 115.972762 229.400799 
L 115.627804 229.806511 
L 115.296624 230.212224 
L 114.974367 230.617936 
L 114.656347 231.023649 
L 114.338268 231.429361 
L 114.016428 231.835074 
L 113.687865 232.240786 
L 113.350472 232.646499 
L 113.003052 233.052211 
L 112.645332 233.457924 
L 112.277917 233.863636 
z
" style="fill:#1f77b4;fill-opacity:0.3;"/>
   </g>
   <g id="PolyCollection_2">
    <path clip-path="url(#pf489d0d679)" d="M 206.345923 152.762648 
L 196.887031 152.762648 
L 196.611704 151.513898 
L 196.334335 150.265147 
L 196.053758 149.016397 
L 195.768359 147.767647 
L 195.476103 146.518896 
L 195.174565 145.270146 
L 194.86099 144.021396 
L 194.532346 142.772645 
L 194.185405 141.523895 
L 193.816828 140.275145 
L 193.423256 139.026394 
L 193.001422 137.777644 
L 192.548268 136.528894 
L 192.061066 135.280143 
L 191.537559 134.031393 
L 190.976096 132.782643 
L 190.375775 131.533892 
L 189.73658 130.285142 
L 189.059512 129.036392 
L 188.346699 127.787641 
L 187.601482 126.538891 
L 186.828467 125.29014 
L 186.033541 124.04139 
L 185.22383 122.79264 
L 184.40762 121.543889 
L 183.594209 120.295139 
L 182.793717 119.046389 
L 182.016847 117.797638 
L 181.274597 116.548888 
L 180.577956 115.300138 
L 179.93757 114.051387 
L 179.363423 112.802637 
L 178.864516 111.553887 
L 178.448586 110.305136 
L 178.12187 109.056386 
L 177.888923 107.807636 
L 177.752493 106.558885 
L 177.713481 105.310135 
L 177.770956 104.061385 
L 177.922242 102.812634 
L 178.163065 101.563884 
L 178.48775 100.315134 
L 178.889449 99.066383 
L 179.360395 97.817633 
L 179.892171 96.568882 
L 180.475966 95.320132 
L 181.102822 94.071382 
L 181.763857 92.822631 
L 182.450457 91.573881 
L 183.154435 90.325131 
L 183.868157 89.07638 
L 184.584632 87.82763 
L 185.297576 86.57888 
L 186.001452 85.330129 
L 186.691481 84.081379 
L 187.363652 82.832629 
L 188.014707 81.583878 
L 188.642124 80.335128 
L 189.244092 79.086378 
L 189.819481 77.837627 
L 190.367807 76.588877 
L 190.889185 75.340127 
L 191.384276 74.091376 
L 191.854227 72.842626 
L 192.300594 71.593875 
L 192.72526 70.345125 
L 193.130338 69.096375 
L 193.518069 67.847624 
L 193.890715 66.598874 
L 194.25045 65.350124 
L 194.59926 64.101373 
L 194.938846 62.852623 
L 195.270547 61.603873 
L 195.595284 60.355122 
L 195.913522 59.106372 
L 196.225261 57.857622 
L 196.530055 56.608871 
L 196.827054 55.360121 
L 197.115074 54.111371 
L 197.392679 52.86262 
L 197.658289 51.61387 
L 197.910287 50.36512 
L 198.147131 49.116369 
L 198.367465 47.867619 
L 198.570212 46.618869 
L 198.754658 45.370118 
L 198.920512 44.121368 
L 199.067935 42.872617 
L 199.197557 41.623867 
L 199.310454 40.375117 
L 199.408113 39.126366 
L 199.492365 37.877616 
L 199.565307 36.628866 
L 199.629213 35.380115 
L 199.686431 34.131365 
L 199.739289 32.882615 
L 199.789996 31.633864 
L 199.840557 30.385114 
L 199.892708 29.136364 
L 203.340247 29.136364 
L 203.340247 29.136364 
L 203.392397 30.385114 
L 203.442959 31.633864 
L 203.493665 32.882615 
L 203.546523 34.131365 
L 203.603742 35.380115 
L 203.667647 36.628866 
L 203.74059 37.877616 
L 203.824841 39.126366 
L 203.9225 40.375117 
L 204.035398 41.623867 
L 204.165019 42.872617 
L 204.312443 44.121368 
L 204.478296 45.370118 
L 204.662743 46.618869 
L 204.86549 47.867619 
L 205.085823 49.116369 
L 205.322667 50.36512 
L 205.574665 51.61387 
L 205.840275 52.86262 
L 206.117881 54.111371 
L 206.4059 55.360121 
L 206.7029 56.608871 
L 207.007694 57.857622 
L 207.319433 59.106372 
L 207.63767 60.355122 
L 207.962408 61.603873 
L 208.294109 62.852623 
L 208.633695 64.101373 
L 208.982505 65.350124 
L 209.34224 66.598874 
L 209.714886 67.847624 
L 210.102617 69.096375 
L 210.507695 70.345125 
L 210.932361 71.593875 
L 211.378728 72.842626 
L 211.848679 74.091376 
L 212.34377 75.340127 
L 212.865147 76.588877 
L 213.413473 77.837627 
L 213.988863 79.086378 
L 214.590831 80.335128 
L 215.218247 81.583878 
L 215.869302 82.832629 
L 216.541473 84.081379 
L 217.231503 85.330129 
L 217.935378 86.57888 
L 218.648323 87.82763 
L 219.364797 89.07638 
L 220.078519 90.325131 
L 220.782498 91.573881 
L 221.469098 92.822631 
L 222.130133 94.071382 
L 222.756988 95.320132 
L 223.340783 96.568882 
L 223.872559 97.817633 
L 224.343506 99.066383 
L 224.745204 100.315134 
L 225.069889 101.563884 
L 225.310713 102.812634 
L 225.461999 104.061385 
L 225.519473 105.310135 
L 225.480461 106.558885 
L 225.344032 107.807636 
L 225.111084 109.056386 
L 224.784369 110.305136 
L 224.368439 111.553887 
L 223.869531 112.802637 
L 223.295384 114.051387 
L 222.654999 115.300138 
L 221.958357 116.548888 
L 221.216108 117.797638 
L 220.439237 119.046389 
L 219.638746 120.295139 
L 218.825335 121.543889 
L 218.009124 122.79264 
L 217.199414 124.04139 
L 216.404487 125.29014 
L 215.631473 126.538891 
L 214.886255 127.787641 
L 214.173443 129.036392 
L 213.496375 130.285142 
L 212.85718 131.533892 
L 212.256858 132.782643 
L 211.695395 134.031393 
L 211.171888 135.280143 
L 210.684687 136.528894 
L 210.231532 137.777644 
L 209.809699 139.026394 
L 209.416127 140.275145 
L 209.047549 141.523895 
L 208.700609 142.772645 
L 208.371965 144.021396 
L 208.058389 145.270146 
L 207.756852 146.518896 
L 207.464595 147.767647 
L 207.179196 149.016397 
L 206.89862 150.265147 
L 206.621251 151.513898 
L 206.345923 152.762648 
z
" style="fill:#1f77b4;fill-opacity:0.3;"/>
   </g>
   <g id="PolyCollection_3">
    <path clip-path="url(#pf489d0d679)" d="M 301.233238 221.297779 
L 293.223684 221.297779 
L 292.968809 220.979479 
L 292.70489 220.661179 
L 292.431751 220.34288 
L 292.149225 220.02458 
L 291.857165 219.70628 
L 291.555455 219.38798 
L 291.244015 219.06968 
L 290.922812 218.75138 
L 290.591866 218.433081 
L 290.251251 218.114781 
L 289.901096 217.796481 
L 289.541587 217.478181 
L 289.172964 217.159881 
L 288.795509 216.841582 
L 288.40955 216.523282 
L 288.015445 216.204982 
L 287.613577 215.886682 
L 287.204344 215.568382 
L 286.788157 215.250082 
L 286.365427 214.931783 
L 285.936562 214.613483 
L 285.50197 214.295183 
L 285.06205 213.976883 
L 284.6172 213.658583 
L 284.167822 213.340284 
L 283.714326 213.021984 
L 283.257142 212.703684 
L 282.796733 212.385384 
L 282.333602 212.067084 
L 281.868316 211.748784 
L 281.401513 211.430485 
L 280.93392 211.112185 
L 280.466369 210.793885 
L 279.999809 210.475585 
L 279.535316 210.157285 
L 279.074106 209.838986 
L 278.617538 209.520686 
L 278.167118 209.202386 
L 277.724496 208.884086 
L 277.291462 208.565786 
L 276.869937 208.247486 
L 276.461952 207.929187 
L 276.069632 207.610887 
L 275.69517 207.292587 
L 275.340793 206.974287 
L 275.008734 206.655987 
L 274.701185 206.337688 
L 274.420264 206.019388 
L 274.167966 205.701088 
L 273.94612 205.382788 
L 273.756347 205.064488 
L 273.600012 204.746188 
L 273.478191 204.427889 
L 273.391631 204.109589 
L 273.340719 203.791289 
L 273.325465 203.472989 
L 273.345479 203.154689 
L 273.399971 202.83639 
L 273.48775 202.51809 
L 273.607237 202.19979 
L 273.756492 201.88149 
L 273.933238 201.56319 
L 274.134911 201.24489 
L 274.358705 200.926591 
L 274.601628 200.608291 
L 274.86057 200.289991 
L 275.132363 199.971691 
L 275.413857 199.653391 
L 275.701987 199.335092 
L 275.993847 199.016792 
L 276.28675 198.698492 
L 276.578298 198.380192 
L 276.866434 198.061892 
L 277.149493 197.743592 
L 277.42624 197.425293 
L 277.6959 197.106993 
L 277.958173 196.788693 
L 278.213245 196.470393 
L 278.461776 196.152093 
L 278.704885 195.833794 
L 278.944113 195.515494 
L 279.181384 195.197194 
L 279.41895 194.878894 
L 279.659321 194.560594 
L 279.905198 194.242294 
L 280.159389 193.923995 
L 280.424726 193.605695 
L 280.703979 193.287395 
L 280.999768 192.969095 
L 281.314478 192.650795 
L 281.650182 192.332496 
L 282.008571 192.014196 
L 282.39089 191.695896 
L 282.797887 191.377596 
L 283.229786 191.059296 
L 283.686257 190.740996 
L 284.166416 190.422697 
L 284.668836 190.104397 
L 285.191571 189.786097 
L 309.26535 189.786097 
L 309.26535 189.786097 
L 309.788086 190.104397 
L 310.290505 190.422697 
L 310.770664 190.740996 
L 311.227135 191.059296 
L 311.659034 191.377596 
L 312.066032 191.695896 
L 312.44835 192.014196 
L 312.806739 192.332496 
L 313.142444 192.650795 
L 313.457154 192.969095 
L 313.752942 193.287395 
L 314.032196 193.605695 
L 314.297533 193.923995 
L 314.551724 194.242294 
L 314.797601 194.560594 
L 315.037972 194.878894 
L 315.275537 195.197194 
L 315.512809 195.515494 
L 315.752037 195.833794 
L 315.995145 196.152093 
L 316.243677 196.470393 
L 316.498748 196.788693 
L 316.761022 197.106993 
L 317.030681 197.425293 
L 317.307428 197.743592 
L 317.590488 198.061892 
L 317.878624 198.380192 
L 318.170172 198.698492 
L 318.463075 199.016792 
L 318.754934 199.335092 
L 319.043065 199.653391 
L 319.324559 199.971691 
L 319.596352 200.289991 
L 319.855293 200.608291 
L 320.098217 200.926591 
L 320.32201 201.24489 
L 320.523684 201.56319 
L 320.70043 201.88149 
L 320.849684 202.19979 
L 320.969172 202.51809 
L 321.05695 202.83639 
L 321.111442 203.154689 
L 321.131457 203.472989 
L 321.116202 203.791289 
L 321.065291 204.109589 
L 320.97873 204.427889 
L 320.856909 204.746188 
L 320.700575 205.064488 
L 320.510801 205.382788 
L 320.288955 205.701088 
L 320.036657 206.019388 
L 319.755736 206.337688 
L 319.448188 206.655987 
L 319.116128 206.974287 
L 318.761752 207.292587 
L 318.387289 207.610887 
L 317.99497 207.929187 
L 317.586985 208.247486 
L 317.165459 208.565786 
L 316.732426 208.884086 
L 316.289804 209.202386 
L 315.839383 209.520686 
L 315.382815 209.838986 
L 314.921605 210.157285 
L 314.457113 210.475585 
L 313.990552 210.793885 
L 313.523002 211.112185 
L 313.055409 211.430485 
L 312.588605 211.748784 
L 312.123319 212.067084 
L 311.660189 212.385384 
L 311.199779 212.703684 
L 310.742596 213.021984 
L 310.2891 213.340284 
L 309.839722 213.658583 
L 309.394872 213.976883 
L 308.954952 214.295183 
L 308.520359 214.613483 
L 308.091495 214.931783 
L 307.668764 215.250082 
L 307.252577 215.568382 
L 306.843345 215.886682 
L 306.441476 216.204982 
L 306.047371 216.523282 
L 305.661412 216.841582 
L 305.283958 217.159881 
L 304.915334 217.478181 
L 304.555826 217.796481 
L 304.205671 218.114781 
L 303.865055 218.433081 
L 303.534109 218.75138 
L 303.212907 219.06968 
L 302.901466 219.38798 
L 302.599756 219.70628 
L 302.307697 220.02458 
L 302.025171 220.34288 
L 301.752032 220.661179 
L 301.488113 220.979479 
L 301.233238 221.297779 
z
" style="fill:#1f77b4;fill-opacity:0.3;"/>
   </g>
   <g id="matplotlib.axis_1">
    <g id="xtick_1">
     <g id="line2d_1">
      <defs>
       <path d="M 0 0 
L 0 3.5 
" id="ma4b5513a2b" style="stroke:#000000;stroke-width:0.8;"/>
      </defs>
      <g>
       <use style="stroke:#000000;stroke-width:0.8;" x="106.004494" xlink:href="#ma4b5513a2b" y="244.1"/>
      </g>
     </g>
     <g id="text_1">
      <!-- Our Method -->
      <g transform="translate(54.375392 264.397266)scale(0.175 -0.175)">
       <defs>
        <path d="M 39.40625 66.21875 
Q 28.65625 66.21875 22.328125 58.203125 
Q 16.015625 50.203125 16.015625 36.375 
Q 16.015625 22.609375 22.328125 14.59375 
Q 28.65625 6.59375 39.40625 6.59375 
Q 50.140625 6.59375 56.421875 14.59375 
Q 62.703125 22.609375 62.703125 36.375 
Q 62.703125 50.203125 56.421875 58.203125 
Q 50.140625 66.21875 39.40625 66.21875 
z
M 39.40625 74.21875 
Q 54.734375 74.21875 63.90625 63.9375 
Q 73.09375 53.65625 73.09375 36.375 
Q 73.09375 19.140625 63.90625 8.859375 
Q 54.734375 -1.421875 39.40625 -1.421875 
Q 24.03125 -1.421875 14.8125 8.828125 
Q 5.609375 19.09375 5.609375 36.375 
Q 5.609375 53.65625 14.8125 63.9375 
Q 24.03125 74.21875 39.40625 74.21875 
z
" id="DejaVuSans-79"/>
        <path d="M 8.5 21.578125 
L 8.5 54.6875 
L 17.484375 54.6875 
L 17.484375 21.921875 
Q 17.484375 14.15625 20.5 10.265625 
Q 23.53125 6.390625 29.59375 6.390625 
Q 36.859375 6.390625 41.078125 11.03125 
Q 45.3125 15.671875 45.3125 23.6875 
L 45.3125 54.6875 
L 54.296875 54.6875 
L 54.296875 0 
L 45.3125 0 
L 45.3125 8.40625 
Q 42.046875 3.421875 37.71875 1 
Q 33.40625 -1.421875 27.6875 -1.421875 
Q 18.265625 -1.421875 13.375 4.4375 
Q 8.5 10.296875 8.5 21.578125 
z
M 31.109375 56 
z
" id="DejaVuSans-117"/>
        <path d="M 41.109375 46.296875 
Q 39.59375 47.171875 37.8125 47.578125 
Q 36.03125 48 33.890625 48 
Q 26.265625 48 22.1875 43.046875 
Q 18.109375 38.09375 18.109375 28.8125 
L 18.109375 0 
L 9.078125 0 
L 9.078125 54.6875 
L 18.109375 54.6875 
L 18.109375 46.1875 
Q 20.953125 51.171875 25.484375 53.578125 
Q 30.03125 56 36.53125 56 
Q 37.453125 56 38.578125 55.875 
Q 39.703125 55.765625 41.0625 55.515625 
z
" id="DejaVuSans-114"/>
        <path id="DejaVuSans-32"/>
        <path d="M 9.8125 72.90625 
L 24.515625 72.90625 
L 43.109375 23.296875 
L 61.8125 72.90625 
L 76.515625 72.90625 
L 76.515625 0 
L 66.890625 0 
L 66.890625 64.015625 
L 48.09375 14.015625 
L 38.1875 14.015625 
L 19.390625 64.015625 
L 19.390625 0 
L 9.8125 0 
z
" id="DejaVuSans-77"/>
        <path d="M 56.203125 29.59375 
L 56.203125 25.203125 
L 14.890625 25.203125 
Q 15.484375 15.921875 20.484375 11.0625 
Q 25.484375 6.203125 34.421875 6.203125 
Q 39.59375 6.203125 44.453125 7.46875 
Q 49.3125 8.734375 54.109375 11.28125 
L 54.109375 2.78125 
Q 49.265625 0.734375 44.1875 -0.34375 
Q 39.109375 -1.421875 33.890625 -1.421875 
Q 20.796875 -1.421875 13.15625 6.1875 
Q 5.515625 13.8125 5.515625 26.8125 
Q 5.515625 40.234375 12.765625 48.109375 
Q 20.015625 56 32.328125 56 
Q 43.359375 56 49.78125 48.890625 
Q 56.203125 41.796875 56.203125 29.59375 
z
M 47.21875 32.234375 
Q 47.125 39.59375 43.09375 43.984375 
Q 39.0625 48.390625 32.421875 48.390625 
Q 24.90625 48.390625 20.390625 44.140625 
Q 15.875 39.890625 15.1875 32.171875 
z
" id="DejaVuSans-101"/>
        <path d="M 18.3125 70.21875 
L 18.3125 54.6875 
L 36.8125 54.6875 
L 36.8125 47.703125 
L 18.3125 47.703125 
L 18.3125 18.015625 
Q 18.3125 11.328125 20.140625 9.421875 
Q 21.96875 7.515625 27.59375 7.515625 
L 36.8125 7.515625 
L 36.8125 0 
L 27.59375 0 
Q 17.1875 0 13.234375 3.875 
Q 9.28125 7.765625 9.28125 18.015625 
L 9.28125 47.703125 
L 2.6875 47.703125 
L 2.6875 54.6875 
L 9.28125 54.6875 
L 9.28125 70.21875 
z
" id="DejaVuSans-116"/>
        <path d="M 54.890625 33.015625 
L 54.890625 0 
L 45.90625 0 
L 45.90625 32.71875 
Q 45.90625 40.484375 42.875 44.328125 
Q 39.84375 48.1875 33.796875 48.1875 
Q 26.515625 48.1875 22.3125 43.546875 
Q 18.109375 38.921875 18.109375 30.90625 
L 18.109375 0 
L 9.078125 0 
L 9.078125 75.984375 
L 18.109375 75.984375 
L 18.109375 46.1875 
Q 21.34375 51.125 25.703125 53.5625 
Q 30.078125 56 35.796875 56 
Q 45.21875 56 50.046875 50.171875 
Q 54.890625 44.34375 54.890625 33.015625 
z
" id="DejaVuSans-104"/>
        <path d="M 30.609375 48.390625 
Q 23.390625 48.390625 19.1875 42.75 
Q 14.984375 37.109375 14.984375 27.296875 
Q 14.984375 17.484375 19.15625 11.84375 
Q 23.34375 6.203125 30.609375 6.203125 
Q 37.796875 6.203125 41.984375 11.859375 
Q 46.1875 17.53125 46.1875 27.296875 
Q 46.1875 37.015625 41.984375 42.703125 
Q 37.796875 48.390625 30.609375 48.390625 
z
M 30.609375 56 
Q 42.328125 56 49.015625 48.375 
Q 55.71875 40.765625 55.71875 27.296875 
Q 55.71875 13.875 49.015625 6.21875 
Q 42.328125 -1.421875 30.609375 -1.421875 
Q 18.84375 -1.421875 12.171875 6.21875 
Q 5.515625 13.875 5.515625 27.296875 
Q 5.515625 40.765625 12.171875 48.375 
Q 18.84375 56 30.609375 56 
z
" id="DejaVuSans-111"/>
        <path d="M 45.40625 46.390625 
L 45.40625 75.984375 
L 54.390625 75.984375 
L 54.390625 0 
L 45.40625 0 
L 45.40625 8.203125 
Q 42.578125 3.328125 38.25 0.953125 
Q 33.9375 -1.421875 27.875 -1.421875 
Q 17.96875 -1.421875 11.734375 6.484375 
Q 5.515625 14.40625 5.515625 27.296875 
Q 5.515625 40.1875 11.734375 48.09375 
Q 17.96875 56 27.875 56 
Q 33.9375 56 38.25 53.625 
Q 42.578125 51.265625 45.40625 46.390625 
z
M 14.796875 27.296875 
Q 14.796875 17.390625 18.875 11.75 
Q 22.953125 6.109375 30.078125 6.109375 
Q 37.203125 6.109375 41.296875 11.75 
Q 45.40625 17.390625 45.40625 27.296875 
Q 45.40625 37.203125 41.296875 42.84375 
Q 37.203125 48.484375 30.078125 48.484375 
Q 22.953125 48.484375 18.875 42.84375 
Q 14.796875 37.203125 14.796875 27.296875 
z
" id="DejaVuSans-100"/>
       </defs>
       <use xlink:href="#DejaVuSans-79"/>
       <use x="78.710938" xlink:href="#DejaVuSans-117"/>
       <use x="142.089844" xlink:href="#DejaVuSans-114"/>
       <use x="183.203125" xlink:href="#DejaVuSans-32"/>
       <use x="214.990234" xlink:href="#DejaVuSans-77"/>
       <use x="301.269531" xlink:href="#DejaVuSans-101"/>
       <use x="362.792969" xlink:href="#DejaVuSans-116"/>
       <use x="402.001953" xlink:href="#DejaVuSans-104"/>
       <use x="465.380859" xlink:href="#DejaVuSans-111"/>
       <use x="526.5625" xlink:href="#DejaVuSans-100"/>
      </g>
     </g>
    </g>
    <g id="xtick_2">
     <g id="line2d_2">
      <g>
       <use style="stroke:#000000;stroke-width:0.8;" x="201.616477" xlink:href="#ma4b5513a2b" y="244.1"/>
      </g>
     </g>
     <g id="text_2">
      <!-- Stein's -->
      <g transform="translate(172.308079 264.397266)scale(0.175 -0.175)">
       <defs>
        <path d="M 53.515625 70.515625 
L 53.515625 60.890625 
Q 47.90625 63.578125 42.921875 64.890625 
Q 37.9375 66.21875 33.296875 66.21875 
Q 25.25 66.21875 20.875 63.09375 
Q 16.5 59.96875 16.5 54.203125 
Q 16.5 49.359375 19.40625 46.890625 
Q 22.3125 44.4375 30.421875 42.921875 
L 36.375 41.703125 
Q 47.40625 39.59375 52.65625 34.296875 
Q 57.90625 29 57.90625 20.125 
Q 57.90625 9.515625 50.796875 4.046875 
Q 43.703125 -1.421875 29.984375 -1.421875 
Q 24.8125 -1.421875 18.96875 -0.25 
Q 13.140625 0.921875 6.890625 3.21875 
L 6.890625 13.375 
Q 12.890625 10.015625 18.65625 8.296875 
Q 24.421875 6.59375 29.984375 6.59375 
Q 38.421875 6.59375 43.015625 9.90625 
Q 47.609375 13.234375 47.609375 19.390625 
Q 47.609375 24.75 44.3125 27.78125 
Q 41.015625 30.8125 33.5 32.328125 
L 27.484375 33.5 
Q 16.453125 35.6875 11.515625 40.375 
Q 6.59375 45.0625 6.59375 53.421875 
Q 6.59375 63.09375 13.40625 68.65625 
Q 20.21875 74.21875 32.171875 74.21875 
Q 37.3125 74.21875 42.625 73.28125 
Q 47.953125 72.359375 53.515625 70.515625 
z
" id="DejaVuSans-83"/>
        <path d="M 9.421875 54.6875 
L 18.40625 54.6875 
L 18.40625 0 
L 9.421875 0 
z
M 9.421875 75.984375 
L 18.40625 75.984375 
L 18.40625 64.59375 
L 9.421875 64.59375 
z
" id="DejaVuSans-105"/>
        <path d="M 54.890625 33.015625 
L 54.890625 0 
L 45.90625 0 
L 45.90625 32.71875 
Q 45.90625 40.484375 42.875 44.328125 
Q 39.84375 48.1875 33.796875 48.1875 
Q 26.515625 48.1875 22.3125 43.546875 
Q 18.109375 38.921875 18.109375 30.90625 
L 18.109375 0 
L 9.078125 0 
L 9.078125 54.6875 
L 18.109375 54.6875 
L 18.109375 46.1875 
Q 21.34375 51.125 25.703125 53.5625 
Q 30.078125 56 35.796875 56 
Q 45.21875 56 50.046875 50.171875 
Q 54.890625 44.34375 54.890625 33.015625 
z
" id="DejaVuSans-110"/>
        <path d="M 17.921875 72.90625 
L 17.921875 45.796875 
L 9.625 45.796875 
L 9.625 72.90625 
z
" id="DejaVuSans-39"/>
        <path d="M 44.28125 53.078125 
L 44.28125 44.578125 
Q 40.484375 46.53125 36.375 47.5 
Q 32.28125 48.484375 27.875 48.484375 
Q 21.1875 48.484375 17.84375 46.4375 
Q 14.5 44.390625 14.5 40.28125 
Q 14.5 37.15625 16.890625 35.375 
Q 19.28125 33.59375 26.515625 31.984375 
L 29.59375 31.296875 
Q 39.15625 29.25 43.1875 25.515625 
Q 47.21875 21.78125 47.21875 15.09375 
Q 47.21875 7.46875 41.1875 3.015625 
Q 35.15625 -1.421875 24.609375 -1.421875 
Q 20.21875 -1.421875 15.453125 -0.5625 
Q 10.6875 0.296875 5.421875 2 
L 5.421875 11.28125 
Q 10.40625 8.6875 15.234375 7.390625 
Q 20.0625 6.109375 24.8125 6.109375 
Q 31.15625 6.109375 34.5625 8.28125 
Q 37.984375 10.453125 37.984375 14.40625 
Q 37.984375 18.0625 35.515625 20.015625 
Q 33.0625 21.96875 24.703125 23.78125 
L 21.578125 24.515625 
Q 13.234375 26.265625 9.515625 29.90625 
Q 5.8125 33.546875 5.8125 39.890625 
Q 5.8125 47.609375 11.28125 51.796875 
Q 16.75 56 26.8125 56 
Q 31.78125 56 36.171875 55.265625 
Q 40.578125 54.546875 44.28125 53.078125 
z
" id="DejaVuSans-115"/>
       </defs>
       <use xlink:href="#DejaVuSans-83"/>
       <use x="63.476562" xlink:href="#DejaVuSans-116"/>
       <use x="102.685547" xlink:href="#DejaVuSans-101"/>
       <use x="164.208984" xlink:href="#DejaVuSans-105"/>
       <use x="191.992188" xlink:href="#DejaVuSans-110"/>
       <use x="255.371094" xlink:href="#DejaVuSans-39"/>
       <use x="282.861328" xlink:href="#DejaVuSans-115"/>
      </g>
     </g>
    </g>
    <g id="xtick_3">
     <g id="line2d_3">
      <g>
       <use style="stroke:#000000;stroke-width:0.8;" x="297.228461" xlink:href="#ma4b5513a2b" y="244.1"/>
      </g>
     </g>
     <g id="text_3">
      <!-- Entry-wise -->
      <g transform="translate(251.415375 264.397266)scale(0.175 -0.175)">
       <defs>
        <path d="M 9.8125 72.90625 
L 55.90625 72.90625 
L 55.90625 64.59375 
L 19.671875 64.59375 
L 19.671875 43.015625 
L 54.390625 43.015625 
L 54.390625 34.71875 
L 19.671875 34.71875 
L 19.671875 8.296875 
L 56.78125 8.296875 
L 56.78125 0 
L 9.8125 0 
z
" id="DejaVuSans-69"/>
        <path d="M 32.171875 -5.078125 
Q 28.375 -14.84375 24.75 -17.8125 
Q 21.140625 -20.796875 15.09375 -20.796875 
L 7.90625 -20.796875 
L 7.90625 -13.28125 
L 13.1875 -13.28125 
Q 16.890625 -13.28125 18.9375 -11.515625 
Q 21 -9.765625 23.484375 -3.21875 
L 25.09375 0.875 
L 2.984375 54.6875 
L 12.5 54.6875 
L 29.59375 11.921875 
L 46.6875 54.6875 
L 56.203125 54.6875 
z
" id="DejaVuSans-121"/>
        <path d="M 4.890625 31.390625 
L 31.203125 31.390625 
L 31.203125 23.390625 
L 4.890625 23.390625 
z
" id="DejaVuSans-45"/>
        <path d="M 4.203125 54.6875 
L 13.1875 54.6875 
L 24.421875 12.015625 
L 35.59375 54.6875 
L 46.1875 54.6875 
L 57.421875 12.015625 
L 68.609375 54.6875 
L 77.59375 54.6875 
L 63.28125 0 
L 52.6875 0 
L 40.921875 44.828125 
L 29.109375 0 
L 18.5 0 
z
" id="DejaVuSans-119"/>
       </defs>
       <use xlink:href="#DejaVuSans-69"/>
       <use x="63.183594" xlink:href="#DejaVuSans-110"/>
       <use x="126.5625" xlink:href="#DejaVuSans-116"/>
       <use x="165.771484" xlink:href="#DejaVuSans-114"/>
       <use x="206.884766" xlink:href="#DejaVuSans-121"/>
       <use x="264.314453" xlink:href="#DejaVuSans-45"/>
       <use x="300.398438" xlink:href="#DejaVuSans-119"/>
       <use x="382.185547" xlink:href="#DejaVuSans-105"/>
       <use x="409.96875" xlink:href="#DejaVuSans-115"/>
       <use x="462.068359" xlink:href="#DejaVuSans-101"/>
      </g>
     </g>
    </g>
   </g>
   <g id="matplotlib.axis_2">
    <g id="ytick_1">
     <g id="line2d_4">
      <defs>
       <path d="M 0 0 
L -3.5 0 
" id="md3ff006247" style="stroke:#000000;stroke-width:0.8;"/>
      </defs>
      <g>
       <use style="stroke:#000000;stroke-width:0.8;" x="70.15" xlink:href="#md3ff006247" y="228.956727"/>
      </g>
     </g>
     <g id="text_4">
      <!-- 2 -->
      <g transform="translate(52.015625 235.605359)scale(0.175 -0.175)">
       <defs>
        <path d="M 19.1875 8.296875 
L 53.609375 8.296875 
L 53.609375 0 
L 7.328125 0 
L 7.328125 8.296875 
Q 12.9375 14.109375 22.625 23.890625 
Q 32.328125 33.6875 34.8125 36.53125 
Q 39.546875 41.84375 41.421875 45.53125 
Q 43.3125 49.21875 43.3125 52.78125 
Q 43.3125 58.59375 39.234375 62.25 
Q 35.15625 65.921875 28.609375 65.921875 
Q 23.96875 65.921875 18.8125 64.3125 
Q 13.671875 62.703125 7.8125 59.421875 
L 7.8125 69.390625 
Q 13.765625 71.78125 18.9375 73 
Q 24.125 74.21875 28.421875 74.21875 
Q 39.75 74.21875 46.484375 68.546875 
Q 53.21875 62.890625 53.21875 53.421875 
Q 53.21875 48.921875 51.53125 44.890625 
Q 49.859375 40.875 45.40625 35.40625 
Q 44.1875 33.984375 37.640625 27.21875 
Q 31.109375 20.453125 19.1875 8.296875 
z
" id="DejaVuSans-50"/>
       </defs>
       <use xlink:href="#DejaVuSans-50"/>
      </g>
     </g>
    </g>
    <g id="ytick_2">
     <g id="line2d_5">
      <g>
       <use style="stroke:#000000;stroke-width:0.8;" x="70.15" xlink:href="#md3ff006247" y="184.892502"/>
      </g>
     </g>
     <g id="text_5">
      <!-- 4 -->
      <g transform="translate(52.015625 191.541134)scale(0.175 -0.175)">
       <defs>
        <path d="M 37.796875 64.3125 
L 12.890625 25.390625 
L 37.796875 25.390625 
z
M 35.203125 72.90625 
L 47.609375 72.90625 
L 47.609375 25.390625 
L 58.015625 25.390625 
L 58.015625 17.1875 
L 47.609375 17.1875 
L 47.609375 0 
L 37.796875 0 
L 37.796875 17.1875 
L 4.890625 17.1875 
L 4.890625 26.703125 
z
" id="DejaVuSans-52"/>
       </defs>
       <use xlink:href="#DejaVuSans-52"/>
      </g>
     </g>
    </g>
    <g id="ytick_3">
     <g id="line2d_6">
      <g>
       <use style="stroke:#000000;stroke-width:0.8;" x="70.15" xlink:href="#md3ff006247" y="140.828277"/>
      </g>
     </g>
     <g id="text_6">
      <!-- 6 -->
      <g transform="translate(52.015625 147.476909)scale(0.175 -0.175)">
       <defs>
        <path d="M 33.015625 40.375 
Q 26.375 40.375 22.484375 35.828125 
Q 18.609375 31.296875 18.609375 23.390625 
Q 18.609375 15.53125 22.484375 10.953125 
Q 26.375 6.390625 33.015625 6.390625 
Q 39.65625 6.390625 43.53125 10.953125 
Q 47.40625 15.53125 47.40625 23.390625 
Q 47.40625 31.296875 43.53125 35.828125 
Q 39.65625 40.375 33.015625 40.375 
z
M 52.59375 71.296875 
L 52.59375 62.3125 
Q 48.875 64.0625 45.09375 64.984375 
Q 41.3125 65.921875 37.59375 65.921875 
Q 27.828125 65.921875 22.671875 59.328125 
Q 17.53125 52.734375 16.796875 39.40625 
Q 19.671875 43.65625 24.015625 45.921875 
Q 28.375 48.1875 33.59375 48.1875 
Q 44.578125 48.1875 50.953125 41.515625 
Q 57.328125 34.859375 57.328125 23.390625 
Q 57.328125 12.15625 50.6875 5.359375 
Q 44.046875 -1.421875 33.015625 -1.421875 
Q 20.359375 -1.421875 13.671875 8.265625 
Q 6.984375 17.96875 6.984375 36.375 
Q 6.984375 53.65625 15.1875 63.9375 
Q 23.390625 74.21875 37.203125 74.21875 
Q 40.921875 74.21875 44.703125 73.484375 
Q 48.484375 72.75 52.59375 71.296875 
z
" id="DejaVuSans-54"/>
       </defs>
       <use xlink:href="#DejaVuSans-54"/>
      </g>
     </g>
    </g>
    <g id="ytick_4">
     <g id="line2d_7">
      <g>
       <use style="stroke:#000000;stroke-width:0.8;" x="70.15" xlink:href="#md3ff006247" y="96.764052"/>
      </g>
     </g>
     <g id="text_7">
      <!-- 8 -->
      <g transform="translate(52.015625 103.412684)scale(0.175 -0.175)">
       <defs>
        <path d="M 31.78125 34.625 
Q 24.75 34.625 20.71875 30.859375 
Q 16.703125 27.09375 16.703125 20.515625 
Q 16.703125 13.921875 20.71875 10.15625 
Q 24.75 6.390625 31.78125 6.390625 
Q 38.8125 6.390625 42.859375 10.171875 
Q 46.921875 13.96875 46.921875 20.515625 
Q 46.921875 27.09375 42.890625 30.859375 
Q 38.875 34.625 31.78125 34.625 
z
M 21.921875 38.8125 
Q 15.578125 40.375 12.03125 44.71875 
Q 8.5 49.078125 8.5 55.328125 
Q 8.5 64.0625 14.71875 69.140625 
Q 20.953125 74.21875 31.78125 74.21875 
Q 42.671875 74.21875 48.875 69.140625 
Q 55.078125 64.0625 55.078125 55.328125 
Q 55.078125 49.078125 51.53125 44.71875 
Q 48 40.375 41.703125 38.8125 
Q 48.828125 37.15625 52.796875 32.3125 
Q 56.78125 27.484375 56.78125 20.515625 
Q 56.78125 9.90625 50.3125 4.234375 
Q 43.84375 -1.421875 31.78125 -1.421875 
Q 19.734375 -1.421875 13.25 4.234375 
Q 6.78125 9.90625 6.78125 20.515625 
Q 6.78125 27.484375 10.78125 32.3125 
Q 14.796875 37.15625 21.921875 38.8125 
z
M 18.3125 54.390625 
Q 18.3125 48.734375 21.84375 45.5625 
Q 25.390625 42.390625 31.78125 42.390625 
Q 38.140625 42.390625 41.71875 45.5625 
Q 45.3125 48.734375 45.3125 54.390625 
Q 45.3125 60.0625 41.71875 63.234375 
Q 38.140625 66.40625 31.78125 66.40625 
Q 25.390625 66.40625 21.84375 63.234375 
Q 18.3125 60.0625 18.3125 54.390625 
z
" id="DejaVuSans-56"/>
       </defs>
       <use xlink:href="#DejaVuSans-56"/>
      </g>
     </g>
    </g>
    <g id="ytick_5">
     <g id="line2d_8">
      <g>
       <use style="stroke:#000000;stroke-width:0.8;" x="70.15" xlink:href="#md3ff006247" y="52.699827"/>
      </g>
     </g>
     <g id="text_8">
      <!-- 10 -->
      <g transform="translate(40.88125 59.348459)scale(0.175 -0.175)">
       <defs>
        <path d="M 12.40625 8.296875 
L 28.515625 8.296875 
L 28.515625 63.921875 
L 10.984375 60.40625 
L 10.984375 69.390625 
L 28.421875 72.90625 
L 38.28125 72.90625 
L 38.28125 8.296875 
L 54.390625 8.296875 
L 54.390625 0 
L 12.40625 0 
z
" id="DejaVuSans-49"/>
        <path d="M 31.78125 66.40625 
Q 24.171875 66.40625 20.328125 58.90625 
Q 16.5 51.421875 16.5 36.375 
Q 16.5 21.390625 20.328125 13.890625 
Q 24.171875 6.390625 31.78125 6.390625 
Q 39.453125 6.390625 43.28125 13.890625 
Q 47.125 21.390625 47.125 36.375 
Q 47.125 51.421875 43.28125 58.90625 
Q 39.453125 66.40625 31.78125 66.40625 
z
M 31.78125 74.21875 
Q 44.046875 74.21875 50.515625 64.515625 
Q 56.984375 54.828125 56.984375 36.375 
Q 56.984375 17.96875 50.515625 8.265625 
Q 44.046875 -1.421875 31.78125 -1.421875 
Q 19.53125 -1.421875 13.0625 8.265625 
Q 6.59375 17.96875 6.59375 36.375 
Q 6.59375 54.828125 13.0625 64.515625 
Q 19.53125 74.21875 31.78125 74.21875 
z
" id="DejaVuSans-48"/>
       </defs>
       <use xlink:href="#DejaVuSans-49"/>
       <use x="63.623047" xlink:href="#DejaVuSans-48"/>
      </g>
     </g>
    </g>
    <g id="text_9">
     <!-- Estimation Error -->
     <g transform="translate(33.241797 202.198633)rotate(-90)scale(0.175 -0.175)">
      <defs>
       <path d="M 52 44.1875 
Q 55.375 50.25 60.0625 53.125 
Q 64.75 56 71.09375 56 
Q 79.640625 56 84.28125 50.015625 
Q 88.921875 44.046875 88.921875 33.015625 
L 88.921875 0 
L 79.890625 0 
L 79.890625 32.71875 
Q 79.890625 40.578125 77.09375 44.375 
Q 74.3125 48.1875 68.609375 48.1875 
Q 61.625 48.1875 57.5625 43.546875 
Q 53.515625 38.921875 53.515625 30.90625 
L 53.515625 0 
L 44.484375 0 
L 44.484375 32.71875 
Q 44.484375 40.625 41.703125 44.40625 
Q 38.921875 48.1875 33.109375 48.1875 
Q 26.21875 48.1875 22.15625 43.53125 
Q 18.109375 38.875 18.109375 30.90625 
L 18.109375 0 
L 9.078125 0 
L 9.078125 54.6875 
L 18.109375 54.6875 
L 18.109375 46.1875 
Q 21.1875 51.21875 25.484375 53.609375 
Q 29.78125 56 35.6875 56 
Q 41.65625 56 45.828125 52.96875 
Q 50 49.953125 52 44.1875 
z
" id="DejaVuSans-109"/>
       <path d="M 34.28125 27.484375 
Q 23.390625 27.484375 19.1875 25 
Q 14.984375 22.515625 14.984375 16.5 
Q 14.984375 11.71875 18.140625 8.90625 
Q 21.296875 6.109375 26.703125 6.109375 
Q 34.1875 6.109375 38.703125 11.40625 
Q 43.21875 16.703125 43.21875 25.484375 
L 43.21875 27.484375 
z
M 52.203125 31.203125 
L 52.203125 0 
L 43.21875 0 
L 43.21875 8.296875 
Q 40.140625 3.328125 35.546875 0.953125 
Q 30.953125 -1.421875 24.3125 -1.421875 
Q 15.921875 -1.421875 10.953125 3.296875 
Q 6 8.015625 6 15.921875 
Q 6 25.140625 12.171875 29.828125 
Q 18.359375 34.515625 30.609375 34.515625 
L 43.21875 34.515625 
L 43.21875 35.40625 
Q 43.21875 41.609375 39.140625 45 
Q 35.0625 48.390625 27.6875 48.390625 
Q 23 48.390625 18.546875 47.265625 
Q 14.109375 46.140625 10.015625 43.890625 
L 10.015625 52.203125 
Q 14.9375 54.109375 19.578125 55.046875 
Q 24.21875 56 28.609375 56 
Q 40.484375 56 46.34375 49.84375 
Q 52.203125 43.703125 52.203125 31.203125 
z
" id="DejaVuSans-97"/>
      </defs>
      <use xlink:href="#DejaVuSans-69"/>
      <use x="63.183594" xlink:href="#DejaVuSans-115"/>
      <use x="115.283203" xlink:href="#DejaVuSans-116"/>
      <use x="154.492188" xlink:href="#DejaVuSans-105"/>
      <use x="182.275391" xlink:href="#DejaVuSans-109"/>
      <use x="279.6875" xlink:href="#DejaVuSans-97"/>
      <use x="340.966797" xlink:href="#DejaVuSans-116"/>
      <use x="380.175781" xlink:href="#DejaVuSans-105"/>
      <use x="407.958984" xlink:href="#DejaVuSans-111"/>
      <use x="469.140625" xlink:href="#DejaVuSans-110"/>
      <use x="532.519531" xlink:href="#DejaVuSans-32"/>
      <use x="564.306641" xlink:href="#DejaVuSans-69"/>
      <use x="627.490234" xlink:href="#DejaVuSans-114"/>
      <use x="666.853516" xlink:href="#DejaVuSans-114"/>
      <use x="705.716797" xlink:href="#DejaVuSans-111"/>
      <use x="766.898438" xlink:href="#DejaVuSans-114"/>
     </g>
    </g>
   </g>
   <g id="LineCollection_1">
    <path clip-path="url(#pf489d0d679)" d="M 94.052996 193.698098 
L 117.955992 193.698098 
" style="fill:none;stroke:#1f77b4;stroke-width:1.5;"/>
    <path clip-path="url(#pf489d0d679)" d="M 189.664979 29.136364 
L 213.567975 29.136364 
" style="fill:none;stroke:#1f77b4;stroke-width:1.5;"/>
    <path clip-path="url(#pf489d0d679)" d="M 285.276963 189.786097 
L 309.179959 189.786097 
" style="fill:none;stroke:#1f77b4;stroke-width:1.5;"/>
   </g>
   <g id="LineCollection_2">
    <path clip-path="url(#pf489d0d679)" d="M 94.052996 233.863636 
L 117.955992 233.863636 
" style="fill:none;stroke:#1f77b4;stroke-width:1.5;"/>
    <path clip-path="url(#pf489d0d679)" d="M 189.664979 152.762648 
L 213.567975 152.762648 
" style="fill:none;stroke:#1f77b4;stroke-width:1.5;"/>
    <path clip-path="url(#pf489d0d679)" d="M 285.276963 221.297779 
L 309.179959 221.297779 
" style="fill:none;stroke:#1f77b4;stroke-width:1.5;"/>
   </g>
   <g id="LineCollection_3">
    <path clip-path="url(#pf489d0d679)" d="M 106.004494 233.863636 
L 106.004494 193.698098 
" style="fill:none;stroke:#1f77b4;stroke-width:1.5;"/>
    <path clip-path="url(#pf489d0d679)" d="M 201.616477 152.762648 
L 201.616477 29.136364 
" style="fill:none;stroke:#1f77b4;stroke-width:1.5;"/>
    <path clip-path="url(#pf489d0d679)" d="M 297.228461 221.297779 
L 297.228461 189.786097 
" style="fill:none;stroke:#1f77b4;stroke-width:1.5;"/>
   </g>
   <g id="patch_3">
    <path d="M 70.15 244.1 
L 70.15 18.9 
" style="fill:none;stroke:#000000;stroke-linecap:square;stroke-linejoin:miter;stroke-width:0.8;"/>
   </g>
   <g id="patch_4">
    <path d="M 333.082955 244.1 
L 333.082955 18.9 
" style="fill:none;stroke:#000000;stroke-linecap:square;stroke-linejoin:miter;stroke-width:0.8;"/>
   </g>
   <g id="patch_5">
    <path d="M 70.15 244.1 
L 333.082955 244.1 
" style="fill:none;stroke:#000000;stroke-linecap:square;stroke-linejoin:miter;stroke-width:0.8;"/>
   </g>
   <g id="patch_6">
    <path d="M 70.15 18.9 
L 333.082955 18.9 
" style="fill:none;stroke:#000000;stroke-linecap:square;stroke-linejoin:miter;stroke-width:0.8;"/>
   </g>
  </g>
 </g>
 <defs>
  <clipPath id="pf489d0d679">
   <rect height="225.2" width="262.932955" x="70.15" y="18.9"/>
  </clipPath>
 </defs>
</svg>
