<?xml version="1.0" encoding="utf-8" standalone="no"?>
<!DOCTYPE svg PUBLIC "-//W3C//DTD SVG 1.1//EN"
  "http://www.w3.org/Graphics/SVG/1.1/DTD/svg11.dtd">
<!-- Created with matplotlib (https://matplotlib.org/) -->
<svg height="288pt" version="1.1" viewBox="0 0 360 288" width="360pt" xmlns="http://www.w3.org/2000/svg" xmlns:xlink="http://www.w3.org/1999/xlink">
 <metadata>
  <rdf:RDF xmlns:cc="http://creativecommons.org/ns#" xmlns:dc="http://purl.org/dc/elements/1.1/" xmlns:rdf="http://www.w3.org/1999/02/22-rdf-syntax-ns#">
   <cc:Work>
    <dc:type rdf:resource="http://purl.org/dc/dcmitype/StillImage"/>
    <dc:date>2022-09-25T00:48:14.278512</dc:date>
    <dc:format>image/svg+xml</dc:format>
    <dc:creator>
     <cc:Agent>
      <dc:title>Matplotlib v3.3.4, https://matplotlib.org/</dc:title>
     </cc:Agent>
    </dc:creator>
   </cc:Work>
  </rdf:RDF>
 </metadata>
 <defs>
  <style type="text/css">*{stroke-linecap:butt;stroke-linejoin:round;}</style>
 </defs>
 <g id="figure_1">
  <g id="patch_1">
   <path d="M 0 288 
L 360 288 
L 360 0 
L 0 0 
z
" style="fill:none;"/>
  </g>
  <g id="axes_1">
   <g id="patch_2">
    <path d="M 59.025 244.1 
L 333.082955 244.1 
L 333.082955 18.9 
L 59.025 18.9 
z
" style="fill:#ffffff;"/>
   </g>
   <g id="PolyCollection_1">
    <path clip-path="url(#pf99991a822)" d="M 98.660085 233.863636 
L 94.132993 233.863636 
L 93.976842 233.428696 
L 93.804274 232.993755 
L 93.611674 232.558815 
L 93.395124 232.123874 
L 93.150487 231.688933 
L 92.873513 231.253993 
L 92.559966 230.819052 
L 92.20575 230.384112 
L 91.807057 229.949171 
L 91.360509 229.514231 
L 90.863304 229.07929 
L 90.313348 228.644349 
L 89.709388 228.209409 
L 89.051112 227.774468 
L 88.339245 227.339528 
L 87.575607 226.904587 
L 86.76315 226.469647 
L 85.905963 226.034706 
L 85.009251 225.599765 
L 84.079275 225.164825 
L 83.12327 224.729884 
L 82.14933 224.294944 
L 81.166274 223.860003 
L 80.183486 223.425063 
L 79.210739 222.990122 
L 78.25801 222.555181 
L 77.335289 222.120241 
L 76.452379 221.6853 
L 75.618712 221.25036 
L 74.843161 220.815419 
L 74.133875 220.380478 
L 73.498122 219.945538 
L 72.94216 219.510597 
L 72.471123 219.075657 
L 72.088936 218.640716 
L 71.798253 218.205776 
L 71.600424 217.770835 
L 71.495486 217.335894 
L 71.48218 216.900954 
L 71.557997 216.466013 
L 71.71925 216.031073 
L 71.961162 215.596132 
L 72.277988 215.161192 
L 72.663148 214.726251 
L 73.109385 214.29131 
L 73.608931 213.85637 
L 74.153693 213.421429 
L 74.735436 212.986489 
L 75.345975 212.551548 
L 75.977363 212.116608 
L 76.622066 211.681667 
L 77.273122 211.246726 
L 77.924287 210.811786 
L 78.570143 210.376845 
L 79.20618 209.941905 
L 79.828845 209.506964 
L 80.435551 209.072023 
L 81.024646 208.637083 
L 81.595351 208.202142 
L 82.147659 207.767202 
L 82.682209 207.332261 
L 83.200138 206.897321 
L 83.702912 206.46238 
L 84.19216 206.027439 
L 84.669501 205.592499 
L 85.136389 205.157558 
L 85.593972 204.722618 
L 86.042981 204.287677 
L 86.48365 203.852737 
L 86.91567 203.417796 
L 87.33818 202.982855 
L 87.749803 202.547915 
L 88.148702 202.112974 
L 88.532686 201.678034 
L 88.899323 201.243093 
L 89.246085 200.808153 
L 89.570494 200.373212 
L 89.870277 199.938271 
L 90.143506 199.503331 
L 90.388734 199.06839 
L 90.605099 198.63345 
L 90.792412 198.198509 
L 90.951203 197.763568 
L 91.082742 197.328628 
L 91.189023 196.893687 
L 91.272712 196.458747 
L 91.337069 196.023806 
L 91.385838 195.588866 
L 91.423123 195.153925 
L 91.45324 194.718984 
L 91.48057 194.284044 
L 91.509405 193.849103 
L 91.543798 193.414163 
L 91.587432 192.979222 
L 91.643499 192.544282 
L 91.714608 192.109341 
L 91.802713 191.6744 
L 91.909071 191.23946 
L 92.034229 190.804519 
L 100.758849 190.804519 
L 100.758849 190.804519 
L 100.884008 191.23946 
L 100.990365 191.6744 
L 101.07847 192.109341 
L 101.149579 192.544282 
L 101.205647 192.979222 
L 101.24928 193.414163 
L 101.283673 193.849103 
L 101.312508 194.284044 
L 101.339839 194.718984 
L 101.369956 195.153925 
L 101.407241 195.588866 
L 101.45601 196.023806 
L 101.520366 196.458747 
L 101.604056 196.893687 
L 101.710337 197.328628 
L 101.841876 197.763568 
L 102.000666 198.198509 
L 102.187979 198.63345 
L 102.404344 199.06839 
L 102.649572 199.503331 
L 102.922801 199.938271 
L 103.222584 200.373212 
L 103.546994 200.808153 
L 103.893756 201.243093 
L 104.260393 201.678034 
L 104.644376 202.112974 
L 105.043276 202.547915 
L 105.454898 202.982855 
L 105.877409 203.417796 
L 106.309428 203.852737 
L 106.750098 204.287677 
L 107.199107 204.722618 
L 107.65669 205.157558 
L 108.123577 205.592499 
L 108.600918 206.027439 
L 109.090166 206.46238 
L 109.592941 206.897321 
L 110.110869 207.332261 
L 110.64542 207.767202 
L 111.197727 208.202142 
L 111.768432 208.637083 
L 112.357527 209.072023 
L 112.964233 209.506964 
L 113.586899 209.941905 
L 114.222936 210.376845 
L 114.868791 210.811786 
L 115.519956 211.246726 
L 116.171013 211.681667 
L 116.815715 212.116608 
L 117.447104 212.551548 
L 118.057643 212.986489 
L 118.639386 213.421429 
L 119.184147 213.85637 
L 119.683694 214.29131 
L 120.12993 214.726251 
L 120.515091 215.161192 
L 120.831917 215.596132 
L 121.073829 216.031073 
L 121.235081 216.466013 
L 121.310899 216.900954 
L 121.297593 217.335894 
L 121.192654 217.770835 
L 120.994825 218.205776 
L 120.704143 218.640716 
L 120.321955 219.075657 
L 119.850918 219.510597 
L 119.294956 219.945538 
L 118.659204 220.380478 
L 117.949917 220.815419 
L 117.174367 221.25036 
L 116.340699 221.6853 
L 115.45779 222.120241 
L 114.535068 222.555181 
L 113.58234 222.990122 
L 112.609593 223.425063 
L 111.626804 223.860003 
L 110.643749 224.294944 
L 109.669809 224.729884 
L 108.713803 225.164825 
L 107.783827 225.599765 
L 106.887115 226.034706 
L 106.029929 226.469647 
L 105.217471 226.904587 
L 104.453833 227.339528 
L 103.741966 227.774468 
L 103.083691 228.209409 
L 102.47973 228.644349 
L 101.929775 229.07929 
L 101.432569 229.514231 
L 100.986021 229.949171 
L 100.587329 230.384112 
L 100.233113 230.819052 
L 99.919565 231.253993 
L 99.642592 231.688933 
L 99.397954 232.123874 
L 99.181404 232.558815 
L 98.988805 232.993755 
L 98.816237 233.428696 
L 98.660085 233.863636 
z
" style="fill:#1f77b4;fill-opacity:0.3;"/>
   </g>
   <g id="PolyCollection_2">
    <path clip-path="url(#pf99991a822)" d="M 199.513916 169.70609 
L 192.594039 169.70609 
L 192.216504 168.286193 
L 191.803212 166.866297 
L 191.351805 165.446401 
L 190.860319 164.026505 
L 190.327312 162.606609 
L 189.751985 161.186712 
L 189.134274 159.766816 
L 188.474913 158.34692 
L 187.775456 156.927024 
L 187.038268 155.507127 
L 186.266467 154.087231 
L 185.463847 152.667335 
L 184.634765 151.247439 
L 183.784026 149.827543 
L 182.91676 148.407646 
L 182.038309 146.98775 
L 181.154141 145.567854 
L 180.269786 144.147958 
L 179.390813 142.728061 
L 178.522837 141.308165 
L 177.67156 139.888269 
L 176.842831 138.468373 
L 176.042718 137.048477 
L 175.277581 135.62858 
L 174.554123 134.208684 
L 173.879411 132.788788 
L 173.260856 131.368892 
L 172.706136 129.948995 
L 172.223073 128.529099 
L 171.819444 127.109203 
L 171.502755 125.689307 
L 171.279976 124.269411 
L 171.157252 122.849514 
L 171.139618 121.429618 
L 171.230722 120.009722 
L 171.432591 118.589826 
L 171.745443 117.169929 
L 172.167566 115.750033 
L 172.695268 114.330137 
L 173.322906 112.910241 
L 174.042996 111.490345 
L 174.846385 110.070448 
L 175.72249 108.650552 
L 176.659585 107.230656 
L 177.645119 105.81076 
L 178.666052 104.390863 
L 179.709192 102.970967 
L 180.761517 101.551071 
L 181.810476 100.131175 
L 182.844248 98.711279 
L 183.851962 97.291382 
L 184.823879 95.871486 
L 185.751513 94.45159 
L 186.627722 93.031694 
L 187.44675 91.611797 
L 188.20424 90.191901 
L 188.897207 88.772005 
L 189.524001 87.352109 
L 190.084233 85.932213 
L 190.578704 84.512316 
L 191.009301 83.09242 
L 191.378901 81.672524 
L 191.691251 80.252628 
L 191.950848 78.832731 
L 192.1628 77.412835 
L 192.33269 75.992939 
L 192.466421 74.573043 
L 192.570056 73.153147 
L 192.649664 71.73325 
L 192.711151 70.313354 
L 192.760105 68.893458 
L 192.801653 67.473562 
L 192.840326 66.053665 
L 192.879956 64.633769 
L 192.923589 63.213873 
L 192.973446 61.793977 
L 193.030903 60.374081 
L 193.096521 58.954184 
L 193.170102 57.534288 
L 193.250785 56.114392 
L 193.337162 54.694496 
L 193.427428 53.274599 
L 193.519527 51.854703 
L 193.61132 50.434807 
L 193.700737 49.014911 
L 193.78592 47.595015 
L 193.865344 46.175118 
L 193.93791 44.755222 
L 194.003006 43.335326 
L 194.060534 41.91543 
L 194.1109 40.495533 
L 194.154971 39.075637 
L 194.194007 37.655741 
L 194.229566 36.235845 
L 194.263393 34.815949 
L 194.297304 33.396052 
L 194.333068 31.976156 
L 194.3723 30.55626 
L 194.416364 29.136364 
L 197.69159 29.136364 
L 197.69159 29.136364 
L 197.735655 30.55626 
L 197.774887 31.976156 
L 197.810651 33.396052 
L 197.844562 34.815949 
L 197.878388 36.235845 
L 197.913947 37.655741 
L 197.952984 39.075637 
L 197.997055 40.495533 
L 198.04742 41.91543 
L 198.104948 43.335326 
L 198.170044 44.755222 
L 198.24261 46.175118 
L 198.322034 47.595015 
L 198.407217 49.014911 
L 198.496635 50.434807 
L 198.588428 51.854703 
L 198.680527 53.274599 
L 198.770792 54.694496 
L 198.85717 56.114392 
L 198.937852 57.534288 
L 199.011434 58.954184 
L 199.077052 60.374081 
L 199.134509 61.793977 
L 199.184366 63.213873 
L 199.227999 64.633769 
L 199.267628 66.053665 
L 199.306302 67.473562 
L 199.34785 68.893458 
L 199.396804 70.313354 
L 199.45829 71.73325 
L 199.537898 73.153147 
L 199.641534 74.573043 
L 199.775264 75.992939 
L 199.945154 77.412835 
L 200.157107 78.832731 
L 200.416703 80.252628 
L 200.729054 81.672524 
L 201.098654 83.09242 
L 201.529251 84.512316 
L 202.023721 85.932213 
L 202.583954 87.352109 
L 203.210747 88.772005 
L 203.903715 90.191901 
L 204.661204 91.611797 
L 205.480233 93.031694 
L 206.356442 94.45159 
L 207.284076 95.871486 
L 208.255992 97.291382 
L 209.263707 98.711279 
L 210.297478 100.131175 
L 211.346437 101.551071 
L 212.398763 102.970967 
L 213.441903 104.390863 
L 214.462836 105.81076 
L 215.44837 107.230656 
L 216.385465 108.650552 
L 217.261569 110.070448 
L 218.064958 111.490345 
L 218.785048 112.910241 
L 219.412687 114.330137 
L 219.940388 115.750033 
L 220.362511 117.169929 
L 220.675364 118.589826 
L 220.877233 120.009722 
L 220.968337 121.429618 
L 220.950702 122.849514 
L 220.827979 124.269411 
L 220.6052 125.689307 
L 220.288511 127.109203 
L 219.884882 128.529099 
L 219.401818 129.948995 
L 218.847099 131.368892 
L 218.228544 132.788788 
L 217.553832 134.208684 
L 216.830374 135.62858 
L 216.065237 137.048477 
L 215.265124 138.468373 
L 214.436394 139.888269 
L 213.585117 141.308165 
L 212.717142 142.728061 
L 211.838169 144.147958 
L 210.953814 145.567854 
L 210.069645 146.98775 
L 209.191194 148.407646 
L 208.323928 149.827543 
L 207.47319 151.247439 
L 206.644108 152.667335 
L 205.841487 154.087231 
L 205.069686 155.507127 
L 204.332498 156.927024 
L 203.633042 158.34692 
L 202.973681 159.766816 
L 202.35597 161.186712 
L 201.780643 162.606609 
L 201.247636 164.026505 
L 200.75615 165.446401 
L 200.304743 166.866297 
L 199.89145 168.286193 
L 199.513916 169.70609 
z
" style="fill:#1f77b4;fill-opacity:0.3;"/>
   </g>
   <g id="PolyCollection_3">
    <path clip-path="url(#pf99991a822)" d="M 305.337856 217.304666 
L 286.084975 217.304666 
L 285.591037 217.016242 
L 285.109237 216.727817 
L 284.641227 216.439393 
L 284.188085 216.150969 
L 283.750268 215.862544 
L 283.327585 215.57412 
L 282.919199 215.285696 
L 282.52365 214.997271 
L 282.138903 214.708847 
L 281.762423 214.420423 
L 281.391268 214.131998 
L 281.022205 213.843574 
L 280.651844 213.55515 
L 280.276777 213.266726 
L 279.893736 212.978301 
L 279.49974 212.689877 
L 279.092249 212.401453 
L 278.669299 212.113028 
L 278.22963 211.824604 
L 277.772791 211.53618 
L 277.299217 211.247755 
L 276.810283 210.959331 
L 276.308321 210.670907 
L 275.796611 210.382482 
L 275.279331 210.094058 
L 274.76148 209.805634 
L 274.248767 209.517209 
L 273.74747 209.228785 
L 273.264283 208.940361 
L 272.806126 208.651936 
L 272.37996 208.363512 
L 271.992587 208.075088 
L 271.650455 207.786664 
L 271.359469 207.498239 
L 271.124818 207.209815 
L 270.950825 206.921391 
L 270.840822 206.632966 
L 270.797056 206.344542 
L 270.820628 206.056118 
L 270.911474 205.767693 
L 271.068375 205.479269 
L 271.28901 205.190845 
L 271.570031 204.90242 
L 271.907184 204.613996 
L 272.295436 204.325572 
L 272.729138 204.037147 
L 273.202183 203.748723 
L 273.708188 203.460299 
L 274.240659 203.171874 
L 274.79316 202.88345 
L 275.359466 202.595026 
L 275.933697 202.306602 
L 276.510431 202.018177 
L 277.084797 201.729753 
L 277.652538 201.441329 
L 278.210049 201.152904 
L 278.754393 200.86448 
L 279.28329 200.576056 
L 279.795089 200.287631 
L 280.288723 199.999207 
L 280.763645 199.710783 
L 281.219763 199.422358 
L 281.657365 199.133934 
L 282.077041 198.84551 
L 282.479611 198.557085 
L 282.866056 198.268661 
L 283.237456 197.980237 
L 283.594937 197.691812 
L 283.939626 197.403388 
L 284.272617 197.114964 
L 284.59495 196.82654 
L 284.907596 196.538115 
L 285.211446 196.249691 
L 285.507317 195.961267 
L 285.795951 195.672842 
L 286.078025 195.384418 
L 286.354162 195.095994 
L 286.624941 194.807569 
L 286.890902 194.519145 
L 287.152562 194.230721 
L 287.410411 193.942296 
L 287.664923 193.653872 
L 287.916552 193.365448 
L 288.16573 193.077023 
L 288.412865 192.788599 
L 288.658333 192.500175 
L 288.902469 192.21175 
L 289.145564 191.923326 
L 289.387853 191.634902 
L 289.62951 191.346478 
L 289.870641 191.058053 
L 290.111278 190.769629 
L 290.351377 190.481205 
L 290.590818 190.19278 
L 290.829403 189.904356 
L 291.066856 189.615932 
L 291.302833 189.327507 
L 291.536924 189.039083 
L 291.768658 188.750659 
L 299.654173 188.750659 
L 299.654173 188.750659 
L 299.885907 189.039083 
L 300.119997 189.327507 
L 300.355975 189.615932 
L 300.593428 189.904356 
L 300.832012 190.19278 
L 301.071453 190.481205 
L 301.311553 190.769629 
L 301.55219 191.058053 
L 301.79332 191.346478 
L 302.034977 191.634902 
L 302.277266 191.923326 
L 302.520361 192.21175 
L 302.764498 192.500175 
L 303.009965 192.788599 
L 303.257101 193.077023 
L 303.506279 193.365448 
L 303.757908 193.653872 
L 304.01242 193.942296 
L 304.270269 194.230721 
L 304.531928 194.519145 
L 304.79789 194.807569 
L 305.068668 195.095994 
L 305.344806 195.384418 
L 305.62688 195.672842 
L 305.915513 195.961267 
L 306.211384 196.249691 
L 306.515235 196.538115 
L 306.827881 196.82654 
L 307.150214 197.114964 
L 307.483205 197.403388 
L 307.827893 197.691812 
L 308.185374 197.980237 
L 308.556775 198.268661 
L 308.94322 198.557085 
L 309.34579 198.84551 
L 309.765466 199.133934 
L 310.203067 199.422358 
L 310.659185 199.710783 
L 311.134108 199.999207 
L 311.627741 200.287631 
L 312.139541 200.576056 
L 312.668438 200.86448 
L 313.212782 201.152904 
L 313.770292 201.441329 
L 314.338033 201.729753 
L 314.9124 202.018177 
L 315.489134 202.306602 
L 316.063365 202.595026 
L 316.629671 202.88345 
L 317.182172 203.171874 
L 317.714643 203.460299 
L 318.220647 203.748723 
L 318.693693 204.037147 
L 319.127394 204.325572 
L 319.515647 204.613996 
L 319.8528 204.90242 
L 320.133821 205.190845 
L 320.354455 205.479269 
L 320.511357 205.767693 
L 320.602203 206.056118 
L 320.625775 206.344542 
L 320.582008 206.632966 
L 320.472005 206.921391 
L 320.298013 207.209815 
L 320.063362 207.498239 
L 319.772375 207.786664 
L 319.430243 208.075088 
L 319.042871 208.363512 
L 318.616705 208.651936 
L 318.158548 208.940361 
L 317.67536 209.228785 
L 317.174064 209.517209 
L 316.66135 209.805634 
L 316.143499 210.094058 
L 315.626219 210.382482 
L 315.114509 210.670907 
L 314.612548 210.959331 
L 314.123613 211.247755 
L 313.65004 211.53618 
L 313.193201 211.824604 
L 312.753532 212.113028 
L 312.330582 212.401453 
L 311.92309 212.689877 
L 311.529094 212.978301 
L 311.146053 213.266726 
L 310.770987 213.55515 
L 310.400625 213.843574 
L 310.031563 214.131998 
L 309.660408 214.420423 
L 309.283928 214.708847 
L 308.899181 214.997271 
L 308.503632 215.285696 
L 308.095246 215.57412 
L 307.672562 215.862544 
L 307.234745 216.150969 
L 306.781604 216.439393 
L 306.313594 216.727817 
L 305.831793 217.016242 
L 305.337856 217.304666 
z
" style="fill:#1f77b4;fill-opacity:0.3;"/>
   </g>
   <g id="matplotlib.axis_1">
    <g id="xtick_1">
     <g id="line2d_1">
      <defs>
       <path d="M 0 0 
L 0 3.5 
" id="md094836256" style="stroke:#000000;stroke-width:0.8;"/>
      </defs>
      <g>
       <use style="stroke:#000000;stroke-width:0.8;" x="96.396539" xlink:href="#md094836256" y="244.1"/>
      </g>
     </g>
     <g id="text_1">
      <!-- Our Method -->
      <g transform="translate(44.767438 264.397266)scale(0.175 -0.175)">
       <defs>
        <path d="M 39.40625 66.21875 
Q 28.65625 66.21875 22.328125 58.203125 
Q 16.015625 50.203125 16.015625 36.375 
Q 16.015625 22.609375 22.328125 14.59375 
Q 28.65625 6.59375 39.40625 6.59375 
Q 50.140625 6.59375 56.421875 14.59375 
Q 62.703125 22.609375 62.703125 36.375 
Q 62.703125 50.203125 56.421875 58.203125 
Q 50.140625 66.21875 39.40625 66.21875 
z
M 39.40625 74.21875 
Q 54.734375 74.21875 63.90625 63.9375 
Q 73.09375 53.65625 73.09375 36.375 
Q 73.09375 19.140625 63.90625 8.859375 
Q 54.734375 -1.421875 39.40625 -1.421875 
Q 24.03125 -1.421875 14.8125 8.828125 
Q 5.609375 19.09375 5.609375 36.375 
Q 5.609375 53.65625 14.8125 63.9375 
Q 24.03125 74.21875 39.40625 74.21875 
z
" id="DejaVuSans-79"/>
        <path d="M 8.5 21.578125 
L 8.5 54.6875 
L 17.484375 54.6875 
L 17.484375 21.921875 
Q 17.484375 14.15625 20.5 10.265625 
Q 23.53125 6.390625 29.59375 6.390625 
Q 36.859375 6.390625 41.078125 11.03125 
Q 45.3125 15.671875 45.3125 23.6875 
L 45.3125 54.6875 
L 54.296875 54.6875 
L 54.296875 0 
L 45.3125 0 
L 45.3125 8.40625 
Q 42.046875 3.421875 37.71875 1 
Q 33.40625 -1.421875 27.6875 -1.421875 
Q 18.265625 -1.421875 13.375 4.4375 
Q 8.5 10.296875 8.5 21.578125 
z
M 31.109375 56 
z
" id="DejaVuSans-117"/>
        <path d="M 41.109375 46.296875 
Q 39.59375 47.171875 37.8125 47.578125 
Q 36.03125 48 33.890625 48 
Q 26.265625 48 22.1875 43.046875 
Q 18.109375 38.09375 18.109375 28.8125 
L 18.109375 0 
L 9.078125 0 
L 9.078125 54.6875 
L 18.109375 54.6875 
L 18.109375 46.1875 
Q 20.953125 51.171875 25.484375 53.578125 
Q 30.03125 56 36.53125 56 
Q 37.453125 56 38.578125 55.875 
Q 39.703125 55.765625 41.0625 55.515625 
z
" id="DejaVuSans-114"/>
        <path id="DejaVuSans-32"/>
        <path d="M 9.8125 72.90625 
L 24.515625 72.90625 
L 43.109375 23.296875 
L 61.8125 72.90625 
L 76.515625 72.90625 
L 76.515625 0 
L 66.890625 0 
L 66.890625 64.015625 
L 48.09375 14.015625 
L 38.1875 14.015625 
L 19.390625 64.015625 
L 19.390625 0 
L 9.8125 0 
z
" id="DejaVuSans-77"/>
        <path d="M 56.203125 29.59375 
L 56.203125 25.203125 
L 14.890625 25.203125 
Q 15.484375 15.921875 20.484375 11.0625 
Q 25.484375 6.203125 34.421875 6.203125 
Q 39.59375 6.203125 44.453125 7.46875 
Q 49.3125 8.734375 54.109375 11.28125 
L 54.109375 2.78125 
Q 49.265625 0.734375 44.1875 -0.34375 
Q 39.109375 -1.421875 33.890625 -1.421875 
Q 20.796875 -1.421875 13.15625 6.1875 
Q 5.515625 13.8125 5.515625 26.8125 
Q 5.515625 40.234375 12.765625 48.109375 
Q 20.015625 56 32.328125 56 
Q 43.359375 56 49.78125 48.890625 
Q 56.203125 41.796875 56.203125 29.59375 
z
M 47.21875 32.234375 
Q 47.125 39.59375 43.09375 43.984375 
Q 39.0625 48.390625 32.421875 48.390625 
Q 24.90625 48.390625 20.390625 44.140625 
Q 15.875 39.890625 15.1875 32.171875 
z
" id="DejaVuSans-101"/>
        <path d="M 18.3125 70.21875 
L 18.3125 54.6875 
L 36.8125 54.6875 
L 36.8125 47.703125 
L 18.3125 47.703125 
L 18.3125 18.015625 
Q 18.3125 11.328125 20.140625 9.421875 
Q 21.96875 7.515625 27.59375 7.515625 
L 36.8125 7.515625 
L 36.8125 0 
L 27.59375 0 
Q 17.1875 0 13.234375 3.875 
Q 9.28125 7.765625 9.28125 18.015625 
L 9.28125 47.703125 
L 2.6875 47.703125 
L 2.6875 54.6875 
L 9.28125 54.6875 
L 9.28125 70.21875 
z
" id="DejaVuSans-116"/>
        <path d="M 54.890625 33.015625 
L 54.890625 0 
L 45.90625 0 
L 45.90625 32.71875 
Q 45.90625 40.484375 42.875 44.328125 
Q 39.84375 48.1875 33.796875 48.1875 
Q 26.515625 48.1875 22.3125 43.546875 
Q 18.109375 38.921875 18.109375 30.90625 
L 18.109375 0 
L 9.078125 0 
L 9.078125 75.984375 
L 18.109375 75.984375 
L 18.109375 46.1875 
Q 21.34375 51.125 25.703125 53.5625 
Q 30.078125 56 35.796875 56 
Q 45.21875 56 50.046875 50.171875 
Q 54.890625 44.34375 54.890625 33.015625 
z
" id="DejaVuSans-104"/>
        <path d="M 30.609375 48.390625 
Q 23.390625 48.390625 19.1875 42.75 
Q 14.984375 37.109375 14.984375 27.296875 
Q 14.984375 17.484375 19.15625 11.84375 
Q 23.34375 6.203125 30.609375 6.203125 
Q 37.796875 6.203125 41.984375 11.859375 
Q 46.1875 17.53125 46.1875 27.296875 
Q 46.1875 37.015625 41.984375 42.703125 
Q 37.796875 48.390625 30.609375 48.390625 
z
M 30.609375 56 
Q 42.328125 56 49.015625 48.375 
Q 55.71875 40.765625 55.71875 27.296875 
Q 55.71875 13.875 49.015625 6.21875 
Q 42.328125 -1.421875 30.609375 -1.421875 
Q 18.84375 -1.421875 12.171875 6.21875 
Q 5.515625 13.875 5.515625 27.296875 
Q 5.515625 40.765625 12.171875 48.375 
Q 18.84375 56 30.609375 56 
z
" id="DejaVuSans-111"/>
        <path d="M 45.40625 46.390625 
L 45.40625 75.984375 
L 54.390625 75.984375 
L 54.390625 0 
L 45.40625 0 
L 45.40625 8.203125 
Q 42.578125 3.328125 38.25 0.953125 
Q 33.9375 -1.421875 27.875 -1.421875 
Q 17.96875 -1.421875 11.734375 6.484375 
Q 5.515625 14.40625 5.515625 27.296875 
Q 5.515625 40.1875 11.734375 48.09375 
Q 17.96875 56 27.875 56 
Q 33.9375 56 38.25 53.625 
Q 42.578125 51.265625 45.40625 46.390625 
z
M 14.796875 27.296875 
Q 14.796875 17.390625 18.875 11.75 
Q 22.953125 6.109375 30.078125 6.109375 
Q 37.203125 6.109375 41.296875 11.75 
Q 45.40625 17.390625 45.40625 27.296875 
Q 45.40625 37.203125 41.296875 42.84375 
Q 37.203125 48.484375 30.078125 48.484375 
Q 22.953125 48.484375 18.875 42.84375 
Q 14.796875 37.203125 14.796875 27.296875 
z
" id="DejaVuSans-100"/>
       </defs>
       <use xlink:href="#DejaVuSans-79"/>
       <use x="78.710938" xlink:href="#DejaVuSans-117"/>
       <use x="142.089844" xlink:href="#DejaVuSans-114"/>
       <use x="183.203125" xlink:href="#DejaVuSans-32"/>
       <use x="214.990234" xlink:href="#DejaVuSans-77"/>
       <use x="301.269531" xlink:href="#DejaVuSans-101"/>
       <use x="362.792969" xlink:href="#DejaVuSans-116"/>
       <use x="402.001953" xlink:href="#DejaVuSans-104"/>
       <use x="465.380859" xlink:href="#DejaVuSans-111"/>
       <use x="526.5625" xlink:href="#DejaVuSans-100"/>
      </g>
     </g>
    </g>
    <g id="xtick_2">
     <g id="line2d_2">
      <g>
       <use style="stroke:#000000;stroke-width:0.8;" x="196.053977" xlink:href="#md094836256" y="244.1"/>
      </g>
     </g>
     <g id="text_2">
      <!-- Stein's -->
      <g transform="translate(166.745579 264.397266)scale(0.175 -0.175)">
       <defs>
        <path d="M 53.515625 70.515625 
L 53.515625 60.890625 
Q 47.90625 63.578125 42.921875 64.890625 
Q 37.9375 66.21875 33.296875 66.21875 
Q 25.25 66.21875 20.875 63.09375 
Q 16.5 59.96875 16.5 54.203125 
Q 16.5 49.359375 19.40625 46.890625 
Q 22.3125 44.4375 30.421875 42.921875 
L 36.375 41.703125 
Q 47.40625 39.59375 52.65625 34.296875 
Q 57.90625 29 57.90625 20.125 
Q 57.90625 9.515625 50.796875 4.046875 
Q 43.703125 -1.421875 29.984375 -1.421875 
Q 24.8125 -1.421875 18.96875 -0.25 
Q 13.140625 0.921875 6.890625 3.21875 
L 6.890625 13.375 
Q 12.890625 10.015625 18.65625 8.296875 
Q 24.421875 6.59375 29.984375 6.59375 
Q 38.421875 6.59375 43.015625 9.90625 
Q 47.609375 13.234375 47.609375 19.390625 
Q 47.609375 24.75 44.3125 27.78125 
Q 41.015625 30.8125 33.5 32.328125 
L 27.484375 33.5 
Q 16.453125 35.6875 11.515625 40.375 
Q 6.59375 45.0625 6.59375 53.421875 
Q 6.59375 63.09375 13.40625 68.65625 
Q 20.21875 74.21875 32.171875 74.21875 
Q 37.3125 74.21875 42.625 73.28125 
Q 47.953125 72.359375 53.515625 70.515625 
z
" id="DejaVuSans-83"/>
        <path d="M 9.421875 54.6875 
L 18.40625 54.6875 
L 18.40625 0 
L 9.421875 0 
z
M 9.421875 75.984375 
L 18.40625 75.984375 
L 18.40625 64.59375 
L 9.421875 64.59375 
z
" id="DejaVuSans-105"/>
        <path d="M 54.890625 33.015625 
L 54.890625 0 
L 45.90625 0 
L 45.90625 32.71875 
Q 45.90625 40.484375 42.875 44.328125 
Q 39.84375 48.1875 33.796875 48.1875 
Q 26.515625 48.1875 22.3125 43.546875 
Q 18.109375 38.921875 18.109375 30.90625 
L 18.109375 0 
L 9.078125 0 
L 9.078125 54.6875 
L 18.109375 54.6875 
L 18.109375 46.1875 
Q 21.34375 51.125 25.703125 53.5625 
Q 30.078125 56 35.796875 56 
Q 45.21875 56 50.046875 50.171875 
Q 54.890625 44.34375 54.890625 33.015625 
z
" id="DejaVuSans-110"/>
        <path d="M 17.921875 72.90625 
L 17.921875 45.796875 
L 9.625 45.796875 
L 9.625 72.90625 
z
" id="DejaVuSans-39"/>
        <path d="M 44.28125 53.078125 
L 44.28125 44.578125 
Q 40.484375 46.53125 36.375 47.5 
Q 32.28125 48.484375 27.875 48.484375 
Q 21.1875 48.484375 17.84375 46.4375 
Q 14.5 44.390625 14.5 40.28125 
Q 14.5 37.15625 16.890625 35.375 
Q 19.28125 33.59375 26.515625 31.984375 
L 29.59375 31.296875 
Q 39.15625 29.25 43.1875 25.515625 
Q 47.21875 21.78125 47.21875 15.09375 
Q 47.21875 7.46875 41.1875 3.015625 
Q 35.15625 -1.421875 24.609375 -1.421875 
Q 20.21875 -1.421875 15.453125 -0.5625 
Q 10.6875 0.296875 5.421875 2 
L 5.421875 11.28125 
Q 10.40625 8.6875 15.234375 7.390625 
Q 20.0625 6.109375 24.8125 6.109375 
Q 31.15625 6.109375 34.5625 8.28125 
Q 37.984375 10.453125 37.984375 14.40625 
Q 37.984375 18.0625 35.515625 20.015625 
Q 33.0625 21.96875 24.703125 23.78125 
L 21.578125 24.515625 
Q 13.234375 26.265625 9.515625 29.90625 
Q 5.8125 33.546875 5.8125 39.890625 
Q 5.8125 47.609375 11.28125 51.796875 
Q 16.75 56 26.8125 56 
Q 31.78125 56 36.171875 55.265625 
Q 40.578125 54.546875 44.28125 53.078125 
z
" id="DejaVuSans-115"/>
       </defs>
       <use xlink:href="#DejaVuSans-83"/>
       <use x="63.476562" xlink:href="#DejaVuSans-116"/>
       <use x="102.685547" xlink:href="#DejaVuSans-101"/>
       <use x="164.208984" xlink:href="#DejaVuSans-105"/>
       <use x="191.992188" xlink:href="#DejaVuSans-110"/>
       <use x="255.371094" xlink:href="#DejaVuSans-39"/>
       <use x="282.861328" xlink:href="#DejaVuSans-115"/>
      </g>
     </g>
    </g>
    <g id="xtick_3">
     <g id="line2d_3">
      <g>
       <use style="stroke:#000000;stroke-width:0.8;" x="295.711415" xlink:href="#md094836256" y="244.1"/>
      </g>
     </g>
     <g id="text_3">
      <!-- Entry-wise -->
      <g transform="translate(249.898329 264.397266)scale(0.175 -0.175)">
       <defs>
        <path d="M 9.8125 72.90625 
L 55.90625 72.90625 
L 55.90625 64.59375 
L 19.671875 64.59375 
L 19.671875 43.015625 
L 54.390625 43.015625 
L 54.390625 34.71875 
L 19.671875 34.71875 
L 19.671875 8.296875 
L 56.78125 8.296875 
L 56.78125 0 
L 9.8125 0 
z
" id="DejaVuSans-69"/>
        <path d="M 32.171875 -5.078125 
Q 28.375 -14.84375 24.75 -17.8125 
Q 21.140625 -20.796875 15.09375 -20.796875 
L 7.90625 -20.796875 
L 7.90625 -13.28125 
L 13.1875 -13.28125 
Q 16.890625 -13.28125 18.9375 -11.515625 
Q 21 -9.765625 23.484375 -3.21875 
L 25.09375 0.875 
L 2.984375 54.6875 
L 12.5 54.6875 
L 29.59375 11.921875 
L 46.6875 54.6875 
L 56.203125 54.6875 
z
" id="DejaVuSans-121"/>
        <path d="M 4.890625 31.390625 
L 31.203125 31.390625 
L 31.203125 23.390625 
L 4.890625 23.390625 
z
" id="DejaVuSans-45"/>
        <path d="M 4.203125 54.6875 
L 13.1875 54.6875 
L 24.421875 12.015625 
L 35.59375 54.6875 
L 46.1875 54.6875 
L 57.421875 12.015625 
L 68.609375 54.6875 
L 77.59375 54.6875 
L 63.28125 0 
L 52.6875 0 
L 40.921875 44.828125 
L 29.109375 0 
L 18.5 0 
z
" id="DejaVuSans-119"/>
       </defs>
       <use xlink:href="#DejaVuSans-69"/>
       <use x="63.183594" xlink:href="#DejaVuSans-110"/>
       <use x="126.5625" xlink:href="#DejaVuSans-116"/>
       <use x="165.771484" xlink:href="#DejaVuSans-114"/>
       <use x="206.884766" xlink:href="#DejaVuSans-121"/>
       <use x="264.314453" xlink:href="#DejaVuSans-45"/>
       <use x="300.398438" xlink:href="#DejaVuSans-119"/>
       <use x="382.185547" xlink:href="#DejaVuSans-105"/>
       <use x="409.96875" xlink:href="#DejaVuSans-115"/>
       <use x="462.068359" xlink:href="#DejaVuSans-101"/>
      </g>
     </g>
    </g>
   </g>
   <g id="matplotlib.axis_2">
    <g id="ytick_1">
     <g id="line2d_4">
      <defs>
       <path d="M 0 0 
L -3.5 0 
" id="m6d89d39eb7" style="stroke:#000000;stroke-width:0.8;"/>
      </defs>
      <g>
       <use style="stroke:#000000;stroke-width:0.8;" x="59.025" xlink:href="#m6d89d39eb7" y="191.88391"/>
      </g>
     </g>
     <g id="text_4">
      <!-- 1 -->
      <g transform="translate(40.890625 198.532543)scale(0.175 -0.175)">
       <defs>
        <path d="M 12.40625 8.296875 
L 28.515625 8.296875 
L 28.515625 63.921875 
L 10.984375 60.40625 
L 10.984375 69.390625 
L 28.421875 72.90625 
L 38.28125 72.90625 
L 38.28125 8.296875 
L 54.390625 8.296875 
L 54.390625 0 
L 12.40625 0 
z
" id="DejaVuSans-49"/>
       </defs>
       <use xlink:href="#DejaVuSans-49"/>
      </g>
     </g>
    </g>
    <g id="ytick_2">
     <g id="line2d_5">
      <g>
       <use style="stroke:#000000;stroke-width:0.8;" x="59.025" xlink:href="#m6d89d39eb7" y="118.49199"/>
      </g>
     </g>
     <g id="text_5">
      <!-- 2 -->
      <g transform="translate(40.890625 125.140623)scale(0.175 -0.175)">
       <defs>
        <path d="M 19.1875 8.296875 
L 53.609375 8.296875 
L 53.609375 0 
L 7.328125 0 
L 7.328125 8.296875 
Q 12.9375 14.109375 22.625 23.890625 
Q 32.328125 33.6875 34.8125 36.53125 
Q 39.546875 41.84375 41.421875 45.53125 
Q 43.3125 49.21875 43.3125 52.78125 
Q 43.3125 58.59375 39.234375 62.25 
Q 35.15625 65.921875 28.609375 65.921875 
Q 23.96875 65.921875 18.8125 64.3125 
Q 13.671875 62.703125 7.8125 59.421875 
L 7.8125 69.390625 
Q 13.765625 71.78125 18.9375 73 
Q 24.125 74.21875 28.421875 74.21875 
Q 39.75 74.21875 46.484375 68.546875 
Q 53.21875 62.890625 53.21875 53.421875 
Q 53.21875 48.921875 51.53125 44.890625 
Q 49.859375 40.875 45.40625 35.40625 
Q 44.1875 33.984375 37.640625 27.21875 
Q 31.109375 20.453125 19.1875 8.296875 
z
" id="DejaVuSans-50"/>
       </defs>
       <use xlink:href="#DejaVuSans-50"/>
      </g>
     </g>
    </g>
    <g id="ytick_3">
     <g id="line2d_6">
      <g>
       <use style="stroke:#000000;stroke-width:0.8;" x="59.025" xlink:href="#m6d89d39eb7" y="45.100069"/>
      </g>
     </g>
     <g id="text_6">
      <!-- 3 -->
      <g transform="translate(40.890625 51.748702)scale(0.175 -0.175)">
       <defs>
        <path d="M 40.578125 39.3125 
Q 47.65625 37.796875 51.625 33 
Q 55.609375 28.21875 55.609375 21.1875 
Q 55.609375 10.40625 48.1875 4.484375 
Q 40.765625 -1.421875 27.09375 -1.421875 
Q 22.515625 -1.421875 17.65625 -0.515625 
Q 12.796875 0.390625 7.625 2.203125 
L 7.625 11.71875 
Q 11.71875 9.328125 16.59375 8.109375 
Q 21.484375 6.890625 26.8125 6.890625 
Q 36.078125 6.890625 40.9375 10.546875 
Q 45.796875 14.203125 45.796875 21.1875 
Q 45.796875 27.640625 41.28125 31.265625 
Q 36.765625 34.90625 28.71875 34.90625 
L 20.21875 34.90625 
L 20.21875 43.015625 
L 29.109375 43.015625 
Q 36.375 43.015625 40.234375 45.921875 
Q 44.09375 48.828125 44.09375 54.296875 
Q 44.09375 59.90625 40.109375 62.90625 
Q 36.140625 65.921875 28.71875 65.921875 
Q 24.65625 65.921875 20.015625 65.03125 
Q 15.375 64.15625 9.8125 62.3125 
L 9.8125 71.09375 
Q 15.4375 72.65625 20.34375 73.4375 
Q 25.25 74.21875 29.59375 74.21875 
Q 40.828125 74.21875 47.359375 69.109375 
Q 53.90625 64.015625 53.90625 55.328125 
Q 53.90625 49.265625 50.4375 45.09375 
Q 46.96875 40.921875 40.578125 39.3125 
z
" id="DejaVuSans-51"/>
       </defs>
       <use xlink:href="#DejaVuSans-51"/>
      </g>
     </g>
    </g>
    <g id="text_7">
     <!-- Estimation Error -->
     <g transform="translate(33.251172 202.198633)rotate(-90)scale(0.175 -0.175)">
      <defs>
       <path d="M 52 44.1875 
Q 55.375 50.25 60.0625 53.125 
Q 64.75 56 71.09375 56 
Q 79.640625 56 84.28125 50.015625 
Q 88.921875 44.046875 88.921875 33.015625 
L 88.921875 0 
L 79.890625 0 
L 79.890625 32.71875 
Q 79.890625 40.578125 77.09375 44.375 
Q 74.3125 48.1875 68.609375 48.1875 
Q 61.625 48.1875 57.5625 43.546875 
Q 53.515625 38.921875 53.515625 30.90625 
L 53.515625 0 
L 44.484375 0 
L 44.484375 32.71875 
Q 44.484375 40.625 41.703125 44.40625 
Q 38.921875 48.1875 33.109375 48.1875 
Q 26.21875 48.1875 22.15625 43.53125 
Q 18.109375 38.875 18.109375 30.90625 
L 18.109375 0 
L 9.078125 0 
L 9.078125 54.6875 
L 18.109375 54.6875 
L 18.109375 46.1875 
Q 21.1875 51.21875 25.484375 53.609375 
Q 29.78125 56 35.6875 56 
Q 41.65625 56 45.828125 52.96875 
Q 50 49.953125 52 44.1875 
z
" id="DejaVuSans-109"/>
       <path d="M 34.28125 27.484375 
Q 23.390625 27.484375 19.1875 25 
Q 14.984375 22.515625 14.984375 16.5 
Q 14.984375 11.71875 18.140625 8.90625 
Q 21.296875 6.109375 26.703125 6.109375 
Q 34.1875 6.109375 38.703125 11.40625 
Q 43.21875 16.703125 43.21875 25.484375 
L 43.21875 27.484375 
z
M 52.203125 31.203125 
L 52.203125 0 
L 43.21875 0 
L 43.21875 8.296875 
Q 40.140625 3.328125 35.546875 0.953125 
Q 30.953125 -1.421875 24.3125 -1.421875 
Q 15.921875 -1.421875 10.953125 3.296875 
Q 6 8.015625 6 15.921875 
Q 6 25.140625 12.171875 29.828125 
Q 18.359375 34.515625 30.609375 34.515625 
L 43.21875 34.515625 
L 43.21875 35.40625 
Q 43.21875 41.609375 39.140625 45 
Q 35.0625 48.390625 27.6875 48.390625 
Q 23 48.390625 18.546875 47.265625 
Q 14.109375 46.140625 10.015625 43.890625 
L 10.015625 52.203125 
Q 14.9375 54.109375 19.578125 55.046875 
Q 24.21875 56 28.609375 56 
Q 40.484375 56 46.34375 49.84375 
Q 52.203125 43.703125 52.203125 31.203125 
z
" id="DejaVuSans-97"/>
      </defs>
      <use xlink:href="#DejaVuSans-69"/>
      <use x="63.183594" xlink:href="#DejaVuSans-115"/>
      <use x="115.283203" xlink:href="#DejaVuSans-116"/>
      <use x="154.492188" xlink:href="#DejaVuSans-105"/>
      <use x="182.275391" xlink:href="#DejaVuSans-109"/>
      <use x="279.6875" xlink:href="#DejaVuSans-97"/>
      <use x="340.966797" xlink:href="#DejaVuSans-116"/>
      <use x="380.175781" xlink:href="#DejaVuSans-105"/>
      <use x="407.958984" xlink:href="#DejaVuSans-111"/>
      <use x="469.140625" xlink:href="#DejaVuSans-110"/>
      <use x="532.519531" xlink:href="#DejaVuSans-32"/>
      <use x="564.306641" xlink:href="#DejaVuSans-69"/>
      <use x="627.490234" xlink:href="#DejaVuSans-114"/>
      <use x="666.853516" xlink:href="#DejaVuSans-114"/>
      <use x="705.716797" xlink:href="#DejaVuSans-111"/>
      <use x="766.898438" xlink:href="#DejaVuSans-114"/>
     </g>
    </g>
   </g>
   <g id="LineCollection_1">
    <path clip-path="url(#pf99991a822)" d="M 83.93936 190.804519 
L 108.853719 190.804519 
" style="fill:none;stroke:#1f77b4;stroke-width:1.5;"/>
    <path clip-path="url(#pf99991a822)" d="M 183.596798 29.136364 
L 208.511157 29.136364 
" style="fill:none;stroke:#1f77b4;stroke-width:1.5;"/>
    <path clip-path="url(#pf99991a822)" d="M 283.254236 188.750659 
L 308.168595 188.750659 
" style="fill:none;stroke:#1f77b4;stroke-width:1.5;"/>
   </g>
   <g id="LineCollection_2">
    <path clip-path="url(#pf99991a822)" d="M 83.93936 233.863636 
L 108.853719 233.863636 
" style="fill:none;stroke:#1f77b4;stroke-width:1.5;"/>
    <path clip-path="url(#pf99991a822)" d="M 183.596798 169.70609 
L 208.511157 169.70609 
" style="fill:none;stroke:#1f77b4;stroke-width:1.5;"/>
    <path clip-path="url(#pf99991a822)" d="M 283.254236 217.304666 
L 308.168595 217.304666 
" style="fill:none;stroke:#1f77b4;stroke-width:1.5;"/>
   </g>
   <g id="LineCollection_3">
    <path clip-path="url(#pf99991a822)" d="M 96.396539 233.863636 
L 96.396539 190.804519 
" style="fill:none;stroke:#1f77b4;stroke-width:1.5;"/>
    <path clip-path="url(#pf99991a822)" d="M 196.053977 169.70609 
L 196.053977 29.136364 
" style="fill:none;stroke:#1f77b4;stroke-width:1.5;"/>
    <path clip-path="url(#pf99991a822)" d="M 295.711415 217.304666 
L 295.711415 188.750659 
" style="fill:none;stroke:#1f77b4;stroke-width:1.5;"/>
   </g>
   <g id="patch_3">
    <path d="M 59.025 244.1 
L 59.025 18.9 
" style="fill:none;stroke:#000000;stroke-linecap:square;stroke-linejoin:miter;stroke-width:0.8;"/>
   </g>
   <g id="patch_4">
    <path d="M 333.082955 244.1 
L 333.082955 18.9 
" style="fill:none;stroke:#000000;stroke-linecap:square;stroke-linejoin:miter;stroke-width:0.8;"/>
   </g>
   <g id="patch_5">
    <path d="M 59.025 244.1 
L 333.082955 244.1 
" style="fill:none;stroke:#000000;stroke-linecap:square;stroke-linejoin:miter;stroke-width:0.8;"/>
   </g>
   <g id="patch_6">
    <path d="M 59.025 18.9 
L 333.082955 18.9 
" style="fill:none;stroke:#000000;stroke-linecap:square;stroke-linejoin:miter;stroke-width:0.8;"/>
   </g>
  </g>
 </g>
 <defs>
  <clipPath id="pf99991a822">
   <rect height="225.2" width="274.057955" x="59.025" y="18.9"/>
  </clipPath>
 </defs>
</svg>
