<?xml version="1.0" encoding="utf-8" standalone="no"?>
<!DOCTYPE svg PUBLIC "-//W3C//DTD SVG 1.1//EN"
  "http://www.w3.org/Graphics/SVG/1.1/DTD/svg11.dtd">
<!-- Created with matplotlib (https://matplotlib.org/) -->
<svg height="288pt" version="1.1" viewBox="0 0 360 288" width="360pt" xmlns="http://www.w3.org/2000/svg" xmlns:xlink="http://www.w3.org/1999/xlink">
 <metadata>
  <rdf:RDF xmlns:cc="http://creativecommons.org/ns#" xmlns:dc="http://purl.org/dc/elements/1.1/" xmlns:rdf="http://www.w3.org/1999/02/22-rdf-syntax-ns#">
   <cc:Work>
    <dc:type rdf:resource="http://purl.org/dc/dcmitype/StillImage"/>
    <dc:date>2022-09-25T00:48:13.532168</dc:date>
    <dc:format>image/svg+xml</dc:format>
    <dc:creator>
     <cc:Agent>
      <dc:title>Matplotlib v3.3.4, https://matplotlib.org/</dc:title>
     </cc:Agent>
    </dc:creator>
   </cc:Work>
  </rdf:RDF>
 </metadata>
 <defs>
  <style type="text/css">*{stroke-linecap:butt;stroke-linejoin:round;}</style>
 </defs>
 <g id="figure_1">
  <g id="patch_1">
   <path d="M 0 288 
L 360 288 
L 360 0 
L 0 0 
z
" style="fill:none;"/>
  </g>
  <g id="axes_1">
   <g id="patch_2">
    <path d="M 59.025 244.1 
L 333.082955 244.1 
L 333.082955 24.261605 
L 59.025 24.261605 
z
" style="fill:#ffffff;"/>
   </g>
   <g id="PolyCollection_1">
    <path clip-path="url(#p5c8b934616)" d="M 101.551063 234.107346 
L 91.242015 234.107346 
L 90.79725 233.488194 
L 90.321659 232.869042 
L 89.81427 232.249891 
L 89.274439 231.630739 
L 88.701919 231.011588 
L 88.09693 230.392436 
L 87.460214 229.773284 
L 86.793089 229.154133 
L 86.097474 228.534981 
L 85.37591 227.91583 
L 84.63156 227.296678 
L 83.868177 226.677526 
L 83.090069 226.058375 
L 82.302029 225.439223 
L 81.509252 224.820072 
L 80.717233 224.20092 
L 79.931655 223.581768 
L 79.158264 222.962617 
L 78.402736 222.343465 
L 77.670552 221.724314 
L 76.966871 221.105162 
L 76.296411 220.48601 
L 75.663352 219.866859 
L 75.07125 219.247707 
L 74.522974 218.628555 
L 74.02067 218.009404 
L 73.565742 217.390252 
L 73.158867 216.771101 
L 72.800027 216.151949 
L 72.488566 215.532797 
L 72.223263 214.913646 
L 72.002422 214.294494 
L 71.823975 213.675343 
L 71.685582 213.056191 
L 71.584742 212.437039 
L 71.518893 211.817888 
L 71.485509 211.198736 
L 71.48218 210.579585 
L 71.50668 209.960433 
L 71.557018 209.341281 
L 71.631464 208.72213 
L 71.728564 208.102978 
L 71.847131 207.483827 
L 71.98622 206.864675 
L 72.145085 206.245523 
L 72.323129 205.626372 
L 72.51984 205.00722 
L 72.734725 204.388068 
L 72.967241 203.768917 
L 73.21673 203.149765 
L 73.482359 202.530614 
L 73.763076 201.911462 
L 74.057567 201.29231 
L 74.364239 200.673159 
L 74.681216 200.054007 
L 75.006354 199.434856 
L 75.337265 198.815704 
L 75.671372 198.196552 
L 76.005964 197.577401 
L 76.338274 196.958249 
L 76.66556 196.339098 
L 76.985194 195.719946 
L 77.294753 195.100794 
L 77.592109 194.481643 
L 77.875511 193.862491 
L 78.143657 193.24334 
L 78.395758 192.624188 
L 78.631582 192.005036 
L 78.851478 191.385885 
L 79.056388 190.766733 
L 79.247828 190.147581 
L 79.427862 189.52843 
L 79.599042 188.909278 
L 79.764343 188.290127 
L 79.927077 187.670975 
L 80.090794 187.051823 
L 80.259177 186.432672 
L 80.435931 185.81352 
L 80.624673 185.194369 
L 80.82882 184.575217 
L 81.051494 183.956065 
L 81.295422 183.336914 
L 81.562867 182.717762 
L 81.855561 182.098611 
L 82.174662 181.479459 
L 82.520728 180.860307 
L 82.893709 180.241156 
L 83.29296 179.622004 
L 83.717263 179.002853 
L 84.164875 178.383701 
L 84.633583 177.764549 
L 85.120766 177.145398 
L 85.623475 176.526246 
L 86.138505 175.907094 
L 86.662481 175.287943 
L 87.191934 174.668791 
L 87.723379 174.04964 
L 88.253388 173.430488 
L 88.77865 172.811336 
L 104.014428 172.811336 
L 104.014428 172.811336 
L 104.539691 173.430488 
L 105.0697 174.04964 
L 105.601145 174.668791 
L 106.130598 175.287943 
L 106.654574 175.907094 
L 107.169604 176.526246 
L 107.672312 177.145398 
L 108.159496 177.764549 
L 108.628203 178.383701 
L 109.075816 179.002853 
L 109.500119 179.622004 
L 109.899369 180.241156 
L 110.272351 180.860307 
L 110.618417 181.479459 
L 110.937518 182.098611 
L 111.230212 182.717762 
L 111.497657 183.336914 
L 111.741585 183.956065 
L 111.964258 184.575217 
L 112.168406 185.194369 
L 112.357148 185.81352 
L 112.533902 186.432672 
L 112.702285 187.051823 
L 112.866001 187.670975 
L 113.028735 188.290127 
L 113.194037 188.909278 
L 113.365217 189.52843 
L 113.54525 190.147581 
L 113.736691 190.766733 
L 113.9416 191.385885 
L 114.161497 192.005036 
L 114.397321 192.624188 
L 114.649422 193.24334 
L 114.917568 193.862491 
L 115.200969 194.481643 
L 115.498325 195.100794 
L 115.807884 195.719946 
L 116.127518 196.339098 
L 116.454804 196.958249 
L 116.787114 197.577401 
L 117.121706 198.196552 
L 117.455813 198.815704 
L 117.786725 199.434856 
L 118.111862 200.054007 
L 118.42884 200.673159 
L 118.735512 201.29231 
L 119.030002 201.911462 
L 119.310719 202.530614 
L 119.576349 203.149765 
L 119.825838 203.768917 
L 120.058353 204.388068 
L 120.273238 205.00722 
L 120.469949 205.626372 
L 120.647993 206.245523 
L 120.806859 206.864675 
L 120.945947 207.483827 
L 121.064515 208.102978 
L 121.161615 208.72213 
L 121.236061 209.341281 
L 121.286398 209.960433 
L 121.310899 210.579585 
L 121.30757 211.198736 
L 121.274186 211.817888 
L 121.208337 212.437039 
L 121.107496 213.056191 
L 120.969103 213.675343 
L 120.790656 214.294494 
L 120.569816 214.913646 
L 120.304513 215.532797 
L 119.993051 216.151949 
L 119.634212 216.771101 
L 119.227337 217.390252 
L 118.772409 218.009404 
L 118.270104 218.628555 
L 117.721829 219.247707 
L 117.129727 219.866859 
L 116.496668 220.48601 
L 115.826208 221.105162 
L 115.122526 221.724314 
L 114.390343 222.343465 
L 113.634815 222.962617 
L 112.861423 223.581768 
L 112.075846 224.20092 
L 111.283827 224.820072 
L 110.491049 225.439223 
L 109.703009 226.058375 
L 108.924901 226.677526 
L 108.161519 227.296678 
L 107.417168 227.91583 
L 106.695605 228.534981 
L 105.99999 229.154133 
L 105.332864 229.773284 
L 104.696149 230.392436 
L 104.09116 231.011588 
L 103.51864 231.630739 
L 102.978809 232.249891 
L 102.47142 232.869042 
L 101.995829 233.488194 
L 101.551063 234.107346 
z
" style="fill:#1f77b4;fill-opacity:0.3;"/>
   </g>
   <g id="PolyCollection_2">
    <path clip-path="url(#p5c8b934616)" d="M 204.940991 210.352244 
L 187.166963 210.352244 
L 186.521476 208.573477 
L 185.856247 206.794709 
L 185.173389 205.015942 
L 184.47529 203.237174 
L 183.764601 201.458407 
L 183.04422 199.679639 
L 182.317277 197.900872 
L 181.5871 196.122104 
L 180.857188 194.343337 
L 180.131173 192.564569 
L 179.412774 190.785802 
L 178.705757 189.007034 
L 178.013883 187.228266 
L 177.340855 185.449499 
L 176.690267 183.670731 
L 176.065551 181.891964 
L 175.469925 180.113196 
L 174.906346 178.334429 
L 174.377462 176.555661 
L 173.885574 174.776894 
L 173.4326 172.998126 
L 173.020048 171.219359 
L 172.648996 169.440591 
L 172.320079 167.661824 
L 172.033486 165.883056 
L 171.788963 164.104289 
L 171.585822 162.325521 
L 171.422965 160.546754 
L 171.298908 158.767986 
L 171.211814 156.989219 
L 171.159527 155.210451 
L 171.139618 153.431683 
L 171.149429 151.652916 
L 171.186119 149.874148 
L 171.246715 148.095381 
L 171.328158 146.316613 
L 171.427354 144.537846 
L 171.541219 142.759078 
L 171.666729 140.980311 
L 171.800959 139.201543 
L 171.941124 137.422776 
L 172.084617 135.644008 
L 172.229045 133.865241 
L 172.372252 132.086473 
L 172.512352 130.307706 
L 172.647747 128.528938 
L 172.777144 126.750171 
L 172.899568 124.971403 
L 173.014368 123.192635 
L 173.121221 121.413868 
L 173.220127 119.6351 
L 173.311402 117.856333 
L 173.395664 116.077565 
L 173.47381 114.298798 
L 173.546996 112.52003 
L 173.616602 110.741263 
L 173.684204 108.962495 
L 173.751526 107.183728 
L 173.820409 105.40496 
L 173.892758 103.626193 
L 173.970503 101.847425 
L 174.055548 100.068658 
L 174.149735 98.28989 
L 174.254794 96.511123 
L 174.37231 94.732355 
L 174.503689 92.953588 
L 174.650133 91.17482 
L 174.812616 89.396052 
L 174.991875 87.617285 
L 175.188403 85.838517 
L 175.402454 84.05975 
L 175.634053 82.280982 
L 175.883013 80.502215 
L 176.148959 78.723447 
L 176.431358 76.94468 
L 176.729552 75.165912 
L 177.042792 73.387145 
L 177.370274 71.608377 
L 177.711174 69.82961 
L 178.064679 68.050842 
L 178.430015 66.272075 
L 178.806471 64.493307 
L 179.193413 62.71454 
L 179.590294 60.935772 
L 179.996655 59.157005 
L 180.412123 57.378237 
L 180.836391 55.599469 
L 181.269207 53.820702 
L 181.710347 52.041934 
L 182.159588 50.263167 
L 182.616677 48.484399 
L 183.081303 46.705632 
L 183.553067 44.926864 
L 184.031455 43.148097 
L 184.515815 41.369329 
L 185.005342 39.590562 
L 185.499064 37.811794 
L 185.995841 36.033027 
L 186.494366 34.254259 
L 205.613589 34.254259 
L 205.613589 34.254259 
L 206.112114 36.033027 
L 206.608891 37.811794 
L 207.102613 39.590562 
L 207.592139 41.369329 
L 208.076499 43.148097 
L 208.554887 44.926864 
L 209.026651 46.705632 
L 209.491278 48.484399 
L 209.948367 50.263167 
L 210.397607 52.041934 
L 210.838748 53.820702 
L 211.271564 55.599469 
L 211.695832 57.378237 
L 212.111299 59.157005 
L 212.517661 60.935772 
L 212.914541 62.71454 
L 213.301483 64.493307 
L 213.677939 66.272075 
L 214.043276 68.050842 
L 214.39678 69.82961 
L 214.73768 71.608377 
L 215.065162 73.387145 
L 215.378402 75.165912 
L 215.676597 76.94468 
L 215.958996 78.723447 
L 216.224941 80.502215 
L 216.473901 82.280982 
L 216.7055 84.05975 
L 216.919552 85.838517 
L 217.11608 87.617285 
L 217.295339 89.396052 
L 217.457822 91.17482 
L 217.604265 92.953588 
L 217.735645 94.732355 
L 217.853161 96.511123 
L 217.958219 98.28989 
L 218.052406 100.068658 
L 218.137452 101.847425 
L 218.215196 103.626193 
L 218.287546 105.40496 
L 218.356428 107.183728 
L 218.423751 108.962495 
L 218.491352 110.741263 
L 218.560959 112.52003 
L 218.634144 114.298798 
L 218.712291 116.077565 
L 218.796552 117.856333 
L 218.887828 119.6351 
L 218.986734 121.413868 
L 219.093587 123.192635 
L 219.208386 124.971403 
L 219.33081 126.750171 
L 219.460207 128.528938 
L 219.595602 130.307706 
L 219.735703 132.086473 
L 219.87891 133.865241 
L 220.023337 135.644008 
L 220.166831 137.422776 
L 220.306996 139.201543 
L 220.441225 140.980311 
L 220.566735 142.759078 
L 220.680601 144.537846 
L 220.779796 146.316613 
L 220.861239 148.095381 
L 220.921835 149.874148 
L 220.958526 151.652916 
L 220.968337 153.431683 
L 220.948428 155.210451 
L 220.896141 156.989219 
L 220.809046 158.767986 
L 220.68499 160.546754 
L 220.522133 162.325521 
L 220.318992 164.104289 
L 220.074468 165.883056 
L 219.787875 167.661824 
L 219.458959 169.440591 
L 219.087907 171.219359 
L 218.675355 172.998126 
L 218.22238 174.776894 
L 217.730492 176.555661 
L 217.201608 178.334429 
L 216.638029 180.113196 
L 216.042404 181.891964 
L 215.417688 183.670731 
L 214.7671 185.449499 
L 214.094071 187.228266 
L 213.402197 189.007034 
L 212.695181 190.785802 
L 211.976782 192.564569 
L 211.250766 194.343337 
L 210.520854 196.122104 
L 209.790677 197.900872 
L 209.063734 199.679639 
L 208.343354 201.458407 
L 207.632664 203.237174 
L 206.934565 205.015942 
L 206.251708 206.794709 
L 205.586479 208.573477 
L 204.940991 210.352244 
z
" style="fill:#1f77b4;fill-opacity:0.3;"/>
   </g>
   <g id="PolyCollection_3">
    <path clip-path="url(#p5c8b934616)" d="M 300.877467 219.892405 
L 290.545364 219.892405 
L 290.134713 219.146208 
L 289.69873 218.400012 
L 289.234716 217.653816 
L 288.73985 216.90762 
L 288.211327 216.161423 
L 287.646517 215.415227 
L 287.043141 214.669031 
L 286.399466 213.922835 
L 285.714493 213.176638 
L 284.98814 212.430442 
L 284.221407 211.684246 
L 283.416511 210.93805 
L 282.576976 210.191853 
L 281.707681 209.445657 
L 280.814848 208.699461 
L 279.905975 207.953265 
L 278.989705 207.207068 
L 278.075649 206.460872 
L 277.17414 205.714676 
L 276.295966 204.968479 
L 275.452056 204.222283 
L 274.653162 203.476087 
L 273.909525 202.729891 
L 273.230567 201.983694 
L 272.624604 201.237498 
L 272.098594 200.491302 
L 271.65795 199.745106 
L 271.306392 198.998909 
L 271.045883 198.252713 
L 270.876612 197.506517 
L 270.797056 196.760321 
L 270.804084 196.014124 
L 270.893129 195.267928 
L 271.058386 194.521732 
L 271.29305 193.775536 
L 271.589571 193.029339 
L 271.939912 192.283143 
L 272.33581 191.536947 
L 272.769019 190.790751 
L 273.231532 190.044554 
L 273.715777 189.298358 
L 274.214774 188.552162 
L 274.722264 187.805966 
L 275.232793 187.059769 
L 275.741762 186.313573 
L 276.245443 185.567377 
L 276.740962 184.821181 
L 277.226254 184.074984 
L 277.699995 183.328788 
L 278.161514 182.582592 
L 278.610698 181.836396 
L 279.047887 181.090199 
L 279.473764 180.344003 
L 279.889259 179.597807 
L 280.295448 178.851611 
L 280.693476 178.105414 
L 281.084485 177.359218 
L 281.469562 176.613022 
L 281.849705 175.866826 
L 282.225797 175.120629 
L 282.598603 174.374433 
L 282.96877 173.628237 
L 283.336844 172.882041 
L 283.703281 172.135844 
L 284.06847 171.389648 
L 284.432742 170.643452 
L 284.796386 169.897256 
L 285.159648 169.151059 
L 285.522729 168.404863 
L 285.885768 167.658667 
L 286.248825 166.912471 
L 286.611854 166.166274 
L 286.974672 165.420078 
L 287.336939 164.673882 
L 287.698126 163.927686 
L 288.057505 163.181489 
L 288.414142 162.435293 
L 288.766902 161.689097 
L 289.114472 160.942901 
L 289.455395 160.196704 
L 289.788113 159.450508 
L 290.111031 158.704312 
L 290.422578 157.958116 
L 290.721277 157.211919 
L 291.005814 156.465723 
L 291.275104 155.719527 
L 291.528343 154.973331 
L 291.765056 154.227134 
L 291.985117 153.480938 
L 292.188769 152.734742 
L 292.376606 151.988545 
L 292.549555 151.242349 
L 292.708827 150.496153 
L 292.855869 149.749957 
L 292.992291 149.00376 
L 293.119796 148.257564 
L 293.240107 147.511368 
L 293.354888 146.765172 
L 293.465685 146.018975 
L 297.957146 146.018975 
L 297.957146 146.018975 
L 298.067943 146.765172 
L 298.182724 147.511368 
L 298.303034 148.257564 
L 298.430539 149.00376 
L 298.566961 149.749957 
L 298.714003 150.496153 
L 298.873276 151.242349 
L 299.046224 151.988545 
L 299.234062 152.734742 
L 299.437713 153.480938 
L 299.657775 154.227134 
L 299.894487 154.973331 
L 300.147727 155.719527 
L 300.417016 156.465723 
L 300.701554 157.211919 
L 301.000252 157.958116 
L 301.311799 158.704312 
L 301.634717 159.450508 
L 301.967436 160.196704 
L 302.308358 160.942901 
L 302.655929 161.689097 
L 303.008689 162.435293 
L 303.365326 163.181489 
L 303.724705 163.927686 
L 304.085892 164.673882 
L 304.448158 165.420078 
L 304.810977 166.166274 
L 305.174005 166.912471 
L 305.537062 167.658667 
L 305.900101 168.404863 
L 306.263182 169.151059 
L 306.626445 169.897256 
L 306.990089 170.643452 
L 307.354361 171.389648 
L 307.719549 172.135844 
L 308.085987 172.882041 
L 308.454061 173.628237 
L 308.824228 174.374433 
L 309.197033 175.120629 
L 309.573125 175.866826 
L 309.953268 176.613022 
L 310.338346 177.359218 
L 310.729355 178.105414 
L 311.127383 178.851611 
L 311.533572 179.597807 
L 311.949066 180.344003 
L 312.374944 181.090199 
L 312.812132 181.836396 
L 313.261317 182.582592 
L 313.722836 183.328788 
L 314.196576 184.074984 
L 314.681869 184.821181 
L 315.177388 185.567377 
L 315.681069 186.313573 
L 316.190038 187.059769 
L 316.700566 187.805966 
L 317.208056 188.552162 
L 317.707054 189.298358 
L 318.191298 190.044554 
L 318.653812 190.790751 
L 319.087021 191.536947 
L 319.482919 192.283143 
L 319.83326 193.029339 
L 320.12978 193.775536 
L 320.364445 194.521732 
L 320.529702 195.267928 
L 320.618746 196.014124 
L 320.625775 196.760321 
L 320.546218 197.506517 
L 320.376948 198.252713 
L 320.116438 198.998909 
L 319.764881 199.745106 
L 319.324236 200.491302 
L 318.798227 201.237498 
L 318.192263 201.983694 
L 317.513306 202.729891 
L 316.769669 203.476087 
L 315.970774 204.222283 
L 315.126865 204.968479 
L 314.248691 205.714676 
L 313.347182 206.460872 
L 312.433125 207.207068 
L 311.516856 207.953265 
L 310.607982 208.699461 
L 309.715149 209.445657 
L 308.845854 210.191853 
L 308.006319 210.93805 
L 307.201424 211.684246 
L 306.434691 212.430442 
L 305.708338 213.176638 
L 305.023364 213.922835 
L 304.37969 214.669031 
L 303.776314 215.415227 
L 303.211504 216.161423 
L 302.682981 216.90762 
L 302.188115 217.653816 
L 301.724101 218.400012 
L 301.288117 219.146208 
L 300.877467 219.892405 
z
" style="fill:#1f77b4;fill-opacity:0.3;"/>
   </g>
   <g id="matplotlib.axis_1">
    <g id="xtick_1">
     <g id="line2d_1">
      <defs>
       <path d="M 0 0 
L 0 3.5 
" id="m2deca98794" style="stroke:#000000;stroke-width:0.8;"/>
      </defs>
      <g>
       <use style="stroke:#000000;stroke-width:0.8;" x="96.396539" xlink:href="#m2deca98794" y="244.1"/>
      </g>
     </g>
     <g id="text_1">
      <!-- Our Method -->
      <g transform="translate(44.767438 264.397266)scale(0.175 -0.175)">
       <defs>
        <path d="M 39.40625 66.21875 
Q 28.65625 66.21875 22.328125 58.203125 
Q 16.015625 50.203125 16.015625 36.375 
Q 16.015625 22.609375 22.328125 14.59375 
Q 28.65625 6.59375 39.40625 6.59375 
Q 50.140625 6.59375 56.421875 14.59375 
Q 62.703125 22.609375 62.703125 36.375 
Q 62.703125 50.203125 56.421875 58.203125 
Q 50.140625 66.21875 39.40625 66.21875 
z
M 39.40625 74.21875 
Q 54.734375 74.21875 63.90625 63.9375 
Q 73.09375 53.65625 73.09375 36.375 
Q 73.09375 19.140625 63.90625 8.859375 
Q 54.734375 -1.421875 39.40625 -1.421875 
Q 24.03125 -1.421875 14.8125 8.828125 
Q 5.609375 19.09375 5.609375 36.375 
Q 5.609375 53.65625 14.8125 63.9375 
Q 24.03125 74.21875 39.40625 74.21875 
z
" id="DejaVuSans-79"/>
        <path d="M 8.5 21.578125 
L 8.5 54.6875 
L 17.484375 54.6875 
L 17.484375 21.921875 
Q 17.484375 14.15625 20.5 10.265625 
Q 23.53125 6.390625 29.59375 6.390625 
Q 36.859375 6.390625 41.078125 11.03125 
Q 45.3125 15.671875 45.3125 23.6875 
L 45.3125 54.6875 
L 54.296875 54.6875 
L 54.296875 0 
L 45.3125 0 
L 45.3125 8.40625 
Q 42.046875 3.421875 37.71875 1 
Q 33.40625 -1.421875 27.6875 -1.421875 
Q 18.265625 -1.421875 13.375 4.4375 
Q 8.5 10.296875 8.5 21.578125 
z
M 31.109375 56 
z
" id="DejaVuSans-117"/>
        <path d="M 41.109375 46.296875 
Q 39.59375 47.171875 37.8125 47.578125 
Q 36.03125 48 33.890625 48 
Q 26.265625 48 22.1875 43.046875 
Q 18.109375 38.09375 18.109375 28.8125 
L 18.109375 0 
L 9.078125 0 
L 9.078125 54.6875 
L 18.109375 54.6875 
L 18.109375 46.1875 
Q 20.953125 51.171875 25.484375 53.578125 
Q 30.03125 56 36.53125 56 
Q 37.453125 56 38.578125 55.875 
Q 39.703125 55.765625 41.0625 55.515625 
z
" id="DejaVuSans-114"/>
        <path id="DejaVuSans-32"/>
        <path d="M 9.8125 72.90625 
L 24.515625 72.90625 
L 43.109375 23.296875 
L 61.8125 72.90625 
L 76.515625 72.90625 
L 76.515625 0 
L 66.890625 0 
L 66.890625 64.015625 
L 48.09375 14.015625 
L 38.1875 14.015625 
L 19.390625 64.015625 
L 19.390625 0 
L 9.8125 0 
z
" id="DejaVuSans-77"/>
        <path d="M 56.203125 29.59375 
L 56.203125 25.203125 
L 14.890625 25.203125 
Q 15.484375 15.921875 20.484375 11.0625 
Q 25.484375 6.203125 34.421875 6.203125 
Q 39.59375 6.203125 44.453125 7.46875 
Q 49.3125 8.734375 54.109375 11.28125 
L 54.109375 2.78125 
Q 49.265625 0.734375 44.1875 -0.34375 
Q 39.109375 -1.421875 33.890625 -1.421875 
Q 20.796875 -1.421875 13.15625 6.1875 
Q 5.515625 13.8125 5.515625 26.8125 
Q 5.515625 40.234375 12.765625 48.109375 
Q 20.015625 56 32.328125 56 
Q 43.359375 56 49.78125 48.890625 
Q 56.203125 41.796875 56.203125 29.59375 
z
M 47.21875 32.234375 
Q 47.125 39.59375 43.09375 43.984375 
Q 39.0625 48.390625 32.421875 48.390625 
Q 24.90625 48.390625 20.390625 44.140625 
Q 15.875 39.890625 15.1875 32.171875 
z
" id="DejaVuSans-101"/>
        <path d="M 18.3125 70.21875 
L 18.3125 54.6875 
L 36.8125 54.6875 
L 36.8125 47.703125 
L 18.3125 47.703125 
L 18.3125 18.015625 
Q 18.3125 11.328125 20.140625 9.421875 
Q 21.96875 7.515625 27.59375 7.515625 
L 36.8125 7.515625 
L 36.8125 0 
L 27.59375 0 
Q 17.1875 0 13.234375 3.875 
Q 9.28125 7.765625 9.28125 18.015625 
L 9.28125 47.703125 
L 2.6875 47.703125 
L 2.6875 54.6875 
L 9.28125 54.6875 
L 9.28125 70.21875 
z
" id="DejaVuSans-116"/>
        <path d="M 54.890625 33.015625 
L 54.890625 0 
L 45.90625 0 
L 45.90625 32.71875 
Q 45.90625 40.484375 42.875 44.328125 
Q 39.84375 48.1875 33.796875 48.1875 
Q 26.515625 48.1875 22.3125 43.546875 
Q 18.109375 38.921875 18.109375 30.90625 
L 18.109375 0 
L 9.078125 0 
L 9.078125 75.984375 
L 18.109375 75.984375 
L 18.109375 46.1875 
Q 21.34375 51.125 25.703125 53.5625 
Q 30.078125 56 35.796875 56 
Q 45.21875 56 50.046875 50.171875 
Q 54.890625 44.34375 54.890625 33.015625 
z
" id="DejaVuSans-104"/>
        <path d="M 30.609375 48.390625 
Q 23.390625 48.390625 19.1875 42.75 
Q 14.984375 37.109375 14.984375 27.296875 
Q 14.984375 17.484375 19.15625 11.84375 
Q 23.34375 6.203125 30.609375 6.203125 
Q 37.796875 6.203125 41.984375 11.859375 
Q 46.1875 17.53125 46.1875 27.296875 
Q 46.1875 37.015625 41.984375 42.703125 
Q 37.796875 48.390625 30.609375 48.390625 
z
M 30.609375 56 
Q 42.328125 56 49.015625 48.375 
Q 55.71875 40.765625 55.71875 27.296875 
Q 55.71875 13.875 49.015625 6.21875 
Q 42.328125 -1.421875 30.609375 -1.421875 
Q 18.84375 -1.421875 12.171875 6.21875 
Q 5.515625 13.875 5.515625 27.296875 
Q 5.515625 40.765625 12.171875 48.375 
Q 18.84375 56 30.609375 56 
z
" id="DejaVuSans-111"/>
        <path d="M 45.40625 46.390625 
L 45.40625 75.984375 
L 54.390625 75.984375 
L 54.390625 0 
L 45.40625 0 
L 45.40625 8.203125 
Q 42.578125 3.328125 38.25 0.953125 
Q 33.9375 -1.421875 27.875 -1.421875 
Q 17.96875 -1.421875 11.734375 6.484375 
Q 5.515625 14.40625 5.515625 27.296875 
Q 5.515625 40.1875 11.734375 48.09375 
Q 17.96875 56 27.875 56 
Q 33.9375 56 38.25 53.625 
Q 42.578125 51.265625 45.40625 46.390625 
z
M 14.796875 27.296875 
Q 14.796875 17.390625 18.875 11.75 
Q 22.953125 6.109375 30.078125 6.109375 
Q 37.203125 6.109375 41.296875 11.75 
Q 45.40625 17.390625 45.40625 27.296875 
Q 45.40625 37.203125 41.296875 42.84375 
Q 37.203125 48.484375 30.078125 48.484375 
Q 22.953125 48.484375 18.875 42.84375 
Q 14.796875 37.203125 14.796875 27.296875 
z
" id="DejaVuSans-100"/>
       </defs>
       <use xlink:href="#DejaVuSans-79"/>
       <use x="78.710938" xlink:href="#DejaVuSans-117"/>
       <use x="142.089844" xlink:href="#DejaVuSans-114"/>
       <use x="183.203125" xlink:href="#DejaVuSans-32"/>
       <use x="214.990234" xlink:href="#DejaVuSans-77"/>
       <use x="301.269531" xlink:href="#DejaVuSans-101"/>
       <use x="362.792969" xlink:href="#DejaVuSans-116"/>
       <use x="402.001953" xlink:href="#DejaVuSans-104"/>
       <use x="465.380859" xlink:href="#DejaVuSans-111"/>
       <use x="526.5625" xlink:href="#DejaVuSans-100"/>
      </g>
     </g>
    </g>
    <g id="xtick_2">
     <g id="line2d_2">
      <g>
       <use style="stroke:#000000;stroke-width:0.8;" x="196.053977" xlink:href="#m2deca98794" y="244.1"/>
      </g>
     </g>
     <g id="text_2">
      <!-- Stein's -->
      <g transform="translate(166.745579 264.397266)scale(0.175 -0.175)">
       <defs>
        <path d="M 53.515625 70.515625 
L 53.515625 60.890625 
Q 47.90625 63.578125 42.921875 64.890625 
Q 37.9375 66.21875 33.296875 66.21875 
Q 25.25 66.21875 20.875 63.09375 
Q 16.5 59.96875 16.5 54.203125 
Q 16.5 49.359375 19.40625 46.890625 
Q 22.3125 44.4375 30.421875 42.921875 
L 36.375 41.703125 
Q 47.40625 39.59375 52.65625 34.296875 
Q 57.90625 29 57.90625 20.125 
Q 57.90625 9.515625 50.796875 4.046875 
Q 43.703125 -1.421875 29.984375 -1.421875 
Q 24.8125 -1.421875 18.96875 -0.25 
Q 13.140625 0.921875 6.890625 3.21875 
L 6.890625 13.375 
Q 12.890625 10.015625 18.65625 8.296875 
Q 24.421875 6.59375 29.984375 6.59375 
Q 38.421875 6.59375 43.015625 9.90625 
Q 47.609375 13.234375 47.609375 19.390625 
Q 47.609375 24.75 44.3125 27.78125 
Q 41.015625 30.8125 33.5 32.328125 
L 27.484375 33.5 
Q 16.453125 35.6875 11.515625 40.375 
Q 6.59375 45.0625 6.59375 53.421875 
Q 6.59375 63.09375 13.40625 68.65625 
Q 20.21875 74.21875 32.171875 74.21875 
Q 37.3125 74.21875 42.625 73.28125 
Q 47.953125 72.359375 53.515625 70.515625 
z
" id="DejaVuSans-83"/>
        <path d="M 9.421875 54.6875 
L 18.40625 54.6875 
L 18.40625 0 
L 9.421875 0 
z
M 9.421875 75.984375 
L 18.40625 75.984375 
L 18.40625 64.59375 
L 9.421875 64.59375 
z
" id="DejaVuSans-105"/>
        <path d="M 54.890625 33.015625 
L 54.890625 0 
L 45.90625 0 
L 45.90625 32.71875 
Q 45.90625 40.484375 42.875 44.328125 
Q 39.84375 48.1875 33.796875 48.1875 
Q 26.515625 48.1875 22.3125 43.546875 
Q 18.109375 38.921875 18.109375 30.90625 
L 18.109375 0 
L 9.078125 0 
L 9.078125 54.6875 
L 18.109375 54.6875 
L 18.109375 46.1875 
Q 21.34375 51.125 25.703125 53.5625 
Q 30.078125 56 35.796875 56 
Q 45.21875 56 50.046875 50.171875 
Q 54.890625 44.34375 54.890625 33.015625 
z
" id="DejaVuSans-110"/>
        <path d="M 17.921875 72.90625 
L 17.921875 45.796875 
L 9.625 45.796875 
L 9.625 72.90625 
z
" id="DejaVuSans-39"/>
        <path d="M 44.28125 53.078125 
L 44.28125 44.578125 
Q 40.484375 46.53125 36.375 47.5 
Q 32.28125 48.484375 27.875 48.484375 
Q 21.1875 48.484375 17.84375 46.4375 
Q 14.5 44.390625 14.5 40.28125 
Q 14.5 37.15625 16.890625 35.375 
Q 19.28125 33.59375 26.515625 31.984375 
L 29.59375 31.296875 
Q 39.15625 29.25 43.1875 25.515625 
Q 47.21875 21.78125 47.21875 15.09375 
Q 47.21875 7.46875 41.1875 3.015625 
Q 35.15625 -1.421875 24.609375 -1.421875 
Q 20.21875 -1.421875 15.453125 -0.5625 
Q 10.6875 0.296875 5.421875 2 
L 5.421875 11.28125 
Q 10.40625 8.6875 15.234375 7.390625 
Q 20.0625 6.109375 24.8125 6.109375 
Q 31.15625 6.109375 34.5625 8.28125 
Q 37.984375 10.453125 37.984375 14.40625 
Q 37.984375 18.0625 35.515625 20.015625 
Q 33.0625 21.96875 24.703125 23.78125 
L 21.578125 24.515625 
Q 13.234375 26.265625 9.515625 29.90625 
Q 5.8125 33.546875 5.8125 39.890625 
Q 5.8125 47.609375 11.28125 51.796875 
Q 16.75 56 26.8125 56 
Q 31.78125 56 36.171875 55.265625 
Q 40.578125 54.546875 44.28125 53.078125 
z
" id="DejaVuSans-115"/>
       </defs>
       <use xlink:href="#DejaVuSans-83"/>
       <use x="63.476562" xlink:href="#DejaVuSans-116"/>
       <use x="102.685547" xlink:href="#DejaVuSans-101"/>
       <use x="164.208984" xlink:href="#DejaVuSans-105"/>
       <use x="191.992188" xlink:href="#DejaVuSans-110"/>
       <use x="255.371094" xlink:href="#DejaVuSans-39"/>
       <use x="282.861328" xlink:href="#DejaVuSans-115"/>
      </g>
     </g>
    </g>
    <g id="xtick_3">
     <g id="line2d_3">
      <g>
       <use style="stroke:#000000;stroke-width:0.8;" x="295.711415" xlink:href="#m2deca98794" y="244.1"/>
      </g>
     </g>
     <g id="text_3">
      <!-- Entry-wise -->
      <g transform="translate(249.898329 264.397266)scale(0.175 -0.175)">
       <defs>
        <path d="M 9.8125 72.90625 
L 55.90625 72.90625 
L 55.90625 64.59375 
L 19.671875 64.59375 
L 19.671875 43.015625 
L 54.390625 43.015625 
L 54.390625 34.71875 
L 19.671875 34.71875 
L 19.671875 8.296875 
L 56.78125 8.296875 
L 56.78125 0 
L 9.8125 0 
z
" id="DejaVuSans-69"/>
        <path d="M 32.171875 -5.078125 
Q 28.375 -14.84375 24.75 -17.8125 
Q 21.140625 -20.796875 15.09375 -20.796875 
L 7.90625 -20.796875 
L 7.90625 -13.28125 
L 13.1875 -13.28125 
Q 16.890625 -13.28125 18.9375 -11.515625 
Q 21 -9.765625 23.484375 -3.21875 
L 25.09375 0.875 
L 2.984375 54.6875 
L 12.5 54.6875 
L 29.59375 11.921875 
L 46.6875 54.6875 
L 56.203125 54.6875 
z
" id="DejaVuSans-121"/>
        <path d="M 4.890625 31.390625 
L 31.203125 31.390625 
L 31.203125 23.390625 
L 4.890625 23.390625 
z
" id="DejaVuSans-45"/>
        <path d="M 4.203125 54.6875 
L 13.1875 54.6875 
L 24.421875 12.015625 
L 35.59375 54.6875 
L 46.1875 54.6875 
L 57.421875 12.015625 
L 68.609375 54.6875 
L 77.59375 54.6875 
L 63.28125 0 
L 52.6875 0 
L 40.921875 44.828125 
L 29.109375 0 
L 18.5 0 
z
" id="DejaVuSans-119"/>
       </defs>
       <use xlink:href="#DejaVuSans-69"/>
       <use x="63.183594" xlink:href="#DejaVuSans-110"/>
       <use x="126.5625" xlink:href="#DejaVuSans-116"/>
       <use x="165.771484" xlink:href="#DejaVuSans-114"/>
       <use x="206.884766" xlink:href="#DejaVuSans-121"/>
       <use x="264.314453" xlink:href="#DejaVuSans-45"/>
       <use x="300.398438" xlink:href="#DejaVuSans-119"/>
       <use x="382.185547" xlink:href="#DejaVuSans-105"/>
       <use x="409.96875" xlink:href="#DejaVuSans-115"/>
       <use x="462.068359" xlink:href="#DejaVuSans-101"/>
      </g>
     </g>
    </g>
   </g>
   <g id="matplotlib.axis_2">
    <g id="ytick_1">
     <g id="line2d_4">
      <defs>
       <path d="M 0 0 
L -3.5 0 
" id="m53ba0cceb8" style="stroke:#000000;stroke-width:0.8;"/>
      </defs>
      <g>
       <use style="stroke:#000000;stroke-width:0.8;" x="59.025" xlink:href="#m53ba0cceb8" y="240.43485"/>
      </g>
     </g>
     <g id="text_4">
      <!-- 0 -->
      <g transform="translate(40.890625 247.083482)scale(0.175 -0.175)">
       <defs>
        <path d="M 31.78125 66.40625 
Q 24.171875 66.40625 20.328125 58.90625 
Q 16.5 51.421875 16.5 36.375 
Q 16.5 21.390625 20.328125 13.890625 
Q 24.171875 6.390625 31.78125 6.390625 
Q 39.453125 6.390625 43.28125 13.890625 
Q 47.125 21.390625 47.125 36.375 
Q 47.125 51.421875 43.28125 58.90625 
Q 39.453125 66.40625 31.78125 66.40625 
z
M 31.78125 74.21875 
Q 44.046875 74.21875 50.515625 64.515625 
Q 56.984375 54.828125 56.984375 36.375 
Q 56.984375 17.96875 50.515625 8.265625 
Q 44.046875 -1.421875 31.78125 -1.421875 
Q 19.53125 -1.421875 13.0625 8.265625 
Q 6.59375 17.96875 6.59375 36.375 
Q 6.59375 54.828125 13.0625 64.515625 
Q 19.53125 74.21875 31.78125 74.21875 
z
" id="DejaVuSans-48"/>
       </defs>
       <use xlink:href="#DejaVuSans-48"/>
      </g>
     </g>
    </g>
    <g id="ytick_2">
     <g id="line2d_5">
      <g>
       <use style="stroke:#000000;stroke-width:0.8;" x="59.025" xlink:href="#m53ba0cceb8" y="197.531494"/>
      </g>
     </g>
     <g id="text_5">
      <!-- 1 -->
      <g transform="translate(40.890625 204.180127)scale(0.175 -0.175)">
       <defs>
        <path d="M 12.40625 8.296875 
L 28.515625 8.296875 
L 28.515625 63.921875 
L 10.984375 60.40625 
L 10.984375 69.390625 
L 28.421875 72.90625 
L 38.28125 72.90625 
L 38.28125 8.296875 
L 54.390625 8.296875 
L 54.390625 0 
L 12.40625 0 
z
" id="DejaVuSans-49"/>
       </defs>
       <use xlink:href="#DejaVuSans-49"/>
      </g>
     </g>
    </g>
    <g id="ytick_3">
     <g id="line2d_6">
      <g>
       <use style="stroke:#000000;stroke-width:0.8;" x="59.025" xlink:href="#m53ba0cceb8" y="154.628138"/>
      </g>
     </g>
     <g id="text_6">
      <!-- 2 -->
      <g transform="translate(40.890625 161.276771)scale(0.175 -0.175)">
       <defs>
        <path d="M 19.1875 8.296875 
L 53.609375 8.296875 
L 53.609375 0 
L 7.328125 0 
L 7.328125 8.296875 
Q 12.9375 14.109375 22.625 23.890625 
Q 32.328125 33.6875 34.8125 36.53125 
Q 39.546875 41.84375 41.421875 45.53125 
Q 43.3125 49.21875 43.3125 52.78125 
Q 43.3125 58.59375 39.234375 62.25 
Q 35.15625 65.921875 28.609375 65.921875 
Q 23.96875 65.921875 18.8125 64.3125 
Q 13.671875 62.703125 7.8125 59.421875 
L 7.8125 69.390625 
Q 13.765625 71.78125 18.9375 73 
Q 24.125 74.21875 28.421875 74.21875 
Q 39.75 74.21875 46.484375 68.546875 
Q 53.21875 62.890625 53.21875 53.421875 
Q 53.21875 48.921875 51.53125 44.890625 
Q 49.859375 40.875 45.40625 35.40625 
Q 44.1875 33.984375 37.640625 27.21875 
Q 31.109375 20.453125 19.1875 8.296875 
z
" id="DejaVuSans-50"/>
       </defs>
       <use xlink:href="#DejaVuSans-50"/>
      </g>
     </g>
    </g>
    <g id="ytick_4">
     <g id="line2d_7">
      <g>
       <use style="stroke:#000000;stroke-width:0.8;" x="59.025" xlink:href="#m53ba0cceb8" y="111.724783"/>
      </g>
     </g>
     <g id="text_7">
      <!-- 3 -->
      <g transform="translate(40.890625 118.373416)scale(0.175 -0.175)">
       <defs>
        <path d="M 40.578125 39.3125 
Q 47.65625 37.796875 51.625 33 
Q 55.609375 28.21875 55.609375 21.1875 
Q 55.609375 10.40625 48.1875 4.484375 
Q 40.765625 -1.421875 27.09375 -1.421875 
Q 22.515625 -1.421875 17.65625 -0.515625 
Q 12.796875 0.390625 7.625 2.203125 
L 7.625 11.71875 
Q 11.71875 9.328125 16.59375 8.109375 
Q 21.484375 6.890625 26.8125 6.890625 
Q 36.078125 6.890625 40.9375 10.546875 
Q 45.796875 14.203125 45.796875 21.1875 
Q 45.796875 27.640625 41.28125 31.265625 
Q 36.765625 34.90625 28.71875 34.90625 
L 20.21875 34.90625 
L 20.21875 43.015625 
L 29.109375 43.015625 
Q 36.375 43.015625 40.234375 45.921875 
Q 44.09375 48.828125 44.09375 54.296875 
Q 44.09375 59.90625 40.109375 62.90625 
Q 36.140625 65.921875 28.71875 65.921875 
Q 24.65625 65.921875 20.015625 65.03125 
Q 15.375 64.15625 9.8125 62.3125 
L 9.8125 71.09375 
Q 15.4375 72.65625 20.34375 73.4375 
Q 25.25 74.21875 29.59375 74.21875 
Q 40.828125 74.21875 47.359375 69.109375 
Q 53.90625 64.015625 53.90625 55.328125 
Q 53.90625 49.265625 50.4375 45.09375 
Q 46.96875 40.921875 40.578125 39.3125 
z
" id="DejaVuSans-51"/>
       </defs>
       <use xlink:href="#DejaVuSans-51"/>
      </g>
     </g>
    </g>
    <g id="ytick_5">
     <g id="line2d_8">
      <g>
       <use style="stroke:#000000;stroke-width:0.8;" x="59.025" xlink:href="#m53ba0cceb8" y="68.821427"/>
      </g>
     </g>
     <g id="text_8">
      <!-- 4 -->
      <g transform="translate(40.890625 75.47006)scale(0.175 -0.175)">
       <defs>
        <path d="M 37.796875 64.3125 
L 12.890625 25.390625 
L 37.796875 25.390625 
z
M 35.203125 72.90625 
L 47.609375 72.90625 
L 47.609375 25.390625 
L 58.015625 25.390625 
L 58.015625 17.1875 
L 47.609375 17.1875 
L 47.609375 0 
L 37.796875 0 
L 37.796875 17.1875 
L 4.890625 17.1875 
L 4.890625 26.703125 
z
" id="DejaVuSans-52"/>
       </defs>
       <use xlink:href="#DejaVuSans-52"/>
      </g>
     </g>
    </g>
    <g id="ytick_6">
     <g id="line2d_9">
      <g>
       <use style="stroke:#000000;stroke-width:0.8;" x="59.025" xlink:href="#m53ba0cceb8" y="25.918072"/>
      </g>
     </g>
     <g id="text_9">
      <!-- 5 -->
      <g transform="translate(40.890625 32.566705)scale(0.175 -0.175)">
       <defs>
        <path d="M 10.796875 72.90625 
L 49.515625 72.90625 
L 49.515625 64.59375 
L 19.828125 64.59375 
L 19.828125 46.734375 
Q 21.96875 47.46875 24.109375 47.828125 
Q 26.265625 48.1875 28.421875 48.1875 
Q 40.625 48.1875 47.75 41.5 
Q 54.890625 34.8125 54.890625 23.390625 
Q 54.890625 11.625 47.5625 5.09375 
Q 40.234375 -1.421875 26.90625 -1.421875 
Q 22.3125 -1.421875 17.546875 -0.640625 
Q 12.796875 0.140625 7.71875 1.703125 
L 7.71875 11.625 
Q 12.109375 9.234375 16.796875 8.0625 
Q 21.484375 6.890625 26.703125 6.890625 
Q 35.15625 6.890625 40.078125 11.328125 
Q 45.015625 15.765625 45.015625 23.390625 
Q 45.015625 31 40.078125 35.4375 
Q 35.15625 39.890625 26.703125 39.890625 
Q 22.75 39.890625 18.8125 39.015625 
Q 14.890625 38.140625 10.796875 36.28125 
z
" id="DejaVuSans-53"/>
       </defs>
       <use xlink:href="#DejaVuSans-53"/>
      </g>
     </g>
    </g>
    <g id="text_10">
     <!-- Estimation Error -->
     <g transform="translate(33.251172 204.879435)rotate(-90)scale(0.175 -0.175)">
      <defs>
       <path d="M 52 44.1875 
Q 55.375 50.25 60.0625 53.125 
Q 64.75 56 71.09375 56 
Q 79.640625 56 84.28125 50.015625 
Q 88.921875 44.046875 88.921875 33.015625 
L 88.921875 0 
L 79.890625 0 
L 79.890625 32.71875 
Q 79.890625 40.578125 77.09375 44.375 
Q 74.3125 48.1875 68.609375 48.1875 
Q 61.625 48.1875 57.5625 43.546875 
Q 53.515625 38.921875 53.515625 30.90625 
L 53.515625 0 
L 44.484375 0 
L 44.484375 32.71875 
Q 44.484375 40.625 41.703125 44.40625 
Q 38.921875 48.1875 33.109375 48.1875 
Q 26.21875 48.1875 22.15625 43.53125 
Q 18.109375 38.875 18.109375 30.90625 
L 18.109375 0 
L 9.078125 0 
L 9.078125 54.6875 
L 18.109375 54.6875 
L 18.109375 46.1875 
Q 21.1875 51.21875 25.484375 53.609375 
Q 29.78125 56 35.6875 56 
Q 41.65625 56 45.828125 52.96875 
Q 50 49.953125 52 44.1875 
z
" id="DejaVuSans-109"/>
       <path d="M 34.28125 27.484375 
Q 23.390625 27.484375 19.1875 25 
Q 14.984375 22.515625 14.984375 16.5 
Q 14.984375 11.71875 18.140625 8.90625 
Q 21.296875 6.109375 26.703125 6.109375 
Q 34.1875 6.109375 38.703125 11.40625 
Q 43.21875 16.703125 43.21875 25.484375 
L 43.21875 27.484375 
z
M 52.203125 31.203125 
L 52.203125 0 
L 43.21875 0 
L 43.21875 8.296875 
Q 40.140625 3.328125 35.546875 0.953125 
Q 30.953125 -1.421875 24.3125 -1.421875 
Q 15.921875 -1.421875 10.953125 3.296875 
Q 6 8.015625 6 15.921875 
Q 6 25.140625 12.171875 29.828125 
Q 18.359375 34.515625 30.609375 34.515625 
L 43.21875 34.515625 
L 43.21875 35.40625 
Q 43.21875 41.609375 39.140625 45 
Q 35.0625 48.390625 27.6875 48.390625 
Q 23 48.390625 18.546875 47.265625 
Q 14.109375 46.140625 10.015625 43.890625 
L 10.015625 52.203125 
Q 14.9375 54.109375 19.578125 55.046875 
Q 24.21875 56 28.609375 56 
Q 40.484375 56 46.34375 49.84375 
Q 52.203125 43.703125 52.203125 31.203125 
z
" id="DejaVuSans-97"/>
      </defs>
      <use xlink:href="#DejaVuSans-69"/>
      <use x="63.183594" xlink:href="#DejaVuSans-115"/>
      <use x="115.283203" xlink:href="#DejaVuSans-116"/>
      <use x="154.492188" xlink:href="#DejaVuSans-105"/>
      <use x="182.275391" xlink:href="#DejaVuSans-109"/>
      <use x="279.6875" xlink:href="#DejaVuSans-97"/>
      <use x="340.966797" xlink:href="#DejaVuSans-116"/>
      <use x="380.175781" xlink:href="#DejaVuSans-105"/>
      <use x="407.958984" xlink:href="#DejaVuSans-111"/>
      <use x="469.140625" xlink:href="#DejaVuSans-110"/>
      <use x="532.519531" xlink:href="#DejaVuSans-32"/>
      <use x="564.306641" xlink:href="#DejaVuSans-69"/>
      <use x="627.490234" xlink:href="#DejaVuSans-114"/>
      <use x="666.853516" xlink:href="#DejaVuSans-114"/>
      <use x="705.716797" xlink:href="#DejaVuSans-111"/>
      <use x="766.898438" xlink:href="#DejaVuSans-114"/>
     </g>
    </g>
   </g>
   <g id="LineCollection_1">
    <path clip-path="url(#p5c8b934616)" d="M 83.93936 172.811336 
L 108.853719 172.811336 
" style="fill:none;stroke:#1f77b4;stroke-width:1.5;"/>
    <path clip-path="url(#p5c8b934616)" d="M 183.596798 34.254259 
L 208.511157 34.254259 
" style="fill:none;stroke:#1f77b4;stroke-width:1.5;"/>
    <path clip-path="url(#p5c8b934616)" d="M 283.254236 146.018975 
L 308.168595 146.018975 
" style="fill:none;stroke:#1f77b4;stroke-width:1.5;"/>
   </g>
   <g id="LineCollection_2">
    <path clip-path="url(#p5c8b934616)" d="M 83.93936 234.107346 
L 108.853719 234.107346 
" style="fill:none;stroke:#1f77b4;stroke-width:1.5;"/>
    <path clip-path="url(#p5c8b934616)" d="M 183.596798 210.352244 
L 208.511157 210.352244 
" style="fill:none;stroke:#1f77b4;stroke-width:1.5;"/>
    <path clip-path="url(#p5c8b934616)" d="M 283.254236 219.892405 
L 308.168595 219.892405 
" style="fill:none;stroke:#1f77b4;stroke-width:1.5;"/>
   </g>
   <g id="LineCollection_3">
    <path clip-path="url(#p5c8b934616)" d="M 96.396539 234.107346 
L 96.396539 172.811336 
" style="fill:none;stroke:#1f77b4;stroke-width:1.5;"/>
    <path clip-path="url(#p5c8b934616)" d="M 196.053977 210.352244 
L 196.053977 34.254259 
" style="fill:none;stroke:#1f77b4;stroke-width:1.5;"/>
    <path clip-path="url(#p5c8b934616)" d="M 295.711415 219.892405 
L 295.711415 146.018975 
" style="fill:none;stroke:#1f77b4;stroke-width:1.5;"/>
   </g>
   <g id="patch_3">
    <path d="M 59.025 244.1 
L 59.025 24.261605 
" style="fill:none;stroke:#000000;stroke-linecap:square;stroke-linejoin:miter;stroke-width:0.8;"/>
   </g>
   <g id="patch_4">
    <path d="M 333.082955 244.1 
L 333.082955 24.261605 
" style="fill:none;stroke:#000000;stroke-linecap:square;stroke-linejoin:miter;stroke-width:0.8;"/>
   </g>
   <g id="patch_5">
    <path d="M 59.025 244.1 
L 333.082955 244.1 
" style="fill:none;stroke:#000000;stroke-linecap:square;stroke-linejoin:miter;stroke-width:0.8;"/>
   </g>
   <g id="patch_6">
    <path d="M 59.025 24.261605 
L 333.082955 24.261605 
" style="fill:none;stroke:#000000;stroke-linecap:square;stroke-linejoin:miter;stroke-width:0.8;"/>
   </g>
  </g>
 </g>
 <defs>
  <clipPath id="p5c8b934616">
   <rect height="219.838395" width="274.057955" x="59.025" y="24.261605"/>
  </clipPath>
 </defs>
</svg>
