<?xml version="1.0" encoding="utf-8" standalone="no"?>
<!DOCTYPE svg PUBLIC "-//W3C//DTD SVG 1.1//EN"
  "http://www.w3.org/Graphics/SVG/1.1/DTD/svg11.dtd">
<!-- Created with matplotlib (https://matplotlib.org/) -->
<svg height="288pt" version="1.1" viewBox="0 0 360 288" width="360pt" xmlns="http://www.w3.org/2000/svg" xmlns:xlink="http://www.w3.org/1999/xlink">
 <metadata>
  <rdf:RDF xmlns:cc="http://creativecommons.org/ns#" xmlns:dc="http://purl.org/dc/elements/1.1/" xmlns:rdf="http://www.w3.org/1999/02/22-rdf-syntax-ns#">
   <cc:Work>
    <dc:type rdf:resource="http://purl.org/dc/dcmitype/StillImage"/>
    <dc:date>2022-09-25T00:48:13.918890</dc:date>
    <dc:format>image/svg+xml</dc:format>
    <dc:creator>
     <cc:Agent>
      <dc:title>Matplotlib v3.3.4, https://matplotlib.org/</dc:title>
     </cc:Agent>
    </dc:creator>
   </cc:Work>
  </rdf:RDF>
 </metadata>
 <defs>
  <style type="text/css">*{stroke-linecap:butt;stroke-linejoin:round;}</style>
 </defs>
 <g id="figure_1">
  <g id="patch_1">
   <path d="M 0 288 
L 360 288 
L 360 0 
L 0 0 
z
" style="fill:none;"/>
  </g>
  <g id="axes_1">
   <g id="patch_2">
    <path d="M 59.025 244.1 
L 333.082955 244.1 
L 333.082955 18.9 
L 59.025 18.9 
z
" style="fill:#ffffff;"/>
   </g>
   <g id="PolyCollection_1">
    <path clip-path="url(#p5df5707761)" d="M 110.589044 233.863636 
L 82.204034 233.863636 
L 81.452757 233.481727 
L 80.707733 233.099817 
L 79.972482 232.717907 
L 79.250436 232.335997 
L 78.544914 231.954087 
L 77.859102 231.572177 
L 77.196031 231.190268 
L 76.558567 230.808358 
L 75.949406 230.426448 
L 75.371069 230.044538 
L 74.825902 229.662628 
L 74.316076 229.280718 
L 73.843594 228.898809 
L 73.410285 228.516899 
L 73.017807 228.134989 
L 72.667644 227.753079 
L 72.361089 227.371169 
L 72.099241 226.989259 
L 71.882975 226.60735 
L 71.712927 226.22544 
L 71.589461 225.84353 
L 71.512637 225.46162 
L 71.48218 225.07971 
L 71.497446 224.6978 
L 71.557391 224.31589 
L 71.660541 223.933981 
L 71.804973 223.552071 
L 71.988302 223.170161 
L 72.207674 222.788251 
L 72.459782 222.406341 
L 72.740879 222.024431 
L 73.046818 221.642522 
L 73.373098 221.260612 
L 73.714925 220.878702 
L 74.067284 220.496792 
L 74.425023 220.114882 
L 74.782944 219.732972 
L 75.135898 219.351063 
L 75.478884 218.969153 
L 75.80715 218.587243 
L 76.116287 218.205333 
L 76.40232 217.823423 
L 76.661784 217.441513 
L 76.891803 217.059604 
L 77.090136 216.677694 
L 77.255226 216.295784 
L 77.386222 215.913874 
L 77.48299 215.531964 
L 77.54611 215.150054 
L 77.57685 214.768145 
L 77.577137 214.386235 
L 77.549503 214.004325 
L 77.497034 213.622415 
L 77.423295 213.240505 
L 77.332263 212.858595 
L 77.228243 212.476686 
L 77.115788 212.094776 
L 76.999617 211.712866 
L 76.884533 211.330956 
L 76.775339 210.949046 
L 76.676766 210.567136 
L 76.593398 210.185227 
L 76.529601 209.803317 
L 76.489466 209.421407 
L 76.476748 209.039497 
L 76.494817 208.657587 
L 76.546611 208.275677 
L 76.634603 207.893768 
L 76.760769 207.511858 
L 76.92656 207.129948 
L 77.132894 206.748038 
L 77.380142 206.366128 
L 77.668129 205.984218 
L 77.996145 205.602309 
L 78.36296 205.220399 
L 78.766847 204.838489 
L 79.205621 204.456579 
L 79.676674 204.074669 
L 80.177028 203.692759 
L 80.703388 203.31085 
L 81.252203 202.92894 
L 81.81973 202.54703 
L 82.402103 202.16512 
L 82.9954 201.78321 
L 83.595711 201.4013 
L 84.199201 201.019391 
L 84.802176 200.637481 
L 85.401136 200.255571 
L 85.992822 199.873661 
L 86.574261 199.491751 
L 87.142795 199.109841 
L 87.696106 198.727932 
L 88.232226 198.346022 
L 88.749544 197.964112 
L 89.2468 197.582202 
L 89.723071 197.200292 
L 90.177752 196.818382 
L 90.610531 196.436473 
L 91.021354 196.054563 
L 101.771725 196.054563 
L 101.771725 196.054563 
L 102.182548 196.436473 
L 102.615326 196.818382 
L 103.070007 197.200292 
L 103.546279 197.582202 
L 104.043535 197.964112 
L 104.560853 198.346022 
L 105.096973 198.727932 
L 105.650284 199.109841 
L 106.218818 199.491751 
L 106.800257 199.873661 
L 107.391943 200.255571 
L 107.990902 200.637481 
L 108.593877 201.019391 
L 109.197368 201.4013 
L 109.797678 201.78321 
L 110.390975 202.16512 
L 110.973349 202.54703 
L 111.540876 202.92894 
L 112.089691 203.31085 
L 112.61605 203.692759 
L 113.116404 204.074669 
L 113.587457 204.456579 
L 114.026231 204.838489 
L 114.430119 205.220399 
L 114.796934 205.602309 
L 115.12495 205.984218 
L 115.412937 206.366128 
L 115.660184 206.748038 
L 115.866518 207.129948 
L 116.03231 207.511858 
L 116.158475 207.893768 
L 116.246468 208.275677 
L 116.298262 208.657587 
L 116.31633 209.039497 
L 116.303612 209.421407 
L 116.263478 209.803317 
L 116.199681 210.185227 
L 116.116312 210.567136 
L 116.017739 210.949046 
L 115.908546 211.330956 
L 115.793461 211.712866 
L 115.67729 212.094776 
L 115.564836 212.476686 
L 115.460815 212.858595 
L 115.369783 213.240505 
L 115.296045 213.622415 
L 115.243575 214.004325 
L 115.215942 214.386235 
L 115.216228 214.768145 
L 115.246968 215.150054 
L 115.310088 215.531964 
L 115.406856 215.913874 
L 115.537852 216.295784 
L 115.702942 216.677694 
L 115.901275 217.059604 
L 116.131294 217.441513 
L 116.390759 217.823423 
L 116.676791 218.205333 
L 116.985928 218.587243 
L 117.314194 218.969153 
L 117.65718 219.351063 
L 118.010134 219.732972 
L 118.368055 220.114882 
L 118.725795 220.496792 
L 119.078154 220.878702 
L 119.419981 221.260612 
L 119.746261 221.642522 
L 120.0522 222.024431 
L 120.333297 222.406341 
L 120.585404 222.788251 
L 120.804777 223.170161 
L 120.988105 223.552071 
L 121.132537 223.933981 
L 121.235687 224.31589 
L 121.295632 224.6978 
L 121.310899 225.07971 
L 121.280442 225.46162 
L 121.203618 225.84353 
L 121.080151 226.22544 
L 120.910103 226.60735 
L 120.693838 226.989259 
L 120.431989 227.371169 
L 120.125435 227.753079 
L 119.775271 228.134989 
L 119.382794 228.516899 
L 118.949485 228.898809 
L 118.477002 229.280718 
L 117.967177 229.662628 
L 117.422009 230.044538 
L 116.843672 230.426448 
L 116.234511 230.808358 
L 115.597048 231.190268 
L 114.933976 231.572177 
L 114.248164 231.954087 
L 113.542643 232.335997 
L 112.820597 232.717907 
L 112.085345 233.099817 
L 111.340322 233.481727 
L 110.589044 233.863636 
z
" style="fill:#1f77b4;fill-opacity:0.3;"/>
   </g>
   <g id="PolyCollection_2">
    <path clip-path="url(#p5df5707761)" d="M 201.526931 193.21645 
L 190.581024 193.21645 
L 190.21007 191.559076 
L 189.827294 189.901701 
L 189.431542 188.244327 
L 189.02136 186.586952 
L 188.595019 184.929577 
L 188.150577 183.272203 
L 187.685949 181.614828 
L 187.199002 179.957453 
L 186.687659 178.300079 
L 186.150022 176.642704 
L 185.584503 174.98533 
L 184.989957 173.327955 
L 184.365815 171.67058 
L 183.712206 170.013206 
L 183.030071 168.355831 
L 182.321254 166.698457 
L 181.588561 165.041082 
L 180.835796 163.383707 
L 180.067754 161.726333 
L 179.290178 160.068958 
L 178.509675 158.411583 
L 177.733587 156.754209 
L 176.969827 155.096834 
L 176.22668 153.43946 
L 175.512571 151.782085 
L 174.835817 150.12471 
L 174.204362 148.467336 
L 173.625511 146.809961 
L 173.105674 145.152587 
L 172.650128 143.495212 
L 172.262804 141.837837 
L 171.946128 140.180463 
L 171.700888 138.523088 
L 171.526179 136.865714 
L 171.419384 135.208339 
L 171.376233 133.550964 
L 171.390909 131.89359 
L 171.456218 130.236215 
L 171.563807 128.57884 
L 171.704422 126.921466 
L 171.868209 125.264091 
L 172.045027 123.606717 
L 172.224784 121.949342 
L 172.397765 120.291967 
L 172.554956 118.634593 
L 172.688337 116.977218 
L 172.791157 115.319844 
L 172.858155 113.662469 
L 172.885739 112.005094 
L 172.872115 110.34772 
L 172.817354 108.690345 
L 172.723402 107.03297 
L 172.594034 105.375596 
L 172.434747 103.718221 
L 172.252604 102.060847 
L 172.056024 100.403472 
L 171.854535 98.746097 
L 171.658489 97.088723 
L 171.478749 95.431348 
L 171.326363 93.773974 
L 171.212233 92.116599 
L 171.146777 90.459224 
L 171.139618 88.80185 
L 171.199286 87.144475 
L 171.33296 85.4871 
L 171.546252 83.829726 
L 171.843032 82.172351 
L 172.225314 80.514977 
L 172.6932 78.857602 
L 173.244883 77.200227 
L 173.876699 75.542853 
L 174.583253 73.885478 
L 175.357581 72.228104 
L 176.191362 70.570729 
L 177.075168 68.913354 
L 177.99874 67.25598 
L 178.951278 65.598605 
L 179.921745 63.941231 
L 180.899155 62.283856 
L 181.872861 60.626481 
L 182.83281 58.969107 
L 183.769773 57.311732 
L 184.675533 55.654357 
L 185.543037 53.996983 
L 186.366501 52.339608 
L 187.141467 50.682234 
L 187.864821 49.024859 
L 188.534765 47.367484 
L 189.150748 45.71011 
L 189.713368 44.052735 
L 190.224243 42.395361 
L 190.68586 40.737986 
L 191.101414 39.080611 
L 191.474629 37.423237 
L 191.809593 35.765862 
L 192.110585 34.108487 
L 192.381918 32.451113 
L 192.627804 30.793738 
L 192.852226 29.136364 
L 199.255728 29.136364 
L 199.255728 29.136364 
L 199.480151 30.793738 
L 199.726036 32.451113 
L 199.99737 34.108487 
L 200.298361 35.765862 
L 200.633325 37.423237 
L 201.006541 39.080611 
L 201.422094 40.737986 
L 201.883712 42.395361 
L 202.394587 44.052735 
L 202.957207 45.71011 
L 203.57319 47.367484 
L 204.243134 49.024859 
L 204.966488 50.682234 
L 205.741454 52.339608 
L 206.564917 53.996983 
L 207.432422 55.654357 
L 208.338182 57.311732 
L 209.275144 58.969107 
L 210.235094 60.626481 
L 211.2088 62.283856 
L 212.18621 63.941231 
L 213.156676 65.598605 
L 214.109215 67.25598 
L 215.032786 68.913354 
L 215.916593 70.570729 
L 216.750373 72.228104 
L 217.524701 73.885478 
L 218.231255 75.542853 
L 218.863072 77.200227 
L 219.414754 78.857602 
L 219.882641 80.514977 
L 220.264923 82.172351 
L 220.561702 83.829726 
L 220.774994 85.4871 
L 220.908669 87.144475 
L 220.968337 88.80185 
L 220.961177 90.459224 
L 220.895721 92.116599 
L 220.781591 93.773974 
L 220.629206 95.431348 
L 220.449466 97.088723 
L 220.253419 98.746097 
L 220.051931 100.403472 
L 219.855351 102.060847 
L 219.673208 103.718221 
L 219.513921 105.375596 
L 219.384553 107.03297 
L 219.2906 108.690345 
L 219.235839 110.34772 
L 219.222215 112.005094 
L 219.249799 113.662469 
L 219.316797 115.319844 
L 219.419617 116.977218 
L 219.552999 118.634593 
L 219.710189 120.291967 
L 219.88317 121.949342 
L 220.062927 123.606717 
L 220.239746 125.264091 
L 220.403532 126.921466 
L 220.544148 128.57884 
L 220.651736 130.236215 
L 220.717045 131.89359 
L 220.731721 133.550964 
L 220.68857 135.208339 
L 220.581775 136.865714 
L 220.407066 138.523088 
L 220.161827 140.180463 
L 219.84515 141.837837 
L 219.457827 143.495212 
L 219.00228 145.152587 
L 218.482444 146.809961 
L 217.903593 148.467336 
L 217.272138 150.12471 
L 216.595384 151.782085 
L 215.881275 153.43946 
L 215.138127 155.096834 
L 214.374367 156.754209 
L 213.598279 158.411583 
L 212.817776 160.068958 
L 212.040201 161.726333 
L 211.272159 163.383707 
L 210.519393 165.041082 
L 209.7867 166.698457 
L 209.077883 168.355831 
L 208.395749 170.013206 
L 207.74214 171.67058 
L 207.117997 173.327955 
L 206.523451 174.98533 
L 205.957933 176.642704 
L 205.420296 178.300079 
L 204.908952 179.957453 
L 204.422005 181.614828 
L 203.957378 183.272203 
L 203.512936 184.929577 
L 203.086595 186.586952 
L 202.676412 188.244327 
L 202.280661 189.901701 
L 201.897884 191.559076 
L 201.526931 193.21645 
z
" style="fill:#1f77b4;fill-opacity:0.3;"/>
   </g>
   <g id="PolyCollection_3">
    <path clip-path="url(#p5df5707761)" d="M 304.231262 224.952946 
L 287.191568 224.952946 
L 286.534222 224.469413 
L 285.855745 223.985879 
L 285.158501 223.502346 
L 284.445119 223.018813 
L 283.718469 222.535279 
L 282.981635 222.051746 
L 282.237879 221.568213 
L 281.490607 221.084679 
L 280.74333 220.601146 
L 279.999628 220.117613 
L 279.263107 219.634079 
L 278.537368 219.150546 
L 277.825974 218.667013 
L 277.132413 218.183479 
L 276.460084 217.699946 
L 275.812268 217.216413 
L 275.192115 216.732879 
L 274.602634 216.249346 
L 274.046684 215.765813 
L 273.52697 215.282279 
L 273.046038 214.798746 
L 272.606273 214.315213 
L 272.209896 213.831679 
L 271.858954 213.348146 
L 271.555314 212.864612 
L 271.300648 212.381079 
L 271.096411 211.897546 
L 270.943819 211.414012 
L 270.843818 210.930479 
L 270.797056 210.446946 
L 270.80384 209.963412 
L 270.864108 209.479879 
L 270.977386 208.996346 
L 271.142761 208.512812 
L 271.35885 208.029279 
L 271.623783 207.545746 
L 271.935191 207.062212 
L 272.29021 206.578679 
L 272.685489 206.095146 
L 273.117223 205.611612 
L 273.581186 205.128079 
L 274.072791 204.644546 
L 274.587149 204.161012 
L 275.119148 203.677479 
L 275.663536 203.193946 
L 276.215012 202.710412 
L 276.768316 202.226879 
L 277.318328 201.743346 
L 277.860157 201.259812 
L 278.389226 200.776279 
L 278.901357 200.292746 
L 279.392834 199.809212 
L 279.860464 199.325679 
L 280.301623 198.842145 
L 280.714282 198.358612 
L 281.097025 197.875079 
L 281.449052 197.391545 
L 281.770163 196.908012 
L 282.060734 196.424479 
L 282.32168 195.940945 
L 282.554402 195.457412 
L 282.760736 194.973879 
L 282.942885 194.490345 
L 283.103351 194.006812 
L 283.244865 193.523279 
L 283.370313 193.039745 
L 283.482668 192.556212 
L 283.584918 192.072679 
L 283.680007 191.589145 
L 283.770772 191.105612 
L 283.859898 190.622079 
L 283.949875 190.138545 
L 284.04296 189.655012 
L 284.141156 189.171479 
L 284.246198 188.687945 
L 284.359539 188.204412 
L 284.482358 187.720879 
L 284.615566 187.237345 
L 284.759819 186.753812 
L 284.915542 186.270279 
L 285.082948 185.786745 
L 285.262067 185.303212 
L 285.452776 184.819678 
L 285.65482 184.336145 
L 285.867846 183.852612 
L 286.091417 183.369078 
L 286.325042 182.885545 
L 286.568185 182.402012 
L 286.82028 181.918478 
L 287.08074 181.434945 
L 287.348958 180.951412 
L 287.624309 180.467878 
L 287.906145 179.984345 
L 288.193792 179.500812 
L 288.486541 179.017278 
L 288.783645 178.533745 
L 289.084306 178.050212 
L 289.387676 177.566678 
L 289.692848 177.083145 
L 301.729983 177.083145 
L 301.729983 177.083145 
L 302.035155 177.566678 
L 302.338524 178.050212 
L 302.639185 178.533745 
L 302.936289 179.017278 
L 303.229039 179.500812 
L 303.516686 179.984345 
L 303.798522 180.467878 
L 304.073872 180.951412 
L 304.34209 181.434945 
L 304.60255 181.918478 
L 304.854646 182.402012 
L 305.097789 182.885545 
L 305.331413 183.369078 
L 305.554985 183.852612 
L 305.76801 184.336145 
L 305.970055 184.819678 
L 306.160763 185.303212 
L 306.339883 185.786745 
L 306.507289 186.270279 
L 306.663011 186.753812 
L 306.807265 187.237345 
L 306.940473 187.720879 
L 307.063292 188.204412 
L 307.176633 188.687945 
L 307.281674 189.171479 
L 307.379871 189.655012 
L 307.472956 190.138545 
L 307.562932 190.622079 
L 307.652059 191.105612 
L 307.742824 191.589145 
L 307.837912 192.072679 
L 307.940162 192.556212 
L 308.052517 193.039745 
L 308.177966 193.523279 
L 308.31948 194.006812 
L 308.479946 194.490345 
L 308.662094 194.973879 
L 308.868429 195.457412 
L 309.101151 195.940945 
L 309.362096 196.424479 
L 309.652668 196.908012 
L 309.973779 197.391545 
L 310.325806 197.875079 
L 310.708549 198.358612 
L 311.121207 198.842145 
L 311.562366 199.325679 
L 312.029997 199.809212 
L 312.521474 200.292746 
L 313.033605 200.776279 
L 313.562674 201.259812 
L 314.104502 201.743346 
L 314.654514 202.226879 
L 315.207819 202.710412 
L 315.759294 203.193946 
L 316.303683 203.677479 
L 316.835682 204.161012 
L 317.35004 204.644546 
L 317.841645 205.128079 
L 318.305608 205.611612 
L 318.737341 206.095146 
L 319.132621 206.578679 
L 319.487639 207.062212 
L 319.799048 207.545746 
L 320.063981 208.029279 
L 320.28007 208.512812 
L 320.445444 208.996346 
L 320.558722 209.479879 
L 320.61899 209.963412 
L 320.625775 210.446946 
L 320.579012 210.930479 
L 320.479012 211.414012 
L 320.326419 211.897546 
L 320.122182 212.381079 
L 319.867516 212.864612 
L 319.563877 213.348146 
L 319.212935 213.831679 
L 318.816557 214.315213 
L 318.376792 214.798746 
L 317.89586 215.282279 
L 317.376146 215.765813 
L 316.820197 216.249346 
L 316.230716 216.732879 
L 315.610563 217.216413 
L 314.962746 217.699946 
L 314.290417 218.183479 
L 313.596857 218.667013 
L 312.885462 219.150546 
L 312.159724 219.634079 
L 311.423203 220.117613 
L 310.6795 220.601146 
L 309.932224 221.084679 
L 309.184952 221.568213 
L 308.441196 222.051746 
L 307.704361 222.535279 
L 306.977712 223.018813 
L 306.26433 223.502346 
L 305.567085 223.985879 
L 304.888609 224.469413 
L 304.231262 224.952946 
z
" style="fill:#1f77b4;fill-opacity:0.3;"/>
   </g>
   <g id="matplotlib.axis_1">
    <g id="xtick_1">
     <g id="line2d_1">
      <defs>
       <path d="M 0 0 
L 0 3.5 
" id="m1c46222a62" style="stroke:#000000;stroke-width:0.8;"/>
      </defs>
      <g>
       <use style="stroke:#000000;stroke-width:0.8;" x="96.396539" xlink:href="#m1c46222a62" y="244.1"/>
      </g>
     </g>
     <g id="text_1">
      <!-- Our Method -->
      <g transform="translate(44.767438 264.397266)scale(0.175 -0.175)">
       <defs>
        <path d="M 39.40625 66.21875 
Q 28.65625 66.21875 22.328125 58.203125 
Q 16.015625 50.203125 16.015625 36.375 
Q 16.015625 22.609375 22.328125 14.59375 
Q 28.65625 6.59375 39.40625 6.59375 
Q 50.140625 6.59375 56.421875 14.59375 
Q 62.703125 22.609375 62.703125 36.375 
Q 62.703125 50.203125 56.421875 58.203125 
Q 50.140625 66.21875 39.40625 66.21875 
z
M 39.40625 74.21875 
Q 54.734375 74.21875 63.90625 63.9375 
Q 73.09375 53.65625 73.09375 36.375 
Q 73.09375 19.140625 63.90625 8.859375 
Q 54.734375 -1.421875 39.40625 -1.421875 
Q 24.03125 -1.421875 14.8125 8.828125 
Q 5.609375 19.09375 5.609375 36.375 
Q 5.609375 53.65625 14.8125 63.9375 
Q 24.03125 74.21875 39.40625 74.21875 
z
" id="DejaVuSans-79"/>
        <path d="M 8.5 21.578125 
L 8.5 54.6875 
L 17.484375 54.6875 
L 17.484375 21.921875 
Q 17.484375 14.15625 20.5 10.265625 
Q 23.53125 6.390625 29.59375 6.390625 
Q 36.859375 6.390625 41.078125 11.03125 
Q 45.3125 15.671875 45.3125 23.6875 
L 45.3125 54.6875 
L 54.296875 54.6875 
L 54.296875 0 
L 45.3125 0 
L 45.3125 8.40625 
Q 42.046875 3.421875 37.71875 1 
Q 33.40625 -1.421875 27.6875 -1.421875 
Q 18.265625 -1.421875 13.375 4.4375 
Q 8.5 10.296875 8.5 21.578125 
z
M 31.109375 56 
z
" id="DejaVuSans-117"/>
        <path d="M 41.109375 46.296875 
Q 39.59375 47.171875 37.8125 47.578125 
Q 36.03125 48 33.890625 48 
Q 26.265625 48 22.1875 43.046875 
Q 18.109375 38.09375 18.109375 28.8125 
L 18.109375 0 
L 9.078125 0 
L 9.078125 54.6875 
L 18.109375 54.6875 
L 18.109375 46.1875 
Q 20.953125 51.171875 25.484375 53.578125 
Q 30.03125 56 36.53125 56 
Q 37.453125 56 38.578125 55.875 
Q 39.703125 55.765625 41.0625 55.515625 
z
" id="DejaVuSans-114"/>
        <path id="DejaVuSans-32"/>
        <path d="M 9.8125 72.90625 
L 24.515625 72.90625 
L 43.109375 23.296875 
L 61.8125 72.90625 
L 76.515625 72.90625 
L 76.515625 0 
L 66.890625 0 
L 66.890625 64.015625 
L 48.09375 14.015625 
L 38.1875 14.015625 
L 19.390625 64.015625 
L 19.390625 0 
L 9.8125 0 
z
" id="DejaVuSans-77"/>
        <path d="M 56.203125 29.59375 
L 56.203125 25.203125 
L 14.890625 25.203125 
Q 15.484375 15.921875 20.484375 11.0625 
Q 25.484375 6.203125 34.421875 6.203125 
Q 39.59375 6.203125 44.453125 7.46875 
Q 49.3125 8.734375 54.109375 11.28125 
L 54.109375 2.78125 
Q 49.265625 0.734375 44.1875 -0.34375 
Q 39.109375 -1.421875 33.890625 -1.421875 
Q 20.796875 -1.421875 13.15625 6.1875 
Q 5.515625 13.8125 5.515625 26.8125 
Q 5.515625 40.234375 12.765625 48.109375 
Q 20.015625 56 32.328125 56 
Q 43.359375 56 49.78125 48.890625 
Q 56.203125 41.796875 56.203125 29.59375 
z
M 47.21875 32.234375 
Q 47.125 39.59375 43.09375 43.984375 
Q 39.0625 48.390625 32.421875 48.390625 
Q 24.90625 48.390625 20.390625 44.140625 
Q 15.875 39.890625 15.1875 32.171875 
z
" id="DejaVuSans-101"/>
        <path d="M 18.3125 70.21875 
L 18.3125 54.6875 
L 36.8125 54.6875 
L 36.8125 47.703125 
L 18.3125 47.703125 
L 18.3125 18.015625 
Q 18.3125 11.328125 20.140625 9.421875 
Q 21.96875 7.515625 27.59375 7.515625 
L 36.8125 7.515625 
L 36.8125 0 
L 27.59375 0 
Q 17.1875 0 13.234375 3.875 
Q 9.28125 7.765625 9.28125 18.015625 
L 9.28125 47.703125 
L 2.6875 47.703125 
L 2.6875 54.6875 
L 9.28125 54.6875 
L 9.28125 70.21875 
z
" id="DejaVuSans-116"/>
        <path d="M 54.890625 33.015625 
L 54.890625 0 
L 45.90625 0 
L 45.90625 32.71875 
Q 45.90625 40.484375 42.875 44.328125 
Q 39.84375 48.1875 33.796875 48.1875 
Q 26.515625 48.1875 22.3125 43.546875 
Q 18.109375 38.921875 18.109375 30.90625 
L 18.109375 0 
L 9.078125 0 
L 9.078125 75.984375 
L 18.109375 75.984375 
L 18.109375 46.1875 
Q 21.34375 51.125 25.703125 53.5625 
Q 30.078125 56 35.796875 56 
Q 45.21875 56 50.046875 50.171875 
Q 54.890625 44.34375 54.890625 33.015625 
z
" id="DejaVuSans-104"/>
        <path d="M 30.609375 48.390625 
Q 23.390625 48.390625 19.1875 42.75 
Q 14.984375 37.109375 14.984375 27.296875 
Q 14.984375 17.484375 19.15625 11.84375 
Q 23.34375 6.203125 30.609375 6.203125 
Q 37.796875 6.203125 41.984375 11.859375 
Q 46.1875 17.53125 46.1875 27.296875 
Q 46.1875 37.015625 41.984375 42.703125 
Q 37.796875 48.390625 30.609375 48.390625 
z
M 30.609375 56 
Q 42.328125 56 49.015625 48.375 
Q 55.71875 40.765625 55.71875 27.296875 
Q 55.71875 13.875 49.015625 6.21875 
Q 42.328125 -1.421875 30.609375 -1.421875 
Q 18.84375 -1.421875 12.171875 6.21875 
Q 5.515625 13.875 5.515625 27.296875 
Q 5.515625 40.765625 12.171875 48.375 
Q 18.84375 56 30.609375 56 
z
" id="DejaVuSans-111"/>
        <path d="M 45.40625 46.390625 
L 45.40625 75.984375 
L 54.390625 75.984375 
L 54.390625 0 
L 45.40625 0 
L 45.40625 8.203125 
Q 42.578125 3.328125 38.25 0.953125 
Q 33.9375 -1.421875 27.875 -1.421875 
Q 17.96875 -1.421875 11.734375 6.484375 
Q 5.515625 14.40625 5.515625 27.296875 
Q 5.515625 40.1875 11.734375 48.09375 
Q 17.96875 56 27.875 56 
Q 33.9375 56 38.25 53.625 
Q 42.578125 51.265625 45.40625 46.390625 
z
M 14.796875 27.296875 
Q 14.796875 17.390625 18.875 11.75 
Q 22.953125 6.109375 30.078125 6.109375 
Q 37.203125 6.109375 41.296875 11.75 
Q 45.40625 17.390625 45.40625 27.296875 
Q 45.40625 37.203125 41.296875 42.84375 
Q 37.203125 48.484375 30.078125 48.484375 
Q 22.953125 48.484375 18.875 42.84375 
Q 14.796875 37.203125 14.796875 27.296875 
z
" id="DejaVuSans-100"/>
       </defs>
       <use xlink:href="#DejaVuSans-79"/>
       <use x="78.710938" xlink:href="#DejaVuSans-117"/>
       <use x="142.089844" xlink:href="#DejaVuSans-114"/>
       <use x="183.203125" xlink:href="#DejaVuSans-32"/>
       <use x="214.990234" xlink:href="#DejaVuSans-77"/>
       <use x="301.269531" xlink:href="#DejaVuSans-101"/>
       <use x="362.792969" xlink:href="#DejaVuSans-116"/>
       <use x="402.001953" xlink:href="#DejaVuSans-104"/>
       <use x="465.380859" xlink:href="#DejaVuSans-111"/>
       <use x="526.5625" xlink:href="#DejaVuSans-100"/>
      </g>
     </g>
    </g>
    <g id="xtick_2">
     <g id="line2d_2">
      <g>
       <use style="stroke:#000000;stroke-width:0.8;" x="196.053977" xlink:href="#m1c46222a62" y="244.1"/>
      </g>
     </g>
     <g id="text_2">
      <!-- Stein's -->
      <g transform="translate(166.745579 264.397266)scale(0.175 -0.175)">
       <defs>
        <path d="M 53.515625 70.515625 
L 53.515625 60.890625 
Q 47.90625 63.578125 42.921875 64.890625 
Q 37.9375 66.21875 33.296875 66.21875 
Q 25.25 66.21875 20.875 63.09375 
Q 16.5 59.96875 16.5 54.203125 
Q 16.5 49.359375 19.40625 46.890625 
Q 22.3125 44.4375 30.421875 42.921875 
L 36.375 41.703125 
Q 47.40625 39.59375 52.65625 34.296875 
Q 57.90625 29 57.90625 20.125 
Q 57.90625 9.515625 50.796875 4.046875 
Q 43.703125 -1.421875 29.984375 -1.421875 
Q 24.8125 -1.421875 18.96875 -0.25 
Q 13.140625 0.921875 6.890625 3.21875 
L 6.890625 13.375 
Q 12.890625 10.015625 18.65625 8.296875 
Q 24.421875 6.59375 29.984375 6.59375 
Q 38.421875 6.59375 43.015625 9.90625 
Q 47.609375 13.234375 47.609375 19.390625 
Q 47.609375 24.75 44.3125 27.78125 
Q 41.015625 30.8125 33.5 32.328125 
L 27.484375 33.5 
Q 16.453125 35.6875 11.515625 40.375 
Q 6.59375 45.0625 6.59375 53.421875 
Q 6.59375 63.09375 13.40625 68.65625 
Q 20.21875 74.21875 32.171875 74.21875 
Q 37.3125 74.21875 42.625 73.28125 
Q 47.953125 72.359375 53.515625 70.515625 
z
" id="DejaVuSans-83"/>
        <path d="M 9.421875 54.6875 
L 18.40625 54.6875 
L 18.40625 0 
L 9.421875 0 
z
M 9.421875 75.984375 
L 18.40625 75.984375 
L 18.40625 64.59375 
L 9.421875 64.59375 
z
" id="DejaVuSans-105"/>
        <path d="M 54.890625 33.015625 
L 54.890625 0 
L 45.90625 0 
L 45.90625 32.71875 
Q 45.90625 40.484375 42.875 44.328125 
Q 39.84375 48.1875 33.796875 48.1875 
Q 26.515625 48.1875 22.3125 43.546875 
Q 18.109375 38.921875 18.109375 30.90625 
L 18.109375 0 
L 9.078125 0 
L 9.078125 54.6875 
L 18.109375 54.6875 
L 18.109375 46.1875 
Q 21.34375 51.125 25.703125 53.5625 
Q 30.078125 56 35.796875 56 
Q 45.21875 56 50.046875 50.171875 
Q 54.890625 44.34375 54.890625 33.015625 
z
" id="DejaVuSans-110"/>
        <path d="M 17.921875 72.90625 
L 17.921875 45.796875 
L 9.625 45.796875 
L 9.625 72.90625 
z
" id="DejaVuSans-39"/>
        <path d="M 44.28125 53.078125 
L 44.28125 44.578125 
Q 40.484375 46.53125 36.375 47.5 
Q 32.28125 48.484375 27.875 48.484375 
Q 21.1875 48.484375 17.84375 46.4375 
Q 14.5 44.390625 14.5 40.28125 
Q 14.5 37.15625 16.890625 35.375 
Q 19.28125 33.59375 26.515625 31.984375 
L 29.59375 31.296875 
Q 39.15625 29.25 43.1875 25.515625 
Q 47.21875 21.78125 47.21875 15.09375 
Q 47.21875 7.46875 41.1875 3.015625 
Q 35.15625 -1.421875 24.609375 -1.421875 
Q 20.21875 -1.421875 15.453125 -0.5625 
Q 10.6875 0.296875 5.421875 2 
L 5.421875 11.28125 
Q 10.40625 8.6875 15.234375 7.390625 
Q 20.0625 6.109375 24.8125 6.109375 
Q 31.15625 6.109375 34.5625 8.28125 
Q 37.984375 10.453125 37.984375 14.40625 
Q 37.984375 18.0625 35.515625 20.015625 
Q 33.0625 21.96875 24.703125 23.78125 
L 21.578125 24.515625 
Q 13.234375 26.265625 9.515625 29.90625 
Q 5.8125 33.546875 5.8125 39.890625 
Q 5.8125 47.609375 11.28125 51.796875 
Q 16.75 56 26.8125 56 
Q 31.78125 56 36.171875 55.265625 
Q 40.578125 54.546875 44.28125 53.078125 
z
" id="DejaVuSans-115"/>
       </defs>
       <use xlink:href="#DejaVuSans-83"/>
       <use x="63.476562" xlink:href="#DejaVuSans-116"/>
       <use x="102.685547" xlink:href="#DejaVuSans-101"/>
       <use x="164.208984" xlink:href="#DejaVuSans-105"/>
       <use x="191.992188" xlink:href="#DejaVuSans-110"/>
       <use x="255.371094" xlink:href="#DejaVuSans-39"/>
       <use x="282.861328" xlink:href="#DejaVuSans-115"/>
      </g>
     </g>
    </g>
    <g id="xtick_3">
     <g id="line2d_3">
      <g>
       <use style="stroke:#000000;stroke-width:0.8;" x="295.711415" xlink:href="#m1c46222a62" y="244.1"/>
      </g>
     </g>
     <g id="text_3">
      <!-- Entry-wise -->
      <g transform="translate(249.898329 264.397266)scale(0.175 -0.175)">
       <defs>
        <path d="M 9.8125 72.90625 
L 55.90625 72.90625 
L 55.90625 64.59375 
L 19.671875 64.59375 
L 19.671875 43.015625 
L 54.390625 43.015625 
L 54.390625 34.71875 
L 19.671875 34.71875 
L 19.671875 8.296875 
L 56.78125 8.296875 
L 56.78125 0 
L 9.8125 0 
z
" id="DejaVuSans-69"/>
        <path d="M 32.171875 -5.078125 
Q 28.375 -14.84375 24.75 -17.8125 
Q 21.140625 -20.796875 15.09375 -20.796875 
L 7.90625 -20.796875 
L 7.90625 -13.28125 
L 13.1875 -13.28125 
Q 16.890625 -13.28125 18.9375 -11.515625 
Q 21 -9.765625 23.484375 -3.21875 
L 25.09375 0.875 
L 2.984375 54.6875 
L 12.5 54.6875 
L 29.59375 11.921875 
L 46.6875 54.6875 
L 56.203125 54.6875 
z
" id="DejaVuSans-121"/>
        <path d="M 4.890625 31.390625 
L 31.203125 31.390625 
L 31.203125 23.390625 
L 4.890625 23.390625 
z
" id="DejaVuSans-45"/>
        <path d="M 4.203125 54.6875 
L 13.1875 54.6875 
L 24.421875 12.015625 
L 35.59375 54.6875 
L 46.1875 54.6875 
L 57.421875 12.015625 
L 68.609375 54.6875 
L 77.59375 54.6875 
L 63.28125 0 
L 52.6875 0 
L 40.921875 44.828125 
L 29.109375 0 
L 18.5 0 
z
" id="DejaVuSans-119"/>
       </defs>
       <use xlink:href="#DejaVuSans-69"/>
       <use x="63.183594" xlink:href="#DejaVuSans-110"/>
       <use x="126.5625" xlink:href="#DejaVuSans-116"/>
       <use x="165.771484" xlink:href="#DejaVuSans-114"/>
       <use x="206.884766" xlink:href="#DejaVuSans-121"/>
       <use x="264.314453" xlink:href="#DejaVuSans-45"/>
       <use x="300.398438" xlink:href="#DejaVuSans-119"/>
       <use x="382.185547" xlink:href="#DejaVuSans-105"/>
       <use x="409.96875" xlink:href="#DejaVuSans-115"/>
       <use x="462.068359" xlink:href="#DejaVuSans-101"/>
      </g>
     </g>
    </g>
   </g>
   <g id="matplotlib.axis_2">
    <g id="ytick_1">
     <g id="line2d_4">
      <defs>
       <path d="M 0 0 
L -3.5 0 
" id="m48634cad24" style="stroke:#000000;stroke-width:0.8;"/>
      </defs>
      <g>
       <use style="stroke:#000000;stroke-width:0.8;" x="59.025" xlink:href="#m48634cad24" y="202.700745"/>
      </g>
     </g>
     <g id="text_4">
      <!-- 1 -->
      <g transform="translate(40.890625 209.349378)scale(0.175 -0.175)">
       <defs>
        <path d="M 12.40625 8.296875 
L 28.515625 8.296875 
L 28.515625 63.921875 
L 10.984375 60.40625 
L 10.984375 69.390625 
L 28.421875 72.90625 
L 38.28125 72.90625 
L 38.28125 8.296875 
L 54.390625 8.296875 
L 54.390625 0 
L 12.40625 0 
z
" id="DejaVuSans-49"/>
       </defs>
       <use xlink:href="#DejaVuSans-49"/>
      </g>
     </g>
    </g>
    <g id="ytick_2">
     <g id="line2d_5">
      <g>
       <use style="stroke:#000000;stroke-width:0.8;" x="59.025" xlink:href="#m48634cad24" y="139.666246"/>
      </g>
     </g>
     <g id="text_5">
      <!-- 2 -->
      <g transform="translate(40.890625 146.314879)scale(0.175 -0.175)">
       <defs>
        <path d="M 19.1875 8.296875 
L 53.609375 8.296875 
L 53.609375 0 
L 7.328125 0 
L 7.328125 8.296875 
Q 12.9375 14.109375 22.625 23.890625 
Q 32.328125 33.6875 34.8125 36.53125 
Q 39.546875 41.84375 41.421875 45.53125 
Q 43.3125 49.21875 43.3125 52.78125 
Q 43.3125 58.59375 39.234375 62.25 
Q 35.15625 65.921875 28.609375 65.921875 
Q 23.96875 65.921875 18.8125 64.3125 
Q 13.671875 62.703125 7.8125 59.421875 
L 7.8125 69.390625 
Q 13.765625 71.78125 18.9375 73 
Q 24.125 74.21875 28.421875 74.21875 
Q 39.75 74.21875 46.484375 68.546875 
Q 53.21875 62.890625 53.21875 53.421875 
Q 53.21875 48.921875 51.53125 44.890625 
Q 49.859375 40.875 45.40625 35.40625 
Q 44.1875 33.984375 37.640625 27.21875 
Q 31.109375 20.453125 19.1875 8.296875 
z
" id="DejaVuSans-50"/>
       </defs>
       <use xlink:href="#DejaVuSans-50"/>
      </g>
     </g>
    </g>
    <g id="ytick_3">
     <g id="line2d_6">
      <g>
       <use style="stroke:#000000;stroke-width:0.8;" x="59.025" xlink:href="#m48634cad24" y="76.631747"/>
      </g>
     </g>
     <g id="text_6">
      <!-- 3 -->
      <g transform="translate(40.890625 83.280379)scale(0.175 -0.175)">
       <defs>
        <path d="M 40.578125 39.3125 
Q 47.65625 37.796875 51.625 33 
Q 55.609375 28.21875 55.609375 21.1875 
Q 55.609375 10.40625 48.1875 4.484375 
Q 40.765625 -1.421875 27.09375 -1.421875 
Q 22.515625 -1.421875 17.65625 -0.515625 
Q 12.796875 0.390625 7.625 2.203125 
L 7.625 11.71875 
Q 11.71875 9.328125 16.59375 8.109375 
Q 21.484375 6.890625 26.8125 6.890625 
Q 36.078125 6.890625 40.9375 10.546875 
Q 45.796875 14.203125 45.796875 21.1875 
Q 45.796875 27.640625 41.28125 31.265625 
Q 36.765625 34.90625 28.71875 34.90625 
L 20.21875 34.90625 
L 20.21875 43.015625 
L 29.109375 43.015625 
Q 36.375 43.015625 40.234375 45.921875 
Q 44.09375 48.828125 44.09375 54.296875 
Q 44.09375 59.90625 40.109375 62.90625 
Q 36.140625 65.921875 28.71875 65.921875 
Q 24.65625 65.921875 20.015625 65.03125 
Q 15.375 64.15625 9.8125 62.3125 
L 9.8125 71.09375 
Q 15.4375 72.65625 20.34375 73.4375 
Q 25.25 74.21875 29.59375 74.21875 
Q 40.828125 74.21875 47.359375 69.109375 
Q 53.90625 64.015625 53.90625 55.328125 
Q 53.90625 49.265625 50.4375 45.09375 
Q 46.96875 40.921875 40.578125 39.3125 
z
" id="DejaVuSans-51"/>
       </defs>
       <use xlink:href="#DejaVuSans-51"/>
      </g>
     </g>
    </g>
    <g id="text_7">
     <!-- Estimation Error -->
     <g transform="translate(33.251172 202.198633)rotate(-90)scale(0.175 -0.175)">
      <defs>
       <path d="M 52 44.1875 
Q 55.375 50.25 60.0625 53.125 
Q 64.75 56 71.09375 56 
Q 79.640625 56 84.28125 50.015625 
Q 88.921875 44.046875 88.921875 33.015625 
L 88.921875 0 
L 79.890625 0 
L 79.890625 32.71875 
Q 79.890625 40.578125 77.09375 44.375 
Q 74.3125 48.1875 68.609375 48.1875 
Q 61.625 48.1875 57.5625 43.546875 
Q 53.515625 38.921875 53.515625 30.90625 
L 53.515625 0 
L 44.484375 0 
L 44.484375 32.71875 
Q 44.484375 40.625 41.703125 44.40625 
Q 38.921875 48.1875 33.109375 48.1875 
Q 26.21875 48.1875 22.15625 43.53125 
Q 18.109375 38.875 18.109375 30.90625 
L 18.109375 0 
L 9.078125 0 
L 9.078125 54.6875 
L 18.109375 54.6875 
L 18.109375 46.1875 
Q 21.1875 51.21875 25.484375 53.609375 
Q 29.78125 56 35.6875 56 
Q 41.65625 56 45.828125 52.96875 
Q 50 49.953125 52 44.1875 
z
" id="DejaVuSans-109"/>
       <path d="M 34.28125 27.484375 
Q 23.390625 27.484375 19.1875 25 
Q 14.984375 22.515625 14.984375 16.5 
Q 14.984375 11.71875 18.140625 8.90625 
Q 21.296875 6.109375 26.703125 6.109375 
Q 34.1875 6.109375 38.703125 11.40625 
Q 43.21875 16.703125 43.21875 25.484375 
L 43.21875 27.484375 
z
M 52.203125 31.203125 
L 52.203125 0 
L 43.21875 0 
L 43.21875 8.296875 
Q 40.140625 3.328125 35.546875 0.953125 
Q 30.953125 -1.421875 24.3125 -1.421875 
Q 15.921875 -1.421875 10.953125 3.296875 
Q 6 8.015625 6 15.921875 
Q 6 25.140625 12.171875 29.828125 
Q 18.359375 34.515625 30.609375 34.515625 
L 43.21875 34.515625 
L 43.21875 35.40625 
Q 43.21875 41.609375 39.140625 45 
Q 35.0625 48.390625 27.6875 48.390625 
Q 23 48.390625 18.546875 47.265625 
Q 14.109375 46.140625 10.015625 43.890625 
L 10.015625 52.203125 
Q 14.9375 54.109375 19.578125 55.046875 
Q 24.21875 56 28.609375 56 
Q 40.484375 56 46.34375 49.84375 
Q 52.203125 43.703125 52.203125 31.203125 
z
" id="DejaVuSans-97"/>
      </defs>
      <use xlink:href="#DejaVuSans-69"/>
      <use x="63.183594" xlink:href="#DejaVuSans-115"/>
      <use x="115.283203" xlink:href="#DejaVuSans-116"/>
      <use x="154.492188" xlink:href="#DejaVuSans-105"/>
      <use x="182.275391" xlink:href="#DejaVuSans-109"/>
      <use x="279.6875" xlink:href="#DejaVuSans-97"/>
      <use x="340.966797" xlink:href="#DejaVuSans-116"/>
      <use x="380.175781" xlink:href="#DejaVuSans-105"/>
      <use x="407.958984" xlink:href="#DejaVuSans-111"/>
      <use x="469.140625" xlink:href="#DejaVuSans-110"/>
      <use x="532.519531" xlink:href="#DejaVuSans-32"/>
      <use x="564.306641" xlink:href="#DejaVuSans-69"/>
      <use x="627.490234" xlink:href="#DejaVuSans-114"/>
      <use x="666.853516" xlink:href="#DejaVuSans-114"/>
      <use x="705.716797" xlink:href="#DejaVuSans-111"/>
      <use x="766.898438" xlink:href="#DejaVuSans-114"/>
     </g>
    </g>
   </g>
   <g id="LineCollection_1">
    <path clip-path="url(#p5df5707761)" d="M 83.93936 196.054563 
L 108.853719 196.054563 
" style="fill:none;stroke:#1f77b4;stroke-width:1.5;"/>
    <path clip-path="url(#p5df5707761)" d="M 183.596798 29.136364 
L 208.511157 29.136364 
" style="fill:none;stroke:#1f77b4;stroke-width:1.5;"/>
    <path clip-path="url(#p5df5707761)" d="M 283.254236 177.083145 
L 308.168595 177.083145 
" style="fill:none;stroke:#1f77b4;stroke-width:1.5;"/>
   </g>
   <g id="LineCollection_2">
    <path clip-path="url(#p5df5707761)" d="M 83.93936 233.863636 
L 108.853719 233.863636 
" style="fill:none;stroke:#1f77b4;stroke-width:1.5;"/>
    <path clip-path="url(#p5df5707761)" d="M 183.596798 193.21645 
L 208.511157 193.21645 
" style="fill:none;stroke:#1f77b4;stroke-width:1.5;"/>
    <path clip-path="url(#p5df5707761)" d="M 283.254236 224.952946 
L 308.168595 224.952946 
" style="fill:none;stroke:#1f77b4;stroke-width:1.5;"/>
   </g>
   <g id="LineCollection_3">
    <path clip-path="url(#p5df5707761)" d="M 96.396539 233.863636 
L 96.396539 196.054563 
" style="fill:none;stroke:#1f77b4;stroke-width:1.5;"/>
    <path clip-path="url(#p5df5707761)" d="M 196.053977 193.21645 
L 196.053977 29.136364 
" style="fill:none;stroke:#1f77b4;stroke-width:1.5;"/>
    <path clip-path="url(#p5df5707761)" d="M 295.711415 224.952946 
L 295.711415 177.083145 
" style="fill:none;stroke:#1f77b4;stroke-width:1.5;"/>
   </g>
   <g id="patch_3">
    <path d="M 59.025 244.1 
L 59.025 18.9 
" style="fill:none;stroke:#000000;stroke-linecap:square;stroke-linejoin:miter;stroke-width:0.8;"/>
   </g>
   <g id="patch_4">
    <path d="M 333.082955 244.1 
L 333.082955 18.9 
" style="fill:none;stroke:#000000;stroke-linecap:square;stroke-linejoin:miter;stroke-width:0.8;"/>
   </g>
   <g id="patch_5">
    <path d="M 59.025 244.1 
L 333.082955 244.1 
" style="fill:none;stroke:#000000;stroke-linecap:square;stroke-linejoin:miter;stroke-width:0.8;"/>
   </g>
   <g id="patch_6">
    <path d="M 59.025 18.9 
L 333.082955 18.9 
" style="fill:none;stroke:#000000;stroke-linecap:square;stroke-linejoin:miter;stroke-width:0.8;"/>
   </g>
  </g>
 </g>
 <defs>
  <clipPath id="p5df5707761">
   <rect height="225.2" width="274.057955" x="59.025" y="18.9"/>
  </clipPath>
 </defs>
</svg>
