<?xml version="1.0" encoding="utf-8" standalone="no"?>
<!DOCTYPE svg PUBLIC "-//W3C//DTD SVG 1.1//EN"
  "http://www.w3.org/Graphics/SVG/1.1/DTD/svg11.dtd">
<!-- Created with matplotlib (https://matplotlib.org/) -->
<svg height="288pt" version="1.1" viewBox="0 0 360 288" width="360pt" xmlns="http://www.w3.org/2000/svg" xmlns:xlink="http://www.w3.org/1999/xlink">
 <metadata>
  <rdf:RDF xmlns:cc="http://creativecommons.org/ns#" xmlns:dc="http://purl.org/dc/elements/1.1/" xmlns:rdf="http://www.w3.org/1999/02/22-rdf-syntax-ns#">
   <cc:Work>
    <dc:type rdf:resource="http://purl.org/dc/dcmitype/StillImage"/>
    <dc:date>2022-09-25T00:48:13.729368</dc:date>
    <dc:format>image/svg+xml</dc:format>
    <dc:creator>
     <cc:Agent>
      <dc:title>Matplotlib v3.3.4, https://matplotlib.org/</dc:title>
     </cc:Agent>
    </dc:creator>
   </cc:Work>
  </rdf:RDF>
 </metadata>
 <defs>
  <style type="text/css">*{stroke-linecap:butt;stroke-linejoin:round;}</style>
 </defs>
 <g id="figure_1">
  <g id="patch_1">
   <path d="M 0 288 
L 360 288 
L 360 0 
L 0 0 
z
" style="fill:none;"/>
  </g>
  <g id="axes_1">
   <g id="patch_2">
    <path d="M 75.65 244.1 
L 333.082955 244.1 
L 333.082955 18.9 
L 75.65 18.9 
z
" style="fill:#ffffff;"/>
   </g>
   <g id="PolyCollection_1">
    <path clip-path="url(#p6c365fc70f)" d="M 114.352981 233.863636 
L 107.156007 233.863636 
L 106.79546 232.933403 
L 106.403426 232.00317 
L 105.977885 231.072937 
L 105.517181 230.142704 
L 105.020153 229.21247 
L 104.48626 228.282237 
L 103.915684 227.352004 
L 103.309406 226.421771 
L 102.669254 225.491537 
L 101.997911 224.561304 
L 101.298882 223.631071 
L 100.576423 222.700838 
L 99.835436 221.770605 
L 99.081327 220.840371 
L 98.319844 219.910138 
L 97.556901 218.979905 
L 96.798391 218.049672 
L 96.050011 217.119438 
L 95.317095 216.189205 
L 94.604472 215.258972 
L 93.91636 214.328739 
L 93.256281 213.398506 
L 92.627034 212.468272 
L 92.030691 211.538039 
L 91.468642 210.607806 
L 90.94167 209.677573 
L 90.450065 208.74734 
L 89.99375 207.817106 
L 89.572439 206.886873 
L 89.185788 205.95664 
L 88.83356 205.026407 
L 88.515766 204.096173 
L 88.23279 203.16594 
L 87.985496 202.235707 
L 87.775276 201.305474 
L 87.604079 200.375241 
L 87.474379 199.445007 
L 87.3891 198.514774 
L 87.351498 197.584541 
L 87.364999 196.654308 
L 87.433008 195.724075 
L 87.558691 194.793841 
L 87.744756 193.863608 
L 87.993228 192.933375 
L 88.305252 192.003142 
L 88.680923 191.072908 
L 89.119166 190.142675 
L 89.61766 189.212442 
L 90.172838 188.282209 
L 90.779929 187.351976 
L 91.433081 186.421742 
L 92.12552 185.491509 
L 92.849763 184.561276 
L 93.597862 183.631043 
L 94.361663 182.70081 
L 95.133067 181.770576 
L 95.904282 180.840343 
L 96.66805 179.91011 
L 97.417831 178.979877 
L 98.147954 178.049643 
L 98.853705 177.11941 
L 99.531382 176.189177 
L 100.178285 175.258944 
L 100.792674 174.328711 
L 101.37369 173.398477 
L 101.921243 172.468244 
L 102.435885 171.538011 
L 102.918679 170.607778 
L 103.371056 169.677545 
L 103.794686 168.747311 
L 104.191363 167.817078 
L 104.562898 166.886845 
L 104.911038 165.956612 
L 105.237404 165.026378 
L 105.543442 164.096145 
L 105.830405 163.165912 
L 106.099336 162.235679 
L 106.351082 161.305446 
L 106.586309 160.375212 
L 106.805536 159.444979 
L 107.009166 158.514746 
L 107.197535 157.584513 
L 107.370961 156.65428 
L 107.529783 155.724046 
L 107.674418 154.793813 
L 107.805395 153.86358 
L 107.923394 152.933347 
L 108.02927 152.003113 
L 108.124071 151.07288 
L 108.209034 150.142647 
L 108.285572 149.212414 
L 108.355254 148.282181 
L 108.419756 147.351947 
L 108.480814 146.421714 
L 108.540164 145.491481 
L 108.599477 144.561248 
L 108.660292 143.631014 
L 108.723957 142.700781 
L 108.791574 141.770548 
L 112.717414 141.770548 
L 112.717414 141.770548 
L 112.785031 142.700781 
L 112.848696 143.631014 
L 112.909511 144.561248 
L 112.968823 145.491481 
L 113.028173 146.421714 
L 113.089232 147.351947 
L 113.153733 148.282181 
L 113.223415 149.212414 
L 113.299954 150.142647 
L 113.384916 151.07288 
L 113.479717 152.003113 
L 113.585594 152.933347 
L 113.703593 153.86358 
L 113.83457 154.793813 
L 113.979204 155.724046 
L 114.138027 156.65428 
L 114.311452 157.584513 
L 114.499822 158.514746 
L 114.703452 159.444979 
L 114.922678 160.375212 
L 115.157906 161.305446 
L 115.409652 162.235679 
L 115.678583 163.165912 
L 115.965545 164.096145 
L 116.271584 165.026378 
L 116.597949 165.956612 
L 116.94609 166.886845 
L 117.317625 167.817078 
L 117.714301 168.747311 
L 118.137932 169.677545 
L 118.590308 170.607778 
L 119.073102 171.538011 
L 119.587745 172.468244 
L 120.135298 173.398477 
L 120.716313 174.328711 
L 121.330703 175.258944 
L 121.977605 176.189177 
L 122.655282 177.11941 
L 123.361034 178.049643 
L 124.091156 178.979877 
L 124.840938 179.91011 
L 125.604706 180.840343 
L 126.375921 181.770576 
L 127.147325 182.70081 
L 127.911125 183.631043 
L 128.659225 184.561276 
L 129.383468 185.491509 
L 130.075907 186.421742 
L 130.729058 187.351976 
L 131.33615 188.282209 
L 131.891327 189.212442 
L 132.389822 190.142675 
L 132.828064 191.072908 
L 133.203736 192.003142 
L 133.51576 192.933375 
L 133.764232 193.863608 
L 133.950296 194.793841 
L 134.07598 195.724075 
L 134.143989 196.654308 
L 134.15749 197.584541 
L 134.119888 198.514774 
L 134.034609 199.445007 
L 133.904909 200.375241 
L 133.733712 201.305474 
L 133.523492 202.235707 
L 133.276197 203.16594 
L 132.993222 204.096173 
L 132.675427 205.026407 
L 132.323199 205.95664 
L 131.936549 206.886873 
L 131.515238 207.817106 
L 131.058923 208.74734 
L 130.567317 209.677573 
L 130.040346 210.607806 
L 129.478296 211.538039 
L 128.881953 212.468272 
L 128.252706 213.398506 
L 127.592628 214.328739 
L 126.904515 215.258972 
L 126.191893 216.189205 
L 125.458977 217.119438 
L 124.710597 218.049672 
L 123.952087 218.979905 
L 123.189144 219.910138 
L 122.427661 220.840371 
L 121.673551 221.770605 
L 120.932564 222.700838 
L 120.210106 223.631071 
L 119.511076 224.561304 
L 118.839734 225.491537 
L 118.199582 226.421771 
L 117.593304 227.352004 
L 117.022727 228.282237 
L 116.488835 229.21247 
L 115.991807 230.142704 
L 115.531102 231.072937 
L 115.105561 232.00317 
L 114.713528 232.933403 
L 114.352981 233.863636 
z
" style="fill:#1f77b4;fill-opacity:0.3;"/>
   </g>
   <g id="PolyCollection_2">
    <path clip-path="url(#p6c365fc70f)" d="M 208.583197 214.522508 
L 200.149758 214.522508 
L 199.912725 212.649921 
L 199.671904 210.777333 
L 199.427105 208.904746 
L 199.177972 207.032159 
L 198.923975 205.159571 
L 198.664403 203.286984 
L 198.398362 201.414397 
L 198.124779 199.541809 
L 197.842407 197.669222 
L 197.549844 195.796635 
L 197.245554 193.924047 
L 196.927891 192.05146 
L 196.595141 190.178873 
L 196.24556 188.306285 
L 195.877427 186.433698 
L 195.489099 184.561111 
L 195.079074 182.688523 
L 194.646053 180.815936 
L 194.189009 178.943349 
L 193.707258 177.070762 
L 193.200518 175.198174 
L 192.668974 173.325587 
L 192.113333 171.453 
L 191.534862 169.580412 
L 190.935427 167.707825 
L 190.317503 165.835238 
L 189.684176 163.96265 
L 189.039127 162.090063 
L 188.386592 160.217476 
L 187.731304 158.344888 
L 187.078418 156.472301 
L 186.433415 154.599714 
L 185.801992 152.727126 
L 185.189935 150.854539 
L 184.602987 148.981952 
L 184.046703 147.109364 
L 183.526308 145.236777 
L 183.046553 143.36419 
L 182.611584 141.491603 
L 182.22482 139.619015 
L 181.888845 137.746428 
L 181.605324 135.873841 
L 181.374949 134.001253 
L 181.197398 132.128666 
L 181.071338 130.256079 
L 180.99445 128.383491 
L 180.963481 126.510904 
L 180.974336 124.638317 
L 181.022181 122.765729 
L 181.101578 120.893142 
L 181.206638 119.020555 
L 181.331184 117.147967 
L 181.468918 115.27538 
L 181.613603 113.402793 
L 181.759227 111.530205 
L 181.900166 109.657618 
L 182.031334 107.785031 
L 182.148304 105.912444 
L 182.247424 104.039856 
L 182.325888 102.167269 
L 182.381798 100.294682 
L 182.414187 98.422094 
L 182.423017 96.549507 
L 182.409159 94.67692 
L 182.374335 92.804332 
L 182.321051 90.931745 
L 182.252508 89.059158 
L 182.172499 87.18657 
L 182.085297 85.313983 
L 181.995533 83.441396 
L 181.908082 81.568808 
L 181.827937 79.696221 
L 181.760103 77.823634 
L 181.709482 75.951047 
L 181.680783 74.078459 
L 181.678431 72.205872 
L 181.706497 70.333285 
L 181.768633 68.460697 
L 181.868025 66.58811 
L 182.007359 64.715523 
L 182.188789 62.842935 
L 182.413926 60.970348 
L 182.683832 59.097761 
L 182.999018 57.225173 
L 183.359456 55.352586 
L 183.76459 53.479999 
L 184.213357 51.607411 
L 184.704212 49.734824 
L 185.235149 47.862237 
L 185.803739 45.989649 
L 186.407156 44.117062 
L 187.042219 42.244475 
L 187.705433 40.371888 
L 188.393024 38.4993 
L 189.100996 36.626713 
L 189.825169 34.754126 
L 190.561241 32.881538 
L 191.304835 31.008951 
L 192.051557 29.136364 
L 216.681397 29.136364 
L 216.681397 29.136364 
L 217.428119 31.008951 
L 218.171713 32.881538 
L 218.907785 34.754126 
L 219.631959 36.626713 
L 220.33993 38.4993 
L 221.027522 40.371888 
L 221.690735 42.244475 
L 222.325799 44.117062 
L 222.929216 45.989649 
L 223.497805 47.862237 
L 224.028743 49.734824 
L 224.519597 51.607411 
L 224.968365 53.479999 
L 225.373499 55.352586 
L 225.733936 57.225173 
L 226.049122 59.097761 
L 226.319028 60.970348 
L 226.544166 62.842935 
L 226.725596 64.715523 
L 226.864929 66.58811 
L 226.964322 68.460697 
L 227.026458 70.333285 
L 227.054523 72.205872 
L 227.052171 74.078459 
L 227.023472 75.951047 
L 226.972852 77.823634 
L 226.905017 79.696221 
L 226.824873 81.568808 
L 226.737421 83.441396 
L 226.647658 85.313983 
L 226.560455 87.18657 
L 226.480446 89.059158 
L 226.411904 90.931745 
L 226.35862 92.804332 
L 226.323795 94.67692 
L 226.309937 96.549507 
L 226.318768 98.422094 
L 226.351156 100.294682 
L 226.407067 102.167269 
L 226.485531 104.039856 
L 226.58465 105.912444 
L 226.701621 107.785031 
L 226.832788 109.657618 
L 226.973728 111.530205 
L 227.119351 113.402793 
L 227.264036 115.27538 
L 227.401771 117.147967 
L 227.526316 119.020555 
L 227.631377 120.893142 
L 227.710774 122.765729 
L 227.758618 124.638317 
L 227.769473 126.510904 
L 227.738505 128.383491 
L 227.661616 130.256079 
L 227.535557 132.128666 
L 227.358006 134.001253 
L 227.12763 135.873841 
L 226.84411 137.746428 
L 226.508134 139.619015 
L 226.12137 141.491603 
L 225.686402 143.36419 
L 225.206647 145.236777 
L 224.686251 147.109364 
L 224.129967 148.981952 
L 223.54302 150.854539 
L 222.930963 152.727126 
L 222.29954 154.599714 
L 221.654537 156.472301 
L 221.001651 158.344888 
L 220.346362 160.217476 
L 219.693827 162.090063 
L 219.048779 163.96265 
L 218.415452 165.835238 
L 217.797527 167.707825 
L 217.198092 169.580412 
L 216.619622 171.453 
L 216.06398 173.325587 
L 215.532437 175.198174 
L 215.025696 177.070762 
L 214.543945 178.943349 
L 214.086902 180.815936 
L 213.653881 182.688523 
L 213.243855 184.561111 
L 212.855528 186.433698 
L 212.487395 188.306285 
L 212.137814 190.178873 
L 211.805063 192.05146 
L 211.4874 193.924047 
L 211.18311 195.796635 
L 210.890548 197.669222 
L 210.608176 199.541809 
L 210.334592 201.414397 
L 210.068551 203.286984 
L 209.808979 205.159571 
L 209.554982 207.032159 
L 209.305849 208.904746 
L 209.06105 210.777333 
L 208.82023 212.649921 
L 208.583197 214.522508 
z
" style="fill:#1f77b4;fill-opacity:0.3;"/>
   </g>
   <g id="PolyCollection_3">
    <path clip-path="url(#p6c365fc70f)" d="M 300.840471 206.95807 
L 295.11645 206.95807 
L 294.995144 206.310733 
L 294.877653 205.663396 
L 294.76324 205.016059 
L 294.650777 204.368722 
L 294.538732 203.721385 
L 294.42516 203.074047 
L 294.307702 202.42671 
L 294.183601 201.779373 
L 294.049726 201.132036 
L 293.90261 200.484699 
L 293.738502 199.837362 
L 293.553433 199.190024 
L 293.3433 198.542687 
L 293.103958 197.89535 
L 292.831334 197.248013 
L 292.521544 196.600676 
L 292.171029 195.953339 
L 291.77668 195.306002 
L 291.335987 194.658664 
L 290.847161 194.011327 
L 290.309263 193.36399 
L 289.722311 192.716653 
L 289.087363 192.069316 
L 288.406584 191.421979 
L 287.68327 190.774642 
L 286.921845 190.127304 
L 286.127818 189.479967 
L 285.307699 188.83263 
L 284.468884 188.185293 
L 283.619494 187.537956 
L 282.768193 186.890619 
L 281.923969 186.243282 
L 281.095905 185.595944 
L 280.292932 184.948607 
L 279.523581 184.30127 
L 278.795745 183.653933 
L 278.116451 183.006596 
L 277.491661 182.359259 
L 276.926104 181.711921 
L 276.423151 181.064584 
L 275.984729 180.417247 
L 275.61129 179.76991 
L 275.301831 179.122573 
L 275.053957 178.475236 
L 274.864 177.827899 
L 274.727182 177.180561 
L 274.63781 176.533224 
L 274.589508 175.885887 
L 274.575465 175.23855 
L 274.588701 174.591213 
L 274.622329 173.943876 
L 274.669814 173.296539 
L 274.725205 172.649201 
L 274.783353 172.001864 
L 274.840076 171.354527 
L 274.8923 170.70719 
L 274.938139 170.059853 
L 274.976931 169.412516 
L 275.00923 168.765179 
L 275.036736 168.117841 
L 275.062193 167.470504 
L 275.089239 166.823167 
L 275.122229 166.17583 
L 275.166025 165.528493 
L 275.225781 164.881156 
L 275.306717 164.233818 
L 275.413894 163.586481 
L 275.552005 162.939144 
L 275.725193 162.291807 
L 275.936885 161.64447 
L 276.189672 160.997133 
L 276.485224 160.349796 
L 276.824239 159.702458 
L 277.206445 159.055121 
L 277.630626 158.407784 
L 278.0947 157.760447 
L 278.595809 157.11311 
L 279.130451 156.465773 
L 279.694614 155.818436 
L 280.283932 155.171098 
L 280.893834 154.523761 
L 281.519695 153.876424 
L 282.156972 153.229087 
L 282.801324 152.58175 
L 283.448716 151.934413 
L 284.09549 151.287075 
L 284.738423 150.639738 
L 285.374749 149.992401 
L 286.002167 149.345064 
L 286.61882 148.697727 
L 287.223262 148.05039 
L 287.814408 147.403053 
L 288.391473 146.755715 
L 288.953911 146.108378 
L 289.501346 145.461041 
L 290.033512 144.813704 
L 290.550196 144.166367 
L 291.051189 143.51903 
L 291.536254 142.871693 
L 304.420668 142.871693 
L 304.420668 142.871693 
L 304.905733 143.51903 
L 305.406726 144.166367 
L 305.923409 144.813704 
L 306.455575 145.461041 
L 307.00301 146.108378 
L 307.565448 146.755715 
L 308.142514 147.403053 
L 308.73366 148.05039 
L 309.338102 148.697727 
L 309.954755 149.345064 
L 310.582173 149.992401 
L 311.218499 150.639738 
L 311.861431 151.287075 
L 312.508206 151.934413 
L 313.155597 152.58175 
L 313.79995 153.229087 
L 314.437227 153.876424 
L 315.063088 154.523761 
L 315.67299 155.171098 
L 316.262308 155.818436 
L 316.826471 156.465773 
L 317.361112 157.11311 
L 317.862222 157.760447 
L 318.326295 158.407784 
L 318.750477 159.055121 
L 319.132682 159.702458 
L 319.471697 160.349796 
L 319.767249 160.997133 
L 320.020037 161.64447 
L 320.231729 162.291807 
L 320.404916 162.939144 
L 320.543028 163.586481 
L 320.650204 164.233818 
L 320.73114 164.881156 
L 320.790897 165.528493 
L 320.834693 166.17583 
L 320.867682 166.823167 
L 320.894729 167.470504 
L 320.920186 168.117841 
L 320.947692 168.765179 
L 320.97999 169.412516 
L 321.018783 170.059853 
L 321.064621 170.70719 
L 321.116845 171.354527 
L 321.173569 172.001864 
L 321.231716 172.649201 
L 321.287108 173.296539 
L 321.334592 173.943876 
L 321.368221 174.591213 
L 321.381457 175.23855 
L 321.367414 175.885887 
L 321.319111 176.533224 
L 321.229739 177.180561 
L 321.092921 177.827899 
L 320.902965 178.475236 
L 320.65509 179.122573 
L 320.345631 179.76991 
L 319.972193 180.417247 
L 319.533771 181.064584 
L 319.030817 181.711921 
L 318.465261 182.359259 
L 317.84047 183.006596 
L 317.161176 183.653933 
L 316.43334 184.30127 
L 315.66399 184.948607 
L 314.861017 185.595944 
L 314.032953 186.243282 
L 313.188729 186.890619 
L 312.337427 187.537956 
L 311.488038 188.185293 
L 310.649223 188.83263 
L 309.829104 189.479967 
L 309.035077 190.127304 
L 308.273652 190.774642 
L 307.550338 191.421979 
L 306.869558 192.069316 
L 306.234611 192.716653 
L 305.647658 193.36399 
L 305.10976 194.011327 
L 304.620934 194.658664 
L 304.180241 195.306002 
L 303.785893 195.953339 
L 303.435377 196.600676 
L 303.125588 197.248013 
L 302.852964 197.89535 
L 302.613622 198.542687 
L 302.403488 199.190024 
L 302.218419 199.837362 
L 302.054311 200.484699 
L 301.907195 201.132036 
L 301.77332 201.779373 
L 301.64922 202.42671 
L 301.531761 203.074047 
L 301.418189 203.721385 
L 301.306145 204.368722 
L 301.193682 205.016059 
L 301.079268 205.663396 
L 300.961777 206.310733 
L 300.840471 206.95807 
z
" style="fill:#1f77b4;fill-opacity:0.3;"/>
   </g>
   <g id="matplotlib.axis_1">
    <g id="xtick_1">
     <g id="line2d_1">
      <defs>
       <path d="M 0 0 
L 0 3.5 
" id="ma52f210802" style="stroke:#000000;stroke-width:0.8;"/>
      </defs>
      <g>
       <use style="stroke:#000000;stroke-width:0.8;" x="110.754494" xlink:href="#ma52f210802" y="244.1"/>
      </g>
     </g>
     <g id="text_1">
      <!-- Our Method -->
      <g transform="translate(59.125392 264.397266)scale(0.175 -0.175)">
       <defs>
        <path d="M 39.40625 66.21875 
Q 28.65625 66.21875 22.328125 58.203125 
Q 16.015625 50.203125 16.015625 36.375 
Q 16.015625 22.609375 22.328125 14.59375 
Q 28.65625 6.59375 39.40625 6.59375 
Q 50.140625 6.59375 56.421875 14.59375 
Q 62.703125 22.609375 62.703125 36.375 
Q 62.703125 50.203125 56.421875 58.203125 
Q 50.140625 66.21875 39.40625 66.21875 
z
M 39.40625 74.21875 
Q 54.734375 74.21875 63.90625 63.9375 
Q 73.09375 53.65625 73.09375 36.375 
Q 73.09375 19.140625 63.90625 8.859375 
Q 54.734375 -1.421875 39.40625 -1.421875 
Q 24.03125 -1.421875 14.8125 8.828125 
Q 5.609375 19.09375 5.609375 36.375 
Q 5.609375 53.65625 14.8125 63.9375 
Q 24.03125 74.21875 39.40625 74.21875 
z
" id="DejaVuSans-79"/>
        <path d="M 8.5 21.578125 
L 8.5 54.6875 
L 17.484375 54.6875 
L 17.484375 21.921875 
Q 17.484375 14.15625 20.5 10.265625 
Q 23.53125 6.390625 29.59375 6.390625 
Q 36.859375 6.390625 41.078125 11.03125 
Q 45.3125 15.671875 45.3125 23.6875 
L 45.3125 54.6875 
L 54.296875 54.6875 
L 54.296875 0 
L 45.3125 0 
L 45.3125 8.40625 
Q 42.046875 3.421875 37.71875 1 
Q 33.40625 -1.421875 27.6875 -1.421875 
Q 18.265625 -1.421875 13.375 4.4375 
Q 8.5 10.296875 8.5 21.578125 
z
M 31.109375 56 
z
" id="DejaVuSans-117"/>
        <path d="M 41.109375 46.296875 
Q 39.59375 47.171875 37.8125 47.578125 
Q 36.03125 48 33.890625 48 
Q 26.265625 48 22.1875 43.046875 
Q 18.109375 38.09375 18.109375 28.8125 
L 18.109375 0 
L 9.078125 0 
L 9.078125 54.6875 
L 18.109375 54.6875 
L 18.109375 46.1875 
Q 20.953125 51.171875 25.484375 53.578125 
Q 30.03125 56 36.53125 56 
Q 37.453125 56 38.578125 55.875 
Q 39.703125 55.765625 41.0625 55.515625 
z
" id="DejaVuSans-114"/>
        <path id="DejaVuSans-32"/>
        <path d="M 9.8125 72.90625 
L 24.515625 72.90625 
L 43.109375 23.296875 
L 61.8125 72.90625 
L 76.515625 72.90625 
L 76.515625 0 
L 66.890625 0 
L 66.890625 64.015625 
L 48.09375 14.015625 
L 38.1875 14.015625 
L 19.390625 64.015625 
L 19.390625 0 
L 9.8125 0 
z
" id="DejaVuSans-77"/>
        <path d="M 56.203125 29.59375 
L 56.203125 25.203125 
L 14.890625 25.203125 
Q 15.484375 15.921875 20.484375 11.0625 
Q 25.484375 6.203125 34.421875 6.203125 
Q 39.59375 6.203125 44.453125 7.46875 
Q 49.3125 8.734375 54.109375 11.28125 
L 54.109375 2.78125 
Q 49.265625 0.734375 44.1875 -0.34375 
Q 39.109375 -1.421875 33.890625 -1.421875 
Q 20.796875 -1.421875 13.15625 6.1875 
Q 5.515625 13.8125 5.515625 26.8125 
Q 5.515625 40.234375 12.765625 48.109375 
Q 20.015625 56 32.328125 56 
Q 43.359375 56 49.78125 48.890625 
Q 56.203125 41.796875 56.203125 29.59375 
z
M 47.21875 32.234375 
Q 47.125 39.59375 43.09375 43.984375 
Q 39.0625 48.390625 32.421875 48.390625 
Q 24.90625 48.390625 20.390625 44.140625 
Q 15.875 39.890625 15.1875 32.171875 
z
" id="DejaVuSans-101"/>
        <path d="M 18.3125 70.21875 
L 18.3125 54.6875 
L 36.8125 54.6875 
L 36.8125 47.703125 
L 18.3125 47.703125 
L 18.3125 18.015625 
Q 18.3125 11.328125 20.140625 9.421875 
Q 21.96875 7.515625 27.59375 7.515625 
L 36.8125 7.515625 
L 36.8125 0 
L 27.59375 0 
Q 17.1875 0 13.234375 3.875 
Q 9.28125 7.765625 9.28125 18.015625 
L 9.28125 47.703125 
L 2.6875 47.703125 
L 2.6875 54.6875 
L 9.28125 54.6875 
L 9.28125 70.21875 
z
" id="DejaVuSans-116"/>
        <path d="M 54.890625 33.015625 
L 54.890625 0 
L 45.90625 0 
L 45.90625 32.71875 
Q 45.90625 40.484375 42.875 44.328125 
Q 39.84375 48.1875 33.796875 48.1875 
Q 26.515625 48.1875 22.3125 43.546875 
Q 18.109375 38.921875 18.109375 30.90625 
L 18.109375 0 
L 9.078125 0 
L 9.078125 75.984375 
L 18.109375 75.984375 
L 18.109375 46.1875 
Q 21.34375 51.125 25.703125 53.5625 
Q 30.078125 56 35.796875 56 
Q 45.21875 56 50.046875 50.171875 
Q 54.890625 44.34375 54.890625 33.015625 
z
" id="DejaVuSans-104"/>
        <path d="M 30.609375 48.390625 
Q 23.390625 48.390625 19.1875 42.75 
Q 14.984375 37.109375 14.984375 27.296875 
Q 14.984375 17.484375 19.15625 11.84375 
Q 23.34375 6.203125 30.609375 6.203125 
Q 37.796875 6.203125 41.984375 11.859375 
Q 46.1875 17.53125 46.1875 27.296875 
Q 46.1875 37.015625 41.984375 42.703125 
Q 37.796875 48.390625 30.609375 48.390625 
z
M 30.609375 56 
Q 42.328125 56 49.015625 48.375 
Q 55.71875 40.765625 55.71875 27.296875 
Q 55.71875 13.875 49.015625 6.21875 
Q 42.328125 -1.421875 30.609375 -1.421875 
Q 18.84375 -1.421875 12.171875 6.21875 
Q 5.515625 13.875 5.515625 27.296875 
Q 5.515625 40.765625 12.171875 48.375 
Q 18.84375 56 30.609375 56 
z
" id="DejaVuSans-111"/>
        <path d="M 45.40625 46.390625 
L 45.40625 75.984375 
L 54.390625 75.984375 
L 54.390625 0 
L 45.40625 0 
L 45.40625 8.203125 
Q 42.578125 3.328125 38.25 0.953125 
Q 33.9375 -1.421875 27.875 -1.421875 
Q 17.96875 -1.421875 11.734375 6.484375 
Q 5.515625 14.40625 5.515625 27.296875 
Q 5.515625 40.1875 11.734375 48.09375 
Q 17.96875 56 27.875 56 
Q 33.9375 56 38.25 53.625 
Q 42.578125 51.265625 45.40625 46.390625 
z
M 14.796875 27.296875 
Q 14.796875 17.390625 18.875 11.75 
Q 22.953125 6.109375 30.078125 6.109375 
Q 37.203125 6.109375 41.296875 11.75 
Q 45.40625 17.390625 45.40625 27.296875 
Q 45.40625 37.203125 41.296875 42.84375 
Q 37.203125 48.484375 30.078125 48.484375 
Q 22.953125 48.484375 18.875 42.84375 
Q 14.796875 37.203125 14.796875 27.296875 
z
" id="DejaVuSans-100"/>
       </defs>
       <use xlink:href="#DejaVuSans-79"/>
       <use x="78.710938" xlink:href="#DejaVuSans-117"/>
       <use x="142.089844" xlink:href="#DejaVuSans-114"/>
       <use x="183.203125" xlink:href="#DejaVuSans-32"/>
       <use x="214.990234" xlink:href="#DejaVuSans-77"/>
       <use x="301.269531" xlink:href="#DejaVuSans-101"/>
       <use x="362.792969" xlink:href="#DejaVuSans-116"/>
       <use x="402.001953" xlink:href="#DejaVuSans-104"/>
       <use x="465.380859" xlink:href="#DejaVuSans-111"/>
       <use x="526.5625" xlink:href="#DejaVuSans-100"/>
      </g>
     </g>
    </g>
    <g id="xtick_2">
     <g id="line2d_2">
      <g>
       <use style="stroke:#000000;stroke-width:0.8;" x="204.366477" xlink:href="#ma52f210802" y="244.1"/>
      </g>
     </g>
     <g id="text_2">
      <!-- Stein's -->
      <g transform="translate(175.058079 264.397266)scale(0.175 -0.175)">
       <defs>
        <path d="M 53.515625 70.515625 
L 53.515625 60.890625 
Q 47.90625 63.578125 42.921875 64.890625 
Q 37.9375 66.21875 33.296875 66.21875 
Q 25.25 66.21875 20.875 63.09375 
Q 16.5 59.96875 16.5 54.203125 
Q 16.5 49.359375 19.40625 46.890625 
Q 22.3125 44.4375 30.421875 42.921875 
L 36.375 41.703125 
Q 47.40625 39.59375 52.65625 34.296875 
Q 57.90625 29 57.90625 20.125 
Q 57.90625 9.515625 50.796875 4.046875 
Q 43.703125 -1.421875 29.984375 -1.421875 
Q 24.8125 -1.421875 18.96875 -0.25 
Q 13.140625 0.921875 6.890625 3.21875 
L 6.890625 13.375 
Q 12.890625 10.015625 18.65625 8.296875 
Q 24.421875 6.59375 29.984375 6.59375 
Q 38.421875 6.59375 43.015625 9.90625 
Q 47.609375 13.234375 47.609375 19.390625 
Q 47.609375 24.75 44.3125 27.78125 
Q 41.015625 30.8125 33.5 32.328125 
L 27.484375 33.5 
Q 16.453125 35.6875 11.515625 40.375 
Q 6.59375 45.0625 6.59375 53.421875 
Q 6.59375 63.09375 13.40625 68.65625 
Q 20.21875 74.21875 32.171875 74.21875 
Q 37.3125 74.21875 42.625 73.28125 
Q 47.953125 72.359375 53.515625 70.515625 
z
" id="DejaVuSans-83"/>
        <path d="M 9.421875 54.6875 
L 18.40625 54.6875 
L 18.40625 0 
L 9.421875 0 
z
M 9.421875 75.984375 
L 18.40625 75.984375 
L 18.40625 64.59375 
L 9.421875 64.59375 
z
" id="DejaVuSans-105"/>
        <path d="M 54.890625 33.015625 
L 54.890625 0 
L 45.90625 0 
L 45.90625 32.71875 
Q 45.90625 40.484375 42.875 44.328125 
Q 39.84375 48.1875 33.796875 48.1875 
Q 26.515625 48.1875 22.3125 43.546875 
Q 18.109375 38.921875 18.109375 30.90625 
L 18.109375 0 
L 9.078125 0 
L 9.078125 54.6875 
L 18.109375 54.6875 
L 18.109375 46.1875 
Q 21.34375 51.125 25.703125 53.5625 
Q 30.078125 56 35.796875 56 
Q 45.21875 56 50.046875 50.171875 
Q 54.890625 44.34375 54.890625 33.015625 
z
" id="DejaVuSans-110"/>
        <path d="M 17.921875 72.90625 
L 17.921875 45.796875 
L 9.625 45.796875 
L 9.625 72.90625 
z
" id="DejaVuSans-39"/>
        <path d="M 44.28125 53.078125 
L 44.28125 44.578125 
Q 40.484375 46.53125 36.375 47.5 
Q 32.28125 48.484375 27.875 48.484375 
Q 21.1875 48.484375 17.84375 46.4375 
Q 14.5 44.390625 14.5 40.28125 
Q 14.5 37.15625 16.890625 35.375 
Q 19.28125 33.59375 26.515625 31.984375 
L 29.59375 31.296875 
Q 39.15625 29.25 43.1875 25.515625 
Q 47.21875 21.78125 47.21875 15.09375 
Q 47.21875 7.46875 41.1875 3.015625 
Q 35.15625 -1.421875 24.609375 -1.421875 
Q 20.21875 -1.421875 15.453125 -0.5625 
Q 10.6875 0.296875 5.421875 2 
L 5.421875 11.28125 
Q 10.40625 8.6875 15.234375 7.390625 
Q 20.0625 6.109375 24.8125 6.109375 
Q 31.15625 6.109375 34.5625 8.28125 
Q 37.984375 10.453125 37.984375 14.40625 
Q 37.984375 18.0625 35.515625 20.015625 
Q 33.0625 21.96875 24.703125 23.78125 
L 21.578125 24.515625 
Q 13.234375 26.265625 9.515625 29.90625 
Q 5.8125 33.546875 5.8125 39.890625 
Q 5.8125 47.609375 11.28125 51.796875 
Q 16.75 56 26.8125 56 
Q 31.78125 56 36.171875 55.265625 
Q 40.578125 54.546875 44.28125 53.078125 
z
" id="DejaVuSans-115"/>
       </defs>
       <use xlink:href="#DejaVuSans-83"/>
       <use x="63.476562" xlink:href="#DejaVuSans-116"/>
       <use x="102.685547" xlink:href="#DejaVuSans-101"/>
       <use x="164.208984" xlink:href="#DejaVuSans-105"/>
       <use x="191.992188" xlink:href="#DejaVuSans-110"/>
       <use x="255.371094" xlink:href="#DejaVuSans-39"/>
       <use x="282.861328" xlink:href="#DejaVuSans-115"/>
      </g>
     </g>
    </g>
    <g id="xtick_3">
     <g id="line2d_3">
      <g>
       <use style="stroke:#000000;stroke-width:0.8;" x="297.978461" xlink:href="#ma52f210802" y="244.1"/>
      </g>
     </g>
     <g id="text_3">
      <!-- Entry-wise -->
      <g transform="translate(252.165375 264.397266)scale(0.175 -0.175)">
       <defs>
        <path d="M 9.8125 72.90625 
L 55.90625 72.90625 
L 55.90625 64.59375 
L 19.671875 64.59375 
L 19.671875 43.015625 
L 54.390625 43.015625 
L 54.390625 34.71875 
L 19.671875 34.71875 
L 19.671875 8.296875 
L 56.78125 8.296875 
L 56.78125 0 
L 9.8125 0 
z
" id="DejaVuSans-69"/>
        <path d="M 32.171875 -5.078125 
Q 28.375 -14.84375 24.75 -17.8125 
Q 21.140625 -20.796875 15.09375 -20.796875 
L 7.90625 -20.796875 
L 7.90625 -13.28125 
L 13.1875 -13.28125 
Q 16.890625 -13.28125 18.9375 -11.515625 
Q 21 -9.765625 23.484375 -3.21875 
L 25.09375 0.875 
L 2.984375 54.6875 
L 12.5 54.6875 
L 29.59375 11.921875 
L 46.6875 54.6875 
L 56.203125 54.6875 
z
" id="DejaVuSans-121"/>
        <path d="M 4.890625 31.390625 
L 31.203125 31.390625 
L 31.203125 23.390625 
L 4.890625 23.390625 
z
" id="DejaVuSans-45"/>
        <path d="M 4.203125 54.6875 
L 13.1875 54.6875 
L 24.421875 12.015625 
L 35.59375 54.6875 
L 46.1875 54.6875 
L 57.421875 12.015625 
L 68.609375 54.6875 
L 77.59375 54.6875 
L 63.28125 0 
L 52.6875 0 
L 40.921875 44.828125 
L 29.109375 0 
L 18.5 0 
z
" id="DejaVuSans-119"/>
       </defs>
       <use xlink:href="#DejaVuSans-69"/>
       <use x="63.183594" xlink:href="#DejaVuSans-110"/>
       <use x="126.5625" xlink:href="#DejaVuSans-116"/>
       <use x="165.771484" xlink:href="#DejaVuSans-114"/>
       <use x="206.884766" xlink:href="#DejaVuSans-121"/>
       <use x="264.314453" xlink:href="#DejaVuSans-45"/>
       <use x="300.398438" xlink:href="#DejaVuSans-119"/>
       <use x="382.185547" xlink:href="#DejaVuSans-105"/>
       <use x="409.96875" xlink:href="#DejaVuSans-115"/>
       <use x="462.068359" xlink:href="#DejaVuSans-101"/>
      </g>
     </g>
    </g>
   </g>
   <g id="matplotlib.axis_2">
    <g id="ytick_1">
     <g id="line2d_4">
      <defs>
       <path d="M 0 0 
L -3.5 0 
" id="m6286d43f96" style="stroke:#000000;stroke-width:0.8;"/>
      </defs>
      <g>
       <use style="stroke:#000000;stroke-width:0.8;" x="75.65" xlink:href="#m6286d43f96" y="240.229685"/>
      </g>
     </g>
     <g id="text_4">
      <!-- 0.0 -->
      <g transform="translate(40.819531 246.878317)scale(0.175 -0.175)">
       <defs>
        <path d="M 31.78125 66.40625 
Q 24.171875 66.40625 20.328125 58.90625 
Q 16.5 51.421875 16.5 36.375 
Q 16.5 21.390625 20.328125 13.890625 
Q 24.171875 6.390625 31.78125 6.390625 
Q 39.453125 6.390625 43.28125 13.890625 
Q 47.125 21.390625 47.125 36.375 
Q 47.125 51.421875 43.28125 58.90625 
Q 39.453125 66.40625 31.78125 66.40625 
z
M 31.78125 74.21875 
Q 44.046875 74.21875 50.515625 64.515625 
Q 56.984375 54.828125 56.984375 36.375 
Q 56.984375 17.96875 50.515625 8.265625 
Q 44.046875 -1.421875 31.78125 -1.421875 
Q 19.53125 -1.421875 13.0625 8.265625 
Q 6.59375 17.96875 6.59375 36.375 
Q 6.59375 54.828125 13.0625 64.515625 
Q 19.53125 74.21875 31.78125 74.21875 
z
" id="DejaVuSans-48"/>
        <path d="M 10.6875 12.40625 
L 21 12.40625 
L 21 0 
L 10.6875 0 
z
" id="DejaVuSans-46"/>
       </defs>
       <use xlink:href="#DejaVuSans-48"/>
       <use x="63.623047" xlink:href="#DejaVuSans-46"/>
       <use x="95.410156" xlink:href="#DejaVuSans-48"/>
      </g>
     </g>
    </g>
    <g id="ytick_2">
     <g id="line2d_5">
      <g>
       <use style="stroke:#000000;stroke-width:0.8;" x="75.65" xlink:href="#m6286d43f96" y="202.658771"/>
      </g>
     </g>
     <g id="text_5">
      <!-- 0.1 -->
      <g transform="translate(40.819531 209.307404)scale(0.175 -0.175)">
       <defs>
        <path d="M 12.40625 8.296875 
L 28.515625 8.296875 
L 28.515625 63.921875 
L 10.984375 60.40625 
L 10.984375 69.390625 
L 28.421875 72.90625 
L 38.28125 72.90625 
L 38.28125 8.296875 
L 54.390625 8.296875 
L 54.390625 0 
L 12.40625 0 
z
" id="DejaVuSans-49"/>
       </defs>
       <use xlink:href="#DejaVuSans-48"/>
       <use x="63.623047" xlink:href="#DejaVuSans-46"/>
       <use x="95.410156" xlink:href="#DejaVuSans-49"/>
      </g>
     </g>
    </g>
    <g id="ytick_3">
     <g id="line2d_6">
      <g>
       <use style="stroke:#000000;stroke-width:0.8;" x="75.65" xlink:href="#m6286d43f96" y="165.087857"/>
      </g>
     </g>
     <g id="text_6">
      <!-- 0.2 -->
      <g transform="translate(40.819531 171.73649)scale(0.175 -0.175)">
       <defs>
        <path d="M 19.1875 8.296875 
L 53.609375 8.296875 
L 53.609375 0 
L 7.328125 0 
L 7.328125 8.296875 
Q 12.9375 14.109375 22.625 23.890625 
Q 32.328125 33.6875 34.8125 36.53125 
Q 39.546875 41.84375 41.421875 45.53125 
Q 43.3125 49.21875 43.3125 52.78125 
Q 43.3125 58.59375 39.234375 62.25 
Q 35.15625 65.921875 28.609375 65.921875 
Q 23.96875 65.921875 18.8125 64.3125 
Q 13.671875 62.703125 7.8125 59.421875 
L 7.8125 69.390625 
Q 13.765625 71.78125 18.9375 73 
Q 24.125 74.21875 28.421875 74.21875 
Q 39.75 74.21875 46.484375 68.546875 
Q 53.21875 62.890625 53.21875 53.421875 
Q 53.21875 48.921875 51.53125 44.890625 
Q 49.859375 40.875 45.40625 35.40625 
Q 44.1875 33.984375 37.640625 27.21875 
Q 31.109375 20.453125 19.1875 8.296875 
z
" id="DejaVuSans-50"/>
       </defs>
       <use xlink:href="#DejaVuSans-48"/>
       <use x="63.623047" xlink:href="#DejaVuSans-46"/>
       <use x="95.410156" xlink:href="#DejaVuSans-50"/>
      </g>
     </g>
    </g>
    <g id="ytick_4">
     <g id="line2d_7">
      <g>
       <use style="stroke:#000000;stroke-width:0.8;" x="75.65" xlink:href="#m6286d43f96" y="127.516944"/>
      </g>
     </g>
     <g id="text_7">
      <!-- 0.3 -->
      <g transform="translate(40.819531 134.165576)scale(0.175 -0.175)">
       <defs>
        <path d="M 40.578125 39.3125 
Q 47.65625 37.796875 51.625 33 
Q 55.609375 28.21875 55.609375 21.1875 
Q 55.609375 10.40625 48.1875 4.484375 
Q 40.765625 -1.421875 27.09375 -1.421875 
Q 22.515625 -1.421875 17.65625 -0.515625 
Q 12.796875 0.390625 7.625 2.203125 
L 7.625 11.71875 
Q 11.71875 9.328125 16.59375 8.109375 
Q 21.484375 6.890625 26.8125 6.890625 
Q 36.078125 6.890625 40.9375 10.546875 
Q 45.796875 14.203125 45.796875 21.1875 
Q 45.796875 27.640625 41.28125 31.265625 
Q 36.765625 34.90625 28.71875 34.90625 
L 20.21875 34.90625 
L 20.21875 43.015625 
L 29.109375 43.015625 
Q 36.375 43.015625 40.234375 45.921875 
Q 44.09375 48.828125 44.09375 54.296875 
Q 44.09375 59.90625 40.109375 62.90625 
Q 36.140625 65.921875 28.71875 65.921875 
Q 24.65625 65.921875 20.015625 65.03125 
Q 15.375 64.15625 9.8125 62.3125 
L 9.8125 71.09375 
Q 15.4375 72.65625 20.34375 73.4375 
Q 25.25 74.21875 29.59375 74.21875 
Q 40.828125 74.21875 47.359375 69.109375 
Q 53.90625 64.015625 53.90625 55.328125 
Q 53.90625 49.265625 50.4375 45.09375 
Q 46.96875 40.921875 40.578125 39.3125 
z
" id="DejaVuSans-51"/>
       </defs>
       <use xlink:href="#DejaVuSans-48"/>
       <use x="63.623047" xlink:href="#DejaVuSans-46"/>
       <use x="95.410156" xlink:href="#DejaVuSans-51"/>
      </g>
     </g>
    </g>
    <g id="ytick_5">
     <g id="line2d_8">
      <g>
       <use style="stroke:#000000;stroke-width:0.8;" x="75.65" xlink:href="#m6286d43f96" y="89.94603"/>
      </g>
     </g>
     <g id="text_8">
      <!-- 0.4 -->
      <g transform="translate(40.819531 96.594663)scale(0.175 -0.175)">
       <defs>
        <path d="M 37.796875 64.3125 
L 12.890625 25.390625 
L 37.796875 25.390625 
z
M 35.203125 72.90625 
L 47.609375 72.90625 
L 47.609375 25.390625 
L 58.015625 25.390625 
L 58.015625 17.1875 
L 47.609375 17.1875 
L 47.609375 0 
L 37.796875 0 
L 37.796875 17.1875 
L 4.890625 17.1875 
L 4.890625 26.703125 
z
" id="DejaVuSans-52"/>
       </defs>
       <use xlink:href="#DejaVuSans-48"/>
       <use x="63.623047" xlink:href="#DejaVuSans-46"/>
       <use x="95.410156" xlink:href="#DejaVuSans-52"/>
      </g>
     </g>
    </g>
    <g id="ytick_6">
     <g id="line2d_9">
      <g>
       <use style="stroke:#000000;stroke-width:0.8;" x="75.65" xlink:href="#m6286d43f96" y="52.375116"/>
      </g>
     </g>
     <g id="text_9">
      <!-- 0.5 -->
      <g transform="translate(40.819531 59.023749)scale(0.175 -0.175)">
       <defs>
        <path d="M 10.796875 72.90625 
L 49.515625 72.90625 
L 49.515625 64.59375 
L 19.828125 64.59375 
L 19.828125 46.734375 
Q 21.96875 47.46875 24.109375 47.828125 
Q 26.265625 48.1875 28.421875 48.1875 
Q 40.625 48.1875 47.75 41.5 
Q 54.890625 34.8125 54.890625 23.390625 
Q 54.890625 11.625 47.5625 5.09375 
Q 40.234375 -1.421875 26.90625 -1.421875 
Q 22.3125 -1.421875 17.546875 -0.640625 
Q 12.796875 0.140625 7.71875 1.703125 
L 7.71875 11.625 
Q 12.109375 9.234375 16.796875 8.0625 
Q 21.484375 6.890625 26.703125 6.890625 
Q 35.15625 6.890625 40.078125 11.328125 
Q 45.015625 15.765625 45.015625 23.390625 
Q 45.015625 31 40.078125 35.4375 
Q 35.15625 39.890625 26.703125 39.890625 
Q 22.75 39.890625 18.8125 39.015625 
Q 14.890625 38.140625 10.796875 36.28125 
z
" id="DejaVuSans-53"/>
       </defs>
       <use xlink:href="#DejaVuSans-48"/>
       <use x="63.623047" xlink:href="#DejaVuSans-46"/>
       <use x="95.410156" xlink:href="#DejaVuSans-53"/>
      </g>
     </g>
    </g>
    <g id="text_10">
     <!-- Estimation Error -->
     <g transform="translate(33.180078 202.198633)rotate(-90)scale(0.175 -0.175)">
      <defs>
       <path d="M 52 44.1875 
Q 55.375 50.25 60.0625 53.125 
Q 64.75 56 71.09375 56 
Q 79.640625 56 84.28125 50.015625 
Q 88.921875 44.046875 88.921875 33.015625 
L 88.921875 0 
L 79.890625 0 
L 79.890625 32.71875 
Q 79.890625 40.578125 77.09375 44.375 
Q 74.3125 48.1875 68.609375 48.1875 
Q 61.625 48.1875 57.5625 43.546875 
Q 53.515625 38.921875 53.515625 30.90625 
L 53.515625 0 
L 44.484375 0 
L 44.484375 32.71875 
Q 44.484375 40.625 41.703125 44.40625 
Q 38.921875 48.1875 33.109375 48.1875 
Q 26.21875 48.1875 22.15625 43.53125 
Q 18.109375 38.875 18.109375 30.90625 
L 18.109375 0 
L 9.078125 0 
L 9.078125 54.6875 
L 18.109375 54.6875 
L 18.109375 46.1875 
Q 21.1875 51.21875 25.484375 53.609375 
Q 29.78125 56 35.6875 56 
Q 41.65625 56 45.828125 52.96875 
Q 50 49.953125 52 44.1875 
z
" id="DejaVuSans-109"/>
       <path d="M 34.28125 27.484375 
Q 23.390625 27.484375 19.1875 25 
Q 14.984375 22.515625 14.984375 16.5 
Q 14.984375 11.71875 18.140625 8.90625 
Q 21.296875 6.109375 26.703125 6.109375 
Q 34.1875 6.109375 38.703125 11.40625 
Q 43.21875 16.703125 43.21875 25.484375 
L 43.21875 27.484375 
z
M 52.203125 31.203125 
L 52.203125 0 
L 43.21875 0 
L 43.21875 8.296875 
Q 40.140625 3.328125 35.546875 0.953125 
Q 30.953125 -1.421875 24.3125 -1.421875 
Q 15.921875 -1.421875 10.953125 3.296875 
Q 6 8.015625 6 15.921875 
Q 6 25.140625 12.171875 29.828125 
Q 18.359375 34.515625 30.609375 34.515625 
L 43.21875 34.515625 
L 43.21875 35.40625 
Q 43.21875 41.609375 39.140625 45 
Q 35.0625 48.390625 27.6875 48.390625 
Q 23 48.390625 18.546875 47.265625 
Q 14.109375 46.140625 10.015625 43.890625 
L 10.015625 52.203125 
Q 14.9375 54.109375 19.578125 55.046875 
Q 24.21875 56 28.609375 56 
Q 40.484375 56 46.34375 49.84375 
Q 52.203125 43.703125 52.203125 31.203125 
z
" id="DejaVuSans-97"/>
      </defs>
      <use xlink:href="#DejaVuSans-69"/>
      <use x="63.183594" xlink:href="#DejaVuSans-115"/>
      <use x="115.283203" xlink:href="#DejaVuSans-116"/>
      <use x="154.492188" xlink:href="#DejaVuSans-105"/>
      <use x="182.275391" xlink:href="#DejaVuSans-109"/>
      <use x="279.6875" xlink:href="#DejaVuSans-97"/>
      <use x="340.966797" xlink:href="#DejaVuSans-116"/>
      <use x="380.175781" xlink:href="#DejaVuSans-105"/>
      <use x="407.958984" xlink:href="#DejaVuSans-111"/>
      <use x="469.140625" xlink:href="#DejaVuSans-110"/>
      <use x="532.519531" xlink:href="#DejaVuSans-32"/>
      <use x="564.306641" xlink:href="#DejaVuSans-69"/>
      <use x="627.490234" xlink:href="#DejaVuSans-114"/>
      <use x="666.853516" xlink:href="#DejaVuSans-114"/>
      <use x="705.716797" xlink:href="#DejaVuSans-111"/>
      <use x="766.898438" xlink:href="#DejaVuSans-114"/>
     </g>
    </g>
   </g>
   <g id="LineCollection_1">
    <path clip-path="url(#p6c365fc70f)" d="M 99.052996 141.770548 
L 122.455992 141.770548 
" style="fill:none;stroke:#1f77b4;stroke-width:1.5;"/>
    <path clip-path="url(#p6c365fc70f)" d="M 192.664979 29.136364 
L 216.067975 29.136364 
" style="fill:none;stroke:#1f77b4;stroke-width:1.5;"/>
    <path clip-path="url(#p6c365fc70f)" d="M 286.276963 142.871693 
L 309.679959 142.871693 
" style="fill:none;stroke:#1f77b4;stroke-width:1.5;"/>
   </g>
   <g id="LineCollection_2">
    <path clip-path="url(#p6c365fc70f)" d="M 99.052996 233.863636 
L 122.455992 233.863636 
" style="fill:none;stroke:#1f77b4;stroke-width:1.5;"/>
    <path clip-path="url(#p6c365fc70f)" d="M 192.664979 214.522508 
L 216.067975 214.522508 
" style="fill:none;stroke:#1f77b4;stroke-width:1.5;"/>
    <path clip-path="url(#p6c365fc70f)" d="M 286.276963 206.95807 
L 309.679959 206.95807 
" style="fill:none;stroke:#1f77b4;stroke-width:1.5;"/>
   </g>
   <g id="LineCollection_3">
    <path clip-path="url(#p6c365fc70f)" d="M 110.754494 233.863636 
L 110.754494 141.770548 
" style="fill:none;stroke:#1f77b4;stroke-width:1.5;"/>
    <path clip-path="url(#p6c365fc70f)" d="M 204.366477 214.522508 
L 204.366477 29.136364 
" style="fill:none;stroke:#1f77b4;stroke-width:1.5;"/>
    <path clip-path="url(#p6c365fc70f)" d="M 297.978461 206.95807 
L 297.978461 142.871693 
" style="fill:none;stroke:#1f77b4;stroke-width:1.5;"/>
   </g>
   <g id="patch_3">
    <path d="M 75.65 244.1 
L 75.65 18.9 
" style="fill:none;stroke:#000000;stroke-linecap:square;stroke-linejoin:miter;stroke-width:0.8;"/>
   </g>
   <g id="patch_4">
    <path d="M 333.082955 244.1 
L 333.082955 18.9 
" style="fill:none;stroke:#000000;stroke-linecap:square;stroke-linejoin:miter;stroke-width:0.8;"/>
   </g>
   <g id="patch_5">
    <path d="M 75.65 244.1 
L 333.082955 244.1 
" style="fill:none;stroke:#000000;stroke-linecap:square;stroke-linejoin:miter;stroke-width:0.8;"/>
   </g>
   <g id="patch_6">
    <path d="M 75.65 18.9 
L 333.082955 18.9 
" style="fill:none;stroke:#000000;stroke-linecap:square;stroke-linejoin:miter;stroke-width:0.8;"/>
   </g>
  </g>
 </g>
 <defs>
  <clipPath id="p6c365fc70f">
   <rect height="225.2" width="257.432955" x="75.65" y="18.9"/>
  </clipPath>
 </defs>
</svg>
