<?xml version="1.0" encoding="utf-8" standalone="no"?>
<!DOCTYPE svg PUBLIC "-//W3C//DTD SVG 1.1//EN"
  "http://www.w3.org/Graphics/SVG/1.1/DTD/svg11.dtd">
<!-- Created with matplotlib (https://matplotlib.org/) -->
<svg height="288pt" version="1.1" viewBox="0 0 360 288" width="360pt" xmlns="http://www.w3.org/2000/svg" xmlns:xlink="http://www.w3.org/1999/xlink">
 <metadata>
  <rdf:RDF xmlns:cc="http://creativecommons.org/ns#" xmlns:dc="http://purl.org/dc/elements/1.1/" xmlns:rdf="http://www.w3.org/1999/02/22-rdf-syntax-ns#">
   <cc:Work>
    <dc:type rdf:resource="http://purl.org/dc/dcmitype/StillImage"/>
    <dc:date>2022-09-25T00:48:14.010160</dc:date>
    <dc:format>image/svg+xml</dc:format>
    <dc:creator>
     <cc:Agent>
      <dc:title>Matplotlib v3.3.4, https://matplotlib.org/</dc:title>
     </cc:Agent>
    </dc:creator>
   </cc:Work>
  </rdf:RDF>
 </metadata>
 <defs>
  <style type="text/css">*{stroke-linecap:butt;stroke-linejoin:round;}</style>
 </defs>
 <g id="figure_1">
  <g id="patch_1">
   <path d="M 0 288 
L 360 288 
L 360 0 
L 0 0 
z
" style="fill:none;"/>
  </g>
  <g id="axes_1">
   <g id="patch_2">
    <path d="M 75.65 244.1 
L 333.082955 244.1 
L 333.082955 18.9 
L 75.65 18.9 
z
" style="fill:#ffffff;"/>
   </g>
   <g id="PolyCollection_1">
    <path clip-path="url(#pc928a03210)" d="M 125.230115 233.863636 
L 96.278873 233.863636 
L 95.533561 233.37663 
L 94.797918 232.889623 
L 94.076482 232.402616 
L 93.373776 231.915609 
L 92.694239 231.428602 
L 92.042162 230.941596 
L 91.421623 230.454589 
L 90.836422 229.967582 
L 90.29002 229.480575 
L 89.785481 228.993569 
L 89.325422 228.506562 
L 88.911965 228.019555 
L 88.5467 227.532548 
L 88.230654 227.045541 
L 87.964272 226.558535 
L 87.747404 226.071528 
L 87.579303 225.584521 
L 87.45864 225.097514 
L 87.383516 224.610508 
L 87.351498 224.123501 
L 87.359656 223.636494 
L 87.404614 223.149487 
L 87.482602 222.66248 
L 87.589526 222.175474 
L 87.721038 221.688467 
L 87.872607 221.20146 
L 88.039605 220.714453 
L 88.217383 220.227447 
L 88.401355 219.74044 
L 88.587077 219.253433 
L 88.770327 218.766426 
L 88.947177 218.279419 
L 89.114062 217.792413 
L 89.267837 217.305406 
L 89.405834 216.818399 
L 89.525899 216.331392 
L 89.626426 215.844385 
L 89.706375 215.357379 
L 89.765281 214.870372 
L 89.80325 214.383365 
L 89.82094 213.896358 
L 89.819534 213.409352 
L 89.800701 212.922345 
L 89.766545 212.435338 
L 89.719547 211.948331 
L 89.662495 211.461324 
L 89.598418 210.974318 
L 89.530503 210.487311 
L 89.462019 210.000304 
L 89.396237 209.513297 
L 89.336356 209.026291 
L 89.285422 208.539284 
L 89.246268 208.052277 
L 89.22145 207.56527 
L 89.213194 207.078263 
L 89.223356 206.591257 
L 89.253389 206.10425 
L 89.304326 205.617243 
L 89.376769 205.130236 
L 89.470897 204.64323 
L 89.586473 204.156223 
L 89.722876 203.669216 
L 89.879133 203.182209 
L 90.05396 202.695202 
L 90.245811 202.208196 
L 90.452934 201.721189 
L 90.673426 201.234182 
L 90.905292 200.747175 
L 91.146505 200.260169 
L 91.395061 199.773162 
L 91.649036 199.286155 
L 91.906633 198.799148 
L 92.166224 198.312141 
L 92.426394 197.825135 
L 92.685963 197.338128 
L 92.944014 196.851121 
L 93.199907 196.364114 
L 93.453281 195.877107 
L 93.70406 195.390101 
L 93.952435 194.903094 
L 94.198858 194.416087 
L 94.444011 193.92908 
L 94.688786 193.442074 
L 94.934245 192.955067 
L 95.181592 192.46806 
L 95.432126 191.981053 
L 95.687207 191.494046 
L 95.948211 191.00704 
L 96.216491 190.520033 
L 96.493333 190.033026 
L 96.779924 189.546019 
L 97.07731 189.059013 
L 97.386372 188.572006 
L 97.707793 188.084999 
L 98.042038 187.597992 
L 98.389337 187.110985 
L 98.749675 186.623979 
L 99.122784 186.136972 
L 99.508144 185.649965 
L 122.000844 185.649965 
L 122.000844 185.649965 
L 122.386204 186.136972 
L 122.759313 186.623979 
L 123.11965 187.110985 
L 123.46695 187.597992 
L 123.801194 188.084999 
L 124.122615 188.572006 
L 124.431677 189.059013 
L 124.729064 189.546019 
L 125.015654 190.033026 
L 125.292497 190.520033 
L 125.560776 191.00704 
L 125.821781 191.494046 
L 126.076862 191.981053 
L 126.327396 192.46806 
L 126.574742 192.955067 
L 126.820202 193.442074 
L 127.064976 193.92908 
L 127.31013 194.416087 
L 127.556552 194.903094 
L 127.804928 195.390101 
L 128.055706 195.877107 
L 128.309081 196.364114 
L 128.564974 196.851121 
L 128.823025 197.338128 
L 129.082594 197.825135 
L 129.342763 198.312141 
L 129.602355 198.799148 
L 129.859951 199.286155 
L 130.113926 199.773162 
L 130.362483 200.260169 
L 130.603696 200.747175 
L 130.835562 201.234182 
L 131.056054 201.721189 
L 131.263177 202.208196 
L 131.455028 202.695202 
L 131.629855 203.182209 
L 131.786112 203.669216 
L 131.922515 204.156223 
L 132.038091 204.64323 
L 132.132218 205.130236 
L 132.204662 205.617243 
L 132.255599 206.10425 
L 132.285632 206.591257 
L 132.295794 207.078263 
L 132.287537 207.56527 
L 132.262719 208.052277 
L 132.223566 208.539284 
L 132.172632 209.026291 
L 132.11275 209.513297 
L 132.046969 210.000304 
L 131.978485 210.487311 
L 131.910569 210.974318 
L 131.846492 211.461324 
L 131.789441 211.948331 
L 131.742442 212.435338 
L 131.708287 212.922345 
L 131.689454 213.409352 
L 131.688048 213.896358 
L 131.705738 214.383365 
L 131.743707 214.870372 
L 131.802613 215.357379 
L 131.882562 215.844385 
L 131.983088 216.331392 
L 132.103153 216.818399 
L 132.24115 217.305406 
L 132.394926 217.792413 
L 132.56181 218.279419 
L 132.738661 218.766426 
L 132.921911 219.253433 
L 133.107633 219.74044 
L 133.291604 220.227447 
L 133.469382 220.714453 
L 133.63638 221.20146 
L 133.78795 221.688467 
L 133.919462 222.175474 
L 134.026386 222.66248 
L 134.104374 223.149487 
L 134.149331 223.636494 
L 134.15749 224.123501 
L 134.125472 224.610508 
L 134.050348 225.097514 
L 133.929684 225.584521 
L 133.761584 226.071528 
L 133.544715 226.558535 
L 133.278333 227.045541 
L 132.962288 227.532548 
L 132.597023 228.019555 
L 132.183566 228.506562 
L 131.723507 228.993569 
L 131.218968 229.480575 
L 130.672565 229.967582 
L 130.087364 230.454589 
L 129.466825 230.941596 
L 128.814749 231.428602 
L 128.135212 231.915609 
L 127.432506 232.402616 
L 126.71107 232.889623 
L 125.975426 233.37663 
L 125.230115 233.863636 
z
" style="fill:#1f77b4;fill-opacity:0.3;"/>
   </g>
   <g id="PolyCollection_2">
    <path clip-path="url(#pc928a03210)" d="M 208.778236 205.951413 
L 199.954719 205.951413 
L 199.54612 204.165402 
L 199.107358 202.379392 
L 198.637336 200.593381 
L 198.135275 198.80737 
L 197.600786 197.02136 
L 197.033933 195.235349 
L 196.435286 193.449339 
L 195.805964 191.663328 
L 195.147658 189.877317 
L 194.462636 188.091307 
L 193.753733 186.305296 
L 193.024322 184.519286 
L 192.278262 182.733275 
L 191.519844 180.947264 
L 190.753713 179.161254 
L 189.984792 177.375243 
L 189.218192 175.589233 
L 188.459135 173.803222 
L 187.712865 172.017211 
L 186.984578 170.231201 
L 186.279351 168.44519 
L 185.602078 166.65918 
L 184.957424 164.873169 
L 184.349774 163.087159 
L 183.783193 161.301148 
L 183.261389 159.515137 
L 182.787677 157.729127 
L 182.364936 155.943116 
L 181.995572 154.157106 
L 181.681469 152.371095 
L 181.423945 150.585084 
L 181.223702 148.799074 
L 181.080777 147.013063 
L 180.994504 145.227053 
L 180.963481 143.441042 
L 180.985558 141.655031 
L 181.057838 139.869021 
L 181.176706 138.08301 
L 181.33789 136.297 
L 181.536538 134.510989 
L 181.767339 132.724978 
L 182.024658 130.938968 
L 182.302698 129.152957 
L 182.595678 127.366947 
L 182.898017 125.580936 
L 183.204521 123.794925 
L 183.510557 122.008915 
L 183.812208 120.222904 
L 184.106404 118.436894 
L 184.391015 116.650883 
L 184.66491 114.864872 
L 184.927962 113.078862 
L 185.181024 111.292851 
L 185.425851 109.506841 
L 185.664991 107.72083 
L 185.901639 105.934819 
L 186.139469 104.148809 
L 186.382445 102.362798 
L 186.634634 100.576788 
L 186.900006 98.790777 
L 187.182256 97.004766 
L 187.48464 95.218756 
L 187.809828 93.432745 
L 188.159796 91.646735 
L 188.535739 89.860724 
L 188.938028 88.074713 
L 189.366189 86.288703 
L 189.818923 84.502692 
L 190.29415 82.716682 
L 190.78908 80.930671 
L 191.300307 79.14466 
L 191.823924 77.35865 
L 192.355643 75.572639 
L 192.890933 73.786629 
L 193.425157 72.000618 
L 193.953709 70.214607 
L 194.472145 68.428597 
L 194.976315 66.642586 
L 195.462468 64.856576 
L 195.927354 63.070565 
L 196.368303 61.284554 
L 196.783288 59.498544 
L 197.170957 57.712533 
L 197.530655 55.926523 
L 197.862412 54.140512 
L 198.166914 52.354501 
L 198.445454 50.568491 
L 198.699859 48.78248 
L 198.932404 46.99647 
L 199.145716 45.210459 
L 199.342659 43.424448 
L 199.526232 41.638438 
L 199.699447 39.852427 
L 199.865229 38.066417 
L 200.026313 36.280406 
L 200.185161 34.494395 
L 200.343889 32.708385 
L 200.504217 30.922374 
L 200.667432 29.136364 
L 208.065523 29.136364 
L 208.065523 29.136364 
L 208.228738 30.922374 
L 208.389065 32.708385 
L 208.547794 34.494395 
L 208.706642 36.280406 
L 208.867726 38.066417 
L 209.033507 39.852427 
L 209.206723 41.638438 
L 209.390295 43.424448 
L 209.587239 45.210459 
L 209.80055 46.99647 
L 210.033096 48.78248 
L 210.2875 50.568491 
L 210.56604 52.354501 
L 210.870543 54.140512 
L 211.202299 55.926523 
L 211.561997 57.712533 
L 211.949667 59.498544 
L 212.364651 61.284554 
L 212.805601 63.070565 
L 213.270487 64.856576 
L 213.756639 66.642586 
L 214.260809 68.428597 
L 214.779246 70.214607 
L 215.307797 72.000618 
L 215.842021 73.786629 
L 216.377312 75.572639 
L 216.909031 77.35865 
L 217.432647 79.14466 
L 217.943875 80.930671 
L 218.438804 82.716682 
L 218.914031 84.502692 
L 219.366765 86.288703 
L 219.794927 88.074713 
L 220.197216 89.860724 
L 220.573159 91.646735 
L 220.923126 93.432745 
L 221.248314 95.218756 
L 221.550698 97.004766 
L 221.832949 98.790777 
L 222.098321 100.576788 
L 222.35051 102.362798 
L 222.593486 104.148809 
L 222.831315 105.934819 
L 223.067963 107.72083 
L 223.307103 109.506841 
L 223.551931 111.292851 
L 223.804993 113.078862 
L 224.068045 114.864872 
L 224.341939 116.650883 
L 224.626551 118.436894 
L 224.920747 120.222904 
L 225.222398 122.008915 
L 225.528434 123.794925 
L 225.834938 125.580936 
L 226.137277 127.366947 
L 226.430256 129.152957 
L 226.708296 130.938968 
L 226.965615 132.724978 
L 227.196416 134.510989 
L 227.395065 136.297 
L 227.556248 138.08301 
L 227.675117 139.869021 
L 227.747396 141.655031 
L 227.769473 143.441042 
L 227.738451 145.227053 
L 227.652178 147.013063 
L 227.509252 148.799074 
L 227.309009 150.585084 
L 227.051486 152.371095 
L 226.737383 154.157106 
L 226.368018 155.943116 
L 225.945278 157.729127 
L 225.471565 159.515137 
L 224.949762 161.301148 
L 224.383181 163.087159 
L 223.77553 164.873169 
L 223.130876 166.65918 
L 222.453604 168.44519 
L 221.748376 170.231201 
L 221.02009 172.017211 
L 220.27382 173.803222 
L 219.514762 175.589233 
L 218.748163 177.375243 
L 217.979241 179.161254 
L 217.213111 180.947264 
L 216.454693 182.733275 
L 215.708633 184.519286 
L 214.979221 186.305296 
L 214.270319 188.091307 
L 213.585296 189.877317 
L 212.92699 191.663328 
L 212.297668 193.449339 
L 211.699022 195.235349 
L 211.132169 197.02136 
L 210.59768 198.80737 
L 210.095619 200.593381 
L 209.625597 202.379392 
L 209.186834 204.165402 
L 208.778236 205.951413 
z
" style="fill:#1f77b4;fill-opacity:0.3;"/>
   </g>
   <g id="PolyCollection_3">
    <path clip-path="url(#pc928a03210)" d="M 305.092406 227.291841 
L 290.864516 227.291841 
L 290.356871 226.848169 
L 289.830083 226.404497 
L 289.284285 225.960825 
L 288.719755 225.517153 
L 288.136962 225.073481 
L 287.536614 224.62981 
L 286.919706 224.186138 
L 286.287563 223.742466 
L 285.641876 223.298794 
L 284.984729 222.855122 
L 284.318614 222.41145 
L 283.646432 221.967778 
L 282.971477 221.524106 
L 282.297404 221.080435 
L 281.628181 220.636763 
L 280.968024 220.193091 
L 280.321321 219.749419 
L 279.692539 219.305747 
L 279.086124 218.862075 
L 278.506398 218.418403 
L 277.95745 217.974731 
L 277.443035 217.53106 
L 276.966476 217.087388 
L 276.530575 216.643716 
L 276.137551 216.200044 
L 275.788979 215.756372 
L 275.485766 215.3127 
L 275.22814 214.869028 
L 275.015665 214.425356 
L 274.847281 213.981685 
L 274.721362 213.538013 
L 274.635798 213.094341 
L 274.588092 212.650669 
L 274.575465 212.206997 
L 274.594975 211.763325 
L 274.643636 211.319653 
L 274.718534 210.875981 
L 274.81694 210.43231 
L 274.936403 209.988638 
L 275.074836 209.544966 
L 275.230576 209.101294 
L 275.402428 208.657622 
L 275.58968 208.21395 
L 275.792096 207.770278 
L 276.009891 207.326606 
L 276.243677 206.882935 
L 276.494398 206.439263 
L 276.763243 205.995591 
L 277.051555 205.551919 
L 277.360725 205.108247 
L 277.692093 204.664575 
L 278.046843 204.220903 
L 278.425912 203.777231 
L 278.8299 203.33356 
L 279.259003 202.889888 
L 279.712952 202.446216 
L 280.19098 202.002544 
L 280.691798 201.558872 
L 281.213593 201.1152 
L 281.754043 200.671528 
L 282.310355 200.227856 
L 282.879305 199.784185 
L 283.457308 199.340513 
L 284.040482 198.896841 
L 284.624735 198.453169 
L 285.205853 198.009497 
L 285.779585 197.565825 
L 286.341744 197.122153 
L 286.888291 196.678481 
L 287.41543 196.23481 
L 287.919687 195.791138 
L 288.397988 195.347466 
L 288.847726 194.903794 
L 289.266817 194.460122 
L 289.653746 194.01645 
L 290.007598 193.572778 
L 290.328073 193.129106 
L 290.615491 192.685435 
L 290.870778 192.241763 
L 291.095438 191.798091 
L 291.291512 191.354419 
L 291.461519 190.910747 
L 291.608389 190.467075 
L 291.735383 190.023403 
L 291.846008 189.579731 
L 291.94392 189.13606 
L 292.032832 188.692388 
L 292.116415 188.248716 
L 292.198203 187.805044 
L 292.281513 187.361372 
L 292.369358 186.9177 
L 292.464387 186.474028 
L 292.568823 186.030356 
L 292.684427 185.586685 
L 292.812475 185.143013 
L 292.953741 184.699341 
L 293.108512 184.255669 
L 293.276602 183.811997 
L 293.457386 183.368325 
L 302.499535 183.368325 
L 302.499535 183.368325 
L 302.68032 183.811997 
L 302.848409 184.255669 
L 303.00318 184.699341 
L 303.144447 185.143013 
L 303.272494 185.586685 
L 303.388099 186.030356 
L 303.492534 186.474028 
L 303.587563 186.9177 
L 303.675409 187.361372 
L 303.758718 187.805044 
L 303.840507 188.248716 
L 303.924089 188.692388 
L 304.013001 189.13606 
L 304.110914 189.579731 
L 304.221539 190.023403 
L 304.348533 190.467075 
L 304.495403 190.910747 
L 304.665409 191.354419 
L 304.861483 191.798091 
L 305.086144 192.241763 
L 305.341431 192.685435 
L 305.628849 193.129106 
L 305.949323 193.572778 
L 306.303175 194.01645 
L 306.690105 194.460122 
L 307.109196 194.903794 
L 307.558934 195.347466 
L 308.037235 195.791138 
L 308.541492 196.23481 
L 309.068631 196.678481 
L 309.615178 197.122153 
L 310.177336 197.565825 
L 310.751069 198.009497 
L 311.332186 198.453169 
L 311.91644 198.896841 
L 312.499614 199.340513 
L 313.077616 199.784185 
L 313.646567 200.227856 
L 314.202878 200.671528 
L 314.743329 201.1152 
L 315.265123 201.558872 
L 315.765941 202.002544 
L 316.243969 202.446216 
L 316.697919 202.889888 
L 317.127021 203.33356 
L 317.531009 203.777231 
L 317.910078 204.220903 
L 318.264829 204.664575 
L 318.596197 205.108247 
L 318.905367 205.551919 
L 319.193678 205.995591 
L 319.462524 206.439263 
L 319.713245 206.882935 
L 319.947031 207.326606 
L 320.164826 207.770278 
L 320.367242 208.21395 
L 320.554493 208.657622 
L 320.726345 209.101294 
L 320.882086 209.544966 
L 321.020519 209.988638 
L 321.139982 210.43231 
L 321.238387 210.875981 
L 321.313286 211.319653 
L 321.361947 211.763325 
L 321.381457 212.206997 
L 321.368829 212.650669 
L 321.321123 213.094341 
L 321.23556 213.538013 
L 321.109641 213.981685 
L 320.941256 214.425356 
L 320.728781 214.869028 
L 320.471155 215.3127 
L 320.167943 215.756372 
L 319.819371 216.200044 
L 319.426346 216.643716 
L 318.990446 217.087388 
L 318.513886 217.53106 
L 317.999471 217.974731 
L 317.450524 218.418403 
L 316.870798 218.862075 
L 316.264383 219.305747 
L 315.6356 219.749419 
L 314.988897 220.193091 
L 314.328741 220.636763 
L 313.659517 221.080435 
L 312.985444 221.524106 
L 312.310489 221.967778 
L 311.638308 222.41145 
L 310.972193 222.855122 
L 310.315046 223.298794 
L 309.669358 223.742466 
L 309.037215 224.186138 
L 308.420307 224.62981 
L 307.81996 225.073481 
L 307.237167 225.517153 
L 306.672637 225.960825 
L 306.126839 226.404497 
L 305.60005 226.848169 
L 305.092406 227.291841 
z
" style="fill:#1f77b4;fill-opacity:0.3;"/>
   </g>
   <g id="matplotlib.axis_1">
    <g id="xtick_1">
     <g id="line2d_1">
      <defs>
       <path d="M 0 0 
L 0 3.5 
" id="m71c6221067" style="stroke:#000000;stroke-width:0.8;"/>
      </defs>
      <g>
       <use style="stroke:#000000;stroke-width:0.8;" x="110.754494" xlink:href="#m71c6221067" y="244.1"/>
      </g>
     </g>
     <g id="text_1">
      <!-- Our Method -->
      <g transform="translate(59.125392 264.397266)scale(0.175 -0.175)">
       <defs>
        <path d="M 39.40625 66.21875 
Q 28.65625 66.21875 22.328125 58.203125 
Q 16.015625 50.203125 16.015625 36.375 
Q 16.015625 22.609375 22.328125 14.59375 
Q 28.65625 6.59375 39.40625 6.59375 
Q 50.140625 6.59375 56.421875 14.59375 
Q 62.703125 22.609375 62.703125 36.375 
Q 62.703125 50.203125 56.421875 58.203125 
Q 50.140625 66.21875 39.40625 66.21875 
z
M 39.40625 74.21875 
Q 54.734375 74.21875 63.90625 63.9375 
Q 73.09375 53.65625 73.09375 36.375 
Q 73.09375 19.140625 63.90625 8.859375 
Q 54.734375 -1.421875 39.40625 -1.421875 
Q 24.03125 -1.421875 14.8125 8.828125 
Q 5.609375 19.09375 5.609375 36.375 
Q 5.609375 53.65625 14.8125 63.9375 
Q 24.03125 74.21875 39.40625 74.21875 
z
" id="DejaVuSans-79"/>
        <path d="M 8.5 21.578125 
L 8.5 54.6875 
L 17.484375 54.6875 
L 17.484375 21.921875 
Q 17.484375 14.15625 20.5 10.265625 
Q 23.53125 6.390625 29.59375 6.390625 
Q 36.859375 6.390625 41.078125 11.03125 
Q 45.3125 15.671875 45.3125 23.6875 
L 45.3125 54.6875 
L 54.296875 54.6875 
L 54.296875 0 
L 45.3125 0 
L 45.3125 8.40625 
Q 42.046875 3.421875 37.71875 1 
Q 33.40625 -1.421875 27.6875 -1.421875 
Q 18.265625 -1.421875 13.375 4.4375 
Q 8.5 10.296875 8.5 21.578125 
z
M 31.109375 56 
z
" id="DejaVuSans-117"/>
        <path d="M 41.109375 46.296875 
Q 39.59375 47.171875 37.8125 47.578125 
Q 36.03125 48 33.890625 48 
Q 26.265625 48 22.1875 43.046875 
Q 18.109375 38.09375 18.109375 28.8125 
L 18.109375 0 
L 9.078125 0 
L 9.078125 54.6875 
L 18.109375 54.6875 
L 18.109375 46.1875 
Q 20.953125 51.171875 25.484375 53.578125 
Q 30.03125 56 36.53125 56 
Q 37.453125 56 38.578125 55.875 
Q 39.703125 55.765625 41.0625 55.515625 
z
" id="DejaVuSans-114"/>
        <path id="DejaVuSans-32"/>
        <path d="M 9.8125 72.90625 
L 24.515625 72.90625 
L 43.109375 23.296875 
L 61.8125 72.90625 
L 76.515625 72.90625 
L 76.515625 0 
L 66.890625 0 
L 66.890625 64.015625 
L 48.09375 14.015625 
L 38.1875 14.015625 
L 19.390625 64.015625 
L 19.390625 0 
L 9.8125 0 
z
" id="DejaVuSans-77"/>
        <path d="M 56.203125 29.59375 
L 56.203125 25.203125 
L 14.890625 25.203125 
Q 15.484375 15.921875 20.484375 11.0625 
Q 25.484375 6.203125 34.421875 6.203125 
Q 39.59375 6.203125 44.453125 7.46875 
Q 49.3125 8.734375 54.109375 11.28125 
L 54.109375 2.78125 
Q 49.265625 0.734375 44.1875 -0.34375 
Q 39.109375 -1.421875 33.890625 -1.421875 
Q 20.796875 -1.421875 13.15625 6.1875 
Q 5.515625 13.8125 5.515625 26.8125 
Q 5.515625 40.234375 12.765625 48.109375 
Q 20.015625 56 32.328125 56 
Q 43.359375 56 49.78125 48.890625 
Q 56.203125 41.796875 56.203125 29.59375 
z
M 47.21875 32.234375 
Q 47.125 39.59375 43.09375 43.984375 
Q 39.0625 48.390625 32.421875 48.390625 
Q 24.90625 48.390625 20.390625 44.140625 
Q 15.875 39.890625 15.1875 32.171875 
z
" id="DejaVuSans-101"/>
        <path d="M 18.3125 70.21875 
L 18.3125 54.6875 
L 36.8125 54.6875 
L 36.8125 47.703125 
L 18.3125 47.703125 
L 18.3125 18.015625 
Q 18.3125 11.328125 20.140625 9.421875 
Q 21.96875 7.515625 27.59375 7.515625 
L 36.8125 7.515625 
L 36.8125 0 
L 27.59375 0 
Q 17.1875 0 13.234375 3.875 
Q 9.28125 7.765625 9.28125 18.015625 
L 9.28125 47.703125 
L 2.6875 47.703125 
L 2.6875 54.6875 
L 9.28125 54.6875 
L 9.28125 70.21875 
z
" id="DejaVuSans-116"/>
        <path d="M 54.890625 33.015625 
L 54.890625 0 
L 45.90625 0 
L 45.90625 32.71875 
Q 45.90625 40.484375 42.875 44.328125 
Q 39.84375 48.1875 33.796875 48.1875 
Q 26.515625 48.1875 22.3125 43.546875 
Q 18.109375 38.921875 18.109375 30.90625 
L 18.109375 0 
L 9.078125 0 
L 9.078125 75.984375 
L 18.109375 75.984375 
L 18.109375 46.1875 
Q 21.34375 51.125 25.703125 53.5625 
Q 30.078125 56 35.796875 56 
Q 45.21875 56 50.046875 50.171875 
Q 54.890625 44.34375 54.890625 33.015625 
z
" id="DejaVuSans-104"/>
        <path d="M 30.609375 48.390625 
Q 23.390625 48.390625 19.1875 42.75 
Q 14.984375 37.109375 14.984375 27.296875 
Q 14.984375 17.484375 19.15625 11.84375 
Q 23.34375 6.203125 30.609375 6.203125 
Q 37.796875 6.203125 41.984375 11.859375 
Q 46.1875 17.53125 46.1875 27.296875 
Q 46.1875 37.015625 41.984375 42.703125 
Q 37.796875 48.390625 30.609375 48.390625 
z
M 30.609375 56 
Q 42.328125 56 49.015625 48.375 
Q 55.71875 40.765625 55.71875 27.296875 
Q 55.71875 13.875 49.015625 6.21875 
Q 42.328125 -1.421875 30.609375 -1.421875 
Q 18.84375 -1.421875 12.171875 6.21875 
Q 5.515625 13.875 5.515625 27.296875 
Q 5.515625 40.765625 12.171875 48.375 
Q 18.84375 56 30.609375 56 
z
" id="DejaVuSans-111"/>
        <path d="M 45.40625 46.390625 
L 45.40625 75.984375 
L 54.390625 75.984375 
L 54.390625 0 
L 45.40625 0 
L 45.40625 8.203125 
Q 42.578125 3.328125 38.25 0.953125 
Q 33.9375 -1.421875 27.875 -1.421875 
Q 17.96875 -1.421875 11.734375 6.484375 
Q 5.515625 14.40625 5.515625 27.296875 
Q 5.515625 40.1875 11.734375 48.09375 
Q 17.96875 56 27.875 56 
Q 33.9375 56 38.25 53.625 
Q 42.578125 51.265625 45.40625 46.390625 
z
M 14.796875 27.296875 
Q 14.796875 17.390625 18.875 11.75 
Q 22.953125 6.109375 30.078125 6.109375 
Q 37.203125 6.109375 41.296875 11.75 
Q 45.40625 17.390625 45.40625 27.296875 
Q 45.40625 37.203125 41.296875 42.84375 
Q 37.203125 48.484375 30.078125 48.484375 
Q 22.953125 48.484375 18.875 42.84375 
Q 14.796875 37.203125 14.796875 27.296875 
z
" id="DejaVuSans-100"/>
       </defs>
       <use xlink:href="#DejaVuSans-79"/>
       <use x="78.710938" xlink:href="#DejaVuSans-117"/>
       <use x="142.089844" xlink:href="#DejaVuSans-114"/>
       <use x="183.203125" xlink:href="#DejaVuSans-32"/>
       <use x="214.990234" xlink:href="#DejaVuSans-77"/>
       <use x="301.269531" xlink:href="#DejaVuSans-101"/>
       <use x="362.792969" xlink:href="#DejaVuSans-116"/>
       <use x="402.001953" xlink:href="#DejaVuSans-104"/>
       <use x="465.380859" xlink:href="#DejaVuSans-111"/>
       <use x="526.5625" xlink:href="#DejaVuSans-100"/>
      </g>
     </g>
    </g>
    <g id="xtick_2">
     <g id="line2d_2">
      <g>
       <use style="stroke:#000000;stroke-width:0.8;" x="204.366477" xlink:href="#m71c6221067" y="244.1"/>
      </g>
     </g>
     <g id="text_2">
      <!-- Stein's -->
      <g transform="translate(175.058079 264.397266)scale(0.175 -0.175)">
       <defs>
        <path d="M 53.515625 70.515625 
L 53.515625 60.890625 
Q 47.90625 63.578125 42.921875 64.890625 
Q 37.9375 66.21875 33.296875 66.21875 
Q 25.25 66.21875 20.875 63.09375 
Q 16.5 59.96875 16.5 54.203125 
Q 16.5 49.359375 19.40625 46.890625 
Q 22.3125 44.4375 30.421875 42.921875 
L 36.375 41.703125 
Q 47.40625 39.59375 52.65625 34.296875 
Q 57.90625 29 57.90625 20.125 
Q 57.90625 9.515625 50.796875 4.046875 
Q 43.703125 -1.421875 29.984375 -1.421875 
Q 24.8125 -1.421875 18.96875 -0.25 
Q 13.140625 0.921875 6.890625 3.21875 
L 6.890625 13.375 
Q 12.890625 10.015625 18.65625 8.296875 
Q 24.421875 6.59375 29.984375 6.59375 
Q 38.421875 6.59375 43.015625 9.90625 
Q 47.609375 13.234375 47.609375 19.390625 
Q 47.609375 24.75 44.3125 27.78125 
Q 41.015625 30.8125 33.5 32.328125 
L 27.484375 33.5 
Q 16.453125 35.6875 11.515625 40.375 
Q 6.59375 45.0625 6.59375 53.421875 
Q 6.59375 63.09375 13.40625 68.65625 
Q 20.21875 74.21875 32.171875 74.21875 
Q 37.3125 74.21875 42.625 73.28125 
Q 47.953125 72.359375 53.515625 70.515625 
z
" id="DejaVuSans-83"/>
        <path d="M 9.421875 54.6875 
L 18.40625 54.6875 
L 18.40625 0 
L 9.421875 0 
z
M 9.421875 75.984375 
L 18.40625 75.984375 
L 18.40625 64.59375 
L 9.421875 64.59375 
z
" id="DejaVuSans-105"/>
        <path d="M 54.890625 33.015625 
L 54.890625 0 
L 45.90625 0 
L 45.90625 32.71875 
Q 45.90625 40.484375 42.875 44.328125 
Q 39.84375 48.1875 33.796875 48.1875 
Q 26.515625 48.1875 22.3125 43.546875 
Q 18.109375 38.921875 18.109375 30.90625 
L 18.109375 0 
L 9.078125 0 
L 9.078125 54.6875 
L 18.109375 54.6875 
L 18.109375 46.1875 
Q 21.34375 51.125 25.703125 53.5625 
Q 30.078125 56 35.796875 56 
Q 45.21875 56 50.046875 50.171875 
Q 54.890625 44.34375 54.890625 33.015625 
z
" id="DejaVuSans-110"/>
        <path d="M 17.921875 72.90625 
L 17.921875 45.796875 
L 9.625 45.796875 
L 9.625 72.90625 
z
" id="DejaVuSans-39"/>
        <path d="M 44.28125 53.078125 
L 44.28125 44.578125 
Q 40.484375 46.53125 36.375 47.5 
Q 32.28125 48.484375 27.875 48.484375 
Q 21.1875 48.484375 17.84375 46.4375 
Q 14.5 44.390625 14.5 40.28125 
Q 14.5 37.15625 16.890625 35.375 
Q 19.28125 33.59375 26.515625 31.984375 
L 29.59375 31.296875 
Q 39.15625 29.25 43.1875 25.515625 
Q 47.21875 21.78125 47.21875 15.09375 
Q 47.21875 7.46875 41.1875 3.015625 
Q 35.15625 -1.421875 24.609375 -1.421875 
Q 20.21875 -1.421875 15.453125 -0.5625 
Q 10.6875 0.296875 5.421875 2 
L 5.421875 11.28125 
Q 10.40625 8.6875 15.234375 7.390625 
Q 20.0625 6.109375 24.8125 6.109375 
Q 31.15625 6.109375 34.5625 8.28125 
Q 37.984375 10.453125 37.984375 14.40625 
Q 37.984375 18.0625 35.515625 20.015625 
Q 33.0625 21.96875 24.703125 23.78125 
L 21.578125 24.515625 
Q 13.234375 26.265625 9.515625 29.90625 
Q 5.8125 33.546875 5.8125 39.890625 
Q 5.8125 47.609375 11.28125 51.796875 
Q 16.75 56 26.8125 56 
Q 31.78125 56 36.171875 55.265625 
Q 40.578125 54.546875 44.28125 53.078125 
z
" id="DejaVuSans-115"/>
       </defs>
       <use xlink:href="#DejaVuSans-83"/>
       <use x="63.476562" xlink:href="#DejaVuSans-116"/>
       <use x="102.685547" xlink:href="#DejaVuSans-101"/>
       <use x="164.208984" xlink:href="#DejaVuSans-105"/>
       <use x="191.992188" xlink:href="#DejaVuSans-110"/>
       <use x="255.371094" xlink:href="#DejaVuSans-39"/>
       <use x="282.861328" xlink:href="#DejaVuSans-115"/>
      </g>
     </g>
    </g>
    <g id="xtick_3">
     <g id="line2d_3">
      <g>
       <use style="stroke:#000000;stroke-width:0.8;" x="297.978461" xlink:href="#m71c6221067" y="244.1"/>
      </g>
     </g>
     <g id="text_3">
      <!-- Entry-wise -->
      <g transform="translate(252.165375 264.397266)scale(0.175 -0.175)">
       <defs>
        <path d="M 9.8125 72.90625 
L 55.90625 72.90625 
L 55.90625 64.59375 
L 19.671875 64.59375 
L 19.671875 43.015625 
L 54.390625 43.015625 
L 54.390625 34.71875 
L 19.671875 34.71875 
L 19.671875 8.296875 
L 56.78125 8.296875 
L 56.78125 0 
L 9.8125 0 
z
" id="DejaVuSans-69"/>
        <path d="M 32.171875 -5.078125 
Q 28.375 -14.84375 24.75 -17.8125 
Q 21.140625 -20.796875 15.09375 -20.796875 
L 7.90625 -20.796875 
L 7.90625 -13.28125 
L 13.1875 -13.28125 
Q 16.890625 -13.28125 18.9375 -11.515625 
Q 21 -9.765625 23.484375 -3.21875 
L 25.09375 0.875 
L 2.984375 54.6875 
L 12.5 54.6875 
L 29.59375 11.921875 
L 46.6875 54.6875 
L 56.203125 54.6875 
z
" id="DejaVuSans-121"/>
        <path d="M 4.890625 31.390625 
L 31.203125 31.390625 
L 31.203125 23.390625 
L 4.890625 23.390625 
z
" id="DejaVuSans-45"/>
        <path d="M 4.203125 54.6875 
L 13.1875 54.6875 
L 24.421875 12.015625 
L 35.59375 54.6875 
L 46.1875 54.6875 
L 57.421875 12.015625 
L 68.609375 54.6875 
L 77.59375 54.6875 
L 63.28125 0 
L 52.6875 0 
L 40.921875 44.828125 
L 29.109375 0 
L 18.5 0 
z
" id="DejaVuSans-119"/>
       </defs>
       <use xlink:href="#DejaVuSans-69"/>
       <use x="63.183594" xlink:href="#DejaVuSans-110"/>
       <use x="126.5625" xlink:href="#DejaVuSans-116"/>
       <use x="165.771484" xlink:href="#DejaVuSans-114"/>
       <use x="206.884766" xlink:href="#DejaVuSans-121"/>
       <use x="264.314453" xlink:href="#DejaVuSans-45"/>
       <use x="300.398438" xlink:href="#DejaVuSans-119"/>
       <use x="382.185547" xlink:href="#DejaVuSans-105"/>
       <use x="409.96875" xlink:href="#DejaVuSans-115"/>
       <use x="462.068359" xlink:href="#DejaVuSans-101"/>
      </g>
     </g>
    </g>
   </g>
   <g id="matplotlib.axis_2">
    <g id="ytick_1">
     <g id="line2d_4">
      <defs>
       <path d="M 0 0 
L -3.5 0 
" id="m2479a95c84" style="stroke:#000000;stroke-width:0.8;"/>
      </defs>
      <g>
       <use style="stroke:#000000;stroke-width:0.8;" x="75.65" xlink:href="#m2479a95c84" y="230.726969"/>
      </g>
     </g>
     <g id="text_4">
      <!-- 0.2 -->
      <g transform="translate(40.819531 237.375602)scale(0.175 -0.175)">
       <defs>
        <path d="M 31.78125 66.40625 
Q 24.171875 66.40625 20.328125 58.90625 
Q 16.5 51.421875 16.5 36.375 
Q 16.5 21.390625 20.328125 13.890625 
Q 24.171875 6.390625 31.78125 6.390625 
Q 39.453125 6.390625 43.28125 13.890625 
Q 47.125 21.390625 47.125 36.375 
Q 47.125 51.421875 43.28125 58.90625 
Q 39.453125 66.40625 31.78125 66.40625 
z
M 31.78125 74.21875 
Q 44.046875 74.21875 50.515625 64.515625 
Q 56.984375 54.828125 56.984375 36.375 
Q 56.984375 17.96875 50.515625 8.265625 
Q 44.046875 -1.421875 31.78125 -1.421875 
Q 19.53125 -1.421875 13.0625 8.265625 
Q 6.59375 17.96875 6.59375 36.375 
Q 6.59375 54.828125 13.0625 64.515625 
Q 19.53125 74.21875 31.78125 74.21875 
z
" id="DejaVuSans-48"/>
        <path d="M 10.6875 12.40625 
L 21 12.40625 
L 21 0 
L 10.6875 0 
z
" id="DejaVuSans-46"/>
        <path d="M 19.1875 8.296875 
L 53.609375 8.296875 
L 53.609375 0 
L 7.328125 0 
L 7.328125 8.296875 
Q 12.9375 14.109375 22.625 23.890625 
Q 32.328125 33.6875 34.8125 36.53125 
Q 39.546875 41.84375 41.421875 45.53125 
Q 43.3125 49.21875 43.3125 52.78125 
Q 43.3125 58.59375 39.234375 62.25 
Q 35.15625 65.921875 28.609375 65.921875 
Q 23.96875 65.921875 18.8125 64.3125 
Q 13.671875 62.703125 7.8125 59.421875 
L 7.8125 69.390625 
Q 13.765625 71.78125 18.9375 73 
Q 24.125 74.21875 28.421875 74.21875 
Q 39.75 74.21875 46.484375 68.546875 
Q 53.21875 62.890625 53.21875 53.421875 
Q 53.21875 48.921875 51.53125 44.890625 
Q 49.859375 40.875 45.40625 35.40625 
Q 44.1875 33.984375 37.640625 27.21875 
Q 31.109375 20.453125 19.1875 8.296875 
z
" id="DejaVuSans-50"/>
       </defs>
       <use xlink:href="#DejaVuSans-48"/>
       <use x="63.623047" xlink:href="#DejaVuSans-46"/>
       <use x="95.410156" xlink:href="#DejaVuSans-50"/>
      </g>
     </g>
    </g>
    <g id="ytick_2">
     <g id="line2d_5">
      <g>
       <use style="stroke:#000000;stroke-width:0.8;" x="75.65" xlink:href="#m2479a95c84" y="192.190169"/>
      </g>
     </g>
     <g id="text_5">
      <!-- 0.4 -->
      <g transform="translate(40.819531 198.838802)scale(0.175 -0.175)">
       <defs>
        <path d="M 37.796875 64.3125 
L 12.890625 25.390625 
L 37.796875 25.390625 
z
M 35.203125 72.90625 
L 47.609375 72.90625 
L 47.609375 25.390625 
L 58.015625 25.390625 
L 58.015625 17.1875 
L 47.609375 17.1875 
L 47.609375 0 
L 37.796875 0 
L 37.796875 17.1875 
L 4.890625 17.1875 
L 4.890625 26.703125 
z
" id="DejaVuSans-52"/>
       </defs>
       <use xlink:href="#DejaVuSans-48"/>
       <use x="63.623047" xlink:href="#DejaVuSans-46"/>
       <use x="95.410156" xlink:href="#DejaVuSans-52"/>
      </g>
     </g>
    </g>
    <g id="ytick_3">
     <g id="line2d_6">
      <g>
       <use style="stroke:#000000;stroke-width:0.8;" x="75.65" xlink:href="#m2479a95c84" y="153.65337"/>
      </g>
     </g>
     <g id="text_6">
      <!-- 0.6 -->
      <g transform="translate(40.819531 160.302003)scale(0.175 -0.175)">
       <defs>
        <path d="M 33.015625 40.375 
Q 26.375 40.375 22.484375 35.828125 
Q 18.609375 31.296875 18.609375 23.390625 
Q 18.609375 15.53125 22.484375 10.953125 
Q 26.375 6.390625 33.015625 6.390625 
Q 39.65625 6.390625 43.53125 10.953125 
Q 47.40625 15.53125 47.40625 23.390625 
Q 47.40625 31.296875 43.53125 35.828125 
Q 39.65625 40.375 33.015625 40.375 
z
M 52.59375 71.296875 
L 52.59375 62.3125 
Q 48.875 64.0625 45.09375 64.984375 
Q 41.3125 65.921875 37.59375 65.921875 
Q 27.828125 65.921875 22.671875 59.328125 
Q 17.53125 52.734375 16.796875 39.40625 
Q 19.671875 43.65625 24.015625 45.921875 
Q 28.375 48.1875 33.59375 48.1875 
Q 44.578125 48.1875 50.953125 41.515625 
Q 57.328125 34.859375 57.328125 23.390625 
Q 57.328125 12.15625 50.6875 5.359375 
Q 44.046875 -1.421875 33.015625 -1.421875 
Q 20.359375 -1.421875 13.671875 8.265625 
Q 6.984375 17.96875 6.984375 36.375 
Q 6.984375 53.65625 15.1875 63.9375 
Q 23.390625 74.21875 37.203125 74.21875 
Q 40.921875 74.21875 44.703125 73.484375 
Q 48.484375 72.75 52.59375 71.296875 
z
" id="DejaVuSans-54"/>
       </defs>
       <use xlink:href="#DejaVuSans-48"/>
       <use x="63.623047" xlink:href="#DejaVuSans-46"/>
       <use x="95.410156" xlink:href="#DejaVuSans-54"/>
      </g>
     </g>
    </g>
    <g id="ytick_4">
     <g id="line2d_7">
      <g>
       <use style="stroke:#000000;stroke-width:0.8;" x="75.65" xlink:href="#m2479a95c84" y="115.116571"/>
      </g>
     </g>
     <g id="text_7">
      <!-- 0.8 -->
      <g transform="translate(40.819531 121.765204)scale(0.175 -0.175)">
       <defs>
        <path d="M 31.78125 34.625 
Q 24.75 34.625 20.71875 30.859375 
Q 16.703125 27.09375 16.703125 20.515625 
Q 16.703125 13.921875 20.71875 10.15625 
Q 24.75 6.390625 31.78125 6.390625 
Q 38.8125 6.390625 42.859375 10.171875 
Q 46.921875 13.96875 46.921875 20.515625 
Q 46.921875 27.09375 42.890625 30.859375 
Q 38.875 34.625 31.78125 34.625 
z
M 21.921875 38.8125 
Q 15.578125 40.375 12.03125 44.71875 
Q 8.5 49.078125 8.5 55.328125 
Q 8.5 64.0625 14.71875 69.140625 
Q 20.953125 74.21875 31.78125 74.21875 
Q 42.671875 74.21875 48.875 69.140625 
Q 55.078125 64.0625 55.078125 55.328125 
Q 55.078125 49.078125 51.53125 44.71875 
Q 48 40.375 41.703125 38.8125 
Q 48.828125 37.15625 52.796875 32.3125 
Q 56.78125 27.484375 56.78125 20.515625 
Q 56.78125 9.90625 50.3125 4.234375 
Q 43.84375 -1.421875 31.78125 -1.421875 
Q 19.734375 -1.421875 13.25 4.234375 
Q 6.78125 9.90625 6.78125 20.515625 
Q 6.78125 27.484375 10.78125 32.3125 
Q 14.796875 37.15625 21.921875 38.8125 
z
M 18.3125 54.390625 
Q 18.3125 48.734375 21.84375 45.5625 
Q 25.390625 42.390625 31.78125 42.390625 
Q 38.140625 42.390625 41.71875 45.5625 
Q 45.3125 48.734375 45.3125 54.390625 
Q 45.3125 60.0625 41.71875 63.234375 
Q 38.140625 66.40625 31.78125 66.40625 
Q 25.390625 66.40625 21.84375 63.234375 
Q 18.3125 60.0625 18.3125 54.390625 
z
" id="DejaVuSans-56"/>
       </defs>
       <use xlink:href="#DejaVuSans-48"/>
       <use x="63.623047" xlink:href="#DejaVuSans-46"/>
       <use x="95.410156" xlink:href="#DejaVuSans-56"/>
      </g>
     </g>
    </g>
    <g id="ytick_5">
     <g id="line2d_8">
      <g>
       <use style="stroke:#000000;stroke-width:0.8;" x="75.65" xlink:href="#m2479a95c84" y="76.579772"/>
      </g>
     </g>
     <g id="text_8">
      <!-- 1.0 -->
      <g transform="translate(40.819531 83.228404)scale(0.175 -0.175)">
       <defs>
        <path d="M 12.40625 8.296875 
L 28.515625 8.296875 
L 28.515625 63.921875 
L 10.984375 60.40625 
L 10.984375 69.390625 
L 28.421875 72.90625 
L 38.28125 72.90625 
L 38.28125 8.296875 
L 54.390625 8.296875 
L 54.390625 0 
L 12.40625 0 
z
" id="DejaVuSans-49"/>
       </defs>
       <use xlink:href="#DejaVuSans-49"/>
       <use x="63.623047" xlink:href="#DejaVuSans-46"/>
       <use x="95.410156" xlink:href="#DejaVuSans-48"/>
      </g>
     </g>
    </g>
    <g id="ytick_6">
     <g id="line2d_9">
      <g>
       <use style="stroke:#000000;stroke-width:0.8;" x="75.65" xlink:href="#m2479a95c84" y="38.042972"/>
      </g>
     </g>
     <g id="text_9">
      <!-- 1.2 -->
      <g transform="translate(40.819531 44.691605)scale(0.175 -0.175)">
       <use xlink:href="#DejaVuSans-49"/>
       <use x="63.623047" xlink:href="#DejaVuSans-46"/>
       <use x="95.410156" xlink:href="#DejaVuSans-50"/>
      </g>
     </g>
    </g>
    <g id="text_10">
     <!-- Estimation Error -->
     <g transform="translate(33.180078 202.198633)rotate(-90)scale(0.175 -0.175)">
      <defs>
       <path d="M 52 44.1875 
Q 55.375 50.25 60.0625 53.125 
Q 64.75 56 71.09375 56 
Q 79.640625 56 84.28125 50.015625 
Q 88.921875 44.046875 88.921875 33.015625 
L 88.921875 0 
L 79.890625 0 
L 79.890625 32.71875 
Q 79.890625 40.578125 77.09375 44.375 
Q 74.3125 48.1875 68.609375 48.1875 
Q 61.625 48.1875 57.5625 43.546875 
Q 53.515625 38.921875 53.515625 30.90625 
L 53.515625 0 
L 44.484375 0 
L 44.484375 32.71875 
Q 44.484375 40.625 41.703125 44.40625 
Q 38.921875 48.1875 33.109375 48.1875 
Q 26.21875 48.1875 22.15625 43.53125 
Q 18.109375 38.875 18.109375 30.90625 
L 18.109375 0 
L 9.078125 0 
L 9.078125 54.6875 
L 18.109375 54.6875 
L 18.109375 46.1875 
Q 21.1875 51.21875 25.484375 53.609375 
Q 29.78125 56 35.6875 56 
Q 41.65625 56 45.828125 52.96875 
Q 50 49.953125 52 44.1875 
z
" id="DejaVuSans-109"/>
       <path d="M 34.28125 27.484375 
Q 23.390625 27.484375 19.1875 25 
Q 14.984375 22.515625 14.984375 16.5 
Q 14.984375 11.71875 18.140625 8.90625 
Q 21.296875 6.109375 26.703125 6.109375 
Q 34.1875 6.109375 38.703125 11.40625 
Q 43.21875 16.703125 43.21875 25.484375 
L 43.21875 27.484375 
z
M 52.203125 31.203125 
L 52.203125 0 
L 43.21875 0 
L 43.21875 8.296875 
Q 40.140625 3.328125 35.546875 0.953125 
Q 30.953125 -1.421875 24.3125 -1.421875 
Q 15.921875 -1.421875 10.953125 3.296875 
Q 6 8.015625 6 15.921875 
Q 6 25.140625 12.171875 29.828125 
Q 18.359375 34.515625 30.609375 34.515625 
L 43.21875 34.515625 
L 43.21875 35.40625 
Q 43.21875 41.609375 39.140625 45 
Q 35.0625 48.390625 27.6875 48.390625 
Q 23 48.390625 18.546875 47.265625 
Q 14.109375 46.140625 10.015625 43.890625 
L 10.015625 52.203125 
Q 14.9375 54.109375 19.578125 55.046875 
Q 24.21875 56 28.609375 56 
Q 40.484375 56 46.34375 49.84375 
Q 52.203125 43.703125 52.203125 31.203125 
z
" id="DejaVuSans-97"/>
      </defs>
      <use xlink:href="#DejaVuSans-69"/>
      <use x="63.183594" xlink:href="#DejaVuSans-115"/>
      <use x="115.283203" xlink:href="#DejaVuSans-116"/>
      <use x="154.492188" xlink:href="#DejaVuSans-105"/>
      <use x="182.275391" xlink:href="#DejaVuSans-109"/>
      <use x="279.6875" xlink:href="#DejaVuSans-97"/>
      <use x="340.966797" xlink:href="#DejaVuSans-116"/>
      <use x="380.175781" xlink:href="#DejaVuSans-105"/>
      <use x="407.958984" xlink:href="#DejaVuSans-111"/>
      <use x="469.140625" xlink:href="#DejaVuSans-110"/>
      <use x="532.519531" xlink:href="#DejaVuSans-32"/>
      <use x="564.306641" xlink:href="#DejaVuSans-69"/>
      <use x="627.490234" xlink:href="#DejaVuSans-114"/>
      <use x="666.853516" xlink:href="#DejaVuSans-114"/>
      <use x="705.716797" xlink:href="#DejaVuSans-111"/>
      <use x="766.898438" xlink:href="#DejaVuSans-114"/>
     </g>
    </g>
   </g>
   <g id="LineCollection_1">
    <path clip-path="url(#pc928a03210)" d="M 99.052996 185.649965 
L 122.455992 185.649965 
" style="fill:none;stroke:#1f77b4;stroke-width:1.5;"/>
    <path clip-path="url(#pc928a03210)" d="M 192.664979 29.136364 
L 216.067975 29.136364 
" style="fill:none;stroke:#1f77b4;stroke-width:1.5;"/>
    <path clip-path="url(#pc928a03210)" d="M 286.276963 183.368325 
L 309.679959 183.368325 
" style="fill:none;stroke:#1f77b4;stroke-width:1.5;"/>
   </g>
   <g id="LineCollection_2">
    <path clip-path="url(#pc928a03210)" d="M 99.052996 233.863636 
L 122.455992 233.863636 
" style="fill:none;stroke:#1f77b4;stroke-width:1.5;"/>
    <path clip-path="url(#pc928a03210)" d="M 192.664979 205.951413 
L 216.067975 205.951413 
" style="fill:none;stroke:#1f77b4;stroke-width:1.5;"/>
    <path clip-path="url(#pc928a03210)" d="M 286.276963 227.291841 
L 309.679959 227.291841 
" style="fill:none;stroke:#1f77b4;stroke-width:1.5;"/>
   </g>
   <g id="LineCollection_3">
    <path clip-path="url(#pc928a03210)" d="M 110.754494 233.863636 
L 110.754494 185.649965 
" style="fill:none;stroke:#1f77b4;stroke-width:1.5;"/>
    <path clip-path="url(#pc928a03210)" d="M 204.366477 205.951413 
L 204.366477 29.136364 
" style="fill:none;stroke:#1f77b4;stroke-width:1.5;"/>
    <path clip-path="url(#pc928a03210)" d="M 297.978461 227.291841 
L 297.978461 183.368325 
" style="fill:none;stroke:#1f77b4;stroke-width:1.5;"/>
   </g>
   <g id="patch_3">
    <path d="M 75.65 244.1 
L 75.65 18.9 
" style="fill:none;stroke:#000000;stroke-linecap:square;stroke-linejoin:miter;stroke-width:0.8;"/>
   </g>
   <g id="patch_4">
    <path d="M 333.082955 244.1 
L 333.082955 18.9 
" style="fill:none;stroke:#000000;stroke-linecap:square;stroke-linejoin:miter;stroke-width:0.8;"/>
   </g>
   <g id="patch_5">
    <path d="M 75.65 244.1 
L 333.082955 244.1 
" style="fill:none;stroke:#000000;stroke-linecap:square;stroke-linejoin:miter;stroke-width:0.8;"/>
   </g>
   <g id="patch_6">
    <path d="M 75.65 18.9 
L 333.082955 18.9 
" style="fill:none;stroke:#000000;stroke-linecap:square;stroke-linejoin:miter;stroke-width:0.8;"/>
   </g>
  </g>
 </g>
 <defs>
  <clipPath id="pc928a03210">
   <rect height="225.2" width="257.432955" x="75.65" y="18.9"/>
  </clipPath>
 </defs>
</svg>
