<?xml version="1.0" encoding="utf-8" standalone="no"?>
<!DOCTYPE svg PUBLIC "-//W3C//DTD SVG 1.1//EN"
  "http://www.w3.org/Graphics/SVG/1.1/DTD/svg11.dtd">
<!-- Created with matplotlib (https://matplotlib.org/) -->
<svg height="288pt" version="1.1" viewBox="0 0 360 288" width="360pt" xmlns="http://www.w3.org/2000/svg" xmlns:xlink="http://www.w3.org/1999/xlink">
 <metadata>
  <rdf:RDF xmlns:cc="http://creativecommons.org/ns#" xmlns:dc="http://purl.org/dc/elements/1.1/" xmlns:rdf="http://www.w3.org/1999/02/22-rdf-syntax-ns#">
   <cc:Work>
    <dc:type rdf:resource="http://purl.org/dc/dcmitype/StillImage"/>
    <dc:date>2022-09-25T00:48:14.105443</dc:date>
    <dc:format>image/svg+xml</dc:format>
    <dc:creator>
     <cc:Agent>
      <dc:title>Matplotlib v3.3.4, https://matplotlib.org/</dc:title>
     </cc:Agent>
    </dc:creator>
   </cc:Work>
  </rdf:RDF>
 </metadata>
 <defs>
  <style type="text/css">*{stroke-linecap:butt;stroke-linejoin:round;}</style>
 </defs>
 <g id="figure_1">
  <g id="patch_1">
   <path d="M 0 288 
L 360 288 
L 360 0 
L 0 0 
z
" style="fill:none;"/>
  </g>
  <g id="axes_1">
   <g id="patch_2">
    <path d="M 70.15 244.1 
L 333.082955 244.1 
L 333.082955 22.294334 
L 70.15 22.294334 
z
" style="fill:#ffffff;"/>
   </g>
   <g id="PolyCollection_1">
    <path clip-path="url(#p6eaeba9222)" d="M 111.499047 234.017924 
L 100.509941 234.017924 
L 100.152523 233.648965 
L 99.79343 233.280007 
L 99.434846 232.911048 
L 99.079014 232.542089 
L 98.728184 232.17313 
L 98.384575 231.804171 
L 98.050321 231.435212 
L 97.727423 231.066254 
L 97.417692 230.697295 
L 97.122707 230.328336 
L 96.843759 229.959377 
L 96.581817 229.590418 
L 96.33749 229.221459 
L 96.110996 228.852501 
L 95.902154 228.483542 
L 95.710366 228.114583 
L 95.534631 227.745624 
L 95.373555 227.376665 
L 95.22538 227.007706 
L 95.088019 226.638748 
L 94.9591 226.269789 
L 94.836023 225.90083 
L 94.716012 225.531871 
L 94.59618 225.162912 
L 94.473592 224.793953 
L 94.345323 224.424995 
L 94.208523 224.056036 
L 94.060466 223.687077 
L 93.898607 223.318118 
L 93.720622 222.949159 
L 93.524448 222.5802 
L 93.308314 222.211241 
L 93.070766 221.842283 
L 92.810685 221.473324 
L 92.527305 221.104365 
L 92.220219 220.735406 
L 91.889389 220.366447 
L 91.535145 219.997488 
L 91.158188 219.62853 
L 90.75959 219.259571 
L 90.340788 218.890612 
L 89.903575 218.521653 
L 89.450096 218.152694 
L 88.982827 217.783735 
L 88.504564 217.414777 
L 88.018397 217.045818 
L 87.527679 216.676859 
L 87.035997 216.3079 
L 86.547126 215.938941 
L 86.064987 215.569982 
L 85.593596 215.201024 
L 85.137005 214.832065 
L 84.69925 214.463106 
L 84.28429 214.094147 
L 83.895947 213.725188 
L 83.537856 213.356229 
L 83.213408 212.987271 
L 82.925712 212.618312 
L 82.67755 212.249353 
L 82.471351 211.880394 
L 82.309173 211.511435 
L 82.192682 211.142476 
L 82.12316 210.773518 
L 82.101498 210.404559 
L 82.128214 210.0356 
L 82.203468 209.666641 
L 82.327077 209.297682 
L 82.498543 208.928723 
L 82.717073 208.559765 
L 82.981599 208.190806 
L 83.290805 207.821847 
L 83.643137 207.452888 
L 84.036825 207.083929 
L 84.469896 206.71497 
L 84.940182 206.346011 
L 85.44533 205.977053 
L 85.982816 205.608094 
L 86.549947 205.239135 
L 87.14388 204.870176 
L 87.761627 204.501217 
L 88.400079 204.132258 
L 89.056022 203.7633 
L 89.726159 203.394341 
L 90.407145 203.025382 
L 91.095611 202.656423 
L 91.788204 202.287464 
L 92.481619 201.918505 
L 93.172639 201.549547 
L 93.85817 201.180588 
L 94.535274 200.811629 
L 95.201206 200.44267 
L 95.853437 200.073711 
L 96.489676 199.704752 
L 97.107893 199.335794 
L 97.706324 198.966835 
L 98.283478 198.597876 
L 98.838138 198.228917 
L 99.36935 197.859958 
L 99.876418 197.490999 
L 112.13257 197.490999 
L 112.13257 197.490999 
L 112.639637 197.859958 
L 113.17085 198.228917 
L 113.72551 198.597876 
L 114.302664 198.966835 
L 114.901095 199.335794 
L 115.519311 199.704752 
L 116.155551 200.073711 
L 116.807781 200.44267 
L 117.473713 200.811629 
L 118.150818 201.180588 
L 118.836348 201.549547 
L 119.527368 201.918505 
L 120.220783 202.287464 
L 120.913376 202.656423 
L 121.601843 203.025382 
L 122.282829 203.394341 
L 122.952966 203.7633 
L 123.608908 204.132258 
L 124.24736 204.501217 
L 124.865108 204.870176 
L 125.45904 205.239135 
L 126.026172 205.608094 
L 126.563657 205.977053 
L 127.068806 206.346011 
L 127.539091 206.71497 
L 127.972162 207.083929 
L 128.365851 207.452888 
L 128.718183 207.821847 
L 129.027388 208.190806 
L 129.291915 208.559765 
L 129.510445 208.928723 
L 129.681911 209.297682 
L 129.80552 209.666641 
L 129.880773 210.0356 
L 129.90749 210.404559 
L 129.885828 210.773518 
L 129.816305 211.142476 
L 129.699815 211.511435 
L 129.537636 211.880394 
L 129.331438 212.249353 
L 129.083276 212.618312 
L 128.795579 212.987271 
L 128.471132 213.356229 
L 128.11304 213.725188 
L 127.724698 214.094147 
L 127.309737 214.463106 
L 126.871982 214.832065 
L 126.415392 215.201024 
L 125.944 215.569982 
L 125.461862 215.938941 
L 124.972991 216.3079 
L 124.481308 216.676859 
L 123.990591 217.045818 
L 123.504423 217.414777 
L 123.026161 217.783735 
L 122.558892 218.152694 
L 122.105412 218.521653 
L 121.6682 218.890612 
L 121.249397 219.259571 
L 120.8508 219.62853 
L 120.473843 219.997488 
L 120.119599 220.366447 
L 119.788768 220.735406 
L 119.481683 221.104365 
L 119.198302 221.473324 
L 118.938222 221.842283 
L 118.700673 222.211241 
L 118.484539 222.5802 
L 118.288366 222.949159 
L 118.110381 223.318118 
L 117.948522 223.687077 
L 117.800465 224.056036 
L 117.663664 224.424995 
L 117.535396 224.793953 
L 117.412808 225.162912 
L 117.292976 225.531871 
L 117.172965 225.90083 
L 117.049887 226.269789 
L 116.920969 226.638748 
L 116.783607 227.007706 
L 116.635432 227.376665 
L 116.474357 227.745624 
L 116.298622 228.114583 
L 116.106834 228.483542 
L 115.897991 228.852501 
L 115.671498 229.221459 
L 115.42717 229.590418 
L 115.165229 229.959377 
L 114.886281 230.328336 
L 114.591295 230.697295 
L 114.281565 231.066254 
L 113.958666 231.435212 
L 113.624413 231.804171 
L 113.280804 232.17313 
L 112.929974 232.542089 
L 112.574141 232.911048 
L 112.215558 233.280007 
L 111.856464 233.648965 
L 111.499047 234.017924 
z
" style="fill:#1f77b4;fill-opacity:0.3;"/>
   </g>
   <g id="PolyCollection_2">
    <path clip-path="url(#p6eaeba9222)" d="M 205.892302 160.343336 
L 197.340653 160.343336 
L 197.144344 159.050741 
L 196.949837 157.758146 
L 196.756273 156.46555 
L 196.562551 155.172955 
L 196.367371 153.88036 
L 196.16928 152.587765 
L 195.966728 151.29517 
L 195.758115 150.002574 
L 195.541853 148.709979 
L 195.316406 147.417384 
L 195.080341 146.124789 
L 194.832361 144.832194 
L 194.571329 143.539598 
L 194.296295 142.247003 
L 194.006499 140.954408 
L 193.70138 139.661813 
L 193.380568 138.369217 
L 193.043881 137.076622 
L 192.691306 135.784027 
L 192.322985 134.491432 
L 191.939202 133.198837 
L 191.540357 131.906241 
L 191.126949 130.613646 
L 190.69956 129.321051 
L 190.258831 128.028456 
L 189.805445 126.73586 
L 189.340112 125.443265 
L 188.863553 124.15067 
L 188.376487 122.858075 
L 187.879631 121.56548 
L 187.373693 120.272884 
L 186.859388 118.980289 
L 186.337454 117.687694 
L 185.808686 116.395099 
L 185.273973 115.102503 
L 184.734357 113.809908 
L 184.191098 112.517313 
L 183.645742 111.224718 
L 183.1002 109.932123 
L 182.556822 108.639527 
L 182.018465 107.346932 
L 181.488547 106.054337 
L 180.971085 104.761742 
L 180.470702 103.469147 
L 179.992607 102.176551 
L 179.542541 100.883956 
L 179.126684 99.591361 
L 178.75153 98.298766 
L 178.42373 97.00617 
L 178.149898 95.713575 
L 177.936413 94.42098 
L 177.789193 93.128385 
L 177.713481 91.83579 
L 177.713632 90.543194 
L 177.792924 89.250599 
L 177.953404 87.958004 
L 178.195766 86.665409 
L 178.51928 85.372813 
L 178.921768 84.080218 
L 179.399636 82.787623 
L 179.94795 81.495028 
L 180.560563 80.202433 
L 181.23028 78.909837 
L 181.949056 77.617242 
L 182.708212 76.324647 
L 183.498673 75.032052 
L 184.311197 73.739456 
L 185.136604 72.446861 
L 185.965989 71.154266 
L 186.79091 69.861671 
L 187.60355 68.569076 
L 188.396849 67.27648 
L 189.164603 65.983885 
L 189.901527 64.69129 
L 190.603295 63.398695 
L 191.266545 62.1061 
L 191.888863 60.813504 
L 192.468746 59.520909 
L 193.005549 58.228314 
L 193.499419 56.935719 
L 193.951217 55.643123 
L 194.362442 54.350528 
L 194.735144 53.057933 
L 195.071835 51.765338 
L 195.375407 50.472743 
L 195.649043 49.180147 
L 195.896131 47.887552 
L 196.120184 46.594957 
L 196.324757 45.302362 
L 196.513371 44.009766 
L 196.689436 42.717171 
L 196.856186 41.424576 
L 197.016614 40.131981 
L 197.173417 38.839386 
L 197.328948 37.54679 
L 197.485184 36.254195 
L 197.643694 34.9616 
L 197.805631 33.669005 
L 197.971728 32.37641 
L 205.261227 32.37641 
L 205.261227 32.37641 
L 205.427323 33.669005 
L 205.58926 34.9616 
L 205.74777 36.254195 
L 205.904006 37.54679 
L 206.059538 38.839386 
L 206.21634 40.131981 
L 206.376768 41.424576 
L 206.543518 42.717171 
L 206.719583 44.009766 
L 206.908197 45.302362 
L 207.11277 46.594957 
L 207.336824 47.887552 
L 207.583912 49.180147 
L 207.857547 50.472743 
L 208.16112 51.765338 
L 208.497811 53.057933 
L 208.870513 54.350528 
L 209.281738 55.643123 
L 209.733536 56.935719 
L 210.227405 58.228314 
L 210.764208 59.520909 
L 211.344091 60.813504 
L 211.966409 62.1061 
L 212.629659 63.398695 
L 213.331427 64.69129 
L 214.068352 65.983885 
L 214.836105 67.27648 
L 215.629405 68.569076 
L 216.442045 69.861671 
L 217.266966 71.154266 
L 218.09635 72.446861 
L 218.921757 73.739456 
L 219.734281 75.032052 
L 220.524742 76.324647 
L 221.283899 77.617242 
L 222.002674 78.909837 
L 222.672391 80.202433 
L 223.285004 81.495028 
L 223.833318 82.787623 
L 224.311186 84.080218 
L 224.713674 85.372813 
L 225.037188 86.665409 
L 225.27955 87.958004 
L 225.440031 89.250599 
L 225.519323 90.543194 
L 225.519473 91.83579 
L 225.443761 93.128385 
L 225.296542 94.42098 
L 225.083056 95.713575 
L 224.809225 97.00617 
L 224.481424 98.298766 
L 224.106271 99.591361 
L 223.690414 100.883956 
L 223.240347 102.176551 
L 222.762252 103.469147 
L 222.261869 104.761742 
L 221.744407 106.054337 
L 221.21449 107.346932 
L 220.676132 108.639527 
L 220.132754 109.932123 
L 219.587212 111.224718 
L 219.041856 112.517313 
L 218.498597 113.809908 
L 217.958982 115.102503 
L 217.424269 116.395099 
L 216.8955 117.687694 
L 216.373567 118.980289 
L 215.859262 120.272884 
L 215.353324 121.56548 
L 214.856467 122.858075 
L 214.369402 124.15067 
L 213.892842 125.443265 
L 213.427509 126.73586 
L 212.974124 128.028456 
L 212.533394 129.321051 
L 212.106005 130.613646 
L 211.692598 131.906241 
L 211.293752 133.198837 
L 210.909969 134.491432 
L 210.541649 135.784027 
L 210.189074 137.076622 
L 209.852386 138.369217 
L 209.531575 139.661813 
L 209.226456 140.954408 
L 208.93666 142.247003 
L 208.661625 143.539598 
L 208.400594 144.832194 
L 208.152613 146.124789 
L 207.916549 147.417384 
L 207.691102 148.709979 
L 207.474839 150.002574 
L 207.266227 151.29517 
L 207.063674 152.587765 
L 206.865584 153.88036 
L 206.670404 155.172955 
L 206.476682 156.46555 
L 206.283117 157.758146 
L 206.08861 159.050741 
L 205.892302 160.343336 
z
" style="fill:#1f77b4;fill-opacity:0.3;"/>
   </g>
   <g id="PolyCollection_3">
    <path clip-path="url(#p6eaeba9222)" d="M 302.809695 208.102017 
L 291.647226 208.102017 
L 291.311716 207.757223 
L 290.963587 207.412428 
L 290.601088 207.067634 
L 290.222402 206.72284 
L 289.825735 206.378046 
L 289.409413 206.033251 
L 288.971988 205.688457 
L 288.512331 205.343663 
L 288.029715 204.998869 
L 287.523894 204.654074 
L 286.995154 204.30928 
L 286.444343 203.964486 
L 285.872885 203.619691 
L 285.282761 203.274897 
L 284.676473 202.930103 
L 284.056984 202.585309 
L 283.42764 202.240514 
L 282.792079 201.89572 
L 282.154131 201.550926 
L 281.517716 201.206132 
L 280.886738 200.861337 
L 280.264994 200.516543 
L 279.656092 200.171749 
L 279.06338 199.826955 
L 278.489897 199.48216 
L 277.938348 199.137366 
L 277.411086 198.792572 
L 276.91013 198.447778 
L 276.437185 198.102983 
L 275.993683 197.758189 
L 275.580833 197.413395 
L 275.199676 197.068601 
L 274.851138 196.723806 
L 274.536085 196.379012 
L 274.25536 196.034218 
L 274.009821 195.689424 
L 273.800351 195.344629 
L 273.627862 194.999835 
L 273.493272 194.655041 
L 273.39748 194.310247 
L 273.341312 193.965452 
L 273.325465 193.620658 
L 273.350442 193.275864 
L 273.416487 192.93107 
L 273.523514 192.586275 
L 273.67106 192.241481 
L 273.858233 191.896687 
L 274.083689 191.551893 
L 274.345626 191.207098 
L 274.641797 190.862304 
L 274.969547 190.51751 
L 275.325873 190.172715 
L 275.707497 189.827921 
L 276.110966 189.483127 
L 276.532744 189.138333 
L 276.969328 188.793538 
L 277.417354 188.448744 
L 277.87369 188.10395 
L 278.335532 187.759156 
L 278.800471 187.414361 
L 279.266539 187.069567 
L 279.732245 186.724773 
L 280.196566 186.379979 
L 280.658937 186.035184 
L 281.119199 185.69039 
L 281.577539 185.345596 
L 282.034416 185.000802 
L 282.490469 184.656007 
L 282.946427 184.311213 
L 283.403014 183.966419 
L 283.860866 183.621625 
L 284.320448 183.27683 
L 284.781994 182.932036 
L 285.245457 182.587242 
L 285.710483 182.242448 
L 286.176396 181.897653 
L 286.64221 181.552859 
L 287.106657 181.208065 
L 287.568223 180.863271 
L 288.02521 180.518476 
L 288.475792 180.173682 
L 288.918095 179.828888 
L 289.35026 179.484094 
L 289.770521 179.139299 
L 290.177263 178.794505 
L 290.569089 178.449711 
L 290.94486 178.104916 
L 291.30373 177.760122 
L 291.645171 177.415328 
L 291.968976 177.070534 
L 292.275251 176.725739 
L 292.564397 176.380945 
L 292.837077 176.036151 
L 293.094173 175.691357 
L 293.336735 175.346562 
L 293.565936 175.001768 
L 293.783006 174.656974 
L 293.989188 174.31218 
L 294.18568 173.967385 
L 300.271242 173.967385 
L 300.271242 173.967385 
L 300.467734 174.31218 
L 300.673915 174.656974 
L 300.890986 175.001768 
L 301.120186 175.346562 
L 301.362749 175.691357 
L 301.619844 176.036151 
L 301.892524 176.380945 
L 302.181671 176.725739 
L 302.487946 177.070534 
L 302.811751 177.415328 
L 303.153192 177.760122 
L 303.512062 178.104916 
L 303.887832 178.449711 
L 304.279658 178.794505 
L 304.686401 179.139299 
L 305.106661 179.484094 
L 305.538826 179.828888 
L 305.981129 180.173682 
L 306.431712 180.518476 
L 306.888698 180.863271 
L 307.350264 181.208065 
L 307.814711 181.552859 
L 308.280526 181.897653 
L 308.746439 182.242448 
L 309.211464 182.587242 
L 309.674928 182.932036 
L 310.136474 183.27683 
L 310.596056 183.621625 
L 311.053907 183.966419 
L 311.510495 184.311213 
L 311.966453 184.656007 
L 312.422506 185.000802 
L 312.879383 185.345596 
L 313.337723 185.69039 
L 313.797984 186.035184 
L 314.260355 186.379979 
L 314.724677 186.724773 
L 315.190382 187.069567 
L 315.656451 187.414361 
L 316.121389 187.759156 
L 316.583231 188.10395 
L 317.039568 188.448744 
L 317.487593 188.793538 
L 317.924178 189.138333 
L 318.345956 189.483127 
L 318.749424 189.827921 
L 319.131049 190.172715 
L 319.487375 190.51751 
L 319.815125 190.862304 
L 320.111296 191.207098 
L 320.373233 191.551893 
L 320.598689 191.896687 
L 320.785861 192.241481 
L 320.933407 192.586275 
L 321.040435 192.93107 
L 321.106479 193.275864 
L 321.131457 193.620658 
L 321.11561 193.965452 
L 321.059441 194.310247 
L 320.963649 194.655041 
L 320.82906 194.999835 
L 320.65657 195.344629 
L 320.4471 195.689424 
L 320.201561 196.034218 
L 319.920837 196.379012 
L 319.605783 196.723806 
L 319.257245 197.068601 
L 318.876088 197.413395 
L 318.463238 197.758189 
L 318.019736 198.102983 
L 317.546791 198.447778 
L 317.045835 198.792572 
L 316.518574 199.137366 
L 315.967024 199.48216 
L 315.393542 199.826955 
L 314.800829 200.171749 
L 314.191927 200.516543 
L 313.570184 200.861337 
L 312.939206 201.206132 
L 312.30279 201.550926 
L 311.664843 201.89572 
L 311.029282 202.240514 
L 310.399937 202.585309 
L 309.780448 202.930103 
L 309.17416 203.274897 
L 308.584036 203.619691 
L 308.012578 203.964486 
L 307.461767 204.30928 
L 306.933027 204.654074 
L 306.427207 204.998869 
L 305.944591 205.343663 
L 305.484933 205.688457 
L 305.047508 206.033251 
L 304.631187 206.378046 
L 304.234519 206.72284 
L 303.855833 207.067634 
L 303.493335 207.412428 
L 303.145205 207.757223 
L 302.809695 208.102017 
z
" style="fill:#1f77b4;fill-opacity:0.3;"/>
   </g>
   <g id="matplotlib.axis_1">
    <g id="xtick_1">
     <g id="line2d_1">
      <defs>
       <path d="M 0 0 
L 0 3.5 
" id="mcafebf764f" style="stroke:#000000;stroke-width:0.8;"/>
      </defs>
      <g>
       <use style="stroke:#000000;stroke-width:0.8;" x="106.004494" xlink:href="#mcafebf764f" y="244.1"/>
      </g>
     </g>
     <g id="text_1">
      <!-- Our Method -->
      <g transform="translate(54.375392 264.397266)scale(0.175 -0.175)">
       <defs>
        <path d="M 39.40625 66.21875 
Q 28.65625 66.21875 22.328125 58.203125 
Q 16.015625 50.203125 16.015625 36.375 
Q 16.015625 22.609375 22.328125 14.59375 
Q 28.65625 6.59375 39.40625 6.59375 
Q 50.140625 6.59375 56.421875 14.59375 
Q 62.703125 22.609375 62.703125 36.375 
Q 62.703125 50.203125 56.421875 58.203125 
Q 50.140625 66.21875 39.40625 66.21875 
z
M 39.40625 74.21875 
Q 54.734375 74.21875 63.90625 63.9375 
Q 73.09375 53.65625 73.09375 36.375 
Q 73.09375 19.140625 63.90625 8.859375 
Q 54.734375 -1.421875 39.40625 -1.421875 
Q 24.03125 -1.421875 14.8125 8.828125 
Q 5.609375 19.09375 5.609375 36.375 
Q 5.609375 53.65625 14.8125 63.9375 
Q 24.03125 74.21875 39.40625 74.21875 
z
" id="DejaVuSans-79"/>
        <path d="M 8.5 21.578125 
L 8.5 54.6875 
L 17.484375 54.6875 
L 17.484375 21.921875 
Q 17.484375 14.15625 20.5 10.265625 
Q 23.53125 6.390625 29.59375 6.390625 
Q 36.859375 6.390625 41.078125 11.03125 
Q 45.3125 15.671875 45.3125 23.6875 
L 45.3125 54.6875 
L 54.296875 54.6875 
L 54.296875 0 
L 45.3125 0 
L 45.3125 8.40625 
Q 42.046875 3.421875 37.71875 1 
Q 33.40625 -1.421875 27.6875 -1.421875 
Q 18.265625 -1.421875 13.375 4.4375 
Q 8.5 10.296875 8.5 21.578125 
z
M 31.109375 56 
z
" id="DejaVuSans-117"/>
        <path d="M 41.109375 46.296875 
Q 39.59375 47.171875 37.8125 47.578125 
Q 36.03125 48 33.890625 48 
Q 26.265625 48 22.1875 43.046875 
Q 18.109375 38.09375 18.109375 28.8125 
L 18.109375 0 
L 9.078125 0 
L 9.078125 54.6875 
L 18.109375 54.6875 
L 18.109375 46.1875 
Q 20.953125 51.171875 25.484375 53.578125 
Q 30.03125 56 36.53125 56 
Q 37.453125 56 38.578125 55.875 
Q 39.703125 55.765625 41.0625 55.515625 
z
" id="DejaVuSans-114"/>
        <path id="DejaVuSans-32"/>
        <path d="M 9.8125 72.90625 
L 24.515625 72.90625 
L 43.109375 23.296875 
L 61.8125 72.90625 
L 76.515625 72.90625 
L 76.515625 0 
L 66.890625 0 
L 66.890625 64.015625 
L 48.09375 14.015625 
L 38.1875 14.015625 
L 19.390625 64.015625 
L 19.390625 0 
L 9.8125 0 
z
" id="DejaVuSans-77"/>
        <path d="M 56.203125 29.59375 
L 56.203125 25.203125 
L 14.890625 25.203125 
Q 15.484375 15.921875 20.484375 11.0625 
Q 25.484375 6.203125 34.421875 6.203125 
Q 39.59375 6.203125 44.453125 7.46875 
Q 49.3125 8.734375 54.109375 11.28125 
L 54.109375 2.78125 
Q 49.265625 0.734375 44.1875 -0.34375 
Q 39.109375 -1.421875 33.890625 -1.421875 
Q 20.796875 -1.421875 13.15625 6.1875 
Q 5.515625 13.8125 5.515625 26.8125 
Q 5.515625 40.234375 12.765625 48.109375 
Q 20.015625 56 32.328125 56 
Q 43.359375 56 49.78125 48.890625 
Q 56.203125 41.796875 56.203125 29.59375 
z
M 47.21875 32.234375 
Q 47.125 39.59375 43.09375 43.984375 
Q 39.0625 48.390625 32.421875 48.390625 
Q 24.90625 48.390625 20.390625 44.140625 
Q 15.875 39.890625 15.1875 32.171875 
z
" id="DejaVuSans-101"/>
        <path d="M 18.3125 70.21875 
L 18.3125 54.6875 
L 36.8125 54.6875 
L 36.8125 47.703125 
L 18.3125 47.703125 
L 18.3125 18.015625 
Q 18.3125 11.328125 20.140625 9.421875 
Q 21.96875 7.515625 27.59375 7.515625 
L 36.8125 7.515625 
L 36.8125 0 
L 27.59375 0 
Q 17.1875 0 13.234375 3.875 
Q 9.28125 7.765625 9.28125 18.015625 
L 9.28125 47.703125 
L 2.6875 47.703125 
L 2.6875 54.6875 
L 9.28125 54.6875 
L 9.28125 70.21875 
z
" id="DejaVuSans-116"/>
        <path d="M 54.890625 33.015625 
L 54.890625 0 
L 45.90625 0 
L 45.90625 32.71875 
Q 45.90625 40.484375 42.875 44.328125 
Q 39.84375 48.1875 33.796875 48.1875 
Q 26.515625 48.1875 22.3125 43.546875 
Q 18.109375 38.921875 18.109375 30.90625 
L 18.109375 0 
L 9.078125 0 
L 9.078125 75.984375 
L 18.109375 75.984375 
L 18.109375 46.1875 
Q 21.34375 51.125 25.703125 53.5625 
Q 30.078125 56 35.796875 56 
Q 45.21875 56 50.046875 50.171875 
Q 54.890625 44.34375 54.890625 33.015625 
z
" id="DejaVuSans-104"/>
        <path d="M 30.609375 48.390625 
Q 23.390625 48.390625 19.1875 42.75 
Q 14.984375 37.109375 14.984375 27.296875 
Q 14.984375 17.484375 19.15625 11.84375 
Q 23.34375 6.203125 30.609375 6.203125 
Q 37.796875 6.203125 41.984375 11.859375 
Q 46.1875 17.53125 46.1875 27.296875 
Q 46.1875 37.015625 41.984375 42.703125 
Q 37.796875 48.390625 30.609375 48.390625 
z
M 30.609375 56 
Q 42.328125 56 49.015625 48.375 
Q 55.71875 40.765625 55.71875 27.296875 
Q 55.71875 13.875 49.015625 6.21875 
Q 42.328125 -1.421875 30.609375 -1.421875 
Q 18.84375 -1.421875 12.171875 6.21875 
Q 5.515625 13.875 5.515625 27.296875 
Q 5.515625 40.765625 12.171875 48.375 
Q 18.84375 56 30.609375 56 
z
" id="DejaVuSans-111"/>
        <path d="M 45.40625 46.390625 
L 45.40625 75.984375 
L 54.390625 75.984375 
L 54.390625 0 
L 45.40625 0 
L 45.40625 8.203125 
Q 42.578125 3.328125 38.25 0.953125 
Q 33.9375 -1.421875 27.875 -1.421875 
Q 17.96875 -1.421875 11.734375 6.484375 
Q 5.515625 14.40625 5.515625 27.296875 
Q 5.515625 40.1875 11.734375 48.09375 
Q 17.96875 56 27.875 56 
Q 33.9375 56 38.25 53.625 
Q 42.578125 51.265625 45.40625 46.390625 
z
M 14.796875 27.296875 
Q 14.796875 17.390625 18.875 11.75 
Q 22.953125 6.109375 30.078125 6.109375 
Q 37.203125 6.109375 41.296875 11.75 
Q 45.40625 17.390625 45.40625 27.296875 
Q 45.40625 37.203125 41.296875 42.84375 
Q 37.203125 48.484375 30.078125 48.484375 
Q 22.953125 48.484375 18.875 42.84375 
Q 14.796875 37.203125 14.796875 27.296875 
z
" id="DejaVuSans-100"/>
       </defs>
       <use xlink:href="#DejaVuSans-79"/>
       <use x="78.710938" xlink:href="#DejaVuSans-117"/>
       <use x="142.089844" xlink:href="#DejaVuSans-114"/>
       <use x="183.203125" xlink:href="#DejaVuSans-32"/>
       <use x="214.990234" xlink:href="#DejaVuSans-77"/>
       <use x="301.269531" xlink:href="#DejaVuSans-101"/>
       <use x="362.792969" xlink:href="#DejaVuSans-116"/>
       <use x="402.001953" xlink:href="#DejaVuSans-104"/>
       <use x="465.380859" xlink:href="#DejaVuSans-111"/>
       <use x="526.5625" xlink:href="#DejaVuSans-100"/>
      </g>
     </g>
    </g>
    <g id="xtick_2">
     <g id="line2d_2">
      <g>
       <use style="stroke:#000000;stroke-width:0.8;" x="201.616477" xlink:href="#mcafebf764f" y="244.1"/>
      </g>
     </g>
     <g id="text_2">
      <!-- Stein's -->
      <g transform="translate(172.308079 264.397266)scale(0.175 -0.175)">
       <defs>
        <path d="M 53.515625 70.515625 
L 53.515625 60.890625 
Q 47.90625 63.578125 42.921875 64.890625 
Q 37.9375 66.21875 33.296875 66.21875 
Q 25.25 66.21875 20.875 63.09375 
Q 16.5 59.96875 16.5 54.203125 
Q 16.5 49.359375 19.40625 46.890625 
Q 22.3125 44.4375 30.421875 42.921875 
L 36.375 41.703125 
Q 47.40625 39.59375 52.65625 34.296875 
Q 57.90625 29 57.90625 20.125 
Q 57.90625 9.515625 50.796875 4.046875 
Q 43.703125 -1.421875 29.984375 -1.421875 
Q 24.8125 -1.421875 18.96875 -0.25 
Q 13.140625 0.921875 6.890625 3.21875 
L 6.890625 13.375 
Q 12.890625 10.015625 18.65625 8.296875 
Q 24.421875 6.59375 29.984375 6.59375 
Q 38.421875 6.59375 43.015625 9.90625 
Q 47.609375 13.234375 47.609375 19.390625 
Q 47.609375 24.75 44.3125 27.78125 
Q 41.015625 30.8125 33.5 32.328125 
L 27.484375 33.5 
Q 16.453125 35.6875 11.515625 40.375 
Q 6.59375 45.0625 6.59375 53.421875 
Q 6.59375 63.09375 13.40625 68.65625 
Q 20.21875 74.21875 32.171875 74.21875 
Q 37.3125 74.21875 42.625 73.28125 
Q 47.953125 72.359375 53.515625 70.515625 
z
" id="DejaVuSans-83"/>
        <path d="M 9.421875 54.6875 
L 18.40625 54.6875 
L 18.40625 0 
L 9.421875 0 
z
M 9.421875 75.984375 
L 18.40625 75.984375 
L 18.40625 64.59375 
L 9.421875 64.59375 
z
" id="DejaVuSans-105"/>
        <path d="M 54.890625 33.015625 
L 54.890625 0 
L 45.90625 0 
L 45.90625 32.71875 
Q 45.90625 40.484375 42.875 44.328125 
Q 39.84375 48.1875 33.796875 48.1875 
Q 26.515625 48.1875 22.3125 43.546875 
Q 18.109375 38.921875 18.109375 30.90625 
L 18.109375 0 
L 9.078125 0 
L 9.078125 54.6875 
L 18.109375 54.6875 
L 18.109375 46.1875 
Q 21.34375 51.125 25.703125 53.5625 
Q 30.078125 56 35.796875 56 
Q 45.21875 56 50.046875 50.171875 
Q 54.890625 44.34375 54.890625 33.015625 
z
" id="DejaVuSans-110"/>
        <path d="M 17.921875 72.90625 
L 17.921875 45.796875 
L 9.625 45.796875 
L 9.625 72.90625 
z
" id="DejaVuSans-39"/>
        <path d="M 44.28125 53.078125 
L 44.28125 44.578125 
Q 40.484375 46.53125 36.375 47.5 
Q 32.28125 48.484375 27.875 48.484375 
Q 21.1875 48.484375 17.84375 46.4375 
Q 14.5 44.390625 14.5 40.28125 
Q 14.5 37.15625 16.890625 35.375 
Q 19.28125 33.59375 26.515625 31.984375 
L 29.59375 31.296875 
Q 39.15625 29.25 43.1875 25.515625 
Q 47.21875 21.78125 47.21875 15.09375 
Q 47.21875 7.46875 41.1875 3.015625 
Q 35.15625 -1.421875 24.609375 -1.421875 
Q 20.21875 -1.421875 15.453125 -0.5625 
Q 10.6875 0.296875 5.421875 2 
L 5.421875 11.28125 
Q 10.40625 8.6875 15.234375 7.390625 
Q 20.0625 6.109375 24.8125 6.109375 
Q 31.15625 6.109375 34.5625 8.28125 
Q 37.984375 10.453125 37.984375 14.40625 
Q 37.984375 18.0625 35.515625 20.015625 
Q 33.0625 21.96875 24.703125 23.78125 
L 21.578125 24.515625 
Q 13.234375 26.265625 9.515625 29.90625 
Q 5.8125 33.546875 5.8125 39.890625 
Q 5.8125 47.609375 11.28125 51.796875 
Q 16.75 56 26.8125 56 
Q 31.78125 56 36.171875 55.265625 
Q 40.578125 54.546875 44.28125 53.078125 
z
" id="DejaVuSans-115"/>
       </defs>
       <use xlink:href="#DejaVuSans-83"/>
       <use x="63.476562" xlink:href="#DejaVuSans-116"/>
       <use x="102.685547" xlink:href="#DejaVuSans-101"/>
       <use x="164.208984" xlink:href="#DejaVuSans-105"/>
       <use x="191.992188" xlink:href="#DejaVuSans-110"/>
       <use x="255.371094" xlink:href="#DejaVuSans-39"/>
       <use x="282.861328" xlink:href="#DejaVuSans-115"/>
      </g>
     </g>
    </g>
    <g id="xtick_3">
     <g id="line2d_3">
      <g>
       <use style="stroke:#000000;stroke-width:0.8;" x="297.228461" xlink:href="#mcafebf764f" y="244.1"/>
      </g>
     </g>
     <g id="text_3">
      <!-- Entry-wise -->
      <g transform="translate(251.415375 264.397266)scale(0.175 -0.175)">
       <defs>
        <path d="M 9.8125 72.90625 
L 55.90625 72.90625 
L 55.90625 64.59375 
L 19.671875 64.59375 
L 19.671875 43.015625 
L 54.390625 43.015625 
L 54.390625 34.71875 
L 19.671875 34.71875 
L 19.671875 8.296875 
L 56.78125 8.296875 
L 56.78125 0 
L 9.8125 0 
z
" id="DejaVuSans-69"/>
        <path d="M 32.171875 -5.078125 
Q 28.375 -14.84375 24.75 -17.8125 
Q 21.140625 -20.796875 15.09375 -20.796875 
L 7.90625 -20.796875 
L 7.90625 -13.28125 
L 13.1875 -13.28125 
Q 16.890625 -13.28125 18.9375 -11.515625 
Q 21 -9.765625 23.484375 -3.21875 
L 25.09375 0.875 
L 2.984375 54.6875 
L 12.5 54.6875 
L 29.59375 11.921875 
L 46.6875 54.6875 
L 56.203125 54.6875 
z
" id="DejaVuSans-121"/>
        <path d="M 4.890625 31.390625 
L 31.203125 31.390625 
L 31.203125 23.390625 
L 4.890625 23.390625 
z
" id="DejaVuSans-45"/>
        <path d="M 4.203125 54.6875 
L 13.1875 54.6875 
L 24.421875 12.015625 
L 35.59375 54.6875 
L 46.1875 54.6875 
L 57.421875 12.015625 
L 68.609375 54.6875 
L 77.59375 54.6875 
L 63.28125 0 
L 52.6875 0 
L 40.921875 44.828125 
L 29.109375 0 
L 18.5 0 
z
" id="DejaVuSans-119"/>
       </defs>
       <use xlink:href="#DejaVuSans-69"/>
       <use x="63.183594" xlink:href="#DejaVuSans-110"/>
       <use x="126.5625" xlink:href="#DejaVuSans-116"/>
       <use x="165.771484" xlink:href="#DejaVuSans-114"/>
       <use x="206.884766" xlink:href="#DejaVuSans-121"/>
       <use x="264.314453" xlink:href="#DejaVuSans-45"/>
       <use x="300.398438" xlink:href="#DejaVuSans-119"/>
       <use x="382.185547" xlink:href="#DejaVuSans-105"/>
       <use x="409.96875" xlink:href="#DejaVuSans-115"/>
       <use x="462.068359" xlink:href="#DejaVuSans-101"/>
      </g>
     </g>
    </g>
   </g>
   <g id="matplotlib.axis_2">
    <g id="ytick_1">
     <g id="line2d_4">
      <defs>
       <path d="M 0 0 
L -3.5 0 
" id="mdcc7f29e5e" style="stroke:#000000;stroke-width:0.8;"/>
      </defs>
      <g>
       <use style="stroke:#000000;stroke-width:0.8;" x="70.15" xlink:href="#mdcc7f29e5e" y="209.01434"/>
      </g>
     </g>
     <g id="text_4">
      <!-- 10 -->
      <g transform="translate(40.88125 215.662973)scale(0.175 -0.175)">
       <defs>
        <path d="M 12.40625 8.296875 
L 28.515625 8.296875 
L 28.515625 63.921875 
L 10.984375 60.40625 
L 10.984375 69.390625 
L 28.421875 72.90625 
L 38.28125 72.90625 
L 38.28125 8.296875 
L 54.390625 8.296875 
L 54.390625 0 
L 12.40625 0 
z
" id="DejaVuSans-49"/>
        <path d="M 31.78125 66.40625 
Q 24.171875 66.40625 20.328125 58.90625 
Q 16.5 51.421875 16.5 36.375 
Q 16.5 21.390625 20.328125 13.890625 
Q 24.171875 6.390625 31.78125 6.390625 
Q 39.453125 6.390625 43.28125 13.890625 
Q 47.125 21.390625 47.125 36.375 
Q 47.125 51.421875 43.28125 58.90625 
Q 39.453125 66.40625 31.78125 66.40625 
z
M 31.78125 74.21875 
Q 44.046875 74.21875 50.515625 64.515625 
Q 56.984375 54.828125 56.984375 36.375 
Q 56.984375 17.96875 50.515625 8.265625 
Q 44.046875 -1.421875 31.78125 -1.421875 
Q 19.53125 -1.421875 13.0625 8.265625 
Q 6.59375 17.96875 6.59375 36.375 
Q 6.59375 54.828125 13.0625 64.515625 
Q 19.53125 74.21875 31.78125 74.21875 
z
" id="DejaVuSans-48"/>
       </defs>
       <use xlink:href="#DejaVuSans-49"/>
       <use x="63.623047" xlink:href="#DejaVuSans-48"/>
      </g>
     </g>
    </g>
    <g id="ytick_2">
     <g id="line2d_5">
      <g>
       <use style="stroke:#000000;stroke-width:0.8;" x="70.15" xlink:href="#mdcc7f29e5e" y="148.000358"/>
      </g>
     </g>
     <g id="text_5">
      <!-- 20 -->
      <g transform="translate(40.88125 154.64899)scale(0.175 -0.175)">
       <defs>
        <path d="M 19.1875 8.296875 
L 53.609375 8.296875 
L 53.609375 0 
L 7.328125 0 
L 7.328125 8.296875 
Q 12.9375 14.109375 22.625 23.890625 
Q 32.328125 33.6875 34.8125 36.53125 
Q 39.546875 41.84375 41.421875 45.53125 
Q 43.3125 49.21875 43.3125 52.78125 
Q 43.3125 58.59375 39.234375 62.25 
Q 35.15625 65.921875 28.609375 65.921875 
Q 23.96875 65.921875 18.8125 64.3125 
Q 13.671875 62.703125 7.8125 59.421875 
L 7.8125 69.390625 
Q 13.765625 71.78125 18.9375 73 
Q 24.125 74.21875 28.421875 74.21875 
Q 39.75 74.21875 46.484375 68.546875 
Q 53.21875 62.890625 53.21875 53.421875 
Q 53.21875 48.921875 51.53125 44.890625 
Q 49.859375 40.875 45.40625 35.40625 
Q 44.1875 33.984375 37.640625 27.21875 
Q 31.109375 20.453125 19.1875 8.296875 
z
" id="DejaVuSans-50"/>
       </defs>
       <use xlink:href="#DejaVuSans-50"/>
       <use x="63.623047" xlink:href="#DejaVuSans-48"/>
      </g>
     </g>
    </g>
    <g id="ytick_3">
     <g id="line2d_6">
      <g>
       <use style="stroke:#000000;stroke-width:0.8;" x="70.15" xlink:href="#mdcc7f29e5e" y="86.986375"/>
      </g>
     </g>
     <g id="text_6">
      <!-- 30 -->
      <g transform="translate(40.88125 93.635008)scale(0.175 -0.175)">
       <defs>
        <path d="M 40.578125 39.3125 
Q 47.65625 37.796875 51.625 33 
Q 55.609375 28.21875 55.609375 21.1875 
Q 55.609375 10.40625 48.1875 4.484375 
Q 40.765625 -1.421875 27.09375 -1.421875 
Q 22.515625 -1.421875 17.65625 -0.515625 
Q 12.796875 0.390625 7.625 2.203125 
L 7.625 11.71875 
Q 11.71875 9.328125 16.59375 8.109375 
Q 21.484375 6.890625 26.8125 6.890625 
Q 36.078125 6.890625 40.9375 10.546875 
Q 45.796875 14.203125 45.796875 21.1875 
Q 45.796875 27.640625 41.28125 31.265625 
Q 36.765625 34.90625 28.71875 34.90625 
L 20.21875 34.90625 
L 20.21875 43.015625 
L 29.109375 43.015625 
Q 36.375 43.015625 40.234375 45.921875 
Q 44.09375 48.828125 44.09375 54.296875 
Q 44.09375 59.90625 40.109375 62.90625 
Q 36.140625 65.921875 28.71875 65.921875 
Q 24.65625 65.921875 20.015625 65.03125 
Q 15.375 64.15625 9.8125 62.3125 
L 9.8125 71.09375 
Q 15.4375 72.65625 20.34375 73.4375 
Q 25.25 74.21875 29.59375 74.21875 
Q 40.828125 74.21875 47.359375 69.109375 
Q 53.90625 64.015625 53.90625 55.328125 
Q 53.90625 49.265625 50.4375 45.09375 
Q 46.96875 40.921875 40.578125 39.3125 
z
" id="DejaVuSans-51"/>
       </defs>
       <use xlink:href="#DejaVuSans-51"/>
       <use x="63.623047" xlink:href="#DejaVuSans-48"/>
      </g>
     </g>
    </g>
    <g id="ytick_4">
     <g id="line2d_7">
      <g>
       <use style="stroke:#000000;stroke-width:0.8;" x="70.15" xlink:href="#mdcc7f29e5e" y="25.972393"/>
      </g>
     </g>
     <g id="text_7">
      <!-- 40 -->
      <g transform="translate(40.88125 32.621026)scale(0.175 -0.175)">
       <defs>
        <path d="M 37.796875 64.3125 
L 12.890625 25.390625 
L 37.796875 25.390625 
z
M 35.203125 72.90625 
L 47.609375 72.90625 
L 47.609375 25.390625 
L 58.015625 25.390625 
L 58.015625 17.1875 
L 47.609375 17.1875 
L 47.609375 0 
L 37.796875 0 
L 37.796875 17.1875 
L 4.890625 17.1875 
L 4.890625 26.703125 
z
" id="DejaVuSans-52"/>
       </defs>
       <use xlink:href="#DejaVuSans-52"/>
       <use x="63.623047" xlink:href="#DejaVuSans-48"/>
      </g>
     </g>
    </g>
    <g id="text_8">
     <!-- Estimation Error -->
     <g transform="translate(33.241797 203.8958)rotate(-90)scale(0.175 -0.175)">
      <defs>
       <path d="M 52 44.1875 
Q 55.375 50.25 60.0625 53.125 
Q 64.75 56 71.09375 56 
Q 79.640625 56 84.28125 50.015625 
Q 88.921875 44.046875 88.921875 33.015625 
L 88.921875 0 
L 79.890625 0 
L 79.890625 32.71875 
Q 79.890625 40.578125 77.09375 44.375 
Q 74.3125 48.1875 68.609375 48.1875 
Q 61.625 48.1875 57.5625 43.546875 
Q 53.515625 38.921875 53.515625 30.90625 
L 53.515625 0 
L 44.484375 0 
L 44.484375 32.71875 
Q 44.484375 40.625 41.703125 44.40625 
Q 38.921875 48.1875 33.109375 48.1875 
Q 26.21875 48.1875 22.15625 43.53125 
Q 18.109375 38.875 18.109375 30.90625 
L 18.109375 0 
L 9.078125 0 
L 9.078125 54.6875 
L 18.109375 54.6875 
L 18.109375 46.1875 
Q 21.1875 51.21875 25.484375 53.609375 
Q 29.78125 56 35.6875 56 
Q 41.65625 56 45.828125 52.96875 
Q 50 49.953125 52 44.1875 
z
" id="DejaVuSans-109"/>
       <path d="M 34.28125 27.484375 
Q 23.390625 27.484375 19.1875 25 
Q 14.984375 22.515625 14.984375 16.5 
Q 14.984375 11.71875 18.140625 8.90625 
Q 21.296875 6.109375 26.703125 6.109375 
Q 34.1875 6.109375 38.703125 11.40625 
Q 43.21875 16.703125 43.21875 25.484375 
L 43.21875 27.484375 
z
M 52.203125 31.203125 
L 52.203125 0 
L 43.21875 0 
L 43.21875 8.296875 
Q 40.140625 3.328125 35.546875 0.953125 
Q 30.953125 -1.421875 24.3125 -1.421875 
Q 15.921875 -1.421875 10.953125 3.296875 
Q 6 8.015625 6 15.921875 
Q 6 25.140625 12.171875 29.828125 
Q 18.359375 34.515625 30.609375 34.515625 
L 43.21875 34.515625 
L 43.21875 35.40625 
Q 43.21875 41.609375 39.140625 45 
Q 35.0625 48.390625 27.6875 48.390625 
Q 23 48.390625 18.546875 47.265625 
Q 14.109375 46.140625 10.015625 43.890625 
L 10.015625 52.203125 
Q 14.9375 54.109375 19.578125 55.046875 
Q 24.21875 56 28.609375 56 
Q 40.484375 56 46.34375 49.84375 
Q 52.203125 43.703125 52.203125 31.203125 
z
" id="DejaVuSans-97"/>
      </defs>
      <use xlink:href="#DejaVuSans-69"/>
      <use x="63.183594" xlink:href="#DejaVuSans-115"/>
      <use x="115.283203" xlink:href="#DejaVuSans-116"/>
      <use x="154.492188" xlink:href="#DejaVuSans-105"/>
      <use x="182.275391" xlink:href="#DejaVuSans-109"/>
      <use x="279.6875" xlink:href="#DejaVuSans-97"/>
      <use x="340.966797" xlink:href="#DejaVuSans-116"/>
      <use x="380.175781" xlink:href="#DejaVuSans-105"/>
      <use x="407.958984" xlink:href="#DejaVuSans-111"/>
      <use x="469.140625" xlink:href="#DejaVuSans-110"/>
      <use x="532.519531" xlink:href="#DejaVuSans-32"/>
      <use x="564.306641" xlink:href="#DejaVuSans-69"/>
      <use x="627.490234" xlink:href="#DejaVuSans-114"/>
      <use x="666.853516" xlink:href="#DejaVuSans-114"/>
      <use x="705.716797" xlink:href="#DejaVuSans-111"/>
      <use x="766.898438" xlink:href="#DejaVuSans-114"/>
     </g>
    </g>
   </g>
   <g id="LineCollection_1">
    <path clip-path="url(#p6eaeba9222)" d="M 94.052996 197.490999 
L 117.955992 197.490999 
" style="fill:none;stroke:#1f77b4;stroke-width:1.5;"/>
    <path clip-path="url(#p6eaeba9222)" d="M 189.664979 32.37641 
L 213.567975 32.37641 
" style="fill:none;stroke:#1f77b4;stroke-width:1.5;"/>
    <path clip-path="url(#p6eaeba9222)" d="M 285.276963 173.967385 
L 309.179959 173.967385 
" style="fill:none;stroke:#1f77b4;stroke-width:1.5;"/>
   </g>
   <g id="LineCollection_2">
    <path clip-path="url(#p6eaeba9222)" d="M 94.052996 234.017924 
L 117.955992 234.017924 
" style="fill:none;stroke:#1f77b4;stroke-width:1.5;"/>
    <path clip-path="url(#p6eaeba9222)" d="M 189.664979 160.343336 
L 213.567975 160.343336 
" style="fill:none;stroke:#1f77b4;stroke-width:1.5;"/>
    <path clip-path="url(#p6eaeba9222)" d="M 285.276963 208.102017 
L 309.179959 208.102017 
" style="fill:none;stroke:#1f77b4;stroke-width:1.5;"/>
   </g>
   <g id="LineCollection_3">
    <path clip-path="url(#p6eaeba9222)" d="M 106.004494 234.017924 
L 106.004494 197.490999 
" style="fill:none;stroke:#1f77b4;stroke-width:1.5;"/>
    <path clip-path="url(#p6eaeba9222)" d="M 201.616477 160.343336 
L 201.616477 32.37641 
" style="fill:none;stroke:#1f77b4;stroke-width:1.5;"/>
    <path clip-path="url(#p6eaeba9222)" d="M 297.228461 208.102017 
L 297.228461 173.967385 
" style="fill:none;stroke:#1f77b4;stroke-width:1.5;"/>
   </g>
   <g id="patch_3">
    <path d="M 70.15 244.1 
L 70.15 22.294334 
" style="fill:none;stroke:#000000;stroke-linecap:square;stroke-linejoin:miter;stroke-width:0.8;"/>
   </g>
   <g id="patch_4">
    <path d="M 333.082955 244.1 
L 333.082955 22.294334 
" style="fill:none;stroke:#000000;stroke-linecap:square;stroke-linejoin:miter;stroke-width:0.8;"/>
   </g>
   <g id="patch_5">
    <path d="M 70.15 244.1 
L 333.082955 244.1 
" style="fill:none;stroke:#000000;stroke-linecap:square;stroke-linejoin:miter;stroke-width:0.8;"/>
   </g>
   <g id="patch_6">
    <path d="M 70.15 22.294334 
L 333.082955 22.294334 
" style="fill:none;stroke:#000000;stroke-linecap:square;stroke-linejoin:miter;stroke-width:0.8;"/>
   </g>
  </g>
 </g>
 <defs>
  <clipPath id="p6eaeba9222">
   <rect height="221.805666" width="262.932955" x="70.15" y="22.294334"/>
  </clipPath>
 </defs>
</svg>
