<?xml version="1.0" encoding="utf-8" standalone="no"?>
<!DOCTYPE svg PUBLIC "-//W3C//DTD SVG 1.1//EN"
  "http://www.w3.org/Graphics/SVG/1.1/DTD/svg11.dtd">
<!-- Created with matplotlib (https://matplotlib.org/) -->
<svg height="288pt" version="1.1" viewBox="0 0 360 288" width="360pt" xmlns="http://www.w3.org/2000/svg" xmlns:xlink="http://www.w3.org/1999/xlink">
 <metadata>
  <rdf:RDF xmlns:cc="http://creativecommons.org/ns#" xmlns:dc="http://purl.org/dc/elements/1.1/" xmlns:rdf="http://www.w3.org/1999/02/22-rdf-syntax-ns#">
   <cc:Work>
    <dc:type rdf:resource="http://purl.org/dc/dcmitype/StillImage"/>
    <dc:date>2022-09-25T00:48:12.922548</dc:date>
    <dc:format>image/svg+xml</dc:format>
    <dc:creator>
     <cc:Agent>
      <dc:title>Matplotlib v3.3.4, https://matplotlib.org/</dc:title>
     </cc:Agent>
    </dc:creator>
   </cc:Work>
  </rdf:RDF>
 </metadata>
 <defs>
  <style type="text/css">*{stroke-linecap:butt;stroke-linejoin:round;}</style>
 </defs>
 <g id="figure_1">
  <g id="patch_1">
   <path d="M 0 288 
L 360 288 
L 360 0 
L 0 0 
z
" style="fill:none;"/>
  </g>
  <g id="axes_1">
   <g id="patch_2">
    <path d="M 70.15 244.1 
L 333.082955 244.1 
L 333.082955 18.9 
L 70.15 18.9 
z
" style="fill:#ffffff;"/>
   </g>
   <g id="PolyCollection_1">
    <path clip-path="url(#p55c945fd34)" d="M 110.311487 233.863636 
L 101.6975 233.863636 
L 101.198114 233.375391 
L 100.693203 232.887145 
L 100.190728 232.398899 
L 99.698393 231.910654 
L 99.223073 231.422408 
L 98.770236 230.934162 
L 98.343402 230.445917 
L 97.943693 229.957671 
L 97.569529 229.469425 
L 97.21651 228.98118 
L 96.877513 228.492934 
L 96.543019 228.004689 
L 96.201657 227.516443 
L 95.840941 227.028197 
L 95.448147 226.539952 
L 95.011263 226.051706 
L 94.519942 225.56346 
L 93.966372 225.075215 
L 93.346005 224.586969 
L 92.658063 224.098723 
L 91.905805 223.610478 
L 91.096503 223.122232 
L 90.241164 222.633986 
L 89.353991 222.145741 
L 88.451653 221.657495 
L 87.552405 221.169249 
L 86.675138 220.681004 
L 85.838409 220.192758 
L 85.059542 219.704512 
L 84.353825 219.216267 
L 83.733861 218.728021 
L 83.209093 218.239775 
L 82.785521 217.75153 
L 82.465595 217.263284 
L 82.248286 216.775039 
L 82.129313 216.286793 
L 82.101498 215.798547 
L 82.155234 215.310302 
L 82.279031 214.822056 
L 82.460133 214.33381 
L 82.685166 213.845565 
L 82.940813 213.357319 
L 83.21447 212.869073 
L 83.494874 212.380828 
L 83.772667 211.892582 
L 84.040852 211.404336 
L 84.295137 210.916091 
L 84.534105 210.427845 
L 84.759229 209.939599 
L 84.974686 209.451354 
L 85.187001 208.963108 
L 85.404532 208.474862 
L 85.636827 207.986617 
L 85.893898 207.498371 
L 86.185474 207.010125 
L 86.520279 206.52188 
L 86.905398 206.033634 
L 87.345769 205.545389 
L 87.843849 205.057143 
L 88.399463 204.568897 
L 89.009836 204.080652 
L 89.669813 203.592406 
L 90.372227 203.10416 
L 91.108379 202.615915 
L 91.868596 202.127669 
L 92.642807 201.639423 
L 93.421108 201.151178 
L 94.194264 200.662932 
L 94.954117 200.174686 
L 95.693876 199.686441 
L 96.408289 199.198195 
L 97.093665 198.709949 
L 97.747788 198.221704 
L 98.369714 197.733458 
L 98.959496 197.245212 
L 99.517858 196.756967 
L 100.045852 196.268721 
L 100.54454 195.780475 
L 101.014735 195.29223 
L 101.456807 194.803984 
L 101.870596 194.315738 
L 102.255417 193.827493 
L 102.610172 193.339247 
L 102.933528 192.851002 
L 103.224166 192.362756 
L 103.481045 191.87451 
L 103.703669 191.386265 
L 103.892309 190.898019 
L 104.048167 190.409773 
L 104.17345 189.921528 
L 104.271351 189.433282 
L 104.345936 188.945036 
L 104.401945 188.456791 
L 104.444525 187.968545 
L 104.478926 187.480299 
L 104.510185 186.992054 
L 104.542825 186.503808 
L 104.580605 186.015562 
L 104.626333 185.527317 
L 107.382655 185.527317 
L 107.382655 185.527317 
L 107.428382 186.015562 
L 107.466162 186.503808 
L 107.498802 186.992054 
L 107.530061 187.480299 
L 107.564463 187.968545 
L 107.607043 188.456791 
L 107.663052 188.945036 
L 107.737637 189.433282 
L 107.835537 189.921528 
L 107.96082 190.409773 
L 108.116678 190.898019 
L 108.305319 191.386265 
L 108.527943 191.87451 
L 108.784822 192.362756 
L 109.07546 192.851002 
L 109.398816 193.339247 
L 109.753571 193.827493 
L 110.138392 194.315738 
L 110.55218 194.803984 
L 110.994252 195.29223 
L 111.464447 195.780475 
L 111.963136 196.268721 
L 112.491129 196.756967 
L 113.049491 197.245212 
L 113.639274 197.733458 
L 114.2612 198.221704 
L 114.915322 198.709949 
L 115.600698 199.198195 
L 116.315111 199.686441 
L 117.054871 200.174686 
L 117.814723 200.662932 
L 118.587879 201.151178 
L 119.366181 201.639423 
L 120.140392 202.127669 
L 120.900608 202.615915 
L 121.636761 203.10416 
L 122.339175 203.592406 
L 122.999152 204.080652 
L 123.609525 204.568897 
L 124.165138 205.057143 
L 124.663219 205.545389 
L 125.10359 206.033634 
L 125.488708 206.52188 
L 125.823513 207.010125 
L 126.11509 207.498371 
L 126.372161 207.986617 
L 126.604456 208.474862 
L 126.821987 208.963108 
L 127.034302 209.451354 
L 127.249758 209.939599 
L 127.474882 210.427845 
L 127.713851 210.916091 
L 127.968135 211.404336 
L 128.236321 211.892582 
L 128.514113 212.380828 
L 128.794518 212.869073 
L 129.068174 213.357319 
L 129.323821 213.845565 
L 129.548855 214.33381 
L 129.729957 214.822056 
L 129.853754 215.310302 
L 129.90749 215.798547 
L 129.879675 216.286793 
L 129.760702 216.775039 
L 129.543393 217.263284 
L 129.223466 217.75153 
L 128.799895 218.239775 
L 128.275127 218.728021 
L 127.655163 219.216267 
L 126.949445 219.704512 
L 126.170579 220.192758 
L 125.33385 220.681004 
L 124.456582 221.169249 
L 123.557335 221.657495 
L 122.654997 222.145741 
L 121.767824 222.633986 
L 120.912485 223.122232 
L 120.103183 223.610478 
L 119.350924 224.098723 
L 118.662983 224.586969 
L 118.042615 225.075215 
L 117.489046 225.56346 
L 116.997724 226.051706 
L 116.56084 226.539952 
L 116.168047 227.028197 
L 115.807331 227.516443 
L 115.465968 228.004689 
L 115.131474 228.492934 
L 114.792478 228.98118 
L 114.439459 229.469425 
L 114.065295 229.957671 
L 113.665585 230.445917 
L 113.238751 230.934162 
L 112.785915 231.422408 
L 112.310595 231.910654 
L 111.818259 232.398899 
L 111.315784 232.887145 
L 110.810873 233.375391 
L 110.311487 233.863636 
z
" style="fill:#1f77b4;fill-opacity:0.3;"/>
   </g>
   <g id="PolyCollection_2">
    <path clip-path="url(#p55c945fd34)" d="M 203.479988 201.724242 
L 199.752966 201.724242 
L 199.357062 199.98093 
L 198.884902 198.237618 
L 198.327908 196.494306 
L 197.679965 194.750994 
L 196.938594 193.007682 
L 196.105952 191.26437 
L 195.189511 189.521058 
L 194.202278 187.777747 
L 193.162474 186.034435 
L 192.092658 184.291123 
L 191.018342 182.547811 
L 189.96624 180.804499 
L 188.962307 179.061187 
L 188.029781 177.317875 
L 187.187428 175.574563 
L 186.448163 173.831251 
L 185.81818 172.087939 
L 185.296644 170.344628 
L 184.875957 168.601316 
L 184.542529 166.858004 
L 184.277956 165.114692 
L 184.060479 163.37138 
L 183.866595 161.628068 
L 183.672706 159.884756 
L 183.45673 158.141444 
L 183.1996 156.398132 
L 182.886615 154.65482 
L 182.508595 152.911509 
L 182.062798 151.168197 
L 181.553522 149.424885 
L 180.992307 147.681573 
L 180.397664 145.938261 
L 179.794259 144.194949 
L 179.211541 142.451637 
L 178.68187 140.708325 
L 178.238267 138.965013 
L 177.911977 137.221701 
L 177.730094 135.47839 
L 177.713481 133.735078 
L 177.875216 131.991766 
L 178.219711 130.248454 
L 178.742594 128.505142 
L 179.4313 126.76183 
L 180.266298 125.018518 
L 181.222741 123.275206 
L 182.272364 121.531894 
L 183.385413 119.788582 
L 184.532433 118.045271 
L 185.685804 116.301959 
L 186.820948 114.558647 
L 187.917211 112.815335 
L 188.958421 111.072023 
L 189.933161 109.328711 
L 190.834781 107.585399 
L 191.66117 105.842087 
L 192.414279 104.098775 
L 193.099422 102.355463 
L 193.724369 100.612152 
L 194.298288 98.86884 
L 194.830639 97.125528 
L 195.330118 95.382216 
L 195.803799 93.638904 
L 196.25657 91.895592 
L 196.690942 90.15228 
L 197.107229 88.408968 
L 197.504064 86.665656 
L 197.87912 84.922344 
L 198.229909 83.179033 
L 198.554498 81.435721 
L 198.852033 79.692409 
L 199.122983 77.949097 
L 199.369104 76.205785 
L 199.593145 74.462473 
L 199.798392 72.719161 
L 199.988158 70.975849 
L 200.165305 69.232537 
L 200.331895 67.489225 
L 200.489009 65.745914 
L 200.636735 64.002602 
L 200.774311 62.25929 
L 200.900372 60.515978 
L 201.01324 58.772666 
L 201.111213 57.029354 
L 201.192805 55.286042 
L 201.256938 53.54273 
L 201.303054 51.799418 
L 201.331185 50.056106 
L 201.341979 48.312795 
L 201.336701 46.569483 
L 201.317222 44.826171 
L 201.285989 43.082859 
L 201.245967 41.339547 
L 201.200545 39.596235 
L 201.153394 37.852923 
L 201.108272 36.109611 
L 201.068789 34.366299 
L 201.038143 32.622987 
L 201.018874 30.879676 
L 201.012651 29.136364 
L 202.220303 29.136364 
L 202.220303 29.136364 
L 202.21408 30.879676 
L 202.194811 32.622987 
L 202.164166 34.366299 
L 202.124682 36.109611 
L 202.079561 37.852923 
L 202.03241 39.596235 
L 201.986988 41.339547 
L 201.946965 43.082859 
L 201.915732 44.826171 
L 201.896254 46.569483 
L 201.890975 48.312795 
L 201.901769 50.056106 
L 201.9299 51.799418 
L 201.976017 53.54273 
L 202.040149 55.286042 
L 202.121742 57.029354 
L 202.219714 58.772666 
L 202.332583 60.515978 
L 202.458644 62.25929 
L 202.59622 64.002602 
L 202.743945 65.745914 
L 202.901059 67.489225 
L 203.06765 69.232537 
L 203.244797 70.975849 
L 203.434562 72.719161 
L 203.63981 74.462473 
L 203.86385 76.205785 
L 204.109971 77.949097 
L 204.380922 79.692409 
L 204.678456 81.435721 
L 205.003045 83.179033 
L 205.353834 84.922344 
L 205.728891 86.665656 
L 206.125726 88.408968 
L 206.542013 90.15228 
L 206.976384 91.895592 
L 207.429156 93.638904 
L 207.902837 95.382216 
L 208.402315 97.125528 
L 208.934666 98.86884 
L 209.508585 100.612152 
L 210.133532 102.355463 
L 210.818675 104.098775 
L 211.571785 105.842087 
L 212.398173 107.585399 
L 213.299794 109.328711 
L 214.274533 111.072023 
L 215.315743 112.815335 
L 216.412007 114.558647 
L 217.547151 116.301959 
L 218.700522 118.045271 
L 219.847542 119.788582 
L 220.960591 121.531894 
L 222.010214 123.275206 
L 222.966656 125.018518 
L 223.801654 126.76183 
L 224.490361 128.505142 
L 225.013243 130.248454 
L 225.357739 131.991766 
L 225.519473 133.735078 
L 225.502861 135.47839 
L 225.320978 137.221701 
L 224.994688 138.965013 
L 224.551084 140.708325 
L 224.021413 142.451637 
L 223.438695 144.194949 
L 222.83529 145.938261 
L 222.240647 147.681573 
L 221.679433 149.424885 
L 221.170156 151.168197 
L 220.72436 152.911509 
L 220.346339 154.65482 
L 220.033354 156.398132 
L 219.776225 158.141444 
L 219.560249 159.884756 
L 219.36636 161.628068 
L 219.172475 163.37138 
L 218.954999 165.114692 
L 218.690426 166.858004 
L 218.356998 168.601316 
L 217.936311 170.344628 
L 217.414774 172.087939 
L 216.784791 173.831251 
L 216.045526 175.574563 
L 215.203173 177.317875 
L 214.270647 179.061187 
L 213.266715 180.804499 
L 212.214613 182.547811 
L 211.140297 184.291123 
L 210.07048 186.034435 
L 209.030677 187.777747 
L 208.043444 189.521058 
L 207.127002 191.26437 
L 206.29436 193.007682 
L 205.552989 194.750994 
L 204.905047 196.494306 
L 204.348052 198.237618 
L 203.875893 199.98093 
L 203.479988 201.724242 
z
" style="fill:#1f77b4;fill-opacity:0.3;"/>
   </g>
   <g id="PolyCollection_3">
    <path clip-path="url(#p55c945fd34)" d="M 302.983333 219.63307 
L 291.473589 219.63307 
L 290.920108 219.228792 
L 290.357179 218.824515 
L 289.789792 218.420237 
L 289.222927 218.015959 
L 288.661332 217.611681 
L 288.109307 217.207404 
L 287.570469 216.803126 
L 287.047536 216.398848 
L 286.542144 215.99457 
L 286.054694 215.590292 
L 285.584275 215.186015 
L 285.128649 214.781737 
L 284.684332 214.377459 
L 284.246752 213.973181 
L 283.810512 213.568903 
L 283.369722 213.164626 
L 282.918398 212.760348 
L 282.45091 212.35607 
L 281.962431 211.951792 
L 281.449378 211.547514 
L 280.909794 211.143237 
L 280.343645 210.738959 
L 279.753007 210.334681 
L 279.142124 209.930403 
L 278.517315 209.526126 
L 277.886745 209.121848 
L 277.260068 208.71757 
L 276.647953 208.313292 
L 276.061539 207.909014 
L 275.511849 207.504737 
L 275.009203 207.100459 
L 274.562686 206.696181 
L 274.179682 206.291903 
L 273.865536 205.887625 
L 273.623343 205.483348 
L 273.453893 205.07907 
L 273.355747 204.674792 
L 273.325465 204.270514 
L 273.357922 203.866237 
L 273.446719 203.461959 
L 273.584631 203.057681 
L 273.764053 202.653403 
L 273.97743 202.249125 
L 274.217615 201.844848 
L 274.478157 201.44057 
L 274.753491 201.036292 
L 275.039036 200.632014 
L 275.331205 200.227736 
L 275.627343 199.823459 
L 275.925615 199.419181 
L 276.224863 199.014903 
L 276.524456 198.610625 
L 276.824156 198.206347 
L 277.124005 197.80207 
L 277.424252 197.397792 
L 277.725314 196.993514 
L 278.027775 196.589236 
L 278.332397 196.184959 
L 278.640155 195.780681 
L 278.95226 195.376403 
L 279.270172 194.972125 
L 279.595592 194.567847 
L 279.930412 194.16357 
L 280.276652 193.759292 
L 280.636352 193.355014 
L 281.011452 192.950736 
L 281.403656 192.546458 
L 281.814299 192.142181 
L 282.244218 191.737903 
L 282.693651 191.333625 
L 283.162156 190.929347 
L 283.648579 190.52507 
L 284.151045 190.120792 
L 284.666998 189.716514 
L 285.193276 189.312236 
L 285.726215 188.907958 
L 286.26178 188.503681 
L 286.795721 188.099403 
L 287.323728 187.695125 
L 287.841604 187.290847 
L 288.345423 186.886569 
L 288.831682 186.482292 
L 289.297428 186.078014 
L 289.740368 185.673736 
L 290.158939 185.269458 
L 290.552355 184.86518 
L 290.920606 184.460903 
L 291.264429 184.056625 
L 291.585235 183.652347 
L 291.885013 183.248069 
L 292.166196 182.843792 
L 292.431517 182.439514 
L 292.683846 182.035236 
L 292.92603 181.630958 
L 293.160736 181.22668 
L 293.390314 180.822403 
L 293.616687 180.418125 
L 293.841262 180.013847 
L 294.064891 179.609569 
L 300.39203 179.609569 
L 300.39203 179.609569 
L 300.615659 180.013847 
L 300.840235 180.418125 
L 301.066607 180.822403 
L 301.296186 181.22668 
L 301.530892 181.630958 
L 301.773075 182.035236 
L 302.025404 182.439514 
L 302.290725 182.843792 
L 302.571908 183.248069 
L 302.871686 183.652347 
L 303.192492 184.056625 
L 303.536315 184.460903 
L 303.904566 184.86518 
L 304.297983 185.269458 
L 304.716554 185.673736 
L 305.159493 186.078014 
L 305.62524 186.482292 
L 306.111498 186.886569 
L 306.615318 187.290847 
L 307.133194 187.695125 
L 307.661201 188.099403 
L 308.195141 188.503681 
L 308.730707 188.907958 
L 309.263646 189.312236 
L 309.789924 189.716514 
L 310.305877 190.120792 
L 310.808343 190.52507 
L 311.294765 190.929347 
L 311.763271 191.333625 
L 312.212703 191.737903 
L 312.642622 192.142181 
L 313.053266 192.546458 
L 313.44547 192.950736 
L 313.82057 193.355014 
L 314.180269 193.759292 
L 314.526509 194.16357 
L 314.86133 194.567847 
L 315.186749 194.972125 
L 315.504662 195.376403 
L 315.816767 195.780681 
L 316.124524 196.184959 
L 316.429147 196.589236 
L 316.731607 196.993514 
L 317.03267 197.397792 
L 317.332916 197.80207 
L 317.632765 198.206347 
L 317.932465 198.610625 
L 318.232059 199.014903 
L 318.531307 199.419181 
L 318.829579 199.823459 
L 319.125716 200.227736 
L 319.417885 200.632014 
L 319.70343 201.036292 
L 319.978765 201.44057 
L 320.239307 201.844848 
L 320.479492 202.249125 
L 320.692868 202.653403 
L 320.872291 203.057681 
L 321.010202 203.461959 
L 321.099 203.866237 
L 321.131457 204.270514 
L 321.101174 204.674792 
L 321.003029 205.07907 
L 320.833578 205.483348 
L 320.591386 205.887625 
L 320.277239 206.291903 
L 319.894235 206.696181 
L 319.447718 207.100459 
L 318.945073 207.504737 
L 318.395382 207.909014 
L 317.808968 208.313292 
L 317.196853 208.71757 
L 316.570177 209.121848 
L 315.939607 209.526126 
L 315.314797 209.930403 
L 314.703914 210.334681 
L 314.113277 210.738959 
L 313.547128 211.143237 
L 313.007544 211.547514 
L 312.494491 211.951792 
L 312.006012 212.35607 
L 311.538523 212.760348 
L 311.0872 213.164626 
L 310.646409 213.568903 
L 310.210169 213.973181 
L 309.77259 214.377459 
L 309.328272 214.781737 
L 308.872647 215.186015 
L 308.402228 215.590292 
L 307.914778 215.99457 
L 307.409385 216.398848 
L 306.886453 216.803126 
L 306.347614 217.207404 
L 305.795589 217.611681 
L 305.233995 218.015959 
L 304.667129 218.420237 
L 304.099743 218.824515 
L 303.536813 219.228792 
L 302.983333 219.63307 
z
" style="fill:#1f77b4;fill-opacity:0.3;"/>
   </g>
   <g id="matplotlib.axis_1">
    <g id="xtick_1">
     <g id="line2d_1">
      <defs>
       <path d="M 0 0 
L 0 3.5 
" id="mfe8e6d58fe" style="stroke:#000000;stroke-width:0.8;"/>
      </defs>
      <g>
       <use style="stroke:#000000;stroke-width:0.8;" x="106.004494" xlink:href="#mfe8e6d58fe" y="244.1"/>
      </g>
     </g>
     <g id="text_1">
      <!-- Our Method -->
      <g transform="translate(54.375392 264.397266)scale(0.175 -0.175)">
       <defs>
        <path d="M 39.40625 66.21875 
Q 28.65625 66.21875 22.328125 58.203125 
Q 16.015625 50.203125 16.015625 36.375 
Q 16.015625 22.609375 22.328125 14.59375 
Q 28.65625 6.59375 39.40625 6.59375 
Q 50.140625 6.59375 56.421875 14.59375 
Q 62.703125 22.609375 62.703125 36.375 
Q 62.703125 50.203125 56.421875 58.203125 
Q 50.140625 66.21875 39.40625 66.21875 
z
M 39.40625 74.21875 
Q 54.734375 74.21875 63.90625 63.9375 
Q 73.09375 53.65625 73.09375 36.375 
Q 73.09375 19.140625 63.90625 8.859375 
Q 54.734375 -1.421875 39.40625 -1.421875 
Q 24.03125 -1.421875 14.8125 8.828125 
Q 5.609375 19.09375 5.609375 36.375 
Q 5.609375 53.65625 14.8125 63.9375 
Q 24.03125 74.21875 39.40625 74.21875 
z
" id="DejaVuSans-79"/>
        <path d="M 8.5 21.578125 
L 8.5 54.6875 
L 17.484375 54.6875 
L 17.484375 21.921875 
Q 17.484375 14.15625 20.5 10.265625 
Q 23.53125 6.390625 29.59375 6.390625 
Q 36.859375 6.390625 41.078125 11.03125 
Q 45.3125 15.671875 45.3125 23.6875 
L 45.3125 54.6875 
L 54.296875 54.6875 
L 54.296875 0 
L 45.3125 0 
L 45.3125 8.40625 
Q 42.046875 3.421875 37.71875 1 
Q 33.40625 -1.421875 27.6875 -1.421875 
Q 18.265625 -1.421875 13.375 4.4375 
Q 8.5 10.296875 8.5 21.578125 
z
M 31.109375 56 
z
" id="DejaVuSans-117"/>
        <path d="M 41.109375 46.296875 
Q 39.59375 47.171875 37.8125 47.578125 
Q 36.03125 48 33.890625 48 
Q 26.265625 48 22.1875 43.046875 
Q 18.109375 38.09375 18.109375 28.8125 
L 18.109375 0 
L 9.078125 0 
L 9.078125 54.6875 
L 18.109375 54.6875 
L 18.109375 46.1875 
Q 20.953125 51.171875 25.484375 53.578125 
Q 30.03125 56 36.53125 56 
Q 37.453125 56 38.578125 55.875 
Q 39.703125 55.765625 41.0625 55.515625 
z
" id="DejaVuSans-114"/>
        <path id="DejaVuSans-32"/>
        <path d="M 9.8125 72.90625 
L 24.515625 72.90625 
L 43.109375 23.296875 
L 61.8125 72.90625 
L 76.515625 72.90625 
L 76.515625 0 
L 66.890625 0 
L 66.890625 64.015625 
L 48.09375 14.015625 
L 38.1875 14.015625 
L 19.390625 64.015625 
L 19.390625 0 
L 9.8125 0 
z
" id="DejaVuSans-77"/>
        <path d="M 56.203125 29.59375 
L 56.203125 25.203125 
L 14.890625 25.203125 
Q 15.484375 15.921875 20.484375 11.0625 
Q 25.484375 6.203125 34.421875 6.203125 
Q 39.59375 6.203125 44.453125 7.46875 
Q 49.3125 8.734375 54.109375 11.28125 
L 54.109375 2.78125 
Q 49.265625 0.734375 44.1875 -0.34375 
Q 39.109375 -1.421875 33.890625 -1.421875 
Q 20.796875 -1.421875 13.15625 6.1875 
Q 5.515625 13.8125 5.515625 26.8125 
Q 5.515625 40.234375 12.765625 48.109375 
Q 20.015625 56 32.328125 56 
Q 43.359375 56 49.78125 48.890625 
Q 56.203125 41.796875 56.203125 29.59375 
z
M 47.21875 32.234375 
Q 47.125 39.59375 43.09375 43.984375 
Q 39.0625 48.390625 32.421875 48.390625 
Q 24.90625 48.390625 20.390625 44.140625 
Q 15.875 39.890625 15.1875 32.171875 
z
" id="DejaVuSans-101"/>
        <path d="M 18.3125 70.21875 
L 18.3125 54.6875 
L 36.8125 54.6875 
L 36.8125 47.703125 
L 18.3125 47.703125 
L 18.3125 18.015625 
Q 18.3125 11.328125 20.140625 9.421875 
Q 21.96875 7.515625 27.59375 7.515625 
L 36.8125 7.515625 
L 36.8125 0 
L 27.59375 0 
Q 17.1875 0 13.234375 3.875 
Q 9.28125 7.765625 9.28125 18.015625 
L 9.28125 47.703125 
L 2.6875 47.703125 
L 2.6875 54.6875 
L 9.28125 54.6875 
L 9.28125 70.21875 
z
" id="DejaVuSans-116"/>
        <path d="M 54.890625 33.015625 
L 54.890625 0 
L 45.90625 0 
L 45.90625 32.71875 
Q 45.90625 40.484375 42.875 44.328125 
Q 39.84375 48.1875 33.796875 48.1875 
Q 26.515625 48.1875 22.3125 43.546875 
Q 18.109375 38.921875 18.109375 30.90625 
L 18.109375 0 
L 9.078125 0 
L 9.078125 75.984375 
L 18.109375 75.984375 
L 18.109375 46.1875 
Q 21.34375 51.125 25.703125 53.5625 
Q 30.078125 56 35.796875 56 
Q 45.21875 56 50.046875 50.171875 
Q 54.890625 44.34375 54.890625 33.015625 
z
" id="DejaVuSans-104"/>
        <path d="M 30.609375 48.390625 
Q 23.390625 48.390625 19.1875 42.75 
Q 14.984375 37.109375 14.984375 27.296875 
Q 14.984375 17.484375 19.15625 11.84375 
Q 23.34375 6.203125 30.609375 6.203125 
Q 37.796875 6.203125 41.984375 11.859375 
Q 46.1875 17.53125 46.1875 27.296875 
Q 46.1875 37.015625 41.984375 42.703125 
Q 37.796875 48.390625 30.609375 48.390625 
z
M 30.609375 56 
Q 42.328125 56 49.015625 48.375 
Q 55.71875 40.765625 55.71875 27.296875 
Q 55.71875 13.875 49.015625 6.21875 
Q 42.328125 -1.421875 30.609375 -1.421875 
Q 18.84375 -1.421875 12.171875 6.21875 
Q 5.515625 13.875 5.515625 27.296875 
Q 5.515625 40.765625 12.171875 48.375 
Q 18.84375 56 30.609375 56 
z
" id="DejaVuSans-111"/>
        <path d="M 45.40625 46.390625 
L 45.40625 75.984375 
L 54.390625 75.984375 
L 54.390625 0 
L 45.40625 0 
L 45.40625 8.203125 
Q 42.578125 3.328125 38.25 0.953125 
Q 33.9375 -1.421875 27.875 -1.421875 
Q 17.96875 -1.421875 11.734375 6.484375 
Q 5.515625 14.40625 5.515625 27.296875 
Q 5.515625 40.1875 11.734375 48.09375 
Q 17.96875 56 27.875 56 
Q 33.9375 56 38.25 53.625 
Q 42.578125 51.265625 45.40625 46.390625 
z
M 14.796875 27.296875 
Q 14.796875 17.390625 18.875 11.75 
Q 22.953125 6.109375 30.078125 6.109375 
Q 37.203125 6.109375 41.296875 11.75 
Q 45.40625 17.390625 45.40625 27.296875 
Q 45.40625 37.203125 41.296875 42.84375 
Q 37.203125 48.484375 30.078125 48.484375 
Q 22.953125 48.484375 18.875 42.84375 
Q 14.796875 37.203125 14.796875 27.296875 
z
" id="DejaVuSans-100"/>
       </defs>
       <use xlink:href="#DejaVuSans-79"/>
       <use x="78.710938" xlink:href="#DejaVuSans-117"/>
       <use x="142.089844" xlink:href="#DejaVuSans-114"/>
       <use x="183.203125" xlink:href="#DejaVuSans-32"/>
       <use x="214.990234" xlink:href="#DejaVuSans-77"/>
       <use x="301.269531" xlink:href="#DejaVuSans-101"/>
       <use x="362.792969" xlink:href="#DejaVuSans-116"/>
       <use x="402.001953" xlink:href="#DejaVuSans-104"/>
       <use x="465.380859" xlink:href="#DejaVuSans-111"/>
       <use x="526.5625" xlink:href="#DejaVuSans-100"/>
      </g>
     </g>
    </g>
    <g id="xtick_2">
     <g id="line2d_2">
      <g>
       <use style="stroke:#000000;stroke-width:0.8;" x="201.616477" xlink:href="#mfe8e6d58fe" y="244.1"/>
      </g>
     </g>
     <g id="text_2">
      <!-- Stein's -->
      <g transform="translate(172.308079 264.397266)scale(0.175 -0.175)">
       <defs>
        <path d="M 53.515625 70.515625 
L 53.515625 60.890625 
Q 47.90625 63.578125 42.921875 64.890625 
Q 37.9375 66.21875 33.296875 66.21875 
Q 25.25 66.21875 20.875 63.09375 
Q 16.5 59.96875 16.5 54.203125 
Q 16.5 49.359375 19.40625 46.890625 
Q 22.3125 44.4375 30.421875 42.921875 
L 36.375 41.703125 
Q 47.40625 39.59375 52.65625 34.296875 
Q 57.90625 29 57.90625 20.125 
Q 57.90625 9.515625 50.796875 4.046875 
Q 43.703125 -1.421875 29.984375 -1.421875 
Q 24.8125 -1.421875 18.96875 -0.25 
Q 13.140625 0.921875 6.890625 3.21875 
L 6.890625 13.375 
Q 12.890625 10.015625 18.65625 8.296875 
Q 24.421875 6.59375 29.984375 6.59375 
Q 38.421875 6.59375 43.015625 9.90625 
Q 47.609375 13.234375 47.609375 19.390625 
Q 47.609375 24.75 44.3125 27.78125 
Q 41.015625 30.8125 33.5 32.328125 
L 27.484375 33.5 
Q 16.453125 35.6875 11.515625 40.375 
Q 6.59375 45.0625 6.59375 53.421875 
Q 6.59375 63.09375 13.40625 68.65625 
Q 20.21875 74.21875 32.171875 74.21875 
Q 37.3125 74.21875 42.625 73.28125 
Q 47.953125 72.359375 53.515625 70.515625 
z
" id="DejaVuSans-83"/>
        <path d="M 9.421875 54.6875 
L 18.40625 54.6875 
L 18.40625 0 
L 9.421875 0 
z
M 9.421875 75.984375 
L 18.40625 75.984375 
L 18.40625 64.59375 
L 9.421875 64.59375 
z
" id="DejaVuSans-105"/>
        <path d="M 54.890625 33.015625 
L 54.890625 0 
L 45.90625 0 
L 45.90625 32.71875 
Q 45.90625 40.484375 42.875 44.328125 
Q 39.84375 48.1875 33.796875 48.1875 
Q 26.515625 48.1875 22.3125 43.546875 
Q 18.109375 38.921875 18.109375 30.90625 
L 18.109375 0 
L 9.078125 0 
L 9.078125 54.6875 
L 18.109375 54.6875 
L 18.109375 46.1875 
Q 21.34375 51.125 25.703125 53.5625 
Q 30.078125 56 35.796875 56 
Q 45.21875 56 50.046875 50.171875 
Q 54.890625 44.34375 54.890625 33.015625 
z
" id="DejaVuSans-110"/>
        <path d="M 17.921875 72.90625 
L 17.921875 45.796875 
L 9.625 45.796875 
L 9.625 72.90625 
z
" id="DejaVuSans-39"/>
        <path d="M 44.28125 53.078125 
L 44.28125 44.578125 
Q 40.484375 46.53125 36.375 47.5 
Q 32.28125 48.484375 27.875 48.484375 
Q 21.1875 48.484375 17.84375 46.4375 
Q 14.5 44.390625 14.5 40.28125 
Q 14.5 37.15625 16.890625 35.375 
Q 19.28125 33.59375 26.515625 31.984375 
L 29.59375 31.296875 
Q 39.15625 29.25 43.1875 25.515625 
Q 47.21875 21.78125 47.21875 15.09375 
Q 47.21875 7.46875 41.1875 3.015625 
Q 35.15625 -1.421875 24.609375 -1.421875 
Q 20.21875 -1.421875 15.453125 -0.5625 
Q 10.6875 0.296875 5.421875 2 
L 5.421875 11.28125 
Q 10.40625 8.6875 15.234375 7.390625 
Q 20.0625 6.109375 24.8125 6.109375 
Q 31.15625 6.109375 34.5625 8.28125 
Q 37.984375 10.453125 37.984375 14.40625 
Q 37.984375 18.0625 35.515625 20.015625 
Q 33.0625 21.96875 24.703125 23.78125 
L 21.578125 24.515625 
Q 13.234375 26.265625 9.515625 29.90625 
Q 5.8125 33.546875 5.8125 39.890625 
Q 5.8125 47.609375 11.28125 51.796875 
Q 16.75 56 26.8125 56 
Q 31.78125 56 36.171875 55.265625 
Q 40.578125 54.546875 44.28125 53.078125 
z
" id="DejaVuSans-115"/>
       </defs>
       <use xlink:href="#DejaVuSans-83"/>
       <use x="63.476562" xlink:href="#DejaVuSans-116"/>
       <use x="102.685547" xlink:href="#DejaVuSans-101"/>
       <use x="164.208984" xlink:href="#DejaVuSans-105"/>
       <use x="191.992188" xlink:href="#DejaVuSans-110"/>
       <use x="255.371094" xlink:href="#DejaVuSans-39"/>
       <use x="282.861328" xlink:href="#DejaVuSans-115"/>
      </g>
     </g>
    </g>
    <g id="xtick_3">
     <g id="line2d_3">
      <g>
       <use style="stroke:#000000;stroke-width:0.8;" x="297.228461" xlink:href="#mfe8e6d58fe" y="244.1"/>
      </g>
     </g>
     <g id="text_3">
      <!-- Entry-wise -->
      <g transform="translate(251.415375 264.397266)scale(0.175 -0.175)">
       <defs>
        <path d="M 9.8125 72.90625 
L 55.90625 72.90625 
L 55.90625 64.59375 
L 19.671875 64.59375 
L 19.671875 43.015625 
L 54.390625 43.015625 
L 54.390625 34.71875 
L 19.671875 34.71875 
L 19.671875 8.296875 
L 56.78125 8.296875 
L 56.78125 0 
L 9.8125 0 
z
" id="DejaVuSans-69"/>
        <path d="M 32.171875 -5.078125 
Q 28.375 -14.84375 24.75 -17.8125 
Q 21.140625 -20.796875 15.09375 -20.796875 
L 7.90625 -20.796875 
L 7.90625 -13.28125 
L 13.1875 -13.28125 
Q 16.890625 -13.28125 18.9375 -11.515625 
Q 21 -9.765625 23.484375 -3.21875 
L 25.09375 0.875 
L 2.984375 54.6875 
L 12.5 54.6875 
L 29.59375 11.921875 
L 46.6875 54.6875 
L 56.203125 54.6875 
z
" id="DejaVuSans-121"/>
        <path d="M 4.890625 31.390625 
L 31.203125 31.390625 
L 31.203125 23.390625 
L 4.890625 23.390625 
z
" id="DejaVuSans-45"/>
        <path d="M 4.203125 54.6875 
L 13.1875 54.6875 
L 24.421875 12.015625 
L 35.59375 54.6875 
L 46.1875 54.6875 
L 57.421875 12.015625 
L 68.609375 54.6875 
L 77.59375 54.6875 
L 63.28125 0 
L 52.6875 0 
L 40.921875 44.828125 
L 29.109375 0 
L 18.5 0 
z
" id="DejaVuSans-119"/>
       </defs>
       <use xlink:href="#DejaVuSans-69"/>
       <use x="63.183594" xlink:href="#DejaVuSans-110"/>
       <use x="126.5625" xlink:href="#DejaVuSans-116"/>
       <use x="165.771484" xlink:href="#DejaVuSans-114"/>
       <use x="206.884766" xlink:href="#DejaVuSans-121"/>
       <use x="264.314453" xlink:href="#DejaVuSans-45"/>
       <use x="300.398438" xlink:href="#DejaVuSans-119"/>
       <use x="382.185547" xlink:href="#DejaVuSans-105"/>
       <use x="409.96875" xlink:href="#DejaVuSans-115"/>
       <use x="462.068359" xlink:href="#DejaVuSans-101"/>
      </g>
     </g>
    </g>
   </g>
   <g id="matplotlib.axis_2">
    <g id="ytick_1">
     <g id="line2d_4">
      <defs>
       <path d="M 0 0 
L -3.5 0 
" id="m41bd246ed2" style="stroke:#000000;stroke-width:0.8;"/>
      </defs>
      <g>
       <use style="stroke:#000000;stroke-width:0.8;" x="70.15" xlink:href="#m41bd246ed2" y="190.697332"/>
      </g>
     </g>
     <g id="text_4">
      <!-- 5 -->
      <g transform="translate(52.015625 197.345965)scale(0.175 -0.175)">
       <defs>
        <path d="M 10.796875 72.90625 
L 49.515625 72.90625 
L 49.515625 64.59375 
L 19.828125 64.59375 
L 19.828125 46.734375 
Q 21.96875 47.46875 24.109375 47.828125 
Q 26.265625 48.1875 28.421875 48.1875 
Q 40.625 48.1875 47.75 41.5 
Q 54.890625 34.8125 54.890625 23.390625 
Q 54.890625 11.625 47.5625 5.09375 
Q 40.234375 -1.421875 26.90625 -1.421875 
Q 22.3125 -1.421875 17.546875 -0.640625 
Q 12.796875 0.140625 7.71875 1.703125 
L 7.71875 11.625 
Q 12.109375 9.234375 16.796875 8.0625 
Q 21.484375 6.890625 26.703125 6.890625 
Q 35.15625 6.890625 40.078125 11.328125 
Q 45.015625 15.765625 45.015625 23.390625 
Q 45.015625 31 40.078125 35.4375 
Q 35.15625 39.890625 26.703125 39.890625 
Q 22.75 39.890625 18.8125 39.015625 
Q 14.890625 38.140625 10.796875 36.28125 
z
" id="DejaVuSans-53"/>
       </defs>
       <use xlink:href="#DejaVuSans-53"/>
      </g>
     </g>
    </g>
    <g id="ytick_2">
     <g id="line2d_5">
      <g>
       <use style="stroke:#000000;stroke-width:0.8;" x="70.15" xlink:href="#m41bd246ed2" y="131.086107"/>
      </g>
     </g>
     <g id="text_5">
      <!-- 10 -->
      <g transform="translate(40.88125 137.73474)scale(0.175 -0.175)">
       <defs>
        <path d="M 12.40625 8.296875 
L 28.515625 8.296875 
L 28.515625 63.921875 
L 10.984375 60.40625 
L 10.984375 69.390625 
L 28.421875 72.90625 
L 38.28125 72.90625 
L 38.28125 8.296875 
L 54.390625 8.296875 
L 54.390625 0 
L 12.40625 0 
z
" id="DejaVuSans-49"/>
        <path d="M 31.78125 66.40625 
Q 24.171875 66.40625 20.328125 58.90625 
Q 16.5 51.421875 16.5 36.375 
Q 16.5 21.390625 20.328125 13.890625 
Q 24.171875 6.390625 31.78125 6.390625 
Q 39.453125 6.390625 43.28125 13.890625 
Q 47.125 21.390625 47.125 36.375 
Q 47.125 51.421875 43.28125 58.90625 
Q 39.453125 66.40625 31.78125 66.40625 
z
M 31.78125 74.21875 
Q 44.046875 74.21875 50.515625 64.515625 
Q 56.984375 54.828125 56.984375 36.375 
Q 56.984375 17.96875 50.515625 8.265625 
Q 44.046875 -1.421875 31.78125 -1.421875 
Q 19.53125 -1.421875 13.0625 8.265625 
Q 6.59375 17.96875 6.59375 36.375 
Q 6.59375 54.828125 13.0625 64.515625 
Q 19.53125 74.21875 31.78125 74.21875 
z
" id="DejaVuSans-48"/>
       </defs>
       <use xlink:href="#DejaVuSans-49"/>
       <use x="63.623047" xlink:href="#DejaVuSans-48"/>
      </g>
     </g>
    </g>
    <g id="ytick_3">
     <g id="line2d_6">
      <g>
       <use style="stroke:#000000;stroke-width:0.8;" x="70.15" xlink:href="#m41bd246ed2" y="71.474882"/>
      </g>
     </g>
     <g id="text_6">
      <!-- 15 -->
      <g transform="translate(40.88125 78.123515)scale(0.175 -0.175)">
       <use xlink:href="#DejaVuSans-49"/>
       <use x="63.623047" xlink:href="#DejaVuSans-53"/>
      </g>
     </g>
    </g>
    <g id="text_7">
     <!-- Estimation Error -->
     <g transform="translate(33.241797 202.198633)rotate(-90)scale(0.175 -0.175)">
      <defs>
       <path d="M 52 44.1875 
Q 55.375 50.25 60.0625 53.125 
Q 64.75 56 71.09375 56 
Q 79.640625 56 84.28125 50.015625 
Q 88.921875 44.046875 88.921875 33.015625 
L 88.921875 0 
L 79.890625 0 
L 79.890625 32.71875 
Q 79.890625 40.578125 77.09375 44.375 
Q 74.3125 48.1875 68.609375 48.1875 
Q 61.625 48.1875 57.5625 43.546875 
Q 53.515625 38.921875 53.515625 30.90625 
L 53.515625 0 
L 44.484375 0 
L 44.484375 32.71875 
Q 44.484375 40.625 41.703125 44.40625 
Q 38.921875 48.1875 33.109375 48.1875 
Q 26.21875 48.1875 22.15625 43.53125 
Q 18.109375 38.875 18.109375 30.90625 
L 18.109375 0 
L 9.078125 0 
L 9.078125 54.6875 
L 18.109375 54.6875 
L 18.109375 46.1875 
Q 21.1875 51.21875 25.484375 53.609375 
Q 29.78125 56 35.6875 56 
Q 41.65625 56 45.828125 52.96875 
Q 50 49.953125 52 44.1875 
z
" id="DejaVuSans-109"/>
       <path d="M 34.28125 27.484375 
Q 23.390625 27.484375 19.1875 25 
Q 14.984375 22.515625 14.984375 16.5 
Q 14.984375 11.71875 18.140625 8.90625 
Q 21.296875 6.109375 26.703125 6.109375 
Q 34.1875 6.109375 38.703125 11.40625 
Q 43.21875 16.703125 43.21875 25.484375 
L 43.21875 27.484375 
z
M 52.203125 31.203125 
L 52.203125 0 
L 43.21875 0 
L 43.21875 8.296875 
Q 40.140625 3.328125 35.546875 0.953125 
Q 30.953125 -1.421875 24.3125 -1.421875 
Q 15.921875 -1.421875 10.953125 3.296875 
Q 6 8.015625 6 15.921875 
Q 6 25.140625 12.171875 29.828125 
Q 18.359375 34.515625 30.609375 34.515625 
L 43.21875 34.515625 
L 43.21875 35.40625 
Q 43.21875 41.609375 39.140625 45 
Q 35.0625 48.390625 27.6875 48.390625 
Q 23 48.390625 18.546875 47.265625 
Q 14.109375 46.140625 10.015625 43.890625 
L 10.015625 52.203125 
Q 14.9375 54.109375 19.578125 55.046875 
Q 24.21875 56 28.609375 56 
Q 40.484375 56 46.34375 49.84375 
Q 52.203125 43.703125 52.203125 31.203125 
z
" id="DejaVuSans-97"/>
      </defs>
      <use xlink:href="#DejaVuSans-69"/>
      <use x="63.183594" xlink:href="#DejaVuSans-115"/>
      <use x="115.283203" xlink:href="#DejaVuSans-116"/>
      <use x="154.492188" xlink:href="#DejaVuSans-105"/>
      <use x="182.275391" xlink:href="#DejaVuSans-109"/>
      <use x="279.6875" xlink:href="#DejaVuSans-97"/>
      <use x="340.966797" xlink:href="#DejaVuSans-116"/>
      <use x="380.175781" xlink:href="#DejaVuSans-105"/>
      <use x="407.958984" xlink:href="#DejaVuSans-111"/>
      <use x="469.140625" xlink:href="#DejaVuSans-110"/>
      <use x="532.519531" xlink:href="#DejaVuSans-32"/>
      <use x="564.306641" xlink:href="#DejaVuSans-69"/>
      <use x="627.490234" xlink:href="#DejaVuSans-114"/>
      <use x="666.853516" xlink:href="#DejaVuSans-114"/>
      <use x="705.716797" xlink:href="#DejaVuSans-111"/>
      <use x="766.898438" xlink:href="#DejaVuSans-114"/>
     </g>
    </g>
   </g>
   <g id="LineCollection_1">
    <path clip-path="url(#p55c945fd34)" d="M 94.052996 185.527317 
L 117.955992 185.527317 
" style="fill:none;stroke:#1f77b4;stroke-width:1.5;"/>
    <path clip-path="url(#p55c945fd34)" d="M 189.664979 29.136364 
L 213.567975 29.136364 
" style="fill:none;stroke:#1f77b4;stroke-width:1.5;"/>
    <path clip-path="url(#p55c945fd34)" d="M 285.276963 179.609569 
L 309.179959 179.609569 
" style="fill:none;stroke:#1f77b4;stroke-width:1.5;"/>
   </g>
   <g id="LineCollection_2">
    <path clip-path="url(#p55c945fd34)" d="M 94.052996 233.863636 
L 117.955992 233.863636 
" style="fill:none;stroke:#1f77b4;stroke-width:1.5;"/>
    <path clip-path="url(#p55c945fd34)" d="M 189.664979 201.724242 
L 213.567975 201.724242 
" style="fill:none;stroke:#1f77b4;stroke-width:1.5;"/>
    <path clip-path="url(#p55c945fd34)" d="M 285.276963 219.63307 
L 309.179959 219.63307 
" style="fill:none;stroke:#1f77b4;stroke-width:1.5;"/>
   </g>
   <g id="LineCollection_3">
    <path clip-path="url(#p55c945fd34)" d="M 106.004494 233.863636 
L 106.004494 185.527317 
" style="fill:none;stroke:#1f77b4;stroke-width:1.5;"/>
    <path clip-path="url(#p55c945fd34)" d="M 201.616477 201.724242 
L 201.616477 29.136364 
" style="fill:none;stroke:#1f77b4;stroke-width:1.5;"/>
    <path clip-path="url(#p55c945fd34)" d="M 297.228461 219.63307 
L 297.228461 179.609569 
" style="fill:none;stroke:#1f77b4;stroke-width:1.5;"/>
   </g>
   <g id="patch_3">
    <path d="M 70.15 244.1 
L 70.15 18.9 
" style="fill:none;stroke:#000000;stroke-linecap:square;stroke-linejoin:miter;stroke-width:0.8;"/>
   </g>
   <g id="patch_4">
    <path d="M 333.082955 244.1 
L 333.082955 18.9 
" style="fill:none;stroke:#000000;stroke-linecap:square;stroke-linejoin:miter;stroke-width:0.8;"/>
   </g>
   <g id="patch_5">
    <path d="M 70.15 244.1 
L 333.082955 244.1 
" style="fill:none;stroke:#000000;stroke-linecap:square;stroke-linejoin:miter;stroke-width:0.8;"/>
   </g>
   <g id="patch_6">
    <path d="M 70.15 18.9 
L 333.082955 18.9 
" style="fill:none;stroke:#000000;stroke-linecap:square;stroke-linejoin:miter;stroke-width:0.8;"/>
   </g>
  </g>
 </g>
 <defs>
  <clipPath id="p55c945fd34">
   <rect height="225.2" width="262.932955" x="70.15" y="18.9"/>
  </clipPath>
 </defs>
</svg>
