<?xml version="1.0" encoding="utf-8" standalone="no"?>
<!DOCTYPE svg PUBLIC "-//W3C//DTD SVG 1.1//EN"
  "http://www.w3.org/Graphics/SVG/1.1/DTD/svg11.dtd">
<!-- Created with matplotlib (https://matplotlib.org/) -->
<svg height="288pt" version="1.1" viewBox="0 0 360 288" width="360pt" xmlns="http://www.w3.org/2000/svg" xmlns:xlink="http://www.w3.org/1999/xlink">
 <metadata>
  <rdf:RDF xmlns:cc="http://creativecommons.org/ns#" xmlns:dc="http://purl.org/dc/elements/1.1/" xmlns:rdf="http://www.w3.org/1999/02/22-rdf-syntax-ns#">
   <cc:Work>
    <dc:type rdf:resource="http://purl.org/dc/dcmitype/StillImage"/>
    <dc:date>2022-09-25T00:48:12.730796</dc:date>
    <dc:format>image/svg+xml</dc:format>
    <dc:creator>
     <cc:Agent>
      <dc:title>Matplotlib v3.3.4, https://matplotlib.org/</dc:title>
     </cc:Agent>
    </dc:creator>
   </cc:Work>
  </rdf:RDF>
 </metadata>
 <defs>
  <style type="text/css">*{stroke-linecap:butt;stroke-linejoin:round;}</style>
 </defs>
 <g id="figure_1">
  <g id="patch_1">
   <path d="M 0 288 
L 360 288 
L 360 0 
L 0 0 
z
" style="fill:none;"/>
  </g>
  <g id="axes_1">
   <g id="patch_2">
    <path d="M 75.65 244.1 
L 333.082955 244.1 
L 333.082955 18.9 
L 75.65 18.9 
z
" style="fill:#ffffff;"/>
   </g>
   <g id="PolyCollection_1">
    <path clip-path="url(#p7fac7bbe39)" d="M 114.152006 233.863636 
L 107.356981 233.863636 
L 106.907428 233.209341 
L 106.428592 232.555046 
L 105.922169 231.900751 
L 105.389928 231.246456 
L 104.833564 230.592161 
L 104.254577 229.937866 
L 103.654168 229.283571 
L 103.033201 228.629276 
L 102.392204 227.974981 
L 101.731453 227.320686 
L 101.051104 226.666391 
L 100.351381 226.012096 
L 99.632795 225.357801 
L 98.89636 224.703506 
L 98.143803 224.049211 
L 97.377716 223.394916 
L 96.601647 222.740621 
L 95.820108 222.086326 
L 95.0385 221.432031 
L 94.262961 220.777736 
L 93.500153 220.123441 
L 92.757009 219.469146 
L 92.040471 218.814851 
L 91.357242 218.160556 
L 90.713576 217.506261 
L 90.115128 216.851966 
L 89.566852 216.197671 
L 89.072973 215.543375 
L 88.636994 214.88908 
L 88.261734 214.234785 
L 87.949374 213.58049 
L 87.701496 212.926195 
L 87.519087 212.2719 
L 87.40252 211.617605 
L 87.351498 210.96331 
L 87.364986 210.309015 
L 87.441137 209.65472 
L 87.577245 209.000425 
L 87.76974 208.34613 
L 88.014244 207.691835 
L 88.305695 207.03754 
L 88.638543 206.383245 
L 89.006999 205.72895 
L 89.405322 205.074655 
L 89.828105 204.42036 
L 90.270548 203.766065 
L 90.728665 203.11177 
L 91.19942 202.457475 
L 91.680762 201.80318 
L 92.171573 201.148885 
L 92.671513 200.49459 
L 93.180797 199.840295 
L 93.699932 199.186 
L 94.229425 198.531705 
L 94.769512 197.87741 
L 95.319939 197.223115 
L 95.879799 196.56882 
L 96.447465 195.914525 
L 97.020604 195.26023 
L 97.596286 194.605934 
L 98.171156 193.951639 
L 98.741658 193.297344 
L 99.304284 192.643049 
L 99.855812 191.988754 
L 100.393515 191.334459 
L 100.915303 190.680164 
L 101.419809 190.025869 
L 101.906375 189.371574 
L 102.374983 188.717279 
L 102.826105 188.062984 
L 103.260516 187.408689 
L 103.679087 186.754394 
L 104.082571 186.100099 
L 104.47143 185.445804 
L 104.845695 184.791509 
L 105.204902 184.137214 
L 105.548076 183.482919 
L 105.873803 182.828624 
L 106.180341 182.174329 
L 106.465792 181.520034 
L 106.728298 180.865739 
L 106.966244 180.211444 
L 107.178461 179.557149 
L 107.364394 178.902854 
L 107.524242 178.248559 
L 107.659032 177.594264 
L 107.770642 176.939969 
L 107.861766 176.285674 
L 107.935809 175.631379 
L 107.99674 174.977084 
L 108.048894 174.322789 
L 108.096751 173.668493 
L 108.144701 173.014198 
L 108.196808 172.359903 
L 108.256599 171.705608 
L 108.326883 171.051313 
L 108.409625 170.397018 
L 108.505868 169.742723 
L 108.615717 169.088428 
L 112.893271 169.088428 
L 112.893271 169.088428 
L 113.003119 169.742723 
L 113.099362 170.397018 
L 113.182105 171.051313 
L 113.252389 171.705608 
L 113.312179 172.359903 
L 113.364286 173.014198 
L 113.412236 173.668493 
L 113.460094 174.322789 
L 113.512248 174.977084 
L 113.573178 175.631379 
L 113.647222 176.285674 
L 113.738346 176.939969 
L 113.849956 177.594264 
L 113.984745 178.248559 
L 114.144593 178.902854 
L 114.330527 179.557149 
L 114.542743 180.211444 
L 114.780689 180.865739 
L 115.043195 181.520034 
L 115.328647 182.174329 
L 115.635185 182.828624 
L 115.960911 183.482919 
L 116.304086 184.137214 
L 116.663292 184.791509 
L 117.037558 185.445804 
L 117.426416 186.100099 
L 117.829901 186.754394 
L 118.248471 187.408689 
L 118.682883 188.062984 
L 119.134005 188.717279 
L 119.602613 189.371574 
L 120.089179 190.025869 
L 120.593684 190.680164 
L 121.115473 191.334459 
L 121.653175 191.988754 
L 122.204704 192.643049 
L 122.76733 193.297344 
L 123.337832 193.951639 
L 123.912701 194.605934 
L 124.488384 195.26023 
L 125.061523 195.914525 
L 125.629188 196.56882 
L 126.189049 197.223115 
L 126.739475 197.87741 
L 127.279563 198.531705 
L 127.809055 199.186 
L 128.32819 199.840295 
L 128.837475 200.49459 
L 129.337414 201.148885 
L 129.828225 201.80318 
L 130.309568 202.457475 
L 130.780322 203.11177 
L 131.23844 203.766065 
L 131.680883 204.42036 
L 132.103666 205.074655 
L 132.501988 205.72895 
L 132.870445 206.383245 
L 133.203293 207.03754 
L 133.494744 207.691835 
L 133.739248 208.34613 
L 133.931743 209.000425 
L 134.067851 209.65472 
L 134.144002 210.309015 
L 134.15749 210.96331 
L 134.106468 211.617605 
L 133.989901 212.2719 
L 133.807492 212.926195 
L 133.559614 213.58049 
L 133.247254 214.234785 
L 132.871993 214.88908 
L 132.436014 215.543375 
L 131.942136 216.197671 
L 131.39386 216.851966 
L 130.795411 217.506261 
L 130.151746 218.160556 
L 129.468517 218.814851 
L 128.751978 219.469146 
L 128.008834 220.123441 
L 127.246026 220.777736 
L 126.470487 221.432031 
L 125.688879 222.086326 
L 124.90734 222.740621 
L 124.131271 223.394916 
L 123.365185 224.049211 
L 122.612628 224.703506 
L 121.876193 225.357801 
L 121.157606 226.012096 
L 120.457884 226.666391 
L 119.777535 227.320686 
L 119.116784 227.974981 
L 118.475787 228.629276 
L 117.854819 229.283571 
L 117.254411 229.937866 
L 116.675423 230.592161 
L 116.11906 231.246456 
L 115.586818 231.900751 
L 115.080396 232.555046 
L 114.60156 233.209341 
L 114.152006 233.863636 
z
" style="fill:#1f77b4;fill-opacity:0.3;"/>
   </g>
   <g id="PolyCollection_2">
    <path clip-path="url(#p7fac7bbe39)" d="M 208.008013 229.346793 
L 200.724941 229.346793 
L 200.277841 227.324466 
L 199.795511 225.302138 
L 199.276651 223.279811 
L 198.72027 221.257483 
L 198.125867 219.235156 
L 197.493598 217.212828 
L 196.824435 215.1905 
L 196.120288 213.168173 
L 195.384083 211.145845 
L 194.619772 209.123518 
L 193.832291 207.10119 
L 193.027447 205.078862 
L 192.21175 203.056535 
L 191.392208 201.034207 
L 190.576089 199.01188 
L 189.770667 196.989552 
L 188.982979 194.967225 
L 188.219602 192.944897 
L 187.48645 190.922569 
L 186.788625 188.900242 
L 186.13029 186.877914 
L 185.514604 184.855587 
L 184.943684 182.833259 
L 184.41861 180.810932 
L 183.939471 178.788604 
L 183.505441 176.766276 
L 183.114891 174.743949 
L 182.765538 172.721621 
L 182.454621 170.699294 
L 182.179114 168.676966 
L 181.935959 166.654639 
L 181.722314 164.632311 
L 181.535811 162.609983 
L 181.374785 160.587656 
L 181.238483 158.565328 
L 181.127209 156.543001 
L 181.042403 154.520673 
L 180.98663 152.498346 
L 180.963481 150.476018 
L 180.977378 148.45369 
L 181.033296 146.431363 
L 181.13643 144.409035 
L 181.291814 142.386708 
L 181.503937 140.36438 
L 181.776381 138.342053 
L 182.111502 136.319725 
L 182.510191 134.297397 
L 182.97171 132.27507 
L 183.49363 130.252742 
L 184.071856 128.230415 
L 184.700723 126.208087 
L 185.37318 124.18576 
L 186.08101 122.163432 
L 186.815097 120.141104 
L 187.565717 118.118777 
L 188.322848 116.096449 
L 189.076484 114.074122 
L 189.816955 112.051794 
L 190.535239 110.029467 
L 191.223268 108.007139 
L 191.874206 105.984811 
L 192.482704 103.962484 
L 193.045092 101.940156 
L 193.559524 99.917829 
L 194.026032 97.895501 
L 194.446495 95.873174 
L 194.824515 93.850846 
L 195.165191 91.828518 
L 195.47481 89.806191 
L 195.76047 87.783863 
L 196.02965 85.761536 
L 196.289765 83.739208 
L 196.547735 81.716881 
L 196.809591 79.694553 
L 197.080157 77.672225 
L 197.36282 75.649898 
L 197.659409 73.62757 
L 197.970178 71.605243 
L 198.293904 69.582915 
L 198.628074 67.560588 
L 198.969144 65.53826 
L 199.312862 63.515932 
L 199.654604 61.493605 
L 199.989716 59.471277 
L 200.313829 57.44895 
L 200.623133 55.426622 
L 200.914579 53.404295 
L 201.186024 51.381967 
L 201.436286 49.359639 
L 201.665132 47.337312 
L 201.873205 45.314984 
L 202.061886 43.292657 
L 202.233123 41.270329 
L 202.389234 39.248002 
L 202.532703 37.225674 
L 202.665992 35.203346 
L 202.791369 33.181019 
L 202.910773 31.158691 
L 203.025725 29.136364 
L 205.70723 29.136364 
L 205.70723 29.136364 
L 205.822182 31.158691 
L 205.941586 33.181019 
L 206.066962 35.203346 
L 206.200252 37.225674 
L 206.343721 39.248002 
L 206.499831 41.270329 
L 206.671068 43.292657 
L 206.859749 45.314984 
L 207.067823 47.337312 
L 207.296669 49.359639 
L 207.54693 51.381967 
L 207.818375 53.404295 
L 208.109822 55.426622 
L 208.419126 57.44895 
L 208.743239 59.471277 
L 209.07835 61.493605 
L 209.420092 63.515932 
L 209.76381 65.53826 
L 210.104881 67.560588 
L 210.43905 69.582915 
L 210.762777 71.605243 
L 211.073546 73.62757 
L 211.370134 75.649898 
L 211.652798 77.672225 
L 211.923363 79.694553 
L 212.185219 81.716881 
L 212.443189 83.739208 
L 212.703305 85.761536 
L 212.972485 87.783863 
L 213.258145 89.806191 
L 213.567764 91.828518 
L 213.908439 93.850846 
L 214.286459 95.873174 
L 214.706923 97.895501 
L 215.173431 99.917829 
L 215.687863 101.940156 
L 216.250251 103.962484 
L 216.858748 105.984811 
L 217.509687 108.007139 
L 218.197715 110.029467 
L 218.915999 112.051794 
L 219.65647 114.074122 
L 220.410107 116.096449 
L 221.167238 118.118777 
L 221.917858 120.141104 
L 222.651944 122.163432 
L 223.359774 124.18576 
L 224.032232 126.208087 
L 224.661099 128.230415 
L 225.239324 130.252742 
L 225.761245 132.27507 
L 226.222764 134.297397 
L 226.621452 136.319725 
L 226.956574 138.342053 
L 227.229017 140.36438 
L 227.441141 142.386708 
L 227.596525 144.409035 
L 227.699658 146.431363 
L 227.755577 148.45369 
L 227.769473 150.476018 
L 227.746324 152.498346 
L 227.690552 154.520673 
L 227.605745 156.543001 
L 227.494471 158.565328 
L 227.358169 160.587656 
L 227.197143 162.609983 
L 227.01064 164.632311 
L 226.796996 166.654639 
L 226.55384 168.676966 
L 226.278333 170.699294 
L 225.967416 172.721621 
L 225.618063 174.743949 
L 225.227514 176.766276 
L 224.793484 178.788604 
L 224.314345 180.810932 
L 223.789271 182.833259 
L 223.21835 184.855587 
L 222.602665 186.877914 
L 221.94433 188.900242 
L 221.246504 190.922569 
L 220.513353 192.944897 
L 219.749975 194.967225 
L 218.962288 196.989552 
L 218.156865 199.01188 
L 217.340746 201.034207 
L 216.521205 203.056535 
L 215.705508 205.078862 
L 214.900663 207.10119 
L 214.113182 209.123518 
L 213.348872 211.145845 
L 212.612666 213.168173 
L 211.90852 215.1905 
L 211.239357 217.212828 
L 210.607087 219.235156 
L 210.012684 221.257483 
L 209.456304 223.279811 
L 208.937443 225.302138 
L 208.455114 227.324466 
L 208.008013 229.346793 
z
" style="fill:#1f77b4;fill-opacity:0.3;"/>
   </g>
   <g id="PolyCollection_3">
    <path clip-path="url(#p7fac7bbe39)" d="M 302.133603 228.378662 
L 293.823319 228.378662 
L 293.29305 227.707255 
L 292.745024 227.035847 
L 292.185943 226.36444 
L 291.622628 225.693033 
L 291.061571 225.021626 
L 290.508464 224.350219 
L 289.967728 223.678812 
L 289.442099 223.007405 
L 288.932319 222.335997 
L 288.436956 221.66459 
L 287.952413 220.993183 
L 287.473115 220.321776 
L 286.991904 219.650369 
L 286.500587 218.978962 
L 285.990629 218.307555 
L 285.45391 217.636147 
L 284.883491 216.96474 
L 284.274325 216.293333 
L 283.62384 215.621926 
L 282.932358 214.950519 
L 282.203307 214.279112 
L 281.443221 213.607704 
L 280.661534 212.936297 
L 279.870194 212.26489 
L 279.083123 211.593483 
L 278.315575 210.922076 
L 277.583431 210.250669 
L 276.902471 209.579262 
L 276.28766 208.907854 
L 275.752487 208.236447 
L 275.308377 207.56504 
L 274.96421 206.893633 
L 274.725961 206.222226 
L 274.596486 205.550819 
L 274.575465 204.879412 
L 274.659508 204.208004 
L 274.842419 203.536597 
L 275.115612 202.86519 
L 275.468629 202.193783 
L 275.889755 201.522376 
L 276.36665 200.850969 
L 276.886967 200.179561 
L 277.438909 199.508154 
L 278.011671 198.836747 
L 278.595756 198.16534 
L 279.18315 197.493933 
L 279.767366 196.822526 
L 280.343372 196.151119 
L 280.907454 195.479711 
L 281.457038 194.808304 
L 281.990509 194.136897 
L 282.507066 193.46549 
L 283.006616 192.794083 
L 283.489719 192.122676 
L 283.957563 191.451269 
L 284.411956 190.779861 
L 284.8553 190.108454 
L 285.290529 189.437047 
L 285.720991 188.76564 
L 286.150267 188.094233 
L 286.581938 187.422826 
L 287.019317 186.751418 
L 287.465177 186.080011 
L 287.921505 185.408604 
L 288.38932 184.737197 
L 288.868574 184.06579 
L 289.358146 183.394383 
L 289.855937 182.722976 
L 290.359043 182.051568 
L 290.863981 181.380161 
L 291.366948 180.708754 
L 291.864069 180.037347 
L 292.351612 179.36594 
L 292.826148 178.694533 
L 293.284654 178.023126 
L 293.724543 177.351718 
L 294.143649 176.680311 
L 294.540173 176.008904 
L 294.91261 175.337497 
L 295.259685 174.66609 
L 295.580297 173.994683 
L 295.873504 173.323275 
L 296.13853 172.651868 
L 296.374818 171.980461 
L 296.582092 171.309054 
L 296.760445 170.637647 
L 296.91042 169.96624 
L 297.033082 169.294833 
L 297.130061 168.623425 
L 297.203558 167.952018 
L 297.256315 167.280611 
L 297.291531 166.609204 
L 297.31275 165.937797 
L 297.323698 165.26639 
L 297.328114 164.594983 
L 297.329561 163.923575 
L 297.331247 163.252168 
L 297.335872 162.580761 
L 297.345506 161.909354 
L 298.611416 161.909354 
L 298.611416 161.909354 
L 298.62105 162.580761 
L 298.625674 163.252168 
L 298.627361 163.923575 
L 298.628807 164.594983 
L 298.633224 165.26639 
L 298.644172 165.937797 
L 298.66539 166.609204 
L 298.700607 167.280611 
L 298.753364 167.952018 
L 298.826861 168.623425 
L 298.92384 169.294833 
L 299.046502 169.96624 
L 299.196477 170.637647 
L 299.374829 171.309054 
L 299.582103 171.980461 
L 299.818391 172.651868 
L 300.083418 173.323275 
L 300.376624 173.994683 
L 300.697237 174.66609 
L 301.044311 175.337497 
L 301.416749 176.008904 
L 301.813273 176.680311 
L 302.232379 177.351718 
L 302.672267 178.023126 
L 303.130773 178.694533 
L 303.60531 179.36594 
L 304.092852 180.037347 
L 304.589973 180.708754 
L 305.09294 181.380161 
L 305.597879 182.051568 
L 306.100984 182.722976 
L 306.598776 183.394383 
L 307.088348 184.06579 
L 307.567601 184.737197 
L 308.035416 185.408604 
L 308.491744 186.080011 
L 308.937604 186.751418 
L 309.374984 187.422826 
L 309.806655 188.094233 
L 310.235931 188.76564 
L 310.666392 189.437047 
L 311.101621 190.108454 
L 311.544965 190.779861 
L 311.999358 191.451269 
L 312.467203 192.122676 
L 312.950305 192.794083 
L 313.449855 193.46549 
L 313.966412 194.136897 
L 314.499883 194.808304 
L 315.049467 195.479711 
L 315.61355 196.151119 
L 316.189556 196.822526 
L 316.773771 197.493933 
L 317.361166 198.16534 
L 317.94525 198.836747 
L 318.518012 199.508154 
L 319.069954 200.179561 
L 319.590272 200.850969 
L 320.067166 201.522376 
L 320.488292 202.193783 
L 320.84131 202.86519 
L 321.114502 203.536597 
L 321.297414 204.208004 
L 321.381457 204.879412 
L 321.360435 205.550819 
L 321.23096 206.222226 
L 320.992711 206.893633 
L 320.648544 207.56504 
L 320.204435 208.236447 
L 319.669262 208.907854 
L 319.054451 209.579262 
L 318.373491 210.250669 
L 317.641347 210.922076 
L 316.873799 211.593483 
L 316.086727 212.26489 
L 315.295387 212.936297 
L 314.513701 213.607704 
L 313.753614 214.279112 
L 313.024563 214.950519 
L 312.333082 215.621926 
L 311.682597 216.293333 
L 311.073431 216.96474 
L 310.503012 217.636147 
L 309.966292 218.307555 
L 309.456334 218.978962 
L 308.965018 219.650369 
L 308.483806 220.321776 
L 308.004509 220.993183 
L 307.519965 221.66459 
L 307.024602 222.335997 
L 306.514822 223.007405 
L 305.989194 223.678812 
L 305.448457 224.350219 
L 304.89535 225.021626 
L 304.334294 225.693033 
L 303.770979 226.36444 
L 303.211898 227.035847 
L 302.663872 227.707255 
L 302.133603 228.378662 
z
" style="fill:#1f77b4;fill-opacity:0.3;"/>
   </g>
   <g id="matplotlib.axis_1">
    <g id="xtick_1">
     <g id="line2d_1">
      <defs>
       <path d="M 0 0 
L 0 3.5 
" id="m9bddfe447c" style="stroke:#000000;stroke-width:0.8;"/>
      </defs>
      <g>
       <use style="stroke:#000000;stroke-width:0.8;" x="110.754494" xlink:href="#m9bddfe447c" y="244.1"/>
      </g>
     </g>
     <g id="text_1">
      <!-- Our Method -->
      <g transform="translate(59.125392 264.397266)scale(0.175 -0.175)">
       <defs>
        <path d="M 39.40625 66.21875 
Q 28.65625 66.21875 22.328125 58.203125 
Q 16.015625 50.203125 16.015625 36.375 
Q 16.015625 22.609375 22.328125 14.59375 
Q 28.65625 6.59375 39.40625 6.59375 
Q 50.140625 6.59375 56.421875 14.59375 
Q 62.703125 22.609375 62.703125 36.375 
Q 62.703125 50.203125 56.421875 58.203125 
Q 50.140625 66.21875 39.40625 66.21875 
z
M 39.40625 74.21875 
Q 54.734375 74.21875 63.90625 63.9375 
Q 73.09375 53.65625 73.09375 36.375 
Q 73.09375 19.140625 63.90625 8.859375 
Q 54.734375 -1.421875 39.40625 -1.421875 
Q 24.03125 -1.421875 14.8125 8.828125 
Q 5.609375 19.09375 5.609375 36.375 
Q 5.609375 53.65625 14.8125 63.9375 
Q 24.03125 74.21875 39.40625 74.21875 
z
" id="DejaVuSans-79"/>
        <path d="M 8.5 21.578125 
L 8.5 54.6875 
L 17.484375 54.6875 
L 17.484375 21.921875 
Q 17.484375 14.15625 20.5 10.265625 
Q 23.53125 6.390625 29.59375 6.390625 
Q 36.859375 6.390625 41.078125 11.03125 
Q 45.3125 15.671875 45.3125 23.6875 
L 45.3125 54.6875 
L 54.296875 54.6875 
L 54.296875 0 
L 45.3125 0 
L 45.3125 8.40625 
Q 42.046875 3.421875 37.71875 1 
Q 33.40625 -1.421875 27.6875 -1.421875 
Q 18.265625 -1.421875 13.375 4.4375 
Q 8.5 10.296875 8.5 21.578125 
z
M 31.109375 56 
z
" id="DejaVuSans-117"/>
        <path d="M 41.109375 46.296875 
Q 39.59375 47.171875 37.8125 47.578125 
Q 36.03125 48 33.890625 48 
Q 26.265625 48 22.1875 43.046875 
Q 18.109375 38.09375 18.109375 28.8125 
L 18.109375 0 
L 9.078125 0 
L 9.078125 54.6875 
L 18.109375 54.6875 
L 18.109375 46.1875 
Q 20.953125 51.171875 25.484375 53.578125 
Q 30.03125 56 36.53125 56 
Q 37.453125 56 38.578125 55.875 
Q 39.703125 55.765625 41.0625 55.515625 
z
" id="DejaVuSans-114"/>
        <path id="DejaVuSans-32"/>
        <path d="M 9.8125 72.90625 
L 24.515625 72.90625 
L 43.109375 23.296875 
L 61.8125 72.90625 
L 76.515625 72.90625 
L 76.515625 0 
L 66.890625 0 
L 66.890625 64.015625 
L 48.09375 14.015625 
L 38.1875 14.015625 
L 19.390625 64.015625 
L 19.390625 0 
L 9.8125 0 
z
" id="DejaVuSans-77"/>
        <path d="M 56.203125 29.59375 
L 56.203125 25.203125 
L 14.890625 25.203125 
Q 15.484375 15.921875 20.484375 11.0625 
Q 25.484375 6.203125 34.421875 6.203125 
Q 39.59375 6.203125 44.453125 7.46875 
Q 49.3125 8.734375 54.109375 11.28125 
L 54.109375 2.78125 
Q 49.265625 0.734375 44.1875 -0.34375 
Q 39.109375 -1.421875 33.890625 -1.421875 
Q 20.796875 -1.421875 13.15625 6.1875 
Q 5.515625 13.8125 5.515625 26.8125 
Q 5.515625 40.234375 12.765625 48.109375 
Q 20.015625 56 32.328125 56 
Q 43.359375 56 49.78125 48.890625 
Q 56.203125 41.796875 56.203125 29.59375 
z
M 47.21875 32.234375 
Q 47.125 39.59375 43.09375 43.984375 
Q 39.0625 48.390625 32.421875 48.390625 
Q 24.90625 48.390625 20.390625 44.140625 
Q 15.875 39.890625 15.1875 32.171875 
z
" id="DejaVuSans-101"/>
        <path d="M 18.3125 70.21875 
L 18.3125 54.6875 
L 36.8125 54.6875 
L 36.8125 47.703125 
L 18.3125 47.703125 
L 18.3125 18.015625 
Q 18.3125 11.328125 20.140625 9.421875 
Q 21.96875 7.515625 27.59375 7.515625 
L 36.8125 7.515625 
L 36.8125 0 
L 27.59375 0 
Q 17.1875 0 13.234375 3.875 
Q 9.28125 7.765625 9.28125 18.015625 
L 9.28125 47.703125 
L 2.6875 47.703125 
L 2.6875 54.6875 
L 9.28125 54.6875 
L 9.28125 70.21875 
z
" id="DejaVuSans-116"/>
        <path d="M 54.890625 33.015625 
L 54.890625 0 
L 45.90625 0 
L 45.90625 32.71875 
Q 45.90625 40.484375 42.875 44.328125 
Q 39.84375 48.1875 33.796875 48.1875 
Q 26.515625 48.1875 22.3125 43.546875 
Q 18.109375 38.921875 18.109375 30.90625 
L 18.109375 0 
L 9.078125 0 
L 9.078125 75.984375 
L 18.109375 75.984375 
L 18.109375 46.1875 
Q 21.34375 51.125 25.703125 53.5625 
Q 30.078125 56 35.796875 56 
Q 45.21875 56 50.046875 50.171875 
Q 54.890625 44.34375 54.890625 33.015625 
z
" id="DejaVuSans-104"/>
        <path d="M 30.609375 48.390625 
Q 23.390625 48.390625 19.1875 42.75 
Q 14.984375 37.109375 14.984375 27.296875 
Q 14.984375 17.484375 19.15625 11.84375 
Q 23.34375 6.203125 30.609375 6.203125 
Q 37.796875 6.203125 41.984375 11.859375 
Q 46.1875 17.53125 46.1875 27.296875 
Q 46.1875 37.015625 41.984375 42.703125 
Q 37.796875 48.390625 30.609375 48.390625 
z
M 30.609375 56 
Q 42.328125 56 49.015625 48.375 
Q 55.71875 40.765625 55.71875 27.296875 
Q 55.71875 13.875 49.015625 6.21875 
Q 42.328125 -1.421875 30.609375 -1.421875 
Q 18.84375 -1.421875 12.171875 6.21875 
Q 5.515625 13.875 5.515625 27.296875 
Q 5.515625 40.765625 12.171875 48.375 
Q 18.84375 56 30.609375 56 
z
" id="DejaVuSans-111"/>
        <path d="M 45.40625 46.390625 
L 45.40625 75.984375 
L 54.390625 75.984375 
L 54.390625 0 
L 45.40625 0 
L 45.40625 8.203125 
Q 42.578125 3.328125 38.25 0.953125 
Q 33.9375 -1.421875 27.875 -1.421875 
Q 17.96875 -1.421875 11.734375 6.484375 
Q 5.515625 14.40625 5.515625 27.296875 
Q 5.515625 40.1875 11.734375 48.09375 
Q 17.96875 56 27.875 56 
Q 33.9375 56 38.25 53.625 
Q 42.578125 51.265625 45.40625 46.390625 
z
M 14.796875 27.296875 
Q 14.796875 17.390625 18.875 11.75 
Q 22.953125 6.109375 30.078125 6.109375 
Q 37.203125 6.109375 41.296875 11.75 
Q 45.40625 17.390625 45.40625 27.296875 
Q 45.40625 37.203125 41.296875 42.84375 
Q 37.203125 48.484375 30.078125 48.484375 
Q 22.953125 48.484375 18.875 42.84375 
Q 14.796875 37.203125 14.796875 27.296875 
z
" id="DejaVuSans-100"/>
       </defs>
       <use xlink:href="#DejaVuSans-79"/>
       <use x="78.710938" xlink:href="#DejaVuSans-117"/>
       <use x="142.089844" xlink:href="#DejaVuSans-114"/>
       <use x="183.203125" xlink:href="#DejaVuSans-32"/>
       <use x="214.990234" xlink:href="#DejaVuSans-77"/>
       <use x="301.269531" xlink:href="#DejaVuSans-101"/>
       <use x="362.792969" xlink:href="#DejaVuSans-116"/>
       <use x="402.001953" xlink:href="#DejaVuSans-104"/>
       <use x="465.380859" xlink:href="#DejaVuSans-111"/>
       <use x="526.5625" xlink:href="#DejaVuSans-100"/>
      </g>
     </g>
    </g>
    <g id="xtick_2">
     <g id="line2d_2">
      <g>
       <use style="stroke:#000000;stroke-width:0.8;" x="204.366477" xlink:href="#m9bddfe447c" y="244.1"/>
      </g>
     </g>
     <g id="text_2">
      <!-- Stein's -->
      <g transform="translate(175.058079 264.397266)scale(0.175 -0.175)">
       <defs>
        <path d="M 53.515625 70.515625 
L 53.515625 60.890625 
Q 47.90625 63.578125 42.921875 64.890625 
Q 37.9375 66.21875 33.296875 66.21875 
Q 25.25 66.21875 20.875 63.09375 
Q 16.5 59.96875 16.5 54.203125 
Q 16.5 49.359375 19.40625 46.890625 
Q 22.3125 44.4375 30.421875 42.921875 
L 36.375 41.703125 
Q 47.40625 39.59375 52.65625 34.296875 
Q 57.90625 29 57.90625 20.125 
Q 57.90625 9.515625 50.796875 4.046875 
Q 43.703125 -1.421875 29.984375 -1.421875 
Q 24.8125 -1.421875 18.96875 -0.25 
Q 13.140625 0.921875 6.890625 3.21875 
L 6.890625 13.375 
Q 12.890625 10.015625 18.65625 8.296875 
Q 24.421875 6.59375 29.984375 6.59375 
Q 38.421875 6.59375 43.015625 9.90625 
Q 47.609375 13.234375 47.609375 19.390625 
Q 47.609375 24.75 44.3125 27.78125 
Q 41.015625 30.8125 33.5 32.328125 
L 27.484375 33.5 
Q 16.453125 35.6875 11.515625 40.375 
Q 6.59375 45.0625 6.59375 53.421875 
Q 6.59375 63.09375 13.40625 68.65625 
Q 20.21875 74.21875 32.171875 74.21875 
Q 37.3125 74.21875 42.625 73.28125 
Q 47.953125 72.359375 53.515625 70.515625 
z
" id="DejaVuSans-83"/>
        <path d="M 9.421875 54.6875 
L 18.40625 54.6875 
L 18.40625 0 
L 9.421875 0 
z
M 9.421875 75.984375 
L 18.40625 75.984375 
L 18.40625 64.59375 
L 9.421875 64.59375 
z
" id="DejaVuSans-105"/>
        <path d="M 54.890625 33.015625 
L 54.890625 0 
L 45.90625 0 
L 45.90625 32.71875 
Q 45.90625 40.484375 42.875 44.328125 
Q 39.84375 48.1875 33.796875 48.1875 
Q 26.515625 48.1875 22.3125 43.546875 
Q 18.109375 38.921875 18.109375 30.90625 
L 18.109375 0 
L 9.078125 0 
L 9.078125 54.6875 
L 18.109375 54.6875 
L 18.109375 46.1875 
Q 21.34375 51.125 25.703125 53.5625 
Q 30.078125 56 35.796875 56 
Q 45.21875 56 50.046875 50.171875 
Q 54.890625 44.34375 54.890625 33.015625 
z
" id="DejaVuSans-110"/>
        <path d="M 17.921875 72.90625 
L 17.921875 45.796875 
L 9.625 45.796875 
L 9.625 72.90625 
z
" id="DejaVuSans-39"/>
        <path d="M 44.28125 53.078125 
L 44.28125 44.578125 
Q 40.484375 46.53125 36.375 47.5 
Q 32.28125 48.484375 27.875 48.484375 
Q 21.1875 48.484375 17.84375 46.4375 
Q 14.5 44.390625 14.5 40.28125 
Q 14.5 37.15625 16.890625 35.375 
Q 19.28125 33.59375 26.515625 31.984375 
L 29.59375 31.296875 
Q 39.15625 29.25 43.1875 25.515625 
Q 47.21875 21.78125 47.21875 15.09375 
Q 47.21875 7.46875 41.1875 3.015625 
Q 35.15625 -1.421875 24.609375 -1.421875 
Q 20.21875 -1.421875 15.453125 -0.5625 
Q 10.6875 0.296875 5.421875 2 
L 5.421875 11.28125 
Q 10.40625 8.6875 15.234375 7.390625 
Q 20.0625 6.109375 24.8125 6.109375 
Q 31.15625 6.109375 34.5625 8.28125 
Q 37.984375 10.453125 37.984375 14.40625 
Q 37.984375 18.0625 35.515625 20.015625 
Q 33.0625 21.96875 24.703125 23.78125 
L 21.578125 24.515625 
Q 13.234375 26.265625 9.515625 29.90625 
Q 5.8125 33.546875 5.8125 39.890625 
Q 5.8125 47.609375 11.28125 51.796875 
Q 16.75 56 26.8125 56 
Q 31.78125 56 36.171875 55.265625 
Q 40.578125 54.546875 44.28125 53.078125 
z
" id="DejaVuSans-115"/>
       </defs>
       <use xlink:href="#DejaVuSans-83"/>
       <use x="63.476562" xlink:href="#DejaVuSans-116"/>
       <use x="102.685547" xlink:href="#DejaVuSans-101"/>
       <use x="164.208984" xlink:href="#DejaVuSans-105"/>
       <use x="191.992188" xlink:href="#DejaVuSans-110"/>
       <use x="255.371094" xlink:href="#DejaVuSans-39"/>
       <use x="282.861328" xlink:href="#DejaVuSans-115"/>
      </g>
     </g>
    </g>
    <g id="xtick_3">
     <g id="line2d_3">
      <g>
       <use style="stroke:#000000;stroke-width:0.8;" x="297.978461" xlink:href="#m9bddfe447c" y="244.1"/>
      </g>
     </g>
     <g id="text_3">
      <!-- Entry-wise -->
      <g transform="translate(252.165375 264.397266)scale(0.175 -0.175)">
       <defs>
        <path d="M 9.8125 72.90625 
L 55.90625 72.90625 
L 55.90625 64.59375 
L 19.671875 64.59375 
L 19.671875 43.015625 
L 54.390625 43.015625 
L 54.390625 34.71875 
L 19.671875 34.71875 
L 19.671875 8.296875 
L 56.78125 8.296875 
L 56.78125 0 
L 9.8125 0 
z
" id="DejaVuSans-69"/>
        <path d="M 32.171875 -5.078125 
Q 28.375 -14.84375 24.75 -17.8125 
Q 21.140625 -20.796875 15.09375 -20.796875 
L 7.90625 -20.796875 
L 7.90625 -13.28125 
L 13.1875 -13.28125 
Q 16.890625 -13.28125 18.9375 -11.515625 
Q 21 -9.765625 23.484375 -3.21875 
L 25.09375 0.875 
L 2.984375 54.6875 
L 12.5 54.6875 
L 29.59375 11.921875 
L 46.6875 54.6875 
L 56.203125 54.6875 
z
" id="DejaVuSans-121"/>
        <path d="M 4.890625 31.390625 
L 31.203125 31.390625 
L 31.203125 23.390625 
L 4.890625 23.390625 
z
" id="DejaVuSans-45"/>
        <path d="M 4.203125 54.6875 
L 13.1875 54.6875 
L 24.421875 12.015625 
L 35.59375 54.6875 
L 46.1875 54.6875 
L 57.421875 12.015625 
L 68.609375 54.6875 
L 77.59375 54.6875 
L 63.28125 0 
L 52.6875 0 
L 40.921875 44.828125 
L 29.109375 0 
L 18.5 0 
z
" id="DejaVuSans-119"/>
       </defs>
       <use xlink:href="#DejaVuSans-69"/>
       <use x="63.183594" xlink:href="#DejaVuSans-110"/>
       <use x="126.5625" xlink:href="#DejaVuSans-116"/>
       <use x="165.771484" xlink:href="#DejaVuSans-114"/>
       <use x="206.884766" xlink:href="#DejaVuSans-121"/>
       <use x="264.314453" xlink:href="#DejaVuSans-45"/>
       <use x="300.398438" xlink:href="#DejaVuSans-119"/>
       <use x="382.185547" xlink:href="#DejaVuSans-105"/>
       <use x="409.96875" xlink:href="#DejaVuSans-115"/>
       <use x="462.068359" xlink:href="#DejaVuSans-101"/>
      </g>
     </g>
    </g>
   </g>
   <g id="matplotlib.axis_2">
    <g id="ytick_1">
     <g id="line2d_4">
      <defs>
       <path d="M 0 0 
L -3.5 0 
" id="mcb5335bc8f" style="stroke:#000000;stroke-width:0.8;"/>
      </defs>
      <g>
       <use style="stroke:#000000;stroke-width:0.8;" x="75.65" xlink:href="#mcb5335bc8f" y="238.264444"/>
      </g>
     </g>
     <g id="text_4">
      <!-- 0.0 -->
      <g transform="translate(40.819531 244.913077)scale(0.175 -0.175)">
       <defs>
        <path d="M 31.78125 66.40625 
Q 24.171875 66.40625 20.328125 58.90625 
Q 16.5 51.421875 16.5 36.375 
Q 16.5 21.390625 20.328125 13.890625 
Q 24.171875 6.390625 31.78125 6.390625 
Q 39.453125 6.390625 43.28125 13.890625 
Q 47.125 21.390625 47.125 36.375 
Q 47.125 51.421875 43.28125 58.90625 
Q 39.453125 66.40625 31.78125 66.40625 
z
M 31.78125 74.21875 
Q 44.046875 74.21875 50.515625 64.515625 
Q 56.984375 54.828125 56.984375 36.375 
Q 56.984375 17.96875 50.515625 8.265625 
Q 44.046875 -1.421875 31.78125 -1.421875 
Q 19.53125 -1.421875 13.0625 8.265625 
Q 6.59375 17.96875 6.59375 36.375 
Q 6.59375 54.828125 13.0625 64.515625 
Q 19.53125 74.21875 31.78125 74.21875 
z
" id="DejaVuSans-48"/>
        <path d="M 10.6875 12.40625 
L 21 12.40625 
L 21 0 
L 10.6875 0 
z
" id="DejaVuSans-46"/>
       </defs>
       <use xlink:href="#DejaVuSans-48"/>
       <use x="63.623047" xlink:href="#DejaVuSans-46"/>
       <use x="95.410156" xlink:href="#DejaVuSans-48"/>
      </g>
     </g>
    </g>
    <g id="ytick_2">
     <g id="line2d_5">
      <g>
       <use style="stroke:#000000;stroke-width:0.8;" x="75.65" xlink:href="#mcb5335bc8f" y="175.327432"/>
      </g>
     </g>
     <g id="text_5">
      <!-- 0.5 -->
      <g transform="translate(40.819531 181.976065)scale(0.175 -0.175)">
       <defs>
        <path d="M 10.796875 72.90625 
L 49.515625 72.90625 
L 49.515625 64.59375 
L 19.828125 64.59375 
L 19.828125 46.734375 
Q 21.96875 47.46875 24.109375 47.828125 
Q 26.265625 48.1875 28.421875 48.1875 
Q 40.625 48.1875 47.75 41.5 
Q 54.890625 34.8125 54.890625 23.390625 
Q 54.890625 11.625 47.5625 5.09375 
Q 40.234375 -1.421875 26.90625 -1.421875 
Q 22.3125 -1.421875 17.546875 -0.640625 
Q 12.796875 0.140625 7.71875 1.703125 
L 7.71875 11.625 
Q 12.109375 9.234375 16.796875 8.0625 
Q 21.484375 6.890625 26.703125 6.890625 
Q 35.15625 6.890625 40.078125 11.328125 
Q 45.015625 15.765625 45.015625 23.390625 
Q 45.015625 31 40.078125 35.4375 
Q 35.15625 39.890625 26.703125 39.890625 
Q 22.75 39.890625 18.8125 39.015625 
Q 14.890625 38.140625 10.796875 36.28125 
z
" id="DejaVuSans-53"/>
       </defs>
       <use xlink:href="#DejaVuSans-48"/>
       <use x="63.623047" xlink:href="#DejaVuSans-46"/>
       <use x="95.410156" xlink:href="#DejaVuSans-53"/>
      </g>
     </g>
    </g>
    <g id="ytick_3">
     <g id="line2d_6">
      <g>
       <use style="stroke:#000000;stroke-width:0.8;" x="75.65" xlink:href="#mcb5335bc8f" y="112.390421"/>
      </g>
     </g>
     <g id="text_6">
      <!-- 1.0 -->
      <g transform="translate(40.819531 119.039054)scale(0.175 -0.175)">
       <defs>
        <path d="M 12.40625 8.296875 
L 28.515625 8.296875 
L 28.515625 63.921875 
L 10.984375 60.40625 
L 10.984375 69.390625 
L 28.421875 72.90625 
L 38.28125 72.90625 
L 38.28125 8.296875 
L 54.390625 8.296875 
L 54.390625 0 
L 12.40625 0 
z
" id="DejaVuSans-49"/>
       </defs>
       <use xlink:href="#DejaVuSans-49"/>
       <use x="63.623047" xlink:href="#DejaVuSans-46"/>
       <use x="95.410156" xlink:href="#DejaVuSans-48"/>
      </g>
     </g>
    </g>
    <g id="ytick_4">
     <g id="line2d_7">
      <g>
       <use style="stroke:#000000;stroke-width:0.8;" x="75.65" xlink:href="#mcb5335bc8f" y="49.453409"/>
      </g>
     </g>
     <g id="text_7">
      <!-- 1.5 -->
      <g transform="translate(40.819531 56.102042)scale(0.175 -0.175)">
       <use xlink:href="#DejaVuSans-49"/>
       <use x="63.623047" xlink:href="#DejaVuSans-46"/>
       <use x="95.410156" xlink:href="#DejaVuSans-53"/>
      </g>
     </g>
    </g>
    <g id="text_8">
     <!-- Estimation Error -->
     <g transform="translate(33.180078 202.198633)rotate(-90)scale(0.175 -0.175)">
      <defs>
       <path d="M 52 44.1875 
Q 55.375 50.25 60.0625 53.125 
Q 64.75 56 71.09375 56 
Q 79.640625 56 84.28125 50.015625 
Q 88.921875 44.046875 88.921875 33.015625 
L 88.921875 0 
L 79.890625 0 
L 79.890625 32.71875 
Q 79.890625 40.578125 77.09375 44.375 
Q 74.3125 48.1875 68.609375 48.1875 
Q 61.625 48.1875 57.5625 43.546875 
Q 53.515625 38.921875 53.515625 30.90625 
L 53.515625 0 
L 44.484375 0 
L 44.484375 32.71875 
Q 44.484375 40.625 41.703125 44.40625 
Q 38.921875 48.1875 33.109375 48.1875 
Q 26.21875 48.1875 22.15625 43.53125 
Q 18.109375 38.875 18.109375 30.90625 
L 18.109375 0 
L 9.078125 0 
L 9.078125 54.6875 
L 18.109375 54.6875 
L 18.109375 46.1875 
Q 21.1875 51.21875 25.484375 53.609375 
Q 29.78125 56 35.6875 56 
Q 41.65625 56 45.828125 52.96875 
Q 50 49.953125 52 44.1875 
z
" id="DejaVuSans-109"/>
       <path d="M 34.28125 27.484375 
Q 23.390625 27.484375 19.1875 25 
Q 14.984375 22.515625 14.984375 16.5 
Q 14.984375 11.71875 18.140625 8.90625 
Q 21.296875 6.109375 26.703125 6.109375 
Q 34.1875 6.109375 38.703125 11.40625 
Q 43.21875 16.703125 43.21875 25.484375 
L 43.21875 27.484375 
z
M 52.203125 31.203125 
L 52.203125 0 
L 43.21875 0 
L 43.21875 8.296875 
Q 40.140625 3.328125 35.546875 0.953125 
Q 30.953125 -1.421875 24.3125 -1.421875 
Q 15.921875 -1.421875 10.953125 3.296875 
Q 6 8.015625 6 15.921875 
Q 6 25.140625 12.171875 29.828125 
Q 18.359375 34.515625 30.609375 34.515625 
L 43.21875 34.515625 
L 43.21875 35.40625 
Q 43.21875 41.609375 39.140625 45 
Q 35.0625 48.390625 27.6875 48.390625 
Q 23 48.390625 18.546875 47.265625 
Q 14.109375 46.140625 10.015625 43.890625 
L 10.015625 52.203125 
Q 14.9375 54.109375 19.578125 55.046875 
Q 24.21875 56 28.609375 56 
Q 40.484375 56 46.34375 49.84375 
Q 52.203125 43.703125 52.203125 31.203125 
z
" id="DejaVuSans-97"/>
      </defs>
      <use xlink:href="#DejaVuSans-69"/>
      <use x="63.183594" xlink:href="#DejaVuSans-115"/>
      <use x="115.283203" xlink:href="#DejaVuSans-116"/>
      <use x="154.492188" xlink:href="#DejaVuSans-105"/>
      <use x="182.275391" xlink:href="#DejaVuSans-109"/>
      <use x="279.6875" xlink:href="#DejaVuSans-97"/>
      <use x="340.966797" xlink:href="#DejaVuSans-116"/>
      <use x="380.175781" xlink:href="#DejaVuSans-105"/>
      <use x="407.958984" xlink:href="#DejaVuSans-111"/>
      <use x="469.140625" xlink:href="#DejaVuSans-110"/>
      <use x="532.519531" xlink:href="#DejaVuSans-32"/>
      <use x="564.306641" xlink:href="#DejaVuSans-69"/>
      <use x="627.490234" xlink:href="#DejaVuSans-114"/>
      <use x="666.853516" xlink:href="#DejaVuSans-114"/>
      <use x="705.716797" xlink:href="#DejaVuSans-111"/>
      <use x="766.898438" xlink:href="#DejaVuSans-114"/>
     </g>
    </g>
   </g>
   <g id="LineCollection_1">
    <path clip-path="url(#p7fac7bbe39)" d="M 99.052996 169.088428 
L 122.455992 169.088428 
" style="fill:none;stroke:#1f77b4;stroke-width:1.5;"/>
    <path clip-path="url(#p7fac7bbe39)" d="M 192.664979 29.136364 
L 216.067975 29.136364 
" style="fill:none;stroke:#1f77b4;stroke-width:1.5;"/>
    <path clip-path="url(#p7fac7bbe39)" d="M 286.276963 161.909354 
L 309.679959 161.909354 
" style="fill:none;stroke:#1f77b4;stroke-width:1.5;"/>
   </g>
   <g id="LineCollection_2">
    <path clip-path="url(#p7fac7bbe39)" d="M 99.052996 233.863636 
L 122.455992 233.863636 
" style="fill:none;stroke:#1f77b4;stroke-width:1.5;"/>
    <path clip-path="url(#p7fac7bbe39)" d="M 192.664979 229.346793 
L 216.067975 229.346793 
" style="fill:none;stroke:#1f77b4;stroke-width:1.5;"/>
    <path clip-path="url(#p7fac7bbe39)" d="M 286.276963 228.378662 
L 309.679959 228.378662 
" style="fill:none;stroke:#1f77b4;stroke-width:1.5;"/>
   </g>
   <g id="LineCollection_3">
    <path clip-path="url(#p7fac7bbe39)" d="M 110.754494 233.863636 
L 110.754494 169.088428 
" style="fill:none;stroke:#1f77b4;stroke-width:1.5;"/>
    <path clip-path="url(#p7fac7bbe39)" d="M 204.366477 229.346793 
L 204.366477 29.136364 
" style="fill:none;stroke:#1f77b4;stroke-width:1.5;"/>
    <path clip-path="url(#p7fac7bbe39)" d="M 297.978461 228.378662 
L 297.978461 161.909354 
" style="fill:none;stroke:#1f77b4;stroke-width:1.5;"/>
   </g>
   <g id="patch_3">
    <path d="M 75.65 244.1 
L 75.65 18.9 
" style="fill:none;stroke:#000000;stroke-linecap:square;stroke-linejoin:miter;stroke-width:0.8;"/>
   </g>
   <g id="patch_4">
    <path d="M 333.082955 244.1 
L 333.082955 18.9 
" style="fill:none;stroke:#000000;stroke-linecap:square;stroke-linejoin:miter;stroke-width:0.8;"/>
   </g>
   <g id="patch_5">
    <path d="M 75.65 244.1 
L 333.082955 244.1 
" style="fill:none;stroke:#000000;stroke-linecap:square;stroke-linejoin:miter;stroke-width:0.8;"/>
   </g>
   <g id="patch_6">
    <path d="M 75.65 18.9 
L 333.082955 18.9 
" style="fill:none;stroke:#000000;stroke-linecap:square;stroke-linejoin:miter;stroke-width:0.8;"/>
   </g>
  </g>
 </g>
 <defs>
  <clipPath id="p7fac7bbe39">
   <rect height="225.2" width="257.432955" x="75.65" y="18.9"/>
  </clipPath>
 </defs>
</svg>
