<?xml version="1.0" encoding="utf-8" standalone="no"?>
<!DOCTYPE svg PUBLIC "-//W3C//DTD SVG 1.1//EN"
  "http://www.w3.org/Graphics/SVG/1.1/DTD/svg11.dtd">
<!-- Created with matplotlib (https://matplotlib.org/) -->
<svg height="288pt" version="1.1" viewBox="0 0 360 288" width="360pt" xmlns="http://www.w3.org/2000/svg" xmlns:xlink="http://www.w3.org/1999/xlink">
 <metadata>
  <rdf:RDF xmlns:cc="http://creativecommons.org/ns#" xmlns:dc="http://purl.org/dc/elements/1.1/" xmlns:rdf="http://www.w3.org/1999/02/22-rdf-syntax-ns#">
   <cc:Work>
    <dc:type rdf:resource="http://purl.org/dc/dcmitype/StillImage"/>
    <dc:date>2022-09-25T00:48:12.828750</dc:date>
    <dc:format>image/svg+xml</dc:format>
    <dc:creator>
     <cc:Agent>
      <dc:title>Matplotlib v3.3.4, https://matplotlib.org/</dc:title>
     </cc:Agent>
    </dc:creator>
   </cc:Work>
  </rdf:RDF>
 </metadata>
 <defs>
  <style type="text/css">*{stroke-linecap:butt;stroke-linejoin:round;}</style>
 </defs>
 <g id="figure_1">
  <g id="patch_1">
   <path d="M 0 288 
L 360 288 
L 360 0 
L 0 0 
z
" style="fill:none;"/>
  </g>
  <g id="axes_1">
   <g id="patch_2">
    <path d="M 75.65 244.1 
L 333.082955 244.1 
L 333.082955 18.9 
L 75.65 18.9 
z
" style="fill:#ffffff;"/>
   </g>
   <g id="PolyCollection_1">
    <path clip-path="url(#pce66a2d53c)" d="M 113.760562 233.863636 
L 107.748425 233.863636 
L 107.329771 233.337065 
L 106.867636 232.810493 
L 106.357357 232.283921 
L 105.794429 231.75735 
L 105.174983 231.230778 
L 104.496284 230.704206 
L 103.757195 230.177634 
L 102.95855 229.651063 
L 102.103393 229.124491 
L 101.197048 228.597919 
L 100.247026 228.071348 
L 99.262776 227.544776 
L 98.255313 227.018204 
L 97.236769 226.491633 
L 96.219907 225.965061 
L 95.217631 225.438489 
L 94.242535 224.911917 
L 93.30649 224.385346 
L 92.420293 223.858774 
L 91.593366 223.332202 
L 90.833514 222.805631 
L 90.146744 222.279059 
L 89.537148 221.752487 
L 89.006868 221.225916 
L 88.556145 220.699344 
L 88.183469 220.172772 
L 87.885815 219.6462 
L 87.658969 219.119629 
L 87.497908 218.593057 
L 87.397215 218.066485 
L 87.351498 217.539914 
L 87.355773 217.013342 
L 87.405802 216.48677 
L 87.498348 215.960199 
L 87.631359 215.433627 
L 87.80405 214.907055 
L 88.0169 214.380483 
L 88.271543 213.853912 
L 88.570576 213.32734 
L 88.917271 212.800768 
L 89.315202 212.274197 
L 89.767822 211.747625 
L 90.277992 211.221053 
L 90.847517 210.694482 
L 91.47672 210.16791 
L 92.1641 209.641338 
L 92.906105 209.114766 
L 93.697062 208.588195 
L 94.52927 208.061623 
L 95.393258 207.535051 
L 96.278205 207.00848 
L 97.172477 206.481908 
L 98.064245 205.955336 
L 98.942126 205.428765 
L 99.795794 204.902193 
L 100.616498 204.375621 
L 101.397442 203.849049 
L 102.133987 203.322478 
L 102.82366 202.795906 
L 103.465988 202.269334 
L 104.062162 201.742763 
L 104.614602 201.216191 
L 105.126469 200.689619 
L 105.601179 200.163048 
L 106.041994 199.636476 
L 106.451711 199.109904 
L 106.832484 198.583332 
L 107.185776 198.056761 
L 107.512425 197.530189 
L 107.81279 197.003617 
L 108.086952 196.477046 
L 108.334914 195.950474 
L 108.556784 195.423902 
L 108.752912 194.897331 
L 108.923974 194.370759 
L 109.070992 193.844187 
L 109.195311 193.317615 
L 109.298534 192.791044 
L 109.382435 192.264472 
L 109.44886 191.7379 
L 109.499634 191.211329 
L 109.536486 190.684757 
L 109.561006 190.158185 
L 109.574625 189.631614 
L 109.578646 189.105042 
L 109.574299 188.57847 
L 109.562833 188.051898 
L 109.545612 187.525327 
L 109.524209 186.998755 
L 109.500479 186.472183 
L 109.476581 185.945612 
L 109.454947 185.41904 
L 109.438184 184.892468 
L 109.428923 184.365897 
L 109.429626 183.839325 
L 109.442369 183.312753 
L 109.468641 182.786181 
L 109.509187 182.25961 
L 109.563905 181.733038 
L 111.945082 181.733038 
L 111.945082 181.733038 
L 111.9998 182.25961 
L 112.040346 182.786181 
L 112.066619 183.312753 
L 112.079361 183.839325 
L 112.080064 184.365897 
L 112.070804 184.892468 
L 112.054041 185.41904 
L 112.032406 185.945612 
L 112.008509 186.472183 
L 111.984779 186.998755 
L 111.963376 187.525327 
L 111.946154 188.051898 
L 111.934688 188.57847 
L 111.930342 189.105042 
L 111.934363 189.631614 
L 111.947982 190.158185 
L 111.972501 190.684757 
L 112.009354 191.211329 
L 112.060128 191.7379 
L 112.126552 192.264472 
L 112.210454 192.791044 
L 112.313677 193.317615 
L 112.437996 193.844187 
L 112.585014 194.370759 
L 112.756075 194.897331 
L 112.952204 195.423902 
L 113.174074 195.950474 
L 113.422035 196.477046 
L 113.696198 197.003617 
L 113.996563 197.530189 
L 114.323211 198.056761 
L 114.676503 198.583332 
L 115.057277 199.109904 
L 115.466994 199.636476 
L 115.907808 200.163048 
L 116.382519 200.689619 
L 116.894385 201.216191 
L 117.446826 201.742763 
L 118.043 202.269334 
L 118.685327 202.795906 
L 119.375001 203.322478 
L 120.111545 203.849049 
L 120.89249 204.375621 
L 121.713194 204.902193 
L 122.566862 205.428765 
L 123.444742 205.955336 
L 124.33651 206.481908 
L 125.230783 207.00848 
L 126.11573 207.535051 
L 126.979718 208.061623 
L 127.811925 208.588195 
L 128.602883 209.114766 
L 129.344888 209.641338 
L 130.032267 210.16791 
L 130.66147 210.694482 
L 131.230995 211.221053 
L 131.741165 211.747625 
L 132.193785 212.274197 
L 132.591717 212.800768 
L 132.938412 213.32734 
L 133.237445 213.853912 
L 133.492088 214.380483 
L 133.704937 214.907055 
L 133.877629 215.433627 
L 134.01064 215.960199 
L 134.103186 216.48677 
L 134.153214 217.013342 
L 134.15749 217.539914 
L 134.111773 218.066485 
L 134.01108 218.593057 
L 133.850019 219.119629 
L 133.623172 219.6462 
L 133.325519 220.172772 
L 132.952843 220.699344 
L 132.50212 221.225916 
L 131.97184 221.752487 
L 131.362244 222.279059 
L 130.675474 222.805631 
L 129.915622 223.332202 
L 129.088695 223.858774 
L 128.202498 224.385346 
L 127.266453 224.911917 
L 126.291356 225.438489 
L 125.28908 225.965061 
L 124.272218 226.491633 
L 123.253675 227.018204 
L 122.246212 227.544776 
L 121.261961 228.071348 
L 120.311939 228.597919 
L 119.405594 229.124491 
L 118.550437 229.651063 
L 117.751793 230.177634 
L 117.012704 230.704206 
L 116.334004 231.230778 
L 115.714558 231.75735 
L 115.15163 232.283921 
L 114.641352 232.810493 
L 114.179217 233.337065 
L 113.760562 233.863636 
z
" style="fill:#1f77b4;fill-opacity:0.3;"/>
   </g>
   <g id="PolyCollection_2">
    <path clip-path="url(#pce66a2d53c)" d="M 208.603705 229.760137 
L 200.12925 229.760137 
L 199.271016 227.733635 
L 198.317753 225.707132 
L 197.279335 223.680629 
L 196.170884 221.654126 
L 195.01236 219.627624 
L 193.827543 217.601121 
L 192.642478 215.574618 
L 191.483481 213.548115 
L 190.374935 211.521612 
L 189.337142 209.49511 
L 188.384535 207.468607 
L 187.524514 205.442104 
L 186.757103 203.415601 
L 186.075512 201.389099 
L 185.467552 199.362596 
L 184.917734 197.336093 
L 184.409757 195.30959 
L 183.929056 193.283088 
L 183.465061 191.256585 
L 183.012852 189.230082 
L 182.574021 187.203579 
L 182.156628 185.177077 
L 181.774305 183.150574 
L 181.444655 181.124071 
L 181.187204 179.097568 
L 181.021188 177.071065 
L 180.963481 175.044563 
L 181.026902 173.01806 
L 181.219083 170.991557 
L 181.541968 168.965054 
L 181.991921 166.938552 
L 182.560344 164.912049 
L 183.234646 162.885546 
L 183.999386 160.859043 
L 184.837428 158.832541 
L 185.730982 156.806038 
L 186.662441 154.779535 
L 187.614995 152.753032 
L 188.573035 150.72653 
L 189.522391 148.700027 
L 190.450467 146.673524 
L 191.346335 144.647021 
L 192.200824 142.620518 
L 193.006636 140.594016 
L 193.758472 138.567513 
L 194.453154 136.54101 
L 195.089697 134.514507 
L 195.669291 132.488005 
L 196.19516 130.461502 
L 196.672278 128.434999 
L 197.106964 126.408496 
L 197.506372 124.381994 
L 197.877938 122.355491 
L 198.228835 120.328988 
L 198.565496 118.302485 
L 198.893241 116.275983 
L 199.216041 114.24948 
L 199.53642 112.222977 
L 199.855483 110.196474 
L 200.173049 108.169971 
L 200.487874 106.143469 
L 200.797918 104.116966 
L 201.10065 102.090463 
L 201.39336 100.06396 
L 201.673454 98.037458 
L 201.938712 96.010955 
L 202.187489 93.984452 
L 202.418824 91.957949 
L 202.632471 89.931447 
L 202.828828 87.904944 
L 203.00879 85.878441 
L 203.173551 83.851938 
L 203.324395 81.825436 
L 203.462497 79.798933 
L 203.588784 77.77243 
L 203.703864 75.745927 
L 203.808014 73.719424 
L 203.901243 71.692922 
L 203.983378 69.666419 
L 204.054166 67.639916 
L 204.113366 65.613413 
L 204.160812 63.586911 
L 204.19644 61.560408 
L 204.220302 59.533905 
L 204.232562 57.507402 
L 204.233494 55.4809 
L 204.223511 53.454397 
L 204.203205 51.427894 
L 204.173426 49.401391 
L 204.135355 47.374889 
L 204.090586 45.348386 
L 204.041163 43.321883 
L 203.989563 41.29538 
L 203.938617 39.268877 
L 203.891347 37.242375 
L 203.850751 35.215872 
L 203.819543 33.189369 
L 203.799897 31.162866 
L 203.793223 29.136364 
L 204.939732 29.136364 
L 204.939732 29.136364 
L 204.933058 31.162866 
L 204.913411 33.189369 
L 204.882204 35.215872 
L 204.841608 37.242375 
L 204.794338 39.268877 
L 204.743392 41.29538 
L 204.691792 43.321883 
L 204.642368 45.348386 
L 204.5976 47.374889 
L 204.559529 49.401391 
L 204.529749 51.427894 
L 204.509444 53.454397 
L 204.49946 55.4809 
L 204.500393 57.507402 
L 204.512652 59.533905 
L 204.536515 61.560408 
L 204.572143 63.586911 
L 204.619588 65.613413 
L 204.678789 67.639916 
L 204.749577 69.666419 
L 204.831711 71.692922 
L 204.92494 73.719424 
L 205.029091 75.745927 
L 205.14417 77.77243 
L 205.270458 79.798933 
L 205.40856 81.825436 
L 205.559403 83.851938 
L 205.724165 85.878441 
L 205.904126 87.904944 
L 206.100483 89.931447 
L 206.314131 91.957949 
L 206.545466 93.984452 
L 206.794242 96.010955 
L 207.059501 98.037458 
L 207.339595 100.06396 
L 207.632304 102.090463 
L 207.935036 104.116966 
L 208.24508 106.143469 
L 208.559905 108.169971 
L 208.877472 110.196474 
L 209.196534 112.222977 
L 209.516913 114.24948 
L 209.839714 116.275983 
L 210.167459 118.302485 
L 210.504119 120.328988 
L 210.855017 122.355491 
L 211.226583 124.381994 
L 211.625991 126.408496 
L 212.060677 128.434999 
L 212.537795 130.461502 
L 213.063663 132.488005 
L 213.643257 134.514507 
L 214.279801 136.54101 
L 214.974482 138.567513 
L 215.726318 140.594016 
L 216.53213 142.620518 
L 217.38662 144.647021 
L 218.282487 146.673524 
L 219.210563 148.700027 
L 220.159919 150.72653 
L 221.11796 152.753032 
L 222.070514 154.779535 
L 223.001973 156.806038 
L 223.895527 158.832541 
L 224.733569 160.859043 
L 225.498308 162.885546 
L 226.17261 164.912049 
L 226.741034 166.938552 
L 227.190987 168.965054 
L 227.513872 170.991557 
L 227.706052 173.01806 
L 227.769473 175.044563 
L 227.711766 177.071065 
L 227.545751 179.097568 
L 227.2883 181.124071 
L 226.95865 183.150574 
L 226.576327 185.177077 
L 226.158934 187.203579 
L 225.720103 189.230082 
L 225.267894 191.256585 
L 224.803898 193.283088 
L 224.323198 195.30959 
L 223.81522 197.336093 
L 223.265403 199.362596 
L 222.657443 201.389099 
L 221.975851 203.415601 
L 221.20844 205.442104 
L 220.348419 207.468607 
L 219.395813 209.49511 
L 218.35802 211.521612 
L 217.249473 213.548115 
L 216.090477 215.574618 
L 214.905412 217.601121 
L 213.720595 219.627624 
L 212.56207 221.654126 
L 211.45362 223.680629 
L 210.415201 225.707132 
L 209.461939 227.733635 
L 208.603705 229.760137 
z
" style="fill:#1f77b4;fill-opacity:0.3;"/>
   </g>
   <g id="PolyCollection_3">
    <path clip-path="url(#pce66a2d53c)" d="M 301.906235 232.938571 
L 294.050687 232.938571 
L 293.48848 232.644594 
L 292.87639 232.350616 
L 292.215685 232.056639 
L 291.508804 231.762661 
L 290.759406 231.468684 
L 289.972371 231.174706 
L 289.153743 230.880729 
L 288.310612 230.586752 
L 287.450935 230.292774 
L 286.583308 229.998797 
L 285.716689 229.704819 
L 284.860093 229.410842 
L 284.022282 229.116864 
L 283.211446 228.822887 
L 282.434919 228.528909 
L 281.698926 228.234932 
L 281.008384 227.940955 
L 280.366767 227.646977 
L 279.776037 227.353 
L 279.23665 227.059022 
L 278.747625 226.765045 
L 278.306679 226.471067 
L 277.910423 226.17709 
L 277.554591 225.883113 
L 277.23432 225.589135 
L 276.944436 225.295158 
L 276.679759 225.00118 
L 276.435399 224.707203 
L 276.207037 224.413225 
L 275.991171 224.119248 
L 275.785328 223.82527 
L 275.588215 223.531293 
L 275.399818 223.237316 
L 275.221425 222.943338 
L 275.055592 222.649361 
L 274.90604 222.355383 
L 274.77749 222.061406 
L 274.675458 221.767428 
L 274.606003 221.473451 
L 274.575465 221.179474 
L 274.590189 220.885496 
L 274.656259 220.591519 
L 274.77925 220.297541 
L 274.964013 220.003564 
L 275.214487 219.709586 
L 275.533549 219.415609 
L 275.922908 219.121632 
L 276.383018 218.827654 
L 276.913039 218.533677 
L 277.510819 218.239699 
L 278.172901 217.945722 
L 278.894567 217.651744 
L 279.669903 217.357767 
L 280.491895 217.063789 
L 281.352558 216.769812 
L 282.243091 216.475835 
L 283.154062 216.181857 
L 284.075616 215.88788 
L 284.997702 215.593902 
L 285.910306 215.299925 
L 286.803688 215.005947 
L 287.668599 214.71197 
L 288.49649 214.417993 
L 289.279676 214.124015 
L 290.011474 213.830038 
L 290.6863 213.53606 
L 291.299725 213.242083 
L 291.84849 212.948105 
L 292.330498 212.654128 
L 292.744772 212.36015 
L 293.0914 212.066173 
L 293.371471 211.772196 
L 293.587002 211.478218 
L 293.740876 211.184241 
L 293.836772 210.890263 
L 293.879113 210.596286 
L 293.873006 210.302308 
L 293.82419 210.008331 
L 293.738966 209.714354 
L 293.624131 209.420376 
L 293.486881 209.126399 
L 293.334701 208.832421 
L 293.17523 208.538444 
L 293.016109 208.244466 
L 292.864804 207.950489 
L 292.72842 207.656512 
L 292.613515 207.362534 
L 292.525909 207.068557 
L 292.470517 206.774579 
L 292.451208 206.480602 
L 292.470686 206.186624 
L 292.530428 205.892647 
L 292.630654 205.598669 
L 292.770353 205.304692 
L 292.947353 205.010715 
L 293.158436 204.716737 
L 293.399485 204.42276 
L 293.665669 204.128782 
L 293.951644 203.834805 
L 302.005277 203.834805 
L 302.005277 203.834805 
L 302.291253 204.128782 
L 302.557437 204.42276 
L 302.798485 204.716737 
L 303.009568 205.010715 
L 303.186569 205.304692 
L 303.326268 205.598669 
L 303.426494 205.892647 
L 303.486235 206.186624 
L 303.505713 206.480602 
L 303.486404 206.774579 
L 303.431013 207.068557 
L 303.343407 207.362534 
L 303.228501 207.656512 
L 303.092118 207.950489 
L 302.940813 208.244466 
L 302.781692 208.538444 
L 302.622221 208.832421 
L 302.47004 209.126399 
L 302.33279 209.420376 
L 302.217955 209.714354 
L 302.132732 210.008331 
L 302.083915 210.302308 
L 302.077809 210.596286 
L 302.12015 210.890263 
L 302.216046 211.184241 
L 302.369919 211.478218 
L 302.585451 211.772196 
L 302.865522 212.066173 
L 303.21215 212.36015 
L 303.626424 212.654128 
L 304.108431 212.948105 
L 304.657197 213.242083 
L 305.270621 213.53606 
L 305.945448 213.830038 
L 306.677246 214.124015 
L 307.460431 214.417993 
L 308.288322 214.71197 
L 309.153234 215.005947 
L 310.046615 215.299925 
L 310.959219 215.593902 
L 311.881305 215.88788 
L 312.802859 216.181857 
L 313.71383 216.475835 
L 314.604364 216.769812 
L 315.465027 217.063789 
L 316.287019 217.357767 
L 317.062355 217.651744 
L 317.78402 217.945722 
L 318.446102 218.239699 
L 319.043882 218.533677 
L 319.573904 218.827654 
L 320.034014 219.121632 
L 320.423372 219.415609 
L 320.742435 219.709586 
L 320.992908 220.003564 
L 321.177671 220.297541 
L 321.300663 220.591519 
L 321.366733 220.885496 
L 321.381457 221.179474 
L 321.350919 221.473451 
L 321.281464 221.767428 
L 321.179431 222.061406 
L 321.050882 222.355383 
L 320.901329 222.649361 
L 320.735496 222.943338 
L 320.557103 223.237316 
L 320.368706 223.531293 
L 320.171594 223.82527 
L 319.965751 224.119248 
L 319.749885 224.413225 
L 319.521522 224.707203 
L 319.277162 225.00118 
L 319.012485 225.295158 
L 318.722601 225.589135 
L 318.40233 225.883113 
L 318.046499 226.17709 
L 317.650242 226.471067 
L 317.209297 226.765045 
L 316.720271 227.059022 
L 316.180884 227.353 
L 315.590155 227.646977 
L 314.948537 227.940955 
L 314.257995 228.234932 
L 313.522002 228.528909 
L 312.745475 228.822887 
L 311.93464 229.116864 
L 311.096829 229.410842 
L 310.240233 229.704819 
L 309.373613 229.998797 
L 308.505986 230.292774 
L 307.64631 230.586752 
L 306.803178 230.880729 
L 305.98455 231.174706 
L 305.197515 231.468684 
L 304.448117 231.762661 
L 303.741237 232.056639 
L 303.080532 232.350616 
L 302.468441 232.644594 
L 301.906235 232.938571 
z
" style="fill:#1f77b4;fill-opacity:0.3;"/>
   </g>
   <g id="matplotlib.axis_1">
    <g id="xtick_1">
     <g id="line2d_1">
      <defs>
       <path d="M 0 0 
L 0 3.5 
" id="m9d8e4d63a0" style="stroke:#000000;stroke-width:0.8;"/>
      </defs>
      <g>
       <use style="stroke:#000000;stroke-width:0.8;" x="110.754494" xlink:href="#m9d8e4d63a0" y="244.1"/>
      </g>
     </g>
     <g id="text_1">
      <!-- Our Method -->
      <g transform="translate(59.125392 264.397266)scale(0.175 -0.175)">
       <defs>
        <path d="M 39.40625 66.21875 
Q 28.65625 66.21875 22.328125 58.203125 
Q 16.015625 50.203125 16.015625 36.375 
Q 16.015625 22.609375 22.328125 14.59375 
Q 28.65625 6.59375 39.40625 6.59375 
Q 50.140625 6.59375 56.421875 14.59375 
Q 62.703125 22.609375 62.703125 36.375 
Q 62.703125 50.203125 56.421875 58.203125 
Q 50.140625 66.21875 39.40625 66.21875 
z
M 39.40625 74.21875 
Q 54.734375 74.21875 63.90625 63.9375 
Q 73.09375 53.65625 73.09375 36.375 
Q 73.09375 19.140625 63.90625 8.859375 
Q 54.734375 -1.421875 39.40625 -1.421875 
Q 24.03125 -1.421875 14.8125 8.828125 
Q 5.609375 19.09375 5.609375 36.375 
Q 5.609375 53.65625 14.8125 63.9375 
Q 24.03125 74.21875 39.40625 74.21875 
z
" id="DejaVuSans-79"/>
        <path d="M 8.5 21.578125 
L 8.5 54.6875 
L 17.484375 54.6875 
L 17.484375 21.921875 
Q 17.484375 14.15625 20.5 10.265625 
Q 23.53125 6.390625 29.59375 6.390625 
Q 36.859375 6.390625 41.078125 11.03125 
Q 45.3125 15.671875 45.3125 23.6875 
L 45.3125 54.6875 
L 54.296875 54.6875 
L 54.296875 0 
L 45.3125 0 
L 45.3125 8.40625 
Q 42.046875 3.421875 37.71875 1 
Q 33.40625 -1.421875 27.6875 -1.421875 
Q 18.265625 -1.421875 13.375 4.4375 
Q 8.5 10.296875 8.5 21.578125 
z
M 31.109375 56 
z
" id="DejaVuSans-117"/>
        <path d="M 41.109375 46.296875 
Q 39.59375 47.171875 37.8125 47.578125 
Q 36.03125 48 33.890625 48 
Q 26.265625 48 22.1875 43.046875 
Q 18.109375 38.09375 18.109375 28.8125 
L 18.109375 0 
L 9.078125 0 
L 9.078125 54.6875 
L 18.109375 54.6875 
L 18.109375 46.1875 
Q 20.953125 51.171875 25.484375 53.578125 
Q 30.03125 56 36.53125 56 
Q 37.453125 56 38.578125 55.875 
Q 39.703125 55.765625 41.0625 55.515625 
z
" id="DejaVuSans-114"/>
        <path id="DejaVuSans-32"/>
        <path d="M 9.8125 72.90625 
L 24.515625 72.90625 
L 43.109375 23.296875 
L 61.8125 72.90625 
L 76.515625 72.90625 
L 76.515625 0 
L 66.890625 0 
L 66.890625 64.015625 
L 48.09375 14.015625 
L 38.1875 14.015625 
L 19.390625 64.015625 
L 19.390625 0 
L 9.8125 0 
z
" id="DejaVuSans-77"/>
        <path d="M 56.203125 29.59375 
L 56.203125 25.203125 
L 14.890625 25.203125 
Q 15.484375 15.921875 20.484375 11.0625 
Q 25.484375 6.203125 34.421875 6.203125 
Q 39.59375 6.203125 44.453125 7.46875 
Q 49.3125 8.734375 54.109375 11.28125 
L 54.109375 2.78125 
Q 49.265625 0.734375 44.1875 -0.34375 
Q 39.109375 -1.421875 33.890625 -1.421875 
Q 20.796875 -1.421875 13.15625 6.1875 
Q 5.515625 13.8125 5.515625 26.8125 
Q 5.515625 40.234375 12.765625 48.109375 
Q 20.015625 56 32.328125 56 
Q 43.359375 56 49.78125 48.890625 
Q 56.203125 41.796875 56.203125 29.59375 
z
M 47.21875 32.234375 
Q 47.125 39.59375 43.09375 43.984375 
Q 39.0625 48.390625 32.421875 48.390625 
Q 24.90625 48.390625 20.390625 44.140625 
Q 15.875 39.890625 15.1875 32.171875 
z
" id="DejaVuSans-101"/>
        <path d="M 18.3125 70.21875 
L 18.3125 54.6875 
L 36.8125 54.6875 
L 36.8125 47.703125 
L 18.3125 47.703125 
L 18.3125 18.015625 
Q 18.3125 11.328125 20.140625 9.421875 
Q 21.96875 7.515625 27.59375 7.515625 
L 36.8125 7.515625 
L 36.8125 0 
L 27.59375 0 
Q 17.1875 0 13.234375 3.875 
Q 9.28125 7.765625 9.28125 18.015625 
L 9.28125 47.703125 
L 2.6875 47.703125 
L 2.6875 54.6875 
L 9.28125 54.6875 
L 9.28125 70.21875 
z
" id="DejaVuSans-116"/>
        <path d="M 54.890625 33.015625 
L 54.890625 0 
L 45.90625 0 
L 45.90625 32.71875 
Q 45.90625 40.484375 42.875 44.328125 
Q 39.84375 48.1875 33.796875 48.1875 
Q 26.515625 48.1875 22.3125 43.546875 
Q 18.109375 38.921875 18.109375 30.90625 
L 18.109375 0 
L 9.078125 0 
L 9.078125 75.984375 
L 18.109375 75.984375 
L 18.109375 46.1875 
Q 21.34375 51.125 25.703125 53.5625 
Q 30.078125 56 35.796875 56 
Q 45.21875 56 50.046875 50.171875 
Q 54.890625 44.34375 54.890625 33.015625 
z
" id="DejaVuSans-104"/>
        <path d="M 30.609375 48.390625 
Q 23.390625 48.390625 19.1875 42.75 
Q 14.984375 37.109375 14.984375 27.296875 
Q 14.984375 17.484375 19.15625 11.84375 
Q 23.34375 6.203125 30.609375 6.203125 
Q 37.796875 6.203125 41.984375 11.859375 
Q 46.1875 17.53125 46.1875 27.296875 
Q 46.1875 37.015625 41.984375 42.703125 
Q 37.796875 48.390625 30.609375 48.390625 
z
M 30.609375 56 
Q 42.328125 56 49.015625 48.375 
Q 55.71875 40.765625 55.71875 27.296875 
Q 55.71875 13.875 49.015625 6.21875 
Q 42.328125 -1.421875 30.609375 -1.421875 
Q 18.84375 -1.421875 12.171875 6.21875 
Q 5.515625 13.875 5.515625 27.296875 
Q 5.515625 40.765625 12.171875 48.375 
Q 18.84375 56 30.609375 56 
z
" id="DejaVuSans-111"/>
        <path d="M 45.40625 46.390625 
L 45.40625 75.984375 
L 54.390625 75.984375 
L 54.390625 0 
L 45.40625 0 
L 45.40625 8.203125 
Q 42.578125 3.328125 38.25 0.953125 
Q 33.9375 -1.421875 27.875 -1.421875 
Q 17.96875 -1.421875 11.734375 6.484375 
Q 5.515625 14.40625 5.515625 27.296875 
Q 5.515625 40.1875 11.734375 48.09375 
Q 17.96875 56 27.875 56 
Q 33.9375 56 38.25 53.625 
Q 42.578125 51.265625 45.40625 46.390625 
z
M 14.796875 27.296875 
Q 14.796875 17.390625 18.875 11.75 
Q 22.953125 6.109375 30.078125 6.109375 
Q 37.203125 6.109375 41.296875 11.75 
Q 45.40625 17.390625 45.40625 27.296875 
Q 45.40625 37.203125 41.296875 42.84375 
Q 37.203125 48.484375 30.078125 48.484375 
Q 22.953125 48.484375 18.875 42.84375 
Q 14.796875 37.203125 14.796875 27.296875 
z
" id="DejaVuSans-100"/>
       </defs>
       <use xlink:href="#DejaVuSans-79"/>
       <use x="78.710938" xlink:href="#DejaVuSans-117"/>
       <use x="142.089844" xlink:href="#DejaVuSans-114"/>
       <use x="183.203125" xlink:href="#DejaVuSans-32"/>
       <use x="214.990234" xlink:href="#DejaVuSans-77"/>
       <use x="301.269531" xlink:href="#DejaVuSans-101"/>
       <use x="362.792969" xlink:href="#DejaVuSans-116"/>
       <use x="402.001953" xlink:href="#DejaVuSans-104"/>
       <use x="465.380859" xlink:href="#DejaVuSans-111"/>
       <use x="526.5625" xlink:href="#DejaVuSans-100"/>
      </g>
     </g>
    </g>
    <g id="xtick_2">
     <g id="line2d_2">
      <g>
       <use style="stroke:#000000;stroke-width:0.8;" x="204.366477" xlink:href="#m9d8e4d63a0" y="244.1"/>
      </g>
     </g>
     <g id="text_2">
      <!-- Stein's -->
      <g transform="translate(175.058079 264.397266)scale(0.175 -0.175)">
       <defs>
        <path d="M 53.515625 70.515625 
L 53.515625 60.890625 
Q 47.90625 63.578125 42.921875 64.890625 
Q 37.9375 66.21875 33.296875 66.21875 
Q 25.25 66.21875 20.875 63.09375 
Q 16.5 59.96875 16.5 54.203125 
Q 16.5 49.359375 19.40625 46.890625 
Q 22.3125 44.4375 30.421875 42.921875 
L 36.375 41.703125 
Q 47.40625 39.59375 52.65625 34.296875 
Q 57.90625 29 57.90625 20.125 
Q 57.90625 9.515625 50.796875 4.046875 
Q 43.703125 -1.421875 29.984375 -1.421875 
Q 24.8125 -1.421875 18.96875 -0.25 
Q 13.140625 0.921875 6.890625 3.21875 
L 6.890625 13.375 
Q 12.890625 10.015625 18.65625 8.296875 
Q 24.421875 6.59375 29.984375 6.59375 
Q 38.421875 6.59375 43.015625 9.90625 
Q 47.609375 13.234375 47.609375 19.390625 
Q 47.609375 24.75 44.3125 27.78125 
Q 41.015625 30.8125 33.5 32.328125 
L 27.484375 33.5 
Q 16.453125 35.6875 11.515625 40.375 
Q 6.59375 45.0625 6.59375 53.421875 
Q 6.59375 63.09375 13.40625 68.65625 
Q 20.21875 74.21875 32.171875 74.21875 
Q 37.3125 74.21875 42.625 73.28125 
Q 47.953125 72.359375 53.515625 70.515625 
z
" id="DejaVuSans-83"/>
        <path d="M 9.421875 54.6875 
L 18.40625 54.6875 
L 18.40625 0 
L 9.421875 0 
z
M 9.421875 75.984375 
L 18.40625 75.984375 
L 18.40625 64.59375 
L 9.421875 64.59375 
z
" id="DejaVuSans-105"/>
        <path d="M 54.890625 33.015625 
L 54.890625 0 
L 45.90625 0 
L 45.90625 32.71875 
Q 45.90625 40.484375 42.875 44.328125 
Q 39.84375 48.1875 33.796875 48.1875 
Q 26.515625 48.1875 22.3125 43.546875 
Q 18.109375 38.921875 18.109375 30.90625 
L 18.109375 0 
L 9.078125 0 
L 9.078125 54.6875 
L 18.109375 54.6875 
L 18.109375 46.1875 
Q 21.34375 51.125 25.703125 53.5625 
Q 30.078125 56 35.796875 56 
Q 45.21875 56 50.046875 50.171875 
Q 54.890625 44.34375 54.890625 33.015625 
z
" id="DejaVuSans-110"/>
        <path d="M 17.921875 72.90625 
L 17.921875 45.796875 
L 9.625 45.796875 
L 9.625 72.90625 
z
" id="DejaVuSans-39"/>
        <path d="M 44.28125 53.078125 
L 44.28125 44.578125 
Q 40.484375 46.53125 36.375 47.5 
Q 32.28125 48.484375 27.875 48.484375 
Q 21.1875 48.484375 17.84375 46.4375 
Q 14.5 44.390625 14.5 40.28125 
Q 14.5 37.15625 16.890625 35.375 
Q 19.28125 33.59375 26.515625 31.984375 
L 29.59375 31.296875 
Q 39.15625 29.25 43.1875 25.515625 
Q 47.21875 21.78125 47.21875 15.09375 
Q 47.21875 7.46875 41.1875 3.015625 
Q 35.15625 -1.421875 24.609375 -1.421875 
Q 20.21875 -1.421875 15.453125 -0.5625 
Q 10.6875 0.296875 5.421875 2 
L 5.421875 11.28125 
Q 10.40625 8.6875 15.234375 7.390625 
Q 20.0625 6.109375 24.8125 6.109375 
Q 31.15625 6.109375 34.5625 8.28125 
Q 37.984375 10.453125 37.984375 14.40625 
Q 37.984375 18.0625 35.515625 20.015625 
Q 33.0625 21.96875 24.703125 23.78125 
L 21.578125 24.515625 
Q 13.234375 26.265625 9.515625 29.90625 
Q 5.8125 33.546875 5.8125 39.890625 
Q 5.8125 47.609375 11.28125 51.796875 
Q 16.75 56 26.8125 56 
Q 31.78125 56 36.171875 55.265625 
Q 40.578125 54.546875 44.28125 53.078125 
z
" id="DejaVuSans-115"/>
       </defs>
       <use xlink:href="#DejaVuSans-83"/>
       <use x="63.476562" xlink:href="#DejaVuSans-116"/>
       <use x="102.685547" xlink:href="#DejaVuSans-101"/>
       <use x="164.208984" xlink:href="#DejaVuSans-105"/>
       <use x="191.992188" xlink:href="#DejaVuSans-110"/>
       <use x="255.371094" xlink:href="#DejaVuSans-39"/>
       <use x="282.861328" xlink:href="#DejaVuSans-115"/>
      </g>
     </g>
    </g>
    <g id="xtick_3">
     <g id="line2d_3">
      <g>
       <use style="stroke:#000000;stroke-width:0.8;" x="297.978461" xlink:href="#m9d8e4d63a0" y="244.1"/>
      </g>
     </g>
     <g id="text_3">
      <!-- Entry-wise -->
      <g transform="translate(252.165375 264.397266)scale(0.175 -0.175)">
       <defs>
        <path d="M 9.8125 72.90625 
L 55.90625 72.90625 
L 55.90625 64.59375 
L 19.671875 64.59375 
L 19.671875 43.015625 
L 54.390625 43.015625 
L 54.390625 34.71875 
L 19.671875 34.71875 
L 19.671875 8.296875 
L 56.78125 8.296875 
L 56.78125 0 
L 9.8125 0 
z
" id="DejaVuSans-69"/>
        <path d="M 32.171875 -5.078125 
Q 28.375 -14.84375 24.75 -17.8125 
Q 21.140625 -20.796875 15.09375 -20.796875 
L 7.90625 -20.796875 
L 7.90625 -13.28125 
L 13.1875 -13.28125 
Q 16.890625 -13.28125 18.9375 -11.515625 
Q 21 -9.765625 23.484375 -3.21875 
L 25.09375 0.875 
L 2.984375 54.6875 
L 12.5 54.6875 
L 29.59375 11.921875 
L 46.6875 54.6875 
L 56.203125 54.6875 
z
" id="DejaVuSans-121"/>
        <path d="M 4.890625 31.390625 
L 31.203125 31.390625 
L 31.203125 23.390625 
L 4.890625 23.390625 
z
" id="DejaVuSans-45"/>
        <path d="M 4.203125 54.6875 
L 13.1875 54.6875 
L 24.421875 12.015625 
L 35.59375 54.6875 
L 46.1875 54.6875 
L 57.421875 12.015625 
L 68.609375 54.6875 
L 77.59375 54.6875 
L 63.28125 0 
L 52.6875 0 
L 40.921875 44.828125 
L 29.109375 0 
L 18.5 0 
z
" id="DejaVuSans-119"/>
       </defs>
       <use xlink:href="#DejaVuSans-69"/>
       <use x="63.183594" xlink:href="#DejaVuSans-110"/>
       <use x="126.5625" xlink:href="#DejaVuSans-116"/>
       <use x="165.771484" xlink:href="#DejaVuSans-114"/>
       <use x="206.884766" xlink:href="#DejaVuSans-121"/>
       <use x="264.314453" xlink:href="#DejaVuSans-45"/>
       <use x="300.398438" xlink:href="#DejaVuSans-119"/>
       <use x="382.185547" xlink:href="#DejaVuSans-105"/>
       <use x="409.96875" xlink:href="#DejaVuSans-115"/>
       <use x="462.068359" xlink:href="#DejaVuSans-101"/>
      </g>
     </g>
    </g>
   </g>
   <g id="matplotlib.axis_2">
    <g id="ytick_1">
     <g id="line2d_4">
      <defs>
       <path d="M 0 0 
L -3.5 0 
" id="m89758ac822" style="stroke:#000000;stroke-width:0.8;"/>
      </defs>
      <g>
       <use style="stroke:#000000;stroke-width:0.8;" x="75.65" xlink:href="#m89758ac822" y="238.268374"/>
      </g>
     </g>
     <g id="text_4">
      <!-- 0.0 -->
      <g transform="translate(40.819531 244.917007)scale(0.175 -0.175)">
       <defs>
        <path d="M 31.78125 66.40625 
Q 24.171875 66.40625 20.328125 58.90625 
Q 16.5 51.421875 16.5 36.375 
Q 16.5 21.390625 20.328125 13.890625 
Q 24.171875 6.390625 31.78125 6.390625 
Q 39.453125 6.390625 43.28125 13.890625 
Q 47.125 21.390625 47.125 36.375 
Q 47.125 51.421875 43.28125 58.90625 
Q 39.453125 66.40625 31.78125 66.40625 
z
M 31.78125 74.21875 
Q 44.046875 74.21875 50.515625 64.515625 
Q 56.984375 54.828125 56.984375 36.375 
Q 56.984375 17.96875 50.515625 8.265625 
Q 44.046875 -1.421875 31.78125 -1.421875 
Q 19.53125 -1.421875 13.0625 8.265625 
Q 6.59375 17.96875 6.59375 36.375 
Q 6.59375 54.828125 13.0625 64.515625 
Q 19.53125 74.21875 31.78125 74.21875 
z
" id="DejaVuSans-48"/>
        <path d="M 10.6875 12.40625 
L 21 12.40625 
L 21 0 
L 10.6875 0 
z
" id="DejaVuSans-46"/>
       </defs>
       <use xlink:href="#DejaVuSans-48"/>
       <use x="63.623047" xlink:href="#DejaVuSans-46"/>
       <use x="95.410156" xlink:href="#DejaVuSans-48"/>
      </g>
     </g>
    </g>
    <g id="ytick_2">
     <g id="line2d_5">
      <g>
       <use style="stroke:#000000;stroke-width:0.8;" x="75.65" xlink:href="#m89758ac822" y="193.921963"/>
      </g>
     </g>
     <g id="text_5">
      <!-- 0.2 -->
      <g transform="translate(40.819531 200.570596)scale(0.175 -0.175)">
       <defs>
        <path d="M 19.1875 8.296875 
L 53.609375 8.296875 
L 53.609375 0 
L 7.328125 0 
L 7.328125 8.296875 
Q 12.9375 14.109375 22.625 23.890625 
Q 32.328125 33.6875 34.8125 36.53125 
Q 39.546875 41.84375 41.421875 45.53125 
Q 43.3125 49.21875 43.3125 52.78125 
Q 43.3125 58.59375 39.234375 62.25 
Q 35.15625 65.921875 28.609375 65.921875 
Q 23.96875 65.921875 18.8125 64.3125 
Q 13.671875 62.703125 7.8125 59.421875 
L 7.8125 69.390625 
Q 13.765625 71.78125 18.9375 73 
Q 24.125 74.21875 28.421875 74.21875 
Q 39.75 74.21875 46.484375 68.546875 
Q 53.21875 62.890625 53.21875 53.421875 
Q 53.21875 48.921875 51.53125 44.890625 
Q 49.859375 40.875 45.40625 35.40625 
Q 44.1875 33.984375 37.640625 27.21875 
Q 31.109375 20.453125 19.1875 8.296875 
z
" id="DejaVuSans-50"/>
       </defs>
       <use xlink:href="#DejaVuSans-48"/>
       <use x="63.623047" xlink:href="#DejaVuSans-46"/>
       <use x="95.410156" xlink:href="#DejaVuSans-50"/>
      </g>
     </g>
    </g>
    <g id="ytick_3">
     <g id="line2d_6">
      <g>
       <use style="stroke:#000000;stroke-width:0.8;" x="75.65" xlink:href="#m89758ac822" y="149.575553"/>
      </g>
     </g>
     <g id="text_6">
      <!-- 0.4 -->
      <g transform="translate(40.819531 156.224186)scale(0.175 -0.175)">
       <defs>
        <path d="M 37.796875 64.3125 
L 12.890625 25.390625 
L 37.796875 25.390625 
z
M 35.203125 72.90625 
L 47.609375 72.90625 
L 47.609375 25.390625 
L 58.015625 25.390625 
L 58.015625 17.1875 
L 47.609375 17.1875 
L 47.609375 0 
L 37.796875 0 
L 37.796875 17.1875 
L 4.890625 17.1875 
L 4.890625 26.703125 
z
" id="DejaVuSans-52"/>
       </defs>
       <use xlink:href="#DejaVuSans-48"/>
       <use x="63.623047" xlink:href="#DejaVuSans-46"/>
       <use x="95.410156" xlink:href="#DejaVuSans-52"/>
      </g>
     </g>
    </g>
    <g id="ytick_4">
     <g id="line2d_7">
      <g>
       <use style="stroke:#000000;stroke-width:0.8;" x="75.65" xlink:href="#m89758ac822" y="105.229142"/>
      </g>
     </g>
     <g id="text_7">
      <!-- 0.6 -->
      <g transform="translate(40.819531 111.877775)scale(0.175 -0.175)">
       <defs>
        <path d="M 33.015625 40.375 
Q 26.375 40.375 22.484375 35.828125 
Q 18.609375 31.296875 18.609375 23.390625 
Q 18.609375 15.53125 22.484375 10.953125 
Q 26.375 6.390625 33.015625 6.390625 
Q 39.65625 6.390625 43.53125 10.953125 
Q 47.40625 15.53125 47.40625 23.390625 
Q 47.40625 31.296875 43.53125 35.828125 
Q 39.65625 40.375 33.015625 40.375 
z
M 52.59375 71.296875 
L 52.59375 62.3125 
Q 48.875 64.0625 45.09375 64.984375 
Q 41.3125 65.921875 37.59375 65.921875 
Q 27.828125 65.921875 22.671875 59.328125 
Q 17.53125 52.734375 16.796875 39.40625 
Q 19.671875 43.65625 24.015625 45.921875 
Q 28.375 48.1875 33.59375 48.1875 
Q 44.578125 48.1875 50.953125 41.515625 
Q 57.328125 34.859375 57.328125 23.390625 
Q 57.328125 12.15625 50.6875 5.359375 
Q 44.046875 -1.421875 33.015625 -1.421875 
Q 20.359375 -1.421875 13.671875 8.265625 
Q 6.984375 17.96875 6.984375 36.375 
Q 6.984375 53.65625 15.1875 63.9375 
Q 23.390625 74.21875 37.203125 74.21875 
Q 40.921875 74.21875 44.703125 73.484375 
Q 48.484375 72.75 52.59375 71.296875 
z
" id="DejaVuSans-54"/>
       </defs>
       <use xlink:href="#DejaVuSans-48"/>
       <use x="63.623047" xlink:href="#DejaVuSans-46"/>
       <use x="95.410156" xlink:href="#DejaVuSans-54"/>
      </g>
     </g>
    </g>
    <g id="ytick_5">
     <g id="line2d_8">
      <g>
       <use style="stroke:#000000;stroke-width:0.8;" x="75.65" xlink:href="#m89758ac822" y="60.882731"/>
      </g>
     </g>
     <g id="text_8">
      <!-- 0.8 -->
      <g transform="translate(40.819531 67.531364)scale(0.175 -0.175)">
       <defs>
        <path d="M 31.78125 34.625 
Q 24.75 34.625 20.71875 30.859375 
Q 16.703125 27.09375 16.703125 20.515625 
Q 16.703125 13.921875 20.71875 10.15625 
Q 24.75 6.390625 31.78125 6.390625 
Q 38.8125 6.390625 42.859375 10.171875 
Q 46.921875 13.96875 46.921875 20.515625 
Q 46.921875 27.09375 42.890625 30.859375 
Q 38.875 34.625 31.78125 34.625 
z
M 21.921875 38.8125 
Q 15.578125 40.375 12.03125 44.71875 
Q 8.5 49.078125 8.5 55.328125 
Q 8.5 64.0625 14.71875 69.140625 
Q 20.953125 74.21875 31.78125 74.21875 
Q 42.671875 74.21875 48.875 69.140625 
Q 55.078125 64.0625 55.078125 55.328125 
Q 55.078125 49.078125 51.53125 44.71875 
Q 48 40.375 41.703125 38.8125 
Q 48.828125 37.15625 52.796875 32.3125 
Q 56.78125 27.484375 56.78125 20.515625 
Q 56.78125 9.90625 50.3125 4.234375 
Q 43.84375 -1.421875 31.78125 -1.421875 
Q 19.734375 -1.421875 13.25 4.234375 
Q 6.78125 9.90625 6.78125 20.515625 
Q 6.78125 27.484375 10.78125 32.3125 
Q 14.796875 37.15625 21.921875 38.8125 
z
M 18.3125 54.390625 
Q 18.3125 48.734375 21.84375 45.5625 
Q 25.390625 42.390625 31.78125 42.390625 
Q 38.140625 42.390625 41.71875 45.5625 
Q 45.3125 48.734375 45.3125 54.390625 
Q 45.3125 60.0625 41.71875 63.234375 
Q 38.140625 66.40625 31.78125 66.40625 
Q 25.390625 66.40625 21.84375 63.234375 
Q 18.3125 60.0625 18.3125 54.390625 
z
" id="DejaVuSans-56"/>
       </defs>
       <use xlink:href="#DejaVuSans-48"/>
       <use x="63.623047" xlink:href="#DejaVuSans-46"/>
       <use x="95.410156" xlink:href="#DejaVuSans-56"/>
      </g>
     </g>
    </g>
    <g id="text_9">
     <!-- Estimation Error -->
     <g transform="translate(33.180078 202.198633)rotate(-90)scale(0.175 -0.175)">
      <defs>
       <path d="M 52 44.1875 
Q 55.375 50.25 60.0625 53.125 
Q 64.75 56 71.09375 56 
Q 79.640625 56 84.28125 50.015625 
Q 88.921875 44.046875 88.921875 33.015625 
L 88.921875 0 
L 79.890625 0 
L 79.890625 32.71875 
Q 79.890625 40.578125 77.09375 44.375 
Q 74.3125 48.1875 68.609375 48.1875 
Q 61.625 48.1875 57.5625 43.546875 
Q 53.515625 38.921875 53.515625 30.90625 
L 53.515625 0 
L 44.484375 0 
L 44.484375 32.71875 
Q 44.484375 40.625 41.703125 44.40625 
Q 38.921875 48.1875 33.109375 48.1875 
Q 26.21875 48.1875 22.15625 43.53125 
Q 18.109375 38.875 18.109375 30.90625 
L 18.109375 0 
L 9.078125 0 
L 9.078125 54.6875 
L 18.109375 54.6875 
L 18.109375 46.1875 
Q 21.1875 51.21875 25.484375 53.609375 
Q 29.78125 56 35.6875 56 
Q 41.65625 56 45.828125 52.96875 
Q 50 49.953125 52 44.1875 
z
" id="DejaVuSans-109"/>
       <path d="M 34.28125 27.484375 
Q 23.390625 27.484375 19.1875 25 
Q 14.984375 22.515625 14.984375 16.5 
Q 14.984375 11.71875 18.140625 8.90625 
Q 21.296875 6.109375 26.703125 6.109375 
Q 34.1875 6.109375 38.703125 11.40625 
Q 43.21875 16.703125 43.21875 25.484375 
L 43.21875 27.484375 
z
M 52.203125 31.203125 
L 52.203125 0 
L 43.21875 0 
L 43.21875 8.296875 
Q 40.140625 3.328125 35.546875 0.953125 
Q 30.953125 -1.421875 24.3125 -1.421875 
Q 15.921875 -1.421875 10.953125 3.296875 
Q 6 8.015625 6 15.921875 
Q 6 25.140625 12.171875 29.828125 
Q 18.359375 34.515625 30.609375 34.515625 
L 43.21875 34.515625 
L 43.21875 35.40625 
Q 43.21875 41.609375 39.140625 45 
Q 35.0625 48.390625 27.6875 48.390625 
Q 23 48.390625 18.546875 47.265625 
Q 14.109375 46.140625 10.015625 43.890625 
L 10.015625 52.203125 
Q 14.9375 54.109375 19.578125 55.046875 
Q 24.21875 56 28.609375 56 
Q 40.484375 56 46.34375 49.84375 
Q 52.203125 43.703125 52.203125 31.203125 
z
" id="DejaVuSans-97"/>
      </defs>
      <use xlink:href="#DejaVuSans-69"/>
      <use x="63.183594" xlink:href="#DejaVuSans-115"/>
      <use x="115.283203" xlink:href="#DejaVuSans-116"/>
      <use x="154.492188" xlink:href="#DejaVuSans-105"/>
      <use x="182.275391" xlink:href="#DejaVuSans-109"/>
      <use x="279.6875" xlink:href="#DejaVuSans-97"/>
      <use x="340.966797" xlink:href="#DejaVuSans-116"/>
      <use x="380.175781" xlink:href="#DejaVuSans-105"/>
      <use x="407.958984" xlink:href="#DejaVuSans-111"/>
      <use x="469.140625" xlink:href="#DejaVuSans-110"/>
      <use x="532.519531" xlink:href="#DejaVuSans-32"/>
      <use x="564.306641" xlink:href="#DejaVuSans-69"/>
      <use x="627.490234" xlink:href="#DejaVuSans-114"/>
      <use x="666.853516" xlink:href="#DejaVuSans-114"/>
      <use x="705.716797" xlink:href="#DejaVuSans-111"/>
      <use x="766.898438" xlink:href="#DejaVuSans-114"/>
     </g>
    </g>
   </g>
   <g id="LineCollection_1">
    <path clip-path="url(#pce66a2d53c)" d="M 99.052996 181.733038 
L 122.455992 181.733038 
" style="fill:none;stroke:#1f77b4;stroke-width:1.5;"/>
    <path clip-path="url(#pce66a2d53c)" d="M 192.664979 29.136364 
L 216.067975 29.136364 
" style="fill:none;stroke:#1f77b4;stroke-width:1.5;"/>
    <path clip-path="url(#pce66a2d53c)" d="M 286.276963 203.834805 
L 309.679959 203.834805 
" style="fill:none;stroke:#1f77b4;stroke-width:1.5;"/>
   </g>
   <g id="LineCollection_2">
    <path clip-path="url(#pce66a2d53c)" d="M 99.052996 233.863636 
L 122.455992 233.863636 
" style="fill:none;stroke:#1f77b4;stroke-width:1.5;"/>
    <path clip-path="url(#pce66a2d53c)" d="M 192.664979 229.760137 
L 216.067975 229.760137 
" style="fill:none;stroke:#1f77b4;stroke-width:1.5;"/>
    <path clip-path="url(#pce66a2d53c)" d="M 286.276963 232.938571 
L 309.679959 232.938571 
" style="fill:none;stroke:#1f77b4;stroke-width:1.5;"/>
   </g>
   <g id="LineCollection_3">
    <path clip-path="url(#pce66a2d53c)" d="M 110.754494 233.863636 
L 110.754494 181.733038 
" style="fill:none;stroke:#1f77b4;stroke-width:1.5;"/>
    <path clip-path="url(#pce66a2d53c)" d="M 204.366477 229.760137 
L 204.366477 29.136364 
" style="fill:none;stroke:#1f77b4;stroke-width:1.5;"/>
    <path clip-path="url(#pce66a2d53c)" d="M 297.978461 232.938571 
L 297.978461 203.834805 
" style="fill:none;stroke:#1f77b4;stroke-width:1.5;"/>
   </g>
   <g id="patch_3">
    <path d="M 75.65 244.1 
L 75.65 18.9 
" style="fill:none;stroke:#000000;stroke-linecap:square;stroke-linejoin:miter;stroke-width:0.8;"/>
   </g>
   <g id="patch_4">
    <path d="M 333.082955 244.1 
L 333.082955 18.9 
" style="fill:none;stroke:#000000;stroke-linecap:square;stroke-linejoin:miter;stroke-width:0.8;"/>
   </g>
   <g id="patch_5">
    <path d="M 75.65 244.1 
L 333.082955 244.1 
" style="fill:none;stroke:#000000;stroke-linecap:square;stroke-linejoin:miter;stroke-width:0.8;"/>
   </g>
   <g id="patch_6">
    <path d="M 75.65 18.9 
L 333.082955 18.9 
" style="fill:none;stroke:#000000;stroke-linecap:square;stroke-linejoin:miter;stroke-width:0.8;"/>
   </g>
  </g>
 </g>
 <defs>
  <clipPath id="pce66a2d53c">
   <rect height="225.2" width="257.432955" x="75.65" y="18.9"/>
  </clipPath>
 </defs>
</svg>
