<?xml version="1.0" encoding="utf-8" standalone="no"?>
<!DOCTYPE svg PUBLIC "-//W3C//DTD SVG 1.1//EN"
  "http://www.w3.org/Graphics/SVG/1.1/DTD/svg11.dtd">
<!-- Created with matplotlib (https://matplotlib.org/) -->
<svg height="288pt" version="1.1" viewBox="0 0 360 288" width="360pt" xmlns="http://www.w3.org/2000/svg" xmlns:xlink="http://www.w3.org/1999/xlink">
 <metadata>
  <rdf:RDF xmlns:cc="http://creativecommons.org/ns#" xmlns:dc="http://purl.org/dc/elements/1.1/" xmlns:rdf="http://www.w3.org/1999/02/22-rdf-syntax-ns#">
   <cc:Work>
    <dc:type rdf:resource="http://purl.org/dc/dcmitype/StillImage"/>
    <dc:date>2022-09-25T00:48:12.634930</dc:date>
    <dc:format>image/svg+xml</dc:format>
    <dc:creator>
     <cc:Agent>
      <dc:title>Matplotlib v3.3.4, https://matplotlib.org/</dc:title>
     </cc:Agent>
    </dc:creator>
   </cc:Work>
  </rdf:RDF>
 </metadata>
 <defs>
  <style type="text/css">*{stroke-linecap:butt;stroke-linejoin:round;}</style>
 </defs>
 <g id="figure_1">
  <g id="patch_1">
   <path d="M 0 288 
L 360 288 
L 360 0 
L 0 0 
z
" style="fill:none;"/>
  </g>
  <g id="axes_1">
   <g id="patch_2">
    <path d="M 59.025 244.1 
L 333.082955 244.1 
L 333.082955 18.9 
L 59.025 18.9 
z
" style="fill:#ffffff;"/>
   </g>
   <g id="PolyCollection_1">
    <path clip-path="url(#pbc8039901b)" d="M 101.508722 233.863636 
L 91.284357 233.863636 
L 90.745484 233.212753 
L 90.174003 232.561871 
L 89.568292 231.910988 
L 88.926822 231.260105 
L 88.248429 230.609222 
L 87.53261 229.958339 
L 86.779834 229.307456 
L 85.991795 228.656573 
L 85.171619 228.00569 
L 84.323959 227.354807 
L 83.454985 226.703924 
L 82.572243 226.053042 
L 81.684398 225.402159 
L 80.800873 224.751276 
L 79.93141 224.100393 
L 79.085596 223.44951 
L 78.272391 222.798627 
L 77.499696 222.147744 
L 76.774005 221.496861 
L 76.10016 220.845978 
L 75.48123 220.195095 
L 74.918518 219.544213 
L 74.41169 218.89333 
L 73.958996 218.242447 
L 73.55757 217.591564 
L 73.20377 216.940681 
L 72.893523 216.289798 
L 72.622658 215.638915 
L 72.387185 214.988032 
L 72.183527 214.337149 
L 72.008678 213.686266 
L 71.860305 213.035383 
L 71.736784 212.384501 
L 71.637198 211.733618 
L 71.561302 211.082735 
L 71.509466 210.431852 
L 71.482618 209.780969 
L 71.48218 209.130086 
L 71.510006 208.479203 
L 71.568329 207.82832 
L 71.659699 207.177437 
L 71.786915 206.526554 
L 71.952938 205.875672 
L 72.160786 205.224789 
L 72.413407 204.573906 
L 72.713517 203.923023 
L 73.063431 203.27214 
L 73.464865 202.621257 
L 73.91874 201.970374 
L 74.42499 201.319491 
L 74.982395 200.668608 
L 75.588447 200.017725 
L 76.239267 199.366843 
L 76.929588 198.71596 
L 77.652809 198.065077 
L 78.401134 197.414194 
L 79.165787 196.763311 
L 79.937307 196.112428 
L 80.705904 195.461545 
L 81.461869 194.810662 
L 82.195997 194.159779 
L 82.900018 193.508896 
L 83.566987 192.858014 
L 84.191612 192.207131 
L 84.770495 191.556248 
L 85.302262 190.905365 
L 85.787566 190.254482 
L 86.22897 189.603599 
L 86.630697 188.952716 
L 86.998288 188.301833 
L 87.33817 187.65095 
L 87.657185 187.000067 
L 87.962099 186.349185 
L 88.259146 185.698302 
L 88.55362 185.047419 
L 88.849572 184.396536 
L 89.149602 183.745653 
L 89.454786 183.09477 
L 89.764724 182.443887 
L 90.077698 181.793004 
L 90.390936 181.142121 
L 90.700946 180.491238 
L 91.00388 179.840355 
L 91.295924 179.189473 
L 91.573651 178.53859 
L 91.83432 177.887707 
L 92.076113 177.236824 
L 92.298263 176.585941 
L 92.501101 175.935058 
L 92.685994 175.284175 
L 92.855208 174.633292 
L 93.011694 173.982409 
L 93.158835 173.331526 
L 93.300165 172.680644 
L 93.439092 172.029761 
L 93.578644 171.378878 
L 93.72127 170.727995 
L 93.868684 170.077112 
L 94.021791 169.426229 
L 98.771288 169.426229 
L 98.771288 169.426229 
L 98.924395 170.077112 
L 99.071809 170.727995 
L 99.214435 171.378878 
L 99.353987 172.029761 
L 99.492913 172.680644 
L 99.634243 173.331526 
L 99.781384 173.982409 
L 99.937871 174.633292 
L 100.107084 175.284175 
L 100.291977 175.935058 
L 100.494815 176.585941 
L 100.716966 177.236824 
L 100.958758 177.887707 
L 101.219428 178.53859 
L 101.497154 179.189473 
L 101.789199 179.840355 
L 102.092133 180.491238 
L 102.402142 181.142121 
L 102.715381 181.793004 
L 103.028355 182.443887 
L 103.338292 183.09477 
L 103.643477 183.745653 
L 103.943507 184.396536 
L 104.239458 185.047419 
L 104.533933 185.698302 
L 104.830979 186.349185 
L 105.135894 187.000067 
L 105.454909 187.65095 
L 105.794791 188.301833 
L 106.162382 188.952716 
L 106.564109 189.603599 
L 107.005512 190.254482 
L 107.490817 190.905365 
L 108.022584 191.556248 
L 108.601467 192.207131 
L 109.226091 192.858014 
L 109.89306 193.508896 
L 110.597081 194.159779 
L 111.33121 194.810662 
L 112.087174 195.461545 
L 112.855772 196.112428 
L 113.627291 196.763311 
L 114.391945 197.414194 
L 115.14027 198.065077 
L 115.863491 198.71596 
L 116.553811 199.366843 
L 117.204631 200.017725 
L 117.810684 200.668608 
L 118.368089 201.319491 
L 118.874339 201.970374 
L 119.328213 202.621257 
L 119.729647 203.27214 
L 120.079561 203.923023 
L 120.379672 204.573906 
L 120.632292 205.224789 
L 120.84014 205.875672 
L 121.006163 206.526554 
L 121.133379 207.177437 
L 121.22475 207.82832 
L 121.283073 208.479203 
L 121.310899 209.130086 
L 121.31046 209.780969 
L 121.283612 210.431852 
L 121.231777 211.082735 
L 121.15588 211.733618 
L 121.056294 212.384501 
L 120.932773 213.035383 
L 120.7844 213.686266 
L 120.609552 214.337149 
L 120.405893 214.988032 
L 120.17042 215.638915 
L 119.899555 216.289798 
L 119.589309 216.940681 
L 119.235509 217.591564 
L 118.834083 218.242447 
L 118.381389 218.89333 
L 117.87456 219.544213 
L 117.311849 220.195095 
L 116.692919 220.845978 
L 116.019074 221.496861 
L 115.293383 222.147744 
L 114.520688 222.798627 
L 113.707483 223.44951 
L 112.861668 224.100393 
L 111.992205 224.751276 
L 111.10868 225.402159 
L 110.220836 226.053042 
L 109.338094 226.703924 
L 108.46912 227.354807 
L 107.62146 228.00569 
L 106.801284 228.656573 
L 106.013245 229.307456 
L 105.260468 229.958339 
L 104.54465 230.609222 
L 103.866256 231.260105 
L 103.224787 231.910988 
L 102.619076 232.561871 
L 102.047594 233.212753 
L 101.508722 233.863636 
z
" style="fill:#1f77b4;fill-opacity:0.3;"/>
   </g>
   <g id="PolyCollection_2">
    <path clip-path="url(#pbc8039901b)" d="M 200.765187 222.290513 
L 191.342767 222.290513 
L 190.673848 220.339461 
L 189.95869 218.388409 
L 189.20247 216.437357 
L 188.41173 214.486305 
L 187.594247 212.535253 
L 186.758815 210.584201 
L 185.914957 208.633149 
L 185.072563 206.682097 
L 184.241478 204.731045 
L 183.431055 202.779992 
L 182.649711 200.82894 
L 181.904502 198.877888 
L 181.200765 196.926836 
L 180.541839 194.975784 
L 179.928915 193.024732 
L 179.361003 191.07368 
L 178.835058 189.122628 
L 178.346234 187.171576 
L 177.888273 185.220524 
L 177.453985 183.269472 
L 177.035807 181.31842 
L 176.626386 179.367368 
L 176.219138 177.416316 
L 175.808768 175.465264 
L 175.391691 173.514212 
L 174.966328 171.56316 
L 174.533286 169.612108 
L 174.095374 167.661056 
L 173.657504 165.710004 
L 173.226454 163.758952 
L 172.810533 161.8079 
L 172.419179 159.856848 
L 172.062494 157.905796 
L 171.750764 155.954744 
L 171.493983 154.003692 
L 171.301397 152.05264 
L 171.181088 150.101588 
L 171.139618 148.150536 
L 171.181731 146.199484 
L 171.310134 144.248432 
L 171.525353 142.29738 
L 171.825672 140.346328 
L 172.207157 138.395276 
L 172.66377 136.444224 
L 173.187556 134.493172 
L 173.76893 132.54212 
L 174.397017 130.591068 
L 175.060072 128.640016 
L 175.745935 126.688964 
L 176.442521 124.737912 
L 177.138309 122.78686 
L 177.822809 120.835808 
L 178.486978 118.884756 
L 179.123565 116.933704 
L 179.727343 114.982652 
L 180.295244 113.0316 
L 180.826356 111.080548 
L 181.321809 109.129496 
L 181.784545 107.178444 
L 182.218999 105.227392 
L 182.630715 103.27634 
L 183.025929 101.325288 
L 183.411137 99.374236 
L 183.7927 97.423184 
L 184.176481 95.472132 
L 184.567552 93.52108 
L 184.96997 91.570028 
L 185.38663 89.618976 
L 185.819191 87.667924 
L 186.268068 85.716872 
L 186.732485 83.76582 
L 187.210572 81.814768 
L 187.699501 79.863716 
L 188.195653 77.912664 
L 188.694798 75.961612 
L 189.19229 74.01056 
L 189.683259 72.059508 
L 190.162815 70.108456 
L 190.626226 68.157404 
L 191.0691 66.206352 
L 191.487539 64.2553 
L 191.878277 62.304248 
L 192.238796 60.353196 
L 192.567406 58.402144 
L 192.8633 56.451092 
L 193.126568 54.50004 
L 193.358183 52.548988 
L 193.559935 50.597936 
L 193.734342 48.646884 
L 193.88452 46.695832 
L 194.01402 44.74478 
L 194.126657 42.793728 
L 194.226313 40.842676 
L 194.316753 38.891624 
L 194.401449 36.940572 
L 194.483425 34.98952 
L 194.565141 33.038468 
L 194.648415 31.087416 
L 194.734392 29.136364 
L 197.373563 29.136364 
L 197.373563 29.136364 
L 197.459539 31.087416 
L 197.542813 33.038468 
L 197.624529 34.98952 
L 197.706505 36.940572 
L 197.791201 38.891624 
L 197.881642 40.842676 
L 197.981298 42.793728 
L 198.093934 44.74478 
L 198.223435 46.695832 
L 198.373612 48.646884 
L 198.54802 50.597936 
L 198.749772 52.548988 
L 198.981386 54.50004 
L 199.244655 56.451092 
L 199.540548 58.402144 
L 199.869158 60.353196 
L 200.229677 62.304248 
L 200.620416 64.2553 
L 201.038854 66.206352 
L 201.481728 68.157404 
L 201.945139 70.108456 
L 202.424695 72.059508 
L 202.915665 74.01056 
L 203.413156 75.961612 
L 203.912301 77.912664 
L 204.408454 79.863716 
L 204.897383 81.814768 
L 205.375469 83.76582 
L 205.839886 85.716872 
L 206.288763 87.667924 
L 206.721324 89.618976 
L 207.137985 91.570028 
L 207.540403 93.52108 
L 207.931473 95.472132 
L 208.315254 97.423184 
L 208.696817 99.374236 
L 209.082026 101.325288 
L 209.477239 103.27634 
L 209.888956 105.227392 
L 210.32341 107.178444 
L 210.786145 109.129496 
L 211.281598 111.080548 
L 211.812711 113.0316 
L 212.380611 114.982652 
L 212.98439 116.933704 
L 213.620976 118.884756 
L 214.285146 120.835808 
L 214.969646 122.78686 
L 215.665433 124.737912 
L 216.36202 126.688964 
L 217.047883 128.640016 
L 217.710938 130.591068 
L 218.339025 132.54212 
L 218.920398 134.493172 
L 219.444185 136.444224 
L 219.900797 138.395276 
L 220.282283 140.346328 
L 220.582602 142.29738 
L 220.797821 144.248432 
L 220.926224 146.199484 
L 220.968337 148.150536 
L 220.926866 150.101588 
L 220.806558 152.05264 
L 220.613971 154.003692 
L 220.35719 155.954744 
L 220.04546 157.905796 
L 219.688775 159.856848 
L 219.297421 161.8079 
L 218.881501 163.758952 
L 218.45045 165.710004 
L 218.01258 167.661056 
L 217.574669 169.612108 
L 217.141626 171.56316 
L 216.716264 173.514212 
L 216.299186 175.465264 
L 215.888817 177.416316 
L 215.481569 179.367368 
L 215.072147 181.31842 
L 214.65397 183.269472 
L 214.219682 185.220524 
L 213.76172 187.171576 
L 213.272897 189.122628 
L 212.746952 191.07368 
L 212.17904 193.024732 
L 211.566115 194.975784 
L 210.90719 196.926836 
L 210.203452 198.877888 
L 209.458244 200.82894 
L 208.6769 202.779992 
L 207.866477 204.731045 
L 207.035391 206.682097 
L 206.192998 208.633149 
L 205.34914 210.584201 
L 204.513708 212.535253 
L 203.696224 214.486305 
L 202.905484 216.437357 
L 202.149264 218.388409 
L 201.434106 220.339461 
L 200.765187 222.290513 
z
" style="fill:#1f77b4;fill-opacity:0.3;"/>
   </g>
   <g id="PolyCollection_3">
    <path clip-path="url(#pbc8039901b)" d="M 301.501496 229.199517 
L 289.921335 229.199517 
L 289.42023 228.563233 
L 288.907055 227.92695 
L 288.382168 227.290667 
L 287.845552 226.654384 
L 287.296911 226.0181 
L 286.735798 225.381817 
L 286.16176 224.745534 
L 285.57448 224.109251 
L 284.973906 223.472968 
L 284.360345 222.836684 
L 283.734508 222.200401 
L 283.097515 221.564118 
L 282.450835 220.927835 
L 281.796198 220.291552 
L 281.135479 219.655268 
L 280.470571 219.018985 
L 279.803285 218.382702 
L 279.135282 217.746419 
L 278.468074 217.110135 
L 277.803082 216.473852 
L 277.141779 215.837569 
L 276.485886 215.201286 
L 275.837621 214.565003 
L 275.199957 213.928719 
L 274.576868 213.292436 
L 273.973522 212.656153 
L 273.396382 212.01987 
L 272.853196 211.383586 
L 272.352851 210.747303 
L 271.905088 210.11102 
L 271.520099 209.474737 
L 271.208006 208.838454 
L 270.978287 208.20217 
L 270.83917 207.565887 
L 270.797056 206.929604 
L 270.856017 206.293321 
L 271.017408 205.657038 
L 271.279625 205.020754 
L 271.638037 204.384471 
L 272.08508 203.748188 
L 272.610522 203.111905 
L 273.201867 202.475621 
L 273.844869 201.839338 
L 274.524116 201.203055 
L 275.22365 200.566772 
L 275.927576 199.930489 
L 276.62064 199.294205 
L 277.28873 198.657922 
L 277.919298 198.021639 
L 278.501692 197.385356 
L 279.027381 196.749072 
L 279.4901 196.112789 
L 279.885908 195.476506 
L 280.213175 194.840223 
L 280.472515 194.20394 
L 280.66667 193.567656 
L 280.800359 192.931373 
L 280.880089 192.29509 
L 280.913947 191.658807 
L 280.911354 191.022523 
L 280.882797 190.38624 
L 280.839531 189.749957 
L 280.793244 189.113674 
L 280.75571 188.477391 
L 280.738407 187.841107 
L 280.752136 187.204824 
L 280.806637 186.568541 
L 280.910234 185.932258 
L 281.069514 185.295975 
L 281.28907 184.659691 
L 281.571322 184.023408 
L 281.916438 183.387125 
L 282.322345 182.750842 
L 282.784864 182.114558 
L 283.29793 181.478275 
L 283.853914 180.841992 
L 284.444007 180.205709 
L 285.058653 179.569426 
L 285.687998 178.933142 
L 286.322335 178.296859 
L 286.952499 177.660576 
L 287.570216 177.024293 
L 288.168366 176.388009 
L 288.741163 175.751726 
L 289.284243 175.115443 
L 289.794668 174.47916 
L 290.270851 173.842877 
L 290.712421 173.206593 
L 291.120044 172.57031 
L 291.495213 171.934027 
L 291.840027 171.297744 
L 292.156983 170.661461 
L 292.448771 170.025177 
L 292.718109 169.388894 
L 292.967597 168.752611 
L 293.199614 168.116328 
L 293.416246 167.480044 
L 293.61924 166.843761 
L 293.809998 166.207478 
L 297.612833 166.207478 
L 297.612833 166.207478 
L 297.80359 166.843761 
L 298.006585 167.480044 
L 298.223216 168.116328 
L 298.455234 168.752611 
L 298.704722 169.388894 
L 298.974059 170.025177 
L 299.265848 170.661461 
L 299.582803 171.297744 
L 299.927618 171.934027 
L 300.302786 172.57031 
L 300.71041 173.206593 
L 301.15198 173.842877 
L 301.628163 174.47916 
L 302.138588 175.115443 
L 302.681668 175.751726 
L 303.254465 176.388009 
L 303.852615 177.024293 
L 304.470332 177.660576 
L 305.100496 178.296859 
L 305.734832 178.933142 
L 306.364178 179.569426 
L 306.978824 180.205709 
L 307.568917 180.841992 
L 308.124901 181.478275 
L 308.637967 182.114558 
L 309.100486 182.750842 
L 309.506393 183.387125 
L 309.851508 184.023408 
L 310.133761 184.659691 
L 310.353316 185.295975 
L 310.512596 185.932258 
L 310.616194 186.568541 
L 310.670695 187.204824 
L 310.684424 187.841107 
L 310.667121 188.477391 
L 310.629586 189.113674 
L 310.5833 189.749957 
L 310.540033 190.38624 
L 310.511477 191.022523 
L 310.508883 191.658807 
L 310.542741 192.29509 
L 310.622472 192.931373 
L 310.75616 193.567656 
L 310.950316 194.20394 
L 311.209656 194.840223 
L 311.536923 195.476506 
L 311.932731 196.112789 
L 312.39545 196.749072 
L 312.921139 197.385356 
L 313.503532 198.021639 
L 314.134101 198.657922 
L 314.80219 199.294205 
L 315.495254 199.930489 
L 316.199181 200.566772 
L 316.898714 201.203055 
L 317.577961 201.839338 
L 318.220964 202.475621 
L 318.812309 203.111905 
L 319.337751 203.748188 
L 319.784794 204.384471 
L 320.143205 205.020754 
L 320.405423 205.657038 
L 320.566814 206.293321 
L 320.625775 206.929604 
L 320.583661 207.565887 
L 320.444544 208.20217 
L 320.214825 208.838454 
L 319.902732 209.474737 
L 319.517742 210.11102 
L 319.06998 210.747303 
L 318.569634 211.383586 
L 318.026448 212.01987 
L 317.449309 212.656153 
L 316.845963 213.292436 
L 316.222874 213.928719 
L 315.585209 214.565003 
L 314.936944 215.201286 
L 314.281052 215.837569 
L 313.619749 216.473852 
L 312.954757 217.110135 
L 312.287548 217.746419 
L 311.619546 218.382702 
L 310.952259 219.018985 
L 310.287351 219.655268 
L 309.626632 220.291552 
L 308.971996 220.927835 
L 308.325316 221.564118 
L 307.688322 222.200401 
L 307.062486 222.836684 
L 306.448924 223.472968 
L 305.84835 224.109251 
L 305.26107 224.745534 
L 304.687032 225.381817 
L 304.12592 226.0181 
L 303.577279 226.654384 
L 303.040662 227.290667 
L 302.515775 227.92695 
L 302.002601 228.563233 
L 301.501496 229.199517 
z
" style="fill:#1f77b4;fill-opacity:0.3;"/>
   </g>
   <g id="matplotlib.axis_1">
    <g id="xtick_1">
     <g id="line2d_1">
      <defs>
       <path d="M 0 0 
L 0 3.5 
" id="mbf7cc7a37e" style="stroke:#000000;stroke-width:0.8;"/>
      </defs>
      <g>
       <use style="stroke:#000000;stroke-width:0.8;" x="96.396539" xlink:href="#mbf7cc7a37e" y="244.1"/>
      </g>
     </g>
     <g id="text_1">
      <!-- Our Method -->
      <g transform="translate(44.767438 264.397266)scale(0.175 -0.175)">
       <defs>
        <path d="M 39.40625 66.21875 
Q 28.65625 66.21875 22.328125 58.203125 
Q 16.015625 50.203125 16.015625 36.375 
Q 16.015625 22.609375 22.328125 14.59375 
Q 28.65625 6.59375 39.40625 6.59375 
Q 50.140625 6.59375 56.421875 14.59375 
Q 62.703125 22.609375 62.703125 36.375 
Q 62.703125 50.203125 56.421875 58.203125 
Q 50.140625 66.21875 39.40625 66.21875 
z
M 39.40625 74.21875 
Q 54.734375 74.21875 63.90625 63.9375 
Q 73.09375 53.65625 73.09375 36.375 
Q 73.09375 19.140625 63.90625 8.859375 
Q 54.734375 -1.421875 39.40625 -1.421875 
Q 24.03125 -1.421875 14.8125 8.828125 
Q 5.609375 19.09375 5.609375 36.375 
Q 5.609375 53.65625 14.8125 63.9375 
Q 24.03125 74.21875 39.40625 74.21875 
z
" id="DejaVuSans-79"/>
        <path d="M 8.5 21.578125 
L 8.5 54.6875 
L 17.484375 54.6875 
L 17.484375 21.921875 
Q 17.484375 14.15625 20.5 10.265625 
Q 23.53125 6.390625 29.59375 6.390625 
Q 36.859375 6.390625 41.078125 11.03125 
Q 45.3125 15.671875 45.3125 23.6875 
L 45.3125 54.6875 
L 54.296875 54.6875 
L 54.296875 0 
L 45.3125 0 
L 45.3125 8.40625 
Q 42.046875 3.421875 37.71875 1 
Q 33.40625 -1.421875 27.6875 -1.421875 
Q 18.265625 -1.421875 13.375 4.4375 
Q 8.5 10.296875 8.5 21.578125 
z
M 31.109375 56 
z
" id="DejaVuSans-117"/>
        <path d="M 41.109375 46.296875 
Q 39.59375 47.171875 37.8125 47.578125 
Q 36.03125 48 33.890625 48 
Q 26.265625 48 22.1875 43.046875 
Q 18.109375 38.09375 18.109375 28.8125 
L 18.109375 0 
L 9.078125 0 
L 9.078125 54.6875 
L 18.109375 54.6875 
L 18.109375 46.1875 
Q 20.953125 51.171875 25.484375 53.578125 
Q 30.03125 56 36.53125 56 
Q 37.453125 56 38.578125 55.875 
Q 39.703125 55.765625 41.0625 55.515625 
z
" id="DejaVuSans-114"/>
        <path id="DejaVuSans-32"/>
        <path d="M 9.8125 72.90625 
L 24.515625 72.90625 
L 43.109375 23.296875 
L 61.8125 72.90625 
L 76.515625 72.90625 
L 76.515625 0 
L 66.890625 0 
L 66.890625 64.015625 
L 48.09375 14.015625 
L 38.1875 14.015625 
L 19.390625 64.015625 
L 19.390625 0 
L 9.8125 0 
z
" id="DejaVuSans-77"/>
        <path d="M 56.203125 29.59375 
L 56.203125 25.203125 
L 14.890625 25.203125 
Q 15.484375 15.921875 20.484375 11.0625 
Q 25.484375 6.203125 34.421875 6.203125 
Q 39.59375 6.203125 44.453125 7.46875 
Q 49.3125 8.734375 54.109375 11.28125 
L 54.109375 2.78125 
Q 49.265625 0.734375 44.1875 -0.34375 
Q 39.109375 -1.421875 33.890625 -1.421875 
Q 20.796875 -1.421875 13.15625 6.1875 
Q 5.515625 13.8125 5.515625 26.8125 
Q 5.515625 40.234375 12.765625 48.109375 
Q 20.015625 56 32.328125 56 
Q 43.359375 56 49.78125 48.890625 
Q 56.203125 41.796875 56.203125 29.59375 
z
M 47.21875 32.234375 
Q 47.125 39.59375 43.09375 43.984375 
Q 39.0625 48.390625 32.421875 48.390625 
Q 24.90625 48.390625 20.390625 44.140625 
Q 15.875 39.890625 15.1875 32.171875 
z
" id="DejaVuSans-101"/>
        <path d="M 18.3125 70.21875 
L 18.3125 54.6875 
L 36.8125 54.6875 
L 36.8125 47.703125 
L 18.3125 47.703125 
L 18.3125 18.015625 
Q 18.3125 11.328125 20.140625 9.421875 
Q 21.96875 7.515625 27.59375 7.515625 
L 36.8125 7.515625 
L 36.8125 0 
L 27.59375 0 
Q 17.1875 0 13.234375 3.875 
Q 9.28125 7.765625 9.28125 18.015625 
L 9.28125 47.703125 
L 2.6875 47.703125 
L 2.6875 54.6875 
L 9.28125 54.6875 
L 9.28125 70.21875 
z
" id="DejaVuSans-116"/>
        <path d="M 54.890625 33.015625 
L 54.890625 0 
L 45.90625 0 
L 45.90625 32.71875 
Q 45.90625 40.484375 42.875 44.328125 
Q 39.84375 48.1875 33.796875 48.1875 
Q 26.515625 48.1875 22.3125 43.546875 
Q 18.109375 38.921875 18.109375 30.90625 
L 18.109375 0 
L 9.078125 0 
L 9.078125 75.984375 
L 18.109375 75.984375 
L 18.109375 46.1875 
Q 21.34375 51.125 25.703125 53.5625 
Q 30.078125 56 35.796875 56 
Q 45.21875 56 50.046875 50.171875 
Q 54.890625 44.34375 54.890625 33.015625 
z
" id="DejaVuSans-104"/>
        <path d="M 30.609375 48.390625 
Q 23.390625 48.390625 19.1875 42.75 
Q 14.984375 37.109375 14.984375 27.296875 
Q 14.984375 17.484375 19.15625 11.84375 
Q 23.34375 6.203125 30.609375 6.203125 
Q 37.796875 6.203125 41.984375 11.859375 
Q 46.1875 17.53125 46.1875 27.296875 
Q 46.1875 37.015625 41.984375 42.703125 
Q 37.796875 48.390625 30.609375 48.390625 
z
M 30.609375 56 
Q 42.328125 56 49.015625 48.375 
Q 55.71875 40.765625 55.71875 27.296875 
Q 55.71875 13.875 49.015625 6.21875 
Q 42.328125 -1.421875 30.609375 -1.421875 
Q 18.84375 -1.421875 12.171875 6.21875 
Q 5.515625 13.875 5.515625 27.296875 
Q 5.515625 40.765625 12.171875 48.375 
Q 18.84375 56 30.609375 56 
z
" id="DejaVuSans-111"/>
        <path d="M 45.40625 46.390625 
L 45.40625 75.984375 
L 54.390625 75.984375 
L 54.390625 0 
L 45.40625 0 
L 45.40625 8.203125 
Q 42.578125 3.328125 38.25 0.953125 
Q 33.9375 -1.421875 27.875 -1.421875 
Q 17.96875 -1.421875 11.734375 6.484375 
Q 5.515625 14.40625 5.515625 27.296875 
Q 5.515625 40.1875 11.734375 48.09375 
Q 17.96875 56 27.875 56 
Q 33.9375 56 38.25 53.625 
Q 42.578125 51.265625 45.40625 46.390625 
z
M 14.796875 27.296875 
Q 14.796875 17.390625 18.875 11.75 
Q 22.953125 6.109375 30.078125 6.109375 
Q 37.203125 6.109375 41.296875 11.75 
Q 45.40625 17.390625 45.40625 27.296875 
Q 45.40625 37.203125 41.296875 42.84375 
Q 37.203125 48.484375 30.078125 48.484375 
Q 22.953125 48.484375 18.875 42.84375 
Q 14.796875 37.203125 14.796875 27.296875 
z
" id="DejaVuSans-100"/>
       </defs>
       <use xlink:href="#DejaVuSans-79"/>
       <use x="78.710938" xlink:href="#DejaVuSans-117"/>
       <use x="142.089844" xlink:href="#DejaVuSans-114"/>
       <use x="183.203125" xlink:href="#DejaVuSans-32"/>
       <use x="214.990234" xlink:href="#DejaVuSans-77"/>
       <use x="301.269531" xlink:href="#DejaVuSans-101"/>
       <use x="362.792969" xlink:href="#DejaVuSans-116"/>
       <use x="402.001953" xlink:href="#DejaVuSans-104"/>
       <use x="465.380859" xlink:href="#DejaVuSans-111"/>
       <use x="526.5625" xlink:href="#DejaVuSans-100"/>
      </g>
     </g>
    </g>
    <g id="xtick_2">
     <g id="line2d_2">
      <g>
       <use style="stroke:#000000;stroke-width:0.8;" x="196.053977" xlink:href="#mbf7cc7a37e" y="244.1"/>
      </g>
     </g>
     <g id="text_2">
      <!-- Stein's -->
      <g transform="translate(166.745579 264.397266)scale(0.175 -0.175)">
       <defs>
        <path d="M 53.515625 70.515625 
L 53.515625 60.890625 
Q 47.90625 63.578125 42.921875 64.890625 
Q 37.9375 66.21875 33.296875 66.21875 
Q 25.25 66.21875 20.875 63.09375 
Q 16.5 59.96875 16.5 54.203125 
Q 16.5 49.359375 19.40625 46.890625 
Q 22.3125 44.4375 30.421875 42.921875 
L 36.375 41.703125 
Q 47.40625 39.59375 52.65625 34.296875 
Q 57.90625 29 57.90625 20.125 
Q 57.90625 9.515625 50.796875 4.046875 
Q 43.703125 -1.421875 29.984375 -1.421875 
Q 24.8125 -1.421875 18.96875 -0.25 
Q 13.140625 0.921875 6.890625 3.21875 
L 6.890625 13.375 
Q 12.890625 10.015625 18.65625 8.296875 
Q 24.421875 6.59375 29.984375 6.59375 
Q 38.421875 6.59375 43.015625 9.90625 
Q 47.609375 13.234375 47.609375 19.390625 
Q 47.609375 24.75 44.3125 27.78125 
Q 41.015625 30.8125 33.5 32.328125 
L 27.484375 33.5 
Q 16.453125 35.6875 11.515625 40.375 
Q 6.59375 45.0625 6.59375 53.421875 
Q 6.59375 63.09375 13.40625 68.65625 
Q 20.21875 74.21875 32.171875 74.21875 
Q 37.3125 74.21875 42.625 73.28125 
Q 47.953125 72.359375 53.515625 70.515625 
z
" id="DejaVuSans-83"/>
        <path d="M 9.421875 54.6875 
L 18.40625 54.6875 
L 18.40625 0 
L 9.421875 0 
z
M 9.421875 75.984375 
L 18.40625 75.984375 
L 18.40625 64.59375 
L 9.421875 64.59375 
z
" id="DejaVuSans-105"/>
        <path d="M 54.890625 33.015625 
L 54.890625 0 
L 45.90625 0 
L 45.90625 32.71875 
Q 45.90625 40.484375 42.875 44.328125 
Q 39.84375 48.1875 33.796875 48.1875 
Q 26.515625 48.1875 22.3125 43.546875 
Q 18.109375 38.921875 18.109375 30.90625 
L 18.109375 0 
L 9.078125 0 
L 9.078125 54.6875 
L 18.109375 54.6875 
L 18.109375 46.1875 
Q 21.34375 51.125 25.703125 53.5625 
Q 30.078125 56 35.796875 56 
Q 45.21875 56 50.046875 50.171875 
Q 54.890625 44.34375 54.890625 33.015625 
z
" id="DejaVuSans-110"/>
        <path d="M 17.921875 72.90625 
L 17.921875 45.796875 
L 9.625 45.796875 
L 9.625 72.90625 
z
" id="DejaVuSans-39"/>
        <path d="M 44.28125 53.078125 
L 44.28125 44.578125 
Q 40.484375 46.53125 36.375 47.5 
Q 32.28125 48.484375 27.875 48.484375 
Q 21.1875 48.484375 17.84375 46.4375 
Q 14.5 44.390625 14.5 40.28125 
Q 14.5 37.15625 16.890625 35.375 
Q 19.28125 33.59375 26.515625 31.984375 
L 29.59375 31.296875 
Q 39.15625 29.25 43.1875 25.515625 
Q 47.21875 21.78125 47.21875 15.09375 
Q 47.21875 7.46875 41.1875 3.015625 
Q 35.15625 -1.421875 24.609375 -1.421875 
Q 20.21875 -1.421875 15.453125 -0.5625 
Q 10.6875 0.296875 5.421875 2 
L 5.421875 11.28125 
Q 10.40625 8.6875 15.234375 7.390625 
Q 20.0625 6.109375 24.8125 6.109375 
Q 31.15625 6.109375 34.5625 8.28125 
Q 37.984375 10.453125 37.984375 14.40625 
Q 37.984375 18.0625 35.515625 20.015625 
Q 33.0625 21.96875 24.703125 23.78125 
L 21.578125 24.515625 
Q 13.234375 26.265625 9.515625 29.90625 
Q 5.8125 33.546875 5.8125 39.890625 
Q 5.8125 47.609375 11.28125 51.796875 
Q 16.75 56 26.8125 56 
Q 31.78125 56 36.171875 55.265625 
Q 40.578125 54.546875 44.28125 53.078125 
z
" id="DejaVuSans-115"/>
       </defs>
       <use xlink:href="#DejaVuSans-83"/>
       <use x="63.476562" xlink:href="#DejaVuSans-116"/>
       <use x="102.685547" xlink:href="#DejaVuSans-101"/>
       <use x="164.208984" xlink:href="#DejaVuSans-105"/>
       <use x="191.992188" xlink:href="#DejaVuSans-110"/>
       <use x="255.371094" xlink:href="#DejaVuSans-39"/>
       <use x="282.861328" xlink:href="#DejaVuSans-115"/>
      </g>
     </g>
    </g>
    <g id="xtick_3">
     <g id="line2d_3">
      <g>
       <use style="stroke:#000000;stroke-width:0.8;" x="295.711415" xlink:href="#mbf7cc7a37e" y="244.1"/>
      </g>
     </g>
     <g id="text_3">
      <!-- Entry-wise -->
      <g transform="translate(249.898329 264.397266)scale(0.175 -0.175)">
       <defs>
        <path d="M 9.8125 72.90625 
L 55.90625 72.90625 
L 55.90625 64.59375 
L 19.671875 64.59375 
L 19.671875 43.015625 
L 54.390625 43.015625 
L 54.390625 34.71875 
L 19.671875 34.71875 
L 19.671875 8.296875 
L 56.78125 8.296875 
L 56.78125 0 
L 9.8125 0 
z
" id="DejaVuSans-69"/>
        <path d="M 32.171875 -5.078125 
Q 28.375 -14.84375 24.75 -17.8125 
Q 21.140625 -20.796875 15.09375 -20.796875 
L 7.90625 -20.796875 
L 7.90625 -13.28125 
L 13.1875 -13.28125 
Q 16.890625 -13.28125 18.9375 -11.515625 
Q 21 -9.765625 23.484375 -3.21875 
L 25.09375 0.875 
L 2.984375 54.6875 
L 12.5 54.6875 
L 29.59375 11.921875 
L 46.6875 54.6875 
L 56.203125 54.6875 
z
" id="DejaVuSans-121"/>
        <path d="M 4.890625 31.390625 
L 31.203125 31.390625 
L 31.203125 23.390625 
L 4.890625 23.390625 
z
" id="DejaVuSans-45"/>
        <path d="M 4.203125 54.6875 
L 13.1875 54.6875 
L 24.421875 12.015625 
L 35.59375 54.6875 
L 46.1875 54.6875 
L 57.421875 12.015625 
L 68.609375 54.6875 
L 77.59375 54.6875 
L 63.28125 0 
L 52.6875 0 
L 40.921875 44.828125 
L 29.109375 0 
L 18.5 0 
z
" id="DejaVuSans-119"/>
       </defs>
       <use xlink:href="#DejaVuSans-69"/>
       <use x="63.183594" xlink:href="#DejaVuSans-110"/>
       <use x="126.5625" xlink:href="#DejaVuSans-116"/>
       <use x="165.771484" xlink:href="#DejaVuSans-114"/>
       <use x="206.884766" xlink:href="#DejaVuSans-121"/>
       <use x="264.314453" xlink:href="#DejaVuSans-45"/>
       <use x="300.398438" xlink:href="#DejaVuSans-119"/>
       <use x="382.185547" xlink:href="#DejaVuSans-105"/>
       <use x="409.96875" xlink:href="#DejaVuSans-115"/>
       <use x="462.068359" xlink:href="#DejaVuSans-101"/>
      </g>
     </g>
    </g>
   </g>
   <g id="matplotlib.axis_2">
    <g id="ytick_1">
     <g id="line2d_4">
      <defs>
       <path d="M 0 0 
L -3.5 0 
" id="m9ff5e05e0c" style="stroke:#000000;stroke-width:0.8;"/>
      </defs>
      <g>
       <use style="stroke:#000000;stroke-width:0.8;" x="59.025" xlink:href="#m9ff5e05e0c" y="240.875616"/>
      </g>
     </g>
     <g id="text_4">
      <!-- 0 -->
      <g transform="translate(40.890625 247.524249)scale(0.175 -0.175)">
       <defs>
        <path d="M 31.78125 66.40625 
Q 24.171875 66.40625 20.328125 58.90625 
Q 16.5 51.421875 16.5 36.375 
Q 16.5 21.390625 20.328125 13.890625 
Q 24.171875 6.390625 31.78125 6.390625 
Q 39.453125 6.390625 43.28125 13.890625 
Q 47.125 21.390625 47.125 36.375 
Q 47.125 51.421875 43.28125 58.90625 
Q 39.453125 66.40625 31.78125 66.40625 
z
M 31.78125 74.21875 
Q 44.046875 74.21875 50.515625 64.515625 
Q 56.984375 54.828125 56.984375 36.375 
Q 56.984375 17.96875 50.515625 8.265625 
Q 44.046875 -1.421875 31.78125 -1.421875 
Q 19.53125 -1.421875 13.0625 8.265625 
Q 6.59375 17.96875 6.59375 36.375 
Q 6.59375 54.828125 13.0625 64.515625 
Q 19.53125 74.21875 31.78125 74.21875 
z
" id="DejaVuSans-48"/>
       </defs>
       <use xlink:href="#DejaVuSans-48"/>
      </g>
     </g>
    </g>
    <g id="ytick_2">
     <g id="line2d_5">
      <g>
       <use style="stroke:#000000;stroke-width:0.8;" x="59.025" xlink:href="#m9ff5e05e0c" y="173.148668"/>
      </g>
     </g>
     <g id="text_5">
      <!-- 2 -->
      <g transform="translate(40.890625 179.797301)scale(0.175 -0.175)">
       <defs>
        <path d="M 19.1875 8.296875 
L 53.609375 8.296875 
L 53.609375 0 
L 7.328125 0 
L 7.328125 8.296875 
Q 12.9375 14.109375 22.625 23.890625 
Q 32.328125 33.6875 34.8125 36.53125 
Q 39.546875 41.84375 41.421875 45.53125 
Q 43.3125 49.21875 43.3125 52.78125 
Q 43.3125 58.59375 39.234375 62.25 
Q 35.15625 65.921875 28.609375 65.921875 
Q 23.96875 65.921875 18.8125 64.3125 
Q 13.671875 62.703125 7.8125 59.421875 
L 7.8125 69.390625 
Q 13.765625 71.78125 18.9375 73 
Q 24.125 74.21875 28.421875 74.21875 
Q 39.75 74.21875 46.484375 68.546875 
Q 53.21875 62.890625 53.21875 53.421875 
Q 53.21875 48.921875 51.53125 44.890625 
Q 49.859375 40.875 45.40625 35.40625 
Q 44.1875 33.984375 37.640625 27.21875 
Q 31.109375 20.453125 19.1875 8.296875 
z
" id="DejaVuSans-50"/>
       </defs>
       <use xlink:href="#DejaVuSans-50"/>
      </g>
     </g>
    </g>
    <g id="ytick_3">
     <g id="line2d_6">
      <g>
       <use style="stroke:#000000;stroke-width:0.8;" x="59.025" xlink:href="#m9ff5e05e0c" y="105.421719"/>
      </g>
     </g>
     <g id="text_6">
      <!-- 4 -->
      <g transform="translate(40.890625 112.070352)scale(0.175 -0.175)">
       <defs>
        <path d="M 37.796875 64.3125 
L 12.890625 25.390625 
L 37.796875 25.390625 
z
M 35.203125 72.90625 
L 47.609375 72.90625 
L 47.609375 25.390625 
L 58.015625 25.390625 
L 58.015625 17.1875 
L 47.609375 17.1875 
L 47.609375 0 
L 37.796875 0 
L 37.796875 17.1875 
L 4.890625 17.1875 
L 4.890625 26.703125 
z
" id="DejaVuSans-52"/>
       </defs>
       <use xlink:href="#DejaVuSans-52"/>
      </g>
     </g>
    </g>
    <g id="ytick_4">
     <g id="line2d_7">
      <g>
       <use style="stroke:#000000;stroke-width:0.8;" x="59.025" xlink:href="#m9ff5e05e0c" y="37.694771"/>
      </g>
     </g>
     <g id="text_7">
      <!-- 6 -->
      <g transform="translate(40.890625 44.343404)scale(0.175 -0.175)">
       <defs>
        <path d="M 33.015625 40.375 
Q 26.375 40.375 22.484375 35.828125 
Q 18.609375 31.296875 18.609375 23.390625 
Q 18.609375 15.53125 22.484375 10.953125 
Q 26.375 6.390625 33.015625 6.390625 
Q 39.65625 6.390625 43.53125 10.953125 
Q 47.40625 15.53125 47.40625 23.390625 
Q 47.40625 31.296875 43.53125 35.828125 
Q 39.65625 40.375 33.015625 40.375 
z
M 52.59375 71.296875 
L 52.59375 62.3125 
Q 48.875 64.0625 45.09375 64.984375 
Q 41.3125 65.921875 37.59375 65.921875 
Q 27.828125 65.921875 22.671875 59.328125 
Q 17.53125 52.734375 16.796875 39.40625 
Q 19.671875 43.65625 24.015625 45.921875 
Q 28.375 48.1875 33.59375 48.1875 
Q 44.578125 48.1875 50.953125 41.515625 
Q 57.328125 34.859375 57.328125 23.390625 
Q 57.328125 12.15625 50.6875 5.359375 
Q 44.046875 -1.421875 33.015625 -1.421875 
Q 20.359375 -1.421875 13.671875 8.265625 
Q 6.984375 17.96875 6.984375 36.375 
Q 6.984375 53.65625 15.1875 63.9375 
Q 23.390625 74.21875 37.203125 74.21875 
Q 40.921875 74.21875 44.703125 73.484375 
Q 48.484375 72.75 52.59375 71.296875 
z
" id="DejaVuSans-54"/>
       </defs>
       <use xlink:href="#DejaVuSans-54"/>
      </g>
     </g>
    </g>
    <g id="text_8">
     <!-- Estimation Error -->
     <g transform="translate(33.251172 202.198633)rotate(-90)scale(0.175 -0.175)">
      <defs>
       <path d="M 52 44.1875 
Q 55.375 50.25 60.0625 53.125 
Q 64.75 56 71.09375 56 
Q 79.640625 56 84.28125 50.015625 
Q 88.921875 44.046875 88.921875 33.015625 
L 88.921875 0 
L 79.890625 0 
L 79.890625 32.71875 
Q 79.890625 40.578125 77.09375 44.375 
Q 74.3125 48.1875 68.609375 48.1875 
Q 61.625 48.1875 57.5625 43.546875 
Q 53.515625 38.921875 53.515625 30.90625 
L 53.515625 0 
L 44.484375 0 
L 44.484375 32.71875 
Q 44.484375 40.625 41.703125 44.40625 
Q 38.921875 48.1875 33.109375 48.1875 
Q 26.21875 48.1875 22.15625 43.53125 
Q 18.109375 38.875 18.109375 30.90625 
L 18.109375 0 
L 9.078125 0 
L 9.078125 54.6875 
L 18.109375 54.6875 
L 18.109375 46.1875 
Q 21.1875 51.21875 25.484375 53.609375 
Q 29.78125 56 35.6875 56 
Q 41.65625 56 45.828125 52.96875 
Q 50 49.953125 52 44.1875 
z
" id="DejaVuSans-109"/>
       <path d="M 34.28125 27.484375 
Q 23.390625 27.484375 19.1875 25 
Q 14.984375 22.515625 14.984375 16.5 
Q 14.984375 11.71875 18.140625 8.90625 
Q 21.296875 6.109375 26.703125 6.109375 
Q 34.1875 6.109375 38.703125 11.40625 
Q 43.21875 16.703125 43.21875 25.484375 
L 43.21875 27.484375 
z
M 52.203125 31.203125 
L 52.203125 0 
L 43.21875 0 
L 43.21875 8.296875 
Q 40.140625 3.328125 35.546875 0.953125 
Q 30.953125 -1.421875 24.3125 -1.421875 
Q 15.921875 -1.421875 10.953125 3.296875 
Q 6 8.015625 6 15.921875 
Q 6 25.140625 12.171875 29.828125 
Q 18.359375 34.515625 30.609375 34.515625 
L 43.21875 34.515625 
L 43.21875 35.40625 
Q 43.21875 41.609375 39.140625 45 
Q 35.0625 48.390625 27.6875 48.390625 
Q 23 48.390625 18.546875 47.265625 
Q 14.109375 46.140625 10.015625 43.890625 
L 10.015625 52.203125 
Q 14.9375 54.109375 19.578125 55.046875 
Q 24.21875 56 28.609375 56 
Q 40.484375 56 46.34375 49.84375 
Q 52.203125 43.703125 52.203125 31.203125 
z
" id="DejaVuSans-97"/>
      </defs>
      <use xlink:href="#DejaVuSans-69"/>
      <use x="63.183594" xlink:href="#DejaVuSans-115"/>
      <use x="115.283203" xlink:href="#DejaVuSans-116"/>
      <use x="154.492188" xlink:href="#DejaVuSans-105"/>
      <use x="182.275391" xlink:href="#DejaVuSans-109"/>
      <use x="279.6875" xlink:href="#DejaVuSans-97"/>
      <use x="340.966797" xlink:href="#DejaVuSans-116"/>
      <use x="380.175781" xlink:href="#DejaVuSans-105"/>
      <use x="407.958984" xlink:href="#DejaVuSans-111"/>
      <use x="469.140625" xlink:href="#DejaVuSans-110"/>
      <use x="532.519531" xlink:href="#DejaVuSans-32"/>
      <use x="564.306641" xlink:href="#DejaVuSans-69"/>
      <use x="627.490234" xlink:href="#DejaVuSans-114"/>
      <use x="666.853516" xlink:href="#DejaVuSans-114"/>
      <use x="705.716797" xlink:href="#DejaVuSans-111"/>
      <use x="766.898438" xlink:href="#DejaVuSans-114"/>
     </g>
    </g>
   </g>
   <g id="LineCollection_1">
    <path clip-path="url(#pbc8039901b)" d="M 83.93936 169.426229 
L 108.853719 169.426229 
" style="fill:none;stroke:#1f77b4;stroke-width:1.5;"/>
    <path clip-path="url(#pbc8039901b)" d="M 183.596798 29.136364 
L 208.511157 29.136364 
" style="fill:none;stroke:#1f77b4;stroke-width:1.5;"/>
    <path clip-path="url(#pbc8039901b)" d="M 283.254236 166.207478 
L 308.168595 166.207478 
" style="fill:none;stroke:#1f77b4;stroke-width:1.5;"/>
   </g>
   <g id="LineCollection_2">
    <path clip-path="url(#pbc8039901b)" d="M 83.93936 233.863636 
L 108.853719 233.863636 
" style="fill:none;stroke:#1f77b4;stroke-width:1.5;"/>
    <path clip-path="url(#pbc8039901b)" d="M 183.596798 222.290513 
L 208.511157 222.290513 
" style="fill:none;stroke:#1f77b4;stroke-width:1.5;"/>
    <path clip-path="url(#pbc8039901b)" d="M 283.254236 229.199517 
L 308.168595 229.199517 
" style="fill:none;stroke:#1f77b4;stroke-width:1.5;"/>
   </g>
   <g id="LineCollection_3">
    <path clip-path="url(#pbc8039901b)" d="M 96.396539 233.863636 
L 96.396539 169.426229 
" style="fill:none;stroke:#1f77b4;stroke-width:1.5;"/>
    <path clip-path="url(#pbc8039901b)" d="M 196.053977 222.290513 
L 196.053977 29.136364 
" style="fill:none;stroke:#1f77b4;stroke-width:1.5;"/>
    <path clip-path="url(#pbc8039901b)" d="M 295.711415 229.199517 
L 295.711415 166.207478 
" style="fill:none;stroke:#1f77b4;stroke-width:1.5;"/>
   </g>
   <g id="patch_3">
    <path d="M 59.025 244.1 
L 59.025 18.9 
" style="fill:none;stroke:#000000;stroke-linecap:square;stroke-linejoin:miter;stroke-width:0.8;"/>
   </g>
   <g id="patch_4">
    <path d="M 333.082955 244.1 
L 333.082955 18.9 
" style="fill:none;stroke:#000000;stroke-linecap:square;stroke-linejoin:miter;stroke-width:0.8;"/>
   </g>
   <g id="patch_5">
    <path d="M 59.025 244.1 
L 333.082955 244.1 
" style="fill:none;stroke:#000000;stroke-linecap:square;stroke-linejoin:miter;stroke-width:0.8;"/>
   </g>
   <g id="patch_6">
    <path d="M 59.025 18.9 
L 333.082955 18.9 
" style="fill:none;stroke:#000000;stroke-linecap:square;stroke-linejoin:miter;stroke-width:0.8;"/>
   </g>
  </g>
 </g>
 <defs>
  <clipPath id="pbc8039901b">
   <rect height="225.2" width="274.057955" x="59.025" y="18.9"/>
  </clipPath>
 </defs>
</svg>
