<?xml version="1.0" encoding="utf-8" standalone="no"?>
<!DOCTYPE svg PUBLIC "-//W3C//DTD SVG 1.1//EN"
  "http://www.w3.org/Graphics/SVG/1.1/DTD/svg11.dtd">
<!-- Created with matplotlib (https://matplotlib.org/) -->
<svg height="288pt" version="1.1" viewBox="0 0 360 288" width="360pt" xmlns="http://www.w3.org/2000/svg" xmlns:xlink="http://www.w3.org/1999/xlink">
 <metadata>
  <rdf:RDF xmlns:cc="http://creativecommons.org/ns#" xmlns:dc="http://purl.org/dc/elements/1.1/" xmlns:rdf="http://www.w3.org/1999/02/22-rdf-syntax-ns#">
   <cc:Work>
    <dc:type rdf:resource="http://purl.org/dc/dcmitype/StillImage"/>
    <dc:date>2022-09-25T00:48:13.270869</dc:date>
    <dc:format>image/svg+xml</dc:format>
    <dc:creator>
     <cc:Agent>
      <dc:title>Matplotlib v3.3.4, https://matplotlib.org/</dc:title>
     </cc:Agent>
    </dc:creator>
   </cc:Work>
  </rdf:RDF>
 </metadata>
 <defs>
  <style type="text/css">*{stroke-linecap:butt;stroke-linejoin:round;}</style>
 </defs>
 <g id="figure_1">
  <g id="patch_1">
   <path d="M 0 288 
L 360 288 
L 360 0 
L 0 0 
z
" style="fill:none;"/>
  </g>
  <g id="axes_1">
   <g id="patch_2">
    <path d="M 70.15 244.1 
L 333.082955 244.1 
L 333.082955 18.9 
L 70.15 18.9 
z
" style="fill:#ffffff;"/>
   </g>
   <g id="PolyCollection_1">
    <path clip-path="url(#p621f208d86)" d="M 111.659956 233.863636 
L 100.349031 233.863636 
L 99.615255 233.501976 
L 98.842151 233.140316 
L 98.036401 232.778656 
L 97.20566 232.416996 
L 96.358285 232.055336 
L 95.503017 231.693676 
L 94.648623 231.332016 
L 93.803532 230.970356 
L 92.975495 230.608696 
L 92.171286 230.247036 
L 91.396479 229.885376 
L 90.655315 229.523716 
L 89.950654 229.162056 
L 89.284044 228.800396 
L 88.655853 228.438735 
L 88.065488 228.077075 
L 87.511631 227.715415 
L 86.992507 227.353755 
L 86.506115 226.992095 
L 86.050434 226.630435 
L 85.623564 226.268775 
L 85.223813 225.907115 
L 84.849729 225.545455 
L 84.500097 225.183795 
L 84.173909 224.822135 
L 83.870348 224.460475 
L 83.588787 224.098815 
L 83.328826 223.737155 
L 83.09036 223.375495 
L 82.873678 223.013835 
L 82.679561 222.652175 
L 82.509365 222.290514 
L 82.365047 221.928854 
L 82.249122 221.567194 
L 82.164514 221.205534 
L 82.114323 220.843874 
L 82.101498 220.482214 
L 82.128454 220.120554 
L 82.196683 219.758894 
L 82.306402 219.397234 
L 82.456294 219.035574 
L 82.643395 218.673914 
L 82.863156 218.312254 
L 83.109708 217.950594 
L 83.376302 217.588934 
L 83.655912 217.227274 
L 83.941937 216.865614 
L 84.228922 216.503954 
L 84.513243 216.142293 
L 84.793644 215.780633 
L 85.071581 215.418973 
L 85.351313 215.057313 
L 85.639709 214.695653 
L 85.945779 214.333993 
L 86.279962 213.972333 
L 86.653227 213.610673 
L 87.07607 213.249013 
L 87.557488 212.887353 
L 88.104043 212.525693 
L 88.719093 212.164033 
L 89.402252 211.802373 
L 90.149158 211.440713 
L 90.951541 211.079053 
L 91.797603 210.717393 
L 92.672672 210.355733 
L 93.560072 209.994072 
L 94.442141 209.632412 
L 95.301303 209.270752 
L 96.12112 208.909092 
L 96.887239 208.547432 
L 97.588164 208.185772 
L 98.215808 207.824112 
L 98.765786 207.462452 
L 99.237455 207.100792 
L 99.633689 206.739132 
L 99.960448 206.377472 
L 100.226161 206.015812 
L 100.440998 205.654152 
L 100.616085 205.292492 
L 100.762721 204.930832 
L 100.891669 204.569172 
L 101.01255 204.207512 
L 101.133392 203.845851 
L 101.260352 203.484191 
L 101.397604 203.122531 
L 101.547401 202.760871 
L 101.710276 202.399211 
L 101.885341 202.037551 
L 102.070666 201.675891 
L 102.263667 201.314231 
L 102.46149 200.952571 
L 102.661334 200.590911 
L 102.860706 200.229251 
L 103.057589 199.867591 
L 103.250511 199.505931 
L 103.438544 199.144271 
L 103.621228 198.782611 
L 103.798452 198.420951 
L 103.970316 198.059291 
L 108.038672 198.059291 
L 108.038672 198.059291 
L 108.210535 198.420951 
L 108.38776 198.782611 
L 108.570444 199.144271 
L 108.758477 199.505931 
L 108.951399 199.867591 
L 109.148281 200.229251 
L 109.347654 200.590911 
L 109.547498 200.952571 
L 109.745321 201.314231 
L 109.938322 201.675891 
L 110.123646 202.037551 
L 110.298712 202.399211 
L 110.461586 202.760871 
L 110.611384 203.122531 
L 110.748636 203.484191 
L 110.875595 203.845851 
L 110.996438 204.207512 
L 111.117319 204.569172 
L 111.246266 204.930832 
L 111.392903 205.292492 
L 111.56799 205.654152 
L 111.782827 206.015812 
L 112.04854 206.377472 
L 112.375299 206.739132 
L 112.771533 207.100792 
L 113.243202 207.462452 
L 113.79318 207.824112 
L 114.420823 208.185772 
L 115.121748 208.547432 
L 115.887867 208.909092 
L 116.707684 209.270752 
L 117.566846 209.632412 
L 118.448915 209.994072 
L 119.336316 210.355733 
L 120.211385 210.717393 
L 121.057447 211.079053 
L 121.85983 211.440713 
L 122.606736 211.802373 
L 123.289895 212.164033 
L 123.904944 212.525693 
L 124.4515 212.887353 
L 124.932918 213.249013 
L 125.35576 213.610673 
L 125.729026 213.972333 
L 126.063209 214.333993 
L 126.369279 214.695653 
L 126.657674 215.057313 
L 126.937407 215.418973 
L 127.215344 215.780633 
L 127.495744 216.142293 
L 127.780065 216.503954 
L 128.067051 216.865614 
L 128.353075 217.227274 
L 128.632686 217.588934 
L 128.89928 217.950594 
L 129.145831 218.312254 
L 129.365593 218.673914 
L 129.552693 219.035574 
L 129.702585 219.397234 
L 129.812305 219.758894 
L 129.880534 220.120554 
L 129.90749 220.482214 
L 129.894664 220.843874 
L 129.844474 221.205534 
L 129.759866 221.567194 
L 129.64394 221.928854 
L 129.499623 222.290514 
L 129.329427 222.652175 
L 129.13531 223.013835 
L 128.918628 223.375495 
L 128.680162 223.737155 
L 128.420201 224.098815 
L 128.13864 224.460475 
L 127.835079 224.822135 
L 127.50889 225.183795 
L 127.159258 225.545455 
L 126.785175 225.907115 
L 126.385424 226.268775 
L 125.958554 226.630435 
L 125.502873 226.992095 
L 125.016481 227.353755 
L 124.497356 227.715415 
L 123.9435 228.077075 
L 123.353134 228.438735 
L 122.724944 228.800396 
L 122.058333 229.162056 
L 121.353673 229.523716 
L 120.612508 229.885376 
L 119.837702 230.247036 
L 119.033493 230.608696 
L 118.205455 230.970356 
L 117.360364 231.332016 
L 116.50597 231.693676 
L 115.650703 232.055336 
L 114.803328 232.416996 
L 113.972586 232.778656 
L 113.166836 233.140316 
L 112.393733 233.501976 
L 111.659956 233.863636 
z
" style="fill:#1f77b4;fill-opacity:0.3;"/>
   </g>
   <g id="PolyCollection_2">
    <path clip-path="url(#p621f208d86)" d="M 202.768849 169.248607 
L 200.464106 169.248607 
L 200.272489 167.833332 
L 200.042693 166.418057 
L 199.765582 165.002781 
L 199.431337 163.587506 
L 199.029961 162.172231 
L 198.551885 160.756956 
L 197.988619 159.341681 
L 197.333414 157.926406 
L 196.581886 156.51113 
L 195.732565 155.095855 
L 194.787305 153.68058 
L 193.751544 152.265305 
L 192.634348 150.85003 
L 191.44826 149.434754 
L 190.20892 148.019479 
L 188.934507 146.604204 
L 187.645033 145.188929 
L 186.361559 143.773654 
L 185.105403 142.358378 
L 183.897392 140.943103 
L 182.757216 139.527828 
L 181.702903 138.112553 
L 180.750406 136.697278 
L 179.913285 135.282003 
L 179.202447 133.866727 
L 178.625923 132.451452 
L 178.188676 131.036177 
L 177.892443 129.620902 
L 177.735655 128.205627 
L 177.713481 126.790351 
L 177.818039 125.375076 
L 178.038796 123.959801 
L 178.363173 122.544526 
L 178.777286 121.129251 
L 179.266784 119.713976 
L 179.817668 118.2987 
L 180.417005 116.883425 
L 181.053454 115.46815 
L 181.717532 114.052875 
L 182.401629 112.6376 
L 183.099779 111.222324 
L 183.807263 109.807049 
L 184.520123 108.391774 
L 185.234703 106.976499 
L 185.947285 105.561224 
L 186.653898 104.145948 
L 187.350323 102.730673 
L 188.032292 101.315398 
L 188.695816 99.900123 
L 189.337603 98.484848 
L 189.955449 97.069573 
L 190.548538 95.654297 
L 191.117591 94.239022 
L 191.664799 92.823747 
L 192.193553 91.408472 
L 192.707987 89.993197 
L 193.212383 88.577921 
L 193.710523 87.162646 
L 194.205069 85.747371 
L 194.697056 84.332096 
L 195.185583 82.916821 
L 195.667737 81.501546 
L 196.138789 80.08627 
L 196.592625 78.670995 
L 197.022374 77.25572 
L 197.421165 75.840445 
L 197.782905 74.42517 
L 198.102993 73.009894 
L 198.378886 71.594619 
L 198.610444 70.179344 
L 198.800027 68.764069 
L 198.952322 67.348794 
L 199.073939 65.933518 
L 199.172812 64.518243 
L 199.257482 63.102968 
L 199.336339 61.687693 
L 199.4169 60.272418 
L 199.505198 58.857143 
L 199.605341 57.441867 
L 199.719283 56.026592 
L 199.846806 54.611317 
L 199.985719 53.196042 
L 200.132225 51.780767 
L 200.28142 50.365491 
L 200.427861 48.950216 
L 200.566133 47.534941 
L 200.691376 46.119666 
L 200.799715 44.704391 
L 200.888572 43.289115 
L 200.956836 41.87384 
L 201.00489 40.458565 
L 201.034505 39.04329 
L 201.048627 37.628015 
L 201.051063 36.21274 
L 201.046116 34.797464 
L 201.038191 33.382189 
L 201.031419 31.966914 
L 201.029316 30.551639 
L 201.034533 29.136364 
L 202.198421 29.136364 
L 202.198421 29.136364 
L 202.203638 30.551639 
L 202.201536 31.966914 
L 202.194763 33.382189 
L 202.186839 34.797464 
L 202.181892 36.21274 
L 202.184328 37.628015 
L 202.19845 39.04329 
L 202.228065 40.458565 
L 202.276118 41.87384 
L 202.344382 43.289115 
L 202.43324 44.704391 
L 202.541579 46.119666 
L 202.666821 47.534941 
L 202.805093 48.950216 
L 202.951534 50.365491 
L 203.10073 51.780767 
L 203.247236 53.196042 
L 203.386148 54.611317 
L 203.513672 56.026592 
L 203.627614 57.441867 
L 203.727757 58.857143 
L 203.816054 60.272418 
L 203.896615 61.687693 
L 203.975473 63.102968 
L 204.060143 64.518243 
L 204.159015 65.933518 
L 204.280632 67.348794 
L 204.432927 68.764069 
L 204.62251 70.179344 
L 204.854069 71.594619 
L 205.129961 73.009894 
L 205.450049 74.42517 
L 205.811789 75.840445 
L 206.210581 77.25572 
L 206.64033 78.670995 
L 207.094165 80.08627 
L 207.565218 81.501546 
L 208.047372 82.916821 
L 208.535898 84.332096 
L 209.027885 85.747371 
L 209.522431 87.162646 
L 210.020572 88.577921 
L 210.524968 89.993197 
L 211.039402 91.408472 
L 211.568155 92.823747 
L 212.115363 94.239022 
L 212.684416 95.654297 
L 213.277506 97.069573 
L 213.895351 98.484848 
L 214.537138 99.900123 
L 215.200663 101.315398 
L 215.882631 102.730673 
L 216.579057 104.145948 
L 217.28567 105.561224 
L 217.998252 106.976499 
L 218.712832 108.391774 
L 219.425692 109.807049 
L 220.133175 111.222324 
L 220.831326 112.6376 
L 221.515423 114.052875 
L 222.179501 115.46815 
L 222.815949 116.883425 
L 223.415287 118.2987 
L 223.96617 119.713976 
L 224.455668 121.129251 
L 224.869781 122.544526 
L 225.194158 123.959801 
L 225.414916 125.375076 
L 225.519473 126.790351 
L 225.497299 128.205627 
L 225.340512 129.620902 
L 225.044279 131.036177 
L 224.607032 132.451452 
L 224.030508 133.866727 
L 223.319669 135.282003 
L 222.482548 136.697278 
L 221.530052 138.112553 
L 220.475739 139.527828 
L 219.335563 140.943103 
L 218.127551 142.358378 
L 216.871395 143.773654 
L 215.587922 145.188929 
L 214.298448 146.604204 
L 213.024035 148.019479 
L 211.784695 149.434754 
L 210.598607 150.85003 
L 209.481411 152.265305 
L 208.445649 153.68058 
L 207.50039 155.095855 
L 206.651068 156.51113 
L 205.899541 157.926406 
L 205.244335 159.341681 
L 204.681069 160.756956 
L 204.202994 162.172231 
L 203.801618 163.587506 
L 203.467372 165.002781 
L 203.190262 166.418057 
L 202.960465 167.833332 
L 202.768849 169.248607 
z
" style="fill:#1f77b4;fill-opacity:0.3;"/>
   </g>
   <g id="PolyCollection_3">
    <path clip-path="url(#p621f208d86)" d="M 299.136766 220.305183 
L 295.320156 220.305183 
L 295.062102 219.870933 
L 294.788774 219.436683 
L 294.501811 219.002433 
L 294.203126 218.568182 
L 293.894825 218.133932 
L 293.57908 217.699682 
L 293.25794 217.265432 
L 292.933097 216.831182 
L 292.605616 216.396932 
L 292.275669 215.962682 
L 291.942317 215.528431 
L 291.603376 215.094181 
L 291.255441 214.659931 
L 290.894085 214.225681 
L 290.514253 213.791431 
L 290.110847 213.357181 
L 289.679433 212.92293 
L 289.217 212.48868 
L 288.722658 212.05443 
L 288.198136 211.62018 
L 287.647985 211.18593 
L 287.079381 210.75168 
L 286.501511 210.317429 
L 285.924552 209.883179 
L 285.358366 209.448929 
L 284.811054 209.014679 
L 284.287601 208.580429 
L 283.788809 208.146179 
L 283.310743 207.711928 
L 282.844824 207.277678 
L 282.378618 206.843428 
L 281.897288 206.409178 
L 281.385547 205.974928 
L 280.829878 205.540678 
L 280.220731 205.106427 
L 279.554388 204.672177 
L 278.834238 204.237927 
L 278.071281 203.803677 
L 277.283762 203.369427 
L 276.495992 202.935177 
L 275.736499 202.500926 
L 275.035742 202.066676 
L 274.423667 201.632426 
L 273.927395 201.198176 
L 273.569283 200.763926 
L 273.365537 200.329676 
L 273.325465 199.895426 
L 273.451371 199.461175 
L 273.739007 199.026925 
L 274.178454 198.592675 
L 274.755278 198.158425 
L 275.451792 197.724175 
L 276.248309 197.289925 
L 277.124269 196.855674 
L 278.059212 196.421424 
L 279.033546 195.987174 
L 280.029142 195.552924 
L 281.029762 195.118674 
L 282.021343 194.684424 
L 282.992164 194.250173 
L 283.932896 193.815923 
L 284.836559 193.381673 
L 285.698381 192.947423 
L 286.515579 192.513173 
L 287.287075 192.078923 
L 288.013178 191.644672 
L 288.695243 191.210422 
L 289.335351 190.776172 
L 289.936013 190.341922 
L 290.499919 189.907672 
L 291.029738 189.473422 
L 291.527961 189.039171 
L 291.996778 188.604921 
L 292.437999 188.170671 
L 292.852991 187.736421 
L 293.242657 187.302171 
L 293.607443 186.867921 
L 293.94739 186.433671 
L 294.262219 185.99942 
L 294.551463 185.56517 
L 294.814624 185.13092 
L 295.051338 184.69667 
L 295.261538 184.26242 
L 295.44558 183.82817 
L 295.604331 183.393919 
L 295.73919 182.959669 
L 295.852067 182.525419 
L 295.945303 182.091169 
L 296.021563 181.656919 
L 296.083706 181.222669 
L 296.134669 180.788418 
L 296.177342 180.354168 
L 296.214479 179.919918 
L 296.248619 179.485668 
L 296.282015 179.051418 
L 296.316586 178.617168 
L 296.353866 178.182917 
L 296.394962 177.748667 
L 296.440524 177.314417 
L 298.016398 177.314417 
L 298.016398 177.314417 
L 298.061959 177.748667 
L 298.103055 178.182917 
L 298.140335 178.617168 
L 298.174907 179.051418 
L 298.208303 179.485668 
L 298.242442 179.919918 
L 298.27958 180.354168 
L 298.322253 180.788418 
L 298.373215 181.222669 
L 298.435359 181.656919 
L 298.511618 182.091169 
L 298.604854 182.525419 
L 298.717732 182.959669 
L 298.852591 183.393919 
L 299.011341 183.82817 
L 299.195384 184.26242 
L 299.405584 184.69667 
L 299.642298 185.13092 
L 299.905459 185.56517 
L 300.194703 185.99942 
L 300.509532 186.433671 
L 300.849478 186.867921 
L 301.214265 187.302171 
L 301.603931 187.736421 
L 302.018922 188.170671 
L 302.460143 188.604921 
L 302.928961 189.039171 
L 303.427183 189.473422 
L 303.957003 189.907672 
L 304.520909 190.341922 
L 305.12157 190.776172 
L 305.761678 191.210422 
L 306.443744 191.644672 
L 307.169847 192.078923 
L 307.941343 192.513173 
L 308.75854 192.947423 
L 309.620362 193.381673 
L 310.524025 193.815923 
L 311.464758 194.250173 
L 312.435578 194.684424 
L 313.427159 195.118674 
L 314.427779 195.552924 
L 315.423376 195.987174 
L 316.39771 196.421424 
L 317.332652 196.855674 
L 318.208613 197.289925 
L 319.005129 197.724175 
L 319.701643 198.158425 
L 320.278467 198.592675 
L 320.717915 199.026925 
L 321.00555 199.461175 
L 321.131457 199.895426 
L 321.091385 200.329676 
L 320.887639 200.763926 
L 320.529526 201.198176 
L 320.033255 201.632426 
L 319.42118 202.066676 
L 318.720423 202.500926 
L 317.96093 202.935177 
L 317.17316 203.369427 
L 316.38564 203.803677 
L 315.622683 204.237927 
L 314.902534 204.672177 
L 314.23619 205.106427 
L 313.627043 205.540678 
L 313.071375 205.974928 
L 312.559634 206.409178 
L 312.078304 206.843428 
L 311.612098 207.277678 
L 311.146179 207.711928 
L 310.668113 208.146179 
L 310.16932 208.580429 
L 309.645867 209.014679 
L 309.098556 209.448929 
L 308.53237 209.883179 
L 307.955411 210.317429 
L 307.37754 210.75168 
L 306.808937 211.18593 
L 306.258785 211.62018 
L 305.734263 212.05443 
L 305.239921 212.48868 
L 304.777489 212.92293 
L 304.346074 213.357181 
L 303.942668 213.791431 
L 303.562837 214.225681 
L 303.20148 214.659931 
L 302.853546 215.094181 
L 302.514605 215.528431 
L 302.181252 215.962682 
L 301.851306 216.396932 
L 301.523825 216.831182 
L 301.198981 217.265432 
L 300.877841 217.699682 
L 300.562096 218.133932 
L 300.253796 218.568182 
L 299.95511 219.002433 
L 299.668148 219.436683 
L 299.39482 219.870933 
L 299.136766 220.305183 
z
" style="fill:#1f77b4;fill-opacity:0.3;"/>
   </g>
   <g id="matplotlib.axis_1">
    <g id="xtick_1">
     <g id="line2d_1">
      <defs>
       <path d="M 0 0 
L 0 3.5 
" id="m787e12eee4" style="stroke:#000000;stroke-width:0.8;"/>
      </defs>
      <g>
       <use style="stroke:#000000;stroke-width:0.8;" x="106.004494" xlink:href="#m787e12eee4" y="244.1"/>
      </g>
     </g>
     <g id="text_1">
      <!-- Our Method -->
      <g transform="translate(54.375392 264.397266)scale(0.175 -0.175)">
       <defs>
        <path d="M 39.40625 66.21875 
Q 28.65625 66.21875 22.328125 58.203125 
Q 16.015625 50.203125 16.015625 36.375 
Q 16.015625 22.609375 22.328125 14.59375 
Q 28.65625 6.59375 39.40625 6.59375 
Q 50.140625 6.59375 56.421875 14.59375 
Q 62.703125 22.609375 62.703125 36.375 
Q 62.703125 50.203125 56.421875 58.203125 
Q 50.140625 66.21875 39.40625 66.21875 
z
M 39.40625 74.21875 
Q 54.734375 74.21875 63.90625 63.9375 
Q 73.09375 53.65625 73.09375 36.375 
Q 73.09375 19.140625 63.90625 8.859375 
Q 54.734375 -1.421875 39.40625 -1.421875 
Q 24.03125 -1.421875 14.8125 8.828125 
Q 5.609375 19.09375 5.609375 36.375 
Q 5.609375 53.65625 14.8125 63.9375 
Q 24.03125 74.21875 39.40625 74.21875 
z
" id="DejaVuSans-79"/>
        <path d="M 8.5 21.578125 
L 8.5 54.6875 
L 17.484375 54.6875 
L 17.484375 21.921875 
Q 17.484375 14.15625 20.5 10.265625 
Q 23.53125 6.390625 29.59375 6.390625 
Q 36.859375 6.390625 41.078125 11.03125 
Q 45.3125 15.671875 45.3125 23.6875 
L 45.3125 54.6875 
L 54.296875 54.6875 
L 54.296875 0 
L 45.3125 0 
L 45.3125 8.40625 
Q 42.046875 3.421875 37.71875 1 
Q 33.40625 -1.421875 27.6875 -1.421875 
Q 18.265625 -1.421875 13.375 4.4375 
Q 8.5 10.296875 8.5 21.578125 
z
M 31.109375 56 
z
" id="DejaVuSans-117"/>
        <path d="M 41.109375 46.296875 
Q 39.59375 47.171875 37.8125 47.578125 
Q 36.03125 48 33.890625 48 
Q 26.265625 48 22.1875 43.046875 
Q 18.109375 38.09375 18.109375 28.8125 
L 18.109375 0 
L 9.078125 0 
L 9.078125 54.6875 
L 18.109375 54.6875 
L 18.109375 46.1875 
Q 20.953125 51.171875 25.484375 53.578125 
Q 30.03125 56 36.53125 56 
Q 37.453125 56 38.578125 55.875 
Q 39.703125 55.765625 41.0625 55.515625 
z
" id="DejaVuSans-114"/>
        <path id="DejaVuSans-32"/>
        <path d="M 9.8125 72.90625 
L 24.515625 72.90625 
L 43.109375 23.296875 
L 61.8125 72.90625 
L 76.515625 72.90625 
L 76.515625 0 
L 66.890625 0 
L 66.890625 64.015625 
L 48.09375 14.015625 
L 38.1875 14.015625 
L 19.390625 64.015625 
L 19.390625 0 
L 9.8125 0 
z
" id="DejaVuSans-77"/>
        <path d="M 56.203125 29.59375 
L 56.203125 25.203125 
L 14.890625 25.203125 
Q 15.484375 15.921875 20.484375 11.0625 
Q 25.484375 6.203125 34.421875 6.203125 
Q 39.59375 6.203125 44.453125 7.46875 
Q 49.3125 8.734375 54.109375 11.28125 
L 54.109375 2.78125 
Q 49.265625 0.734375 44.1875 -0.34375 
Q 39.109375 -1.421875 33.890625 -1.421875 
Q 20.796875 -1.421875 13.15625 6.1875 
Q 5.515625 13.8125 5.515625 26.8125 
Q 5.515625 40.234375 12.765625 48.109375 
Q 20.015625 56 32.328125 56 
Q 43.359375 56 49.78125 48.890625 
Q 56.203125 41.796875 56.203125 29.59375 
z
M 47.21875 32.234375 
Q 47.125 39.59375 43.09375 43.984375 
Q 39.0625 48.390625 32.421875 48.390625 
Q 24.90625 48.390625 20.390625 44.140625 
Q 15.875 39.890625 15.1875 32.171875 
z
" id="DejaVuSans-101"/>
        <path d="M 18.3125 70.21875 
L 18.3125 54.6875 
L 36.8125 54.6875 
L 36.8125 47.703125 
L 18.3125 47.703125 
L 18.3125 18.015625 
Q 18.3125 11.328125 20.140625 9.421875 
Q 21.96875 7.515625 27.59375 7.515625 
L 36.8125 7.515625 
L 36.8125 0 
L 27.59375 0 
Q 17.1875 0 13.234375 3.875 
Q 9.28125 7.765625 9.28125 18.015625 
L 9.28125 47.703125 
L 2.6875 47.703125 
L 2.6875 54.6875 
L 9.28125 54.6875 
L 9.28125 70.21875 
z
" id="DejaVuSans-116"/>
        <path d="M 54.890625 33.015625 
L 54.890625 0 
L 45.90625 0 
L 45.90625 32.71875 
Q 45.90625 40.484375 42.875 44.328125 
Q 39.84375 48.1875 33.796875 48.1875 
Q 26.515625 48.1875 22.3125 43.546875 
Q 18.109375 38.921875 18.109375 30.90625 
L 18.109375 0 
L 9.078125 0 
L 9.078125 75.984375 
L 18.109375 75.984375 
L 18.109375 46.1875 
Q 21.34375 51.125 25.703125 53.5625 
Q 30.078125 56 35.796875 56 
Q 45.21875 56 50.046875 50.171875 
Q 54.890625 44.34375 54.890625 33.015625 
z
" id="DejaVuSans-104"/>
        <path d="M 30.609375 48.390625 
Q 23.390625 48.390625 19.1875 42.75 
Q 14.984375 37.109375 14.984375 27.296875 
Q 14.984375 17.484375 19.15625 11.84375 
Q 23.34375 6.203125 30.609375 6.203125 
Q 37.796875 6.203125 41.984375 11.859375 
Q 46.1875 17.53125 46.1875 27.296875 
Q 46.1875 37.015625 41.984375 42.703125 
Q 37.796875 48.390625 30.609375 48.390625 
z
M 30.609375 56 
Q 42.328125 56 49.015625 48.375 
Q 55.71875 40.765625 55.71875 27.296875 
Q 55.71875 13.875 49.015625 6.21875 
Q 42.328125 -1.421875 30.609375 -1.421875 
Q 18.84375 -1.421875 12.171875 6.21875 
Q 5.515625 13.875 5.515625 27.296875 
Q 5.515625 40.765625 12.171875 48.375 
Q 18.84375 56 30.609375 56 
z
" id="DejaVuSans-111"/>
        <path d="M 45.40625 46.390625 
L 45.40625 75.984375 
L 54.390625 75.984375 
L 54.390625 0 
L 45.40625 0 
L 45.40625 8.203125 
Q 42.578125 3.328125 38.25 0.953125 
Q 33.9375 -1.421875 27.875 -1.421875 
Q 17.96875 -1.421875 11.734375 6.484375 
Q 5.515625 14.40625 5.515625 27.296875 
Q 5.515625 40.1875 11.734375 48.09375 
Q 17.96875 56 27.875 56 
Q 33.9375 56 38.25 53.625 
Q 42.578125 51.265625 45.40625 46.390625 
z
M 14.796875 27.296875 
Q 14.796875 17.390625 18.875 11.75 
Q 22.953125 6.109375 30.078125 6.109375 
Q 37.203125 6.109375 41.296875 11.75 
Q 45.40625 17.390625 45.40625 27.296875 
Q 45.40625 37.203125 41.296875 42.84375 
Q 37.203125 48.484375 30.078125 48.484375 
Q 22.953125 48.484375 18.875 42.84375 
Q 14.796875 37.203125 14.796875 27.296875 
z
" id="DejaVuSans-100"/>
       </defs>
       <use xlink:href="#DejaVuSans-79"/>
       <use x="78.710938" xlink:href="#DejaVuSans-117"/>
       <use x="142.089844" xlink:href="#DejaVuSans-114"/>
       <use x="183.203125" xlink:href="#DejaVuSans-32"/>
       <use x="214.990234" xlink:href="#DejaVuSans-77"/>
       <use x="301.269531" xlink:href="#DejaVuSans-101"/>
       <use x="362.792969" xlink:href="#DejaVuSans-116"/>
       <use x="402.001953" xlink:href="#DejaVuSans-104"/>
       <use x="465.380859" xlink:href="#DejaVuSans-111"/>
       <use x="526.5625" xlink:href="#DejaVuSans-100"/>
      </g>
     </g>
    </g>
    <g id="xtick_2">
     <g id="line2d_2">
      <g>
       <use style="stroke:#000000;stroke-width:0.8;" x="201.616477" xlink:href="#m787e12eee4" y="244.1"/>
      </g>
     </g>
     <g id="text_2">
      <!-- Stein's -->
      <g transform="translate(172.308079 264.397266)scale(0.175 -0.175)">
       <defs>
        <path d="M 53.515625 70.515625 
L 53.515625 60.890625 
Q 47.90625 63.578125 42.921875 64.890625 
Q 37.9375 66.21875 33.296875 66.21875 
Q 25.25 66.21875 20.875 63.09375 
Q 16.5 59.96875 16.5 54.203125 
Q 16.5 49.359375 19.40625 46.890625 
Q 22.3125 44.4375 30.421875 42.921875 
L 36.375 41.703125 
Q 47.40625 39.59375 52.65625 34.296875 
Q 57.90625 29 57.90625 20.125 
Q 57.90625 9.515625 50.796875 4.046875 
Q 43.703125 -1.421875 29.984375 -1.421875 
Q 24.8125 -1.421875 18.96875 -0.25 
Q 13.140625 0.921875 6.890625 3.21875 
L 6.890625 13.375 
Q 12.890625 10.015625 18.65625 8.296875 
Q 24.421875 6.59375 29.984375 6.59375 
Q 38.421875 6.59375 43.015625 9.90625 
Q 47.609375 13.234375 47.609375 19.390625 
Q 47.609375 24.75 44.3125 27.78125 
Q 41.015625 30.8125 33.5 32.328125 
L 27.484375 33.5 
Q 16.453125 35.6875 11.515625 40.375 
Q 6.59375 45.0625 6.59375 53.421875 
Q 6.59375 63.09375 13.40625 68.65625 
Q 20.21875 74.21875 32.171875 74.21875 
Q 37.3125 74.21875 42.625 73.28125 
Q 47.953125 72.359375 53.515625 70.515625 
z
" id="DejaVuSans-83"/>
        <path d="M 9.421875 54.6875 
L 18.40625 54.6875 
L 18.40625 0 
L 9.421875 0 
z
M 9.421875 75.984375 
L 18.40625 75.984375 
L 18.40625 64.59375 
L 9.421875 64.59375 
z
" id="DejaVuSans-105"/>
        <path d="M 54.890625 33.015625 
L 54.890625 0 
L 45.90625 0 
L 45.90625 32.71875 
Q 45.90625 40.484375 42.875 44.328125 
Q 39.84375 48.1875 33.796875 48.1875 
Q 26.515625 48.1875 22.3125 43.546875 
Q 18.109375 38.921875 18.109375 30.90625 
L 18.109375 0 
L 9.078125 0 
L 9.078125 54.6875 
L 18.109375 54.6875 
L 18.109375 46.1875 
Q 21.34375 51.125 25.703125 53.5625 
Q 30.078125 56 35.796875 56 
Q 45.21875 56 50.046875 50.171875 
Q 54.890625 44.34375 54.890625 33.015625 
z
" id="DejaVuSans-110"/>
        <path d="M 17.921875 72.90625 
L 17.921875 45.796875 
L 9.625 45.796875 
L 9.625 72.90625 
z
" id="DejaVuSans-39"/>
        <path d="M 44.28125 53.078125 
L 44.28125 44.578125 
Q 40.484375 46.53125 36.375 47.5 
Q 32.28125 48.484375 27.875 48.484375 
Q 21.1875 48.484375 17.84375 46.4375 
Q 14.5 44.390625 14.5 40.28125 
Q 14.5 37.15625 16.890625 35.375 
Q 19.28125 33.59375 26.515625 31.984375 
L 29.59375 31.296875 
Q 39.15625 29.25 43.1875 25.515625 
Q 47.21875 21.78125 47.21875 15.09375 
Q 47.21875 7.46875 41.1875 3.015625 
Q 35.15625 -1.421875 24.609375 -1.421875 
Q 20.21875 -1.421875 15.453125 -0.5625 
Q 10.6875 0.296875 5.421875 2 
L 5.421875 11.28125 
Q 10.40625 8.6875 15.234375 7.390625 
Q 20.0625 6.109375 24.8125 6.109375 
Q 31.15625 6.109375 34.5625 8.28125 
Q 37.984375 10.453125 37.984375 14.40625 
Q 37.984375 18.0625 35.515625 20.015625 
Q 33.0625 21.96875 24.703125 23.78125 
L 21.578125 24.515625 
Q 13.234375 26.265625 9.515625 29.90625 
Q 5.8125 33.546875 5.8125 39.890625 
Q 5.8125 47.609375 11.28125 51.796875 
Q 16.75 56 26.8125 56 
Q 31.78125 56 36.171875 55.265625 
Q 40.578125 54.546875 44.28125 53.078125 
z
" id="DejaVuSans-115"/>
       </defs>
       <use xlink:href="#DejaVuSans-83"/>
       <use x="63.476562" xlink:href="#DejaVuSans-116"/>
       <use x="102.685547" xlink:href="#DejaVuSans-101"/>
       <use x="164.208984" xlink:href="#DejaVuSans-105"/>
       <use x="191.992188" xlink:href="#DejaVuSans-110"/>
       <use x="255.371094" xlink:href="#DejaVuSans-39"/>
       <use x="282.861328" xlink:href="#DejaVuSans-115"/>
      </g>
     </g>
    </g>
    <g id="xtick_3">
     <g id="line2d_3">
      <g>
       <use style="stroke:#000000;stroke-width:0.8;" x="297.228461" xlink:href="#m787e12eee4" y="244.1"/>
      </g>
     </g>
     <g id="text_3">
      <!-- Entry-wise -->
      <g transform="translate(251.415375 264.397266)scale(0.175 -0.175)">
       <defs>
        <path d="M 9.8125 72.90625 
L 55.90625 72.90625 
L 55.90625 64.59375 
L 19.671875 64.59375 
L 19.671875 43.015625 
L 54.390625 43.015625 
L 54.390625 34.71875 
L 19.671875 34.71875 
L 19.671875 8.296875 
L 56.78125 8.296875 
L 56.78125 0 
L 9.8125 0 
z
" id="DejaVuSans-69"/>
        <path d="M 32.171875 -5.078125 
Q 28.375 -14.84375 24.75 -17.8125 
Q 21.140625 -20.796875 15.09375 -20.796875 
L 7.90625 -20.796875 
L 7.90625 -13.28125 
L 13.1875 -13.28125 
Q 16.890625 -13.28125 18.9375 -11.515625 
Q 21 -9.765625 23.484375 -3.21875 
L 25.09375 0.875 
L 2.984375 54.6875 
L 12.5 54.6875 
L 29.59375 11.921875 
L 46.6875 54.6875 
L 56.203125 54.6875 
z
" id="DejaVuSans-121"/>
        <path d="M 4.890625 31.390625 
L 31.203125 31.390625 
L 31.203125 23.390625 
L 4.890625 23.390625 
z
" id="DejaVuSans-45"/>
        <path d="M 4.203125 54.6875 
L 13.1875 54.6875 
L 24.421875 12.015625 
L 35.59375 54.6875 
L 46.1875 54.6875 
L 57.421875 12.015625 
L 68.609375 54.6875 
L 77.59375 54.6875 
L 63.28125 0 
L 52.6875 0 
L 40.921875 44.828125 
L 29.109375 0 
L 18.5 0 
z
" id="DejaVuSans-119"/>
       </defs>
       <use xlink:href="#DejaVuSans-69"/>
       <use x="63.183594" xlink:href="#DejaVuSans-110"/>
       <use x="126.5625" xlink:href="#DejaVuSans-116"/>
       <use x="165.771484" xlink:href="#DejaVuSans-114"/>
       <use x="206.884766" xlink:href="#DejaVuSans-121"/>
       <use x="264.314453" xlink:href="#DejaVuSans-45"/>
       <use x="300.398438" xlink:href="#DejaVuSans-119"/>
       <use x="382.185547" xlink:href="#DejaVuSans-105"/>
       <use x="409.96875" xlink:href="#DejaVuSans-115"/>
       <use x="462.068359" xlink:href="#DejaVuSans-101"/>
      </g>
     </g>
    </g>
   </g>
   <g id="matplotlib.axis_2">
    <g id="ytick_1">
     <g id="line2d_4">
      <defs>
       <path d="M 0 0 
L -3.5 0 
" id="ma7aefe11ae" style="stroke:#000000;stroke-width:0.8;"/>
      </defs>
      <g>
       <use style="stroke:#000000;stroke-width:0.8;" x="70.15" xlink:href="#ma7aefe11ae" y="226.215029"/>
      </g>
     </g>
     <g id="text_4">
      <!-- 2 -->
      <g transform="translate(52.015625 232.863662)scale(0.175 -0.175)">
       <defs>
        <path d="M 19.1875 8.296875 
L 53.609375 8.296875 
L 53.609375 0 
L 7.328125 0 
L 7.328125 8.296875 
Q 12.9375 14.109375 22.625 23.890625 
Q 32.328125 33.6875 34.8125 36.53125 
Q 39.546875 41.84375 41.421875 45.53125 
Q 43.3125 49.21875 43.3125 52.78125 
Q 43.3125 58.59375 39.234375 62.25 
Q 35.15625 65.921875 28.609375 65.921875 
Q 23.96875 65.921875 18.8125 64.3125 
Q 13.671875 62.703125 7.8125 59.421875 
L 7.8125 69.390625 
Q 13.765625 71.78125 18.9375 73 
Q 24.125 74.21875 28.421875 74.21875 
Q 39.75 74.21875 46.484375 68.546875 
Q 53.21875 62.890625 53.21875 53.421875 
Q 53.21875 48.921875 51.53125 44.890625 
Q 49.859375 40.875 45.40625 35.40625 
Q 44.1875 33.984375 37.640625 27.21875 
Q 31.109375 20.453125 19.1875 8.296875 
z
" id="DejaVuSans-50"/>
       </defs>
       <use xlink:href="#DejaVuSans-50"/>
      </g>
     </g>
    </g>
    <g id="ytick_2">
     <g id="line2d_5">
      <g>
       <use style="stroke:#000000;stroke-width:0.8;" x="70.15" xlink:href="#ma7aefe11ae" y="183.964311"/>
      </g>
     </g>
     <g id="text_5">
      <!-- 4 -->
      <g transform="translate(52.015625 190.612944)scale(0.175 -0.175)">
       <defs>
        <path d="M 37.796875 64.3125 
L 12.890625 25.390625 
L 37.796875 25.390625 
z
M 35.203125 72.90625 
L 47.609375 72.90625 
L 47.609375 25.390625 
L 58.015625 25.390625 
L 58.015625 17.1875 
L 47.609375 17.1875 
L 47.609375 0 
L 37.796875 0 
L 37.796875 17.1875 
L 4.890625 17.1875 
L 4.890625 26.703125 
z
" id="DejaVuSans-52"/>
       </defs>
       <use xlink:href="#DejaVuSans-52"/>
      </g>
     </g>
    </g>
    <g id="ytick_3">
     <g id="line2d_6">
      <g>
       <use style="stroke:#000000;stroke-width:0.8;" x="70.15" xlink:href="#ma7aefe11ae" y="141.713593"/>
      </g>
     </g>
     <g id="text_6">
      <!-- 6 -->
      <g transform="translate(52.015625 148.362225)scale(0.175 -0.175)">
       <defs>
        <path d="M 33.015625 40.375 
Q 26.375 40.375 22.484375 35.828125 
Q 18.609375 31.296875 18.609375 23.390625 
Q 18.609375 15.53125 22.484375 10.953125 
Q 26.375 6.390625 33.015625 6.390625 
Q 39.65625 6.390625 43.53125 10.953125 
Q 47.40625 15.53125 47.40625 23.390625 
Q 47.40625 31.296875 43.53125 35.828125 
Q 39.65625 40.375 33.015625 40.375 
z
M 52.59375 71.296875 
L 52.59375 62.3125 
Q 48.875 64.0625 45.09375 64.984375 
Q 41.3125 65.921875 37.59375 65.921875 
Q 27.828125 65.921875 22.671875 59.328125 
Q 17.53125 52.734375 16.796875 39.40625 
Q 19.671875 43.65625 24.015625 45.921875 
Q 28.375 48.1875 33.59375 48.1875 
Q 44.578125 48.1875 50.953125 41.515625 
Q 57.328125 34.859375 57.328125 23.390625 
Q 57.328125 12.15625 50.6875 5.359375 
Q 44.046875 -1.421875 33.015625 -1.421875 
Q 20.359375 -1.421875 13.671875 8.265625 
Q 6.984375 17.96875 6.984375 36.375 
Q 6.984375 53.65625 15.1875 63.9375 
Q 23.390625 74.21875 37.203125 74.21875 
Q 40.921875 74.21875 44.703125 73.484375 
Q 48.484375 72.75 52.59375 71.296875 
z
" id="DejaVuSans-54"/>
       </defs>
       <use xlink:href="#DejaVuSans-54"/>
      </g>
     </g>
    </g>
    <g id="ytick_4">
     <g id="line2d_7">
      <g>
       <use style="stroke:#000000;stroke-width:0.8;" x="70.15" xlink:href="#ma7aefe11ae" y="99.462874"/>
      </g>
     </g>
     <g id="text_7">
      <!-- 8 -->
      <g transform="translate(52.015625 106.111507)scale(0.175 -0.175)">
       <defs>
        <path d="M 31.78125 34.625 
Q 24.75 34.625 20.71875 30.859375 
Q 16.703125 27.09375 16.703125 20.515625 
Q 16.703125 13.921875 20.71875 10.15625 
Q 24.75 6.390625 31.78125 6.390625 
Q 38.8125 6.390625 42.859375 10.171875 
Q 46.921875 13.96875 46.921875 20.515625 
Q 46.921875 27.09375 42.890625 30.859375 
Q 38.875 34.625 31.78125 34.625 
z
M 21.921875 38.8125 
Q 15.578125 40.375 12.03125 44.71875 
Q 8.5 49.078125 8.5 55.328125 
Q 8.5 64.0625 14.71875 69.140625 
Q 20.953125 74.21875 31.78125 74.21875 
Q 42.671875 74.21875 48.875 69.140625 
Q 55.078125 64.0625 55.078125 55.328125 
Q 55.078125 49.078125 51.53125 44.71875 
Q 48 40.375 41.703125 38.8125 
Q 48.828125 37.15625 52.796875 32.3125 
Q 56.78125 27.484375 56.78125 20.515625 
Q 56.78125 9.90625 50.3125 4.234375 
Q 43.84375 -1.421875 31.78125 -1.421875 
Q 19.734375 -1.421875 13.25 4.234375 
Q 6.78125 9.90625 6.78125 20.515625 
Q 6.78125 27.484375 10.78125 32.3125 
Q 14.796875 37.15625 21.921875 38.8125 
z
M 18.3125 54.390625 
Q 18.3125 48.734375 21.84375 45.5625 
Q 25.390625 42.390625 31.78125 42.390625 
Q 38.140625 42.390625 41.71875 45.5625 
Q 45.3125 48.734375 45.3125 54.390625 
Q 45.3125 60.0625 41.71875 63.234375 
Q 38.140625 66.40625 31.78125 66.40625 
Q 25.390625 66.40625 21.84375 63.234375 
Q 18.3125 60.0625 18.3125 54.390625 
z
" id="DejaVuSans-56"/>
       </defs>
       <use xlink:href="#DejaVuSans-56"/>
      </g>
     </g>
    </g>
    <g id="ytick_5">
     <g id="line2d_8">
      <g>
       <use style="stroke:#000000;stroke-width:0.8;" x="70.15" xlink:href="#ma7aefe11ae" y="57.212156"/>
      </g>
     </g>
     <g id="text_8">
      <!-- 10 -->
      <g transform="translate(40.88125 63.860788)scale(0.175 -0.175)">
       <defs>
        <path d="M 12.40625 8.296875 
L 28.515625 8.296875 
L 28.515625 63.921875 
L 10.984375 60.40625 
L 10.984375 69.390625 
L 28.421875 72.90625 
L 38.28125 72.90625 
L 38.28125 8.296875 
L 54.390625 8.296875 
L 54.390625 0 
L 12.40625 0 
z
" id="DejaVuSans-49"/>
        <path d="M 31.78125 66.40625 
Q 24.171875 66.40625 20.328125 58.90625 
Q 16.5 51.421875 16.5 36.375 
Q 16.5 21.390625 20.328125 13.890625 
Q 24.171875 6.390625 31.78125 6.390625 
Q 39.453125 6.390625 43.28125 13.890625 
Q 47.125 21.390625 47.125 36.375 
Q 47.125 51.421875 43.28125 58.90625 
Q 39.453125 66.40625 31.78125 66.40625 
z
M 31.78125 74.21875 
Q 44.046875 74.21875 50.515625 64.515625 
Q 56.984375 54.828125 56.984375 36.375 
Q 56.984375 17.96875 50.515625 8.265625 
Q 44.046875 -1.421875 31.78125 -1.421875 
Q 19.53125 -1.421875 13.0625 8.265625 
Q 6.59375 17.96875 6.59375 36.375 
Q 6.59375 54.828125 13.0625 64.515625 
Q 19.53125 74.21875 31.78125 74.21875 
z
" id="DejaVuSans-48"/>
       </defs>
       <use xlink:href="#DejaVuSans-49"/>
       <use x="63.623047" xlink:href="#DejaVuSans-48"/>
      </g>
     </g>
    </g>
    <g id="text_9">
     <!-- Estimation Error -->
     <g transform="translate(33.241797 202.198633)rotate(-90)scale(0.175 -0.175)">
      <defs>
       <path d="M 52 44.1875 
Q 55.375 50.25 60.0625 53.125 
Q 64.75 56 71.09375 56 
Q 79.640625 56 84.28125 50.015625 
Q 88.921875 44.046875 88.921875 33.015625 
L 88.921875 0 
L 79.890625 0 
L 79.890625 32.71875 
Q 79.890625 40.578125 77.09375 44.375 
Q 74.3125 48.1875 68.609375 48.1875 
Q 61.625 48.1875 57.5625 43.546875 
Q 53.515625 38.921875 53.515625 30.90625 
L 53.515625 0 
L 44.484375 0 
L 44.484375 32.71875 
Q 44.484375 40.625 41.703125 44.40625 
Q 38.921875 48.1875 33.109375 48.1875 
Q 26.21875 48.1875 22.15625 43.53125 
Q 18.109375 38.875 18.109375 30.90625 
L 18.109375 0 
L 9.078125 0 
L 9.078125 54.6875 
L 18.109375 54.6875 
L 18.109375 46.1875 
Q 21.1875 51.21875 25.484375 53.609375 
Q 29.78125 56 35.6875 56 
Q 41.65625 56 45.828125 52.96875 
Q 50 49.953125 52 44.1875 
z
" id="DejaVuSans-109"/>
       <path d="M 34.28125 27.484375 
Q 23.390625 27.484375 19.1875 25 
Q 14.984375 22.515625 14.984375 16.5 
Q 14.984375 11.71875 18.140625 8.90625 
Q 21.296875 6.109375 26.703125 6.109375 
Q 34.1875 6.109375 38.703125 11.40625 
Q 43.21875 16.703125 43.21875 25.484375 
L 43.21875 27.484375 
z
M 52.203125 31.203125 
L 52.203125 0 
L 43.21875 0 
L 43.21875 8.296875 
Q 40.140625 3.328125 35.546875 0.953125 
Q 30.953125 -1.421875 24.3125 -1.421875 
Q 15.921875 -1.421875 10.953125 3.296875 
Q 6 8.015625 6 15.921875 
Q 6 25.140625 12.171875 29.828125 
Q 18.359375 34.515625 30.609375 34.515625 
L 43.21875 34.515625 
L 43.21875 35.40625 
Q 43.21875 41.609375 39.140625 45 
Q 35.0625 48.390625 27.6875 48.390625 
Q 23 48.390625 18.546875 47.265625 
Q 14.109375 46.140625 10.015625 43.890625 
L 10.015625 52.203125 
Q 14.9375 54.109375 19.578125 55.046875 
Q 24.21875 56 28.609375 56 
Q 40.484375 56 46.34375 49.84375 
Q 52.203125 43.703125 52.203125 31.203125 
z
" id="DejaVuSans-97"/>
      </defs>
      <use xlink:href="#DejaVuSans-69"/>
      <use x="63.183594" xlink:href="#DejaVuSans-115"/>
      <use x="115.283203" xlink:href="#DejaVuSans-116"/>
      <use x="154.492188" xlink:href="#DejaVuSans-105"/>
      <use x="182.275391" xlink:href="#DejaVuSans-109"/>
      <use x="279.6875" xlink:href="#DejaVuSans-97"/>
      <use x="340.966797" xlink:href="#DejaVuSans-116"/>
      <use x="380.175781" xlink:href="#DejaVuSans-105"/>
      <use x="407.958984" xlink:href="#DejaVuSans-111"/>
      <use x="469.140625" xlink:href="#DejaVuSans-110"/>
      <use x="532.519531" xlink:href="#DejaVuSans-32"/>
      <use x="564.306641" xlink:href="#DejaVuSans-69"/>
      <use x="627.490234" xlink:href="#DejaVuSans-114"/>
      <use x="666.853516" xlink:href="#DejaVuSans-114"/>
      <use x="705.716797" xlink:href="#DejaVuSans-111"/>
      <use x="766.898438" xlink:href="#DejaVuSans-114"/>
     </g>
    </g>
   </g>
   <g id="LineCollection_1">
    <path clip-path="url(#p621f208d86)" d="M 94.052996 198.059291 
L 117.955992 198.059291 
" style="fill:none;stroke:#1f77b4;stroke-width:1.5;"/>
    <path clip-path="url(#p621f208d86)" d="M 189.664979 29.136364 
L 213.567975 29.136364 
" style="fill:none;stroke:#1f77b4;stroke-width:1.5;"/>
    <path clip-path="url(#p621f208d86)" d="M 285.276963 177.314417 
L 309.179959 177.314417 
" style="fill:none;stroke:#1f77b4;stroke-width:1.5;"/>
   </g>
   <g id="LineCollection_2">
    <path clip-path="url(#p621f208d86)" d="M 94.052996 233.863636 
L 117.955992 233.863636 
" style="fill:none;stroke:#1f77b4;stroke-width:1.5;"/>
    <path clip-path="url(#p621f208d86)" d="M 189.664979 169.248607 
L 213.567975 169.248607 
" style="fill:none;stroke:#1f77b4;stroke-width:1.5;"/>
    <path clip-path="url(#p621f208d86)" d="M 285.276963 220.305183 
L 309.179959 220.305183 
" style="fill:none;stroke:#1f77b4;stroke-width:1.5;"/>
   </g>
   <g id="LineCollection_3">
    <path clip-path="url(#p621f208d86)" d="M 106.004494 233.863636 
L 106.004494 198.059291 
" style="fill:none;stroke:#1f77b4;stroke-width:1.5;"/>
    <path clip-path="url(#p621f208d86)" d="M 201.616477 169.248607 
L 201.616477 29.136364 
" style="fill:none;stroke:#1f77b4;stroke-width:1.5;"/>
    <path clip-path="url(#p621f208d86)" d="M 297.228461 220.305183 
L 297.228461 177.314417 
" style="fill:none;stroke:#1f77b4;stroke-width:1.5;"/>
   </g>
   <g id="patch_3">
    <path d="M 70.15 244.1 
L 70.15 18.9 
" style="fill:none;stroke:#000000;stroke-linecap:square;stroke-linejoin:miter;stroke-width:0.8;"/>
   </g>
   <g id="patch_4">
    <path d="M 333.082955 244.1 
L 333.082955 18.9 
" style="fill:none;stroke:#000000;stroke-linecap:square;stroke-linejoin:miter;stroke-width:0.8;"/>
   </g>
   <g id="patch_5">
    <path d="M 70.15 244.1 
L 333.082955 244.1 
" style="fill:none;stroke:#000000;stroke-linecap:square;stroke-linejoin:miter;stroke-width:0.8;"/>
   </g>
   <g id="patch_6">
    <path d="M 70.15 18.9 
L 333.082955 18.9 
" style="fill:none;stroke:#000000;stroke-linecap:square;stroke-linejoin:miter;stroke-width:0.8;"/>
   </g>
  </g>
 </g>
 <defs>
  <clipPath id="p621f208d86">
   <rect height="225.2" width="262.932955" x="70.15" y="18.9"/>
  </clipPath>
 </defs>
</svg>
