<?xml version="1.0" encoding="utf-8" standalone="no"?>
<!DOCTYPE svg PUBLIC "-//W3C//DTD SVG 1.1//EN"
  "http://www.w3.org/Graphics/SVG/1.1/DTD/svg11.dtd">
<!-- Created with matplotlib (https://matplotlib.org/) -->
<svg height="288pt" version="1.1" viewBox="0 0 360 288" width="360pt" xmlns="http://www.w3.org/2000/svg" xmlns:xlink="http://www.w3.org/1999/xlink">
 <metadata>
  <rdf:RDF xmlns:cc="http://creativecommons.org/ns#" xmlns:dc="http://purl.org/dc/elements/1.1/" xmlns:rdf="http://www.w3.org/1999/02/22-rdf-syntax-ns#">
   <cc:Work>
    <dc:type rdf:resource="http://purl.org/dc/dcmitype/StillImage"/>
    <dc:date>2022-09-25T00:48:13.379586</dc:date>
    <dc:format>image/svg+xml</dc:format>
    <dc:creator>
     <cc:Agent>
      <dc:title>Matplotlib v3.3.4, https://matplotlib.org/</dc:title>
     </cc:Agent>
    </dc:creator>
   </cc:Work>
  </rdf:RDF>
 </metadata>
 <defs>
  <style type="text/css">*{stroke-linecap:butt;stroke-linejoin:round;}</style>
 </defs>
 <g id="figure_1">
  <g id="patch_1">
   <path d="M 0 288 
L 360 288 
L 360 0 
L 0 0 
z
" style="fill:none;"/>
  </g>
  <g id="axes_1">
   <g id="patch_2">
    <path d="M 75.65 244.1 
L 333.082955 244.1 
L 333.082955 18.9 
L 75.65 18.9 
z
" style="fill:#ffffff;"/>
   </g>
   <g id="PolyCollection_1">
    <path clip-path="url(#pc0f3134151)" d="M 115.860813 233.863636 
L 105.648174 233.863636 
L 105.195552 233.510122 
L 104.713272 233.156608 
L 104.197839 232.803094 
L 103.64581 232.44958 
L 103.054096 232.096065 
L 102.420267 231.742551 
L 101.742869 231.389037 
L 101.021694 231.035523 
L 100.258011 230.682009 
L 99.454717 230.328494 
L 98.616398 229.97498 
L 97.749304 229.621466 
L 96.861222 229.267952 
L 95.961259 228.914437 
L 95.059556 228.560923 
L 94.166941 228.207409 
L 93.294542 227.853895 
L 92.453395 227.500381 
L 91.654052 227.146866 
L 90.906225 226.793352 
L 90.218465 226.439838 
L 89.59791 226.086324 
L 89.050086 225.73281 
L 88.578784 225.379295 
L 88.186006 225.025781 
L 87.871979 224.672267 
L 87.635228 224.318753 
L 87.472709 223.965239 
L 87.379996 223.611724 
L 87.351498 223.25821 
L 87.380715 222.904696 
L 87.460514 222.551182 
L 87.583413 222.197668 
L 87.74186 221.844153 
L 87.928503 221.490639 
L 88.136431 221.137125 
L 88.359375 220.783611 
L 88.591876 220.430097 
L 88.829391 220.076582 
L 89.068355 219.723068 
L 89.30619 219.369554 
L 89.541268 219.01604 
L 89.772833 218.662525 
L 90.000897 218.309011 
L 90.226118 217.955497 
L 90.449666 217.601983 
L 90.673094 217.248469 
L 90.898216 216.894954 
L 91.127 216.54144 
L 91.361482 216.187926 
L 91.603694 215.834412 
L 91.855606 215.480898 
L 92.11908 215.127383 
L 92.395834 214.773869 
L 92.687405 214.420355 
L 92.995111 214.066841 
L 93.320007 213.713327 
L 93.662844 213.359812 
L 94.024014 213.006298 
L 94.403504 212.652784 
L 94.800854 212.29927 
L 95.215115 211.945756 
L 95.644836 211.592241 
L 96.088059 211.238727 
L 96.542343 210.885213 
L 97.004815 210.531699 
L 97.472238 210.178185 
L 97.941114 209.82467 
L 98.407796 209.471156 
L 98.868621 209.117642 
L 99.320043 208.764128 
L 99.758766 208.410614 
L 100.181869 208.057099 
L 100.586914 207.703585 
L 100.972025 207.350071 
L 101.335947 206.996557 
L 101.678067 206.643042 
L 101.998414 206.289528 
L 102.297621 205.936014 
L 102.576872 205.5825 
L 102.837825 205.228986 
L 103.082522 204.875471 
L 103.313294 204.521957 
L 103.532663 204.168443 
L 103.743248 203.814929 
L 103.94768 203.461415 
L 104.148521 203.1079 
L 104.348199 202.754386 
L 104.548944 202.400872 
L 104.752747 202.047358 
L 104.961308 201.693844 
L 105.176008 201.340329 
L 105.397873 200.986815 
L 105.627553 200.633301 
L 105.865303 200.279787 
L 106.110973 199.926273 
L 106.364007 199.572758 
L 106.623454 199.219244 
L 106.887992 198.86573 
L 114.620996 198.86573 
L 114.620996 198.86573 
L 114.885534 199.219244 
L 115.14498 199.572758 
L 115.398014 199.926273 
L 115.643684 200.279787 
L 115.881435 200.633301 
L 116.111115 200.986815 
L 116.33298 201.340329 
L 116.547679 201.693844 
L 116.756241 202.047358 
L 116.960043 202.400872 
L 117.160789 202.754386 
L 117.360466 203.1079 
L 117.561308 203.461415 
L 117.76574 203.814929 
L 117.976325 204.168443 
L 118.195694 204.521957 
L 118.426465 204.875471 
L 118.671162 205.228986 
L 118.932116 205.5825 
L 119.211367 205.936014 
L 119.510574 206.289528 
L 119.83092 206.643042 
L 120.17304 206.996557 
L 120.536962 207.350071 
L 120.922073 207.703585 
L 121.327119 208.057099 
L 121.750222 208.410614 
L 122.188945 208.764128 
L 122.640366 209.117642 
L 123.101191 209.471156 
L 123.567874 209.82467 
L 124.03675 210.178185 
L 124.504173 210.531699 
L 124.966644 210.885213 
L 125.420929 211.238727 
L 125.864152 211.592241 
L 126.293873 211.945756 
L 126.708134 212.29927 
L 127.105483 212.652784 
L 127.484974 213.006298 
L 127.846144 213.359812 
L 128.18898 213.713327 
L 128.513877 214.066841 
L 128.821582 214.420355 
L 129.113154 214.773869 
L 129.389908 215.127383 
L 129.653382 215.480898 
L 129.905293 215.834412 
L 130.147505 216.187926 
L 130.381988 216.54144 
L 130.610772 216.894954 
L 130.835893 217.248469 
L 131.059321 217.601983 
L 131.28287 217.955497 
L 131.508091 218.309011 
L 131.736155 218.662525 
L 131.967719 219.01604 
L 132.202797 219.369554 
L 132.440633 219.723068 
L 132.679597 220.076582 
L 132.917112 220.430097 
L 133.149613 220.783611 
L 133.372557 221.137125 
L 133.580484 221.490639 
L 133.767127 221.844153 
L 133.925575 222.197668 
L 134.048473 222.551182 
L 134.128273 222.904696 
L 134.15749 223.25821 
L 134.128991 223.611724 
L 134.036278 223.965239 
L 133.87376 224.318753 
L 133.637009 224.672267 
L 133.322981 225.025781 
L 132.930204 225.379295 
L 132.458902 225.73281 
L 131.911077 226.086324 
L 131.290522 226.439838 
L 130.602763 226.793352 
L 129.854935 227.146866 
L 129.055593 227.500381 
L 128.214445 227.853895 
L 127.342047 228.207409 
L 126.449431 228.560923 
L 125.547729 228.914437 
L 124.647766 229.267952 
L 123.759684 229.621466 
L 122.89259 229.97498 
L 122.054271 230.328494 
L 121.250976 230.682009 
L 120.487294 231.035523 
L 119.766119 231.389037 
L 119.08872 231.742551 
L 118.454892 232.096065 
L 117.863177 232.44958 
L 117.311149 232.803094 
L 116.795715 233.156608 
L 116.313435 233.510122 
L 115.860813 233.863636 
z
" style="fill:#1f77b4;fill-opacity:0.3;"/>
   </g>
   <g id="PolyCollection_2">
    <path clip-path="url(#pc0f3134151)" d="M 206.042562 176.949117 
L 202.690392 176.949117 
L 202.370018 175.456058 
L 202.00173 173.963 
L 201.582979 172.469942 
L 201.112817 170.976884 
L 200.592172 169.483826 
L 200.023911 167.990768 
L 199.412658 166.49771 
L 198.764364 165.004652 
L 198.085673 163.511594 
L 197.38317 162.018535 
L 196.662627 160.525477 
L 195.92837 159.032419 
L 195.182879 157.539361 
L 194.426694 156.046303 
L 193.658653 154.553245 
L 192.87644 153.060187 
L 192.077347 151.567129 
L 191.259148 150.074071 
L 190.420942 148.581012 
L 189.563847 147.087954 
L 188.691465 145.594896 
L 187.810069 144.101838 
L 186.928516 142.60878 
L 186.057942 141.115722 
L 185.211288 139.622664 
L 184.402745 138.129606 
L 183.647158 136.636548 
L 182.959433 135.143489 
L 182.353965 133.650431 
L 181.844088 132.157373 
L 181.441568 130.664315 
L 181.156149 129.171257 
L 180.995199 127.678199 
L 180.963481 126.185141 
L 181.063093 124.692083 
L 181.293569 123.199025 
L 181.652123 121.705966 
L 182.133972 120.212908 
L 182.732658 118.71985 
L 183.440282 117.226792 
L 184.247611 115.733734 
L 185.144033 114.240676 
L 186.117405 112.747618 
L 187.153882 111.25456 
L 188.237824 109.761502 
L 189.351894 108.268443 
L 190.47741 106.775385 
L 191.594965 105.282327 
L 192.685284 103.789269 
L 193.730215 102.296211 
L 194.713734 100.803153 
L 195.622834 99.310095 
L 196.448192 97.817037 
L 197.184531 96.323979 
L 197.830665 94.83092 
L 198.389225 93.337862 
L 198.866134 91.844804 
L 199.26989 90.351746 
L 199.610735 88.858688 
L 199.899791 87.36563 
L 200.148221 85.872572 
L 200.366476 84.379514 
L 200.563678 82.886456 
L 200.747174 81.393397 
L 200.92229 79.900339 
L 201.092305 78.407281 
L 201.258626 76.914223 
L 201.421141 75.421165 
L 201.57871 73.928107 
L 201.729692 72.435049 
L 201.872472 70.941991 
L 202.00588 69.448933 
L 202.129477 67.955874 
L 202.243656 66.462816 
L 202.349587 64.969758 
L 202.44902 63.4767 
L 202.544006 61.983642 
L 202.636586 60.490584 
L 202.728513 58.997526 
L 202.821033 57.504468 
L 202.91475 56.01141 
L 203.009582 54.518352 
L 203.104792 53.025293 
L 203.199085 51.532235 
L 203.290747 50.039177 
L 203.377818 48.546119 
L 203.458285 47.053061 
L 203.530284 45.560003 
L 203.592302 44.066945 
L 203.643365 42.573887 
L 203.683183 41.080829 
L 203.712242 39.58777 
L 203.731819 38.094712 
L 203.743906 36.601654 
L 203.751044 35.108596 
L 203.75609 33.615538 
L 203.761928 32.12248 
L 203.771179 30.629422 
L 203.785934 29.136364 
L 204.947021 29.136364 
L 204.947021 29.136364 
L 204.961776 30.629422 
L 204.971027 32.12248 
L 204.976865 33.615538 
L 204.981911 35.108596 
L 204.989049 36.601654 
L 205.001135 38.094712 
L 205.020713 39.58777 
L 205.049772 41.080829 
L 205.08959 42.573887 
L 205.140652 44.066945 
L 205.202671 45.560003 
L 205.274669 47.053061 
L 205.355136 48.546119 
L 205.442208 50.039177 
L 205.53387 51.532235 
L 205.628163 53.025293 
L 205.723373 54.518352 
L 205.818204 56.01141 
L 205.911921 57.504468 
L 206.004441 58.997526 
L 206.096369 60.490584 
L 206.188949 61.983642 
L 206.283934 63.4767 
L 206.383367 64.969758 
L 206.489298 66.462816 
L 206.603477 67.955874 
L 206.727074 69.448933 
L 206.860483 70.941991 
L 207.003263 72.435049 
L 207.154245 73.928107 
L 207.311813 75.421165 
L 207.474329 76.914223 
L 207.640649 78.407281 
L 207.810664 79.900339 
L 207.985781 81.393397 
L 208.169276 82.886456 
L 208.366478 84.379514 
L 208.584733 85.872572 
L 208.833163 87.36563 
L 209.122219 88.858688 
L 209.463065 90.351746 
L 209.866821 91.844804 
L 210.34373 93.337862 
L 210.90229 94.83092 
L 211.548424 96.323979 
L 212.284763 97.817037 
L 213.110121 99.310095 
L 214.019221 100.803153 
L 215.002739 102.296211 
L 216.047671 103.789269 
L 217.13799 105.282327 
L 218.255545 106.775385 
L 219.38106 108.268443 
L 220.49513 109.761502 
L 221.579072 111.25456 
L 222.615549 112.747618 
L 223.588921 114.240676 
L 224.485343 115.733734 
L 225.292673 117.226792 
L 226.000296 118.71985 
L 226.598982 120.212908 
L 227.080832 121.705966 
L 227.439386 123.199025 
L 227.669861 124.692083 
L 227.769473 126.185141 
L 227.737755 127.678199 
L 227.576805 129.171257 
L 227.291387 130.664315 
L 226.888866 132.157373 
L 226.37899 133.650431 
L 225.773521 135.143489 
L 225.085797 136.636548 
L 224.330209 138.129606 
L 223.521667 139.622664 
L 222.675013 141.115722 
L 221.804438 142.60878 
L 220.922886 144.101838 
L 220.04149 145.594896 
L 219.169108 147.087954 
L 218.312013 148.581012 
L 217.473806 150.074071 
L 216.655608 151.567129 
L 215.856515 153.060187 
L 215.074301 154.553245 
L 214.30626 156.046303 
L 213.550075 157.539361 
L 212.804585 159.032419 
L 212.070328 160.525477 
L 211.349785 162.018535 
L 210.647281 163.511594 
L 209.96859 165.004652 
L 209.320296 166.49771 
L 208.709044 167.990768 
L 208.140783 169.483826 
L 207.620137 170.976884 
L 207.149975 172.469942 
L 206.731224 173.963 
L 206.362936 175.456058 
L 206.042562 176.949117 
z
" style="fill:#1f77b4;fill-opacity:0.3;"/>
   </g>
   <g id="PolyCollection_3">
    <path clip-path="url(#pc0f3134151)" d="M 299.086027 231.56159 
L 296.870894 231.56159 
L 296.739456 231.178167 
L 296.592514 230.794743 
L 296.427608 230.411319 
L 296.242544 230.027896 
L 296.03562 229.644472 
L 295.805783 229.261048 
L 295.552698 228.877625 
L 295.276692 228.494201 
L 294.978577 228.110777 
L 294.659355 227.727354 
L 294.319853 227.34393 
L 293.960329 226.960507 
L 293.580133 226.577083 
L 293.17746 226.193659 
L 292.749282 225.810236 
L 292.291469 225.426812 
L 291.79912 225.043388 
L 291.267084 224.659965 
L 290.690604 224.276541 
L 290.066031 223.893117 
L 289.391489 223.509694 
L 288.667425 223.12627 
L 287.896942 222.742846 
L 287.085875 222.359423 
L 286.242573 221.975999 
L 285.377421 221.592576 
L 284.502136 221.209152 
L 283.628934 220.825728 
L 282.769675 220.442305 
L 281.935079 220.058881 
L 281.134112 219.675457 
L 280.373628 219.292034 
L 279.658261 218.90861 
L 278.990589 218.525186 
L 278.371509 218.141763 
L 277.800737 217.758339 
L 277.277356 217.374915 
L 276.800317 216.991492 
L 276.368815 216.608068 
L 275.982514 216.224645 
L 275.641585 215.841221 
L 275.346614 215.457797 
L 275.098398 215.074374 
L 274.897715 214.69095 
L 274.745106 214.307526 
L 274.640744 213.924103 
L 274.58439 213.540679 
L 274.575465 213.157255 
L 274.613203 212.773832 
L 274.69686 212.390408 
L 274.825932 212.006984 
L 275.000359 211.623561 
L 275.220658 211.240137 
L 275.487982 210.856714 
L 275.804095 210.47329 
L 276.17124 210.089866 
L 276.591927 209.706443 
L 277.068631 209.323019 
L 277.603427 208.939595 
L 278.19756 208.556172 
L 278.851002 208.172748 
L 279.562008 207.789324 
L 280.326752 207.405901 
L 281.139068 207.022477 
L 281.990372 206.639053 
L 282.869804 206.25563 
L 283.764611 205.872206 
L 284.660761 205.488783 
L 285.543747 205.105359 
L 286.399501 204.721935 
L 287.215322 204.338512 
L 287.98071 203.955088 
L 288.688004 203.571664 
L 289.332754 203.188241 
L 289.913796 202.804817 
L 290.433025 202.421393 
L 290.894924 202.03797 
L 291.30591 201.654546 
L 291.673605 201.271122 
L 292.00611 200.887699 
L 292.311356 200.504275 
L 292.596599 200.120852 
L 292.868065 199.737428 
L 293.130755 199.354004 
L 293.388386 198.970581 
L 293.643441 198.587157 
L 293.897283 198.203733 
L 294.150322 197.82031 
L 294.402192 197.436886 
L 294.65194 197.053462 
L 294.898214 196.670039 
L 295.139439 196.286615 
L 295.373983 195.903191 
L 295.600305 195.519768 
L 295.817067 195.136344 
L 296.023221 194.75292 
L 296.218046 194.369497 
L 296.401146 193.986073 
L 296.572413 193.60265 
L 299.384509 193.60265 
L 299.384509 193.60265 
L 299.555776 193.986073 
L 299.738876 194.369497 
L 299.9337 194.75292 
L 300.139854 195.136344 
L 300.356616 195.519768 
L 300.582938 195.903191 
L 300.817483 196.286615 
L 301.058707 196.670039 
L 301.304981 197.053462 
L 301.554729 197.436886 
L 301.806599 197.82031 
L 302.059638 198.203733 
L 302.313481 198.587157 
L 302.568536 198.970581 
L 302.826167 199.354004 
L 303.088857 199.737428 
L 303.360323 200.120852 
L 303.645566 200.504275 
L 303.950812 200.887699 
L 304.283316 201.271122 
L 304.651011 201.654546 
L 305.061997 202.03797 
L 305.523896 202.421393 
L 306.043126 202.804817 
L 306.624168 203.188241 
L 307.268918 203.571664 
L 307.976211 203.955088 
L 308.741599 204.338512 
L 309.557421 204.721935 
L 310.413174 205.105359 
L 311.29616 205.488783 
L 312.19231 205.872206 
L 313.087117 206.25563 
L 313.966549 206.639053 
L 314.817853 207.022477 
L 315.630169 207.405901 
L 316.394913 207.789324 
L 317.10592 208.172748 
L 317.759361 208.556172 
L 318.353494 208.939595 
L 318.88829 209.323019 
L 319.364995 209.706443 
L 319.785681 210.089866 
L 320.152826 210.47329 
L 320.468939 210.856714 
L 320.736264 211.240137 
L 320.956562 211.623561 
L 321.130989 212.006984 
L 321.260062 212.390408 
L 321.343718 212.773832 
L 321.381457 213.157255 
L 321.372532 213.540679 
L 321.316178 213.924103 
L 321.211815 214.307526 
L 321.059206 214.69095 
L 320.858523 215.074374 
L 320.610308 215.457797 
L 320.315337 215.841221 
L 319.974408 216.224645 
L 319.588106 216.608068 
L 319.156605 216.991492 
L 318.679565 217.374915 
L 318.156184 217.758339 
L 317.585412 218.141763 
L 316.966332 218.525186 
L 316.298661 218.90861 
L 315.583293 219.292034 
L 314.822809 219.675457 
L 314.021843 220.058881 
L 313.187246 220.442305 
L 312.327987 220.825728 
L 311.454786 221.209152 
L 310.5795 221.592576 
L 309.714348 221.975999 
L 308.871047 222.359423 
L 308.059979 222.742846 
L 307.289496 223.12627 
L 306.565432 223.509694 
L 305.890891 223.893117 
L 305.266317 224.276541 
L 304.689838 224.659965 
L 304.157801 225.043388 
L 303.665452 225.426812 
L 303.207639 225.810236 
L 302.779461 226.193659 
L 302.376789 226.577083 
L 301.996592 226.960507 
L 301.637069 227.34393 
L 301.297566 227.727354 
L 300.978344 228.110777 
L 300.68023 228.494201 
L 300.404224 228.877625 
L 300.151138 229.261048 
L 299.921301 229.644472 
L 299.714377 230.027896 
L 299.529314 230.411319 
L 299.364407 230.794743 
L 299.217465 231.178167 
L 299.086027 231.56159 
z
" style="fill:#1f77b4;fill-opacity:0.3;"/>
   </g>
   <g id="matplotlib.axis_1">
    <g id="xtick_1">
     <g id="line2d_1">
      <defs>
       <path d="M 0 0 
L 0 3.5 
" id="m08d888f683" style="stroke:#000000;stroke-width:0.8;"/>
      </defs>
      <g>
       <use style="stroke:#000000;stroke-width:0.8;" x="110.754494" xlink:href="#m08d888f683" y="244.1"/>
      </g>
     </g>
     <g id="text_1">
      <!-- Our Method -->
      <g transform="translate(59.125392 264.397266)scale(0.175 -0.175)">
       <defs>
        <path d="M 39.40625 66.21875 
Q 28.65625 66.21875 22.328125 58.203125 
Q 16.015625 50.203125 16.015625 36.375 
Q 16.015625 22.609375 22.328125 14.59375 
Q 28.65625 6.59375 39.40625 6.59375 
Q 50.140625 6.59375 56.421875 14.59375 
Q 62.703125 22.609375 62.703125 36.375 
Q 62.703125 50.203125 56.421875 58.203125 
Q 50.140625 66.21875 39.40625 66.21875 
z
M 39.40625 74.21875 
Q 54.734375 74.21875 63.90625 63.9375 
Q 73.09375 53.65625 73.09375 36.375 
Q 73.09375 19.140625 63.90625 8.859375 
Q 54.734375 -1.421875 39.40625 -1.421875 
Q 24.03125 -1.421875 14.8125 8.828125 
Q 5.609375 19.09375 5.609375 36.375 
Q 5.609375 53.65625 14.8125 63.9375 
Q 24.03125 74.21875 39.40625 74.21875 
z
" id="DejaVuSans-79"/>
        <path d="M 8.5 21.578125 
L 8.5 54.6875 
L 17.484375 54.6875 
L 17.484375 21.921875 
Q 17.484375 14.15625 20.5 10.265625 
Q 23.53125 6.390625 29.59375 6.390625 
Q 36.859375 6.390625 41.078125 11.03125 
Q 45.3125 15.671875 45.3125 23.6875 
L 45.3125 54.6875 
L 54.296875 54.6875 
L 54.296875 0 
L 45.3125 0 
L 45.3125 8.40625 
Q 42.046875 3.421875 37.71875 1 
Q 33.40625 -1.421875 27.6875 -1.421875 
Q 18.265625 -1.421875 13.375 4.4375 
Q 8.5 10.296875 8.5 21.578125 
z
M 31.109375 56 
z
" id="DejaVuSans-117"/>
        <path d="M 41.109375 46.296875 
Q 39.59375 47.171875 37.8125 47.578125 
Q 36.03125 48 33.890625 48 
Q 26.265625 48 22.1875 43.046875 
Q 18.109375 38.09375 18.109375 28.8125 
L 18.109375 0 
L 9.078125 0 
L 9.078125 54.6875 
L 18.109375 54.6875 
L 18.109375 46.1875 
Q 20.953125 51.171875 25.484375 53.578125 
Q 30.03125 56 36.53125 56 
Q 37.453125 56 38.578125 55.875 
Q 39.703125 55.765625 41.0625 55.515625 
z
" id="DejaVuSans-114"/>
        <path id="DejaVuSans-32"/>
        <path d="M 9.8125 72.90625 
L 24.515625 72.90625 
L 43.109375 23.296875 
L 61.8125 72.90625 
L 76.515625 72.90625 
L 76.515625 0 
L 66.890625 0 
L 66.890625 64.015625 
L 48.09375 14.015625 
L 38.1875 14.015625 
L 19.390625 64.015625 
L 19.390625 0 
L 9.8125 0 
z
" id="DejaVuSans-77"/>
        <path d="M 56.203125 29.59375 
L 56.203125 25.203125 
L 14.890625 25.203125 
Q 15.484375 15.921875 20.484375 11.0625 
Q 25.484375 6.203125 34.421875 6.203125 
Q 39.59375 6.203125 44.453125 7.46875 
Q 49.3125 8.734375 54.109375 11.28125 
L 54.109375 2.78125 
Q 49.265625 0.734375 44.1875 -0.34375 
Q 39.109375 -1.421875 33.890625 -1.421875 
Q 20.796875 -1.421875 13.15625 6.1875 
Q 5.515625 13.8125 5.515625 26.8125 
Q 5.515625 40.234375 12.765625 48.109375 
Q 20.015625 56 32.328125 56 
Q 43.359375 56 49.78125 48.890625 
Q 56.203125 41.796875 56.203125 29.59375 
z
M 47.21875 32.234375 
Q 47.125 39.59375 43.09375 43.984375 
Q 39.0625 48.390625 32.421875 48.390625 
Q 24.90625 48.390625 20.390625 44.140625 
Q 15.875 39.890625 15.1875 32.171875 
z
" id="DejaVuSans-101"/>
        <path d="M 18.3125 70.21875 
L 18.3125 54.6875 
L 36.8125 54.6875 
L 36.8125 47.703125 
L 18.3125 47.703125 
L 18.3125 18.015625 
Q 18.3125 11.328125 20.140625 9.421875 
Q 21.96875 7.515625 27.59375 7.515625 
L 36.8125 7.515625 
L 36.8125 0 
L 27.59375 0 
Q 17.1875 0 13.234375 3.875 
Q 9.28125 7.765625 9.28125 18.015625 
L 9.28125 47.703125 
L 2.6875 47.703125 
L 2.6875 54.6875 
L 9.28125 54.6875 
L 9.28125 70.21875 
z
" id="DejaVuSans-116"/>
        <path d="M 54.890625 33.015625 
L 54.890625 0 
L 45.90625 0 
L 45.90625 32.71875 
Q 45.90625 40.484375 42.875 44.328125 
Q 39.84375 48.1875 33.796875 48.1875 
Q 26.515625 48.1875 22.3125 43.546875 
Q 18.109375 38.921875 18.109375 30.90625 
L 18.109375 0 
L 9.078125 0 
L 9.078125 75.984375 
L 18.109375 75.984375 
L 18.109375 46.1875 
Q 21.34375 51.125 25.703125 53.5625 
Q 30.078125 56 35.796875 56 
Q 45.21875 56 50.046875 50.171875 
Q 54.890625 44.34375 54.890625 33.015625 
z
" id="DejaVuSans-104"/>
        <path d="M 30.609375 48.390625 
Q 23.390625 48.390625 19.1875 42.75 
Q 14.984375 37.109375 14.984375 27.296875 
Q 14.984375 17.484375 19.15625 11.84375 
Q 23.34375 6.203125 30.609375 6.203125 
Q 37.796875 6.203125 41.984375 11.859375 
Q 46.1875 17.53125 46.1875 27.296875 
Q 46.1875 37.015625 41.984375 42.703125 
Q 37.796875 48.390625 30.609375 48.390625 
z
M 30.609375 56 
Q 42.328125 56 49.015625 48.375 
Q 55.71875 40.765625 55.71875 27.296875 
Q 55.71875 13.875 49.015625 6.21875 
Q 42.328125 -1.421875 30.609375 -1.421875 
Q 18.84375 -1.421875 12.171875 6.21875 
Q 5.515625 13.875 5.515625 27.296875 
Q 5.515625 40.765625 12.171875 48.375 
Q 18.84375 56 30.609375 56 
z
" id="DejaVuSans-111"/>
        <path d="M 45.40625 46.390625 
L 45.40625 75.984375 
L 54.390625 75.984375 
L 54.390625 0 
L 45.40625 0 
L 45.40625 8.203125 
Q 42.578125 3.328125 38.25 0.953125 
Q 33.9375 -1.421875 27.875 -1.421875 
Q 17.96875 -1.421875 11.734375 6.484375 
Q 5.515625 14.40625 5.515625 27.296875 
Q 5.515625 40.1875 11.734375 48.09375 
Q 17.96875 56 27.875 56 
Q 33.9375 56 38.25 53.625 
Q 42.578125 51.265625 45.40625 46.390625 
z
M 14.796875 27.296875 
Q 14.796875 17.390625 18.875 11.75 
Q 22.953125 6.109375 30.078125 6.109375 
Q 37.203125 6.109375 41.296875 11.75 
Q 45.40625 17.390625 45.40625 27.296875 
Q 45.40625 37.203125 41.296875 42.84375 
Q 37.203125 48.484375 30.078125 48.484375 
Q 22.953125 48.484375 18.875 42.84375 
Q 14.796875 37.203125 14.796875 27.296875 
z
" id="DejaVuSans-100"/>
       </defs>
       <use xlink:href="#DejaVuSans-79"/>
       <use x="78.710938" xlink:href="#DejaVuSans-117"/>
       <use x="142.089844" xlink:href="#DejaVuSans-114"/>
       <use x="183.203125" xlink:href="#DejaVuSans-32"/>
       <use x="214.990234" xlink:href="#DejaVuSans-77"/>
       <use x="301.269531" xlink:href="#DejaVuSans-101"/>
       <use x="362.792969" xlink:href="#DejaVuSans-116"/>
       <use x="402.001953" xlink:href="#DejaVuSans-104"/>
       <use x="465.380859" xlink:href="#DejaVuSans-111"/>
       <use x="526.5625" xlink:href="#DejaVuSans-100"/>
      </g>
     </g>
    </g>
    <g id="xtick_2">
     <g id="line2d_2">
      <g>
       <use style="stroke:#000000;stroke-width:0.8;" x="204.366477" xlink:href="#m08d888f683" y="244.1"/>
      </g>
     </g>
     <g id="text_2">
      <!-- Stein's -->
      <g transform="translate(175.058079 264.397266)scale(0.175 -0.175)">
       <defs>
        <path d="M 53.515625 70.515625 
L 53.515625 60.890625 
Q 47.90625 63.578125 42.921875 64.890625 
Q 37.9375 66.21875 33.296875 66.21875 
Q 25.25 66.21875 20.875 63.09375 
Q 16.5 59.96875 16.5 54.203125 
Q 16.5 49.359375 19.40625 46.890625 
Q 22.3125 44.4375 30.421875 42.921875 
L 36.375 41.703125 
Q 47.40625 39.59375 52.65625 34.296875 
Q 57.90625 29 57.90625 20.125 
Q 57.90625 9.515625 50.796875 4.046875 
Q 43.703125 -1.421875 29.984375 -1.421875 
Q 24.8125 -1.421875 18.96875 -0.25 
Q 13.140625 0.921875 6.890625 3.21875 
L 6.890625 13.375 
Q 12.890625 10.015625 18.65625 8.296875 
Q 24.421875 6.59375 29.984375 6.59375 
Q 38.421875 6.59375 43.015625 9.90625 
Q 47.609375 13.234375 47.609375 19.390625 
Q 47.609375 24.75 44.3125 27.78125 
Q 41.015625 30.8125 33.5 32.328125 
L 27.484375 33.5 
Q 16.453125 35.6875 11.515625 40.375 
Q 6.59375 45.0625 6.59375 53.421875 
Q 6.59375 63.09375 13.40625 68.65625 
Q 20.21875 74.21875 32.171875 74.21875 
Q 37.3125 74.21875 42.625 73.28125 
Q 47.953125 72.359375 53.515625 70.515625 
z
" id="DejaVuSans-83"/>
        <path d="M 9.421875 54.6875 
L 18.40625 54.6875 
L 18.40625 0 
L 9.421875 0 
z
M 9.421875 75.984375 
L 18.40625 75.984375 
L 18.40625 64.59375 
L 9.421875 64.59375 
z
" id="DejaVuSans-105"/>
        <path d="M 54.890625 33.015625 
L 54.890625 0 
L 45.90625 0 
L 45.90625 32.71875 
Q 45.90625 40.484375 42.875 44.328125 
Q 39.84375 48.1875 33.796875 48.1875 
Q 26.515625 48.1875 22.3125 43.546875 
Q 18.109375 38.921875 18.109375 30.90625 
L 18.109375 0 
L 9.078125 0 
L 9.078125 54.6875 
L 18.109375 54.6875 
L 18.109375 46.1875 
Q 21.34375 51.125 25.703125 53.5625 
Q 30.078125 56 35.796875 56 
Q 45.21875 56 50.046875 50.171875 
Q 54.890625 44.34375 54.890625 33.015625 
z
" id="DejaVuSans-110"/>
        <path d="M 17.921875 72.90625 
L 17.921875 45.796875 
L 9.625 45.796875 
L 9.625 72.90625 
z
" id="DejaVuSans-39"/>
        <path d="M 44.28125 53.078125 
L 44.28125 44.578125 
Q 40.484375 46.53125 36.375 47.5 
Q 32.28125 48.484375 27.875 48.484375 
Q 21.1875 48.484375 17.84375 46.4375 
Q 14.5 44.390625 14.5 40.28125 
Q 14.5 37.15625 16.890625 35.375 
Q 19.28125 33.59375 26.515625 31.984375 
L 29.59375 31.296875 
Q 39.15625 29.25 43.1875 25.515625 
Q 47.21875 21.78125 47.21875 15.09375 
Q 47.21875 7.46875 41.1875 3.015625 
Q 35.15625 -1.421875 24.609375 -1.421875 
Q 20.21875 -1.421875 15.453125 -0.5625 
Q 10.6875 0.296875 5.421875 2 
L 5.421875 11.28125 
Q 10.40625 8.6875 15.234375 7.390625 
Q 20.0625 6.109375 24.8125 6.109375 
Q 31.15625 6.109375 34.5625 8.28125 
Q 37.984375 10.453125 37.984375 14.40625 
Q 37.984375 18.0625 35.515625 20.015625 
Q 33.0625 21.96875 24.703125 23.78125 
L 21.578125 24.515625 
Q 13.234375 26.265625 9.515625 29.90625 
Q 5.8125 33.546875 5.8125 39.890625 
Q 5.8125 47.609375 11.28125 51.796875 
Q 16.75 56 26.8125 56 
Q 31.78125 56 36.171875 55.265625 
Q 40.578125 54.546875 44.28125 53.078125 
z
" id="DejaVuSans-115"/>
       </defs>
       <use xlink:href="#DejaVuSans-83"/>
       <use x="63.476562" xlink:href="#DejaVuSans-116"/>
       <use x="102.685547" xlink:href="#DejaVuSans-101"/>
       <use x="164.208984" xlink:href="#DejaVuSans-105"/>
       <use x="191.992188" xlink:href="#DejaVuSans-110"/>
       <use x="255.371094" xlink:href="#DejaVuSans-39"/>
       <use x="282.861328" xlink:href="#DejaVuSans-115"/>
      </g>
     </g>
    </g>
    <g id="xtick_3">
     <g id="line2d_3">
      <g>
       <use style="stroke:#000000;stroke-width:0.8;" x="297.978461" xlink:href="#m08d888f683" y="244.1"/>
      </g>
     </g>
     <g id="text_3">
      <!-- Entry-wise -->
      <g transform="translate(252.165375 264.397266)scale(0.175 -0.175)">
       <defs>
        <path d="M 9.8125 72.90625 
L 55.90625 72.90625 
L 55.90625 64.59375 
L 19.671875 64.59375 
L 19.671875 43.015625 
L 54.390625 43.015625 
L 54.390625 34.71875 
L 19.671875 34.71875 
L 19.671875 8.296875 
L 56.78125 8.296875 
L 56.78125 0 
L 9.8125 0 
z
" id="DejaVuSans-69"/>
        <path d="M 32.171875 -5.078125 
Q 28.375 -14.84375 24.75 -17.8125 
Q 21.140625 -20.796875 15.09375 -20.796875 
L 7.90625 -20.796875 
L 7.90625 -13.28125 
L 13.1875 -13.28125 
Q 16.890625 -13.28125 18.9375 -11.515625 
Q 21 -9.765625 23.484375 -3.21875 
L 25.09375 0.875 
L 2.984375 54.6875 
L 12.5 54.6875 
L 29.59375 11.921875 
L 46.6875 54.6875 
L 56.203125 54.6875 
z
" id="DejaVuSans-121"/>
        <path d="M 4.890625 31.390625 
L 31.203125 31.390625 
L 31.203125 23.390625 
L 4.890625 23.390625 
z
" id="DejaVuSans-45"/>
        <path d="M 4.203125 54.6875 
L 13.1875 54.6875 
L 24.421875 12.015625 
L 35.59375 54.6875 
L 46.1875 54.6875 
L 57.421875 12.015625 
L 68.609375 54.6875 
L 77.59375 54.6875 
L 63.28125 0 
L 52.6875 0 
L 40.921875 44.828125 
L 29.109375 0 
L 18.5 0 
z
" id="DejaVuSans-119"/>
       </defs>
       <use xlink:href="#DejaVuSans-69"/>
       <use x="63.183594" xlink:href="#DejaVuSans-110"/>
       <use x="126.5625" xlink:href="#DejaVuSans-116"/>
       <use x="165.771484" xlink:href="#DejaVuSans-114"/>
       <use x="206.884766" xlink:href="#DejaVuSans-121"/>
       <use x="264.314453" xlink:href="#DejaVuSans-45"/>
       <use x="300.398438" xlink:href="#DejaVuSans-119"/>
       <use x="382.185547" xlink:href="#DejaVuSans-105"/>
       <use x="409.96875" xlink:href="#DejaVuSans-115"/>
       <use x="462.068359" xlink:href="#DejaVuSans-101"/>
      </g>
     </g>
    </g>
   </g>
   <g id="matplotlib.axis_2">
    <g id="ytick_1">
     <g id="line2d_4">
      <defs>
       <path d="M 0 0 
L -3.5 0 
" id="m4e5d732482" style="stroke:#000000;stroke-width:0.8;"/>
      </defs>
      <g>
       <use style="stroke:#000000;stroke-width:0.8;" x="75.65" xlink:href="#m4e5d732482" y="235.799532"/>
      </g>
     </g>
     <g id="text_4">
      <!-- 0.5 -->
      <g transform="translate(40.819531 242.448165)scale(0.175 -0.175)">
       <defs>
        <path d="M 31.78125 66.40625 
Q 24.171875 66.40625 20.328125 58.90625 
Q 16.5 51.421875 16.5 36.375 
Q 16.5 21.390625 20.328125 13.890625 
Q 24.171875 6.390625 31.78125 6.390625 
Q 39.453125 6.390625 43.28125 13.890625 
Q 47.125 21.390625 47.125 36.375 
Q 47.125 51.421875 43.28125 58.90625 
Q 39.453125 66.40625 31.78125 66.40625 
z
M 31.78125 74.21875 
Q 44.046875 74.21875 50.515625 64.515625 
Q 56.984375 54.828125 56.984375 36.375 
Q 56.984375 17.96875 50.515625 8.265625 
Q 44.046875 -1.421875 31.78125 -1.421875 
Q 19.53125 -1.421875 13.0625 8.265625 
Q 6.59375 17.96875 6.59375 36.375 
Q 6.59375 54.828125 13.0625 64.515625 
Q 19.53125 74.21875 31.78125 74.21875 
z
" id="DejaVuSans-48"/>
        <path d="M 10.6875 12.40625 
L 21 12.40625 
L 21 0 
L 10.6875 0 
z
" id="DejaVuSans-46"/>
        <path d="M 10.796875 72.90625 
L 49.515625 72.90625 
L 49.515625 64.59375 
L 19.828125 64.59375 
L 19.828125 46.734375 
Q 21.96875 47.46875 24.109375 47.828125 
Q 26.265625 48.1875 28.421875 48.1875 
Q 40.625 48.1875 47.75 41.5 
Q 54.890625 34.8125 54.890625 23.390625 
Q 54.890625 11.625 47.5625 5.09375 
Q 40.234375 -1.421875 26.90625 -1.421875 
Q 22.3125 -1.421875 17.546875 -0.640625 
Q 12.796875 0.140625 7.71875 1.703125 
L 7.71875 11.625 
Q 12.109375 9.234375 16.796875 8.0625 
Q 21.484375 6.890625 26.703125 6.890625 
Q 35.15625 6.890625 40.078125 11.328125 
Q 45.015625 15.765625 45.015625 23.390625 
Q 45.015625 31 40.078125 35.4375 
Q 35.15625 39.890625 26.703125 39.890625 
Q 22.75 39.890625 18.8125 39.015625 
Q 14.890625 38.140625 10.796875 36.28125 
z
" id="DejaVuSans-53"/>
       </defs>
       <use xlink:href="#DejaVuSans-48"/>
       <use x="63.623047" xlink:href="#DejaVuSans-46"/>
       <use x="95.410156" xlink:href="#DejaVuSans-53"/>
      </g>
     </g>
    </g>
    <g id="ytick_2">
     <g id="line2d_5">
      <g>
       <use style="stroke:#000000;stroke-width:0.8;" x="75.65" xlink:href="#m4e5d732482" y="197.747924"/>
      </g>
     </g>
     <g id="text_5">
      <!-- 1.0 -->
      <g transform="translate(40.819531 204.396557)scale(0.175 -0.175)">
       <defs>
        <path d="M 12.40625 8.296875 
L 28.515625 8.296875 
L 28.515625 63.921875 
L 10.984375 60.40625 
L 10.984375 69.390625 
L 28.421875 72.90625 
L 38.28125 72.90625 
L 38.28125 8.296875 
L 54.390625 8.296875 
L 54.390625 0 
L 12.40625 0 
z
" id="DejaVuSans-49"/>
       </defs>
       <use xlink:href="#DejaVuSans-49"/>
       <use x="63.623047" xlink:href="#DejaVuSans-46"/>
       <use x="95.410156" xlink:href="#DejaVuSans-48"/>
      </g>
     </g>
    </g>
    <g id="ytick_3">
     <g id="line2d_6">
      <g>
       <use style="stroke:#000000;stroke-width:0.8;" x="75.65" xlink:href="#m4e5d732482" y="159.696317"/>
      </g>
     </g>
     <g id="text_6">
      <!-- 1.5 -->
      <g transform="translate(40.819531 166.344949)scale(0.175 -0.175)">
       <use xlink:href="#DejaVuSans-49"/>
       <use x="63.623047" xlink:href="#DejaVuSans-46"/>
       <use x="95.410156" xlink:href="#DejaVuSans-53"/>
      </g>
     </g>
    </g>
    <g id="ytick_4">
     <g id="line2d_7">
      <g>
       <use style="stroke:#000000;stroke-width:0.8;" x="75.65" xlink:href="#m4e5d732482" y="121.644709"/>
      </g>
     </g>
     <g id="text_7">
      <!-- 2.0 -->
      <g transform="translate(40.819531 128.293342)scale(0.175 -0.175)">
       <defs>
        <path d="M 19.1875 8.296875 
L 53.609375 8.296875 
L 53.609375 0 
L 7.328125 0 
L 7.328125 8.296875 
Q 12.9375 14.109375 22.625 23.890625 
Q 32.328125 33.6875 34.8125 36.53125 
Q 39.546875 41.84375 41.421875 45.53125 
Q 43.3125 49.21875 43.3125 52.78125 
Q 43.3125 58.59375 39.234375 62.25 
Q 35.15625 65.921875 28.609375 65.921875 
Q 23.96875 65.921875 18.8125 64.3125 
Q 13.671875 62.703125 7.8125 59.421875 
L 7.8125 69.390625 
Q 13.765625 71.78125 18.9375 73 
Q 24.125 74.21875 28.421875 74.21875 
Q 39.75 74.21875 46.484375 68.546875 
Q 53.21875 62.890625 53.21875 53.421875 
Q 53.21875 48.921875 51.53125 44.890625 
Q 49.859375 40.875 45.40625 35.40625 
Q 44.1875 33.984375 37.640625 27.21875 
Q 31.109375 20.453125 19.1875 8.296875 
z
" id="DejaVuSans-50"/>
       </defs>
       <use xlink:href="#DejaVuSans-50"/>
       <use x="63.623047" xlink:href="#DejaVuSans-46"/>
       <use x="95.410156" xlink:href="#DejaVuSans-48"/>
      </g>
     </g>
    </g>
    <g id="ytick_5">
     <g id="line2d_8">
      <g>
       <use style="stroke:#000000;stroke-width:0.8;" x="75.65" xlink:href="#m4e5d732482" y="83.593101"/>
      </g>
     </g>
     <g id="text_8">
      <!-- 2.5 -->
      <g transform="translate(40.819531 90.241734)scale(0.175 -0.175)">
       <use xlink:href="#DejaVuSans-50"/>
       <use x="63.623047" xlink:href="#DejaVuSans-46"/>
       <use x="95.410156" xlink:href="#DejaVuSans-53"/>
      </g>
     </g>
    </g>
    <g id="ytick_6">
     <g id="line2d_9">
      <g>
       <use style="stroke:#000000;stroke-width:0.8;" x="75.65" xlink:href="#m4e5d732482" y="45.541493"/>
      </g>
     </g>
     <g id="text_9">
      <!-- 3.0 -->
      <g transform="translate(40.819531 52.190126)scale(0.175 -0.175)">
       <defs>
        <path d="M 40.578125 39.3125 
Q 47.65625 37.796875 51.625 33 
Q 55.609375 28.21875 55.609375 21.1875 
Q 55.609375 10.40625 48.1875 4.484375 
Q 40.765625 -1.421875 27.09375 -1.421875 
Q 22.515625 -1.421875 17.65625 -0.515625 
Q 12.796875 0.390625 7.625 2.203125 
L 7.625 11.71875 
Q 11.71875 9.328125 16.59375 8.109375 
Q 21.484375 6.890625 26.8125 6.890625 
Q 36.078125 6.890625 40.9375 10.546875 
Q 45.796875 14.203125 45.796875 21.1875 
Q 45.796875 27.640625 41.28125 31.265625 
Q 36.765625 34.90625 28.71875 34.90625 
L 20.21875 34.90625 
L 20.21875 43.015625 
L 29.109375 43.015625 
Q 36.375 43.015625 40.234375 45.921875 
Q 44.09375 48.828125 44.09375 54.296875 
Q 44.09375 59.90625 40.109375 62.90625 
Q 36.140625 65.921875 28.71875 65.921875 
Q 24.65625 65.921875 20.015625 65.03125 
Q 15.375 64.15625 9.8125 62.3125 
L 9.8125 71.09375 
Q 15.4375 72.65625 20.34375 73.4375 
Q 25.25 74.21875 29.59375 74.21875 
Q 40.828125 74.21875 47.359375 69.109375 
Q 53.90625 64.015625 53.90625 55.328125 
Q 53.90625 49.265625 50.4375 45.09375 
Q 46.96875 40.921875 40.578125 39.3125 
z
" id="DejaVuSans-51"/>
       </defs>
       <use xlink:href="#DejaVuSans-51"/>
       <use x="63.623047" xlink:href="#DejaVuSans-46"/>
       <use x="95.410156" xlink:href="#DejaVuSans-48"/>
      </g>
     </g>
    </g>
    <g id="text_10">
     <!-- Estimation Error -->
     <g transform="translate(33.180078 202.198633)rotate(-90)scale(0.175 -0.175)">
      <defs>
       <path d="M 52 44.1875 
Q 55.375 50.25 60.0625 53.125 
Q 64.75 56 71.09375 56 
Q 79.640625 56 84.28125 50.015625 
Q 88.921875 44.046875 88.921875 33.015625 
L 88.921875 0 
L 79.890625 0 
L 79.890625 32.71875 
Q 79.890625 40.578125 77.09375 44.375 
Q 74.3125 48.1875 68.609375 48.1875 
Q 61.625 48.1875 57.5625 43.546875 
Q 53.515625 38.921875 53.515625 30.90625 
L 53.515625 0 
L 44.484375 0 
L 44.484375 32.71875 
Q 44.484375 40.625 41.703125 44.40625 
Q 38.921875 48.1875 33.109375 48.1875 
Q 26.21875 48.1875 22.15625 43.53125 
Q 18.109375 38.875 18.109375 30.90625 
L 18.109375 0 
L 9.078125 0 
L 9.078125 54.6875 
L 18.109375 54.6875 
L 18.109375 46.1875 
Q 21.1875 51.21875 25.484375 53.609375 
Q 29.78125 56 35.6875 56 
Q 41.65625 56 45.828125 52.96875 
Q 50 49.953125 52 44.1875 
z
" id="DejaVuSans-109"/>
       <path d="M 34.28125 27.484375 
Q 23.390625 27.484375 19.1875 25 
Q 14.984375 22.515625 14.984375 16.5 
Q 14.984375 11.71875 18.140625 8.90625 
Q 21.296875 6.109375 26.703125 6.109375 
Q 34.1875 6.109375 38.703125 11.40625 
Q 43.21875 16.703125 43.21875 25.484375 
L 43.21875 27.484375 
z
M 52.203125 31.203125 
L 52.203125 0 
L 43.21875 0 
L 43.21875 8.296875 
Q 40.140625 3.328125 35.546875 0.953125 
Q 30.953125 -1.421875 24.3125 -1.421875 
Q 15.921875 -1.421875 10.953125 3.296875 
Q 6 8.015625 6 15.921875 
Q 6 25.140625 12.171875 29.828125 
Q 18.359375 34.515625 30.609375 34.515625 
L 43.21875 34.515625 
L 43.21875 35.40625 
Q 43.21875 41.609375 39.140625 45 
Q 35.0625 48.390625 27.6875 48.390625 
Q 23 48.390625 18.546875 47.265625 
Q 14.109375 46.140625 10.015625 43.890625 
L 10.015625 52.203125 
Q 14.9375 54.109375 19.578125 55.046875 
Q 24.21875 56 28.609375 56 
Q 40.484375 56 46.34375 49.84375 
Q 52.203125 43.703125 52.203125 31.203125 
z
" id="DejaVuSans-97"/>
      </defs>
      <use xlink:href="#DejaVuSans-69"/>
      <use x="63.183594" xlink:href="#DejaVuSans-115"/>
      <use x="115.283203" xlink:href="#DejaVuSans-116"/>
      <use x="154.492188" xlink:href="#DejaVuSans-105"/>
      <use x="182.275391" xlink:href="#DejaVuSans-109"/>
      <use x="279.6875" xlink:href="#DejaVuSans-97"/>
      <use x="340.966797" xlink:href="#DejaVuSans-116"/>
      <use x="380.175781" xlink:href="#DejaVuSans-105"/>
      <use x="407.958984" xlink:href="#DejaVuSans-111"/>
      <use x="469.140625" xlink:href="#DejaVuSans-110"/>
      <use x="532.519531" xlink:href="#DejaVuSans-32"/>
      <use x="564.306641" xlink:href="#DejaVuSans-69"/>
      <use x="627.490234" xlink:href="#DejaVuSans-114"/>
      <use x="666.853516" xlink:href="#DejaVuSans-114"/>
      <use x="705.716797" xlink:href="#DejaVuSans-111"/>
      <use x="766.898438" xlink:href="#DejaVuSans-114"/>
     </g>
    </g>
   </g>
   <g id="LineCollection_1">
    <path clip-path="url(#pc0f3134151)" d="M 99.052996 198.86573 
L 122.455992 198.86573 
" style="fill:none;stroke:#1f77b4;stroke-width:1.5;"/>
    <path clip-path="url(#pc0f3134151)" d="M 192.664979 29.136364 
L 216.067975 29.136364 
" style="fill:none;stroke:#1f77b4;stroke-width:1.5;"/>
    <path clip-path="url(#pc0f3134151)" d="M 286.276963 193.60265 
L 309.679959 193.60265 
" style="fill:none;stroke:#1f77b4;stroke-width:1.5;"/>
   </g>
   <g id="LineCollection_2">
    <path clip-path="url(#pc0f3134151)" d="M 99.052996 233.863636 
L 122.455992 233.863636 
" style="fill:none;stroke:#1f77b4;stroke-width:1.5;"/>
    <path clip-path="url(#pc0f3134151)" d="M 192.664979 176.949117 
L 216.067975 176.949117 
" style="fill:none;stroke:#1f77b4;stroke-width:1.5;"/>
    <path clip-path="url(#pc0f3134151)" d="M 286.276963 231.56159 
L 309.679959 231.56159 
" style="fill:none;stroke:#1f77b4;stroke-width:1.5;"/>
   </g>
   <g id="LineCollection_3">
    <path clip-path="url(#pc0f3134151)" d="M 110.754494 233.863636 
L 110.754494 198.86573 
" style="fill:none;stroke:#1f77b4;stroke-width:1.5;"/>
    <path clip-path="url(#pc0f3134151)" d="M 204.366477 176.949117 
L 204.366477 29.136364 
" style="fill:none;stroke:#1f77b4;stroke-width:1.5;"/>
    <path clip-path="url(#pc0f3134151)" d="M 297.978461 231.56159 
L 297.978461 193.60265 
" style="fill:none;stroke:#1f77b4;stroke-width:1.5;"/>
   </g>
   <g id="patch_3">
    <path d="M 75.65 244.1 
L 75.65 18.9 
" style="fill:none;stroke:#000000;stroke-linecap:square;stroke-linejoin:miter;stroke-width:0.8;"/>
   </g>
   <g id="patch_4">
    <path d="M 333.082955 244.1 
L 333.082955 18.9 
" style="fill:none;stroke:#000000;stroke-linecap:square;stroke-linejoin:miter;stroke-width:0.8;"/>
   </g>
   <g id="patch_5">
    <path d="M 75.65 244.1 
L 333.082955 244.1 
" style="fill:none;stroke:#000000;stroke-linecap:square;stroke-linejoin:miter;stroke-width:0.8;"/>
   </g>
   <g id="patch_6">
    <path d="M 75.65 18.9 
L 333.082955 18.9 
" style="fill:none;stroke:#000000;stroke-linecap:square;stroke-linejoin:miter;stroke-width:0.8;"/>
   </g>
  </g>
 </g>
 <defs>
  <clipPath id="pc0f3134151">
   <rect height="225.2" width="257.432955" x="75.65" y="18.9"/>
  </clipPath>
 </defs>
</svg>
