<?xml version="1.0" encoding="utf-8" standalone="no"?>
<!DOCTYPE svg PUBLIC "-//W3C//DTD SVG 1.1//EN"
  "http://www.w3.org/Graphics/SVG/1.1/DTD/svg11.dtd">
<!-- Created with matplotlib (https://matplotlib.org/) -->
<svg height="288pt" version="1.1" viewBox="0 0 360 288" width="360pt" xmlns="http://www.w3.org/2000/svg" xmlns:xlink="http://www.w3.org/1999/xlink">
 <metadata>
  <rdf:RDF xmlns:cc="http://creativecommons.org/ns#" xmlns:dc="http://purl.org/dc/elements/1.1/" xmlns:rdf="http://www.w3.org/1999/02/22-rdf-syntax-ns#">
   <cc:Work>
    <dc:type rdf:resource="http://purl.org/dc/dcmitype/StillImage"/>
    <dc:date>2022-09-25T00:48:13.006323</dc:date>
    <dc:format>image/svg+xml</dc:format>
    <dc:creator>
     <cc:Agent>
      <dc:title>Matplotlib v3.3.4, https://matplotlib.org/</dc:title>
     </cc:Agent>
    </dc:creator>
   </cc:Work>
  </rdf:RDF>
 </metadata>
 <defs>
  <style type="text/css">*{stroke-linecap:butt;stroke-linejoin:round;}</style>
 </defs>
 <g id="figure_1">
  <g id="patch_1">
   <path d="M 0 288 
L 360 288 
L 360 0 
L 0 0 
z
" style="fill:none;"/>
  </g>
  <g id="axes_1">
   <g id="patch_2">
    <path d="M 59.025 244.1 
L 333.082955 244.1 
L 333.082955 18.9 
L 59.025 18.9 
z
" style="fill:#ffffff;"/>
   </g>
   <g id="PolyCollection_1">
    <path clip-path="url(#pa3e11e7146)" d="M 98.378407 233.863636 
L 94.414672 233.863636 
L 94.118421 233.44682 
L 93.785564 233.030004 
L 93.413758 232.613188 
L 93.00138 232.196372 
L 92.547737 231.779556 
L 92.053235 231.36274 
L 91.519474 230.945924 
L 90.949274 230.529107 
L 90.346593 230.112291 
L 89.716365 229.695475 
L 89.064242 229.278659 
L 88.396273 228.861843 
L 87.718537 228.445027 
L 87.036768 228.028211 
L 86.355996 227.611395 
L 85.680245 227.194579 
L 85.012312 226.777762 
L 84.353653 226.360946 
L 83.704386 225.94413 
L 83.06341 225.527314 
L 82.428645 225.110498 
L 81.797363 224.693682 
L 81.166592 224.276866 
L 80.533555 223.86005 
L 79.896111 223.443234 
L 79.253153 223.026417 
L 78.604935 222.609601 
L 77.953292 222.192785 
L 77.301717 221.775969 
L 76.655296 221.359153 
L 76.020496 220.942337 
L 75.404799 220.525521 
L 74.816236 220.108705 
L 74.26283 219.691889 
L 73.75202 219.275072 
L 73.290104 218.858256 
L 72.881771 218.44144 
L 72.529761 218.024624 
L 72.234709 217.607808 
L 71.995182 217.190992 
L 71.807934 216.774176 
L 71.668353 216.35736 
L 71.571056 215.940544 
L 71.510594 215.523727 
L 71.48218 215.106911 
L 71.482373 214.690095 
L 71.50964 214.273279 
L 71.564728 213.856463 
L 71.650803 213.439647 
L 71.773321 213.022831 
L 71.939643 212.606015 
L 72.158403 212.189199 
L 72.438704 211.772382 
L 72.789187 211.355566 
L 73.217081 210.93875 
L 73.727312 210.521934 
L 74.321755 210.105118 
L 74.998713 209.688302 
L 75.752667 209.271486 
L 76.574333 208.85467 
L 77.451018 208.437854 
L 78.367262 208.021037 
L 79.305692 207.604221 
L 80.248041 207.187405 
L 81.176224 206.770589 
L 82.073392 206.353773 
L 82.924879 205.936957 
L 83.718967 205.520141 
L 84.447406 205.103325 
L 85.105669 204.686509 
L 85.692934 204.269692 
L 86.211794 203.852876 
L 86.667756 203.43606 
L 87.068569 203.019244 
L 87.423458 202.602428 
L 87.742325 202.185612 
L 88.034997 201.768796 
L 88.310566 201.35198 
L 88.576881 200.935164 
L 88.840205 200.518347 
L 89.105059 200.101531 
L 89.374235 199.684715 
L 89.648955 199.267899 
L 89.929142 198.851083 
L 90.213759 198.434267 
L 90.501173 198.017451 
L 90.789495 197.600635 
L 91.07688 197.183819 
L 91.361744 196.767002 
L 91.642894 196.350186 
L 91.919585 195.93337 
L 92.191482 195.516554 
L 92.458573 195.099738 
L 92.721043 194.682922 
L 92.979127 194.266106 
L 93.232972 193.84929 
L 93.482525 193.432473 
L 93.727447 193.015657 
L 93.967086 192.598841 
L 98.825992 192.598841 
L 98.825992 192.598841 
L 99.065632 193.015657 
L 99.310554 193.432473 
L 99.560106 193.84929 
L 99.813952 194.266106 
L 100.072036 194.682922 
L 100.334506 195.099738 
L 100.601597 195.516554 
L 100.873493 195.93337 
L 101.150184 196.350186 
L 101.431335 196.767002 
L 101.716198 197.183819 
L 102.003583 197.600635 
L 102.291906 198.017451 
L 102.579319 198.434267 
L 102.863937 198.851083 
L 103.144124 199.267899 
L 103.418844 199.684715 
L 103.68802 200.101531 
L 103.952874 200.518347 
L 104.216198 200.935164 
L 104.482512 201.35198 
L 104.758081 201.768796 
L 105.050753 202.185612 
L 105.369621 202.602428 
L 105.72451 203.019244 
L 106.125323 203.43606 
L 106.581284 203.852876 
L 107.100144 204.269692 
L 107.687409 204.686509 
L 108.345673 205.103325 
L 109.074111 205.520141 
L 109.868199 205.936957 
L 110.719687 206.353773 
L 111.616855 206.770589 
L 112.545038 207.187405 
L 113.487387 207.604221 
L 114.425817 208.021037 
L 115.34206 208.437854 
L 116.218746 208.85467 
L 117.040411 209.271486 
L 117.794366 209.688302 
L 118.471324 210.105118 
L 119.065767 210.521934 
L 119.575998 210.93875 
L 120.003892 211.355566 
L 120.354375 211.772382 
L 120.634675 212.189199 
L 120.853435 212.606015 
L 121.019757 213.022831 
L 121.142276 213.439647 
L 121.22835 213.856463 
L 121.283439 214.273279 
L 121.310706 214.690095 
L 121.310899 215.106911 
L 121.282485 215.523727 
L 121.222023 215.940544 
L 121.124726 216.35736 
L 120.985144 216.774176 
L 120.797897 217.190992 
L 120.55837 217.607808 
L 120.263317 218.024624 
L 119.911308 218.44144 
L 119.502975 218.858256 
L 119.041059 219.275072 
L 118.530248 219.691889 
L 117.976842 220.108705 
L 117.388279 220.525521 
L 116.772583 220.942337 
L 116.137782 221.359153 
L 115.491362 221.775969 
L 114.839786 222.192785 
L 114.188143 222.609601 
L 113.539926 223.026417 
L 112.896967 223.443234 
L 112.259523 223.86005 
L 111.626487 224.276866 
L 110.995716 224.693682 
L 110.364434 225.110498 
L 109.729669 225.527314 
L 109.088692 225.94413 
L 108.439425 226.360946 
L 107.780767 226.777762 
L 107.112834 227.194579 
L 106.437083 227.611395 
L 105.75631 228.028211 
L 105.074541 228.445027 
L 104.396806 228.861843 
L 103.728836 229.278659 
L 103.076713 229.695475 
L 102.446485 230.112291 
L 101.843805 230.529107 
L 101.273604 230.945924 
L 100.739844 231.36274 
L 100.245341 231.779556 
L 99.791699 232.196372 
L 99.379321 232.613188 
L 99.007515 233.030004 
L 98.674658 233.44682 
L 98.378407 233.863636 
z
" style="fill:#1f77b4;fill-opacity:0.3;"/>
   </g>
   <g id="PolyCollection_2">
    <path clip-path="url(#pa3e11e7146)" d="M 198.108935 212.326851 
L 193.99902 212.326851 
L 193.695541 210.476442 
L 193.368198 208.626033 
L 193.017662 206.775624 
L 192.644576 204.925215 
L 192.249318 203.074806 
L 191.831743 201.224397 
L 191.390943 199.373988 
L 190.92507 197.523579 
L 190.431272 195.67317 
L 189.905793 193.822761 
L 189.344238 191.972352 
L 188.742 190.121943 
L 188.094814 188.271535 
L 187.399364 186.421126 
L 186.653871 184.570717 
L 185.858577 182.720308 
L 185.016049 180.869899 
L 184.131272 179.01949 
L 183.2115 177.169081 
L 182.265901 175.318672 
L 181.305031 173.468263 
L 180.340223 171.617854 
L 179.382961 169.767445 
L 178.444319 167.917036 
L 177.534512 166.066627 
L 176.662614 164.216218 
L 175.836438 162.365809 
L 175.062566 160.5154 
L 174.346503 158.664991 
L 173.692895 156.814582 
L 173.105786 154.964173 
L 172.588832 153.113764 
L 172.145474 151.263355 
L 171.779007 149.412946 
L 171.492566 147.562537 
L 171.289017 145.712128 
L 171.170781 143.861719 
L 171.139618 142.01131 
L 171.196409 140.160901 
L 171.340974 138.310492 
L 171.571945 136.460084 
L 171.886709 134.609675 
L 172.281414 132.759266 
L 172.751031 130.908857 
L 173.28942 129.058448 
L 173.889414 127.208039 
L 174.54288 125.35763 
L 175.240784 123.507221 
L 175.973289 121.656812 
L 176.729923 119.806403 
L 177.499869 117.955994 
L 178.27239 116.105585 
L 179.037391 114.255176 
L 179.786065 112.404767 
L 180.511546 110.554358 
L 181.209444 108.703949 
L 181.878187 106.85354 
L 182.519039 105.003131 
L 183.135805 103.152722 
L 183.734208 101.302313 
L 184.321024 99.451904 
L 184.90311 97.601495 
L 185.486443 95.751086 
L 186.075332 93.900677 
L 186.671877 92.050268 
L 187.275757 90.199859 
L 187.884336 88.34945 
L 188.493035 86.499042 
L 189.095907 84.648633 
L 189.686289 82.798224 
L 190.257471 80.947815 
L 190.803273 79.097406 
L 191.318496 77.246997 
L 191.799213 75.396588 
L 192.242906 73.546179 
L 192.648457 71.69577 
L 193.016024 69.845361 
L 193.346834 67.994952 
L 193.642923 66.144543 
L 193.906838 64.294134 
L 194.141359 62.443725 
L 194.349228 60.593316 
L 194.532937 58.742907 
L 194.694577 56.892498 
L 194.835769 55.042089 
L 194.957684 53.19168 
L 195.061137 51.341271 
L 195.146754 49.490862 
L 195.215177 47.640453 
L 195.267273 45.790044 
L 195.304317 43.939635 
L 195.328118 42.089226 
L 195.341055 40.238817 
L 195.346018 38.388408 
L 195.346262 36.537999 
L 195.345183 34.687591 
L 195.346049 32.837182 
L 195.351735 30.986773 
L 195.364477 29.136364 
L 196.743477 29.136364 
L 196.743477 29.136364 
L 196.756219 30.986773 
L 196.761905 32.837182 
L 196.762772 34.687591 
L 196.761693 36.537999 
L 196.761937 38.388408 
L 196.7669 40.238817 
L 196.779836 42.089226 
L 196.803638 43.939635 
L 196.840682 45.790044 
L 196.892777 47.640453 
L 196.9612 49.490862 
L 197.046818 51.341271 
L 197.150271 53.19168 
L 197.272185 55.042089 
L 197.413378 56.892498 
L 197.575017 58.742907 
L 197.758726 60.593316 
L 197.966595 62.443725 
L 198.201116 64.294134 
L 198.465032 66.144543 
L 198.76112 67.994952 
L 199.091931 69.845361 
L 199.459498 71.69577 
L 199.865049 73.546179 
L 200.308742 75.396588 
L 200.789459 77.246997 
L 201.304682 79.097406 
L 201.850484 80.947815 
L 202.421666 82.798224 
L 203.012048 84.648633 
L 203.614919 86.499042 
L 204.223619 88.34945 
L 204.832198 90.199859 
L 205.436078 92.050268 
L 206.032623 93.900677 
L 206.621511 95.751086 
L 207.204845 97.601495 
L 207.78693 99.451904 
L 208.373746 101.302313 
L 208.972149 103.152722 
L 209.588916 105.003131 
L 210.229768 106.85354 
L 210.89851 108.703949 
L 211.596409 110.554358 
L 212.321889 112.404767 
L 213.070564 114.255176 
L 213.835565 116.105585 
L 214.608086 117.955994 
L 215.378032 119.806403 
L 216.134666 121.656812 
L 216.86717 123.507221 
L 217.565074 125.35763 
L 218.21854 127.208039 
L 218.818535 129.058448 
L 219.356924 130.908857 
L 219.82654 132.759266 
L 220.221246 134.609675 
L 220.536009 136.460084 
L 220.76698 138.310492 
L 220.911546 140.160901 
L 220.968337 142.01131 
L 220.937174 143.861719 
L 220.818938 145.712128 
L 220.615389 147.562537 
L 220.328948 149.412946 
L 219.96248 151.263355 
L 219.519122 153.113764 
L 219.002169 154.964173 
L 218.415059 156.814582 
L 217.761452 158.664991 
L 217.045388 160.5154 
L 216.271516 162.365809 
L 215.445341 164.216218 
L 214.573443 166.066627 
L 213.663636 167.917036 
L 212.724993 169.767445 
L 211.767732 171.617854 
L 210.802924 173.468263 
L 209.842053 175.318672 
L 208.896454 177.169081 
L 207.976683 179.01949 
L 207.091906 180.869899 
L 206.249378 182.720308 
L 205.454083 184.570717 
L 204.70859 186.421126 
L 204.01314 188.271535 
L 203.365954 190.121943 
L 202.763716 191.972352 
L 202.202161 193.822761 
L 201.676683 195.67317 
L 201.182885 197.523579 
L 200.717011 199.373988 
L 200.276212 201.224397 
L 199.858637 203.074806 
L 199.463379 204.925215 
L 199.090292 206.775624 
L 198.739757 208.626033 
L 198.412414 210.476442 
L 198.108935 212.326851 
z
" style="fill:#1f77b4;fill-opacity:0.3;"/>
   </g>
   <g id="PolyCollection_3">
    <path clip-path="url(#pa3e11e7146)" d="M 296.398772 228.975422 
L 295.024058 228.975422 
L 294.990349 228.339391 
L 294.953054 227.70336 
L 294.903733 227.067328 
L 294.831765 226.431297 
L 294.724886 225.795266 
L 294.569946 225.159235 
L 294.353825 224.523203 
L 294.064422 223.887172 
L 293.691631 223.251141 
L 293.228202 222.61511 
L 292.670423 221.979079 
L 292.018534 221.343047 
L 291.276873 220.707016 
L 290.453716 220.070985 
L 289.560853 219.434954 
L 288.612928 218.798923 
L 287.626584 218.162891 
L 286.619466 217.52686 
L 285.609106 216.890829 
L 284.611755 216.254798 
L 283.64122 215.618767 
L 282.707806 214.982735 
L 281.817505 214.346704 
L 280.971583 213.710673 
L 280.166707 213.074642 
L 279.395703 212.438611 
L 278.648911 211.802579 
L 277.916003 211.166548 
L 277.187997 210.530517 
L 276.459141 209.894486 
L 275.728311 209.258455 
L 274.999696 208.622423 
L 274.282645 207.986392 
L 273.590742 207.350361 
L 272.940343 206.71433 
L 272.348879 206.078299 
L 271.83328 205.442267 
L 271.408761 204.806236 
L 271.088132 204.170205 
L 270.881619 203.534174 
L 270.797056 202.898143 
L 270.840266 202.262111 
L 271.015399 201.62608 
L 271.325065 200.990049 
L 271.770186 200.354018 
L 272.349576 199.717987 
L 273.059353 199.081955 
L 273.892324 198.445924 
L 274.837543 197.809893 
L 275.880165 197.173862 
L 277.001706 196.53783 
L 278.180733 195.901799 
L 279.393912 195.265768 
L 280.6173 194.629737 
L 281.82769 193.993706 
L 283.003849 193.357674 
L 284.127476 192.721643 
L 285.183803 192.085612 
L 286.161827 191.449581 
L 287.05421 190.81355 
L 287.856972 190.177518 
L 288.569086 189.541487 
L 289.19209 188.905456 
L 289.729788 188.269425 
L 290.188045 187.633394 
L 290.574653 186.997362 
L 290.899189 186.361331 
L 291.17279 185.7253 
L 291.407763 185.089269 
L 291.617009 184.453238 
L 291.813257 183.817206 
L 292.00818 183.181175 
L 292.211504 182.545144 
L 292.430227 181.909113 
L 292.668084 181.273082 
L 292.925353 180.63705 
L 293.199036 180.001019 
L 293.483406 179.364988 
L 293.770834 178.728957 
L 294.05276 178.092926 
L 294.320675 177.456894 
L 294.566971 176.820863 
L 294.785566 176.184832 
L 294.972245 175.548801 
L 295.124739 174.91277 
L 295.242585 174.276738 
L 295.326855 173.640707 
L 295.379824 173.004676 
L 295.404671 172.368645 
L 295.405238 171.732614 
L 295.385864 171.096582 
L 295.351277 170.460551 
L 295.306493 169.82452 
L 295.256698 169.188489 
L 295.207063 168.552457 
L 295.162486 167.916426 
L 295.12729 167.280395 
L 295.104902 166.644364 
L 295.097573 166.008333 
L 296.325258 166.008333 
L 296.325258 166.008333 
L 296.317929 166.644364 
L 296.29554 167.280395 
L 296.260345 167.916426 
L 296.215768 168.552457 
L 296.166132 169.188489 
L 296.116338 169.82452 
L 296.071554 170.460551 
L 296.036966 171.096582 
L 296.017593 171.732614 
L 296.01816 172.368645 
L 296.043007 173.004676 
L 296.095976 173.640707 
L 296.180245 174.276738 
L 296.298092 174.91277 
L 296.450586 175.548801 
L 296.637264 176.184832 
L 296.855859 176.820863 
L 297.102156 177.456894 
L 297.370071 178.092926 
L 297.651996 178.728957 
L 297.939424 179.364988 
L 298.223795 180.001019 
L 298.497477 180.63705 
L 298.754746 181.273082 
L 298.992604 181.909113 
L 299.211327 182.545144 
L 299.414651 183.181175 
L 299.609574 183.817206 
L 299.805821 184.453238 
L 300.015067 185.089269 
L 300.250041 185.7253 
L 300.523641 186.361331 
L 300.848177 186.997362 
L 301.234785 187.633394 
L 301.693042 188.269425 
L 302.230741 188.905456 
L 302.853745 189.541487 
L 303.565859 190.177518 
L 304.368621 190.81355 
L 305.261004 191.449581 
L 306.239028 192.085612 
L 307.295355 192.721643 
L 308.418981 193.357674 
L 309.59514 193.993706 
L 310.805531 194.629737 
L 312.028918 195.265768 
L 313.242098 195.901799 
L 314.421124 196.53783 
L 315.542666 197.173862 
L 316.585288 197.809893 
L 317.530507 198.445924 
L 318.363478 199.081955 
L 319.073254 199.717987 
L 319.652645 200.354018 
L 320.097766 200.990049 
L 320.407431 201.62608 
L 320.582564 202.262111 
L 320.625775 202.898143 
L 320.541212 203.534174 
L 320.334699 204.170205 
L 320.01407 204.806236 
L 319.589551 205.442267 
L 319.073952 206.078299 
L 318.482488 206.71433 
L 317.832088 207.350361 
L 317.140185 207.986392 
L 316.423134 208.622423 
L 315.69452 209.258455 
L 314.963689 209.894486 
L 314.234833 210.530517 
L 313.506828 211.166548 
L 312.773919 211.802579 
L 312.027127 212.438611 
L 311.256124 213.074642 
L 310.451248 213.710673 
L 309.605325 214.346704 
L 308.715024 214.982735 
L 307.78161 215.618767 
L 306.811076 216.254798 
L 305.813725 216.890829 
L 304.803365 217.52686 
L 303.796246 218.162891 
L 302.809903 218.798923 
L 301.861977 219.434954 
L 300.969114 220.070985 
L 300.145957 220.707016 
L 299.404296 221.343047 
L 298.752408 221.979079 
L 298.194628 222.61511 
L 297.7312 223.251141 
L 297.358408 223.887172 
L 297.069006 224.523203 
L 296.852884 225.159235 
L 296.697944 225.795266 
L 296.591065 226.431297 
L 296.519097 227.067328 
L 296.469776 227.70336 
L 296.432481 228.339391 
L 296.398772 228.975422 
z
" style="fill:#1f77b4;fill-opacity:0.3;"/>
   </g>
   <g id="matplotlib.axis_1">
    <g id="xtick_1">
     <g id="line2d_1">
      <defs>
       <path d="M 0 0 
L 0 3.5 
" id="m47179e7ba6" style="stroke:#000000;stroke-width:0.8;"/>
      </defs>
      <g>
       <use style="stroke:#000000;stroke-width:0.8;" x="96.396539" xlink:href="#m47179e7ba6" y="244.1"/>
      </g>
     </g>
     <g id="text_1">
      <!-- Our Method -->
      <g transform="translate(44.767438 264.397266)scale(0.175 -0.175)">
       <defs>
        <path d="M 39.40625 66.21875 
Q 28.65625 66.21875 22.328125 58.203125 
Q 16.015625 50.203125 16.015625 36.375 
Q 16.015625 22.609375 22.328125 14.59375 
Q 28.65625 6.59375 39.40625 6.59375 
Q 50.140625 6.59375 56.421875 14.59375 
Q 62.703125 22.609375 62.703125 36.375 
Q 62.703125 50.203125 56.421875 58.203125 
Q 50.140625 66.21875 39.40625 66.21875 
z
M 39.40625 74.21875 
Q 54.734375 74.21875 63.90625 63.9375 
Q 73.09375 53.65625 73.09375 36.375 
Q 73.09375 19.140625 63.90625 8.859375 
Q 54.734375 -1.421875 39.40625 -1.421875 
Q 24.03125 -1.421875 14.8125 8.828125 
Q 5.609375 19.09375 5.609375 36.375 
Q 5.609375 53.65625 14.8125 63.9375 
Q 24.03125 74.21875 39.40625 74.21875 
z
" id="DejaVuSans-79"/>
        <path d="M 8.5 21.578125 
L 8.5 54.6875 
L 17.484375 54.6875 
L 17.484375 21.921875 
Q 17.484375 14.15625 20.5 10.265625 
Q 23.53125 6.390625 29.59375 6.390625 
Q 36.859375 6.390625 41.078125 11.03125 
Q 45.3125 15.671875 45.3125 23.6875 
L 45.3125 54.6875 
L 54.296875 54.6875 
L 54.296875 0 
L 45.3125 0 
L 45.3125 8.40625 
Q 42.046875 3.421875 37.71875 1 
Q 33.40625 -1.421875 27.6875 -1.421875 
Q 18.265625 -1.421875 13.375 4.4375 
Q 8.5 10.296875 8.5 21.578125 
z
M 31.109375 56 
z
" id="DejaVuSans-117"/>
        <path d="M 41.109375 46.296875 
Q 39.59375 47.171875 37.8125 47.578125 
Q 36.03125 48 33.890625 48 
Q 26.265625 48 22.1875 43.046875 
Q 18.109375 38.09375 18.109375 28.8125 
L 18.109375 0 
L 9.078125 0 
L 9.078125 54.6875 
L 18.109375 54.6875 
L 18.109375 46.1875 
Q 20.953125 51.171875 25.484375 53.578125 
Q 30.03125 56 36.53125 56 
Q 37.453125 56 38.578125 55.875 
Q 39.703125 55.765625 41.0625 55.515625 
z
" id="DejaVuSans-114"/>
        <path id="DejaVuSans-32"/>
        <path d="M 9.8125 72.90625 
L 24.515625 72.90625 
L 43.109375 23.296875 
L 61.8125 72.90625 
L 76.515625 72.90625 
L 76.515625 0 
L 66.890625 0 
L 66.890625 64.015625 
L 48.09375 14.015625 
L 38.1875 14.015625 
L 19.390625 64.015625 
L 19.390625 0 
L 9.8125 0 
z
" id="DejaVuSans-77"/>
        <path d="M 56.203125 29.59375 
L 56.203125 25.203125 
L 14.890625 25.203125 
Q 15.484375 15.921875 20.484375 11.0625 
Q 25.484375 6.203125 34.421875 6.203125 
Q 39.59375 6.203125 44.453125 7.46875 
Q 49.3125 8.734375 54.109375 11.28125 
L 54.109375 2.78125 
Q 49.265625 0.734375 44.1875 -0.34375 
Q 39.109375 -1.421875 33.890625 -1.421875 
Q 20.796875 -1.421875 13.15625 6.1875 
Q 5.515625 13.8125 5.515625 26.8125 
Q 5.515625 40.234375 12.765625 48.109375 
Q 20.015625 56 32.328125 56 
Q 43.359375 56 49.78125 48.890625 
Q 56.203125 41.796875 56.203125 29.59375 
z
M 47.21875 32.234375 
Q 47.125 39.59375 43.09375 43.984375 
Q 39.0625 48.390625 32.421875 48.390625 
Q 24.90625 48.390625 20.390625 44.140625 
Q 15.875 39.890625 15.1875 32.171875 
z
" id="DejaVuSans-101"/>
        <path d="M 18.3125 70.21875 
L 18.3125 54.6875 
L 36.8125 54.6875 
L 36.8125 47.703125 
L 18.3125 47.703125 
L 18.3125 18.015625 
Q 18.3125 11.328125 20.140625 9.421875 
Q 21.96875 7.515625 27.59375 7.515625 
L 36.8125 7.515625 
L 36.8125 0 
L 27.59375 0 
Q 17.1875 0 13.234375 3.875 
Q 9.28125 7.765625 9.28125 18.015625 
L 9.28125 47.703125 
L 2.6875 47.703125 
L 2.6875 54.6875 
L 9.28125 54.6875 
L 9.28125 70.21875 
z
" id="DejaVuSans-116"/>
        <path d="M 54.890625 33.015625 
L 54.890625 0 
L 45.90625 0 
L 45.90625 32.71875 
Q 45.90625 40.484375 42.875 44.328125 
Q 39.84375 48.1875 33.796875 48.1875 
Q 26.515625 48.1875 22.3125 43.546875 
Q 18.109375 38.921875 18.109375 30.90625 
L 18.109375 0 
L 9.078125 0 
L 9.078125 75.984375 
L 18.109375 75.984375 
L 18.109375 46.1875 
Q 21.34375 51.125 25.703125 53.5625 
Q 30.078125 56 35.796875 56 
Q 45.21875 56 50.046875 50.171875 
Q 54.890625 44.34375 54.890625 33.015625 
z
" id="DejaVuSans-104"/>
        <path d="M 30.609375 48.390625 
Q 23.390625 48.390625 19.1875 42.75 
Q 14.984375 37.109375 14.984375 27.296875 
Q 14.984375 17.484375 19.15625 11.84375 
Q 23.34375 6.203125 30.609375 6.203125 
Q 37.796875 6.203125 41.984375 11.859375 
Q 46.1875 17.53125 46.1875 27.296875 
Q 46.1875 37.015625 41.984375 42.703125 
Q 37.796875 48.390625 30.609375 48.390625 
z
M 30.609375 56 
Q 42.328125 56 49.015625 48.375 
Q 55.71875 40.765625 55.71875 27.296875 
Q 55.71875 13.875 49.015625 6.21875 
Q 42.328125 -1.421875 30.609375 -1.421875 
Q 18.84375 -1.421875 12.171875 6.21875 
Q 5.515625 13.875 5.515625 27.296875 
Q 5.515625 40.765625 12.171875 48.375 
Q 18.84375 56 30.609375 56 
z
" id="DejaVuSans-111"/>
        <path d="M 45.40625 46.390625 
L 45.40625 75.984375 
L 54.390625 75.984375 
L 54.390625 0 
L 45.40625 0 
L 45.40625 8.203125 
Q 42.578125 3.328125 38.25 0.953125 
Q 33.9375 -1.421875 27.875 -1.421875 
Q 17.96875 -1.421875 11.734375 6.484375 
Q 5.515625 14.40625 5.515625 27.296875 
Q 5.515625 40.1875 11.734375 48.09375 
Q 17.96875 56 27.875 56 
Q 33.9375 56 38.25 53.625 
Q 42.578125 51.265625 45.40625 46.390625 
z
M 14.796875 27.296875 
Q 14.796875 17.390625 18.875 11.75 
Q 22.953125 6.109375 30.078125 6.109375 
Q 37.203125 6.109375 41.296875 11.75 
Q 45.40625 17.390625 45.40625 27.296875 
Q 45.40625 37.203125 41.296875 42.84375 
Q 37.203125 48.484375 30.078125 48.484375 
Q 22.953125 48.484375 18.875 42.84375 
Q 14.796875 37.203125 14.796875 27.296875 
z
" id="DejaVuSans-100"/>
       </defs>
       <use xlink:href="#DejaVuSans-79"/>
       <use x="78.710938" xlink:href="#DejaVuSans-117"/>
       <use x="142.089844" xlink:href="#DejaVuSans-114"/>
       <use x="183.203125" xlink:href="#DejaVuSans-32"/>
       <use x="214.990234" xlink:href="#DejaVuSans-77"/>
       <use x="301.269531" xlink:href="#DejaVuSans-101"/>
       <use x="362.792969" xlink:href="#DejaVuSans-116"/>
       <use x="402.001953" xlink:href="#DejaVuSans-104"/>
       <use x="465.380859" xlink:href="#DejaVuSans-111"/>
       <use x="526.5625" xlink:href="#DejaVuSans-100"/>
      </g>
     </g>
    </g>
    <g id="xtick_2">
     <g id="line2d_2">
      <g>
       <use style="stroke:#000000;stroke-width:0.8;" x="196.053977" xlink:href="#m47179e7ba6" y="244.1"/>
      </g>
     </g>
     <g id="text_2">
      <!-- Stein's -->
      <g transform="translate(166.745579 264.397266)scale(0.175 -0.175)">
       <defs>
        <path d="M 53.515625 70.515625 
L 53.515625 60.890625 
Q 47.90625 63.578125 42.921875 64.890625 
Q 37.9375 66.21875 33.296875 66.21875 
Q 25.25 66.21875 20.875 63.09375 
Q 16.5 59.96875 16.5 54.203125 
Q 16.5 49.359375 19.40625 46.890625 
Q 22.3125 44.4375 30.421875 42.921875 
L 36.375 41.703125 
Q 47.40625 39.59375 52.65625 34.296875 
Q 57.90625 29 57.90625 20.125 
Q 57.90625 9.515625 50.796875 4.046875 
Q 43.703125 -1.421875 29.984375 -1.421875 
Q 24.8125 -1.421875 18.96875 -0.25 
Q 13.140625 0.921875 6.890625 3.21875 
L 6.890625 13.375 
Q 12.890625 10.015625 18.65625 8.296875 
Q 24.421875 6.59375 29.984375 6.59375 
Q 38.421875 6.59375 43.015625 9.90625 
Q 47.609375 13.234375 47.609375 19.390625 
Q 47.609375 24.75 44.3125 27.78125 
Q 41.015625 30.8125 33.5 32.328125 
L 27.484375 33.5 
Q 16.453125 35.6875 11.515625 40.375 
Q 6.59375 45.0625 6.59375 53.421875 
Q 6.59375 63.09375 13.40625 68.65625 
Q 20.21875 74.21875 32.171875 74.21875 
Q 37.3125 74.21875 42.625 73.28125 
Q 47.953125 72.359375 53.515625 70.515625 
z
" id="DejaVuSans-83"/>
        <path d="M 9.421875 54.6875 
L 18.40625 54.6875 
L 18.40625 0 
L 9.421875 0 
z
M 9.421875 75.984375 
L 18.40625 75.984375 
L 18.40625 64.59375 
L 9.421875 64.59375 
z
" id="DejaVuSans-105"/>
        <path d="M 54.890625 33.015625 
L 54.890625 0 
L 45.90625 0 
L 45.90625 32.71875 
Q 45.90625 40.484375 42.875 44.328125 
Q 39.84375 48.1875 33.796875 48.1875 
Q 26.515625 48.1875 22.3125 43.546875 
Q 18.109375 38.921875 18.109375 30.90625 
L 18.109375 0 
L 9.078125 0 
L 9.078125 54.6875 
L 18.109375 54.6875 
L 18.109375 46.1875 
Q 21.34375 51.125 25.703125 53.5625 
Q 30.078125 56 35.796875 56 
Q 45.21875 56 50.046875 50.171875 
Q 54.890625 44.34375 54.890625 33.015625 
z
" id="DejaVuSans-110"/>
        <path d="M 17.921875 72.90625 
L 17.921875 45.796875 
L 9.625 45.796875 
L 9.625 72.90625 
z
" id="DejaVuSans-39"/>
        <path d="M 44.28125 53.078125 
L 44.28125 44.578125 
Q 40.484375 46.53125 36.375 47.5 
Q 32.28125 48.484375 27.875 48.484375 
Q 21.1875 48.484375 17.84375 46.4375 
Q 14.5 44.390625 14.5 40.28125 
Q 14.5 37.15625 16.890625 35.375 
Q 19.28125 33.59375 26.515625 31.984375 
L 29.59375 31.296875 
Q 39.15625 29.25 43.1875 25.515625 
Q 47.21875 21.78125 47.21875 15.09375 
Q 47.21875 7.46875 41.1875 3.015625 
Q 35.15625 -1.421875 24.609375 -1.421875 
Q 20.21875 -1.421875 15.453125 -0.5625 
Q 10.6875 0.296875 5.421875 2 
L 5.421875 11.28125 
Q 10.40625 8.6875 15.234375 7.390625 
Q 20.0625 6.109375 24.8125 6.109375 
Q 31.15625 6.109375 34.5625 8.28125 
Q 37.984375 10.453125 37.984375 14.40625 
Q 37.984375 18.0625 35.515625 20.015625 
Q 33.0625 21.96875 24.703125 23.78125 
L 21.578125 24.515625 
Q 13.234375 26.265625 9.515625 29.90625 
Q 5.8125 33.546875 5.8125 39.890625 
Q 5.8125 47.609375 11.28125 51.796875 
Q 16.75 56 26.8125 56 
Q 31.78125 56 36.171875 55.265625 
Q 40.578125 54.546875 44.28125 53.078125 
z
" id="DejaVuSans-115"/>
       </defs>
       <use xlink:href="#DejaVuSans-83"/>
       <use x="63.476562" xlink:href="#DejaVuSans-116"/>
       <use x="102.685547" xlink:href="#DejaVuSans-101"/>
       <use x="164.208984" xlink:href="#DejaVuSans-105"/>
       <use x="191.992188" xlink:href="#DejaVuSans-110"/>
       <use x="255.371094" xlink:href="#DejaVuSans-39"/>
       <use x="282.861328" xlink:href="#DejaVuSans-115"/>
      </g>
     </g>
    </g>
    <g id="xtick_3">
     <g id="line2d_3">
      <g>
       <use style="stroke:#000000;stroke-width:0.8;" x="295.711415" xlink:href="#m47179e7ba6" y="244.1"/>
      </g>
     </g>
     <g id="text_3">
      <!-- Entry-wise -->
      <g transform="translate(249.898329 264.397266)scale(0.175 -0.175)">
       <defs>
        <path d="M 9.8125 72.90625 
L 55.90625 72.90625 
L 55.90625 64.59375 
L 19.671875 64.59375 
L 19.671875 43.015625 
L 54.390625 43.015625 
L 54.390625 34.71875 
L 19.671875 34.71875 
L 19.671875 8.296875 
L 56.78125 8.296875 
L 56.78125 0 
L 9.8125 0 
z
" id="DejaVuSans-69"/>
        <path d="M 32.171875 -5.078125 
Q 28.375 -14.84375 24.75 -17.8125 
Q 21.140625 -20.796875 15.09375 -20.796875 
L 7.90625 -20.796875 
L 7.90625 -13.28125 
L 13.1875 -13.28125 
Q 16.890625 -13.28125 18.9375 -11.515625 
Q 21 -9.765625 23.484375 -3.21875 
L 25.09375 0.875 
L 2.984375 54.6875 
L 12.5 54.6875 
L 29.59375 11.921875 
L 46.6875 54.6875 
L 56.203125 54.6875 
z
" id="DejaVuSans-121"/>
        <path d="M 4.890625 31.390625 
L 31.203125 31.390625 
L 31.203125 23.390625 
L 4.890625 23.390625 
z
" id="DejaVuSans-45"/>
        <path d="M 4.203125 54.6875 
L 13.1875 54.6875 
L 24.421875 12.015625 
L 35.59375 54.6875 
L 46.1875 54.6875 
L 57.421875 12.015625 
L 68.609375 54.6875 
L 77.59375 54.6875 
L 63.28125 0 
L 52.6875 0 
L 40.921875 44.828125 
L 29.109375 0 
L 18.5 0 
z
" id="DejaVuSans-119"/>
       </defs>
       <use xlink:href="#DejaVuSans-69"/>
       <use x="63.183594" xlink:href="#DejaVuSans-110"/>
       <use x="126.5625" xlink:href="#DejaVuSans-116"/>
       <use x="165.771484" xlink:href="#DejaVuSans-114"/>
       <use x="206.884766" xlink:href="#DejaVuSans-121"/>
       <use x="264.314453" xlink:href="#DejaVuSans-45"/>
       <use x="300.398438" xlink:href="#DejaVuSans-119"/>
       <use x="382.185547" xlink:href="#DejaVuSans-105"/>
       <use x="409.96875" xlink:href="#DejaVuSans-115"/>
       <use x="462.068359" xlink:href="#DejaVuSans-101"/>
      </g>
     </g>
    </g>
   </g>
   <g id="matplotlib.axis_2">
    <g id="ytick_1">
     <g id="line2d_4">
      <defs>
       <path d="M 0 0 
L -3.5 0 
" id="m54aac0f5d3" style="stroke:#000000;stroke-width:0.8;"/>
      </defs>
      <g>
       <use style="stroke:#000000;stroke-width:0.8;" x="59.025" xlink:href="#m54aac0f5d3" y="203.658988"/>
      </g>
     </g>
     <g id="text_4">
      <!-- 1 -->
      <g transform="translate(40.890625 210.307621)scale(0.175 -0.175)">
       <defs>
        <path d="M 12.40625 8.296875 
L 28.515625 8.296875 
L 28.515625 63.921875 
L 10.984375 60.40625 
L 10.984375 69.390625 
L 28.421875 72.90625 
L 38.28125 72.90625 
L 38.28125 8.296875 
L 54.390625 8.296875 
L 54.390625 0 
L 12.40625 0 
z
" id="DejaVuSans-49"/>
       </defs>
       <use xlink:href="#DejaVuSans-49"/>
      </g>
     </g>
    </g>
    <g id="ytick_2">
     <g id="line2d_5">
      <g>
       <use style="stroke:#000000;stroke-width:0.8;" x="59.025" xlink:href="#m54aac0f5d3" y="153.140085"/>
      </g>
     </g>
     <g id="text_5">
      <!-- 2 -->
      <g transform="translate(40.890625 159.788718)scale(0.175 -0.175)">
       <defs>
        <path d="M 19.1875 8.296875 
L 53.609375 8.296875 
L 53.609375 0 
L 7.328125 0 
L 7.328125 8.296875 
Q 12.9375 14.109375 22.625 23.890625 
Q 32.328125 33.6875 34.8125 36.53125 
Q 39.546875 41.84375 41.421875 45.53125 
Q 43.3125 49.21875 43.3125 52.78125 
Q 43.3125 58.59375 39.234375 62.25 
Q 35.15625 65.921875 28.609375 65.921875 
Q 23.96875 65.921875 18.8125 64.3125 
Q 13.671875 62.703125 7.8125 59.421875 
L 7.8125 69.390625 
Q 13.765625 71.78125 18.9375 73 
Q 24.125 74.21875 28.421875 74.21875 
Q 39.75 74.21875 46.484375 68.546875 
Q 53.21875 62.890625 53.21875 53.421875 
Q 53.21875 48.921875 51.53125 44.890625 
Q 49.859375 40.875 45.40625 35.40625 
Q 44.1875 33.984375 37.640625 27.21875 
Q 31.109375 20.453125 19.1875 8.296875 
z
" id="DejaVuSans-50"/>
       </defs>
       <use xlink:href="#DejaVuSans-50"/>
      </g>
     </g>
    </g>
    <g id="ytick_3">
     <g id="line2d_6">
      <g>
       <use style="stroke:#000000;stroke-width:0.8;" x="59.025" xlink:href="#m54aac0f5d3" y="102.621182"/>
      </g>
     </g>
     <g id="text_6">
      <!-- 3 -->
      <g transform="translate(40.890625 109.269815)scale(0.175 -0.175)">
       <defs>
        <path d="M 40.578125 39.3125 
Q 47.65625 37.796875 51.625 33 
Q 55.609375 28.21875 55.609375 21.1875 
Q 55.609375 10.40625 48.1875 4.484375 
Q 40.765625 -1.421875 27.09375 -1.421875 
Q 22.515625 -1.421875 17.65625 -0.515625 
Q 12.796875 0.390625 7.625 2.203125 
L 7.625 11.71875 
Q 11.71875 9.328125 16.59375 8.109375 
Q 21.484375 6.890625 26.8125 6.890625 
Q 36.078125 6.890625 40.9375 10.546875 
Q 45.796875 14.203125 45.796875 21.1875 
Q 45.796875 27.640625 41.28125 31.265625 
Q 36.765625 34.90625 28.71875 34.90625 
L 20.21875 34.90625 
L 20.21875 43.015625 
L 29.109375 43.015625 
Q 36.375 43.015625 40.234375 45.921875 
Q 44.09375 48.828125 44.09375 54.296875 
Q 44.09375 59.90625 40.109375 62.90625 
Q 36.140625 65.921875 28.71875 65.921875 
Q 24.65625 65.921875 20.015625 65.03125 
Q 15.375 64.15625 9.8125 62.3125 
L 9.8125 71.09375 
Q 15.4375 72.65625 20.34375 73.4375 
Q 25.25 74.21875 29.59375 74.21875 
Q 40.828125 74.21875 47.359375 69.109375 
Q 53.90625 64.015625 53.90625 55.328125 
Q 53.90625 49.265625 50.4375 45.09375 
Q 46.96875 40.921875 40.578125 39.3125 
z
" id="DejaVuSans-51"/>
       </defs>
       <use xlink:href="#DejaVuSans-51"/>
      </g>
     </g>
    </g>
    <g id="ytick_4">
     <g id="line2d_7">
      <g>
       <use style="stroke:#000000;stroke-width:0.8;" x="59.025" xlink:href="#m54aac0f5d3" y="52.102279"/>
      </g>
     </g>
     <g id="text_7">
      <!-- 4 -->
      <g transform="translate(40.890625 58.750912)scale(0.175 -0.175)">
       <defs>
        <path d="M 37.796875 64.3125 
L 12.890625 25.390625 
L 37.796875 25.390625 
z
M 35.203125 72.90625 
L 47.609375 72.90625 
L 47.609375 25.390625 
L 58.015625 25.390625 
L 58.015625 17.1875 
L 47.609375 17.1875 
L 47.609375 0 
L 37.796875 0 
L 37.796875 17.1875 
L 4.890625 17.1875 
L 4.890625 26.703125 
z
" id="DejaVuSans-52"/>
       </defs>
       <use xlink:href="#DejaVuSans-52"/>
      </g>
     </g>
    </g>
    <g id="text_8">
     <!-- Estimation Error -->
     <g transform="translate(33.251172 202.198633)rotate(-90)scale(0.175 -0.175)">
      <defs>
       <path d="M 52 44.1875 
Q 55.375 50.25 60.0625 53.125 
Q 64.75 56 71.09375 56 
Q 79.640625 56 84.28125 50.015625 
Q 88.921875 44.046875 88.921875 33.015625 
L 88.921875 0 
L 79.890625 0 
L 79.890625 32.71875 
Q 79.890625 40.578125 77.09375 44.375 
Q 74.3125 48.1875 68.609375 48.1875 
Q 61.625 48.1875 57.5625 43.546875 
Q 53.515625 38.921875 53.515625 30.90625 
L 53.515625 0 
L 44.484375 0 
L 44.484375 32.71875 
Q 44.484375 40.625 41.703125 44.40625 
Q 38.921875 48.1875 33.109375 48.1875 
Q 26.21875 48.1875 22.15625 43.53125 
Q 18.109375 38.875 18.109375 30.90625 
L 18.109375 0 
L 9.078125 0 
L 9.078125 54.6875 
L 18.109375 54.6875 
L 18.109375 46.1875 
Q 21.1875 51.21875 25.484375 53.609375 
Q 29.78125 56 35.6875 56 
Q 41.65625 56 45.828125 52.96875 
Q 50 49.953125 52 44.1875 
z
" id="DejaVuSans-109"/>
       <path d="M 34.28125 27.484375 
Q 23.390625 27.484375 19.1875 25 
Q 14.984375 22.515625 14.984375 16.5 
Q 14.984375 11.71875 18.140625 8.90625 
Q 21.296875 6.109375 26.703125 6.109375 
Q 34.1875 6.109375 38.703125 11.40625 
Q 43.21875 16.703125 43.21875 25.484375 
L 43.21875 27.484375 
z
M 52.203125 31.203125 
L 52.203125 0 
L 43.21875 0 
L 43.21875 8.296875 
Q 40.140625 3.328125 35.546875 0.953125 
Q 30.953125 -1.421875 24.3125 -1.421875 
Q 15.921875 -1.421875 10.953125 3.296875 
Q 6 8.015625 6 15.921875 
Q 6 25.140625 12.171875 29.828125 
Q 18.359375 34.515625 30.609375 34.515625 
L 43.21875 34.515625 
L 43.21875 35.40625 
Q 43.21875 41.609375 39.140625 45 
Q 35.0625 48.390625 27.6875 48.390625 
Q 23 48.390625 18.546875 47.265625 
Q 14.109375 46.140625 10.015625 43.890625 
L 10.015625 52.203125 
Q 14.9375 54.109375 19.578125 55.046875 
Q 24.21875 56 28.609375 56 
Q 40.484375 56 46.34375 49.84375 
Q 52.203125 43.703125 52.203125 31.203125 
z
" id="DejaVuSans-97"/>
      </defs>
      <use xlink:href="#DejaVuSans-69"/>
      <use x="63.183594" xlink:href="#DejaVuSans-115"/>
      <use x="115.283203" xlink:href="#DejaVuSans-116"/>
      <use x="154.492188" xlink:href="#DejaVuSans-105"/>
      <use x="182.275391" xlink:href="#DejaVuSans-109"/>
      <use x="279.6875" xlink:href="#DejaVuSans-97"/>
      <use x="340.966797" xlink:href="#DejaVuSans-116"/>
      <use x="380.175781" xlink:href="#DejaVuSans-105"/>
      <use x="407.958984" xlink:href="#DejaVuSans-111"/>
      <use x="469.140625" xlink:href="#DejaVuSans-110"/>
      <use x="532.519531" xlink:href="#DejaVuSans-32"/>
      <use x="564.306641" xlink:href="#DejaVuSans-69"/>
      <use x="627.490234" xlink:href="#DejaVuSans-114"/>
      <use x="666.853516" xlink:href="#DejaVuSans-114"/>
      <use x="705.716797" xlink:href="#DejaVuSans-111"/>
      <use x="766.898438" xlink:href="#DejaVuSans-114"/>
     </g>
    </g>
   </g>
   <g id="LineCollection_1">
    <path clip-path="url(#pa3e11e7146)" d="M 83.93936 192.598841 
L 108.853719 192.598841 
" style="fill:none;stroke:#1f77b4;stroke-width:1.5;"/>
    <path clip-path="url(#pa3e11e7146)" d="M 183.596798 29.136364 
L 208.511157 29.136364 
" style="fill:none;stroke:#1f77b4;stroke-width:1.5;"/>
    <path clip-path="url(#pa3e11e7146)" d="M 283.254236 166.008333 
L 308.168595 166.008333 
" style="fill:none;stroke:#1f77b4;stroke-width:1.5;"/>
   </g>
   <g id="LineCollection_2">
    <path clip-path="url(#pa3e11e7146)" d="M 83.93936 233.863636 
L 108.853719 233.863636 
" style="fill:none;stroke:#1f77b4;stroke-width:1.5;"/>
    <path clip-path="url(#pa3e11e7146)" d="M 183.596798 212.326851 
L 208.511157 212.326851 
" style="fill:none;stroke:#1f77b4;stroke-width:1.5;"/>
    <path clip-path="url(#pa3e11e7146)" d="M 283.254236 228.975422 
L 308.168595 228.975422 
" style="fill:none;stroke:#1f77b4;stroke-width:1.5;"/>
   </g>
   <g id="LineCollection_3">
    <path clip-path="url(#pa3e11e7146)" d="M 96.396539 233.863636 
L 96.396539 192.598841 
" style="fill:none;stroke:#1f77b4;stroke-width:1.5;"/>
    <path clip-path="url(#pa3e11e7146)" d="M 196.053977 212.326851 
L 196.053977 29.136364 
" style="fill:none;stroke:#1f77b4;stroke-width:1.5;"/>
    <path clip-path="url(#pa3e11e7146)" d="M 295.711415 228.975422 
L 295.711415 166.008333 
" style="fill:none;stroke:#1f77b4;stroke-width:1.5;"/>
   </g>
   <g id="patch_3">
    <path d="M 59.025 244.1 
L 59.025 18.9 
" style="fill:none;stroke:#000000;stroke-linecap:square;stroke-linejoin:miter;stroke-width:0.8;"/>
   </g>
   <g id="patch_4">
    <path d="M 333.082955 244.1 
L 333.082955 18.9 
" style="fill:none;stroke:#000000;stroke-linecap:square;stroke-linejoin:miter;stroke-width:0.8;"/>
   </g>
   <g id="patch_5">
    <path d="M 59.025 244.1 
L 333.082955 244.1 
" style="fill:none;stroke:#000000;stroke-linecap:square;stroke-linejoin:miter;stroke-width:0.8;"/>
   </g>
   <g id="patch_6">
    <path d="M 59.025 18.9 
L 333.082955 18.9 
" style="fill:none;stroke:#000000;stroke-linecap:square;stroke-linejoin:miter;stroke-width:0.8;"/>
   </g>
  </g>
 </g>
 <defs>
  <clipPath id="pa3e11e7146">
   <rect height="225.2" width="274.057955" x="59.025" y="18.9"/>
  </clipPath>
 </defs>
</svg>
