<?xml version="1.0" encoding="utf-8" standalone="no"?>
<!DOCTYPE svg PUBLIC "-//W3C//DTD SVG 1.1//EN"
  "http://www.w3.org/Graphics/SVG/1.1/DTD/svg11.dtd">
<!-- Created with matplotlib (https://matplotlib.org/) -->
<svg height="288pt" version="1.1" viewBox="0 0 360 288" width="360pt" xmlns="http://www.w3.org/2000/svg" xmlns:xlink="http://www.w3.org/1999/xlink">
 <metadata>
  <rdf:RDF xmlns:cc="http://creativecommons.org/ns#" xmlns:dc="http://purl.org/dc/elements/1.1/" xmlns:rdf="http://www.w3.org/1999/02/22-rdf-syntax-ns#">
   <cc:Work>
    <dc:type rdf:resource="http://purl.org/dc/dcmitype/StillImage"/>
    <dc:date>2022-09-25T00:48:13.186094</dc:date>
    <dc:format>image/svg+xml</dc:format>
    <dc:creator>
     <cc:Agent>
      <dc:title>Matplotlib v3.3.4, https://matplotlib.org/</dc:title>
     </cc:Agent>
    </dc:creator>
   </cc:Work>
  </rdf:RDF>
 </metadata>
 <defs>
  <style type="text/css">*{stroke-linecap:butt;stroke-linejoin:round;}</style>
 </defs>
 <g id="figure_1">
  <g id="patch_1">
   <path d="M 0 288 
L 360 288 
L 360 0 
L 0 0 
z
" style="fill:none;"/>
  </g>
  <g id="axes_1">
   <g id="patch_2">
    <path d="M 70.15 244.1 
L 333.082955 244.1 
L 333.082955 18.9 
L 70.15 18.9 
z
" style="fill:#ffffff;"/>
   </g>
   <g id="PolyCollection_1">
    <path clip-path="url(#p210ed62ac9)" d="M 109.695111 233.863636 
L 102.313877 233.863636 
L 101.778604 233.463067 
L 101.196174 233.062498 
L 100.567123 232.661929 
L 99.892644 232.26136 
L 99.174561 231.860791 
L 98.415295 231.460222 
L 97.617812 231.059653 
L 96.785569 230.659083 
L 95.922468 230.258514 
L 95.032823 229.857945 
L 94.12135 229.457376 
L 93.193182 229.056807 
L 92.253909 228.656238 
L 91.309633 228.255669 
L 90.367035 227.8551 
L 89.433423 227.454531 
L 88.516768 227.053961 
L 87.625687 226.653392 
L 86.769376 226.252823 
L 85.957468 225.852254 
L 85.199829 225.451685 
L 84.506286 225.051116 
L 83.88629 224.650547 
L 83.34856 224.249978 
L 82.900693 223.849409 
L 82.548804 223.448839 
L 82.297196 223.04827 
L 82.148099 222.647701 
L 82.101498 222.247132 
L 82.155056 221.846563 
L 82.304155 221.445994 
L 82.542036 221.045425 
L 82.860053 220.644856 
L 83.248001 220.244287 
L 83.694521 219.843718 
L 84.187549 219.443148 
L 84.714784 219.042579 
L 85.264146 218.64201 
L 85.824217 218.241441 
L 86.384618 217.840872 
L 86.936329 217.440303 
L 87.471922 217.039734 
L 87.985708 216.639165 
L 88.473795 216.238596 
L 88.934053 215.838026 
L 89.366011 215.437457 
L 89.77067 215.036888 
L 90.150279 214.636319 
L 90.508072 214.23575 
L 90.847987 213.835181 
L 91.174392 213.434612 
L 91.491827 213.034043 
L 91.804781 212.633474 
L 92.117501 212.232904 
L 92.433849 211.832335 
L 92.757202 211.431766 
L 93.09038 211.031197 
L 93.43561 210.630628 
L 93.794501 210.230059 
L 94.168039 209.82949 
L 94.55657 209.428921 
L 94.959793 209.028352 
L 95.376743 208.627782 
L 95.805783 208.227213 
L 96.244602 207.826644 
L 96.690228 207.426075 
L 97.139085 207.025506 
L 97.58707 206.624937 
L 98.029689 206.224368 
L 98.462226 205.823799 
L 98.879955 205.42323 
L 99.278375 205.02266 
L 99.653456 204.622091 
L 100.001872 204.221522 
L 100.321202 203.820953 
L 100.61008 203.420384 
L 100.86828 203.019815 
L 101.096717 202.619246 
L 101.297384 202.218677 
L 101.473198 201.818108 
L 101.627805 201.417538 
L 101.765334 201.016969 
L 101.890136 200.6164 
L 102.006525 200.215831 
L 102.118548 199.815262 
L 102.229794 199.414693 
L 102.343258 199.014124 
L 102.461257 198.613555 
L 102.585416 198.212986 
L 102.716682 197.812416 
L 102.855399 197.411847 
L 103.001388 197.011278 
L 103.154053 196.610709 
L 103.312478 196.21014 
L 103.47552 195.809571 
L 103.641885 195.409002 
L 103.810191 195.008433 
L 103.979011 194.607864 
L 104.146907 194.207294 
L 107.862081 194.207294 
L 107.862081 194.207294 
L 108.029976 194.607864 
L 108.198796 195.008433 
L 108.367102 195.409002 
L 108.533467 195.809571 
L 108.696509 196.21014 
L 108.854934 196.610709 
L 109.007599 197.011278 
L 109.153589 197.411847 
L 109.292305 197.812416 
L 109.423572 198.212986 
L 109.54773 198.613555 
L 109.66573 199.014124 
L 109.779193 199.414693 
L 109.890439 199.815262 
L 110.002463 200.215831 
L 110.118852 200.6164 
L 110.243653 201.016969 
L 110.381183 201.417538 
L 110.53579 201.818108 
L 110.711604 202.218677 
L 110.91227 202.619246 
L 111.140708 203.019815 
L 111.398908 203.420384 
L 111.687786 203.820953 
L 112.007116 204.221522 
L 112.355532 204.622091 
L 112.730613 205.02266 
L 113.129033 205.42323 
L 113.546762 205.823799 
L 113.979299 206.224368 
L 114.421917 206.624937 
L 114.869903 207.025506 
L 115.318759 207.426075 
L 115.764386 207.826644 
L 116.203204 208.227213 
L 116.632245 208.627782 
L 117.049195 209.028352 
L 117.452417 209.428921 
L 117.840949 209.82949 
L 118.214486 210.230059 
L 118.573378 210.630628 
L 118.918607 211.031197 
L 119.251785 211.431766 
L 119.575138 211.832335 
L 119.891487 212.232904 
L 120.204206 212.633474 
L 120.51716 213.034043 
L 120.834596 213.434612 
L 121.161001 213.835181 
L 121.500916 214.23575 
L 121.858709 214.636319 
L 122.238318 215.036888 
L 122.642977 215.437457 
L 123.074934 215.838026 
L 123.535193 216.238596 
L 124.023279 216.639165 
L 124.537065 217.039734 
L 125.072658 217.440303 
L 125.62437 217.840872 
L 126.184771 218.241441 
L 126.744842 218.64201 
L 127.294204 219.042579 
L 127.821438 219.443148 
L 128.314466 219.843718 
L 128.760987 220.244287 
L 129.148934 220.644856 
L 129.466951 221.045425 
L 129.704833 221.445994 
L 129.853932 221.846563 
L 129.90749 222.247132 
L 129.860888 222.647701 
L 129.711791 223.04827 
L 129.460183 223.448839 
L 129.108294 223.849409 
L 128.660428 224.249978 
L 128.122697 224.650547 
L 127.502702 225.051116 
L 126.809158 225.451685 
L 126.05152 225.852254 
L 125.239612 226.252823 
L 124.3833 226.653392 
L 123.49222 227.053961 
L 122.575565 227.454531 
L 121.641953 227.8551 
L 120.699354 228.255669 
L 119.755079 228.656238 
L 118.815806 229.056807 
L 117.887638 229.457376 
L 116.976165 229.857945 
L 116.08652 230.258514 
L 115.223419 230.659083 
L 114.391175 231.059653 
L 113.593692 231.460222 
L 112.834426 231.860791 
L 112.116343 232.26136 
L 111.441864 232.661929 
L 110.812814 233.062498 
L 110.230384 233.463067 
L 109.695111 233.863636 
z
" style="fill:#1f77b4;fill-opacity:0.3;"/>
   </g>
   <g id="PolyCollection_2">
    <path clip-path="url(#p210ed62ac9)" d="M 205.021389 158.529661 
L 198.211565 158.529661 
L 197.903348 157.222658 
L 197.586913 155.915655 
L 197.260677 154.608652 
L 196.92239 153.301649 
L 196.569308 151.994646 
L 196.198417 150.687643 
L 195.806674 149.38064 
L 195.391243 148.073637 
L 194.949704 146.766634 
L 194.480203 145.459631 
L 193.981551 144.152628 
L 193.453255 142.845625 
L 192.895499 141.538622 
L 192.30909 140.231619 
L 191.695389 138.924616 
L 191.056241 137.617613 
L 190.393934 136.31061 
L 189.71118 135.003607 
L 189.011127 133.696604 
L 188.297393 132.389601 
L 187.574097 131.082598 
L 186.845886 129.775595 
L 186.11791 128.468592 
L 185.395763 127.161589 
L 184.685356 125.854586 
L 183.992736 124.547583 
L 183.323861 123.24058 
L 182.684341 121.933577 
L 182.07919 120.626574 
L 181.512585 119.319571 
L 180.987689 118.012568 
L 180.506528 116.705565 
L 180.069964 115.398562 
L 179.677738 114.091559 
L 179.328612 112.784556 
L 179.020569 111.477553 
L 178.751069 110.17055 
L 178.517336 108.863547 
L 178.316649 107.556544 
L 178.146599 106.249541 
L 178.005314 104.942538 
L 177.891598 103.635535 
L 177.804999 102.328532 
L 177.745786 101.021529 
L 177.71484 99.714526 
L 177.713481 98.407523 
L 177.743243 97.10052 
L 177.805634 95.793517 
L 177.901915 94.486514 
L 178.032912 93.179511 
L 178.19891 91.872508 
L 178.399614 90.565505 
L 178.634207 89.258502 
L 178.901479 87.951499 
L 179.200005 86.644496 
L 179.52836 85.337493 
L 179.885317 84.03049 
L 180.270007 82.723487 
L 180.682027 81.416484 
L 181.121447 80.109481 
L 181.588752 78.802478 
L 182.084693 77.495475 
L 182.610082 76.188472 
L 183.165554 74.881469 
L 183.751316 73.574466 
L 184.366938 72.267463 
L 185.011179 70.96046 
L 185.681902 69.653457 
L 186.376059 68.346454 
L 187.08977 67.039451 
L 187.818475 65.732448 
L 188.557135 64.425445 
L 189.300478 63.118442 
L 190.043233 61.811439 
L 190.780359 60.504436 
L 191.507216 59.197433 
L 192.219675 57.89043 
L 192.914173 56.583427 
L 193.587685 55.276424 
L 194.237658 53.969421 
L 194.861906 52.662418 
L 195.458491 51.355415 
L 196.025629 50.048412 
L 196.561621 48.741409 
L 197.064838 47.434406 
L 197.533754 46.127403 
L 197.967038 44.8204 
L 198.363668 43.513397 
L 198.723077 42.206394 
L 199.04528 40.899391 
L 199.33098 39.592388 
L 199.581622 38.285385 
L 199.799386 36.978382 
L 199.987121 35.671379 
L 200.148211 34.364376 
L 200.286399 33.057373 
L 200.405576 31.75037 
L 200.509569 30.443367 
L 200.601935 29.136364 
L 202.631019 29.136364 
L 202.631019 29.136364 
L 202.723385 30.443367 
L 202.827378 31.75037 
L 202.946556 33.057373 
L 203.084743 34.364376 
L 203.245833 35.671379 
L 203.433569 36.978382 
L 203.651333 38.285385 
L 203.901974 39.592388 
L 204.187674 40.899391 
L 204.509878 42.206394 
L 204.869287 43.513397 
L 205.265917 44.8204 
L 205.6992 46.127403 
L 206.168117 47.434406 
L 206.671334 48.741409 
L 207.207326 50.048412 
L 207.774464 51.355415 
L 208.371049 52.662418 
L 208.995296 53.969421 
L 209.64527 55.276424 
L 210.318782 56.583427 
L 211.013279 57.89043 
L 211.725739 59.197433 
L 212.452595 60.504436 
L 213.189721 61.811439 
L 213.932477 63.118442 
L 214.675819 64.425445 
L 215.41448 65.732448 
L 216.143184 67.039451 
L 216.856896 68.346454 
L 217.551053 69.653457 
L 218.221775 70.96046 
L 218.866017 72.267463 
L 219.481638 73.574466 
L 220.067401 74.881469 
L 220.622872 76.188472 
L 221.148262 77.495475 
L 221.644203 78.802478 
L 222.111508 80.109481 
L 222.550928 81.416484 
L 222.962947 82.723487 
L 223.347638 84.03049 
L 223.704594 85.337493 
L 224.03295 86.644496 
L 224.331476 87.951499 
L 224.598747 89.258502 
L 224.833341 90.565505 
L 225.034045 91.872508 
L 225.200042 93.179511 
L 225.33104 94.486514 
L 225.427321 95.793517 
L 225.489712 97.10052 
L 225.519473 98.407523 
L 225.518114 99.714526 
L 225.487169 101.021529 
L 225.427956 102.328532 
L 225.341357 103.635535 
L 225.227641 104.942538 
L 225.086355 106.249541 
L 224.916306 107.556544 
L 224.715618 108.863547 
L 224.481886 110.17055 
L 224.212386 111.477553 
L 223.904342 112.784556 
L 223.555217 114.091559 
L 223.162991 115.398562 
L 222.726426 116.705565 
L 222.245266 118.012568 
L 221.720369 119.319571 
L 221.153765 120.626574 
L 220.548613 121.933577 
L 219.909094 123.24058 
L 219.240218 124.547583 
L 218.547599 125.854586 
L 217.837192 127.161589 
L 217.115045 128.468592 
L 216.387069 129.775595 
L 215.658857 131.082598 
L 214.935562 132.389601 
L 214.221827 133.696604 
L 213.521774 135.003607 
L 212.83902 136.31061 
L 212.176713 137.617613 
L 211.537566 138.924616 
L 210.923864 140.231619 
L 210.337456 141.538622 
L 209.7797 142.845625 
L 209.251403 144.152628 
L 208.752751 145.459631 
L 208.28325 146.766634 
L 207.841711 148.073637 
L 207.426281 149.38064 
L 207.034538 150.687643 
L 206.663647 151.994646 
L 206.310565 153.301649 
L 205.972277 154.608652 
L 205.646041 155.915655 
L 205.329607 157.222658 
L 205.021389 158.529661 
z
" style="fill:#1f77b4;fill-opacity:0.3;"/>
   </g>
   <g id="PolyCollection_3">
    <path clip-path="url(#p210ed62ac9)" d="M 300.126507 215.498493 
L 294.330415 215.498493 
L 294.044094 215.097045 
L 293.747677 214.695596 
L 293.43904 214.294148 
L 293.114687 213.892699 
L 292.769714 213.49125 
L 292.397917 213.089802 
L 291.992028 212.688353 
L 291.544096 212.286905 
L 291.046005 211.885456 
L 290.490082 211.484008 
L 289.869785 211.082559 
L 289.180397 210.681111 
L 288.419682 210.279662 
L 287.58844 209.878214 
L 286.690897 209.476765 
L 285.734897 209.075317 
L 284.731844 208.673868 
L 283.696386 208.27242 
L 282.645847 207.870971 
L 281.599431 207.469522 
L 280.577244 207.068074 
L 279.599206 206.666625 
L 278.683925 206.265177 
L 277.847616 205.863728 
L 277.103157 205.46228 
L 276.45934 205.060831 
L 275.920399 204.659383 
L 275.485828 204.257934 
L 275.150517 203.856486 
L 274.9052 203.455037 
L 274.73717 203.053589 
L 274.631206 202.65214 
L 274.570659 202.250692 
L 274.53859 201.849243 
L 274.5189 201.447794 
L 274.497362 201.046346 
L 274.462486 200.644897 
L 274.406167 200.243449 
L 274.324071 199.842 
L 274.215753 199.440552 
L 274.084503 199.039103 
L 273.936952 198.637655 
L 273.782466 198.236206 
L 273.632398 197.834758 
L 273.499242 197.433309 
L 273.395768 197.031861 
L 273.334197 196.630412 
L 273.325465 196.228964 
L 273.378631 195.827515 
L 273.500457 195.426067 
L 273.695173 195.024618 
L 273.964429 194.623169 
L 274.307414 194.221721 
L 274.721121 193.820272 
L 275.200713 193.418824 
L 275.739944 193.017375 
L 276.331602 192.615927 
L 276.967923 192.214478 
L 277.64095 191.81303 
L 278.342814 191.411581 
L 279.065929 191.010133 
L 279.803101 190.608684 
L 280.547573 190.207236 
L 281.293017 189.805787 
L 282.033502 189.404339 
L 282.763474 189.00289 
L 283.477753 188.601441 
L 284.171566 188.199993 
L 284.840624 187.798544 
L 285.481237 187.397096 
L 286.09044 186.995647 
L 286.666126 186.594199 
L 287.207146 186.19275 
L 287.71337 185.791302 
L 288.185682 185.389853 
L 288.625898 184.988405 
L 289.036619 184.586956 
L 289.421029 184.185508 
L 289.782641 183.784059 
L 290.125046 183.382611 
L 290.451663 182.981162 
L 290.765534 182.579713 
L 291.069172 182.178265 
L 291.364488 181.776816 
L 291.65278 181.375368 
L 291.934796 180.973919 
L 292.210835 180.572471 
L 292.480895 180.171022 
L 292.744809 179.769574 
L 293.002387 179.368125 
L 293.253512 178.966677 
L 293.498203 178.565228 
L 293.736632 178.16378 
L 293.969095 177.762331 
L 294.195952 177.360883 
L 294.417548 176.959434 
L 294.634128 176.557986 
L 294.845756 176.156537 
L 295.052265 175.755088 
L 299.404657 175.755088 
L 299.404657 175.755088 
L 299.611166 176.156537 
L 299.822794 176.557986 
L 300.039373 176.959434 
L 300.260969 177.360883 
L 300.487827 177.762331 
L 300.720289 178.16378 
L 300.958718 178.565228 
L 301.20341 178.966677 
L 301.454535 179.368125 
L 301.712113 179.769574 
L 301.976027 180.171022 
L 302.246086 180.572471 
L 302.522126 180.973919 
L 302.804141 181.375368 
L 303.092434 181.776816 
L 303.38775 182.178265 
L 303.691388 182.579713 
L 304.005258 182.981162 
L 304.331875 183.382611 
L 304.67428 183.784059 
L 305.035893 184.185508 
L 305.420302 184.586956 
L 305.831024 184.988405 
L 306.271239 185.389853 
L 306.743551 185.791302 
L 307.249776 186.19275 
L 307.790796 186.594199 
L 308.366481 186.995647 
L 308.975684 187.397096 
L 309.616297 187.798544 
L 310.285356 188.199993 
L 310.979168 188.601441 
L 311.693447 189.00289 
L 312.42342 189.404339 
L 313.163905 189.805787 
L 313.909348 190.207236 
L 314.65382 190.608684 
L 315.390993 191.010133 
L 316.114108 191.411581 
L 316.815972 191.81303 
L 317.488999 192.214478 
L 318.12532 192.615927 
L 318.716978 193.017375 
L 319.256209 193.418824 
L 319.735801 193.820272 
L 320.149508 194.221721 
L 320.492493 194.623169 
L 320.761748 195.024618 
L 320.956464 195.426067 
L 321.078291 195.827515 
L 321.131457 196.228964 
L 321.122724 196.630412 
L 321.061153 197.031861 
L 320.95768 197.433309 
L 320.824523 197.834758 
L 320.674455 198.236206 
L 320.51997 198.637655 
L 320.372419 199.039103 
L 320.241169 199.440552 
L 320.13285 199.842 
L 320.050754 200.243449 
L 319.994435 200.644897 
L 319.95956 201.046346 
L 319.938022 201.447794 
L 319.918331 201.849243 
L 319.886262 202.250692 
L 319.825715 202.65214 
L 319.719752 203.053589 
L 319.551721 203.455037 
L 319.306405 203.856486 
L 318.971094 204.257934 
L 318.536522 204.659383 
L 317.997582 205.060831 
L 317.353765 205.46228 
L 316.609305 205.863728 
L 315.772996 206.265177 
L 314.857715 206.666625 
L 313.879678 207.068074 
L 312.857491 207.469522 
L 311.811074 207.870971 
L 310.760535 208.27242 
L 309.725077 208.673868 
L 308.722024 209.075317 
L 307.766024 209.476765 
L 306.868482 209.878214 
L 306.037239 210.279662 
L 305.276524 210.681111 
L 304.587136 211.082559 
L 303.966839 211.484008 
L 303.410917 211.885456 
L 302.912825 212.286905 
L 302.464894 212.688353 
L 302.059004 213.089802 
L 301.687207 213.49125 
L 301.342235 213.892699 
L 301.017881 214.294148 
L 300.709245 214.695596 
L 300.412827 215.097045 
L 300.126507 215.498493 
z
" style="fill:#1f77b4;fill-opacity:0.3;"/>
   </g>
   <g id="matplotlib.axis_1">
    <g id="xtick_1">
     <g id="line2d_1">
      <defs>
       <path d="M 0 0 
L 0 3.5 
" id="mc2d5f733cf" style="stroke:#000000;stroke-width:0.8;"/>
      </defs>
      <g>
       <use style="stroke:#000000;stroke-width:0.8;" x="106.004494" xlink:href="#mc2d5f733cf" y="244.1"/>
      </g>
     </g>
     <g id="text_1">
      <!-- Our Method -->
      <g transform="translate(54.375392 264.397266)scale(0.175 -0.175)">
       <defs>
        <path d="M 39.40625 66.21875 
Q 28.65625 66.21875 22.328125 58.203125 
Q 16.015625 50.203125 16.015625 36.375 
Q 16.015625 22.609375 22.328125 14.59375 
Q 28.65625 6.59375 39.40625 6.59375 
Q 50.140625 6.59375 56.421875 14.59375 
Q 62.703125 22.609375 62.703125 36.375 
Q 62.703125 50.203125 56.421875 58.203125 
Q 50.140625 66.21875 39.40625 66.21875 
z
M 39.40625 74.21875 
Q 54.734375 74.21875 63.90625 63.9375 
Q 73.09375 53.65625 73.09375 36.375 
Q 73.09375 19.140625 63.90625 8.859375 
Q 54.734375 -1.421875 39.40625 -1.421875 
Q 24.03125 -1.421875 14.8125 8.828125 
Q 5.609375 19.09375 5.609375 36.375 
Q 5.609375 53.65625 14.8125 63.9375 
Q 24.03125 74.21875 39.40625 74.21875 
z
" id="DejaVuSans-79"/>
        <path d="M 8.5 21.578125 
L 8.5 54.6875 
L 17.484375 54.6875 
L 17.484375 21.921875 
Q 17.484375 14.15625 20.5 10.265625 
Q 23.53125 6.390625 29.59375 6.390625 
Q 36.859375 6.390625 41.078125 11.03125 
Q 45.3125 15.671875 45.3125 23.6875 
L 45.3125 54.6875 
L 54.296875 54.6875 
L 54.296875 0 
L 45.3125 0 
L 45.3125 8.40625 
Q 42.046875 3.421875 37.71875 1 
Q 33.40625 -1.421875 27.6875 -1.421875 
Q 18.265625 -1.421875 13.375 4.4375 
Q 8.5 10.296875 8.5 21.578125 
z
M 31.109375 56 
z
" id="DejaVuSans-117"/>
        <path d="M 41.109375 46.296875 
Q 39.59375 47.171875 37.8125 47.578125 
Q 36.03125 48 33.890625 48 
Q 26.265625 48 22.1875 43.046875 
Q 18.109375 38.09375 18.109375 28.8125 
L 18.109375 0 
L 9.078125 0 
L 9.078125 54.6875 
L 18.109375 54.6875 
L 18.109375 46.1875 
Q 20.953125 51.171875 25.484375 53.578125 
Q 30.03125 56 36.53125 56 
Q 37.453125 56 38.578125 55.875 
Q 39.703125 55.765625 41.0625 55.515625 
z
" id="DejaVuSans-114"/>
        <path id="DejaVuSans-32"/>
        <path d="M 9.8125 72.90625 
L 24.515625 72.90625 
L 43.109375 23.296875 
L 61.8125 72.90625 
L 76.515625 72.90625 
L 76.515625 0 
L 66.890625 0 
L 66.890625 64.015625 
L 48.09375 14.015625 
L 38.1875 14.015625 
L 19.390625 64.015625 
L 19.390625 0 
L 9.8125 0 
z
" id="DejaVuSans-77"/>
        <path d="M 56.203125 29.59375 
L 56.203125 25.203125 
L 14.890625 25.203125 
Q 15.484375 15.921875 20.484375 11.0625 
Q 25.484375 6.203125 34.421875 6.203125 
Q 39.59375 6.203125 44.453125 7.46875 
Q 49.3125 8.734375 54.109375 11.28125 
L 54.109375 2.78125 
Q 49.265625 0.734375 44.1875 -0.34375 
Q 39.109375 -1.421875 33.890625 -1.421875 
Q 20.796875 -1.421875 13.15625 6.1875 
Q 5.515625 13.8125 5.515625 26.8125 
Q 5.515625 40.234375 12.765625 48.109375 
Q 20.015625 56 32.328125 56 
Q 43.359375 56 49.78125 48.890625 
Q 56.203125 41.796875 56.203125 29.59375 
z
M 47.21875 32.234375 
Q 47.125 39.59375 43.09375 43.984375 
Q 39.0625 48.390625 32.421875 48.390625 
Q 24.90625 48.390625 20.390625 44.140625 
Q 15.875 39.890625 15.1875 32.171875 
z
" id="DejaVuSans-101"/>
        <path d="M 18.3125 70.21875 
L 18.3125 54.6875 
L 36.8125 54.6875 
L 36.8125 47.703125 
L 18.3125 47.703125 
L 18.3125 18.015625 
Q 18.3125 11.328125 20.140625 9.421875 
Q 21.96875 7.515625 27.59375 7.515625 
L 36.8125 7.515625 
L 36.8125 0 
L 27.59375 0 
Q 17.1875 0 13.234375 3.875 
Q 9.28125 7.765625 9.28125 18.015625 
L 9.28125 47.703125 
L 2.6875 47.703125 
L 2.6875 54.6875 
L 9.28125 54.6875 
L 9.28125 70.21875 
z
" id="DejaVuSans-116"/>
        <path d="M 54.890625 33.015625 
L 54.890625 0 
L 45.90625 0 
L 45.90625 32.71875 
Q 45.90625 40.484375 42.875 44.328125 
Q 39.84375 48.1875 33.796875 48.1875 
Q 26.515625 48.1875 22.3125 43.546875 
Q 18.109375 38.921875 18.109375 30.90625 
L 18.109375 0 
L 9.078125 0 
L 9.078125 75.984375 
L 18.109375 75.984375 
L 18.109375 46.1875 
Q 21.34375 51.125 25.703125 53.5625 
Q 30.078125 56 35.796875 56 
Q 45.21875 56 50.046875 50.171875 
Q 54.890625 44.34375 54.890625 33.015625 
z
" id="DejaVuSans-104"/>
        <path d="M 30.609375 48.390625 
Q 23.390625 48.390625 19.1875 42.75 
Q 14.984375 37.109375 14.984375 27.296875 
Q 14.984375 17.484375 19.15625 11.84375 
Q 23.34375 6.203125 30.609375 6.203125 
Q 37.796875 6.203125 41.984375 11.859375 
Q 46.1875 17.53125 46.1875 27.296875 
Q 46.1875 37.015625 41.984375 42.703125 
Q 37.796875 48.390625 30.609375 48.390625 
z
M 30.609375 56 
Q 42.328125 56 49.015625 48.375 
Q 55.71875 40.765625 55.71875 27.296875 
Q 55.71875 13.875 49.015625 6.21875 
Q 42.328125 -1.421875 30.609375 -1.421875 
Q 18.84375 -1.421875 12.171875 6.21875 
Q 5.515625 13.875 5.515625 27.296875 
Q 5.515625 40.765625 12.171875 48.375 
Q 18.84375 56 30.609375 56 
z
" id="DejaVuSans-111"/>
        <path d="M 45.40625 46.390625 
L 45.40625 75.984375 
L 54.390625 75.984375 
L 54.390625 0 
L 45.40625 0 
L 45.40625 8.203125 
Q 42.578125 3.328125 38.25 0.953125 
Q 33.9375 -1.421875 27.875 -1.421875 
Q 17.96875 -1.421875 11.734375 6.484375 
Q 5.515625 14.40625 5.515625 27.296875 
Q 5.515625 40.1875 11.734375 48.09375 
Q 17.96875 56 27.875 56 
Q 33.9375 56 38.25 53.625 
Q 42.578125 51.265625 45.40625 46.390625 
z
M 14.796875 27.296875 
Q 14.796875 17.390625 18.875 11.75 
Q 22.953125 6.109375 30.078125 6.109375 
Q 37.203125 6.109375 41.296875 11.75 
Q 45.40625 17.390625 45.40625 27.296875 
Q 45.40625 37.203125 41.296875 42.84375 
Q 37.203125 48.484375 30.078125 48.484375 
Q 22.953125 48.484375 18.875 42.84375 
Q 14.796875 37.203125 14.796875 27.296875 
z
" id="DejaVuSans-100"/>
       </defs>
       <use xlink:href="#DejaVuSans-79"/>
       <use x="78.710938" xlink:href="#DejaVuSans-117"/>
       <use x="142.089844" xlink:href="#DejaVuSans-114"/>
       <use x="183.203125" xlink:href="#DejaVuSans-32"/>
       <use x="214.990234" xlink:href="#DejaVuSans-77"/>
       <use x="301.269531" xlink:href="#DejaVuSans-101"/>
       <use x="362.792969" xlink:href="#DejaVuSans-116"/>
       <use x="402.001953" xlink:href="#DejaVuSans-104"/>
       <use x="465.380859" xlink:href="#DejaVuSans-111"/>
       <use x="526.5625" xlink:href="#DejaVuSans-100"/>
      </g>
     </g>
    </g>
    <g id="xtick_2">
     <g id="line2d_2">
      <g>
       <use style="stroke:#000000;stroke-width:0.8;" x="201.616477" xlink:href="#mc2d5f733cf" y="244.1"/>
      </g>
     </g>
     <g id="text_2">
      <!-- Stein's -->
      <g transform="translate(172.308079 264.397266)scale(0.175 -0.175)">
       <defs>
        <path d="M 53.515625 70.515625 
L 53.515625 60.890625 
Q 47.90625 63.578125 42.921875 64.890625 
Q 37.9375 66.21875 33.296875 66.21875 
Q 25.25 66.21875 20.875 63.09375 
Q 16.5 59.96875 16.5 54.203125 
Q 16.5 49.359375 19.40625 46.890625 
Q 22.3125 44.4375 30.421875 42.921875 
L 36.375 41.703125 
Q 47.40625 39.59375 52.65625 34.296875 
Q 57.90625 29 57.90625 20.125 
Q 57.90625 9.515625 50.796875 4.046875 
Q 43.703125 -1.421875 29.984375 -1.421875 
Q 24.8125 -1.421875 18.96875 -0.25 
Q 13.140625 0.921875 6.890625 3.21875 
L 6.890625 13.375 
Q 12.890625 10.015625 18.65625 8.296875 
Q 24.421875 6.59375 29.984375 6.59375 
Q 38.421875 6.59375 43.015625 9.90625 
Q 47.609375 13.234375 47.609375 19.390625 
Q 47.609375 24.75 44.3125 27.78125 
Q 41.015625 30.8125 33.5 32.328125 
L 27.484375 33.5 
Q 16.453125 35.6875 11.515625 40.375 
Q 6.59375 45.0625 6.59375 53.421875 
Q 6.59375 63.09375 13.40625 68.65625 
Q 20.21875 74.21875 32.171875 74.21875 
Q 37.3125 74.21875 42.625 73.28125 
Q 47.953125 72.359375 53.515625 70.515625 
z
" id="DejaVuSans-83"/>
        <path d="M 9.421875 54.6875 
L 18.40625 54.6875 
L 18.40625 0 
L 9.421875 0 
z
M 9.421875 75.984375 
L 18.40625 75.984375 
L 18.40625 64.59375 
L 9.421875 64.59375 
z
" id="DejaVuSans-105"/>
        <path d="M 54.890625 33.015625 
L 54.890625 0 
L 45.90625 0 
L 45.90625 32.71875 
Q 45.90625 40.484375 42.875 44.328125 
Q 39.84375 48.1875 33.796875 48.1875 
Q 26.515625 48.1875 22.3125 43.546875 
Q 18.109375 38.921875 18.109375 30.90625 
L 18.109375 0 
L 9.078125 0 
L 9.078125 54.6875 
L 18.109375 54.6875 
L 18.109375 46.1875 
Q 21.34375 51.125 25.703125 53.5625 
Q 30.078125 56 35.796875 56 
Q 45.21875 56 50.046875 50.171875 
Q 54.890625 44.34375 54.890625 33.015625 
z
" id="DejaVuSans-110"/>
        <path d="M 17.921875 72.90625 
L 17.921875 45.796875 
L 9.625 45.796875 
L 9.625 72.90625 
z
" id="DejaVuSans-39"/>
        <path d="M 44.28125 53.078125 
L 44.28125 44.578125 
Q 40.484375 46.53125 36.375 47.5 
Q 32.28125 48.484375 27.875 48.484375 
Q 21.1875 48.484375 17.84375 46.4375 
Q 14.5 44.390625 14.5 40.28125 
Q 14.5 37.15625 16.890625 35.375 
Q 19.28125 33.59375 26.515625 31.984375 
L 29.59375 31.296875 
Q 39.15625 29.25 43.1875 25.515625 
Q 47.21875 21.78125 47.21875 15.09375 
Q 47.21875 7.46875 41.1875 3.015625 
Q 35.15625 -1.421875 24.609375 -1.421875 
Q 20.21875 -1.421875 15.453125 -0.5625 
Q 10.6875 0.296875 5.421875 2 
L 5.421875 11.28125 
Q 10.40625 8.6875 15.234375 7.390625 
Q 20.0625 6.109375 24.8125 6.109375 
Q 31.15625 6.109375 34.5625 8.28125 
Q 37.984375 10.453125 37.984375 14.40625 
Q 37.984375 18.0625 35.515625 20.015625 
Q 33.0625 21.96875 24.703125 23.78125 
L 21.578125 24.515625 
Q 13.234375 26.265625 9.515625 29.90625 
Q 5.8125 33.546875 5.8125 39.890625 
Q 5.8125 47.609375 11.28125 51.796875 
Q 16.75 56 26.8125 56 
Q 31.78125 56 36.171875 55.265625 
Q 40.578125 54.546875 44.28125 53.078125 
z
" id="DejaVuSans-115"/>
       </defs>
       <use xlink:href="#DejaVuSans-83"/>
       <use x="63.476562" xlink:href="#DejaVuSans-116"/>
       <use x="102.685547" xlink:href="#DejaVuSans-101"/>
       <use x="164.208984" xlink:href="#DejaVuSans-105"/>
       <use x="191.992188" xlink:href="#DejaVuSans-110"/>
       <use x="255.371094" xlink:href="#DejaVuSans-39"/>
       <use x="282.861328" xlink:href="#DejaVuSans-115"/>
      </g>
     </g>
    </g>
    <g id="xtick_3">
     <g id="line2d_3">
      <g>
       <use style="stroke:#000000;stroke-width:0.8;" x="297.228461" xlink:href="#mc2d5f733cf" y="244.1"/>
      </g>
     </g>
     <g id="text_3">
      <!-- Entry-wise -->
      <g transform="translate(251.415375 264.397266)scale(0.175 -0.175)">
       <defs>
        <path d="M 9.8125 72.90625 
L 55.90625 72.90625 
L 55.90625 64.59375 
L 19.671875 64.59375 
L 19.671875 43.015625 
L 54.390625 43.015625 
L 54.390625 34.71875 
L 19.671875 34.71875 
L 19.671875 8.296875 
L 56.78125 8.296875 
L 56.78125 0 
L 9.8125 0 
z
" id="DejaVuSans-69"/>
        <path d="M 32.171875 -5.078125 
Q 28.375 -14.84375 24.75 -17.8125 
Q 21.140625 -20.796875 15.09375 -20.796875 
L 7.90625 -20.796875 
L 7.90625 -13.28125 
L 13.1875 -13.28125 
Q 16.890625 -13.28125 18.9375 -11.515625 
Q 21 -9.765625 23.484375 -3.21875 
L 25.09375 0.875 
L 2.984375 54.6875 
L 12.5 54.6875 
L 29.59375 11.921875 
L 46.6875 54.6875 
L 56.203125 54.6875 
z
" id="DejaVuSans-121"/>
        <path d="M 4.890625 31.390625 
L 31.203125 31.390625 
L 31.203125 23.390625 
L 4.890625 23.390625 
z
" id="DejaVuSans-45"/>
        <path d="M 4.203125 54.6875 
L 13.1875 54.6875 
L 24.421875 12.015625 
L 35.59375 54.6875 
L 46.1875 54.6875 
L 57.421875 12.015625 
L 68.609375 54.6875 
L 77.59375 54.6875 
L 63.28125 0 
L 52.6875 0 
L 40.921875 44.828125 
L 29.109375 0 
L 18.5 0 
z
" id="DejaVuSans-119"/>
       </defs>
       <use xlink:href="#DejaVuSans-69"/>
       <use x="63.183594" xlink:href="#DejaVuSans-110"/>
       <use x="126.5625" xlink:href="#DejaVuSans-116"/>
       <use x="165.771484" xlink:href="#DejaVuSans-114"/>
       <use x="206.884766" xlink:href="#DejaVuSans-121"/>
       <use x="264.314453" xlink:href="#DejaVuSans-45"/>
       <use x="300.398438" xlink:href="#DejaVuSans-119"/>
       <use x="382.185547" xlink:href="#DejaVuSans-105"/>
       <use x="409.96875" xlink:href="#DejaVuSans-115"/>
       <use x="462.068359" xlink:href="#DejaVuSans-101"/>
      </g>
     </g>
    </g>
   </g>
   <g id="matplotlib.axis_2">
    <g id="ytick_1">
     <g id="line2d_4">
      <defs>
       <path d="M 0 0 
L -3.5 0 
" id="mef6fb274f1" style="stroke:#000000;stroke-width:0.8;"/>
      </defs>
      <g>
       <use style="stroke:#000000;stroke-width:0.8;" x="70.15" xlink:href="#mef6fb274f1" y="214.289592"/>
      </g>
     </g>
     <g id="text_4">
      <!-- 10 -->
      <g transform="translate(40.88125 220.938225)scale(0.175 -0.175)">
       <defs>
        <path d="M 12.40625 8.296875 
L 28.515625 8.296875 
L 28.515625 63.921875 
L 10.984375 60.40625 
L 10.984375 69.390625 
L 28.421875 72.90625 
L 38.28125 72.90625 
L 38.28125 8.296875 
L 54.390625 8.296875 
L 54.390625 0 
L 12.40625 0 
z
" id="DejaVuSans-49"/>
        <path d="M 31.78125 66.40625 
Q 24.171875 66.40625 20.328125 58.90625 
Q 16.5 51.421875 16.5 36.375 
Q 16.5 21.390625 20.328125 13.890625 
Q 24.171875 6.390625 31.78125 6.390625 
Q 39.453125 6.390625 43.28125 13.890625 
Q 47.125 21.390625 47.125 36.375 
Q 47.125 51.421875 43.28125 58.90625 
Q 39.453125 66.40625 31.78125 66.40625 
z
M 31.78125 74.21875 
Q 44.046875 74.21875 50.515625 64.515625 
Q 56.984375 54.828125 56.984375 36.375 
Q 56.984375 17.96875 50.515625 8.265625 
Q 44.046875 -1.421875 31.78125 -1.421875 
Q 19.53125 -1.421875 13.0625 8.265625 
Q 6.59375 17.96875 6.59375 36.375 
Q 6.59375 54.828125 13.0625 64.515625 
Q 19.53125 74.21875 31.78125 74.21875 
z
" id="DejaVuSans-48"/>
       </defs>
       <use xlink:href="#DejaVuSans-49"/>
       <use x="63.623047" xlink:href="#DejaVuSans-48"/>
      </g>
     </g>
    </g>
    <g id="ytick_2">
     <g id="line2d_5">
      <g>
       <use style="stroke:#000000;stroke-width:0.8;" x="70.15" xlink:href="#mef6fb274f1" y="152.361413"/>
      </g>
     </g>
     <g id="text_5">
      <!-- 20 -->
      <g transform="translate(40.88125 159.010046)scale(0.175 -0.175)">
       <defs>
        <path d="M 19.1875 8.296875 
L 53.609375 8.296875 
L 53.609375 0 
L 7.328125 0 
L 7.328125 8.296875 
Q 12.9375 14.109375 22.625 23.890625 
Q 32.328125 33.6875 34.8125 36.53125 
Q 39.546875 41.84375 41.421875 45.53125 
Q 43.3125 49.21875 43.3125 52.78125 
Q 43.3125 58.59375 39.234375 62.25 
Q 35.15625 65.921875 28.609375 65.921875 
Q 23.96875 65.921875 18.8125 64.3125 
Q 13.671875 62.703125 7.8125 59.421875 
L 7.8125 69.390625 
Q 13.765625 71.78125 18.9375 73 
Q 24.125 74.21875 28.421875 74.21875 
Q 39.75 74.21875 46.484375 68.546875 
Q 53.21875 62.890625 53.21875 53.421875 
Q 53.21875 48.921875 51.53125 44.890625 
Q 49.859375 40.875 45.40625 35.40625 
Q 44.1875 33.984375 37.640625 27.21875 
Q 31.109375 20.453125 19.1875 8.296875 
z
" id="DejaVuSans-50"/>
       </defs>
       <use xlink:href="#DejaVuSans-50"/>
       <use x="63.623047" xlink:href="#DejaVuSans-48"/>
      </g>
     </g>
    </g>
    <g id="ytick_3">
     <g id="line2d_6">
      <g>
       <use style="stroke:#000000;stroke-width:0.8;" x="70.15" xlink:href="#mef6fb274f1" y="90.433233"/>
      </g>
     </g>
     <g id="text_6">
      <!-- 30 -->
      <g transform="translate(40.88125 97.081866)scale(0.175 -0.175)">
       <defs>
        <path d="M 40.578125 39.3125 
Q 47.65625 37.796875 51.625 33 
Q 55.609375 28.21875 55.609375 21.1875 
Q 55.609375 10.40625 48.1875 4.484375 
Q 40.765625 -1.421875 27.09375 -1.421875 
Q 22.515625 -1.421875 17.65625 -0.515625 
Q 12.796875 0.390625 7.625 2.203125 
L 7.625 11.71875 
Q 11.71875 9.328125 16.59375 8.109375 
Q 21.484375 6.890625 26.8125 6.890625 
Q 36.078125 6.890625 40.9375 10.546875 
Q 45.796875 14.203125 45.796875 21.1875 
Q 45.796875 27.640625 41.28125 31.265625 
Q 36.765625 34.90625 28.71875 34.90625 
L 20.21875 34.90625 
L 20.21875 43.015625 
L 29.109375 43.015625 
Q 36.375 43.015625 40.234375 45.921875 
Q 44.09375 48.828125 44.09375 54.296875 
Q 44.09375 59.90625 40.109375 62.90625 
Q 36.140625 65.921875 28.71875 65.921875 
Q 24.65625 65.921875 20.015625 65.03125 
Q 15.375 64.15625 9.8125 62.3125 
L 9.8125 71.09375 
Q 15.4375 72.65625 20.34375 73.4375 
Q 25.25 74.21875 29.59375 74.21875 
Q 40.828125 74.21875 47.359375 69.109375 
Q 53.90625 64.015625 53.90625 55.328125 
Q 53.90625 49.265625 50.4375 45.09375 
Q 46.96875 40.921875 40.578125 39.3125 
z
" id="DejaVuSans-51"/>
       </defs>
       <use xlink:href="#DejaVuSans-51"/>
       <use x="63.623047" xlink:href="#DejaVuSans-48"/>
      </g>
     </g>
    </g>
    <g id="ytick_4">
     <g id="line2d_7">
      <g>
       <use style="stroke:#000000;stroke-width:0.8;" x="70.15" xlink:href="#mef6fb274f1" y="28.505054"/>
      </g>
     </g>
     <g id="text_7">
      <!-- 40 -->
      <g transform="translate(40.88125 35.153686)scale(0.175 -0.175)">
       <defs>
        <path d="M 37.796875 64.3125 
L 12.890625 25.390625 
L 37.796875 25.390625 
z
M 35.203125 72.90625 
L 47.609375 72.90625 
L 47.609375 25.390625 
L 58.015625 25.390625 
L 58.015625 17.1875 
L 47.609375 17.1875 
L 47.609375 0 
L 37.796875 0 
L 37.796875 17.1875 
L 4.890625 17.1875 
L 4.890625 26.703125 
z
" id="DejaVuSans-52"/>
       </defs>
       <use xlink:href="#DejaVuSans-52"/>
       <use x="63.623047" xlink:href="#DejaVuSans-48"/>
      </g>
     </g>
    </g>
    <g id="text_8">
     <!-- Estimation Error -->
     <g transform="translate(33.241797 202.198633)rotate(-90)scale(0.175 -0.175)">
      <defs>
       <path d="M 52 44.1875 
Q 55.375 50.25 60.0625 53.125 
Q 64.75 56 71.09375 56 
Q 79.640625 56 84.28125 50.015625 
Q 88.921875 44.046875 88.921875 33.015625 
L 88.921875 0 
L 79.890625 0 
L 79.890625 32.71875 
Q 79.890625 40.578125 77.09375 44.375 
Q 74.3125 48.1875 68.609375 48.1875 
Q 61.625 48.1875 57.5625 43.546875 
Q 53.515625 38.921875 53.515625 30.90625 
L 53.515625 0 
L 44.484375 0 
L 44.484375 32.71875 
Q 44.484375 40.625 41.703125 44.40625 
Q 38.921875 48.1875 33.109375 48.1875 
Q 26.21875 48.1875 22.15625 43.53125 
Q 18.109375 38.875 18.109375 30.90625 
L 18.109375 0 
L 9.078125 0 
L 9.078125 54.6875 
L 18.109375 54.6875 
L 18.109375 46.1875 
Q 21.1875 51.21875 25.484375 53.609375 
Q 29.78125 56 35.6875 56 
Q 41.65625 56 45.828125 52.96875 
Q 50 49.953125 52 44.1875 
z
" id="DejaVuSans-109"/>
       <path d="M 34.28125 27.484375 
Q 23.390625 27.484375 19.1875 25 
Q 14.984375 22.515625 14.984375 16.5 
Q 14.984375 11.71875 18.140625 8.90625 
Q 21.296875 6.109375 26.703125 6.109375 
Q 34.1875 6.109375 38.703125 11.40625 
Q 43.21875 16.703125 43.21875 25.484375 
L 43.21875 27.484375 
z
M 52.203125 31.203125 
L 52.203125 0 
L 43.21875 0 
L 43.21875 8.296875 
Q 40.140625 3.328125 35.546875 0.953125 
Q 30.953125 -1.421875 24.3125 -1.421875 
Q 15.921875 -1.421875 10.953125 3.296875 
Q 6 8.015625 6 15.921875 
Q 6 25.140625 12.171875 29.828125 
Q 18.359375 34.515625 30.609375 34.515625 
L 43.21875 34.515625 
L 43.21875 35.40625 
Q 43.21875 41.609375 39.140625 45 
Q 35.0625 48.390625 27.6875 48.390625 
Q 23 48.390625 18.546875 47.265625 
Q 14.109375 46.140625 10.015625 43.890625 
L 10.015625 52.203125 
Q 14.9375 54.109375 19.578125 55.046875 
Q 24.21875 56 28.609375 56 
Q 40.484375 56 46.34375 49.84375 
Q 52.203125 43.703125 52.203125 31.203125 
z
" id="DejaVuSans-97"/>
      </defs>
      <use xlink:href="#DejaVuSans-69"/>
      <use x="63.183594" xlink:href="#DejaVuSans-115"/>
      <use x="115.283203" xlink:href="#DejaVuSans-116"/>
      <use x="154.492188" xlink:href="#DejaVuSans-105"/>
      <use x="182.275391" xlink:href="#DejaVuSans-109"/>
      <use x="279.6875" xlink:href="#DejaVuSans-97"/>
      <use x="340.966797" xlink:href="#DejaVuSans-116"/>
      <use x="380.175781" xlink:href="#DejaVuSans-105"/>
      <use x="407.958984" xlink:href="#DejaVuSans-111"/>
      <use x="469.140625" xlink:href="#DejaVuSans-110"/>
      <use x="532.519531" xlink:href="#DejaVuSans-32"/>
      <use x="564.306641" xlink:href="#DejaVuSans-69"/>
      <use x="627.490234" xlink:href="#DejaVuSans-114"/>
      <use x="666.853516" xlink:href="#DejaVuSans-114"/>
      <use x="705.716797" xlink:href="#DejaVuSans-111"/>
      <use x="766.898438" xlink:href="#DejaVuSans-114"/>
     </g>
    </g>
   </g>
   <g id="LineCollection_1">
    <path clip-path="url(#p210ed62ac9)" d="M 94.052996 194.207294 
L 117.955992 194.207294 
" style="fill:none;stroke:#1f77b4;stroke-width:1.5;"/>
    <path clip-path="url(#p210ed62ac9)" d="M 189.664979 29.136364 
L 213.567975 29.136364 
" style="fill:none;stroke:#1f77b4;stroke-width:1.5;"/>
    <path clip-path="url(#p210ed62ac9)" d="M 285.276963 175.755088 
L 309.179959 175.755088 
" style="fill:none;stroke:#1f77b4;stroke-width:1.5;"/>
   </g>
   <g id="LineCollection_2">
    <path clip-path="url(#p210ed62ac9)" d="M 94.052996 233.863636 
L 117.955992 233.863636 
" style="fill:none;stroke:#1f77b4;stroke-width:1.5;"/>
    <path clip-path="url(#p210ed62ac9)" d="M 189.664979 158.529661 
L 213.567975 158.529661 
" style="fill:none;stroke:#1f77b4;stroke-width:1.5;"/>
    <path clip-path="url(#p210ed62ac9)" d="M 285.276963 215.498493 
L 309.179959 215.498493 
" style="fill:none;stroke:#1f77b4;stroke-width:1.5;"/>
   </g>
   <g id="LineCollection_3">
    <path clip-path="url(#p210ed62ac9)" d="M 106.004494 233.863636 
L 106.004494 194.207294 
" style="fill:none;stroke:#1f77b4;stroke-width:1.5;"/>
    <path clip-path="url(#p210ed62ac9)" d="M 201.616477 158.529661 
L 201.616477 29.136364 
" style="fill:none;stroke:#1f77b4;stroke-width:1.5;"/>
    <path clip-path="url(#p210ed62ac9)" d="M 297.228461 215.498493 
L 297.228461 175.755088 
" style="fill:none;stroke:#1f77b4;stroke-width:1.5;"/>
   </g>
   <g id="patch_3">
    <path d="M 70.15 244.1 
L 70.15 18.9 
" style="fill:none;stroke:#000000;stroke-linecap:square;stroke-linejoin:miter;stroke-width:0.8;"/>
   </g>
   <g id="patch_4">
    <path d="M 333.082955 244.1 
L 333.082955 18.9 
" style="fill:none;stroke:#000000;stroke-linecap:square;stroke-linejoin:miter;stroke-width:0.8;"/>
   </g>
   <g id="patch_5">
    <path d="M 70.15 244.1 
L 333.082955 244.1 
" style="fill:none;stroke:#000000;stroke-linecap:square;stroke-linejoin:miter;stroke-width:0.8;"/>
   </g>
   <g id="patch_6">
    <path d="M 70.15 18.9 
L 333.082955 18.9 
" style="fill:none;stroke:#000000;stroke-linecap:square;stroke-linejoin:miter;stroke-width:0.8;"/>
   </g>
  </g>
 </g>
 <defs>
  <clipPath id="p210ed62ac9">
   <rect height="225.2" width="262.932955" x="70.15" y="18.9"/>
  </clipPath>
 </defs>
</svg>
