<?xml version="1.0" encoding="utf-8" standalone="no"?>
<!DOCTYPE svg PUBLIC "-//W3C//DTD SVG 1.1//EN"
  "http://www.w3.org/Graphics/SVG/1.1/DTD/svg11.dtd">
<!-- Created with matplotlib (https://matplotlib.org/) -->
<svg height="288pt" version="1.1" viewBox="0 0 360 288" width="360pt" xmlns="http://www.w3.org/2000/svg" xmlns:xlink="http://www.w3.org/1999/xlink">
 <metadata>
  <rdf:RDF xmlns:cc="http://creativecommons.org/ns#" xmlns:dc="http://purl.org/dc/elements/1.1/" xmlns:rdf="http://www.w3.org/1999/02/22-rdf-syntax-ns#">
   <cc:Work>
    <dc:type rdf:resource="http://purl.org/dc/dcmitype/StillImage"/>
    <dc:date>2022-09-25T00:48:13.096335</dc:date>
    <dc:format>image/svg+xml</dc:format>
    <dc:creator>
     <cc:Agent>
      <dc:title>Matplotlib v3.3.4, https://matplotlib.org/</dc:title>
     </cc:Agent>
    </dc:creator>
   </cc:Work>
  </rdf:RDF>
 </metadata>
 <defs>
  <style type="text/css">*{stroke-linecap:butt;stroke-linejoin:round;}</style>
 </defs>
 <g id="figure_1">
  <g id="patch_1">
   <path d="M 0 288 
L 360 288 
L 360 0 
L 0 0 
z
" style="fill:none;"/>
  </g>
  <g id="axes_1">
   <g id="patch_2">
    <path d="M 75.65 244.1 
L 333.082955 244.1 
L 333.082955 18.9 
L 75.65 18.9 
z
" style="fill:#ffffff;"/>
   </g>
   <g id="PolyCollection_1">
    <path clip-path="url(#pb902896a4b)" d="M 112.494078 233.863636 
L 109.014909 233.863636 
L 108.73591 233.129838 
L 108.423861 232.39604 
L 108.074543 231.662242 
L 107.683229 230.928444 
L 107.244825 230.194646 
L 106.754052 229.460847 
L 106.205674 228.727049 
L 105.59475 227.993251 
L 104.916915 227.259453 
L 104.168682 226.525655 
L 103.347772 225.791857 
L 102.453463 225.058059 
L 101.486981 224.32426 
L 100.451906 223.590462 
L 99.354603 222.856664 
L 98.204637 222.122866 
L 97.015113 221.389068 
L 95.802855 220.65527 
L 94.588316 219.921471 
L 93.395117 219.187673 
L 92.249143 218.453875 
L 91.177171 217.720077 
L 90.205113 216.986279 
L 89.356035 216.252481 
L 88.648195 215.518683 
L 88.093391 214.784884 
L 87.695893 214.051086 
L 87.452171 213.317288 
L 87.351498 212.58349 
L 87.37738 211.849692 
L 87.509596 211.115894 
L 87.726544 210.382095 
L 88.007502 209.648297 
L 88.33447 208.914499 
L 88.693309 208.180701 
L 89.074038 207.446903 
L 89.470342 206.713105 
L 89.878444 205.979307 
L 90.295665 205.245508 
L 90.719022 204.51171 
L 91.14419 203.777912 
L 91.565096 203.044114 
L 91.974234 202.310316 
L 92.363672 201.576518 
L 92.726537 200.842719 
L 93.058692 200.108921 
L 93.360249 199.375123 
L 93.636607 198.641325 
L 93.898774 197.907527 
L 94.162875 197.173729 
L 94.448872 196.439931 
L 94.778646 195.706132 
L 95.173716 194.972334 
L 95.652869 194.238536 
L 96.230009 193.504738 
L 96.912495 192.77094 
L 97.70013 192.037142 
L 98.584916 191.303343 
L 99.551569 190.569545 
L 100.578716 189.835747 
L 101.640612 189.101949 
L 102.709189 188.368151 
L 103.756217 187.634353 
L 104.755348 186.900555 
L 105.683878 186.166756 
L 106.524066 185.432958 
L 107.263939 184.69916 
L 107.897568 183.965362 
L 108.424824 183.231564 
L 108.850726 182.497766 
L 109.184455 181.763967 
L 109.438186 181.030169 
L 109.625838 180.296371 
L 109.761858 179.562573 
L 109.860143 178.828775 
L 109.933155 178.094977 
L 109.991278 177.361179 
L 110.042447 176.62738 
L 110.092032 175.893582 
L 110.142959 175.159784 
L 110.196014 174.425986 
L 110.25028 173.692188 
L 110.303651 172.95839 
L 110.353341 172.224591 
L 110.396372 171.490793 
L 110.429978 170.756995 
L 110.451935 170.023197 
L 110.460789 169.289399 
L 110.456007 168.555601 
L 110.438045 167.821803 
L 110.408347 167.088004 
L 110.369274 166.354206 
L 110.323961 165.620408 
L 110.27611 164.88661 
L 110.229711 164.152812 
L 110.188725 163.419014 
L 110.15674 162.685215 
L 110.136651 161.951417 
L 110.13039 161.217619 
L 111.378597 161.217619 
L 111.378597 161.217619 
L 111.372336 161.951417 
L 111.352247 162.685215 
L 111.320263 163.419014 
L 111.279277 164.152812 
L 111.232878 164.88661 
L 111.185026 165.620408 
L 111.139714 166.354206 
L 111.10064 167.088004 
L 111.070942 167.821803 
L 111.052981 168.555601 
L 111.048199 169.289399 
L 111.057053 170.023197 
L 111.07901 170.756995 
L 111.112616 171.490793 
L 111.155646 172.224591 
L 111.205337 172.95839 
L 111.258707 173.692188 
L 111.312974 174.425986 
L 111.366028 175.159784 
L 111.416955 175.893582 
L 111.466541 176.62738 
L 111.51771 177.361179 
L 111.575833 178.094977 
L 111.648844 178.828775 
L 111.74713 179.562573 
L 111.88315 180.296371 
L 112.070801 181.030169 
L 112.324533 181.763967 
L 112.658262 182.497766 
L 113.084163 183.231564 
L 113.61142 183.965362 
L 114.245048 184.69916 
L 114.984922 185.432958 
L 115.825109 186.166756 
L 116.753639 186.900555 
L 117.752771 187.634353 
L 118.799798 188.368151 
L 119.868376 189.101949 
L 120.930271 189.835747 
L 121.957418 190.569545 
L 122.924072 191.303343 
L 123.808858 192.037142 
L 124.596492 192.77094 
L 125.278978 193.504738 
L 125.856119 194.238536 
L 126.335271 194.972334 
L 126.730342 195.706132 
L 127.060116 196.439931 
L 127.346112 197.173729 
L 127.610214 197.907527 
L 127.872381 198.641325 
L 128.148739 199.375123 
L 128.450296 200.108921 
L 128.782451 200.842719 
L 129.145316 201.576518 
L 129.534754 202.310316 
L 129.943892 203.044114 
L 130.364798 203.777912 
L 130.789966 204.51171 
L 131.213322 205.245508 
L 131.630544 205.979307 
L 132.038645 206.713105 
L 132.434949 207.446903 
L 132.815679 208.180701 
L 133.174517 208.914499 
L 133.501486 209.648297 
L 133.782444 210.382095 
L 133.999391 211.115894 
L 134.131608 211.849692 
L 134.15749 212.58349 
L 134.056817 213.317288 
L 133.813094 214.051086 
L 133.415597 214.784884 
L 132.860792 215.518683 
L 132.152952 216.252481 
L 131.303874 216.986279 
L 130.331816 217.720077 
L 129.259844 218.453875 
L 128.11387 219.187673 
L 126.920672 219.921471 
L 125.706132 220.65527 
L 124.493874 221.389068 
L 123.304351 222.122866 
L 122.154385 222.856664 
L 121.057081 223.590462 
L 120.022006 224.32426 
L 119.055524 225.058059 
L 118.161216 225.791857 
L 117.340305 226.525655 
L 116.592072 227.259453 
L 115.914237 227.993251 
L 115.303314 228.727049 
L 114.754936 229.460847 
L 114.264163 230.194646 
L 113.825759 230.928444 
L 113.434445 231.662242 
L 113.085127 232.39604 
L 112.773077 233.129838 
L 112.494078 233.863636 
z
" style="fill:#1f77b4;fill-opacity:0.3;"/>
   </g>
   <g id="PolyCollection_2">
    <path clip-path="url(#pb902896a4b)" d="M 209.499622 196.682281 
L 199.233332 196.682281 
L 198.613944 194.989898 
L 197.971979 193.297515 
L 197.312579 191.605132 
L 196.640774 189.912749 
L 195.961232 188.220366 
L 195.278037 186.527983 
L 194.594506 184.8356 
L 193.913076 183.143217 
L 193.235264 181.450834 
L 192.561711 179.758451 
L 191.892314 178.066068 
L 191.226435 176.373685 
L 190.563162 174.681302 
L 189.901615 172.988919 
L 189.241242 171.296536 
L 188.58209 169.604153 
L 187.925019 167.91177 
L 187.27182 166.219387 
L 186.62525 164.527004 
L 185.988961 162.834621 
L 185.367355 161.142238 
L 184.765378 159.449855 
L 184.188305 157.757472 
L 183.64153 156.065089 
L 183.130419 154.372706 
L 182.660236 152.680323 
L 182.236147 150.98794 
L 181.863307 149.295557 
L 181.546997 147.603174 
L 181.292764 145.910791 
L 181.106527 144.218408 
L 180.994582 142.526025 
L 180.963481 140.833642 
L 181.019744 139.141259 
L 181.169406 137.448876 
L 181.417423 135.756493 
L 181.766989 134.06411 
L 182.218827 132.371727 
L 182.770543 130.679344 
L 183.41615 128.986961 
L 184.145808 127.294578 
L 184.945877 125.602195 
L 185.799296 123.909812 
L 186.686283 122.217429 
L 187.585331 120.525046 
L 188.474414 118.832663 
L 189.332307 117.14028 
L 190.139915 115.447897 
L 190.881471 113.755514 
L 191.54552 112.063131 
L 192.125586 110.370748 
L 192.62046 108.678365 
L 193.034101 106.985982 
L 193.375148 105.293599 
L 193.656103 103.601216 
L 193.89225 101.908833 
L 194.100423 100.21645 
L 194.297708 98.524067 
L 194.50021 96.831684 
L 194.721963 95.139301 
L 194.974072 93.446918 
L 195.264129 91.754535 
L 195.595943 90.062152 
L 195.969574 88.369769 
L 196.381636 86.677386 
L 196.82584 84.985003 
L 197.293694 83.29262 
L 197.775298 81.600237 
L 198.260171 79.907854 
L 198.738023 78.215471 
L 199.199442 76.523088 
L 199.636431 74.830705 
L 200.042788 73.138322 
L 200.414308 71.445939 
L 200.748816 69.753556 
L 201.046053 68.061173 
L 201.307427 66.36879 
L 201.53569 64.676407 
L 201.734542 62.984024 
L 201.908234 61.291641 
L 202.06118 59.599258 
L 202.197615 57.906875 
L 202.321321 56.214492 
L 202.43544 54.522109 
L 202.542368 52.829726 
L 202.643744 51.137343 
L 202.740508 49.44496 
L 202.833033 47.752577 
L 202.92128 46.060194 
L 203.004989 44.367811 
L 203.083851 42.675428 
L 203.157667 40.983045 
L 203.22645 39.290662 
L 203.290492 37.598279 
L 203.350364 35.905896 
L 203.406877 34.213513 
L 203.460994 32.52113 
L 203.513725 30.828747 
L 203.566015 29.136364 
L 205.16694 29.136364 
L 205.16694 29.136364 
L 205.219229 30.828747 
L 205.271961 32.52113 
L 205.326078 34.213513 
L 205.38259 35.905896 
L 205.442463 37.598279 
L 205.506505 39.290662 
L 205.575288 40.983045 
L 205.649103 42.675428 
L 205.727966 44.367811 
L 205.811675 46.060194 
L 205.899922 47.752577 
L 205.992446 49.44496 
L 206.089211 51.137343 
L 206.190586 52.829726 
L 206.297514 54.522109 
L 206.411633 56.214492 
L 206.53534 57.906875 
L 206.671774 59.599258 
L 206.824721 61.291641 
L 206.998413 62.984024 
L 207.197265 64.676407 
L 207.425527 66.36879 
L 207.686902 68.061173 
L 207.984138 69.753556 
L 208.318647 71.445939 
L 208.690167 73.138322 
L 209.096524 74.830705 
L 209.533513 76.523088 
L 209.994931 78.215471 
L 210.472784 79.907854 
L 210.957657 81.600237 
L 211.439261 83.29262 
L 211.907114 84.985003 
L 212.351318 86.677386 
L 212.763381 88.369769 
L 213.137011 90.062152 
L 213.468826 91.754535 
L 213.758882 93.446918 
L 214.010991 95.139301 
L 214.232745 96.831684 
L 214.435247 98.524067 
L 214.632532 100.21645 
L 214.840704 101.908833 
L 215.076852 103.601216 
L 215.357806 105.293599 
L 215.698853 106.985982 
L 216.112494 108.678365 
L 216.607369 110.370748 
L 217.187435 112.063131 
L 217.851484 113.755514 
L 218.59304 115.447897 
L 219.400647 117.14028 
L 220.258541 118.832663 
L 221.147623 120.525046 
L 222.046672 122.217429 
L 222.933659 123.909812 
L 223.787077 125.602195 
L 224.587147 127.294578 
L 225.316805 128.986961 
L 225.962411 130.679344 
L 226.514128 132.371727 
L 226.965965 134.06411 
L 227.315532 135.756493 
L 227.563549 137.448876 
L 227.71321 139.141259 
L 227.769473 140.833642 
L 227.738372 142.526025 
L 227.626428 144.218408 
L 227.44019 145.910791 
L 227.185958 147.603174 
L 226.869648 149.295557 
L 226.496808 150.98794 
L 226.072718 152.680323 
L 225.602535 154.372706 
L 225.091425 156.065089 
L 224.54465 157.757472 
L 223.967576 159.449855 
L 223.3656 161.142238 
L 222.743993 162.834621 
L 222.107705 164.527004 
L 221.461135 166.219387 
L 220.807936 167.91177 
L 220.150864 169.604153 
L 219.491713 171.296536 
L 218.831339 172.988919 
L 218.169792 174.681302 
L 217.50652 176.373685 
L 216.84064 178.066068 
L 216.171244 179.758451 
L 215.497691 181.450834 
L 214.819878 183.143217 
L 214.138449 184.8356 
L 213.454918 186.527983 
L 212.771723 188.220366 
L 212.092181 189.912749 
L 211.420376 191.605132 
L 210.760976 193.297515 
L 210.119011 194.989898 
L 209.499622 196.682281 
z
" style="fill:#1f77b4;fill-opacity:0.3;"/>
   </g>
   <g id="PolyCollection_3">
    <path clip-path="url(#pb902896a4b)" d="M 300.850916 226.966461 
L 295.106005 226.966461 
L 294.792237 226.463902 
L 294.465432 225.961343 
L 294.119691 225.458784 
L 293.747497 224.956225 
L 293.340576 224.453666 
L 292.890971 223.951107 
L 292.392151 223.448548 
L 291.840017 222.945989 
L 291.233624 222.44343 
L 290.575523 221.940871 
L 289.871665 221.438312 
L 289.130879 220.935753 
L 288.363995 220.433194 
L 287.582758 219.930635 
L 286.798663 219.428076 
L 286.021893 218.925517 
L 285.260477 218.422958 
L 284.519787 217.920399 
L 283.802405 217.41784 
L 283.108358 216.915281 
L 282.435654 216.412722 
L 281.781018 215.910163 
L 281.140719 215.407604 
L 280.511356 214.905045 
L 279.890523 214.402486 
L 279.277305 213.899927 
L 278.672575 213.397368 
L 278.07914 212.894809 
L 277.501773 212.39225 
L 276.947158 211.889691 
L 276.423793 211.387132 
L 275.941816 210.884573 
L 275.512737 210.382014 
L 275.149019 209.879455 
L 274.863486 209.376896 
L 274.66857 208.874337 
L 274.575465 208.371778 
L 274.59328 207.869219 
L 274.728342 207.36666 
L 274.983739 206.864101 
L 275.359194 206.361542 
L 275.851249 205.858983 
L 276.453691 205.356424 
L 277.158112 204.853865 
L 277.954441 204.351306 
L 278.831369 203.848747 
L 279.776599 203.346188 
L 280.776948 202.843629 
L 281.81838 202.34107 
L 282.886065 201.838511 
L 283.964581 201.335952 
L 285.03828 200.833393 
L 286.09184 200.330834 
L 287.110938 199.828275 
L 288.082935 199.325716 
L 288.997486 198.823157 
L 289.846987 198.320598 
L 290.626807 197.818039 
L 291.335304 197.31548 
L 291.973645 196.812921 
L 292.54547 196.310362 
L 293.056435 195.807803 
L 293.513684 195.305244 
L 293.925243 194.802685 
L 294.299402 194.300126 
L 294.644077 193.797567 
L 294.966237 193.295008 
L 295.271416 192.792449 
L 295.563396 192.28989 
L 295.844087 191.787331 
L 296.113626 191.284772 
L 296.370693 190.782214 
L 296.612962 190.279655 
L 296.837649 189.777096 
L 297.042039 189.274537 
L 297.223938 188.771978 
L 297.381977 188.269419 
L 297.515751 187.76686 
L 297.625791 187.264301 
L 297.713412 186.761742 
L 297.780465 186.259183 
L 297.829069 185.756624 
L 297.861352 185.254065 
L 297.879255 184.751506 
L 297.884408 184.248947 
L 297.878105 183.746388 
L 297.861359 183.243829 
L 297.835025 182.74127 
L 297.799971 182.238711 
L 297.75726 181.736152 
L 297.708316 181.233593 
L 297.655029 180.731034 
L 297.59979 180.228475 
L 297.545424 179.725916 
L 297.495032 179.223357 
L 297.451749 178.720798 
L 297.418452 178.218239 
L 297.397465 177.71568 
L 297.3903 177.213121 
L 298.566622 177.213121 
L 298.566622 177.213121 
L 298.559456 177.71568 
L 298.538469 178.218239 
L 298.505172 178.720798 
L 298.46189 179.223357 
L 298.411498 179.725916 
L 298.357132 180.228475 
L 298.301892 180.731034 
L 298.248605 181.233593 
L 298.199661 181.736152 
L 298.156951 182.238711 
L 298.121897 182.74127 
L 298.095562 183.243829 
L 298.078816 183.746388 
L 298.072514 184.248947 
L 298.077667 184.751506 
L 298.095569 185.254065 
L 298.127853 185.756624 
L 298.176457 186.259183 
L 298.24351 186.761742 
L 298.33113 187.264301 
L 298.441171 187.76686 
L 298.574944 188.269419 
L 298.732983 188.771978 
L 298.914882 189.274537 
L 299.119273 189.777096 
L 299.343959 190.279655 
L 299.586229 190.782214 
L 299.843295 191.284772 
L 300.112835 191.787331 
L 300.393525 192.28989 
L 300.685505 192.792449 
L 300.990685 193.295008 
L 301.312844 193.797567 
L 301.65752 194.300126 
L 302.031678 194.802685 
L 302.443238 195.305244 
L 302.900486 195.807803 
L 303.411452 196.310362 
L 303.983276 196.812921 
L 304.621617 197.31548 
L 305.330114 197.818039 
L 306.109935 198.320598 
L 306.959436 198.823157 
L 307.873987 199.325716 
L 308.845983 199.828275 
L 309.865081 200.330834 
L 310.918642 200.833393 
L 311.99234 201.335952 
L 313.070856 201.838511 
L 314.138542 202.34107 
L 315.179973 202.843629 
L 316.180322 203.346188 
L 317.125552 203.848747 
L 318.002481 204.351306 
L 318.79881 204.853865 
L 319.503231 205.356424 
L 320.105673 205.858983 
L 320.597727 206.361542 
L 320.973182 206.864101 
L 321.22858 207.36666 
L 321.363641 207.869219 
L 321.381457 208.371778 
L 321.288351 208.874337 
L 321.093436 209.376896 
L 320.807902 209.879455 
L 320.444184 210.382014 
L 320.015106 210.884573 
L 319.533129 211.387132 
L 319.009764 211.889691 
L 318.455149 212.39225 
L 317.877781 212.894809 
L 317.284347 213.397368 
L 316.679616 213.899927 
L 316.066398 214.402486 
L 315.445566 214.905045 
L 314.816203 215.407604 
L 314.175904 215.910163 
L 313.521268 216.412722 
L 312.848563 216.915281 
L 312.154516 217.41784 
L 311.437135 217.920399 
L 310.696444 218.422958 
L 309.935028 218.925517 
L 309.158258 219.428076 
L 308.374164 219.930635 
L 307.592927 220.433194 
L 306.826043 220.935753 
L 306.085256 221.438312 
L 305.381399 221.940871 
L 304.723298 222.44343 
L 304.116905 222.945989 
L 303.56477 223.448548 
L 303.065951 223.951107 
L 302.616345 224.453666 
L 302.209425 224.956225 
L 301.837231 225.458784 
L 301.49149 225.961343 
L 301.164684 226.463902 
L 300.850916 226.966461 
z
" style="fill:#1f77b4;fill-opacity:0.3;"/>
   </g>
   <g id="matplotlib.axis_1">
    <g id="xtick_1">
     <g id="line2d_1">
      <defs>
       <path d="M 0 0 
L 0 3.5 
" id="ma260885af4" style="stroke:#000000;stroke-width:0.8;"/>
      </defs>
      <g>
       <use style="stroke:#000000;stroke-width:0.8;" x="110.754494" xlink:href="#ma260885af4" y="244.1"/>
      </g>
     </g>
     <g id="text_1">
      <!-- Our Method -->
      <g transform="translate(59.125392 264.397266)scale(0.175 -0.175)">
       <defs>
        <path d="M 39.40625 66.21875 
Q 28.65625 66.21875 22.328125 58.203125 
Q 16.015625 50.203125 16.015625 36.375 
Q 16.015625 22.609375 22.328125 14.59375 
Q 28.65625 6.59375 39.40625 6.59375 
Q 50.140625 6.59375 56.421875 14.59375 
Q 62.703125 22.609375 62.703125 36.375 
Q 62.703125 50.203125 56.421875 58.203125 
Q 50.140625 66.21875 39.40625 66.21875 
z
M 39.40625 74.21875 
Q 54.734375 74.21875 63.90625 63.9375 
Q 73.09375 53.65625 73.09375 36.375 
Q 73.09375 19.140625 63.90625 8.859375 
Q 54.734375 -1.421875 39.40625 -1.421875 
Q 24.03125 -1.421875 14.8125 8.828125 
Q 5.609375 19.09375 5.609375 36.375 
Q 5.609375 53.65625 14.8125 63.9375 
Q 24.03125 74.21875 39.40625 74.21875 
z
" id="DejaVuSans-79"/>
        <path d="M 8.5 21.578125 
L 8.5 54.6875 
L 17.484375 54.6875 
L 17.484375 21.921875 
Q 17.484375 14.15625 20.5 10.265625 
Q 23.53125 6.390625 29.59375 6.390625 
Q 36.859375 6.390625 41.078125 11.03125 
Q 45.3125 15.671875 45.3125 23.6875 
L 45.3125 54.6875 
L 54.296875 54.6875 
L 54.296875 0 
L 45.3125 0 
L 45.3125 8.40625 
Q 42.046875 3.421875 37.71875 1 
Q 33.40625 -1.421875 27.6875 -1.421875 
Q 18.265625 -1.421875 13.375 4.4375 
Q 8.5 10.296875 8.5 21.578125 
z
M 31.109375 56 
z
" id="DejaVuSans-117"/>
        <path d="M 41.109375 46.296875 
Q 39.59375 47.171875 37.8125 47.578125 
Q 36.03125 48 33.890625 48 
Q 26.265625 48 22.1875 43.046875 
Q 18.109375 38.09375 18.109375 28.8125 
L 18.109375 0 
L 9.078125 0 
L 9.078125 54.6875 
L 18.109375 54.6875 
L 18.109375 46.1875 
Q 20.953125 51.171875 25.484375 53.578125 
Q 30.03125 56 36.53125 56 
Q 37.453125 56 38.578125 55.875 
Q 39.703125 55.765625 41.0625 55.515625 
z
" id="DejaVuSans-114"/>
        <path id="DejaVuSans-32"/>
        <path d="M 9.8125 72.90625 
L 24.515625 72.90625 
L 43.109375 23.296875 
L 61.8125 72.90625 
L 76.515625 72.90625 
L 76.515625 0 
L 66.890625 0 
L 66.890625 64.015625 
L 48.09375 14.015625 
L 38.1875 14.015625 
L 19.390625 64.015625 
L 19.390625 0 
L 9.8125 0 
z
" id="DejaVuSans-77"/>
        <path d="M 56.203125 29.59375 
L 56.203125 25.203125 
L 14.890625 25.203125 
Q 15.484375 15.921875 20.484375 11.0625 
Q 25.484375 6.203125 34.421875 6.203125 
Q 39.59375 6.203125 44.453125 7.46875 
Q 49.3125 8.734375 54.109375 11.28125 
L 54.109375 2.78125 
Q 49.265625 0.734375 44.1875 -0.34375 
Q 39.109375 -1.421875 33.890625 -1.421875 
Q 20.796875 -1.421875 13.15625 6.1875 
Q 5.515625 13.8125 5.515625 26.8125 
Q 5.515625 40.234375 12.765625 48.109375 
Q 20.015625 56 32.328125 56 
Q 43.359375 56 49.78125 48.890625 
Q 56.203125 41.796875 56.203125 29.59375 
z
M 47.21875 32.234375 
Q 47.125 39.59375 43.09375 43.984375 
Q 39.0625 48.390625 32.421875 48.390625 
Q 24.90625 48.390625 20.390625 44.140625 
Q 15.875 39.890625 15.1875 32.171875 
z
" id="DejaVuSans-101"/>
        <path d="M 18.3125 70.21875 
L 18.3125 54.6875 
L 36.8125 54.6875 
L 36.8125 47.703125 
L 18.3125 47.703125 
L 18.3125 18.015625 
Q 18.3125 11.328125 20.140625 9.421875 
Q 21.96875 7.515625 27.59375 7.515625 
L 36.8125 7.515625 
L 36.8125 0 
L 27.59375 0 
Q 17.1875 0 13.234375 3.875 
Q 9.28125 7.765625 9.28125 18.015625 
L 9.28125 47.703125 
L 2.6875 47.703125 
L 2.6875 54.6875 
L 9.28125 54.6875 
L 9.28125 70.21875 
z
" id="DejaVuSans-116"/>
        <path d="M 54.890625 33.015625 
L 54.890625 0 
L 45.90625 0 
L 45.90625 32.71875 
Q 45.90625 40.484375 42.875 44.328125 
Q 39.84375 48.1875 33.796875 48.1875 
Q 26.515625 48.1875 22.3125 43.546875 
Q 18.109375 38.921875 18.109375 30.90625 
L 18.109375 0 
L 9.078125 0 
L 9.078125 75.984375 
L 18.109375 75.984375 
L 18.109375 46.1875 
Q 21.34375 51.125 25.703125 53.5625 
Q 30.078125 56 35.796875 56 
Q 45.21875 56 50.046875 50.171875 
Q 54.890625 44.34375 54.890625 33.015625 
z
" id="DejaVuSans-104"/>
        <path d="M 30.609375 48.390625 
Q 23.390625 48.390625 19.1875 42.75 
Q 14.984375 37.109375 14.984375 27.296875 
Q 14.984375 17.484375 19.15625 11.84375 
Q 23.34375 6.203125 30.609375 6.203125 
Q 37.796875 6.203125 41.984375 11.859375 
Q 46.1875 17.53125 46.1875 27.296875 
Q 46.1875 37.015625 41.984375 42.703125 
Q 37.796875 48.390625 30.609375 48.390625 
z
M 30.609375 56 
Q 42.328125 56 49.015625 48.375 
Q 55.71875 40.765625 55.71875 27.296875 
Q 55.71875 13.875 49.015625 6.21875 
Q 42.328125 -1.421875 30.609375 -1.421875 
Q 18.84375 -1.421875 12.171875 6.21875 
Q 5.515625 13.875 5.515625 27.296875 
Q 5.515625 40.765625 12.171875 48.375 
Q 18.84375 56 30.609375 56 
z
" id="DejaVuSans-111"/>
        <path d="M 45.40625 46.390625 
L 45.40625 75.984375 
L 54.390625 75.984375 
L 54.390625 0 
L 45.40625 0 
L 45.40625 8.203125 
Q 42.578125 3.328125 38.25 0.953125 
Q 33.9375 -1.421875 27.875 -1.421875 
Q 17.96875 -1.421875 11.734375 6.484375 
Q 5.515625 14.40625 5.515625 27.296875 
Q 5.515625 40.1875 11.734375 48.09375 
Q 17.96875 56 27.875 56 
Q 33.9375 56 38.25 53.625 
Q 42.578125 51.265625 45.40625 46.390625 
z
M 14.796875 27.296875 
Q 14.796875 17.390625 18.875 11.75 
Q 22.953125 6.109375 30.078125 6.109375 
Q 37.203125 6.109375 41.296875 11.75 
Q 45.40625 17.390625 45.40625 27.296875 
Q 45.40625 37.203125 41.296875 42.84375 
Q 37.203125 48.484375 30.078125 48.484375 
Q 22.953125 48.484375 18.875 42.84375 
Q 14.796875 37.203125 14.796875 27.296875 
z
" id="DejaVuSans-100"/>
       </defs>
       <use xlink:href="#DejaVuSans-79"/>
       <use x="78.710938" xlink:href="#DejaVuSans-117"/>
       <use x="142.089844" xlink:href="#DejaVuSans-114"/>
       <use x="183.203125" xlink:href="#DejaVuSans-32"/>
       <use x="214.990234" xlink:href="#DejaVuSans-77"/>
       <use x="301.269531" xlink:href="#DejaVuSans-101"/>
       <use x="362.792969" xlink:href="#DejaVuSans-116"/>
       <use x="402.001953" xlink:href="#DejaVuSans-104"/>
       <use x="465.380859" xlink:href="#DejaVuSans-111"/>
       <use x="526.5625" xlink:href="#DejaVuSans-100"/>
      </g>
     </g>
    </g>
    <g id="xtick_2">
     <g id="line2d_2">
      <g>
       <use style="stroke:#000000;stroke-width:0.8;" x="204.366477" xlink:href="#ma260885af4" y="244.1"/>
      </g>
     </g>
     <g id="text_2">
      <!-- Stein's -->
      <g transform="translate(175.058079 264.397266)scale(0.175 -0.175)">
       <defs>
        <path d="M 53.515625 70.515625 
L 53.515625 60.890625 
Q 47.90625 63.578125 42.921875 64.890625 
Q 37.9375 66.21875 33.296875 66.21875 
Q 25.25 66.21875 20.875 63.09375 
Q 16.5 59.96875 16.5 54.203125 
Q 16.5 49.359375 19.40625 46.890625 
Q 22.3125 44.4375 30.421875 42.921875 
L 36.375 41.703125 
Q 47.40625 39.59375 52.65625 34.296875 
Q 57.90625 29 57.90625 20.125 
Q 57.90625 9.515625 50.796875 4.046875 
Q 43.703125 -1.421875 29.984375 -1.421875 
Q 24.8125 -1.421875 18.96875 -0.25 
Q 13.140625 0.921875 6.890625 3.21875 
L 6.890625 13.375 
Q 12.890625 10.015625 18.65625 8.296875 
Q 24.421875 6.59375 29.984375 6.59375 
Q 38.421875 6.59375 43.015625 9.90625 
Q 47.609375 13.234375 47.609375 19.390625 
Q 47.609375 24.75 44.3125 27.78125 
Q 41.015625 30.8125 33.5 32.328125 
L 27.484375 33.5 
Q 16.453125 35.6875 11.515625 40.375 
Q 6.59375 45.0625 6.59375 53.421875 
Q 6.59375 63.09375 13.40625 68.65625 
Q 20.21875 74.21875 32.171875 74.21875 
Q 37.3125 74.21875 42.625 73.28125 
Q 47.953125 72.359375 53.515625 70.515625 
z
" id="DejaVuSans-83"/>
        <path d="M 9.421875 54.6875 
L 18.40625 54.6875 
L 18.40625 0 
L 9.421875 0 
z
M 9.421875 75.984375 
L 18.40625 75.984375 
L 18.40625 64.59375 
L 9.421875 64.59375 
z
" id="DejaVuSans-105"/>
        <path d="M 54.890625 33.015625 
L 54.890625 0 
L 45.90625 0 
L 45.90625 32.71875 
Q 45.90625 40.484375 42.875 44.328125 
Q 39.84375 48.1875 33.796875 48.1875 
Q 26.515625 48.1875 22.3125 43.546875 
Q 18.109375 38.921875 18.109375 30.90625 
L 18.109375 0 
L 9.078125 0 
L 9.078125 54.6875 
L 18.109375 54.6875 
L 18.109375 46.1875 
Q 21.34375 51.125 25.703125 53.5625 
Q 30.078125 56 35.796875 56 
Q 45.21875 56 50.046875 50.171875 
Q 54.890625 44.34375 54.890625 33.015625 
z
" id="DejaVuSans-110"/>
        <path d="M 17.921875 72.90625 
L 17.921875 45.796875 
L 9.625 45.796875 
L 9.625 72.90625 
z
" id="DejaVuSans-39"/>
        <path d="M 44.28125 53.078125 
L 44.28125 44.578125 
Q 40.484375 46.53125 36.375 47.5 
Q 32.28125 48.484375 27.875 48.484375 
Q 21.1875 48.484375 17.84375 46.4375 
Q 14.5 44.390625 14.5 40.28125 
Q 14.5 37.15625 16.890625 35.375 
Q 19.28125 33.59375 26.515625 31.984375 
L 29.59375 31.296875 
Q 39.15625 29.25 43.1875 25.515625 
Q 47.21875 21.78125 47.21875 15.09375 
Q 47.21875 7.46875 41.1875 3.015625 
Q 35.15625 -1.421875 24.609375 -1.421875 
Q 20.21875 -1.421875 15.453125 -0.5625 
Q 10.6875 0.296875 5.421875 2 
L 5.421875 11.28125 
Q 10.40625 8.6875 15.234375 7.390625 
Q 20.0625 6.109375 24.8125 6.109375 
Q 31.15625 6.109375 34.5625 8.28125 
Q 37.984375 10.453125 37.984375 14.40625 
Q 37.984375 18.0625 35.515625 20.015625 
Q 33.0625 21.96875 24.703125 23.78125 
L 21.578125 24.515625 
Q 13.234375 26.265625 9.515625 29.90625 
Q 5.8125 33.546875 5.8125 39.890625 
Q 5.8125 47.609375 11.28125 51.796875 
Q 16.75 56 26.8125 56 
Q 31.78125 56 36.171875 55.265625 
Q 40.578125 54.546875 44.28125 53.078125 
z
" id="DejaVuSans-115"/>
       </defs>
       <use xlink:href="#DejaVuSans-83"/>
       <use x="63.476562" xlink:href="#DejaVuSans-116"/>
       <use x="102.685547" xlink:href="#DejaVuSans-101"/>
       <use x="164.208984" xlink:href="#DejaVuSans-105"/>
       <use x="191.992188" xlink:href="#DejaVuSans-110"/>
       <use x="255.371094" xlink:href="#DejaVuSans-39"/>
       <use x="282.861328" xlink:href="#DejaVuSans-115"/>
      </g>
     </g>
    </g>
    <g id="xtick_3">
     <g id="line2d_3">
      <g>
       <use style="stroke:#000000;stroke-width:0.8;" x="297.978461" xlink:href="#ma260885af4" y="244.1"/>
      </g>
     </g>
     <g id="text_3">
      <!-- Entry-wise -->
      <g transform="translate(252.165375 264.397266)scale(0.175 -0.175)">
       <defs>
        <path d="M 9.8125 72.90625 
L 55.90625 72.90625 
L 55.90625 64.59375 
L 19.671875 64.59375 
L 19.671875 43.015625 
L 54.390625 43.015625 
L 54.390625 34.71875 
L 19.671875 34.71875 
L 19.671875 8.296875 
L 56.78125 8.296875 
L 56.78125 0 
L 9.8125 0 
z
" id="DejaVuSans-69"/>
        <path d="M 32.171875 -5.078125 
Q 28.375 -14.84375 24.75 -17.8125 
Q 21.140625 -20.796875 15.09375 -20.796875 
L 7.90625 -20.796875 
L 7.90625 -13.28125 
L 13.1875 -13.28125 
Q 16.890625 -13.28125 18.9375 -11.515625 
Q 21 -9.765625 23.484375 -3.21875 
L 25.09375 0.875 
L 2.984375 54.6875 
L 12.5 54.6875 
L 29.59375 11.921875 
L 46.6875 54.6875 
L 56.203125 54.6875 
z
" id="DejaVuSans-121"/>
        <path d="M 4.890625 31.390625 
L 31.203125 31.390625 
L 31.203125 23.390625 
L 4.890625 23.390625 
z
" id="DejaVuSans-45"/>
        <path d="M 4.203125 54.6875 
L 13.1875 54.6875 
L 24.421875 12.015625 
L 35.59375 54.6875 
L 46.1875 54.6875 
L 57.421875 12.015625 
L 68.609375 54.6875 
L 77.59375 54.6875 
L 63.28125 0 
L 52.6875 0 
L 40.921875 44.828125 
L 29.109375 0 
L 18.5 0 
z
" id="DejaVuSans-119"/>
       </defs>
       <use xlink:href="#DejaVuSans-69"/>
       <use x="63.183594" xlink:href="#DejaVuSans-110"/>
       <use x="126.5625" xlink:href="#DejaVuSans-116"/>
       <use x="165.771484" xlink:href="#DejaVuSans-114"/>
       <use x="206.884766" xlink:href="#DejaVuSans-121"/>
       <use x="264.314453" xlink:href="#DejaVuSans-45"/>
       <use x="300.398438" xlink:href="#DejaVuSans-119"/>
       <use x="382.185547" xlink:href="#DejaVuSans-105"/>
       <use x="409.96875" xlink:href="#DejaVuSans-115"/>
       <use x="462.068359" xlink:href="#DejaVuSans-101"/>
      </g>
     </g>
    </g>
   </g>
   <g id="matplotlib.axis_2">
    <g id="ytick_1">
     <g id="line2d_4">
      <defs>
       <path d="M 0 0 
L -3.5 0 
" id="m1edbc24f45" style="stroke:#000000;stroke-width:0.8;"/>
      </defs>
      <g>
       <use style="stroke:#000000;stroke-width:0.8;" x="75.65" xlink:href="#m1edbc24f45" y="174.498213"/>
      </g>
     </g>
     <g id="text_4">
      <!-- 0.5 -->
      <g transform="translate(40.819531 181.146846)scale(0.175 -0.175)">
       <defs>
        <path d="M 31.78125 66.40625 
Q 24.171875 66.40625 20.328125 58.90625 
Q 16.5 51.421875 16.5 36.375 
Q 16.5 21.390625 20.328125 13.890625 
Q 24.171875 6.390625 31.78125 6.390625 
Q 39.453125 6.390625 43.28125 13.890625 
Q 47.125 21.390625 47.125 36.375 
Q 47.125 51.421875 43.28125 58.90625 
Q 39.453125 66.40625 31.78125 66.40625 
z
M 31.78125 74.21875 
Q 44.046875 74.21875 50.515625 64.515625 
Q 56.984375 54.828125 56.984375 36.375 
Q 56.984375 17.96875 50.515625 8.265625 
Q 44.046875 -1.421875 31.78125 -1.421875 
Q 19.53125 -1.421875 13.0625 8.265625 
Q 6.59375 17.96875 6.59375 36.375 
Q 6.59375 54.828125 13.0625 64.515625 
Q 19.53125 74.21875 31.78125 74.21875 
z
" id="DejaVuSans-48"/>
        <path d="M 10.6875 12.40625 
L 21 12.40625 
L 21 0 
L 10.6875 0 
z
" id="DejaVuSans-46"/>
        <path d="M 10.796875 72.90625 
L 49.515625 72.90625 
L 49.515625 64.59375 
L 19.828125 64.59375 
L 19.828125 46.734375 
Q 21.96875 47.46875 24.109375 47.828125 
Q 26.265625 48.1875 28.421875 48.1875 
Q 40.625 48.1875 47.75 41.5 
Q 54.890625 34.8125 54.890625 23.390625 
Q 54.890625 11.625 47.5625 5.09375 
Q 40.234375 -1.421875 26.90625 -1.421875 
Q 22.3125 -1.421875 17.546875 -0.640625 
Q 12.796875 0.140625 7.71875 1.703125 
L 7.71875 11.625 
Q 12.109375 9.234375 16.796875 8.0625 
Q 21.484375 6.890625 26.703125 6.890625 
Q 35.15625 6.890625 40.078125 11.328125 
Q 45.015625 15.765625 45.015625 23.390625 
Q 45.015625 31 40.078125 35.4375 
Q 35.15625 39.890625 26.703125 39.890625 
Q 22.75 39.890625 18.8125 39.015625 
Q 14.890625 38.140625 10.796875 36.28125 
z
" id="DejaVuSans-53"/>
       </defs>
       <use xlink:href="#DejaVuSans-48"/>
       <use x="63.623047" xlink:href="#DejaVuSans-46"/>
       <use x="95.410156" xlink:href="#DejaVuSans-53"/>
      </g>
     </g>
    </g>
    <g id="ytick_2">
     <g id="line2d_5">
      <g>
       <use style="stroke:#000000;stroke-width:0.8;" x="75.65" xlink:href="#m1edbc24f45" y="100.924181"/>
      </g>
     </g>
     <g id="text_5">
      <!-- 1.0 -->
      <g transform="translate(40.819531 107.572814)scale(0.175 -0.175)">
       <defs>
        <path d="M 12.40625 8.296875 
L 28.515625 8.296875 
L 28.515625 63.921875 
L 10.984375 60.40625 
L 10.984375 69.390625 
L 28.421875 72.90625 
L 38.28125 72.90625 
L 38.28125 8.296875 
L 54.390625 8.296875 
L 54.390625 0 
L 12.40625 0 
z
" id="DejaVuSans-49"/>
       </defs>
       <use xlink:href="#DejaVuSans-49"/>
       <use x="63.623047" xlink:href="#DejaVuSans-46"/>
       <use x="95.410156" xlink:href="#DejaVuSans-48"/>
      </g>
     </g>
    </g>
    <g id="ytick_3">
     <g id="line2d_6">
      <g>
       <use style="stroke:#000000;stroke-width:0.8;" x="75.65" xlink:href="#m1edbc24f45" y="27.35015"/>
      </g>
     </g>
     <g id="text_6">
      <!-- 1.5 -->
      <g transform="translate(40.819531 33.998783)scale(0.175 -0.175)">
       <use xlink:href="#DejaVuSans-49"/>
       <use x="63.623047" xlink:href="#DejaVuSans-46"/>
       <use x="95.410156" xlink:href="#DejaVuSans-53"/>
      </g>
     </g>
    </g>
    <g id="text_7">
     <!-- Estimation Error -->
     <g transform="translate(33.180078 202.198633)rotate(-90)scale(0.175 -0.175)">
      <defs>
       <path d="M 52 44.1875 
Q 55.375 50.25 60.0625 53.125 
Q 64.75 56 71.09375 56 
Q 79.640625 56 84.28125 50.015625 
Q 88.921875 44.046875 88.921875 33.015625 
L 88.921875 0 
L 79.890625 0 
L 79.890625 32.71875 
Q 79.890625 40.578125 77.09375 44.375 
Q 74.3125 48.1875 68.609375 48.1875 
Q 61.625 48.1875 57.5625 43.546875 
Q 53.515625 38.921875 53.515625 30.90625 
L 53.515625 0 
L 44.484375 0 
L 44.484375 32.71875 
Q 44.484375 40.625 41.703125 44.40625 
Q 38.921875 48.1875 33.109375 48.1875 
Q 26.21875 48.1875 22.15625 43.53125 
Q 18.109375 38.875 18.109375 30.90625 
L 18.109375 0 
L 9.078125 0 
L 9.078125 54.6875 
L 18.109375 54.6875 
L 18.109375 46.1875 
Q 21.1875 51.21875 25.484375 53.609375 
Q 29.78125 56 35.6875 56 
Q 41.65625 56 45.828125 52.96875 
Q 50 49.953125 52 44.1875 
z
" id="DejaVuSans-109"/>
       <path d="M 34.28125 27.484375 
Q 23.390625 27.484375 19.1875 25 
Q 14.984375 22.515625 14.984375 16.5 
Q 14.984375 11.71875 18.140625 8.90625 
Q 21.296875 6.109375 26.703125 6.109375 
Q 34.1875 6.109375 38.703125 11.40625 
Q 43.21875 16.703125 43.21875 25.484375 
L 43.21875 27.484375 
z
M 52.203125 31.203125 
L 52.203125 0 
L 43.21875 0 
L 43.21875 8.296875 
Q 40.140625 3.328125 35.546875 0.953125 
Q 30.953125 -1.421875 24.3125 -1.421875 
Q 15.921875 -1.421875 10.953125 3.296875 
Q 6 8.015625 6 15.921875 
Q 6 25.140625 12.171875 29.828125 
Q 18.359375 34.515625 30.609375 34.515625 
L 43.21875 34.515625 
L 43.21875 35.40625 
Q 43.21875 41.609375 39.140625 45 
Q 35.0625 48.390625 27.6875 48.390625 
Q 23 48.390625 18.546875 47.265625 
Q 14.109375 46.140625 10.015625 43.890625 
L 10.015625 52.203125 
Q 14.9375 54.109375 19.578125 55.046875 
Q 24.21875 56 28.609375 56 
Q 40.484375 56 46.34375 49.84375 
Q 52.203125 43.703125 52.203125 31.203125 
z
" id="DejaVuSans-97"/>
      </defs>
      <use xlink:href="#DejaVuSans-69"/>
      <use x="63.183594" xlink:href="#DejaVuSans-115"/>
      <use x="115.283203" xlink:href="#DejaVuSans-116"/>
      <use x="154.492188" xlink:href="#DejaVuSans-105"/>
      <use x="182.275391" xlink:href="#DejaVuSans-109"/>
      <use x="279.6875" xlink:href="#DejaVuSans-97"/>
      <use x="340.966797" xlink:href="#DejaVuSans-116"/>
      <use x="380.175781" xlink:href="#DejaVuSans-105"/>
      <use x="407.958984" xlink:href="#DejaVuSans-111"/>
      <use x="469.140625" xlink:href="#DejaVuSans-110"/>
      <use x="532.519531" xlink:href="#DejaVuSans-32"/>
      <use x="564.306641" xlink:href="#DejaVuSans-69"/>
      <use x="627.490234" xlink:href="#DejaVuSans-114"/>
      <use x="666.853516" xlink:href="#DejaVuSans-114"/>
      <use x="705.716797" xlink:href="#DejaVuSans-111"/>
      <use x="766.898438" xlink:href="#DejaVuSans-114"/>
     </g>
    </g>
   </g>
   <g id="LineCollection_1">
    <path clip-path="url(#pb902896a4b)" d="M 99.052996 161.217619 
L 122.455992 161.217619 
" style="fill:none;stroke:#1f77b4;stroke-width:1.5;"/>
    <path clip-path="url(#pb902896a4b)" d="M 192.664979 29.136364 
L 216.067975 29.136364 
" style="fill:none;stroke:#1f77b4;stroke-width:1.5;"/>
    <path clip-path="url(#pb902896a4b)" d="M 286.276963 177.213121 
L 309.679959 177.213121 
" style="fill:none;stroke:#1f77b4;stroke-width:1.5;"/>
   </g>
   <g id="LineCollection_2">
    <path clip-path="url(#pb902896a4b)" d="M 99.052996 233.863636 
L 122.455992 233.863636 
" style="fill:none;stroke:#1f77b4;stroke-width:1.5;"/>
    <path clip-path="url(#pb902896a4b)" d="M 192.664979 196.682281 
L 216.067975 196.682281 
" style="fill:none;stroke:#1f77b4;stroke-width:1.5;"/>
    <path clip-path="url(#pb902896a4b)" d="M 286.276963 226.966461 
L 309.679959 226.966461 
" style="fill:none;stroke:#1f77b4;stroke-width:1.5;"/>
   </g>
   <g id="LineCollection_3">
    <path clip-path="url(#pb902896a4b)" d="M 110.754494 233.863636 
L 110.754494 161.217619 
" style="fill:none;stroke:#1f77b4;stroke-width:1.5;"/>
    <path clip-path="url(#pb902896a4b)" d="M 204.366477 196.682281 
L 204.366477 29.136364 
" style="fill:none;stroke:#1f77b4;stroke-width:1.5;"/>
    <path clip-path="url(#pb902896a4b)" d="M 297.978461 226.966461 
L 297.978461 177.213121 
" style="fill:none;stroke:#1f77b4;stroke-width:1.5;"/>
   </g>
   <g id="patch_3">
    <path d="M 75.65 244.1 
L 75.65 18.9 
" style="fill:none;stroke:#000000;stroke-linecap:square;stroke-linejoin:miter;stroke-width:0.8;"/>
   </g>
   <g id="patch_4">
    <path d="M 333.082955 244.1 
L 333.082955 18.9 
" style="fill:none;stroke:#000000;stroke-linecap:square;stroke-linejoin:miter;stroke-width:0.8;"/>
   </g>
   <g id="patch_5">
    <path d="M 75.65 244.1 
L 333.082955 244.1 
" style="fill:none;stroke:#000000;stroke-linecap:square;stroke-linejoin:miter;stroke-width:0.8;"/>
   </g>
   <g id="patch_6">
    <path d="M 75.65 18.9 
L 333.082955 18.9 
" style="fill:none;stroke:#000000;stroke-linecap:square;stroke-linejoin:miter;stroke-width:0.8;"/>
   </g>
  </g>
 </g>
 <defs>
  <clipPath id="pb902896a4b">
   <rect height="225.2" width="257.432955" x="75.65" y="18.9"/>
  </clipPath>
 </defs>
</svg>
